G04*
G04 #@! TF.GenerationSoftware,Altium Limited,Altium Designer,21.0.9 (235)*
G04*
G04 Layer_Color=16711935*
%FSLAX44Y44*%
%MOMM*%
G71*
G04*
G04 #@! TF.SameCoordinates,70CB9891-2270-4D21-866A-A56E4BF175EE*
G04*
G04*
G04 #@! TF.FilePolarity,Negative*
G04*
G01*
G75*
%ADD69C,5.2032*%
%ADD70C,1.8032*%
%ADD71R,1.8032X1.8032*%
%ADD72C,1.7032*%
%ADD73R,1.7032X1.7032*%
%ADD74R,1.7032X1.7032*%
%ADD75R,1.8032X1.8032*%
G04:AMPARAMS|DCode=76|XSize=3.2mm|YSize=1.6mm|CornerRadius=0.8mm|HoleSize=0mm|Usage=FLASHONLY|Rotation=0.000|XOffset=0mm|YOffset=0mm|HoleType=Round|Shape=RoundedRectangle|*
%AMROUNDEDRECTD76*
21,1,3.2000,0.0000,0,0,0.0*
21,1,1.6000,1.6000,0,0,0.0*
1,1,1.6000,0.8000,0.0000*
1,1,1.6000,-0.8000,0.0000*
1,1,1.6000,-0.8000,0.0000*
1,1,1.6000,0.8000,0.0000*
%
%ADD76ROUNDEDRECTD76*%
%ADD77R,3.2000X1.6000*%
G04:AMPARAMS|DCode=78|XSize=1.6mm|YSize=3.2mm|CornerRadius=0.8mm|HoleSize=0mm|Usage=FLASHONLY|Rotation=0.000|XOffset=0mm|YOffset=0mm|HoleType=Round|Shape=RoundedRectangle|*
%AMROUNDEDRECTD78*
21,1,1.6000,1.6000,0,0,0.0*
21,1,0.0000,3.2000,0,0,0.0*
1,1,1.6000,0.0000,-0.8000*
1,1,1.6000,0.0000,-0.8000*
1,1,1.6000,0.0000,0.8000*
1,1,1.6000,0.0000,0.8000*
%
%ADD78ROUNDEDRECTD78*%
%ADD79C,1.4000*%
%ADD80R,1.4000X1.4000*%
%ADD81C,0.9032*%
%ADD82C,0.7532*%
D69*
X142000Y40000D02*
D03*
X810000Y40000D02*
D03*
X700000Y1520000D02*
D03*
X142000Y1590000D02*
D03*
D70*
X794474Y596400D02*
D03*
Y571000D02*
D03*
Y545600D02*
D03*
X769074Y596400D02*
D03*
Y571000D02*
D03*
Y545600D02*
D03*
X794474Y367800D02*
D03*
X769074D02*
D03*
X794474Y342400D02*
D03*
Y317000D02*
D03*
Y291600D02*
D03*
X769074Y342400D02*
D03*
Y317000D02*
D03*
Y291600D02*
D03*
Y215400D02*
D03*
Y240800D02*
D03*
Y266200D02*
D03*
X794474Y190000D02*
D03*
Y215400D02*
D03*
Y240800D02*
D03*
Y266200D02*
D03*
X769074Y393200D02*
D03*
Y418600D02*
D03*
Y444000D02*
D03*
Y469400D02*
D03*
X794474Y393200D02*
D03*
Y418600D02*
D03*
Y444000D02*
D03*
Y469400D02*
D03*
X769074Y494800D02*
D03*
Y520200D02*
D03*
X794474Y494800D02*
D03*
Y520200D02*
D03*
Y1170178D02*
D03*
Y1144778D02*
D03*
Y1119378D02*
D03*
X769074Y1170178D02*
D03*
Y1144778D02*
D03*
Y1119378D02*
D03*
X794474Y941578D02*
D03*
X769074D02*
D03*
X794474Y916178D02*
D03*
Y890778D02*
D03*
Y865378D02*
D03*
X769074Y916178D02*
D03*
Y890778D02*
D03*
Y865378D02*
D03*
Y789178D02*
D03*
Y814578D02*
D03*
Y839978D02*
D03*
X794474Y763778D02*
D03*
Y789178D02*
D03*
Y814578D02*
D03*
Y839978D02*
D03*
X769074Y966978D02*
D03*
Y992378D02*
D03*
Y1017778D02*
D03*
Y1043178D02*
D03*
X794474Y966978D02*
D03*
Y992378D02*
D03*
Y1017778D02*
D03*
Y1043178D02*
D03*
X769074Y1068578D02*
D03*
Y1093978D02*
D03*
X794474Y1068578D02*
D03*
Y1093978D02*
D03*
X77814Y1332828D02*
D03*
Y1358228D02*
D03*
Y1383628D02*
D03*
Y1409028D02*
D03*
Y1434428D02*
D03*
Y1459828D02*
D03*
Y1485228D02*
D03*
Y1510628D02*
D03*
Y1536028D02*
D03*
Y1561428D02*
D03*
Y1586828D02*
D03*
X77840Y395350D02*
D03*
Y420750D02*
D03*
Y446150D02*
D03*
Y471550D02*
D03*
Y496950D02*
D03*
Y522350D02*
D03*
Y547750D02*
D03*
Y573150D02*
D03*
Y598550D02*
D03*
Y623950D02*
D03*
Y649350D02*
D03*
X77814Y82850D02*
D03*
Y108250D02*
D03*
Y133650D02*
D03*
Y159050D02*
D03*
Y184450D02*
D03*
Y209850D02*
D03*
Y235250D02*
D03*
Y260650D02*
D03*
Y286050D02*
D03*
Y311450D02*
D03*
Y336850D02*
D03*
Y707600D02*
D03*
Y733000D02*
D03*
Y758400D02*
D03*
Y783800D02*
D03*
Y809200D02*
D03*
Y834600D02*
D03*
Y860000D02*
D03*
Y885400D02*
D03*
Y910800D02*
D03*
Y936200D02*
D03*
Y961600D02*
D03*
Y1020600D02*
D03*
Y1046000D02*
D03*
Y1071400D02*
D03*
Y1096800D02*
D03*
Y1122200D02*
D03*
Y1147600D02*
D03*
Y1173000D02*
D03*
Y1198400D02*
D03*
Y1223800D02*
D03*
Y1249200D02*
D03*
Y1274600D02*
D03*
X77815Y24850D02*
D03*
X472022Y1594104D02*
D03*
X691732D02*
D03*
X333084Y1593342D02*
D03*
D71*
X769074Y190000D02*
D03*
Y763778D02*
D03*
X77814Y1612228D02*
D03*
X77840Y674750D02*
D03*
X77814Y362250D02*
D03*
Y987000D02*
D03*
Y1300000D02*
D03*
X77815Y50250D02*
D03*
D72*
X845148Y1170178D02*
D03*
Y1144778D02*
D03*
X819748Y1170178D02*
D03*
Y1144778D02*
D03*
X845148Y1043178D02*
D03*
X819748D02*
D03*
X845148Y992378D02*
D03*
X819748D02*
D03*
X845148Y865378D02*
D03*
X819748D02*
D03*
X845148Y789178D02*
D03*
X819748D02*
D03*
X845148Y763778D02*
D03*
X819748Y814578D02*
D03*
X845148D02*
D03*
X819748Y839978D02*
D03*
X845148D02*
D03*
X819748Y890778D02*
D03*
X845148D02*
D03*
X819748Y916178D02*
D03*
X845148D02*
D03*
X819748Y941578D02*
D03*
Y966978D02*
D03*
X845148Y941578D02*
D03*
Y966978D02*
D03*
X819748Y1017778D02*
D03*
X845148D02*
D03*
X819748Y1068578D02*
D03*
Y1093978D02*
D03*
Y1119378D02*
D03*
X845148Y1068578D02*
D03*
Y1093978D02*
D03*
Y1119378D02*
D03*
X844894Y596130D02*
D03*
Y570730D02*
D03*
X819494Y596130D02*
D03*
Y570730D02*
D03*
X844894Y469130D02*
D03*
X819494D02*
D03*
X844894Y418330D02*
D03*
X819494D02*
D03*
X844894Y291330D02*
D03*
X819494D02*
D03*
X844894Y215130D02*
D03*
X819494D02*
D03*
X844894Y189730D02*
D03*
X819494Y240530D02*
D03*
X844894D02*
D03*
X819494Y265930D02*
D03*
X844894D02*
D03*
X819494Y316730D02*
D03*
X844894D02*
D03*
X819494Y342130D02*
D03*
X844894D02*
D03*
X819494Y367530D02*
D03*
Y392930D02*
D03*
X844894Y367530D02*
D03*
Y392930D02*
D03*
X819494Y443730D02*
D03*
X844894D02*
D03*
X819494Y494530D02*
D03*
Y519930D02*
D03*
Y545330D02*
D03*
X844894Y494530D02*
D03*
Y519930D02*
D03*
Y545330D02*
D03*
X601744Y1318910D02*
D03*
X627144D02*
D03*
X401524Y1316990D02*
D03*
X426924D02*
D03*
X593434Y1188466D02*
D03*
X618834D02*
D03*
X402172Y1161796D02*
D03*
X427572D02*
D03*
X241168Y1017524D02*
D03*
X215768D02*
D03*
X425980Y1017580D02*
D03*
X400580D02*
D03*
X591080D02*
D03*
X565680D02*
D03*
X260880Y910900D02*
D03*
X235480D02*
D03*
X425980D02*
D03*
X400580D02*
D03*
X591080D02*
D03*
X565680D02*
D03*
X260880Y804220D02*
D03*
X235480D02*
D03*
X425980D02*
D03*
X400580D02*
D03*
X591080D02*
D03*
X565680D02*
D03*
X260880Y697540D02*
D03*
X235480D02*
D03*
X425980D02*
D03*
X400580D02*
D03*
X591080D02*
D03*
X565680D02*
D03*
X260880Y590860D02*
D03*
X235480D02*
D03*
X425980D02*
D03*
X400580D02*
D03*
X591080D02*
D03*
X565680D02*
D03*
X259920Y483220D02*
D03*
X234520D02*
D03*
X425020D02*
D03*
X399620D02*
D03*
X590120D02*
D03*
X564720D02*
D03*
X259920Y376540D02*
D03*
X234520D02*
D03*
X425020D02*
D03*
X399620D02*
D03*
X590120D02*
D03*
X564720D02*
D03*
X259920Y269860D02*
D03*
X234520D02*
D03*
X425020D02*
D03*
X399620D02*
D03*
X590120D02*
D03*
X564720D02*
D03*
X259920Y163180D02*
D03*
X234520D02*
D03*
X425020D02*
D03*
X399620D02*
D03*
X590120D02*
D03*
X564720D02*
D03*
X251438Y1339596D02*
D03*
X226038D02*
D03*
D73*
X819748Y763778D02*
D03*
X819494Y189730D02*
D03*
D74*
X652544Y1318910D02*
D03*
X452324Y1316990D02*
D03*
X644234Y1188466D02*
D03*
X452972Y1161796D02*
D03*
X266568Y1017524D02*
D03*
X451380Y1017580D02*
D03*
X616480D02*
D03*
X286280Y910900D02*
D03*
X451380D02*
D03*
X616480D02*
D03*
X286280Y804220D02*
D03*
X451380D02*
D03*
X616480D02*
D03*
X286280Y697540D02*
D03*
X451380D02*
D03*
X616480D02*
D03*
X286280Y590860D02*
D03*
X451380D02*
D03*
X616480D02*
D03*
X285320Y483220D02*
D03*
X450420D02*
D03*
X615520D02*
D03*
X285320Y376540D02*
D03*
X450420D02*
D03*
X615520D02*
D03*
X285320Y269860D02*
D03*
X450420D02*
D03*
X615520D02*
D03*
X285320Y163180D02*
D03*
X450420D02*
D03*
X615520D02*
D03*
X276838Y1339596D02*
D03*
D75*
X497422Y1594104D02*
D03*
X717132D02*
D03*
X358484Y1593342D02*
D03*
D76*
X582932Y1549480D02*
D03*
X798832D02*
D03*
D77*
X582932Y1489480D02*
D03*
X798832D02*
D03*
D78*
X535932Y1519480D02*
D03*
X751832D02*
D03*
D79*
X211164Y27940D02*
D03*
Y52940D02*
D03*
X274664Y27940D02*
D03*
Y52940D02*
D03*
X338164Y27940D02*
D03*
Y52940D02*
D03*
X401664Y27940D02*
D03*
Y52940D02*
D03*
X465164Y27940D02*
D03*
Y52940D02*
D03*
X528664Y27940D02*
D03*
Y52940D02*
D03*
X592164Y27940D02*
D03*
Y52940D02*
D03*
X655664Y27940D02*
D03*
Y52940D02*
D03*
D80*
X211164Y77940D02*
D03*
X274664D02*
D03*
X338164D02*
D03*
X401664D02*
D03*
X465164D02*
D03*
X528664D02*
D03*
X592164D02*
D03*
X655664D02*
D03*
D81*
X192244Y1469470D02*
D03*
X749104Y1201720D02*
D03*
X261490Y1059131D02*
D03*
X429210Y1093090D02*
D03*
X447890Y1345560D02*
D03*
X818122Y1342390D02*
D03*
X429024Y1221050D02*
D03*
X731102Y1299210D02*
D03*
X506820Y1197534D02*
D03*
X323758Y1210890D02*
D03*
X515456Y1328348D02*
D03*
X673698Y1157876D02*
D03*
X449924Y1214628D02*
D03*
X442812Y1273013D02*
D03*
X674510Y1272360D02*
D03*
X691732Y1223012D02*
D03*
X654648Y1273844D02*
D03*
X615430Y1290888D02*
D03*
X303508Y1382014D02*
D03*
X219178Y1356360D02*
D03*
X228949Y1190260D02*
D03*
X485868Y1281938D02*
D03*
X509140Y1045040D02*
D03*
Y831680D02*
D03*
Y725000D02*
D03*
Y618320D02*
D03*
X508180Y510680D02*
D03*
Y404000D02*
D03*
Y190640D02*
D03*
X343080D02*
D03*
Y404000D02*
D03*
Y510680D02*
D03*
X344040Y618320D02*
D03*
Y725000D02*
D03*
Y831680D02*
D03*
Y938360D02*
D03*
X509140D02*
D03*
X373104Y1474470D02*
D03*
X258328Y1408010D02*
D03*
Y1419010D02*
D03*
X269328Y1408010D02*
D03*
Y1419010D02*
D03*
X280328Y1408010D02*
D03*
Y1419010D02*
D03*
X226095Y1116546D02*
D03*
Y1127546D02*
D03*
X237095Y1116546D02*
D03*
Y1127546D02*
D03*
X248095Y1116546D02*
D03*
Y1127546D02*
D03*
X407460Y1108594D02*
D03*
X396460D02*
D03*
X407460Y1119594D02*
D03*
X396460D02*
D03*
X407460Y1130594D02*
D03*
X396460D02*
D03*
X597960Y1108594D02*
D03*
X586960D02*
D03*
X597960Y1119594D02*
D03*
X586960D02*
D03*
X597960Y1130594D02*
D03*
X586960D02*
D03*
X625036Y1235598D02*
D03*
X614036D02*
D03*
X625036Y1246598D02*
D03*
X614036D02*
D03*
X625036Y1257598D02*
D03*
X614036D02*
D03*
X407274Y1236554D02*
D03*
X396274D02*
D03*
X407274Y1247554D02*
D03*
X396274D02*
D03*
X407274Y1258554D02*
D03*
X396274D02*
D03*
X249230Y201140D02*
D03*
X260230D02*
D03*
X249230Y190140D02*
D03*
X260230D02*
D03*
X579298Y201080D02*
D03*
X590298D02*
D03*
X579298Y190080D02*
D03*
X590298D02*
D03*
X414330Y201140D02*
D03*
X425330D02*
D03*
X414330Y190140D02*
D03*
X425330D02*
D03*
X579430Y307820D02*
D03*
X590430D02*
D03*
X579430Y296820D02*
D03*
X590430D02*
D03*
X414330Y307820D02*
D03*
X425330D02*
D03*
X414330Y296820D02*
D03*
X425330D02*
D03*
X249230Y307820D02*
D03*
X260230D02*
D03*
X249230Y296820D02*
D03*
X260230D02*
D03*
X579430Y414500D02*
D03*
X590430D02*
D03*
X579430Y403500D02*
D03*
X590430D02*
D03*
X414330Y414500D02*
D03*
X425330D02*
D03*
X414330Y403500D02*
D03*
X425330D02*
D03*
X249230Y414500D02*
D03*
X260230D02*
D03*
X249230Y403500D02*
D03*
X260230D02*
D03*
X579430Y521180D02*
D03*
X590430D02*
D03*
X579430Y510180D02*
D03*
X590430D02*
D03*
X414330Y521180D02*
D03*
X425330D02*
D03*
X414330Y510180D02*
D03*
X425330D02*
D03*
X249230Y521180D02*
D03*
X260230D02*
D03*
X249230Y510180D02*
D03*
X260230D02*
D03*
X580390Y628820D02*
D03*
X591390D02*
D03*
X580390Y617820D02*
D03*
X591390D02*
D03*
X415290Y628820D02*
D03*
X426290D02*
D03*
X415290Y617820D02*
D03*
X426290D02*
D03*
X250190Y628820D02*
D03*
X261190D02*
D03*
X250190Y617820D02*
D03*
X261190D02*
D03*
X580390Y735500D02*
D03*
X591390D02*
D03*
X580390Y724500D02*
D03*
X591390D02*
D03*
X415290Y735500D02*
D03*
X426290D02*
D03*
X415290Y724500D02*
D03*
X426290D02*
D03*
X250190Y735500D02*
D03*
X261190D02*
D03*
X250190Y724500D02*
D03*
X261190D02*
D03*
X580390Y842180D02*
D03*
X591390D02*
D03*
X580390Y831180D02*
D03*
X591390D02*
D03*
X415290Y842180D02*
D03*
X426290D02*
D03*
X415290Y831180D02*
D03*
X426290D02*
D03*
X250190Y842180D02*
D03*
X261190D02*
D03*
X250190Y831180D02*
D03*
X261190D02*
D03*
X580390Y948860D02*
D03*
X591390D02*
D03*
X580390Y937860D02*
D03*
X591390D02*
D03*
X415290Y948860D02*
D03*
X426290D02*
D03*
X415290Y937860D02*
D03*
X426290D02*
D03*
X250190Y948860D02*
D03*
X261190D02*
D03*
X250190Y937860D02*
D03*
X261190D02*
D03*
X580390Y1055540D02*
D03*
X591390D02*
D03*
X580390Y1044540D02*
D03*
X591390D02*
D03*
X415290Y1055540D02*
D03*
X426290D02*
D03*
X415290Y1044540D02*
D03*
X426290D02*
D03*
X793034Y1235710D02*
D03*
X210591Y1094796D02*
D03*
X264897Y1189292D02*
D03*
X306922Y1230278D02*
D03*
X524684Y1229322D02*
D03*
X497608Y1102318D02*
D03*
X307108D02*
D03*
X646786Y1220094D02*
D03*
X667663Y1098716D02*
D03*
X655088Y1142102D02*
D03*
X619710Y1093090D02*
D03*
X477163Y1098716D02*
D03*
X464588Y1142102D02*
D03*
X216218Y1046842D02*
D03*
X204558Y1427480D02*
D03*
X674240Y1045040D02*
D03*
X631840Y1054100D02*
D03*
X466740D02*
D03*
X674240Y938360D02*
D03*
X631840Y947420D02*
D03*
X466740D02*
D03*
X301640D02*
D03*
X674240Y831680D02*
D03*
X631840Y840740D02*
D03*
X466740D02*
D03*
X301640D02*
D03*
X674240Y725000D02*
D03*
X631840Y734060D02*
D03*
X466740D02*
D03*
X301640D02*
D03*
X674240Y618320D02*
D03*
X631840Y627380D02*
D03*
X466740D02*
D03*
X301640D02*
D03*
X673280Y510680D02*
D03*
X630880Y519740D02*
D03*
X465780D02*
D03*
X300680D02*
D03*
X673280Y404000D02*
D03*
X630880Y413060D02*
D03*
X465780D02*
D03*
X300680D02*
D03*
X673280Y190640D02*
D03*
X630880Y199700D02*
D03*
X465780D02*
D03*
X300680D02*
D03*
X343080Y297320D02*
D03*
X300680Y306380D02*
D03*
X508180Y297320D02*
D03*
X465780Y306380D02*
D03*
X630880D02*
D03*
X673280Y297320D02*
D03*
X374520Y1059180D02*
D03*
X539619D02*
D03*
X209419Y952500D02*
D03*
X374520D02*
D03*
X539619D02*
D03*
X209419Y845820D02*
D03*
X374520D02*
D03*
X539619D02*
D03*
X209419Y739140D02*
D03*
X374520D02*
D03*
X539619D02*
D03*
X209419Y632460D02*
D03*
X374520D02*
D03*
X539619D02*
D03*
X208459Y524820D02*
D03*
X373559D02*
D03*
X538660D02*
D03*
X208459Y418140D02*
D03*
X373559D02*
D03*
X538660D02*
D03*
X208459Y311460D02*
D03*
X373559D02*
D03*
X538660D02*
D03*
X208459Y204780D02*
D03*
X373559D02*
D03*
X538660D02*
D03*
D82*
X700000Y560250D02*
D03*
X696250Y602170D02*
D03*
X710500Y585000D02*
D03*
X696000Y708750D02*
D03*
X695480Y815530D02*
D03*
X689954Y509270D02*
D03*
X742024Y1003980D02*
D03*
Y953770D02*
D03*
X752284Y1040130D02*
D03*
X330798Y1367790D02*
D03*
X451702Y1258824D02*
D03*
X675708Y1238114D02*
D03*
X717894Y1142102D02*
D03*
X690054Y1033272D02*
D03*
X685636Y929894D02*
D03*
X686906Y823292D02*
D03*
X686652Y716534D02*
D03*
X684112Y182118D02*
D03*
Y288798D02*
D03*
X687414Y395970D02*
D03*
X688549Y610947D02*
D03*
X717894Y549910D02*
D03*
X688551Y922274D02*
D03*
X693510Y1146138D02*
D03*
X740754Y1132840D02*
D03*
X686398Y1123442D02*
D03*
X691224Y1099058D02*
D03*
X740500Y1082040D02*
D03*
Y1107186D02*
D03*
X457036Y1112266D02*
D03*
X290304Y1367790D02*
D03*
X649885Y1113464D02*
D03*
X230965Y1064620D02*
D03*
X832194Y171526D02*
D03*
X687591Y281234D02*
D03*
Y494594D02*
D03*
Y387914D02*
D03*
Y174554D02*
D03*
X520920Y1018850D02*
D03*
X355820Y912170D02*
D03*
X520920D02*
D03*
X355820Y805490D02*
D03*
X520920D02*
D03*
X355820Y698810D02*
D03*
X520920D02*
D03*
X355820Y592130D02*
D03*
X520920D02*
D03*
X354860Y484490D02*
D03*
X519960D02*
D03*
X354860Y377810D02*
D03*
X519960D02*
D03*
X354860Y164450D02*
D03*
X519960D02*
D03*
Y271130D02*
D03*
X354860D02*
D03*
M02*
