G04*
G04 #@! TF.GenerationSoftware,Altium Limited,Altium Designer,21.0.9 (235)*
G04*
G04 Layer_Color=128*
%FSLAX44Y44*%
%MOMM*%
G71*
G04*
G04 #@! TF.SameCoordinates,70CB9891-2270-4D21-866A-A56E4BF175EE*
G04*
G04*
G04 #@! TF.FilePolarity,Positive*
G04*
G01*
G75*
%ADD101C,0.0508*%
D101*
X126000Y40000D02*
X158000D01*
X142000Y24000D02*
Y56000D01*
X794000Y40000D02*
X826000D01*
X810000Y24000D02*
Y56000D01*
X684000Y1520000D02*
X716000D01*
X700000Y1504000D02*
Y1536000D01*
X126000Y1590000D02*
X158000D01*
X142000Y1574000D02*
Y1606000D01*
X789069Y596400D02*
X799879D01*
X794474Y590995D02*
Y601805D01*
X789069Y571000D02*
X799879D01*
X794474Y565595D02*
Y576405D01*
X789069Y545600D02*
X799879D01*
X794474Y540195D02*
Y551005D01*
X763669Y596400D02*
X774479D01*
X769074Y590995D02*
Y601805D01*
X763669Y571000D02*
X774479D01*
X769074Y565595D02*
Y576405D01*
X763669Y545600D02*
X774479D01*
X769074Y540195D02*
Y551005D01*
X789069Y367800D02*
X799879D01*
X794474Y362395D02*
Y373205D01*
X763669Y367800D02*
X774479D01*
X769074Y362395D02*
Y373205D01*
X789069Y342400D02*
X799879D01*
X794474Y336995D02*
Y347805D01*
X789069Y317000D02*
X799879D01*
X794474Y311595D02*
Y322405D01*
X789069Y291600D02*
X799879D01*
X794474Y286195D02*
Y297005D01*
X763669Y342400D02*
X774479D01*
X769074Y336995D02*
Y347805D01*
X763669Y317000D02*
X774479D01*
X769074Y311595D02*
Y322405D01*
X763669Y291600D02*
X774479D01*
X769074Y286195D02*
Y297005D01*
X763669Y215400D02*
X774479D01*
X769074Y209995D02*
Y220805D01*
X763669Y190000D02*
X774479D01*
X769074Y184595D02*
Y195405D01*
X763669Y240800D02*
X774479D01*
X769074Y235395D02*
Y246205D01*
X763669Y266200D02*
X774479D01*
X769074Y260795D02*
Y271605D01*
X789069Y190000D02*
X799879D01*
X794474Y184595D02*
Y195405D01*
X789069Y215400D02*
X799879D01*
X794474Y209995D02*
Y220805D01*
X789069Y240800D02*
X799879D01*
X794474Y235395D02*
Y246205D01*
X789069Y266200D02*
X799879D01*
X794474Y260795D02*
Y271605D01*
X763669Y393200D02*
X774479D01*
X769074Y387795D02*
Y398605D01*
X763669Y418600D02*
X774479D01*
X769074Y413195D02*
Y424005D01*
X763669Y444000D02*
X774479D01*
X769074Y438595D02*
Y449405D01*
X763669Y469400D02*
X774479D01*
X769074Y463995D02*
Y474805D01*
X789069Y393200D02*
X799879D01*
X794474Y387795D02*
Y398605D01*
X789069Y418600D02*
X799879D01*
X794474Y413195D02*
Y424005D01*
X789069Y444000D02*
X799879D01*
X794474Y438595D02*
Y449405D01*
X789069Y469400D02*
X799879D01*
X794474Y463995D02*
Y474805D01*
X763669Y494800D02*
X774479D01*
X769074Y489395D02*
Y500205D01*
X763669Y520200D02*
X774479D01*
X769074Y514795D02*
Y525605D01*
X789069Y494800D02*
X799879D01*
X794474Y489395D02*
Y500205D01*
X789069Y520200D02*
X799879D01*
X794474Y514795D02*
Y525605D01*
X789069Y1170178D02*
X799879D01*
X794474Y1164773D02*
Y1175583D01*
X789069Y1144778D02*
X799879D01*
X794474Y1139373D02*
Y1150183D01*
X789069Y1119378D02*
X799879D01*
X794474Y1113973D02*
Y1124783D01*
X763669Y1170178D02*
X774479D01*
X769074Y1164773D02*
Y1175583D01*
X763669Y1144778D02*
X774479D01*
X769074Y1139373D02*
Y1150183D01*
X763669Y1119378D02*
X774479D01*
X769074Y1113973D02*
Y1124783D01*
X789069Y941578D02*
X799879D01*
X794474Y936173D02*
Y946983D01*
X763669Y941578D02*
X774479D01*
X769074Y936173D02*
Y946983D01*
X789069Y916178D02*
X799879D01*
X794474Y910773D02*
Y921583D01*
X789069Y890778D02*
X799879D01*
X794474Y885373D02*
Y896183D01*
X789069Y865378D02*
X799879D01*
X794474Y859973D02*
Y870783D01*
X763669Y916178D02*
X774479D01*
X769074Y910773D02*
Y921583D01*
X763669Y890778D02*
X774479D01*
X769074Y885373D02*
Y896183D01*
X763669Y865378D02*
X774479D01*
X769074Y859973D02*
Y870783D01*
X763669Y789178D02*
X774479D01*
X769074Y783773D02*
Y794583D01*
X763669Y763778D02*
X774479D01*
X769074Y758373D02*
Y769183D01*
X763669Y814578D02*
X774479D01*
X769074Y809173D02*
Y819983D01*
X763669Y839978D02*
X774479D01*
X769074Y834573D02*
Y845383D01*
X789069Y763778D02*
X799879D01*
X794474Y758373D02*
Y769183D01*
X789069Y789178D02*
X799879D01*
X794474Y783773D02*
Y794583D01*
X789069Y814578D02*
X799879D01*
X794474Y809173D02*
Y819983D01*
X789069Y839978D02*
X799879D01*
X794474Y834573D02*
Y845383D01*
X763669Y966978D02*
X774479D01*
X769074Y961573D02*
Y972383D01*
X763669Y992378D02*
X774479D01*
X769074Y986973D02*
Y997783D01*
X763669Y1017778D02*
X774479D01*
X769074Y1012373D02*
Y1023183D01*
X763669Y1043178D02*
X774479D01*
X769074Y1037773D02*
Y1048583D01*
X789069Y966978D02*
X799879D01*
X794474Y961573D02*
Y972383D01*
X789069Y992378D02*
X799879D01*
X794474Y986973D02*
Y997783D01*
X789069Y1017778D02*
X799879D01*
X794474Y1012373D02*
Y1023183D01*
X789069Y1043178D02*
X799879D01*
X794474Y1037773D02*
Y1048583D01*
X763669Y1068578D02*
X774479D01*
X769074Y1063173D02*
Y1073983D01*
X763669Y1093978D02*
X774479D01*
X769074Y1088573D02*
Y1099383D01*
X789069Y1068578D02*
X799879D01*
X794474Y1063173D02*
Y1073983D01*
X789069Y1093978D02*
X799879D01*
X794474Y1088573D02*
Y1099383D01*
X840048Y1170178D02*
X850248D01*
X845148Y1165078D02*
Y1175278D01*
X840048Y1144778D02*
X850248D01*
X845148Y1139678D02*
Y1149878D01*
X814648Y1170178D02*
X824848D01*
X819748Y1165078D02*
Y1175278D01*
X814648Y1144778D02*
X824848D01*
X819748Y1139678D02*
Y1149878D01*
X840048Y1043178D02*
X850248D01*
X845148Y1038078D02*
Y1048278D01*
X814648Y1043178D02*
X824848D01*
X819748Y1038078D02*
Y1048278D01*
X840048Y992378D02*
X850248D01*
X845148Y987278D02*
Y997478D01*
X814648Y992378D02*
X824848D01*
X819748Y987278D02*
Y997478D01*
X840048Y865378D02*
X850248D01*
X845148Y860278D02*
Y870478D01*
X814648Y865378D02*
X824848D01*
X819748Y860278D02*
Y870478D01*
X840048Y789178D02*
X850248D01*
X845148Y784078D02*
Y794278D01*
X814648Y789178D02*
X824848D01*
X819748Y784078D02*
Y794278D01*
X814648Y763778D02*
X824848D01*
X819748Y758678D02*
Y768878D01*
X840048Y763778D02*
X850248D01*
X845148Y758678D02*
Y768878D01*
X814648Y814578D02*
X824848D01*
X819748Y809478D02*
Y819678D01*
X840048Y814578D02*
X850248D01*
X845148Y809478D02*
Y819678D01*
X814648Y839978D02*
X824848D01*
X819748Y834878D02*
Y845078D01*
X840048Y839978D02*
X850248D01*
X845148Y834878D02*
Y845078D01*
X814648Y890778D02*
X824848D01*
X819748Y885678D02*
Y895878D01*
X840048Y890778D02*
X850248D01*
X845148Y885678D02*
Y895878D01*
X814648Y916178D02*
X824848D01*
X819748Y911078D02*
Y921278D01*
X840048Y916178D02*
X850248D01*
X845148Y911078D02*
Y921278D01*
X814648Y941578D02*
X824848D01*
X819748Y936478D02*
Y946678D01*
X814648Y966978D02*
X824848D01*
X819748Y961878D02*
Y972078D01*
X840048Y941578D02*
X850248D01*
X845148Y936478D02*
Y946678D01*
X840048Y966978D02*
X850248D01*
X845148Y961878D02*
Y972078D01*
X814648Y1017778D02*
X824848D01*
X819748Y1012678D02*
Y1022878D01*
X840048Y1017778D02*
X850248D01*
X845148Y1012678D02*
Y1022878D01*
X814648Y1068578D02*
X824848D01*
X819748Y1063478D02*
Y1073678D01*
X814648Y1093978D02*
X824848D01*
X819748Y1088878D02*
Y1099078D01*
X814648Y1119378D02*
X824848D01*
X819748Y1114278D02*
Y1124478D01*
X840048Y1068578D02*
X850248D01*
X845148Y1063478D02*
Y1073678D01*
X840048Y1093978D02*
X850248D01*
X845148Y1088878D02*
Y1099078D01*
X840048Y1119378D02*
X850248D01*
X845148Y1114278D02*
Y1124478D01*
X839794Y596130D02*
X849994D01*
X844894Y591030D02*
Y601230D01*
X839794Y570730D02*
X849994D01*
X844894Y565630D02*
Y575830D01*
X814394Y596130D02*
X824594D01*
X819494Y591030D02*
Y601230D01*
X814394Y570730D02*
X824594D01*
X819494Y565630D02*
Y575830D01*
X839794Y469130D02*
X849994D01*
X844894Y464030D02*
Y474230D01*
X814394Y469130D02*
X824594D01*
X819494Y464030D02*
Y474230D01*
X839794Y418330D02*
X849994D01*
X844894Y413230D02*
Y423430D01*
X814394Y418330D02*
X824594D01*
X819494Y413230D02*
Y423430D01*
X839794Y291330D02*
X849994D01*
X844894Y286230D02*
Y296430D01*
X814394Y291330D02*
X824594D01*
X819494Y286230D02*
Y296430D01*
X839794Y215130D02*
X849994D01*
X844894Y210030D02*
Y220230D01*
X814394Y215130D02*
X824594D01*
X819494Y210030D02*
Y220230D01*
X814394Y189730D02*
X824594D01*
X819494Y184630D02*
Y194830D01*
X839794Y189730D02*
X849994D01*
X844894Y184630D02*
Y194830D01*
X814394Y240530D02*
X824594D01*
X819494Y235430D02*
Y245630D01*
X839794Y240530D02*
X849994D01*
X844894Y235430D02*
Y245630D01*
X814394Y265930D02*
X824594D01*
X819494Y260830D02*
Y271030D01*
X839794Y265930D02*
X849994D01*
X844894Y260830D02*
Y271030D01*
X814394Y316730D02*
X824594D01*
X819494Y311630D02*
Y321830D01*
X839794Y316730D02*
X849994D01*
X844894Y311630D02*
Y321830D01*
X814394Y342130D02*
X824594D01*
X819494Y337030D02*
Y347230D01*
X839794Y342130D02*
X849994D01*
X844894Y337030D02*
Y347230D01*
X814394Y367530D02*
X824594D01*
X819494Y362430D02*
Y372630D01*
X814394Y392930D02*
X824594D01*
X819494Y387830D02*
Y398030D01*
X839794Y367530D02*
X849994D01*
X844894Y362430D02*
Y372630D01*
X839794Y392930D02*
X849994D01*
X844894Y387830D02*
Y398030D01*
X814394Y443730D02*
X824594D01*
X819494Y438630D02*
Y448830D01*
X839794Y443730D02*
X849994D01*
X844894Y438630D02*
Y448830D01*
X814394Y494530D02*
X824594D01*
X819494Y489430D02*
Y499630D01*
X814394Y519930D02*
X824594D01*
X819494Y514830D02*
Y525030D01*
X814394Y545330D02*
X824594D01*
X819494Y540230D02*
Y550430D01*
X839794Y494530D02*
X849994D01*
X844894Y489430D02*
Y499630D01*
X839794Y519930D02*
X849994D01*
X844894Y514830D02*
Y525030D01*
X839794Y545330D02*
X849994D01*
X844894Y540230D02*
Y550430D01*
X72314Y1332828D02*
X83314D01*
X77814Y1327328D02*
Y1338328D01*
X72314Y1358228D02*
X83314D01*
X77814Y1352728D02*
Y1363728D01*
X72314Y1383628D02*
X83314D01*
X77814Y1378128D02*
Y1389128D01*
X72314Y1409028D02*
X83314D01*
X77814Y1403528D02*
Y1414528D01*
X72314Y1434428D02*
X83314D01*
X77814Y1428928D02*
Y1439928D01*
X72314Y1459828D02*
X83314D01*
X77814Y1454328D02*
Y1465328D01*
X72314Y1485228D02*
X83314D01*
X77814Y1479728D02*
Y1490728D01*
X72314Y1510628D02*
X83314D01*
X77814Y1505128D02*
Y1516128D01*
X72314Y1536028D02*
X83314D01*
X77814Y1530528D02*
Y1541528D01*
X72314Y1561428D02*
X83314D01*
X77814Y1555928D02*
Y1566928D01*
X72314Y1586828D02*
X83314D01*
X77814Y1581328D02*
Y1592328D01*
X72314Y1612228D02*
X83314D01*
X77814Y1606728D02*
Y1617728D01*
X72340Y395350D02*
X83340D01*
X77840Y389850D02*
Y400850D01*
X72340Y420750D02*
X83340D01*
X77840Y415250D02*
Y426250D01*
X72340Y446150D02*
X83340D01*
X77840Y440650D02*
Y451650D01*
X72340Y471550D02*
X83340D01*
X77840Y466050D02*
Y477050D01*
X72340Y496950D02*
X83340D01*
X77840Y491450D02*
Y502450D01*
X72340Y522350D02*
X83340D01*
X77840Y516850D02*
Y527850D01*
X72340Y547750D02*
X83340D01*
X77840Y542250D02*
Y553250D01*
X72340Y573150D02*
X83340D01*
X77840Y567650D02*
Y578650D01*
X72340Y598550D02*
X83340D01*
X77840Y593050D02*
Y604050D01*
X72340Y623950D02*
X83340D01*
X77840Y618450D02*
Y629450D01*
X72340Y649350D02*
X83340D01*
X77840Y643850D02*
Y654850D01*
X72340Y674750D02*
X83340D01*
X77840Y669250D02*
Y680250D01*
X72314Y82850D02*
X83314D01*
X77814Y77350D02*
Y88350D01*
X72314Y108250D02*
X83314D01*
X77814Y102750D02*
Y113750D01*
X72314Y133650D02*
X83314D01*
X77814Y128150D02*
Y139150D01*
X72314Y159050D02*
X83314D01*
X77814Y153550D02*
Y164550D01*
X72314Y184450D02*
X83314D01*
X77814Y178950D02*
Y189950D01*
X72314Y209850D02*
X83314D01*
X77814Y204350D02*
Y215350D01*
X72314Y235250D02*
X83314D01*
X77814Y229750D02*
Y240750D01*
X72314Y260650D02*
X83314D01*
X77814Y255150D02*
Y266150D01*
X72314Y286050D02*
X83314D01*
X77814Y280550D02*
Y291550D01*
X72314Y311450D02*
X83314D01*
X77814Y305950D02*
Y316950D01*
X72314Y336850D02*
X83314D01*
X77814Y331350D02*
Y342350D01*
X72314Y362250D02*
X83314D01*
X77814Y356750D02*
Y367750D01*
X72314Y707600D02*
X83314D01*
X77814Y702100D02*
Y713100D01*
X72314Y733000D02*
X83314D01*
X77814Y727500D02*
Y738500D01*
X72314Y758400D02*
X83314D01*
X77814Y752900D02*
Y763900D01*
X72314Y783800D02*
X83314D01*
X77814Y778300D02*
Y789300D01*
X72314Y809200D02*
X83314D01*
X77814Y803700D02*
Y814700D01*
X72314Y834600D02*
X83314D01*
X77814Y829100D02*
Y840100D01*
X72314Y860000D02*
X83314D01*
X77814Y854500D02*
Y865500D01*
X72314Y885400D02*
X83314D01*
X77814Y879900D02*
Y890900D01*
X72314Y910800D02*
X83314D01*
X77814Y905300D02*
Y916300D01*
X72314Y936200D02*
X83314D01*
X77814Y930700D02*
Y941700D01*
X72314Y961600D02*
X83314D01*
X77814Y956100D02*
Y967100D01*
X72314Y987000D02*
X83314D01*
X77814Y981500D02*
Y992500D01*
X72314Y1020600D02*
X83314D01*
X77814Y1015100D02*
Y1026100D01*
X72314Y1046000D02*
X83314D01*
X77814Y1040500D02*
Y1051500D01*
X72314Y1071400D02*
X83314D01*
X77814Y1065900D02*
Y1076900D01*
X72314Y1096800D02*
X83314D01*
X77814Y1091300D02*
Y1102300D01*
X72314Y1122200D02*
X83314D01*
X77814Y1116700D02*
Y1127700D01*
X72314Y1147600D02*
X83314D01*
X77814Y1142100D02*
Y1153100D01*
X72314Y1173000D02*
X83314D01*
X77814Y1167500D02*
Y1178500D01*
X72314Y1198400D02*
X83314D01*
X77814Y1192900D02*
Y1203900D01*
X72314Y1223800D02*
X83314D01*
X77814Y1218300D02*
Y1229300D01*
X72314Y1249200D02*
X83314D01*
X77814Y1243700D02*
Y1254700D01*
X72314Y1274600D02*
X83314D01*
X77814Y1269100D02*
Y1280100D01*
X72314Y1300000D02*
X83314D01*
X77814Y1294500D02*
Y1305500D01*
X597244Y1318910D02*
X606244D01*
X601744Y1314410D02*
Y1323410D01*
X622644Y1318910D02*
X631644D01*
X627144Y1314410D02*
Y1323410D01*
X648044Y1318910D02*
X657044D01*
X652544Y1314410D02*
Y1323410D01*
X397024Y1316990D02*
X406024D01*
X401524Y1312490D02*
Y1321490D01*
X422424Y1316990D02*
X431424D01*
X426924Y1312490D02*
Y1321490D01*
X447824Y1316990D02*
X456824D01*
X452324Y1312490D02*
Y1321490D01*
X588934Y1188466D02*
X597934D01*
X593434Y1183966D02*
Y1192966D01*
X614334Y1188466D02*
X623334D01*
X618834Y1183966D02*
Y1192966D01*
X639734Y1188466D02*
X648734D01*
X644234Y1183966D02*
Y1192966D01*
X397672Y1161796D02*
X406672D01*
X402172Y1157296D02*
Y1166296D01*
X423072Y1161796D02*
X432072D01*
X427572Y1157296D02*
Y1166296D01*
X448472Y1161796D02*
X457472D01*
X452972Y1157296D02*
Y1166296D01*
X46915Y50250D02*
X57915D01*
X52415Y44750D02*
Y55750D01*
X46915Y24850D02*
X57915D01*
X52415Y19350D02*
Y30350D01*
X72315Y24850D02*
X83315D01*
X77815Y19350D02*
Y30350D01*
X72315Y50250D02*
X83315D01*
X77815Y44750D02*
Y55750D01*
X262068Y1017524D02*
X271068D01*
X266568Y1013024D02*
Y1022024D01*
X236668Y1017524D02*
X245668D01*
X241168Y1013024D02*
Y1022024D01*
X211268Y1017524D02*
X220268D01*
X215768Y1013024D02*
Y1022024D01*
X446880Y1017580D02*
X455880D01*
X451380Y1013080D02*
Y1022080D01*
X421480Y1017580D02*
X430480D01*
X425980Y1013080D02*
Y1022080D01*
X396080Y1017580D02*
X405080D01*
X400580Y1013080D02*
Y1022080D01*
X611980Y1017580D02*
X620980D01*
X616480Y1013080D02*
Y1022080D01*
X586580Y1017580D02*
X595580D01*
X591080Y1013080D02*
Y1022080D01*
X561180Y1017580D02*
X570180D01*
X565680Y1013080D02*
Y1022080D01*
X281780Y910900D02*
X290780D01*
X286280Y906400D02*
Y915400D01*
X256380Y910900D02*
X265380D01*
X260880Y906400D02*
Y915400D01*
X230980Y910900D02*
X239980D01*
X235480Y906400D02*
Y915400D01*
X446880Y910900D02*
X455880D01*
X451380Y906400D02*
Y915400D01*
X421480Y910900D02*
X430480D01*
X425980Y906400D02*
Y915400D01*
X396080Y910900D02*
X405080D01*
X400580Y906400D02*
Y915400D01*
X611980Y910900D02*
X620980D01*
X616480Y906400D02*
Y915400D01*
X586580Y910900D02*
X595580D01*
X591080Y906400D02*
Y915400D01*
X561180Y910900D02*
X570180D01*
X565680Y906400D02*
Y915400D01*
X281780Y804220D02*
X290780D01*
X286280Y799720D02*
Y808720D01*
X256380Y804220D02*
X265380D01*
X260880Y799720D02*
Y808720D01*
X230980Y804220D02*
X239980D01*
X235480Y799720D02*
Y808720D01*
X446880Y804220D02*
X455880D01*
X451380Y799720D02*
Y808720D01*
X421480Y804220D02*
X430480D01*
X425980Y799720D02*
Y808720D01*
X396080Y804220D02*
X405080D01*
X400580Y799720D02*
Y808720D01*
X611980Y804220D02*
X620980D01*
X616480Y799720D02*
Y808720D01*
X586580Y804220D02*
X595580D01*
X591080Y799720D02*
Y808720D01*
X561180Y804220D02*
X570180D01*
X565680Y799720D02*
Y808720D01*
X281780Y697540D02*
X290780D01*
X286280Y693040D02*
Y702040D01*
X256380Y697540D02*
X265380D01*
X260880Y693040D02*
Y702040D01*
X230980Y697540D02*
X239980D01*
X235480Y693040D02*
Y702040D01*
X446880Y697540D02*
X455880D01*
X451380Y693040D02*
Y702040D01*
X421480Y697540D02*
X430480D01*
X425980Y693040D02*
Y702040D01*
X396080Y697540D02*
X405080D01*
X400580Y693040D02*
Y702040D01*
X611980Y697540D02*
X620980D01*
X616480Y693040D02*
Y702040D01*
X586580Y697540D02*
X595580D01*
X591080Y693040D02*
Y702040D01*
X561180Y697540D02*
X570180D01*
X565680Y693040D02*
Y702040D01*
X281780Y590860D02*
X290780D01*
X286280Y586360D02*
Y595360D01*
X256380Y590860D02*
X265380D01*
X260880Y586360D02*
Y595360D01*
X230980Y590860D02*
X239980D01*
X235480Y586360D02*
Y595360D01*
X446880Y590860D02*
X455880D01*
X451380Y586360D02*
Y595360D01*
X421480Y590860D02*
X430480D01*
X425980Y586360D02*
Y595360D01*
X396080Y590860D02*
X405080D01*
X400580Y586360D02*
Y595360D01*
X611980Y590860D02*
X620980D01*
X616480Y586360D02*
Y595360D01*
X586580Y590860D02*
X595580D01*
X591080Y586360D02*
Y595360D01*
X561180Y590860D02*
X570180D01*
X565680Y586360D02*
Y595360D01*
X280820Y483220D02*
X289820D01*
X285320Y478720D02*
Y487720D01*
X255420Y483220D02*
X264420D01*
X259920Y478720D02*
Y487720D01*
X230020Y483220D02*
X239020D01*
X234520Y478720D02*
Y487720D01*
X445920Y483220D02*
X454920D01*
X450420Y478720D02*
Y487720D01*
X420520Y483220D02*
X429520D01*
X425020Y478720D02*
Y487720D01*
X395120Y483220D02*
X404120D01*
X399620Y478720D02*
Y487720D01*
X611020Y483220D02*
X620020D01*
X615520Y478720D02*
Y487720D01*
X585620Y483220D02*
X594620D01*
X590120Y478720D02*
Y487720D01*
X560220Y483220D02*
X569220D01*
X564720Y478720D02*
Y487720D01*
X280820Y376540D02*
X289820D01*
X285320Y372040D02*
Y381040D01*
X255420Y376540D02*
X264420D01*
X259920Y372040D02*
Y381040D01*
X230020Y376540D02*
X239020D01*
X234520Y372040D02*
Y381040D01*
X445920Y376540D02*
X454920D01*
X450420Y372040D02*
Y381040D01*
X420520Y376540D02*
X429520D01*
X425020Y372040D02*
Y381040D01*
X395120Y376540D02*
X404120D01*
X399620Y372040D02*
Y381040D01*
X611020Y376540D02*
X620020D01*
X615520Y372040D02*
Y381040D01*
X585620Y376540D02*
X594620D01*
X590120Y372040D02*
Y381040D01*
X560220Y376540D02*
X569220D01*
X564720Y372040D02*
Y381040D01*
X280820Y269860D02*
X289820D01*
X285320Y265360D02*
Y274360D01*
X255420Y269860D02*
X264420D01*
X259920Y265360D02*
Y274360D01*
X230020Y269860D02*
X239020D01*
X234520Y265360D02*
Y274360D01*
X445920Y269860D02*
X454920D01*
X450420Y265360D02*
Y274360D01*
X420520Y269860D02*
X429520D01*
X425020Y265360D02*
Y274360D01*
X395120Y269860D02*
X404120D01*
X399620Y265360D02*
Y274360D01*
X611020Y269860D02*
X620020D01*
X615520Y265360D02*
Y274360D01*
X585620Y269860D02*
X594620D01*
X590120Y265360D02*
Y274360D01*
X560220Y269860D02*
X569220D01*
X564720Y265360D02*
Y274360D01*
X280820Y163180D02*
X289820D01*
X285320Y158680D02*
Y167680D01*
X255420Y163180D02*
X264420D01*
X259920Y158680D02*
Y167680D01*
X230020Y163180D02*
X239020D01*
X234520Y158680D02*
Y167680D01*
X445920Y163180D02*
X454920D01*
X450420Y158680D02*
Y167680D01*
X420520Y163180D02*
X429520D01*
X425020Y158680D02*
Y167680D01*
X395120Y163180D02*
X404120D01*
X399620Y158680D02*
Y167680D01*
X611020Y163180D02*
X620020D01*
X615520Y158680D02*
Y167680D01*
X585620Y163180D02*
X594620D01*
X590120Y158680D02*
Y167680D01*
X560220Y163180D02*
X569220D01*
X564720Y158680D02*
Y167680D01*
X272338Y1339596D02*
X281338D01*
X276838Y1335096D02*
Y1344096D01*
X246938Y1339596D02*
X255938D01*
X251438Y1335096D02*
Y1344096D01*
X221538Y1339596D02*
X230538D01*
X226038Y1335096D02*
Y1344096D01*
X491922Y1619504D02*
X502922D01*
X497422Y1614004D02*
Y1625004D01*
X466522Y1619504D02*
X477522D01*
X472022Y1614004D02*
Y1625004D01*
X466522Y1594104D02*
X477522D01*
X472022Y1588604D02*
Y1599604D01*
X491922Y1594104D02*
X502922D01*
X497422Y1588604D02*
Y1599604D01*
X711632Y1619504D02*
X722632D01*
X717132Y1614004D02*
Y1625004D01*
X686232Y1619504D02*
X697232D01*
X691732Y1614004D02*
Y1625004D01*
X686232Y1594104D02*
X697232D01*
X691732Y1588604D02*
Y1599604D01*
X711632Y1594104D02*
X722632D01*
X717132Y1588604D02*
Y1599604D01*
X577932Y1549480D02*
X587932D01*
X582932Y1544480D02*
Y1554480D01*
X577932Y1489480D02*
X587932D01*
X582932Y1484480D02*
Y1494480D01*
X522932Y1519480D02*
X548932D01*
X535932Y1506480D02*
Y1532480D01*
X793832Y1549480D02*
X803832D01*
X798832Y1544480D02*
Y1554480D01*
X793832Y1489480D02*
X803832D01*
X798832Y1484480D02*
Y1494480D01*
X738832Y1519480D02*
X764832D01*
X751832Y1506480D02*
Y1532480D01*
X206664Y27940D02*
X215664D01*
X211164Y23440D02*
Y32440D01*
X206664Y52940D02*
X215664D01*
X211164Y48440D02*
Y57440D01*
X206664Y77940D02*
X215664D01*
X211164Y73440D02*
Y82440D01*
X270164Y27940D02*
X279164D01*
X274664Y23440D02*
Y32440D01*
X270164Y52940D02*
X279164D01*
X274664Y48440D02*
Y57440D01*
X270164Y77940D02*
X279164D01*
X274664Y73440D02*
Y82440D01*
X333664Y27940D02*
X342664D01*
X338164Y23440D02*
Y32440D01*
X333664Y52940D02*
X342664D01*
X338164Y48440D02*
Y57440D01*
X333664Y77940D02*
X342664D01*
X338164Y73440D02*
Y82440D01*
X397164Y27940D02*
X406164D01*
X401664Y23440D02*
Y32440D01*
X397164Y52940D02*
X406164D01*
X401664Y48440D02*
Y57440D01*
X397164Y77940D02*
X406164D01*
X401664Y73440D02*
Y82440D01*
X460664Y27940D02*
X469664D01*
X465164Y23440D02*
Y32440D01*
X460664Y52940D02*
X469664D01*
X465164Y48440D02*
Y57440D01*
X460664Y77940D02*
X469664D01*
X465164Y73440D02*
Y82440D01*
X524164Y27940D02*
X533164D01*
X528664Y23440D02*
Y32440D01*
X524164Y52940D02*
X533164D01*
X528664Y48440D02*
Y57440D01*
X524164Y77940D02*
X533164D01*
X528664Y73440D02*
Y82440D01*
X587664Y27940D02*
X596664D01*
X592164Y23440D02*
Y32440D01*
X587664Y52940D02*
X596664D01*
X592164Y48440D02*
Y57440D01*
X587664Y77940D02*
X596664D01*
X592164Y73440D02*
Y82440D01*
X651164Y27940D02*
X660164D01*
X655664Y23440D02*
Y32440D01*
X651164Y52940D02*
X660164D01*
X655664Y48440D02*
Y57440D01*
X651164Y77940D02*
X660164D01*
X655664Y73440D02*
Y82440D01*
X352984Y1618742D02*
X363984D01*
X358484Y1613242D02*
Y1624242D01*
X327584Y1618742D02*
X338584D01*
X333084Y1613242D02*
Y1624242D01*
X327584Y1593342D02*
X338584D01*
X333084Y1587842D02*
Y1598842D01*
X352984Y1593342D02*
X363984D01*
X358484Y1587842D02*
Y1598842D01*
X190244Y1469470D02*
X194244D01*
X192244Y1467470D02*
Y1471470D01*
X747104Y1201720D02*
X751104D01*
X749104Y1199720D02*
Y1203720D01*
X259490Y1059131D02*
X263490D01*
X261490Y1057131D02*
Y1061131D01*
X427210Y1093090D02*
X431210D01*
X429210Y1091090D02*
Y1095090D01*
X445890Y1345560D02*
X449890D01*
X447890Y1343560D02*
Y1347560D01*
X698750Y560250D02*
X701250D01*
X700000Y559000D02*
Y561500D01*
X695000Y602170D02*
X697500D01*
X696250Y600920D02*
Y603420D01*
X709250Y585000D02*
X711750D01*
X710500Y583750D02*
Y586250D01*
X694750Y708750D02*
X697250D01*
X696000Y707500D02*
Y710000D01*
X694230Y815530D02*
X696730D01*
X695480Y814280D02*
Y816780D01*
X816122Y1342390D02*
X820122D01*
X818122Y1340390D02*
Y1344390D01*
X427024Y1221050D02*
X431024D01*
X429024Y1219050D02*
Y1223050D01*
X688704Y509270D02*
X691204D01*
X689954Y508020D02*
Y510520D01*
X740774Y1003980D02*
X743274D01*
X742024Y1002730D02*
Y1005230D01*
X740774Y953770D02*
X743274D01*
X742024Y952520D02*
Y955020D01*
X751034Y1040130D02*
X753534D01*
X752284Y1038880D02*
Y1041380D01*
X729102Y1299210D02*
X733102D01*
X731102Y1297210D02*
Y1301210D01*
X329548Y1367790D02*
X332048D01*
X330798Y1366540D02*
Y1369040D01*
X504820Y1197534D02*
X508820D01*
X506820Y1195534D02*
Y1199534D01*
X321758Y1210890D02*
X325758D01*
X323758Y1208890D02*
Y1212890D01*
X513456Y1328348D02*
X517456D01*
X515456Y1326348D02*
Y1330348D01*
X450452Y1258824D02*
X452952D01*
X451702Y1257574D02*
Y1260074D01*
X674458Y1238114D02*
X676958D01*
X675708Y1236864D02*
Y1239364D01*
X671698Y1157876D02*
X675698D01*
X673698Y1155876D02*
Y1159876D01*
X716644Y1142102D02*
X719144D01*
X717894Y1140852D02*
Y1143352D01*
X447924Y1214628D02*
X451924D01*
X449924Y1212628D02*
Y1216628D01*
X440812Y1273013D02*
X444812D01*
X442812Y1271013D02*
Y1275013D01*
X672510Y1272360D02*
X676510D01*
X674510Y1270360D02*
Y1274360D01*
X689732Y1223012D02*
X693732D01*
X691732Y1221012D02*
Y1225012D01*
X652648Y1273844D02*
X656648D01*
X654648Y1271844D02*
Y1275844D01*
X613430Y1290888D02*
X617430D01*
X615430Y1288888D02*
Y1292888D01*
X301508Y1382014D02*
X305508D01*
X303508Y1380014D02*
Y1384014D01*
X217178Y1356360D02*
X221178D01*
X219178Y1354360D02*
Y1358360D01*
X226949Y1190260D02*
X230949D01*
X228949Y1188260D02*
Y1192260D01*
X483868Y1281938D02*
X487868D01*
X485868Y1279938D02*
Y1283938D01*
X688804Y1033272D02*
X691304D01*
X690054Y1032022D02*
Y1034522D01*
X684386Y929894D02*
X686886D01*
X685636Y928644D02*
Y931144D01*
X685656Y823292D02*
X688156D01*
X686906Y822042D02*
Y824542D01*
X685402Y716534D02*
X687902D01*
X686652Y715284D02*
Y717784D01*
X682862Y182118D02*
X685362D01*
X684112Y180868D02*
Y183368D01*
X682862Y288798D02*
X685362D01*
X684112Y287548D02*
Y290048D01*
X686164Y395970D02*
X688664D01*
X687414Y394720D02*
Y397220D01*
X687299Y610947D02*
X689799D01*
X688549Y609697D02*
Y612197D01*
X507140Y1045040D02*
X511140D01*
X509140Y1043040D02*
Y1047040D01*
X507140Y831680D02*
X511140D01*
X509140Y829680D02*
Y833680D01*
X507140Y725000D02*
X511140D01*
X509140Y723000D02*
Y727000D01*
X507140Y618320D02*
X511140D01*
X509140Y616320D02*
Y620320D01*
X506180Y510680D02*
X510180D01*
X508180Y508680D02*
Y512680D01*
X506180Y404000D02*
X510180D01*
X508180Y402000D02*
Y406000D01*
X506180Y190640D02*
X510180D01*
X508180Y188640D02*
Y192640D01*
X341080Y190640D02*
X345080D01*
X343080Y188640D02*
Y192640D01*
X341080Y404000D02*
X345080D01*
X343080Y402000D02*
Y406000D01*
X341080Y510680D02*
X345080D01*
X343080Y508680D02*
Y512680D01*
X342040Y618320D02*
X346040D01*
X344040Y616320D02*
Y620320D01*
X342040Y725000D02*
X346040D01*
X344040Y723000D02*
Y727000D01*
X342040Y831680D02*
X346040D01*
X344040Y829680D02*
Y833680D01*
X342040Y938360D02*
X346040D01*
X344040Y936360D02*
Y940360D01*
X507140Y938360D02*
X511140D01*
X509140Y936360D02*
Y940360D01*
X716644Y549910D02*
X719144D01*
X717894Y548660D02*
Y551160D01*
X371104Y1474470D02*
X375104D01*
X373104Y1472470D02*
Y1476470D01*
X256328Y1408010D02*
X260328D01*
X258328Y1406010D02*
Y1410010D01*
X256328Y1419010D02*
X260328D01*
X258328Y1417010D02*
Y1421010D01*
X267328Y1408010D02*
X271328D01*
X269328Y1406010D02*
Y1410010D01*
X267328Y1419010D02*
X271328D01*
X269328Y1417010D02*
Y1421010D01*
X278328Y1408010D02*
X282328D01*
X280328Y1406010D02*
Y1410010D01*
X278328Y1419010D02*
X282328D01*
X280328Y1417010D02*
Y1421010D01*
X224095Y1116546D02*
X228095D01*
X226095Y1114546D02*
Y1118546D01*
X224095Y1127546D02*
X228095D01*
X226095Y1125546D02*
Y1129546D01*
X235095Y1116546D02*
X239095D01*
X237095Y1114546D02*
Y1118546D01*
X235095Y1127546D02*
X239095D01*
X237095Y1125546D02*
Y1129546D01*
X246095Y1116546D02*
X250095D01*
X248095Y1114546D02*
Y1118546D01*
X246095Y1127546D02*
X250095D01*
X248095Y1125546D02*
Y1129546D01*
X405460Y1108594D02*
X409460D01*
X407460Y1106594D02*
Y1110594D01*
X394460Y1108594D02*
X398460D01*
X396460Y1106594D02*
Y1110594D01*
X405460Y1119594D02*
X409460D01*
X407460Y1117594D02*
Y1121594D01*
X394460Y1119594D02*
X398460D01*
X396460Y1117594D02*
Y1121594D01*
X405460Y1130594D02*
X409460D01*
X407460Y1128594D02*
Y1132594D01*
X394460Y1130594D02*
X398460D01*
X396460Y1128594D02*
Y1132594D01*
X595960Y1108594D02*
X599960D01*
X597960Y1106594D02*
Y1110594D01*
X584960Y1108594D02*
X588960D01*
X586960Y1106594D02*
Y1110594D01*
X595960Y1119594D02*
X599960D01*
X597960Y1117594D02*
Y1121594D01*
X584960Y1119594D02*
X588960D01*
X586960Y1117594D02*
Y1121594D01*
X595960Y1130594D02*
X599960D01*
X597960Y1128594D02*
Y1132594D01*
X584960Y1130594D02*
X588960D01*
X586960Y1128594D02*
Y1132594D01*
X623036Y1235598D02*
X627036D01*
X625036Y1233598D02*
Y1237598D01*
X612036Y1235598D02*
X616036D01*
X614036Y1233598D02*
Y1237598D01*
X623036Y1246598D02*
X627036D01*
X625036Y1244598D02*
Y1248598D01*
X612036Y1246598D02*
X616036D01*
X614036Y1244598D02*
Y1248598D01*
X623036Y1257598D02*
X627036D01*
X625036Y1255598D02*
Y1259598D01*
X612036Y1257598D02*
X616036D01*
X614036Y1255598D02*
Y1259598D01*
X405274Y1236554D02*
X409274D01*
X407274Y1234554D02*
Y1238554D01*
X394274Y1236554D02*
X398274D01*
X396274Y1234554D02*
Y1238554D01*
X405274Y1247554D02*
X409274D01*
X407274Y1245554D02*
Y1249554D01*
X394274Y1247554D02*
X398274D01*
X396274Y1245554D02*
Y1249554D01*
X405274Y1258554D02*
X409274D01*
X407274Y1256554D02*
Y1260554D01*
X394274Y1258554D02*
X398274D01*
X396274Y1256554D02*
Y1260554D01*
X247230Y201140D02*
X251230D01*
X249230Y199140D02*
Y203140D01*
X258230Y201140D02*
X262230D01*
X260230Y199140D02*
Y203140D01*
X247230Y190140D02*
X251230D01*
X249230Y188140D02*
Y192140D01*
X258230Y190140D02*
X262230D01*
X260230Y188140D02*
Y192140D01*
X577298Y201080D02*
X581298D01*
X579298Y199080D02*
Y203080D01*
X588298Y201080D02*
X592298D01*
X590298Y199080D02*
Y203080D01*
X577298Y190080D02*
X581298D01*
X579298Y188080D02*
Y192080D01*
X588298Y190080D02*
X592298D01*
X590298Y188080D02*
Y192080D01*
X412330Y201140D02*
X416330D01*
X414330Y199140D02*
Y203140D01*
X423330Y201140D02*
X427330D01*
X425330Y199140D02*
Y203140D01*
X412330Y190140D02*
X416330D01*
X414330Y188140D02*
Y192140D01*
X423330Y190140D02*
X427330D01*
X425330Y188140D02*
Y192140D01*
X577430Y307820D02*
X581430D01*
X579430Y305820D02*
Y309820D01*
X588430Y307820D02*
X592430D01*
X590430Y305820D02*
Y309820D01*
X577430Y296820D02*
X581430D01*
X579430Y294820D02*
Y298820D01*
X588430Y296820D02*
X592430D01*
X590430Y294820D02*
Y298820D01*
X412330Y307820D02*
X416330D01*
X414330Y305820D02*
Y309820D01*
X423330Y307820D02*
X427330D01*
X425330Y305820D02*
Y309820D01*
X412330Y296820D02*
X416330D01*
X414330Y294820D02*
Y298820D01*
X423330Y296820D02*
X427330D01*
X425330Y294820D02*
Y298820D01*
X247230Y307820D02*
X251230D01*
X249230Y305820D02*
Y309820D01*
X258230Y307820D02*
X262230D01*
X260230Y305820D02*
Y309820D01*
X247230Y296820D02*
X251230D01*
X249230Y294820D02*
Y298820D01*
X258230Y296820D02*
X262230D01*
X260230Y294820D02*
Y298820D01*
X577430Y414500D02*
X581430D01*
X579430Y412500D02*
Y416500D01*
X588430Y414500D02*
X592430D01*
X590430Y412500D02*
Y416500D01*
X577430Y403500D02*
X581430D01*
X579430Y401500D02*
Y405500D01*
X588430Y403500D02*
X592430D01*
X590430Y401500D02*
Y405500D01*
X412330Y414500D02*
X416330D01*
X414330Y412500D02*
Y416500D01*
X423330Y414500D02*
X427330D01*
X425330Y412500D02*
Y416500D01*
X412330Y403500D02*
X416330D01*
X414330Y401500D02*
Y405500D01*
X423330Y403500D02*
X427330D01*
X425330Y401500D02*
Y405500D01*
X247230Y414500D02*
X251230D01*
X249230Y412500D02*
Y416500D01*
X258230Y414500D02*
X262230D01*
X260230Y412500D02*
Y416500D01*
X247230Y403500D02*
X251230D01*
X249230Y401500D02*
Y405500D01*
X258230Y403500D02*
X262230D01*
X260230Y401500D02*
Y405500D01*
X577430Y521180D02*
X581430D01*
X579430Y519180D02*
Y523180D01*
X588430Y521180D02*
X592430D01*
X590430Y519180D02*
Y523180D01*
X577430Y510180D02*
X581430D01*
X579430Y508180D02*
Y512180D01*
X588430Y510180D02*
X592430D01*
X590430Y508180D02*
Y512180D01*
X412330Y521180D02*
X416330D01*
X414330Y519180D02*
Y523180D01*
X423330Y521180D02*
X427330D01*
X425330Y519180D02*
Y523180D01*
X412330Y510180D02*
X416330D01*
X414330Y508180D02*
Y512180D01*
X423330Y510180D02*
X427330D01*
X425330Y508180D02*
Y512180D01*
X247230Y521180D02*
X251230D01*
X249230Y519180D02*
Y523180D01*
X258230Y521180D02*
X262230D01*
X260230Y519180D02*
Y523180D01*
X247230Y510180D02*
X251230D01*
X249230Y508180D02*
Y512180D01*
X258230Y510180D02*
X262230D01*
X260230Y508180D02*
Y512180D01*
X578390Y628820D02*
X582390D01*
X580390Y626820D02*
Y630820D01*
X589390Y628820D02*
X593390D01*
X591390Y626820D02*
Y630820D01*
X578390Y617820D02*
X582390D01*
X580390Y615820D02*
Y619820D01*
X589390Y617820D02*
X593390D01*
X591390Y615820D02*
Y619820D01*
X413290Y628820D02*
X417290D01*
X415290Y626820D02*
Y630820D01*
X424290Y628820D02*
X428290D01*
X426290Y626820D02*
Y630820D01*
X413290Y617820D02*
X417290D01*
X415290Y615820D02*
Y619820D01*
X424290Y617820D02*
X428290D01*
X426290Y615820D02*
Y619820D01*
X248190Y628820D02*
X252190D01*
X250190Y626820D02*
Y630820D01*
X259190Y628820D02*
X263190D01*
X261190Y626820D02*
Y630820D01*
X248190Y617820D02*
X252190D01*
X250190Y615820D02*
Y619820D01*
X259190Y617820D02*
X263190D01*
X261190Y615820D02*
Y619820D01*
X578390Y735500D02*
X582390D01*
X580390Y733500D02*
Y737500D01*
X589390Y735500D02*
X593390D01*
X591390Y733500D02*
Y737500D01*
X578390Y724500D02*
X582390D01*
X580390Y722500D02*
Y726500D01*
X589390Y724500D02*
X593390D01*
X591390Y722500D02*
Y726500D01*
X413290Y735500D02*
X417290D01*
X415290Y733500D02*
Y737500D01*
X424290Y735500D02*
X428290D01*
X426290Y733500D02*
Y737500D01*
X413290Y724500D02*
X417290D01*
X415290Y722500D02*
Y726500D01*
X424290Y724500D02*
X428290D01*
X426290Y722500D02*
Y726500D01*
X248190Y735500D02*
X252190D01*
X250190Y733500D02*
Y737500D01*
X259190Y735500D02*
X263190D01*
X261190Y733500D02*
Y737500D01*
X248190Y724500D02*
X252190D01*
X250190Y722500D02*
Y726500D01*
X259190Y724500D02*
X263190D01*
X261190Y722500D02*
Y726500D01*
X578390Y842180D02*
X582390D01*
X580390Y840180D02*
Y844180D01*
X589390Y842180D02*
X593390D01*
X591390Y840180D02*
Y844180D01*
X578390Y831180D02*
X582390D01*
X580390Y829180D02*
Y833180D01*
X589390Y831180D02*
X593390D01*
X591390Y829180D02*
Y833180D01*
X413290Y842180D02*
X417290D01*
X415290Y840180D02*
Y844180D01*
X424290Y842180D02*
X428290D01*
X426290Y840180D02*
Y844180D01*
X413290Y831180D02*
X417290D01*
X415290Y829180D02*
Y833180D01*
X424290Y831180D02*
X428290D01*
X426290Y829180D02*
Y833180D01*
X248190Y842180D02*
X252190D01*
X250190Y840180D02*
Y844180D01*
X259190Y842180D02*
X263190D01*
X261190Y840180D02*
Y844180D01*
X248190Y831180D02*
X252190D01*
X250190Y829180D02*
Y833180D01*
X259190Y831180D02*
X263190D01*
X261190Y829180D02*
Y833180D01*
X578390Y948860D02*
X582390D01*
X580390Y946860D02*
Y950860D01*
X589390Y948860D02*
X593390D01*
X591390Y946860D02*
Y950860D01*
X578390Y937860D02*
X582390D01*
X580390Y935860D02*
Y939860D01*
X589390Y937860D02*
X593390D01*
X591390Y935860D02*
Y939860D01*
X413290Y948860D02*
X417290D01*
X415290Y946860D02*
Y950860D01*
X424290Y948860D02*
X428290D01*
X426290Y946860D02*
Y950860D01*
X413290Y937860D02*
X417290D01*
X415290Y935860D02*
Y939860D01*
X424290Y937860D02*
X428290D01*
X426290Y935860D02*
Y939860D01*
X248190Y948860D02*
X252190D01*
X250190Y946860D02*
Y950860D01*
X259190Y948860D02*
X263190D01*
X261190Y946860D02*
Y950860D01*
X248190Y937860D02*
X252190D01*
X250190Y935860D02*
Y939860D01*
X259190Y937860D02*
X263190D01*
X261190Y935860D02*
Y939860D01*
X578390Y1055540D02*
X582390D01*
X580390Y1053540D02*
Y1057540D01*
X589390Y1055540D02*
X593390D01*
X591390Y1053540D02*
Y1057540D01*
X578390Y1044540D02*
X582390D01*
X580390Y1042540D02*
Y1046540D01*
X589390Y1044540D02*
X593390D01*
X591390Y1042540D02*
Y1046540D01*
X413290Y1055540D02*
X417290D01*
X415290Y1053540D02*
Y1057540D01*
X424290Y1055540D02*
X428290D01*
X426290Y1053540D02*
Y1057540D01*
X413290Y1044540D02*
X417290D01*
X415290Y1042540D02*
Y1046540D01*
X424290Y1044540D02*
X428290D01*
X426290Y1042540D02*
Y1046540D01*
X687301Y922274D02*
X689801D01*
X688551Y921024D02*
Y923524D01*
X692260Y1146138D02*
X694760D01*
X693510Y1144888D02*
Y1147388D01*
X739504Y1132840D02*
X742004D01*
X740754Y1131590D02*
Y1134090D01*
X685148Y1123442D02*
X687648D01*
X686398Y1122192D02*
Y1124692D01*
X689974Y1099058D02*
X692474D01*
X691224Y1097808D02*
Y1100308D01*
X739250Y1082040D02*
X741750D01*
X740500Y1080790D02*
Y1083290D01*
X739250Y1107186D02*
X741750D01*
X740500Y1105936D02*
Y1108436D01*
X455786Y1112266D02*
X458286D01*
X457036Y1111016D02*
Y1113516D01*
X289054Y1367790D02*
X291554D01*
X290304Y1366540D02*
Y1369040D01*
X791034Y1235710D02*
X795034D01*
X793034Y1233710D02*
Y1237710D01*
X208591Y1094796D02*
X212591D01*
X210591Y1092796D02*
Y1096796D01*
X262897Y1189292D02*
X266897D01*
X264897Y1187292D02*
Y1191292D01*
X304922Y1230278D02*
X308922D01*
X306922Y1228278D02*
Y1232278D01*
X522684Y1229322D02*
X526684D01*
X524684Y1227322D02*
Y1231322D01*
X495608Y1102318D02*
X499608D01*
X497608Y1100318D02*
Y1104318D01*
X305108Y1102318D02*
X309108D01*
X307108Y1100318D02*
Y1104318D01*
X644786Y1220094D02*
X648786D01*
X646786Y1218094D02*
Y1222094D01*
X665663Y1098716D02*
X669663D01*
X667663Y1096716D02*
Y1100716D01*
X653088Y1142102D02*
X657088D01*
X655088Y1140102D02*
Y1144102D01*
X648635Y1113464D02*
X651135D01*
X649885Y1112214D02*
Y1114714D01*
X617710Y1093090D02*
X621710D01*
X619710Y1091090D02*
Y1095090D01*
X475163Y1098716D02*
X479163D01*
X477163Y1096716D02*
Y1100716D01*
X462588Y1142102D02*
X466588D01*
X464588Y1140102D02*
Y1144102D01*
X229715Y1064620D02*
X232215D01*
X230965Y1063370D02*
Y1065870D01*
X214218Y1046842D02*
X218218D01*
X216218Y1044842D02*
Y1048842D01*
X202558Y1427480D02*
X206558D01*
X204558Y1425480D02*
Y1429480D01*
X830944Y171526D02*
X833444D01*
X832194Y170276D02*
Y172776D01*
X686341Y281234D02*
X688841D01*
X687591Y279984D02*
Y282484D01*
X686341Y494594D02*
X688841D01*
X687591Y493344D02*
Y495844D01*
X686341Y387914D02*
X688841D01*
X687591Y386664D02*
Y389164D01*
X686341Y174554D02*
X688841D01*
X687591Y173304D02*
Y175804D01*
X519670Y1018850D02*
X522170D01*
X520920Y1017600D02*
Y1020100D01*
X672240Y1045040D02*
X676240D01*
X674240Y1043040D02*
Y1047040D01*
X629840Y1054100D02*
X633840D01*
X631840Y1052100D02*
Y1056100D01*
X464740Y1054100D02*
X468740D01*
X466740Y1052100D02*
Y1056100D01*
X354570Y912170D02*
X357070D01*
X355820Y910920D02*
Y913420D01*
X519670Y912170D02*
X522170D01*
X520920Y910920D02*
Y913420D01*
X672240Y938360D02*
X676240D01*
X674240Y936360D02*
Y940360D01*
X629840Y947420D02*
X633840D01*
X631840Y945420D02*
Y949420D01*
X464740Y947420D02*
X468740D01*
X466740Y945420D02*
Y949420D01*
X299640Y947420D02*
X303640D01*
X301640Y945420D02*
Y949420D01*
X354570Y805490D02*
X357070D01*
X355820Y804240D02*
Y806740D01*
X519670Y805490D02*
X522170D01*
X520920Y804240D02*
Y806740D01*
X672240Y831680D02*
X676240D01*
X674240Y829680D02*
Y833680D01*
X629840Y840740D02*
X633840D01*
X631840Y838740D02*
Y842740D01*
X464740Y840740D02*
X468740D01*
X466740Y838740D02*
Y842740D01*
X299640Y840740D02*
X303640D01*
X301640Y838740D02*
Y842740D01*
X354570Y698810D02*
X357070D01*
X355820Y697560D02*
Y700060D01*
X519670Y698810D02*
X522170D01*
X520920Y697560D02*
Y700060D01*
X672240Y725000D02*
X676240D01*
X674240Y723000D02*
Y727000D01*
X629840Y734060D02*
X633840D01*
X631840Y732060D02*
Y736060D01*
X464740Y734060D02*
X468740D01*
X466740Y732060D02*
Y736060D01*
X299640Y734060D02*
X303640D01*
X301640Y732060D02*
Y736060D01*
X354570Y592130D02*
X357070D01*
X355820Y590880D02*
Y593380D01*
X519670Y592130D02*
X522170D01*
X520920Y590880D02*
Y593380D01*
X672240Y618320D02*
X676240D01*
X674240Y616320D02*
Y620320D01*
X629840Y627380D02*
X633840D01*
X631840Y625380D02*
Y629380D01*
X464740Y627380D02*
X468740D01*
X466740Y625380D02*
Y629380D01*
X299640Y627380D02*
X303640D01*
X301640Y625380D02*
Y629380D01*
X353610Y484490D02*
X356110D01*
X354860Y483240D02*
Y485740D01*
X518710Y484490D02*
X521210D01*
X519960Y483240D02*
Y485740D01*
X671280Y510680D02*
X675280D01*
X673280Y508680D02*
Y512680D01*
X628880Y519740D02*
X632880D01*
X630880Y517740D02*
Y521740D01*
X463780Y519740D02*
X467780D01*
X465780Y517740D02*
Y521740D01*
X298680Y519740D02*
X302680D01*
X300680Y517740D02*
Y521740D01*
X353610Y377810D02*
X356110D01*
X354860Y376560D02*
Y379060D01*
X518710Y377810D02*
X521210D01*
X519960Y376560D02*
Y379060D01*
X671280Y404000D02*
X675280D01*
X673280Y402000D02*
Y406000D01*
X628880Y413060D02*
X632880D01*
X630880Y411060D02*
Y415060D01*
X463780Y413060D02*
X467780D01*
X465780Y411060D02*
Y415060D01*
X298680Y413060D02*
X302680D01*
X300680Y411060D02*
Y415060D01*
X353610Y164450D02*
X356110D01*
X354860Y163200D02*
Y165700D01*
X518710Y164450D02*
X521210D01*
X519960Y163200D02*
Y165700D01*
X671280Y190640D02*
X675280D01*
X673280Y188640D02*
Y192640D01*
X628880Y199700D02*
X632880D01*
X630880Y197700D02*
Y201700D01*
X463780Y199700D02*
X467780D01*
X465780Y197700D02*
Y201700D01*
X298680Y199700D02*
X302680D01*
X300680Y197700D02*
Y201700D01*
X341080Y297320D02*
X345080D01*
X343080Y295320D02*
Y299320D01*
X298680Y306380D02*
X302680D01*
X300680Y304380D02*
Y308380D01*
X506180Y297320D02*
X510180D01*
X508180Y295320D02*
Y299320D01*
X463780Y306380D02*
X467780D01*
X465780Y304380D02*
Y308380D01*
X628880Y306380D02*
X632880D01*
X630880Y304380D02*
Y308380D01*
X671280Y297320D02*
X675280D01*
X673280Y295320D02*
Y299320D01*
X518710Y271130D02*
X521210D01*
X519960Y269880D02*
Y272380D01*
X353610Y271130D02*
X356110D01*
X354860Y269880D02*
Y272380D01*
X372519Y1059180D02*
X376520D01*
X374520Y1057180D02*
Y1061180D01*
X537620Y1059180D02*
X541619D01*
X539619Y1057180D02*
Y1061180D01*
X207419Y952500D02*
X211420D01*
X209419Y950500D02*
Y954500D01*
X372519Y952500D02*
X376520D01*
X374520Y950500D02*
Y954500D01*
X537620Y952500D02*
X541619D01*
X539619Y950500D02*
Y954500D01*
X207419Y845820D02*
X211420D01*
X209419Y843820D02*
Y847820D01*
X372519Y845820D02*
X376520D01*
X374520Y843820D02*
Y847820D01*
X537620Y845820D02*
X541619D01*
X539619Y843820D02*
Y847820D01*
X207419Y739140D02*
X211420D01*
X209419Y737140D02*
Y741140D01*
X372519Y739140D02*
X376520D01*
X374520Y737140D02*
Y741140D01*
X537620Y739140D02*
X541619D01*
X539619Y737140D02*
Y741140D01*
X207419Y632460D02*
X211420D01*
X209419Y630460D02*
Y634460D01*
X372519Y632460D02*
X376520D01*
X374520Y630460D02*
Y634460D01*
X537620Y632460D02*
X541619D01*
X539619Y630460D02*
Y634460D01*
X206460Y524820D02*
X210459D01*
X208459Y522820D02*
Y526820D01*
X371559Y524820D02*
X375560D01*
X373559Y522820D02*
Y526820D01*
X536660Y524820D02*
X540659D01*
X538660Y522820D02*
Y526820D01*
X206460Y418140D02*
X210459D01*
X208459Y416140D02*
Y420140D01*
X371559Y418140D02*
X375560D01*
X373559Y416140D02*
Y420140D01*
X536660Y418140D02*
X540659D01*
X538660Y416140D02*
Y420140D01*
X206460Y311460D02*
X210459D01*
X208459Y309460D02*
Y313460D01*
X371559Y311460D02*
X375560D01*
X373559Y309460D02*
Y313460D01*
X536660Y311460D02*
X540659D01*
X538660Y309460D02*
Y313460D01*
X206460Y204780D02*
X210459D01*
X208459Y202780D02*
Y206780D01*
X371559Y204780D02*
X375560D01*
X373559Y202780D02*
Y206780D01*
X536660Y204780D02*
X540659D01*
X538660Y202780D02*
Y206780D01*
M02*
