M48
;Layer_Color=9474304
;FILE_FORMAT=4:4
METRIC,TZ
;TYPE=PLATED
T1F00S00C0.2500
T2F00S00C0.4000
T3F00S00C0.9000
T5F00S00C1.0200
T6F00S00C1.0810
T7F00S00C1.1000
T8F00S00C3.2000
;TYPE=NON_PLATED
T9F00S00C1.1000
%
T01
X832194Y171526
X687591Y174554
X684112Y182118
X687591Y281234
X684112Y288798
X687591Y387914
X687414Y395970
X687591Y494594
X689954Y509270
X519960Y484490
Y377810
Y271130
Y164450
X354860
Y271130
Y377810
Y484490
X355820Y592130
Y698810
Y805490
Y912170
X520920
Y805490
Y698810
Y592130
X696250Y602170
X688549Y610947
X710500Y585000
X700000Y560250
X717894Y549910
X696000Y708750
X686652Y716534
X686906Y823292
X695480Y815530
X688551Y922274
X685636Y929894
X742024Y953770
Y1003980
X752284Y1040130
X740500Y1082040
Y1107186
X740754Y1132840
X717894Y1142102
X693510Y1146138
X686398Y1123442
X691224Y1099058
X649885Y1113464
X690054Y1033272
X520920Y1018850
X457036Y1112266
X451702Y1258824
X675708Y1238114
X230965Y1064620
X290304Y1367790
X330798
T02
X414330Y190140
Y201140
X425330
Y190140
X465780Y199700
X508180Y190640
X538660Y204780
X579298Y201080
X590298
Y190080
X579298
X630880Y199700
X673280Y190640
Y297320
X630880Y306380
X590430Y307820
X579430
Y296820
X590430
X538660Y311460
X508180Y297320
X465780Y306380
X425330Y307820
X414330
Y296820
X425330
Y403500
Y414500
X414330
Y403500
X465780Y413060
X508180Y404000
X538660Y418140
X579430Y414500
X590430
Y403500
X579430
X630880Y413060
X673280Y404000
Y510680
X630880Y519740
X590430Y521180
X579430
Y510180
X590430
X538660Y524820
X508180Y510680
X465780Y519740
X425330Y521180
X414330
Y510180
X425330
X373559Y524820
X343080Y510680
X300680Y519740
X260230Y521180
X249230
Y510180
X260230
X208459Y524820
Y418140
X249230Y414500
X260230
Y403500
X249230
X300680Y413060
X343080Y404000
X373559Y418140
Y311460
X343080Y297320
X300680Y306380
X260230Y307820
X249230
Y296820
X260230
X208459Y311460
Y204780
X249230Y201140
X260230
Y190140
X249230
X300680Y199700
X343080Y190640
X373559Y204780
X374520Y632460
X344040Y618320
X301640Y627380
X261190Y628820
X250190
Y617820
X261190
X209419Y632460
Y739140
X250190Y735500
X261190
Y724500
X250190
X301640Y734060
X344040Y725000
X374520Y739140
Y845820
X344040Y831680
X301640Y840740
X261190Y842180
X250190
Y831180
X261190
X209419Y845820
X415290Y842180
X426290
Y831180
X415290
X466740Y840740
X509140Y831680
X539619Y845820
X580390Y842180
X591390
Y831180
X580390
X631840Y840740
X674240Y831680
Y725000
X631840Y734060
X591390Y735500
X580390
Y724500
X591390
X539619Y739140
X509140Y725000
X466740Y734060
X426290Y735500
X415290
Y724500
X426290
Y628820
X415290
Y617820
X426290
X466740Y627380
X509140Y618320
X539619Y632460
X580390Y628820
X591390
Y617820
X580390
X631840Y627380
X674240Y618320
X793034Y1235710
X749104Y1201720
X691732Y1223012
X646786Y1220094
X625036Y1235598
X614036
Y1246598
X625036
Y1257598
X614036
X615430Y1290888
X654648Y1273844
X674510Y1272360
X731102Y1299210
X673698Y1157876
X655088Y1142102
X667663Y1098716
X619710Y1093090
X597960Y1108594
X586960
Y1119594
X597960
Y1130594
X586960
X591390Y1055540
X580390
Y1044540
X591390
X631840Y1054100
X674240Y1045040
Y938360
X631840Y947420
X591390Y948860
X580390
Y937860
X591390
X539619Y952500
X509140Y938360
X466740Y947420
X426290Y948860
X415290
Y937860
X426290
Y1044540
Y1055540
X415290
Y1044540
X466740Y1054100
X509140Y1045040
X539619Y1059180
X497608Y1102318
X477163Y1098716
X429210Y1093090
X407460Y1108594
X396460
Y1119594
X407460
Y1130594
X396460
X464588Y1142102
X449924Y1214628
X429024Y1221050
X407274Y1236554
X396274
Y1247554
X407274
Y1258554
X396274
X442812Y1273013
X485868Y1281938
X515456Y1328348
X524684Y1229322
X506820Y1197534
X323758Y1210890
X306922Y1230278
X264897Y1189292
X228949Y1190260
X226095Y1127546
Y1116546
X237095
Y1127546
X248095
Y1116546
X210591Y1094796
X216218Y1046842
X261490Y1059131
X307108Y1102318
X374520Y1059180
Y952500
X344040Y938360
X301640Y947420
X261190Y948860
X250190
Y937860
X261190
X209419Y952500
X219178Y1356360
X204558Y1427480
X192244Y1469470
X258328Y1419010
Y1408010
X269328
Y1419010
X280328
Y1408010
X303508Y1382014
X373104Y1474470
X447890Y1345560
X818122Y1342390
T03
X211164Y27940
Y52940
Y77940
X274664
Y52940
Y27940
X338164
Y52940
Y77940
X401664
Y52940
Y27940
X465164
Y52940
Y77940
X528664
Y52940
Y27940
X592164
Y52940
Y77940
X655664
Y52940
Y27940
X615520Y163180
X590120
X564720
Y269860
X590120
X615520
Y376540
X590120
X564720
Y483220
X590120
X615520
X450420
X425020
X399620
Y376540
X425020
X450420
Y269860
X425020
X399620
Y163180
X425020
X450420
X285320
X259920
X234520
Y269860
X259920
X285320
Y376540
X259920
X234520
Y483220
X259920
X285320
X286280Y590860
X260880
X235480
Y697540
X260880
X286280
Y804220
X260880
X235480
Y910900
X260880
X286280
X400580
X425980
X451380
Y804220
X425980
X400580
Y697540
X425980
X451380
Y590860
X425980
X400580
X565680
X591080
X616480
Y697540
X591080
X565680
Y804220
X591080
X616480
Y910900
X591080
X565680
Y1017580
X591080
X616480
X451380
X425980
X400580
X402172Y1161796
X427572
X452972
X452324Y1316990
X426924
X401524
X601744Y1318910
X627144
X652544
X644234Y1188466
X618834
X593434
X266568Y1017524
X241168
X215768
X226038Y1339596
X251438
X276838
T05
X819494Y189730
Y215130
X844894
Y189730
Y240530
X819494
Y265930
Y291330
X844894
Y265930
Y316730
X819494
Y342130
X844894
Y367530
X819494
Y392930
Y418330
X844894
Y392930
Y443730
Y469130
X819494
Y443730
Y494530
Y519930
X844894
Y494530
Y545330
Y570730
Y596130
X819494
Y570730
Y545330
X819748Y763778
Y789178
X845148
Y763778
Y814578
X819748
Y839978
Y865378
X845148
Y839978
Y890778
X819748
Y916178
X845148
Y941578
X819748
Y966978
Y992378
X845148
Y966978
Y1017778
Y1043178
X819748
Y1017778
Y1068578
Y1093978
Y1119378
Y1144778
X845148
Y1170178
X819748
X845148Y1119378
Y1093978
Y1068578
T06
X794474Y190000
Y215400
Y240800
Y266200
Y291600
Y317000
Y342400
Y367800
Y393200
Y418600
Y444000
Y469400
Y494800
Y520200
X769074
Y494800
Y469400
Y444000
Y418600
Y393200
Y367800
Y342400
Y317000
Y291600
Y266200
Y240800
Y215400
Y190000
Y545600
Y571000
Y596400
Y763778
Y789178
Y814578
Y839978
Y865378
Y890778
Y916178
X794474
Y890778
Y865378
Y839978
Y814578
Y789178
Y763778
Y596400
Y571000
Y545600
Y941578
Y966978
Y992378
Y1017778
Y1043178
Y1068578
Y1093978
Y1119378
Y1144778
Y1170178
X769074
Y1144778
Y1119378
Y1093978
Y1068578
Y1043178
Y1017778
Y992378
Y966978
Y941578
T07
X77815Y24850
Y50250
X77814Y82850
Y108250
Y133650
Y159050
Y184450
Y209850
Y235250
Y260650
Y286050
Y311450
Y336850
Y362250
X77840Y395350
Y420750
Y446150
Y471550
Y496950
Y522350
Y547750
Y573150
Y598550
Y623950
Y649350
Y674750
X77814Y707600
Y733000
Y758400
Y783800
Y809200
Y834600
Y860000
Y885400
Y910800
Y936200
Y961600
Y987000
Y1020600
Y1046000
Y1071400
Y1096800
Y1122200
Y1147600
Y1173000
Y1198400
Y1223800
Y1249200
Y1274600
Y1300000
Y1332828
Y1358228
Y1383628
Y1409028
Y1434428
Y1459828
Y1485228
Y1510628
Y1536028
Y1561428
Y1586828
Y1612228
X333084Y1593342
X358484
X472022Y1594104
X497422
X691732
X717132
T08
X142000Y40000
X810000Y40000
X142000Y1590000
X700000Y1520000
T09
X52415Y24850
Y50250
X333084Y1618742
X358484
X472022Y1619504
X497422
X691732
X717132
M30
