G04*
G04 #@! TF.GenerationSoftware,Altium Limited,Altium Designer,21.0.9 (235)*
G04*
G04 Layer_Color=8421504*
%FSLAX44Y44*%
%MOMM*%
G71*
G04*
G04 #@! TF.SameCoordinates,70CB9891-2270-4D21-866A-A56E4BF175EE*
G04*
G04*
G04 #@! TF.FilePolarity,Positive*
G04*
G01*
G75*
%ADD15R,1.7582X1.3055*%
%ADD16R,1.3055X1.7582*%
%ADD17R,3.4000X12.9400*%
%ADD18R,0.8000X0.8000*%
%ADD19R,1.1500X1.8000*%
%ADD20R,1.8000X1.1500*%
%ADD21R,3.9000X2.5500*%
%ADD22R,0.7000X1.6500*%
%ADD23R,1.8000X3.5000*%
%ADD24R,3.5000X1.8000*%
%ADD25R,4.4000X2.6000*%
%ADD26R,0.6000X1.4500*%
%ADD27R,3.1000X2.4000*%
%ADD28R,1.4500X0.6000*%
%ADD29R,2.4000X3.1000*%
%ADD30R,1.8500X2.1500*%
%ADD31R,1.3500X0.5000*%
%ADD32R,2.2300X5.0200*%
%ADD33R,1.0000X0.9000*%
%ADD34R,0.9000X0.7000*%
%ADD35R,0.5380X1.2242*%
G04:AMPARAMS|DCode=36|XSize=1.2242mm|YSize=0.538mm|CornerRadius=0.269mm|HoleSize=0mm|Usage=FLASHONLY|Rotation=90.000|XOffset=0mm|YOffset=0mm|HoleType=Round|Shape=RoundedRectangle|*
%AMROUNDEDRECTD36*
21,1,1.2242,0.0000,0,0,90.0*
21,1,0.6863,0.5380,0,0,90.0*
1,1,0.5380,0.0000,0.3431*
1,1,0.5380,0.0000,-0.3431*
1,1,0.5380,0.0000,-0.3431*
1,1,0.5380,0.0000,0.3431*
%
%ADD36ROUNDEDRECTD36*%
%ADD37R,1.7800X2.1600*%
%ADD38R,0.8000X0.8000*%
%ADD39R,2.1600X1.7800*%
%ADD40R,0.7000X0.9000*%
G04:AMPARAMS|DCode=41|XSize=1.2242mm|YSize=0.538mm|CornerRadius=0.269mm|HoleSize=0mm|Usage=FLASHONLY|Rotation=0.000|XOffset=0mm|YOffset=0mm|HoleType=Round|Shape=RoundedRectangle|*
%AMROUNDEDRECTD41*
21,1,1.2242,0.0000,0,0,0.0*
21,1,0.6863,0.5380,0,0,0.0*
1,1,0.5380,0.3431,0.0000*
1,1,0.5380,-0.3431,0.0000*
1,1,0.5380,-0.3431,0.0000*
1,1,0.5380,0.3431,0.0000*
%
%ADD41ROUNDEDRECTD41*%
%ADD42R,1.2242X0.5380*%
%ADD43R,0.9000X1.0000*%
%ADD44R,0.9500X1.7000*%
%ADD45R,2.1500X3.2500*%
%ADD46R,2.1500X0.9500*%
D15*
X313780Y1447274D02*
D03*
Y1419746D02*
D03*
D16*
X179366Y1469470D02*
D03*
X206894D02*
D03*
D17*
X192950Y1560000D02*
D03*
X295550D02*
D03*
D18*
X796887Y1282062D02*
D03*
X812887D02*
D03*
X475706Y1310386D02*
D03*
X491706D02*
D03*
X657502Y1131372D02*
D03*
X673502D02*
D03*
X467002D02*
D03*
X483002D02*
D03*
X508910Y1081080D02*
D03*
X492910D02*
D03*
X461160D02*
D03*
X477160D02*
D03*
X674010D02*
D03*
X658010D02*
D03*
X626260D02*
D03*
X642260D02*
D03*
X343810Y974400D02*
D03*
X327810D02*
D03*
X296060D02*
D03*
X312060D02*
D03*
X508910D02*
D03*
X492910D02*
D03*
X461160D02*
D03*
X477160D02*
D03*
X674010D02*
D03*
X658010D02*
D03*
X626260D02*
D03*
X642260D02*
D03*
X343810Y867720D02*
D03*
X327810D02*
D03*
X296060D02*
D03*
X312060D02*
D03*
X508910D02*
D03*
X492910D02*
D03*
X461160D02*
D03*
X477160D02*
D03*
X674010D02*
D03*
X658010D02*
D03*
X626260D02*
D03*
X642260D02*
D03*
X343810Y761040D02*
D03*
X327810D02*
D03*
X296060D02*
D03*
X312060D02*
D03*
X508910D02*
D03*
X492910D02*
D03*
X461160D02*
D03*
X477160D02*
D03*
X674010D02*
D03*
X658010D02*
D03*
X626260D02*
D03*
X642260D02*
D03*
X343810Y654360D02*
D03*
X327810D02*
D03*
X296060D02*
D03*
X312060D02*
D03*
X508910D02*
D03*
X492910D02*
D03*
X461160D02*
D03*
X477160D02*
D03*
X674010D02*
D03*
X658010D02*
D03*
X626260D02*
D03*
X642260D02*
D03*
X342850Y546720D02*
D03*
X326850D02*
D03*
X295100D02*
D03*
X311100D02*
D03*
X507950D02*
D03*
X491950D02*
D03*
X460200D02*
D03*
X476200D02*
D03*
X673050D02*
D03*
X657050D02*
D03*
X625300D02*
D03*
X641300D02*
D03*
X342850Y440040D02*
D03*
X326850D02*
D03*
X295100D02*
D03*
X311100D02*
D03*
X507950D02*
D03*
X491950D02*
D03*
X460200D02*
D03*
X476200D02*
D03*
X673050D02*
D03*
X657050D02*
D03*
X625300D02*
D03*
X641300D02*
D03*
X342850Y333360D02*
D03*
X326850D02*
D03*
X295100D02*
D03*
X311100D02*
D03*
X507950D02*
D03*
X491950D02*
D03*
X460200D02*
D03*
X476200D02*
D03*
X673050D02*
D03*
X657050D02*
D03*
X625300D02*
D03*
X641300D02*
D03*
X342850Y226680D02*
D03*
X326850D02*
D03*
X295100D02*
D03*
X311100D02*
D03*
X507950D02*
D03*
X491950D02*
D03*
X460200D02*
D03*
X476200D02*
D03*
X673050D02*
D03*
X657050D02*
D03*
X625300D02*
D03*
X641300D02*
D03*
X812888Y1304290D02*
D03*
X796888D02*
D03*
X812888Y1326258D02*
D03*
X796888D02*
D03*
D19*
X600430Y1290888D02*
D03*
X630430D02*
D03*
X396824Y1287526D02*
D03*
X426824D02*
D03*
X618340Y1159844D02*
D03*
X588340D02*
D03*
X399364Y1191768D02*
D03*
X429364D02*
D03*
X543966Y1228656D02*
D03*
X572966D02*
D03*
X326204Y1229612D02*
D03*
X355204D02*
D03*
X516890Y1101652D02*
D03*
X545890D02*
D03*
X326390D02*
D03*
X355390D02*
D03*
X505564Y1164844D02*
D03*
X475564D02*
D03*
D20*
X289396Y1097613D02*
D03*
Y1127613D02*
D03*
X516302Y1314086D02*
D03*
Y1284086D02*
D03*
X313272Y1314280D02*
D03*
Y1284280D02*
D03*
X313458Y1186320D02*
D03*
Y1156320D02*
D03*
X180830Y1441900D02*
D03*
Y1412900D02*
D03*
X210658Y1175760D02*
D03*
Y1204760D02*
D03*
X235223Y1175260D02*
D03*
Y1205260D02*
D03*
X204558Y1441980D02*
D03*
Y1412980D02*
D03*
X228688Y1441980D02*
D03*
Y1412980D02*
D03*
D21*
X654888Y1404620D02*
D03*
X534388D02*
D03*
X697622D02*
D03*
X818122D02*
D03*
D22*
X747877Y1304290D02*
D03*
X780877D02*
D03*
X747877Y1282062D02*
D03*
X780877D02*
D03*
X747877Y1326258D02*
D03*
X780877D02*
D03*
D23*
X702908Y1266820D02*
D03*
Y1313820D02*
D03*
X483704Y1410250D02*
D03*
Y1363250D02*
D03*
X476002Y1246720D02*
D03*
Y1199720D02*
D03*
X317082Y1069980D02*
D03*
Y1022980D02*
D03*
D24*
X725138Y1174242D02*
D03*
X678138D02*
D03*
D25*
X423741Y1393510D02*
D03*
X342741D02*
D03*
X342741Y1505712D02*
D03*
X423741D02*
D03*
D26*
X250278Y1386260D02*
D03*
X262978D02*
D03*
X275678D02*
D03*
X288378D02*
D03*
X250278Y1440760D02*
D03*
X262978D02*
D03*
X275678D02*
D03*
X288378D02*
D03*
X218045Y1094796D02*
D03*
X230745D02*
D03*
X243445D02*
D03*
X256145D02*
D03*
X218045Y1149296D02*
D03*
X230745D02*
D03*
X243445D02*
D03*
X256145D02*
D03*
D27*
X269328Y1413510D02*
D03*
X237095Y1122046D02*
D03*
D28*
X429210Y1100544D02*
D03*
Y1113244D02*
D03*
Y1125944D02*
D03*
Y1138644D02*
D03*
X374710Y1100544D02*
D03*
Y1113244D02*
D03*
Y1125944D02*
D03*
Y1138644D02*
D03*
X619710Y1100544D02*
D03*
Y1113244D02*
D03*
Y1125944D02*
D03*
Y1138644D02*
D03*
X565210Y1100544D02*
D03*
Y1113244D02*
D03*
Y1125944D02*
D03*
Y1138644D02*
D03*
X646786Y1227548D02*
D03*
Y1240248D02*
D03*
Y1252948D02*
D03*
Y1265648D02*
D03*
X592286Y1227548D02*
D03*
Y1240248D02*
D03*
Y1252948D02*
D03*
Y1265648D02*
D03*
X429024Y1228504D02*
D03*
Y1241204D02*
D03*
Y1253904D02*
D03*
Y1266604D02*
D03*
X374524Y1228504D02*
D03*
Y1241204D02*
D03*
Y1253904D02*
D03*
Y1266604D02*
D03*
D29*
X401960Y1119594D02*
D03*
X592460D02*
D03*
X619536Y1246598D02*
D03*
X401774Y1247554D02*
D03*
D30*
X254730Y195640D02*
D03*
X584798Y195580D02*
D03*
X419830Y195640D02*
D03*
X584930Y302320D02*
D03*
X419830Y302320D02*
D03*
X254730D02*
D03*
X584930Y409000D02*
D03*
X419830D02*
D03*
X254730D02*
D03*
X584930Y515680D02*
D03*
X419830D02*
D03*
X254730D02*
D03*
X585890Y623320D02*
D03*
X420790D02*
D03*
X255690D02*
D03*
X585890Y730000D02*
D03*
X420790D02*
D03*
X255690D02*
D03*
X585890Y836680D02*
D03*
X420790D02*
D03*
X255690D02*
D03*
X585890Y943360D02*
D03*
X420790D02*
D03*
X255690D02*
D03*
X585890Y1050040D02*
D03*
X420790D02*
D03*
D31*
X232480Y205390D02*
D03*
Y198890D02*
D03*
Y192390D02*
D03*
Y185890D02*
D03*
X276980Y205390D02*
D03*
Y198890D02*
D03*
Y192390D02*
D03*
Y185890D02*
D03*
X562548Y205330D02*
D03*
Y198830D02*
D03*
Y192330D02*
D03*
Y185830D02*
D03*
X607048Y205330D02*
D03*
Y198830D02*
D03*
Y192330D02*
D03*
Y185830D02*
D03*
X397580Y205390D02*
D03*
Y198890D02*
D03*
Y192390D02*
D03*
Y185890D02*
D03*
X442080Y205390D02*
D03*
Y198890D02*
D03*
Y192390D02*
D03*
Y185890D02*
D03*
X562680Y312070D02*
D03*
Y305570D02*
D03*
Y299070D02*
D03*
Y292570D02*
D03*
X607180Y312070D02*
D03*
Y305570D02*
D03*
Y299070D02*
D03*
Y292570D02*
D03*
X397580Y312070D02*
D03*
Y305570D02*
D03*
Y299070D02*
D03*
Y292570D02*
D03*
X442080Y312070D02*
D03*
Y305570D02*
D03*
Y299070D02*
D03*
Y292570D02*
D03*
X232480Y312070D02*
D03*
Y305570D02*
D03*
Y299070D02*
D03*
Y292570D02*
D03*
X276980Y312070D02*
D03*
Y305570D02*
D03*
Y299070D02*
D03*
Y292570D02*
D03*
X562680Y418750D02*
D03*
Y412250D02*
D03*
Y405750D02*
D03*
Y399250D02*
D03*
X607180Y418750D02*
D03*
Y412250D02*
D03*
Y405750D02*
D03*
Y399250D02*
D03*
X397580Y418750D02*
D03*
Y412250D02*
D03*
Y405750D02*
D03*
Y399250D02*
D03*
X442080Y418750D02*
D03*
Y412250D02*
D03*
Y405750D02*
D03*
Y399250D02*
D03*
X232480Y418750D02*
D03*
Y412250D02*
D03*
Y405750D02*
D03*
Y399250D02*
D03*
X276980Y418750D02*
D03*
Y412250D02*
D03*
Y405750D02*
D03*
Y399250D02*
D03*
X562680Y525430D02*
D03*
Y518930D02*
D03*
Y512430D02*
D03*
Y505930D02*
D03*
X607180Y525430D02*
D03*
Y518930D02*
D03*
Y512430D02*
D03*
Y505930D02*
D03*
X397580Y525430D02*
D03*
Y518930D02*
D03*
Y512430D02*
D03*
Y505930D02*
D03*
X442080Y525430D02*
D03*
Y518930D02*
D03*
Y512430D02*
D03*
Y505930D02*
D03*
X232480Y525430D02*
D03*
Y518930D02*
D03*
Y512430D02*
D03*
Y505930D02*
D03*
X276980Y525430D02*
D03*
Y518930D02*
D03*
Y512430D02*
D03*
Y505930D02*
D03*
X563640Y633070D02*
D03*
Y626570D02*
D03*
Y620070D02*
D03*
Y613570D02*
D03*
X608140Y633070D02*
D03*
Y626570D02*
D03*
Y620070D02*
D03*
Y613570D02*
D03*
X398540Y633070D02*
D03*
Y626570D02*
D03*
Y620070D02*
D03*
Y613570D02*
D03*
X443040Y633070D02*
D03*
Y626570D02*
D03*
Y620070D02*
D03*
Y613570D02*
D03*
X233440Y633070D02*
D03*
Y626570D02*
D03*
Y620070D02*
D03*
Y613570D02*
D03*
X277940Y633070D02*
D03*
Y626570D02*
D03*
Y620070D02*
D03*
Y613570D02*
D03*
X563640Y739750D02*
D03*
Y733250D02*
D03*
Y726750D02*
D03*
Y720250D02*
D03*
X608140Y739750D02*
D03*
Y733250D02*
D03*
Y726750D02*
D03*
Y720250D02*
D03*
X398540Y739750D02*
D03*
Y733250D02*
D03*
Y726750D02*
D03*
Y720250D02*
D03*
X443040Y739750D02*
D03*
Y733250D02*
D03*
Y726750D02*
D03*
Y720250D02*
D03*
X233440Y739750D02*
D03*
Y733250D02*
D03*
Y726750D02*
D03*
Y720250D02*
D03*
X277940Y739750D02*
D03*
Y733250D02*
D03*
Y726750D02*
D03*
Y720250D02*
D03*
X563640Y846430D02*
D03*
Y839930D02*
D03*
Y833430D02*
D03*
Y826930D02*
D03*
X608140Y846430D02*
D03*
Y839930D02*
D03*
Y833430D02*
D03*
Y826930D02*
D03*
X398540Y846430D02*
D03*
Y839930D02*
D03*
Y833430D02*
D03*
Y826930D02*
D03*
X443040Y846430D02*
D03*
Y839930D02*
D03*
Y833430D02*
D03*
Y826930D02*
D03*
X233440Y846430D02*
D03*
Y839930D02*
D03*
Y833430D02*
D03*
Y826930D02*
D03*
X277940Y846430D02*
D03*
Y839930D02*
D03*
Y833430D02*
D03*
Y826930D02*
D03*
X563640Y953110D02*
D03*
Y946610D02*
D03*
Y940110D02*
D03*
Y933610D02*
D03*
X608140Y953110D02*
D03*
Y946610D02*
D03*
Y940110D02*
D03*
Y933610D02*
D03*
X398540Y953110D02*
D03*
Y946610D02*
D03*
Y940110D02*
D03*
Y933610D02*
D03*
X443040Y953110D02*
D03*
Y946610D02*
D03*
Y940110D02*
D03*
Y933610D02*
D03*
X233440Y953110D02*
D03*
Y946610D02*
D03*
Y940110D02*
D03*
Y933610D02*
D03*
X277940Y953110D02*
D03*
Y946610D02*
D03*
Y940110D02*
D03*
Y933610D02*
D03*
X563640Y1059790D02*
D03*
Y1053290D02*
D03*
Y1046790D02*
D03*
Y1040290D02*
D03*
X608140Y1059790D02*
D03*
Y1053290D02*
D03*
Y1046790D02*
D03*
Y1040290D02*
D03*
X398540Y1059790D02*
D03*
Y1053290D02*
D03*
Y1046790D02*
D03*
Y1040290D02*
D03*
X443040Y1059790D02*
D03*
Y1053290D02*
D03*
Y1046790D02*
D03*
Y1040290D02*
D03*
D32*
X212873Y1251220D02*
D03*
X247573D02*
D03*
X339416Y1175582D02*
D03*
X374116D02*
D03*
X529788D02*
D03*
X564488D02*
D03*
X339162Y1303542D02*
D03*
X373862D02*
D03*
X542192Y1303348D02*
D03*
X576892D02*
D03*
D33*
X665062Y1240154D02*
D03*
Y1224154D02*
D03*
X457544Y1273684D02*
D03*
Y1289684D02*
D03*
X638578Y1113464D02*
D03*
Y1097464D02*
D03*
X448078Y1113464D02*
D03*
Y1097464D02*
D03*
X474240Y1028120D02*
D03*
Y1012120D02*
D03*
X639340Y1028120D02*
D03*
Y1012120D02*
D03*
X309140Y921440D02*
D03*
Y905440D02*
D03*
X474240Y921440D02*
D03*
Y905440D02*
D03*
X639340Y921440D02*
D03*
Y905440D02*
D03*
X309140Y814760D02*
D03*
Y798760D02*
D03*
X474240Y814760D02*
D03*
Y798760D02*
D03*
X639340Y814760D02*
D03*
Y798760D02*
D03*
X309140Y708080D02*
D03*
Y692080D02*
D03*
X474240Y708080D02*
D03*
Y692080D02*
D03*
X639340Y708080D02*
D03*
Y692080D02*
D03*
X309140Y601400D02*
D03*
Y585400D02*
D03*
X474240Y601400D02*
D03*
Y585400D02*
D03*
X639340Y601400D02*
D03*
Y585400D02*
D03*
X308180Y493760D02*
D03*
Y477760D02*
D03*
X473280Y493760D02*
D03*
Y477760D02*
D03*
X638380Y493760D02*
D03*
Y477760D02*
D03*
X308180Y387080D02*
D03*
Y371080D02*
D03*
X473280Y387080D02*
D03*
Y371080D02*
D03*
X638380Y387080D02*
D03*
Y371080D02*
D03*
X308180Y280400D02*
D03*
Y264400D02*
D03*
X473280Y280400D02*
D03*
Y264400D02*
D03*
X638380Y280400D02*
D03*
Y264400D02*
D03*
X308180Y173720D02*
D03*
Y157720D02*
D03*
X473280Y173720D02*
D03*
Y157720D02*
D03*
X638380Y173720D02*
D03*
Y157720D02*
D03*
D34*
X729070Y1218550D02*
D03*
Y1232550D02*
D03*
X442812Y1284348D02*
D03*
Y1298348D02*
D03*
X641300Y1142102D02*
D03*
Y1128102D02*
D03*
X450800Y1142102D02*
D03*
Y1128102D02*
D03*
X744774Y1243950D02*
D03*
Y1257950D02*
D03*
Y1213470D02*
D03*
Y1227470D02*
D03*
D35*
X680708Y1223012D02*
D03*
X473444Y1277730D02*
D03*
X655240Y1098716D02*
D03*
X464740D02*
D03*
X490140Y1035648D02*
D03*
X655240D02*
D03*
X325040Y928968D02*
D03*
X490140D02*
D03*
X655240D02*
D03*
X325040Y822288D02*
D03*
X490140D02*
D03*
X655240D02*
D03*
X325040Y715608D02*
D03*
X490140D02*
D03*
X655240D02*
D03*
X325040Y608928D02*
D03*
X490140D02*
D03*
X655240D02*
D03*
X324080Y501288D02*
D03*
X489180D02*
D03*
X654280D02*
D03*
X324080Y394608D02*
D03*
X489180D02*
D03*
X654280D02*
D03*
X324080Y287928D02*
D03*
X489180D02*
D03*
X654280D02*
D03*
X324080Y181248D02*
D03*
X489180D02*
D03*
X654280D02*
D03*
D36*
X699708Y1223012D02*
D03*
X690208Y1240216D02*
D03*
X492444Y1277730D02*
D03*
X482944Y1294934D02*
D03*
X674240Y1098716D02*
D03*
X664740Y1115920D02*
D03*
X483740Y1098716D02*
D03*
X474240Y1115920D02*
D03*
X499640Y1052852D02*
D03*
X509140Y1035648D02*
D03*
X664740Y1052852D02*
D03*
X674240Y1035648D02*
D03*
X334540Y946172D02*
D03*
X344040Y928968D02*
D03*
X499640Y946172D02*
D03*
X509140Y928968D02*
D03*
X664740Y946172D02*
D03*
X674240Y928968D02*
D03*
X334540Y839492D02*
D03*
X344040Y822288D02*
D03*
X499640Y839492D02*
D03*
X509140Y822288D02*
D03*
X664740Y839492D02*
D03*
X674240Y822288D02*
D03*
X334540Y732812D02*
D03*
X344040Y715608D02*
D03*
X499640Y732812D02*
D03*
X509140Y715608D02*
D03*
X664740Y732812D02*
D03*
X674240Y715608D02*
D03*
X334540Y626132D02*
D03*
X344040Y608928D02*
D03*
X499640Y626132D02*
D03*
X509140Y608928D02*
D03*
X664740Y626132D02*
D03*
X674240Y608928D02*
D03*
X333580Y518492D02*
D03*
X343080Y501288D02*
D03*
X498680Y518492D02*
D03*
X508180Y501288D02*
D03*
X663780Y518492D02*
D03*
X673280Y501288D02*
D03*
X333580Y411812D02*
D03*
X343080Y394608D02*
D03*
X498680Y411812D02*
D03*
X508180Y394608D02*
D03*
X663780Y411812D02*
D03*
X673280Y394608D02*
D03*
X333580Y305132D02*
D03*
X343080Y287928D02*
D03*
X498680Y305132D02*
D03*
X508180Y287928D02*
D03*
X663780Y305132D02*
D03*
X673280Y287928D02*
D03*
X333580Y198452D02*
D03*
X343080Y181248D02*
D03*
X498680Y198452D02*
D03*
X508180Y181248D02*
D03*
X663780Y198452D02*
D03*
X673280Y181248D02*
D03*
D37*
X570842Y1257106D02*
D03*
X530342D02*
D03*
X353080Y1258062D02*
D03*
X312580D02*
D03*
X543766Y1130102D02*
D03*
X503266D02*
D03*
X353266D02*
D03*
X312766D02*
D03*
X299374Y1474470D02*
D03*
X258874D02*
D03*
D38*
X715100Y1223868D02*
D03*
Y1239868D02*
D03*
X248873Y1041004D02*
D03*
Y1057004D02*
D03*
X199478Y1394840D02*
D03*
Y1378840D02*
D03*
D39*
X205000Y930020D02*
D03*
Y970520D02*
D03*
X282862Y1189292D02*
D03*
Y1148792D02*
D03*
X370100Y1077200D02*
D03*
Y1036700D02*
D03*
X535200Y1077200D02*
D03*
Y1036700D02*
D03*
X370100Y970520D02*
D03*
Y930020D02*
D03*
X535200Y970520D02*
D03*
Y930020D02*
D03*
X205000Y863840D02*
D03*
Y823340D02*
D03*
X370100Y863840D02*
D03*
Y823340D02*
D03*
X535200Y863840D02*
D03*
Y823340D02*
D03*
X205000Y757160D02*
D03*
Y716660D02*
D03*
X370100Y757160D02*
D03*
Y716660D02*
D03*
X535200Y757160D02*
D03*
Y716660D02*
D03*
X205000Y650480D02*
D03*
Y609980D02*
D03*
X370100Y650480D02*
D03*
Y609980D02*
D03*
X535200Y650480D02*
D03*
Y609980D02*
D03*
X204040Y542840D02*
D03*
Y502340D02*
D03*
X369140Y542840D02*
D03*
Y502340D02*
D03*
X534240Y542840D02*
D03*
Y502340D02*
D03*
X204040Y436160D02*
D03*
Y395660D02*
D03*
X369140Y436160D02*
D03*
Y395660D02*
D03*
X534240Y436160D02*
D03*
Y395660D02*
D03*
X204040Y329480D02*
D03*
Y288980D02*
D03*
X369140Y329480D02*
D03*
Y288980D02*
D03*
X534240Y329480D02*
D03*
Y288980D02*
D03*
X204040Y222800D02*
D03*
Y182300D02*
D03*
X369140Y222800D02*
D03*
Y182300D02*
D03*
X534240Y222800D02*
D03*
Y182300D02*
D03*
D40*
X232134Y110490D02*
D03*
X218134D02*
D03*
X295634D02*
D03*
X281634D02*
D03*
X359134D02*
D03*
X345134D02*
D03*
X422634D02*
D03*
X408634D02*
D03*
X486134D02*
D03*
X472134D02*
D03*
X549634D02*
D03*
X535634D02*
D03*
X613134D02*
D03*
X599134D02*
D03*
X676634D02*
D03*
X662634D02*
D03*
X245603Y1073206D02*
D03*
X259603D02*
D03*
X504100Y1067110D02*
D03*
X490100D02*
D03*
X465970Y1067110D02*
D03*
X479970D02*
D03*
X407580Y1074730D02*
D03*
X393580D02*
D03*
X669200Y1067110D02*
D03*
X655200D02*
D03*
X631070Y1067110D02*
D03*
X645070D02*
D03*
X572680Y1074730D02*
D03*
X558680D02*
D03*
X339000Y960430D02*
D03*
X325000D02*
D03*
X300870Y960430D02*
D03*
X314870D02*
D03*
X242480Y968050D02*
D03*
X228480D02*
D03*
X504100Y960430D02*
D03*
X490100D02*
D03*
X465970Y960430D02*
D03*
X479970D02*
D03*
X407580Y968050D02*
D03*
X393580D02*
D03*
X669200Y960430D02*
D03*
X655200D02*
D03*
X631070Y960430D02*
D03*
X645070D02*
D03*
X572680Y968050D02*
D03*
X558680D02*
D03*
X339000Y853750D02*
D03*
X325000D02*
D03*
X300870Y853750D02*
D03*
X314870D02*
D03*
X242480Y861370D02*
D03*
X228480D02*
D03*
X504100Y853750D02*
D03*
X490100D02*
D03*
X465970Y853750D02*
D03*
X479970D02*
D03*
X407580Y861370D02*
D03*
X393580D02*
D03*
X669200Y853750D02*
D03*
X655200D02*
D03*
X631070Y853750D02*
D03*
X645070D02*
D03*
X572680Y861370D02*
D03*
X558680D02*
D03*
X339000Y747070D02*
D03*
X325000D02*
D03*
X300870Y747070D02*
D03*
X314870D02*
D03*
X242480Y754690D02*
D03*
X228480D02*
D03*
X504100Y747070D02*
D03*
X490100D02*
D03*
X465970Y747070D02*
D03*
X479970D02*
D03*
X407580Y754690D02*
D03*
X393580D02*
D03*
X669200Y747070D02*
D03*
X655200D02*
D03*
X631070Y747070D02*
D03*
X645070D02*
D03*
X572680Y754690D02*
D03*
X558680D02*
D03*
X339000Y640390D02*
D03*
X325000D02*
D03*
X300870Y640390D02*
D03*
X314870D02*
D03*
X242480Y648010D02*
D03*
X228480D02*
D03*
X504100Y640390D02*
D03*
X490100D02*
D03*
X465970Y640390D02*
D03*
X479970D02*
D03*
X407580Y648010D02*
D03*
X393580D02*
D03*
X669200Y640390D02*
D03*
X655200D02*
D03*
X631070Y640390D02*
D03*
X645070D02*
D03*
X572680Y648010D02*
D03*
X558680D02*
D03*
X338040Y532750D02*
D03*
X324040D02*
D03*
X299910Y532750D02*
D03*
X313910D02*
D03*
X241520Y540370D02*
D03*
X227520D02*
D03*
X503140Y532750D02*
D03*
X489140D02*
D03*
X465010Y532750D02*
D03*
X479010D02*
D03*
X406620Y540370D02*
D03*
X392620D02*
D03*
X668240Y532750D02*
D03*
X654240D02*
D03*
X630110Y532750D02*
D03*
X644110D02*
D03*
X571720Y540370D02*
D03*
X557720D02*
D03*
X338040Y426070D02*
D03*
X324040D02*
D03*
X299910Y426070D02*
D03*
X313910D02*
D03*
X241520Y433690D02*
D03*
X227520D02*
D03*
X503140Y426070D02*
D03*
X489140D02*
D03*
X465010Y426070D02*
D03*
X479010D02*
D03*
X406620Y433690D02*
D03*
X392620D02*
D03*
X668240Y426070D02*
D03*
X654240D02*
D03*
X630110Y426070D02*
D03*
X644110D02*
D03*
X571720Y433690D02*
D03*
X557720D02*
D03*
X338040Y319390D02*
D03*
X324040D02*
D03*
X299910Y319390D02*
D03*
X313910D02*
D03*
X241520Y327010D02*
D03*
X227520D02*
D03*
X503140Y319390D02*
D03*
X489140D02*
D03*
X465010Y319390D02*
D03*
X479010D02*
D03*
X406620Y327010D02*
D03*
X392620D02*
D03*
X668240Y319390D02*
D03*
X654240D02*
D03*
X630110Y319390D02*
D03*
X644110D02*
D03*
X571720Y327010D02*
D03*
X557720D02*
D03*
X338040Y212710D02*
D03*
X324040D02*
D03*
X299910Y212710D02*
D03*
X313910D02*
D03*
X241520Y220330D02*
D03*
X227520D02*
D03*
X503140Y212710D02*
D03*
X489140D02*
D03*
X465010Y212710D02*
D03*
X479010D02*
D03*
X406620Y220330D02*
D03*
X392620D02*
D03*
X668240Y212710D02*
D03*
X654240D02*
D03*
X630110Y212710D02*
D03*
X644110D02*
D03*
X571720Y220330D02*
D03*
X557720D02*
D03*
X197558Y1363980D02*
D03*
X211558D02*
D03*
D41*
X233421Y1049766D02*
D03*
X216218Y1040266D02*
D03*
X215006Y1386840D02*
D03*
X232210Y1396340D02*
D03*
D42*
X216218Y1059266D02*
D03*
X232210Y1377340D02*
D03*
D43*
X214965Y1075928D02*
D03*
X230965D02*
D03*
X491640Y1018850D02*
D03*
X507640D02*
D03*
X656740D02*
D03*
X672740D02*
D03*
X326540Y912170D02*
D03*
X342540D02*
D03*
X491640D02*
D03*
X507640D02*
D03*
X656740D02*
D03*
X672740D02*
D03*
X326540Y805490D02*
D03*
X342540D02*
D03*
X491640D02*
D03*
X507640D02*
D03*
X656740D02*
D03*
X672740D02*
D03*
X326540Y698810D02*
D03*
X342540D02*
D03*
X491640D02*
D03*
X507640D02*
D03*
X656740D02*
D03*
X672740D02*
D03*
X326540Y592130D02*
D03*
X342540D02*
D03*
X491640D02*
D03*
X507640D02*
D03*
X656740D02*
D03*
X672740D02*
D03*
X325580Y484490D02*
D03*
X341580D02*
D03*
X490680D02*
D03*
X506680D02*
D03*
X655780D02*
D03*
X671780D02*
D03*
X325580Y377810D02*
D03*
X341580D02*
D03*
X490680D02*
D03*
X506680D02*
D03*
X655780D02*
D03*
X671780D02*
D03*
X325580Y271130D02*
D03*
X341580D02*
D03*
X490680D02*
D03*
X506680D02*
D03*
X655780D02*
D03*
X671780D02*
D03*
X325580Y164450D02*
D03*
X341580D02*
D03*
X490680D02*
D03*
X506680D02*
D03*
X655780D02*
D03*
X671780D02*
D03*
X257518Y1367790D02*
D03*
X273518D02*
D03*
D44*
X446300Y1078540D02*
D03*
X419300D02*
D03*
X611400D02*
D03*
X584400D02*
D03*
X281200Y971860D02*
D03*
X254200D02*
D03*
X446300D02*
D03*
X419300D02*
D03*
X611400D02*
D03*
X584400D02*
D03*
X281200Y865180D02*
D03*
X254200D02*
D03*
X446300D02*
D03*
X419300D02*
D03*
X611400D02*
D03*
X584400D02*
D03*
X281200Y758500D02*
D03*
X254200D02*
D03*
X446300D02*
D03*
X419300D02*
D03*
X611400D02*
D03*
X584400D02*
D03*
X281200Y651820D02*
D03*
X254200D02*
D03*
X446300D02*
D03*
X419300D02*
D03*
X611400D02*
D03*
X584400D02*
D03*
X280240Y544180D02*
D03*
X253240D02*
D03*
X445340D02*
D03*
X418340D02*
D03*
X610440D02*
D03*
X583440D02*
D03*
X280240Y437500D02*
D03*
X253240D02*
D03*
X445340D02*
D03*
X418340D02*
D03*
X610440D02*
D03*
X583440D02*
D03*
X280240Y330820D02*
D03*
X253240D02*
D03*
X445340D02*
D03*
X418340D02*
D03*
X610440D02*
D03*
X583440D02*
D03*
X280240Y224140D02*
D03*
X253240D02*
D03*
X445340D02*
D03*
X418340D02*
D03*
X610440D02*
D03*
X583440D02*
D03*
D45*
X822034Y1235710D02*
D03*
D46*
X764034Y1212710D02*
D03*
Y1235710D02*
D03*
Y1258710D02*
D03*
M02*
