G04*
G04 #@! TF.GenerationSoftware,Altium Limited,Altium Designer,21.0.9 (235)*
G04*
G04 Layer_Color=65535*
%FSLAX44Y44*%
%MOMM*%
G71*
G04*
G04 #@! TF.SameCoordinates,70CB9891-2270-4D21-866A-A56E4BF175EE*
G04*
G04*
G04 #@! TF.FilePolarity,Positive*
G04*
G01*
G75*
%ADD10C,0.2540*%
%ADD11C,0.2500*%
%ADD12C,0.2000*%
%ADD13C,0.3810*%
%ADD14C,0.7620*%
D10*
X840000Y40000D02*
G03*
X840000Y40000I-30000J0D01*
G01*
X172000Y40000D02*
G03*
X172000Y40000I-30000J0D01*
G01*
Y1590000D02*
G03*
X172000Y1590000I-30000J0D01*
G01*
X730000Y1520000D02*
G03*
X730000Y1520000I-30000J0D01*
G01*
X631709Y1610344D02*
Y1627000D01*
X4155Y66416D02*
X46815D01*
X441223Y1623642D02*
Y1628192D01*
X441223Y1623642D02*
X441223Y1623642D01*
X4155Y10028D02*
X46815D01*
X4154Y378670D02*
X46814D01*
X4154Y324822D02*
X46814D01*
X4154Y274022D02*
X46814D01*
X4154Y223222D02*
X46814D01*
X4154Y172422D02*
X46814D01*
X4154Y121622D02*
X46814D01*
X4180Y691170D02*
X46840D01*
X4180Y637322D02*
X46840D01*
X4180Y586522D02*
X46840D01*
X4180Y535722D02*
X46840D01*
X4180Y484922D02*
X46840D01*
X4180Y434122D02*
X46840D01*
X3900Y1003674D02*
X46560D01*
X4154Y949572D02*
X46814D01*
X4154Y898772D02*
X46814D01*
X4154Y847972D02*
X46814D01*
X4154Y797172D02*
X46814D01*
X4154Y746372D02*
X46814D01*
X4154Y1059372D02*
X46814D01*
X4154Y1110172D02*
X46814D01*
X4154Y1160972D02*
X46814D01*
X4154Y1211772D02*
X46814D01*
X4154Y1262572D02*
X46814D01*
X4154Y1316166D02*
X46814D01*
X4154Y1371600D02*
X46814D01*
X4154Y1422400D02*
X46814D01*
X4154Y1473200D02*
X46814D01*
X4154Y1524000D02*
X46814D01*
X4154Y1574800D02*
X46814D01*
X4154Y1627124D02*
X46814D01*
X476086Y1474978D02*
X649060D01*
X853530D02*
Y1627000D01*
X631709Y1474978D02*
X853530D01*
X631709D02*
Y1610344D01*
X441223Y1474978D02*
X476086D01*
X441223D02*
Y1623642D01*
D11*
X243028Y1386260D02*
G03*
X243028Y1386260I-1250J0D01*
G01*
X210795Y1094796D02*
G03*
X210795Y1094796I-1250J0D01*
G01*
X430460Y1092044D02*
G03*
X430460Y1092044I-1250J0D01*
G01*
X620960D02*
G03*
X620960Y1092044I-1250J0D01*
G01*
X648036Y1219048D02*
G03*
X648036Y1219048I-1250J0D01*
G01*
X430274Y1220004D02*
G03*
X430274Y1220004I-1250J0D01*
G01*
X278230Y177890D02*
G03*
X278230Y177890I-1250J0D01*
G01*
X608298Y177830D02*
G03*
X608298Y177830I-1250J0D01*
G01*
X443330Y177890D02*
G03*
X443330Y177890I-1250J0D01*
G01*
X608430Y284570D02*
G03*
X608430Y284570I-1250J0D01*
G01*
X443330Y284570D02*
G03*
X443330Y284570I-1250J0D01*
G01*
X278230D02*
G03*
X278230Y284570I-1250J0D01*
G01*
X608430Y391250D02*
G03*
X608430Y391250I-1250J0D01*
G01*
X443330D02*
G03*
X443330Y391250I-1250J0D01*
G01*
X278230D02*
G03*
X278230Y391250I-1250J0D01*
G01*
X608430Y497930D02*
G03*
X608430Y497930I-1250J0D01*
G01*
X443330D02*
G03*
X443330Y497930I-1250J0D01*
G01*
X278230D02*
G03*
X278230Y497930I-1250J0D01*
G01*
X609390Y605570D02*
G03*
X609390Y605570I-1250J0D01*
G01*
X444290D02*
G03*
X444290Y605570I-1250J0D01*
G01*
X279190D02*
G03*
X279190Y605570I-1250J0D01*
G01*
X609390Y712250D02*
G03*
X609390Y712250I-1250J0D01*
G01*
X444290D02*
G03*
X444290Y712250I-1250J0D01*
G01*
X279190D02*
G03*
X279190Y712250I-1250J0D01*
G01*
X609390Y818930D02*
G03*
X609390Y818930I-1250J0D01*
G01*
X444290D02*
G03*
X444290Y818930I-1250J0D01*
G01*
X279190D02*
G03*
X279190Y818930I-1250J0D01*
G01*
X609390Y925610D02*
G03*
X609390Y925610I-1250J0D01*
G01*
X444290D02*
G03*
X444290Y925610I-1250J0D01*
G01*
X279190D02*
G03*
X279190Y925610I-1250J0D01*
G01*
X609390Y1032290D02*
G03*
X609390Y1032290I-1250J0D01*
G01*
X444290D02*
G03*
X444290Y1032290I-1250J0D01*
G01*
X79064Y1633728D02*
G03*
X79064Y1633728I-1250J0D01*
G01*
X79090Y696250D02*
G03*
X79090Y696250I-1250J0D01*
G01*
X79064Y383750D02*
G03*
X79064Y383750I-1250J0D01*
G01*
Y1008500D02*
G03*
X79064Y1008500I-1250J0D01*
G01*
Y1321500D02*
G03*
X79064Y1321500I-1250J0D01*
G01*
X587342Y1257356D02*
G03*
X587342Y1257356I-1250J0D01*
G01*
X369580Y1258312D02*
G03*
X369580Y1258312I-1250J0D01*
G01*
X560266Y1130352D02*
G03*
X560266Y1130352I-1250J0D01*
G01*
X369766D02*
G03*
X369766Y1130352I-1250J0D01*
G01*
X206500Y914770D02*
G03*
X206500Y914770I-1250J0D01*
G01*
X79065Y71750D02*
G03*
X79065Y71750I-1250J0D01*
G01*
X748284Y1258960D02*
G03*
X748284Y1258960I-1250J0D01*
G01*
X520172Y1594104D02*
G03*
X520172Y1594104I-1250J0D01*
G01*
X739882D02*
G03*
X739882Y1594104I-1250J0D01*
G01*
X584182Y1475730D02*
G03*
X584182Y1475730I-1250J0D01*
G01*
X800082D02*
G03*
X800082Y1475730I-1250J0D01*
G01*
X212264Y107790D02*
G03*
X212264Y107790I-1250J0D01*
G01*
X275764D02*
G03*
X275764Y107790I-1250J0D01*
G01*
X339264D02*
G03*
X339264Y107790I-1250J0D01*
G01*
X402764D02*
G03*
X402764Y107790I-1250J0D01*
G01*
X466264D02*
G03*
X466264Y107790I-1250J0D01*
G01*
X529764D02*
G03*
X529764Y107790I-1250J0D01*
G01*
X593264D02*
G03*
X593264Y107790I-1250J0D01*
G01*
X656764D02*
G03*
X656764Y107790I-1250J0D01*
G01*
X381234Y1593342D02*
G03*
X381234Y1593342I-1250J0D01*
G01*
X284362Y1133542D02*
G03*
X284362Y1133542I-1250J0D01*
G01*
X371600Y1021450D02*
G03*
X371600Y1021450I-1250J0D01*
G01*
X536700D02*
G03*
X536700Y1021450I-1250J0D01*
G01*
X371600Y914770D02*
G03*
X371600Y914770I-1250J0D01*
G01*
X536700D02*
G03*
X536700Y914770I-1250J0D01*
G01*
X206500Y808090D02*
G03*
X206500Y808090I-1250J0D01*
G01*
X371600D02*
G03*
X371600Y808090I-1250J0D01*
G01*
X536700D02*
G03*
X536700Y808090I-1250J0D01*
G01*
X206500Y701410D02*
G03*
X206500Y701410I-1250J0D01*
G01*
X371600D02*
G03*
X371600Y701410I-1250J0D01*
G01*
X536700D02*
G03*
X536700Y701410I-1250J0D01*
G01*
X206500Y594730D02*
G03*
X206500Y594730I-1250J0D01*
G01*
X371600D02*
G03*
X371600Y594730I-1250J0D01*
G01*
X536700D02*
G03*
X536700Y594730I-1250J0D01*
G01*
X205540Y487090D02*
G03*
X205540Y487090I-1250J0D01*
G01*
X370640D02*
G03*
X370640Y487090I-1250J0D01*
G01*
X535740D02*
G03*
X535740Y487090I-1250J0D01*
G01*
X205540Y380410D02*
G03*
X205540Y380410I-1250J0D01*
G01*
X370640D02*
G03*
X370640Y380410I-1250J0D01*
G01*
X535740D02*
G03*
X535740Y380410I-1250J0D01*
G01*
X205540Y273730D02*
G03*
X205540Y273730I-1250J0D01*
G01*
X370640D02*
G03*
X370640Y273730I-1250J0D01*
G01*
X535740D02*
G03*
X535740Y273730I-1250J0D01*
G01*
X205540Y167050D02*
G03*
X205540Y167050I-1250J0D01*
G01*
X370640D02*
G03*
X370640Y167050I-1250J0D01*
G01*
X535740D02*
G03*
X535740Y167050I-1250J0D01*
G01*
X244874Y1474220D02*
G03*
X244874Y1474220I-1250J0D01*
G01*
D12*
X304989Y1429274D02*
Y1437746D01*
X322571Y1429274D02*
Y1437746D01*
X188894Y1460679D02*
X197366D01*
X188894Y1478261D02*
X197366D01*
X213750Y1623700D02*
X274750D01*
X213750Y1496300D02*
X274750D01*
X819887Y1279062D02*
Y1285062D01*
X609930Y1298888D02*
X620930D01*
X609930Y1282888D02*
X620930D01*
X406324Y1295526D02*
X417324D01*
X406324Y1279526D02*
X417324D01*
X597840Y1151844D02*
X608840D01*
X597840Y1167844D02*
X608840D01*
X408864Y1199768D02*
X419864D01*
X408864Y1183768D02*
X419864D01*
X281396Y1107113D02*
Y1118113D01*
X297396Y1107113D02*
Y1118113D01*
X555263Y1338620D02*
X660638D01*
Y1388870D01*
Y1420370D02*
Y1470620D01*
X555263D02*
X660638D01*
X528638Y1365245D02*
Y1388870D01*
Y1365245D02*
X555263Y1338620D01*
X528638Y1443995D02*
X555263Y1470620D01*
X528638Y1420370D02*
Y1443995D01*
X691872Y1470620D02*
X797247D01*
X691872Y1420370D02*
Y1470620D01*
Y1338620D02*
Y1388870D01*
Y1338620D02*
X797247D01*
X823872Y1420370D02*
Y1443995D01*
X797247Y1470620D02*
X823872Y1443995D01*
X797247Y1338620D02*
X823872Y1365245D01*
Y1388870D01*
X756674Y176050D02*
X806874D01*
X756674Y610350D02*
X806874D01*
X756674Y176050D02*
Y610350D01*
X806874Y176050D02*
Y610350D01*
X756674Y749828D02*
X806874D01*
X756674Y1184128D02*
X806874D01*
X756674Y749828D02*
Y1184128D01*
X806874Y749828D02*
Y1184128D01*
X857460Y1186878D02*
X944460D01*
X857460Y747078D02*
Y1186878D01*
Y747078D02*
X944460D01*
Y1186878D01*
X857206Y612830D02*
X944206D01*
X857206Y173030D02*
Y612830D01*
Y173030D02*
X944206D01*
Y612830D01*
X755377Y1311540D02*
X773377D01*
X755377Y1297040D02*
X773377D01*
X755377Y1289312D02*
X773377D01*
X755377Y1274812D02*
X773377D01*
X755377Y1333508D02*
X773377D01*
X755377Y1319008D02*
X773377D01*
X668908Y1256320D02*
Y1311820D01*
Y1256320D02*
X690908D01*
X714908D02*
X736908D01*
Y1311820D01*
X681408Y1324320D02*
X690908D01*
X668908Y1311820D02*
X681408Y1324320D01*
X724408D02*
X736908Y1311820D01*
X714908Y1324320D02*
X724408D01*
X517704Y1365250D02*
Y1420750D01*
X495704D02*
X517704D01*
X449704D02*
X471704D01*
X449704Y1365250D02*
Y1420750D01*
X495704Y1352750D02*
X505204D01*
X517704Y1365250D01*
X449704D02*
X462204Y1352750D01*
X471704D01*
X680138Y1140242D02*
X735638D01*
Y1162242D01*
Y1186242D02*
Y1208242D01*
X680138D02*
X735638D01*
X667638Y1152742D02*
Y1162242D01*
Y1152742D02*
X680138Y1140242D01*
X667638Y1195742D02*
X680138Y1208242D01*
X667638Y1186242D02*
Y1195742D01*
X510002Y1201720D02*
Y1257220D01*
X488002D02*
X510002D01*
X442002D02*
X464002D01*
X442002Y1201720D02*
Y1257220D01*
X488002Y1189220D02*
X497502D01*
X510002Y1201720D01*
X442002D02*
X454502Y1189220D01*
X464002D01*
X351082Y1024980D02*
Y1080480D01*
X329082D02*
X351082D01*
X283082D02*
X305082D01*
X283082Y1024980D02*
Y1080480D01*
X329082Y1012480D02*
X338582D01*
X351082Y1024980D01*
X283082D02*
X295582Y1012480D01*
X305082D01*
X350490Y1341010D02*
X435741D01*
Y1377510D01*
Y1409510D02*
Y1446010D01*
X350490D02*
X435741D01*
X330741Y1360760D02*
Y1377510D01*
Y1360760D02*
X350490Y1341010D01*
X330741Y1426260D02*
X350490Y1446010D01*
X330741Y1409510D02*
Y1426260D01*
X330741Y1521712D02*
Y1538462D01*
X350491Y1558212D01*
X330741Y1472962D02*
X350491Y1453212D01*
X330741Y1472962D02*
Y1489712D01*
X350491Y1558212D02*
X435741D01*
Y1521712D02*
Y1558212D01*
Y1453212D02*
Y1489712D01*
X350491Y1453212D02*
X435741D01*
X244328Y1397510D02*
X294328D01*
X244328Y1429510D02*
X294328D01*
X244328Y1397510D02*
Y1429510D01*
X294328Y1397510D02*
Y1429510D01*
X212095Y1106046D02*
X262095D01*
X212095Y1138046D02*
X262095D01*
X212095Y1106046D02*
Y1138046D01*
X262095Y1106046D02*
Y1138046D01*
X417960Y1094594D02*
Y1144594D01*
X385960Y1094594D02*
Y1144594D01*
Y1094594D02*
X417960D01*
X385960Y1144594D02*
X417960D01*
X608460Y1094594D02*
Y1144594D01*
X576460Y1094594D02*
Y1144594D01*
Y1094594D02*
X608460D01*
X576460Y1144594D02*
X608460D01*
X635536Y1221598D02*
Y1271598D01*
X603536Y1221598D02*
Y1271598D01*
Y1221598D02*
X635536D01*
X603536Y1271598D02*
X635536D01*
X417774Y1222554D02*
Y1272554D01*
X385774Y1222554D02*
Y1272554D01*
Y1222554D02*
X417774D01*
X385774Y1272554D02*
X417774D01*
X243230Y211140D02*
X266230D01*
X243230Y180140D02*
X266230D01*
X573298Y211080D02*
X596298D01*
X573298Y180080D02*
X596298D01*
X408330Y211140D02*
X431330D01*
X408330Y180140D02*
X431330D01*
X573430Y317820D02*
X596430D01*
X573430Y286820D02*
X596430D01*
X408330Y317820D02*
X431330D01*
X408330Y286820D02*
X431330D01*
X243230Y317820D02*
X266230D01*
X243230Y286820D02*
X266230D01*
X573430Y424500D02*
X596430D01*
X573430Y393500D02*
X596430D01*
X408330Y424500D02*
X431330D01*
X408330Y393500D02*
X431330D01*
X243230Y424500D02*
X266230D01*
X243230Y393500D02*
X266230D01*
X573430Y531180D02*
X596430D01*
X573430Y500180D02*
X596430D01*
X408330Y531180D02*
X431330D01*
X408330Y500180D02*
X431330D01*
X243230Y531180D02*
X266230D01*
X243230Y500180D02*
X266230D01*
X574390Y638820D02*
X597390D01*
X574390Y607820D02*
X597390D01*
X409290Y638820D02*
X432290D01*
X409290Y607820D02*
X432290D01*
X244190Y638820D02*
X267190D01*
X244190Y607820D02*
X267190D01*
X574390Y745500D02*
X597390D01*
X574390Y714500D02*
X597390D01*
X409290Y745500D02*
X432290D01*
X409290Y714500D02*
X432290D01*
X244190Y745500D02*
X267190D01*
X244190Y714500D02*
X267190D01*
X574390Y852180D02*
X597390D01*
X574390Y821180D02*
X597390D01*
X409290Y852180D02*
X432290D01*
X409290Y821180D02*
X432290D01*
X244190Y852180D02*
X267190D01*
X244190Y821180D02*
X267190D01*
X574390Y958860D02*
X597390D01*
X574390Y927860D02*
X597390D01*
X409290Y958860D02*
X432290D01*
X409290Y927860D02*
X432290D01*
X244190Y958860D02*
X267190D01*
X244190Y927860D02*
X267190D01*
X574390Y1065540D02*
X597390D01*
X574390Y1034540D02*
X597390D01*
X409290Y1065540D02*
X432290D01*
X409290Y1034540D02*
X432290D01*
X46814Y1627228D02*
X108814D01*
Y1317588D02*
Y1627228D01*
X46814Y1317588D02*
X108814D01*
X46814Y1619908D02*
Y1627228D01*
Y1317588D02*
Y1326478D01*
X46840Y689750D02*
X108840D01*
Y380110D02*
Y689750D01*
X46840Y380110D02*
X108840D01*
X46840Y682430D02*
Y689750D01*
Y380110D02*
Y389000D01*
X46814Y377250D02*
X108814D01*
Y67610D02*
Y377250D01*
X46814Y67610D02*
X108814D01*
X46814Y369930D02*
Y377250D01*
Y67610D02*
Y76500D01*
Y1002000D02*
X108814D01*
Y692360D02*
Y1002000D01*
X46814Y692360D02*
X108814D01*
X46814Y994680D02*
Y1002000D01*
Y692360D02*
Y701250D01*
Y1315000D02*
X108814D01*
Y1005360D02*
Y1315000D01*
X46814Y1005360D02*
X108814D01*
X46814Y1307680D02*
Y1315000D01*
Y1005360D02*
Y1014250D01*
X227723Y1275320D02*
X232723D01*
X227723Y1227120D02*
X232723D01*
X354266Y1199682D02*
X359266D01*
X354266Y1151482D02*
X359266D01*
X544638Y1199682D02*
X549638D01*
X544638Y1151482D02*
X549638D01*
X354012Y1327642D02*
X359012D01*
X354012Y1279442D02*
X359012D01*
X557042Y1327448D02*
X562042D01*
X557042Y1279248D02*
X562042D01*
X553466Y1236656D02*
X563466D01*
X553466Y1220656D02*
X563466D01*
X335704Y1237612D02*
X345704D01*
X335704Y1221612D02*
X345704D01*
X526390Y1109652D02*
X536390D01*
X526390Y1093652D02*
X536390D01*
X335890Y1109652D02*
X345890D01*
X335890Y1093652D02*
X345890D01*
X661062Y1231654D02*
Y1232654D01*
X669062Y1231654D02*
Y1232654D01*
X461544Y1281184D02*
Y1282184D01*
X453544Y1281184D02*
Y1282184D01*
X634578Y1104964D02*
Y1105964D01*
X642578Y1104964D02*
Y1105964D01*
X444078Y1104964D02*
Y1105964D01*
X452078Y1104964D02*
Y1105964D01*
X732570Y1225050D02*
Y1226050D01*
X725570Y1225050D02*
Y1226050D01*
X446312Y1290848D02*
Y1291848D01*
X439312Y1290848D02*
Y1291848D01*
X637800Y1134602D02*
Y1135602D01*
X644800Y1134602D02*
Y1135602D01*
X447300Y1134602D02*
Y1135602D01*
X454300Y1134602D02*
Y1135602D01*
X675708Y1232883D02*
Y1238114D01*
X696648D02*
X704708D01*
X675708D02*
X683768D01*
X704708Y1232883D02*
Y1238114D01*
X687148Y1225114D02*
X693268D01*
X468444Y1287601D02*
Y1292832D01*
X489384D02*
X497444D01*
X468444D02*
X476504D01*
X497444Y1287601D02*
Y1292832D01*
X479884Y1279832D02*
X486004D01*
X650240Y1108587D02*
Y1113818D01*
X671180D02*
X679240D01*
X650240D02*
X658300D01*
X679240Y1108587D02*
Y1113818D01*
X661680Y1100818D02*
X667800D01*
X459740Y1108587D02*
Y1113818D01*
X480680D02*
X488740D01*
X459740D02*
X467800D01*
X488740Y1108587D02*
Y1113818D01*
X471180Y1100818D02*
X477300D01*
X665244Y1306210D02*
Y1331610D01*
X589044Y1306210D02*
X665244D01*
X589044D02*
Y1331610D01*
X665244D01*
X465024Y1304290D02*
Y1329690D01*
X388824Y1304290D02*
X465024D01*
X388824D02*
Y1329690D01*
X465024D01*
X656934Y1175766D02*
Y1201166D01*
X580734Y1175766D02*
X656934D01*
X580734D02*
Y1201166D01*
X656934D01*
X465672Y1149096D02*
Y1174496D01*
X389472Y1149096D02*
X465672D01*
X389472D02*
Y1174496D01*
X465672D01*
X526842Y1242506D02*
X574342D01*
X526842Y1271656D02*
Y1271706D01*
Y1242506D02*
Y1242556D01*
Y1271706D02*
X574342D01*
Y1271656D02*
Y1271706D01*
Y1242506D02*
Y1242556D01*
X309080Y1243462D02*
X356580D01*
X309080Y1272612D02*
Y1272662D01*
Y1243462D02*
Y1243512D01*
Y1272662D02*
X356580D01*
Y1272612D02*
Y1272662D01*
Y1243462D02*
Y1243512D01*
X499766Y1115502D02*
X547266D01*
X499766Y1144652D02*
Y1144702D01*
Y1115502D02*
Y1115552D01*
Y1144702D02*
X547266D01*
Y1144652D02*
Y1144702D01*
Y1115502D02*
Y1115552D01*
X309266Y1115502D02*
X356766D01*
X309266Y1144652D02*
Y1144702D01*
Y1115502D02*
Y1115552D01*
Y1144702D02*
X356766D01*
Y1144652D02*
Y1144702D01*
Y1115502D02*
Y1115552D01*
X712100Y1246868D02*
X718100D01*
X498706Y1307386D02*
Y1313386D01*
X680502Y1128372D02*
Y1134372D01*
X490002Y1128372D02*
Y1134372D01*
X524302Y1293586D02*
Y1304586D01*
X508302Y1293586D02*
Y1304586D01*
X321272Y1293780D02*
Y1304780D01*
X305272Y1293780D02*
Y1304780D01*
X485064Y1156844D02*
X496064D01*
X485064Y1172844D02*
X496064D01*
X321458Y1165820D02*
Y1176820D01*
X305458Y1165820D02*
Y1176820D01*
X188830Y1422400D02*
Y1432400D01*
X172830Y1422400D02*
Y1432400D01*
X190400Y926520D02*
Y974020D01*
X219550D02*
X219600D01*
X190400D02*
X190450D01*
X219600Y926520D02*
Y974020D01*
X219550Y926520D02*
X219600D01*
X190400D02*
X190450D01*
X46815Y65250D02*
X108815D01*
Y9850D02*
Y65250D01*
X46815Y9850D02*
X108815D01*
X46815Y57930D02*
Y65250D01*
Y9850D02*
Y17170D01*
X774534Y1267210D02*
Y1269210D01*
Y1244210D02*
Y1250210D01*
Y1221210D02*
Y1227210D01*
Y1202210D02*
Y1204210D01*
Y1202210D02*
X811534D01*
Y1255710D02*
Y1269210D01*
Y1202210D02*
Y1215710D01*
X774534Y1269210D02*
X811534D01*
X202658Y1185260D02*
Y1195260D01*
X218658Y1185260D02*
Y1195260D01*
X222465Y1071928D02*
X223465D01*
X222465Y1079928D02*
X223465D01*
X252103Y1069706D02*
X253103D01*
X252103Y1076706D02*
X253103D01*
X224634Y113990D02*
X225634D01*
X224634Y106990D02*
X225634D01*
X288134Y113990D02*
X289134D01*
X288134Y106990D02*
X289134D01*
X351634Y113990D02*
X352634D01*
X351634Y106990D02*
X352634D01*
X415134Y113990D02*
X416134D01*
X415134Y106990D02*
X416134D01*
X478634Y113990D02*
X479634D01*
X478634Y106990D02*
X479634D01*
X542134Y113990D02*
X543134D01*
X542134Y106990D02*
X543134D01*
X605634Y113990D02*
X606634D01*
X605634Y106990D02*
X606634D01*
X669134Y113990D02*
X670134D01*
X669134Y106990D02*
X670134D01*
X427800Y1071040D02*
X437800D01*
X427800Y1086040D02*
X437800D01*
X592900Y1071040D02*
X602900D01*
X592900Y1086040D02*
X602900D01*
X262700Y964360D02*
X272700D01*
X262700Y979360D02*
X272700D01*
X427800Y964360D02*
X437800D01*
X427800Y979360D02*
X437800D01*
X592900Y964360D02*
X602900D01*
X592900Y979360D02*
X602900D01*
X262700Y857680D02*
X272700D01*
X262700Y872680D02*
X272700D01*
X427800Y857680D02*
X437800D01*
X427800Y872680D02*
X437800D01*
X592900Y857680D02*
X602900D01*
X592900Y872680D02*
X602900D01*
X262700Y751000D02*
X272700D01*
X262700Y766000D02*
X272700D01*
X427800Y751000D02*
X437800D01*
X427800Y766000D02*
X437800D01*
X592900Y751000D02*
X602900D01*
X592900Y766000D02*
X602900D01*
X262700Y644320D02*
X272700D01*
X262700Y659320D02*
X272700D01*
X427800Y644320D02*
X437800D01*
X427800Y659320D02*
X437800D01*
X592900Y644320D02*
X602900D01*
X592900Y659320D02*
X602900D01*
X261740Y536680D02*
X271740D01*
X261740Y551680D02*
X271740D01*
X426840Y536680D02*
X436840D01*
X426840Y551680D02*
X436840D01*
X591940Y536680D02*
X601940D01*
X591940Y551680D02*
X601940D01*
X261740Y430000D02*
X271740D01*
X261740Y445000D02*
X271740D01*
X426840Y430000D02*
X436840D01*
X426840Y445000D02*
X436840D01*
X591940Y430000D02*
X601940D01*
X591940Y445000D02*
X601940D01*
X261740Y323320D02*
X271740D01*
X261740Y338320D02*
X271740D01*
X426840Y323320D02*
X436840D01*
X426840Y338320D02*
X436840D01*
X591940Y323320D02*
X601940D01*
X591940Y338320D02*
X601940D01*
X261740Y216640D02*
X271740D01*
X261740Y231640D02*
X271740D01*
X426840Y216640D02*
X436840D01*
X426840Y231640D02*
X436840D01*
X591940Y216640D02*
X601940D01*
X591940Y231640D02*
X601940D01*
X472470Y1063610D02*
X473470D01*
X472470Y1070610D02*
X473470D01*
X637570Y1063610D02*
X638570D01*
X637570Y1070610D02*
X638570D01*
X307370Y956930D02*
X308370D01*
X307370Y963930D02*
X308370D01*
X472470Y956930D02*
X473470D01*
X472470Y963930D02*
X473470D01*
X637570Y956930D02*
X638570D01*
X637570Y963930D02*
X638570D01*
X307370Y850250D02*
X308370D01*
X307370Y857250D02*
X308370D01*
X472470Y850250D02*
X473470D01*
X472470Y857250D02*
X473470D01*
X637570Y850250D02*
X638570D01*
X637570Y857250D02*
X638570D01*
X307370Y743570D02*
X308370D01*
X307370Y750570D02*
X308370D01*
X472470Y743570D02*
X473470D01*
X472470Y750570D02*
X473470D01*
X637570Y743570D02*
X638570D01*
X637570Y750570D02*
X638570D01*
X307370Y636890D02*
X308370D01*
X307370Y643890D02*
X308370D01*
X472470Y636890D02*
X473470D01*
X472470Y643890D02*
X473470D01*
X637570Y636890D02*
X638570D01*
X637570Y643890D02*
X638570D01*
X306410Y529250D02*
X307410D01*
X306410Y536250D02*
X307410D01*
X471510Y529250D02*
X472510D01*
X471510Y536250D02*
X472510D01*
X636610Y529250D02*
X637610D01*
X636610Y536250D02*
X637610D01*
X306410Y422570D02*
X307410D01*
X306410Y429570D02*
X307410D01*
X471510Y422570D02*
X472510D01*
X471510Y429570D02*
X472510D01*
X636610Y422570D02*
X637610D01*
X636610Y429570D02*
X637610D01*
X306410Y315890D02*
X307410D01*
X306410Y322890D02*
X307410D01*
X471510Y315890D02*
X472510D01*
X471510Y322890D02*
X472510D01*
X636610Y315890D02*
X637610D01*
X636610Y322890D02*
X637610D01*
X306410Y209210D02*
X307410D01*
X306410Y216210D02*
X307410D01*
X471510Y209210D02*
X472510D01*
X471510Y216210D02*
X472510D01*
X636610Y209210D02*
X637610D01*
X636610Y216210D02*
X637610D01*
X470240Y1019620D02*
Y1020620D01*
X478240Y1019620D02*
Y1020620D01*
X635340Y1019620D02*
Y1020620D01*
X643340Y1019620D02*
Y1020620D01*
X305140Y912940D02*
Y913940D01*
X313140Y912940D02*
Y913940D01*
X470240Y912940D02*
Y913940D01*
X478240Y912940D02*
Y913940D01*
X635340Y912940D02*
Y913940D01*
X643340Y912940D02*
Y913940D01*
X305140Y806260D02*
Y807260D01*
X313140Y806260D02*
Y807260D01*
X470240Y806260D02*
Y807260D01*
X478240Y806260D02*
Y807260D01*
X635340Y806260D02*
Y807260D01*
X643340Y806260D02*
Y807260D01*
X305140Y699580D02*
Y700580D01*
X313140Y699580D02*
Y700580D01*
X470240Y699580D02*
Y700580D01*
X478240Y699580D02*
Y700580D01*
X635340Y699580D02*
Y700580D01*
X643340Y699580D02*
Y700580D01*
X305140Y592900D02*
Y593900D01*
X313140Y592900D02*
Y593900D01*
X470240Y592900D02*
Y593900D01*
X478240Y592900D02*
Y593900D01*
X635340Y592900D02*
Y593900D01*
X643340Y592900D02*
Y593900D01*
X304180Y485260D02*
Y486260D01*
X312180Y485260D02*
Y486260D01*
X469280Y485260D02*
Y486260D01*
X477280Y485260D02*
Y486260D01*
X634380Y485260D02*
Y486260D01*
X642380Y485260D02*
Y486260D01*
X304180Y378580D02*
Y379580D01*
X312180Y378580D02*
Y379580D01*
X469280Y378580D02*
Y379580D01*
X477280Y378580D02*
Y379580D01*
X634380Y378580D02*
Y379580D01*
X642380Y378580D02*
Y379580D01*
X304180Y271900D02*
Y272900D01*
X312180Y271900D02*
Y272900D01*
X469280Y271900D02*
Y272900D01*
X477280Y271900D02*
Y272900D01*
X634380Y271900D02*
Y272900D01*
X642380Y271900D02*
Y272900D01*
X304180Y165220D02*
Y166220D01*
X312180Y165220D02*
Y166220D01*
X469280Y165220D02*
Y166220D01*
X477280Y165220D02*
Y166220D01*
X634380Y165220D02*
Y166220D01*
X642380Y165220D02*
Y166220D01*
X499140Y1014850D02*
X500140D01*
X499140Y1022850D02*
X500140D01*
X664240Y1014850D02*
X665240D01*
X664240Y1022850D02*
X665240D01*
X334040Y908170D02*
X335040D01*
X334040Y916170D02*
X335040D01*
X499140Y908170D02*
X500140D01*
X499140Y916170D02*
X500140D01*
X664240Y908170D02*
X665240D01*
X664240Y916170D02*
X665240D01*
X334040Y801490D02*
X335040D01*
X334040Y809490D02*
X335040D01*
X499140Y801490D02*
X500140D01*
X499140Y809490D02*
X500140D01*
X664240Y801490D02*
X665240D01*
X664240Y809490D02*
X665240D01*
X334040Y694810D02*
X335040D01*
X334040Y702810D02*
X335040D01*
X499140Y694810D02*
X500140D01*
X499140Y702810D02*
X500140D01*
X664240Y694810D02*
X665240D01*
X664240Y702810D02*
X665240D01*
X334040Y588130D02*
X335040D01*
X334040Y596130D02*
X335040D01*
X499140Y588130D02*
X500140D01*
X499140Y596130D02*
X500140D01*
X664240Y588130D02*
X665240D01*
X664240Y596130D02*
X665240D01*
X333080Y480490D02*
X334080D01*
X333080Y488490D02*
X334080D01*
X498180Y480490D02*
X499180D01*
X498180Y488490D02*
X499180D01*
X663280Y480490D02*
X664280D01*
X663280Y488490D02*
X664280D01*
X333080Y373810D02*
X334080D01*
X333080Y381810D02*
X334080D01*
X498180Y373810D02*
X499180D01*
X498180Y381810D02*
X499180D01*
X663280Y373810D02*
X664280D01*
X663280Y381810D02*
X664280D01*
X333080Y267130D02*
X334080D01*
X333080Y275130D02*
X334080D01*
X498180Y267130D02*
X499180D01*
X498180Y275130D02*
X499180D01*
X663280Y267130D02*
X664280D01*
X663280Y275130D02*
X664280D01*
X333080Y160450D02*
X334080D01*
X333080Y168450D02*
X334080D01*
X498180Y160450D02*
X499180D01*
X498180Y168450D02*
X499180D01*
X663280Y160450D02*
X664280D01*
X663280Y168450D02*
X664280D01*
X496600Y1070610D02*
X497600D01*
X496600Y1063610D02*
X497600D01*
X661700Y1070610D02*
X662700D01*
X661700Y1063610D02*
X662700D01*
X331500Y963930D02*
X332500D01*
X331500Y956930D02*
X332500D01*
X496600Y963930D02*
X497600D01*
X496600Y956930D02*
X497600D01*
X661700Y963930D02*
X662700D01*
X661700Y956930D02*
X662700D01*
X331500Y857250D02*
X332500D01*
X331500Y850250D02*
X332500D01*
X496600Y857250D02*
X497600D01*
X496600Y850250D02*
X497600D01*
X661700Y857250D02*
X662700D01*
X661700Y850250D02*
X662700D01*
X331500Y750570D02*
X332500D01*
X331500Y743570D02*
X332500D01*
X496600Y750570D02*
X497600D01*
X496600Y743570D02*
X497600D01*
X661700Y750570D02*
X662700D01*
X661700Y743570D02*
X662700D01*
X331500Y643890D02*
X332500D01*
X331500Y636890D02*
X332500D01*
X496600Y643890D02*
X497600D01*
X496600Y636890D02*
X497600D01*
X661700Y643890D02*
X662700D01*
X661700Y636890D02*
X662700D01*
X330540Y536250D02*
X331540D01*
X330540Y529250D02*
X331540D01*
X495640Y536250D02*
X496640D01*
X495640Y529250D02*
X496640D01*
X660740Y536250D02*
X661740D01*
X660740Y529250D02*
X661740D01*
X330540Y429570D02*
X331540D01*
X330540Y422570D02*
X331540D01*
X495640Y429570D02*
X496640D01*
X495640Y422570D02*
X496640D01*
X660740Y429570D02*
X661740D01*
X660740Y422570D02*
X661740D01*
X330540Y322890D02*
X331540D01*
X330540Y315890D02*
X331540D01*
X495640Y322890D02*
X496640D01*
X495640Y315890D02*
X496640D01*
X660740Y322890D02*
X661740D01*
X660740Y315890D02*
X661740D01*
X330540Y216210D02*
X331540D01*
X330540Y209210D02*
X331540D01*
X495640Y216210D02*
X496640D01*
X495640Y209210D02*
X496640D01*
X660740Y216210D02*
X661740D01*
X660740Y209210D02*
X661740D01*
X212558Y1422480D02*
Y1432480D01*
X196558Y1422480D02*
Y1432480D01*
X236688Y1422480D02*
Y1432480D01*
X220688Y1422480D02*
Y1432480D01*
X265018Y1363790D02*
X266018D01*
X265018Y1371790D02*
X266018D01*
X204058Y1360480D02*
X205058D01*
X204058Y1367480D02*
X205058D01*
X218319Y1046706D02*
Y1052826D01*
X226089Y1035266D02*
X231320D01*
Y1056206D02*
Y1064266D01*
Y1035266D02*
Y1043326D01*
X226089Y1064266D02*
X231320D01*
X496580Y1037750D02*
X502700D01*
X514140Y1045519D02*
Y1050750D01*
X485140D02*
X493200D01*
X506079D02*
X514140D01*
X485140Y1045519D02*
Y1050750D01*
X661680Y1037750D02*
X667800D01*
X679240Y1045519D02*
Y1050750D01*
X650240D02*
X658300D01*
X671180D02*
X679240D01*
X650240Y1045519D02*
Y1050750D01*
X331479Y931070D02*
X337600D01*
X349040Y938839D02*
Y944070D01*
X320040D02*
X328100D01*
X340979D02*
X349040D01*
X320040Y938839D02*
Y944070D01*
X496580Y931070D02*
X502700D01*
X514140Y938839D02*
Y944070D01*
X485140D02*
X493200D01*
X506079D02*
X514140D01*
X485140Y938839D02*
Y944070D01*
X661680Y931070D02*
X667800D01*
X679240Y938839D02*
Y944070D01*
X650240D02*
X658300D01*
X671180D02*
X679240D01*
X650240Y938839D02*
Y944070D01*
X331479Y824390D02*
X337600D01*
X349040Y832159D02*
Y837390D01*
X320040D02*
X328100D01*
X340979D02*
X349040D01*
X320040Y832159D02*
Y837390D01*
X496580Y824390D02*
X502700D01*
X514140Y832159D02*
Y837390D01*
X485140D02*
X493200D01*
X506079D02*
X514140D01*
X485140Y832159D02*
Y837390D01*
X661680Y824390D02*
X667800D01*
X679240Y832159D02*
Y837390D01*
X650240D02*
X658300D01*
X671180D02*
X679240D01*
X650240Y832159D02*
Y837390D01*
X331479Y717710D02*
X337600D01*
X349040Y725479D02*
Y730710D01*
X320040D02*
X328100D01*
X340979D02*
X349040D01*
X320040Y725479D02*
Y730710D01*
X496580Y717710D02*
X502700D01*
X514140Y725479D02*
Y730710D01*
X485140D02*
X493200D01*
X506079D02*
X514140D01*
X485140Y725479D02*
Y730710D01*
X661680Y717710D02*
X667800D01*
X679240Y725479D02*
Y730710D01*
X650240D02*
X658300D01*
X671180D02*
X679240D01*
X650240Y725479D02*
Y730710D01*
X331479Y611030D02*
X337600D01*
X349040Y618799D02*
Y624030D01*
X320040D02*
X328100D01*
X340979D02*
X349040D01*
X320040Y618799D02*
Y624030D01*
X496580Y611030D02*
X502700D01*
X514140Y618799D02*
Y624030D01*
X485140D02*
X493200D01*
X506079D02*
X514140D01*
X485140Y618799D02*
Y624030D01*
X661680Y611030D02*
X667800D01*
X679240Y618799D02*
Y624030D01*
X650240D02*
X658300D01*
X671180D02*
X679240D01*
X650240Y618799D02*
Y624030D01*
X330519Y503390D02*
X336640D01*
X348080Y511159D02*
Y516390D01*
X319080D02*
X327140D01*
X340019D02*
X348080D01*
X319080Y511159D02*
Y516390D01*
X495620Y503390D02*
X501740D01*
X513180Y511159D02*
Y516390D01*
X484180D02*
X492240D01*
X505120D02*
X513180D01*
X484180Y511159D02*
Y516390D01*
X660720Y503390D02*
X666840D01*
X678280Y511159D02*
Y516390D01*
X649280D02*
X657340D01*
X670219D02*
X678280D01*
X649280Y511159D02*
Y516390D01*
X330519Y396710D02*
X336640D01*
X348080Y404479D02*
Y409710D01*
X319080D02*
X327140D01*
X340019D02*
X348080D01*
X319080Y404479D02*
Y409710D01*
X495620Y396710D02*
X501740D01*
X513180Y404479D02*
Y409710D01*
X484180D02*
X492240D01*
X505120D02*
X513180D01*
X484180Y404479D02*
Y409710D01*
X660720Y396710D02*
X666840D01*
X678280Y404479D02*
Y409710D01*
X649280D02*
X657340D01*
X670219D02*
X678280D01*
X649280Y404479D02*
Y409710D01*
X330519Y290030D02*
X336640D01*
X348080Y297799D02*
Y303030D01*
X319080D02*
X327140D01*
X340019D02*
X348080D01*
X319080Y297799D02*
Y303030D01*
X495620Y290030D02*
X501740D01*
X513180Y297799D02*
Y303030D01*
X484180D02*
X492240D01*
X505120D02*
X513180D01*
X484180Y297799D02*
Y303030D01*
X660720Y290030D02*
X666840D01*
X678280Y297799D02*
Y303030D01*
X649280D02*
X657340D01*
X670219D02*
X678280D01*
X649280Y297799D02*
Y303030D01*
X330519Y183350D02*
X336640D01*
X348080Y191119D02*
Y196350D01*
X319080D02*
X327140D01*
X340019D02*
X348080D01*
X319080Y191119D02*
Y196350D01*
X495620Y183350D02*
X501740D01*
X513180Y191119D02*
Y196350D01*
X484180D02*
X492240D01*
X505120D02*
X513180D01*
X484180Y191119D02*
Y196350D01*
X660720Y183350D02*
X666840D01*
X678280Y191119D02*
Y196350D01*
X649280D02*
X657340D01*
X670219D02*
X678280D01*
X649280Y191119D02*
Y196350D01*
X230108Y1383780D02*
Y1389900D01*
X217108Y1401340D02*
X222339D01*
X217108Y1372340D02*
Y1380400D01*
Y1393280D02*
Y1401340D01*
Y1372340D02*
X222339D01*
X203068Y1030224D02*
X279268D01*
X203068Y1004824D02*
Y1030224D01*
Y1004824D02*
X279268D01*
Y1030224D01*
X387880Y1030280D02*
X464080D01*
X387880Y1004880D02*
Y1030280D01*
Y1004880D02*
X464080D01*
Y1030280D01*
X552980D02*
X629180D01*
X552980Y1004880D02*
Y1030280D01*
Y1004880D02*
X629180D01*
Y1030280D01*
X222780Y923600D02*
X298980D01*
X222780Y898200D02*
Y923600D01*
Y898200D02*
X298980D01*
Y923600D01*
X387880D02*
X464080D01*
X387880Y898200D02*
Y923600D01*
Y898200D02*
X464080D01*
Y923600D01*
X552980D02*
X629180D01*
X552980Y898200D02*
Y923600D01*
Y898200D02*
X629180D01*
Y923600D01*
X222780Y816920D02*
X298980D01*
X222780Y791520D02*
Y816920D01*
Y791520D02*
X298980D01*
Y816920D01*
X387880D02*
X464080D01*
X387880Y791520D02*
Y816920D01*
Y791520D02*
X464080D01*
Y816920D01*
X552980D02*
X629180D01*
X552980Y791520D02*
Y816920D01*
Y791520D02*
X629180D01*
Y816920D01*
X222780Y710240D02*
X298980D01*
X222780Y684840D02*
Y710240D01*
Y684840D02*
X298980D01*
Y710240D01*
X387880D02*
X464080D01*
X387880Y684840D02*
Y710240D01*
Y684840D02*
X464080D01*
Y710240D01*
X552980D02*
X629180D01*
X552980Y684840D02*
Y710240D01*
Y684840D02*
X629180D01*
Y710240D01*
X222780Y603560D02*
X298980D01*
X222780Y578160D02*
Y603560D01*
Y578160D02*
X298980D01*
Y603560D01*
X387880D02*
X464080D01*
X387880Y578160D02*
Y603560D01*
Y578160D02*
X464080D01*
Y603560D01*
X552980D02*
X629180D01*
X552980Y578160D02*
Y603560D01*
Y578160D02*
X629180D01*
Y603560D01*
X221820Y495920D02*
X298020D01*
X221820Y470520D02*
Y495920D01*
Y470520D02*
X298020D01*
Y495920D01*
X386920D02*
X463120D01*
X386920Y470520D02*
Y495920D01*
Y470520D02*
X463120D01*
Y495920D01*
X552020D02*
X628220D01*
X552020Y470520D02*
Y495920D01*
Y470520D02*
X628220D01*
Y495920D01*
X221820Y389240D02*
X298020D01*
X221820Y363840D02*
Y389240D01*
Y363840D02*
X298020D01*
Y389240D01*
X386920D02*
X463120D01*
X386920Y363840D02*
Y389240D01*
Y363840D02*
X463120D01*
Y389240D01*
X552020D02*
X628220D01*
X552020Y363840D02*
Y389240D01*
Y363840D02*
X628220D01*
Y389240D01*
X221820Y282560D02*
X298020D01*
X221820Y257160D02*
Y282560D01*
Y257160D02*
X298020D01*
Y282560D01*
X386920D02*
X463120D01*
X386920Y257160D02*
Y282560D01*
Y257160D02*
X463120D01*
Y282560D01*
X552020D02*
X628220D01*
X552020Y257160D02*
Y282560D01*
Y257160D02*
X628220D01*
Y282560D01*
X221820Y175880D02*
X298020D01*
X221820Y150480D02*
Y175880D01*
Y150480D02*
X298020D01*
Y175880D01*
X386920D02*
X463120D01*
X386920Y150480D02*
Y175880D01*
Y150480D02*
X463120D01*
Y175880D01*
X552020D02*
X628220D01*
X552020Y150480D02*
Y175880D01*
Y150480D02*
X628220D01*
Y175880D01*
X213338Y1352296D02*
X289538D01*
X213338Y1326896D02*
Y1352296D01*
Y1326896D02*
X289538D01*
Y1352296D01*
X512422Y1563104D02*
Y1625104D01*
X457022Y1563104D02*
X512422D01*
X457022D02*
Y1625104D01*
X505102D02*
X512422D01*
X457022D02*
X464342D01*
X732132Y1563104D02*
Y1625104D01*
X676732Y1563104D02*
X732132D01*
X676732D02*
Y1625104D01*
X724812D02*
X732132D01*
X676732D02*
X684052D01*
X536932Y1539230D02*
Y1627480D01*
Y1481480D02*
Y1499730D01*
X602682Y1481480D02*
X628932D01*
X536932D02*
X563182D01*
X628932D02*
Y1627480D01*
X536932D02*
X628932D01*
X752832Y1539230D02*
Y1627480D01*
Y1481480D02*
Y1499730D01*
X818582Y1481480D02*
X844832D01*
X752832D02*
X779082D01*
X844832D02*
Y1627480D01*
X752832D02*
X844832D01*
X177164Y102440D02*
X234664D01*
X177164Y3440D02*
Y102440D01*
Y3440D02*
X234664D01*
Y102440D01*
X240664D02*
X298164D01*
X240664Y3440D02*
Y102440D01*
Y3440D02*
X298164D01*
Y102440D01*
X304164D02*
X361664D01*
X304164Y3440D02*
Y102440D01*
Y3440D02*
X361664D01*
Y102440D01*
X367664D02*
X425164D01*
X367664Y3440D02*
Y102440D01*
Y3440D02*
X425164D01*
Y102440D01*
X431164D02*
X488664D01*
X431164Y3440D02*
Y102440D01*
Y3440D02*
X488664D01*
Y102440D01*
X494664D02*
X552164D01*
X494664Y3440D02*
Y102440D01*
Y3440D02*
X552164D01*
Y102440D01*
X558164D02*
X615664D01*
X558164Y3440D02*
Y102440D01*
Y3440D02*
X615664D01*
Y102440D01*
X621664D02*
X679164D01*
X621664Y3440D02*
Y102440D01*
Y3440D02*
X679164D01*
Y102440D01*
X373484Y1562342D02*
Y1624342D01*
X318084Y1562342D02*
X373484D01*
X318084D02*
Y1624342D01*
X366164D02*
X373484D01*
X318084D02*
X325404D01*
X268262Y1145292D02*
X268312D01*
X297412D02*
X297462D01*
Y1192792D01*
X268262D02*
X268312D01*
X297412D02*
X297462D01*
X268262Y1145292D02*
Y1192792D01*
X245873Y1034004D02*
X251873D01*
X819888Y1323258D02*
Y1329258D01*
Y1301290D02*
Y1307290D01*
X355500Y1033200D02*
X355550D01*
X384650D02*
X384700D01*
Y1080700D01*
X355500D02*
X355550D01*
X384650D02*
X384700D01*
X355500Y1033200D02*
Y1080700D01*
X520600Y1033200D02*
X520650D01*
X549750D02*
X549800D01*
Y1080700D01*
X520600D02*
X520650D01*
X549750D02*
X549800D01*
X520600Y1033200D02*
Y1080700D01*
X355500Y926520D02*
X355550D01*
X384650D02*
X384700D01*
Y974020D01*
X355500D02*
X355550D01*
X384650D02*
X384700D01*
X355500Y926520D02*
Y974020D01*
X520600Y926520D02*
X520650D01*
X549750D02*
X549800D01*
Y974020D01*
X520600D02*
X520650D01*
X549750D02*
X549800D01*
X520600Y926520D02*
Y974020D01*
X190400Y819840D02*
X190450D01*
X219550D02*
X219600D01*
Y867340D01*
X190400D02*
X190450D01*
X219550D02*
X219600D01*
X190400Y819840D02*
Y867340D01*
X355500Y819840D02*
X355550D01*
X384650D02*
X384700D01*
Y867340D01*
X355500D02*
X355550D01*
X384650D02*
X384700D01*
X355500Y819840D02*
Y867340D01*
X520600Y819840D02*
X520650D01*
X549750D02*
X549800D01*
Y867340D01*
X520600D02*
X520650D01*
X549750D02*
X549800D01*
X520600Y819840D02*
Y867340D01*
X190400Y713160D02*
X190450D01*
X219550D02*
X219600D01*
Y760660D01*
X190400D02*
X190450D01*
X219550D02*
X219600D01*
X190400Y713160D02*
Y760660D01*
X355500Y713160D02*
X355550D01*
X384650D02*
X384700D01*
Y760660D01*
X355500D02*
X355550D01*
X384650D02*
X384700D01*
X355500Y713160D02*
Y760660D01*
X520600Y713160D02*
X520650D01*
X549750D02*
X549800D01*
Y760660D01*
X520600D02*
X520650D01*
X549750D02*
X549800D01*
X520600Y713160D02*
Y760660D01*
X190400Y606480D02*
X190450D01*
X219550D02*
X219600D01*
Y653980D01*
X190400D02*
X190450D01*
X219550D02*
X219600D01*
X190400Y606480D02*
Y653980D01*
X355500Y606480D02*
X355550D01*
X384650D02*
X384700D01*
Y653980D01*
X355500D02*
X355550D01*
X384650D02*
X384700D01*
X355500Y606480D02*
Y653980D01*
X520600Y606480D02*
X520650D01*
X549750D02*
X549800D01*
Y653980D01*
X520600D02*
X520650D01*
X549750D02*
X549800D01*
X520600Y606480D02*
Y653980D01*
X189440Y498840D02*
X189490D01*
X218590D02*
X218640D01*
Y546340D01*
X189440D02*
X189490D01*
X218590D02*
X218640D01*
X189440Y498840D02*
Y546340D01*
X354540Y498840D02*
X354590D01*
X383690D02*
X383740D01*
Y546340D01*
X354540D02*
X354590D01*
X383690D02*
X383740D01*
X354540Y498840D02*
Y546340D01*
X519640Y498840D02*
X519690D01*
X548790D02*
X548840D01*
Y546340D01*
X519640D02*
X519690D01*
X548790D02*
X548840D01*
X519640Y498840D02*
Y546340D01*
X189440Y392160D02*
X189490D01*
X218590D02*
X218640D01*
Y439660D01*
X189440D02*
X189490D01*
X218590D02*
X218640D01*
X189440Y392160D02*
Y439660D01*
X354540Y392160D02*
X354590D01*
X383690D02*
X383740D01*
Y439660D01*
X354540D02*
X354590D01*
X383690D02*
X383740D01*
X354540Y392160D02*
Y439660D01*
X519640Y392160D02*
X519690D01*
X548790D02*
X548840D01*
Y439660D01*
X519640D02*
X519690D01*
X548790D02*
X548840D01*
X519640Y392160D02*
Y439660D01*
X189440Y285480D02*
X189490D01*
X218590D02*
X218640D01*
Y332980D01*
X189440D02*
X189490D01*
X218590D02*
X218640D01*
X189440Y285480D02*
Y332980D01*
X354540Y285480D02*
X354590D01*
X383690D02*
X383740D01*
Y332980D01*
X354540D02*
X354590D01*
X383690D02*
X383740D01*
X354540Y285480D02*
Y332980D01*
X519640Y285480D02*
X519690D01*
X548790D02*
X548840D01*
Y332980D01*
X519640D02*
X519690D01*
X548790D02*
X548840D01*
X519640Y285480D02*
Y332980D01*
X189440Y178800D02*
X189490D01*
X218590D02*
X218640D01*
Y226300D01*
X189440D02*
X189490D01*
X218590D02*
X218640D01*
X189440Y178800D02*
Y226300D01*
X354540Y178800D02*
X354590D01*
X383690D02*
X383740D01*
Y226300D01*
X354540D02*
X354590D01*
X383690D02*
X383740D01*
X354540Y178800D02*
Y226300D01*
X519640Y178800D02*
X519690D01*
X548790D02*
X548840D01*
Y226300D01*
X519640D02*
X519690D01*
X548790D02*
X548840D01*
X519640Y178800D02*
Y226300D01*
X454160Y1078080D02*
Y1084080D01*
X619260Y1078080D02*
Y1084080D01*
X289060Y971400D02*
Y977400D01*
X454160Y971400D02*
Y977400D01*
X619260Y971400D02*
Y977400D01*
X289060Y864720D02*
Y870720D01*
X454160Y864720D02*
Y870720D01*
X619260Y864720D02*
Y870720D01*
X289060Y758040D02*
Y764040D01*
X454160Y758040D02*
Y764040D01*
X619260Y758040D02*
Y764040D01*
X289060Y651360D02*
Y657360D01*
X454160Y651360D02*
Y657360D01*
X619260Y651360D02*
Y657360D01*
X288100Y543720D02*
Y549720D01*
X453200Y543720D02*
Y549720D01*
X618300Y543720D02*
Y549720D01*
X288100Y437040D02*
Y443040D01*
X453200Y437040D02*
Y443040D01*
X618300Y437040D02*
Y443040D01*
X288100Y330360D02*
Y336360D01*
X453200Y330360D02*
Y336360D01*
X618300Y330360D02*
Y336360D01*
X288100Y223680D02*
Y229680D01*
X453200Y223680D02*
Y229680D01*
X618300Y223680D02*
Y229680D01*
X515910Y1078080D02*
Y1084080D01*
X681010Y1078080D02*
Y1084080D01*
X350810Y971400D02*
Y977400D01*
X515910Y971400D02*
Y977400D01*
X681010Y971400D02*
Y977400D01*
X350810Y864720D02*
Y870720D01*
X515910Y864720D02*
Y870720D01*
X681010Y864720D02*
Y870720D01*
X350810Y758040D02*
Y764040D01*
X515910Y758040D02*
Y764040D01*
X681010Y758040D02*
Y764040D01*
X350810Y651360D02*
Y657360D01*
X515910Y651360D02*
Y657360D01*
X681010Y651360D02*
Y657360D01*
X349850Y543720D02*
Y549720D01*
X514950Y543720D02*
Y549720D01*
X680050Y543720D02*
Y549720D01*
X349850Y437040D02*
Y443040D01*
X514950Y437040D02*
Y443040D01*
X680050Y437040D02*
Y443040D01*
X349850Y330360D02*
Y336360D01*
X514950Y330360D02*
Y336360D01*
X680050Y330360D02*
Y336360D01*
X349850Y223680D02*
Y229680D01*
X514950Y223680D02*
Y229680D01*
X680050Y223680D02*
Y229680D01*
X255374Y1489020D02*
Y1489070D01*
Y1459870D02*
Y1459920D01*
Y1459870D02*
X302874D01*
Y1489020D02*
Y1489070D01*
Y1459870D02*
Y1459920D01*
X255374Y1489070D02*
X302874D01*
X196478Y1401840D02*
X202478D01*
X227223Y1184760D02*
Y1195760D01*
X243223Y1184760D02*
Y1195760D01*
X741274Y1219970D02*
Y1220970D01*
X748274Y1219970D02*
Y1220970D01*
X741274Y1250450D02*
Y1251450D01*
X748274Y1250450D02*
Y1251450D01*
X400080Y1071230D02*
X401080D01*
X400080Y1078230D02*
X401080D01*
X565180Y1071230D02*
X566180D01*
X565180Y1078230D02*
X566180D01*
X234980Y964550D02*
X235980D01*
X234980Y971550D02*
X235980D01*
X400080Y964550D02*
X401080D01*
X400080Y971550D02*
X401080D01*
X565180Y964550D02*
X566180D01*
X565180Y971550D02*
X566180D01*
X234980Y857870D02*
X235980D01*
X234980Y864870D02*
X235980D01*
X400080Y857870D02*
X401080D01*
X400080Y864870D02*
X401080D01*
X565180Y857870D02*
X566180D01*
X565180Y864870D02*
X566180D01*
X234980Y751190D02*
X235980D01*
X234980Y758190D02*
X235980D01*
X400080Y751190D02*
X401080D01*
X400080Y758190D02*
X401080D01*
X565180Y751190D02*
X566180D01*
X565180Y758190D02*
X566180D01*
X234980Y644510D02*
X235980D01*
X234980Y651510D02*
X235980D01*
X400080Y644510D02*
X401080D01*
X400080Y651510D02*
X401080D01*
X565180Y644510D02*
X566180D01*
X565180Y651510D02*
X566180D01*
X234020Y536870D02*
X235020D01*
X234020Y543870D02*
X235020D01*
X399120Y536870D02*
X400120D01*
X399120Y543870D02*
X400120D01*
X564220Y536870D02*
X565220D01*
X564220Y543870D02*
X565220D01*
X234020Y430190D02*
X235020D01*
X234020Y437190D02*
X235020D01*
X399120Y430190D02*
X400120D01*
X399120Y437190D02*
X400120D01*
X564220Y430190D02*
X565220D01*
X564220Y437190D02*
X565220D01*
X234020Y323510D02*
X235020D01*
X234020Y330510D02*
X235020D01*
X399120Y323510D02*
X400120D01*
X399120Y330510D02*
X400120D01*
X564220Y323510D02*
X565220D01*
X564220Y330510D02*
X565220D01*
X234020Y216830D02*
X235020D01*
X234020Y223830D02*
X235020D01*
X399120Y216830D02*
X400120D01*
X399120Y223830D02*
X400120D01*
X564220Y216830D02*
X565220D01*
X564220Y223830D02*
X565220D01*
D13*
X385699Y1619264D02*
X378927D01*
X323803Y1556113D02*
Y1549341D01*
X327189Y1552727D02*
X320417D01*
X524636Y1620026D02*
X517865D01*
X448506Y1621934D02*
Y1615163D01*
X451892Y1618549D02*
X445121D01*
X668216Y1621934D02*
Y1615163D01*
X671602Y1618549D02*
X664831D01*
X777084Y171207D02*
Y155972D01*
X784701D01*
X787241Y158511D01*
Y161050D01*
X784701Y163589D01*
X777084D01*
X784701D01*
X787241Y166129D01*
Y168668D01*
X784701Y171207D01*
X777084D01*
Y729750D02*
Y739907D01*
X782162Y744985D01*
X787241Y739907D01*
Y729750D01*
Y737367D01*
X777084D01*
X744346Y1620026D02*
X737575D01*
X32220Y1616516D02*
X38991D01*
X32220Y1582950D02*
X38991D01*
X35605Y1586336D02*
Y1579565D01*
X32221Y54538D02*
X38993D01*
X32221Y20972D02*
X38993D01*
X35607Y24358D02*
Y17586D01*
X32220Y112538D02*
X38991D01*
X32220Y78972D02*
X38991D01*
X35605Y82358D02*
Y75586D01*
X32220Y163338D02*
X38991D01*
X32220Y129772D02*
X38991D01*
X35605Y133158D02*
Y126386D01*
X32220Y214138D02*
X38991D01*
X32220Y180572D02*
X38991D01*
X35605Y183958D02*
Y177186D01*
X32220Y264938D02*
X38991D01*
X32220Y231372D02*
X38991D01*
X35605Y234758D02*
Y227986D01*
X32220Y315738D02*
X38991D01*
X32220Y282172D02*
X38991D01*
X35605Y285558D02*
Y278786D01*
X32220Y366538D02*
X38991D01*
X32220Y332972D02*
X38991D01*
X35605Y336358D02*
Y329586D01*
X32246Y425038D02*
X39017D01*
X32246Y391472D02*
X39017D01*
X35631Y394858D02*
Y388086D01*
X32246Y475838D02*
X39017D01*
X32246Y442272D02*
X39017D01*
X35631Y445658D02*
Y438886D01*
X32246Y526638D02*
X39017D01*
X32246Y493072D02*
X39017D01*
X35631Y496458D02*
Y489686D01*
X32246Y577438D02*
X39017D01*
X32246Y543872D02*
X39017D01*
X35631Y547258D02*
Y540486D01*
X32246Y628238D02*
X39017D01*
X32246Y594672D02*
X39017D01*
X35631Y598058D02*
Y591286D01*
X32246Y679038D02*
X39017D01*
X32246Y645472D02*
X39017D01*
X35631Y648858D02*
Y642086D01*
X32220Y737288D02*
X38991D01*
X32220Y703722D02*
X38991D01*
X35605Y707108D02*
Y700336D01*
X32220Y788088D02*
X38991D01*
X32220Y754522D02*
X38991D01*
X35605Y757908D02*
Y751136D01*
X32220Y838888D02*
X38991D01*
X32220Y805322D02*
X38991D01*
X35605Y808708D02*
Y801936D01*
X32220Y889688D02*
X38991D01*
X32220Y856122D02*
X38991D01*
X35605Y859508D02*
Y852736D01*
X32220Y940488D02*
X38991D01*
X32220Y906922D02*
X38991D01*
X35605Y910308D02*
Y903536D01*
X32220Y991288D02*
X38991D01*
X32220Y957722D02*
X38991D01*
X35605Y961108D02*
Y954336D01*
X32220Y1050288D02*
X38991D01*
X32220Y1016722D02*
X38991D01*
X35605Y1020108D02*
Y1013336D01*
X32220Y1101088D02*
X38991D01*
X32220Y1067522D02*
X38991D01*
X35605Y1070908D02*
Y1064136D01*
X32220Y1202688D02*
X38991D01*
X32220Y1169122D02*
X38991D01*
X35605Y1172508D02*
Y1165736D01*
X32220Y1253488D02*
X38991D01*
X32220Y1219922D02*
X38991D01*
X35605Y1223308D02*
Y1216536D01*
X32220Y1304288D02*
X38991D01*
X32220Y1270722D02*
X38991D01*
X35605Y1274108D02*
Y1267336D01*
X32220Y1362516D02*
X38991D01*
X32220Y1328950D02*
X38991D01*
X35605Y1332336D02*
Y1325565D01*
X32220Y1413316D02*
X38991D01*
X32220Y1379750D02*
X38991D01*
X35605Y1383136D02*
Y1376365D01*
X32220Y1464116D02*
X38991D01*
X32220Y1430550D02*
X38991D01*
X35605Y1433936D02*
Y1427165D01*
X32220Y1514916D02*
X38991D01*
X32220Y1481350D02*
X38991D01*
X35605Y1484736D02*
Y1477965D01*
X32220Y1565716D02*
X38991D01*
X32220Y1532150D02*
X38991D01*
X35605Y1535536D02*
Y1528765D01*
X32220Y1118322D02*
X38991D01*
X35605Y1121708D02*
Y1114936D01*
X32220Y1151888D02*
X38991D01*
X14311Y1350839D02*
X11771Y1353379D01*
X6693D01*
X4154Y1350839D01*
Y1348300D01*
X6693Y1345761D01*
X11771D01*
X14311Y1343222D01*
Y1340683D01*
X11771Y1338143D01*
X6693D01*
X4154Y1340683D01*
X29546Y1338143D02*
X19389D01*
X29546Y1348300D01*
Y1350839D01*
X27006Y1353379D01*
X21928D01*
X19389Y1350839D01*
X44781Y1353379D02*
X39702Y1350839D01*
X34624Y1345761D01*
Y1340683D01*
X37163Y1338143D01*
X42242D01*
X44781Y1340683D01*
Y1343222D01*
X42242Y1345761D01*
X34624D01*
X831089Y1287219D02*
X824318D01*
Y1282141D01*
X827704Y1283833D01*
X829397D01*
X831089Y1282141D01*
Y1278755D01*
X829397Y1277062D01*
X826011D01*
X824318Y1278755D01*
X834475Y1287219D02*
Y1280448D01*
X837860Y1277062D01*
X841246Y1280448D01*
Y1287219D01*
X824320Y1309447D02*
Y1302675D01*
X827705Y1299290D01*
X831091Y1302675D01*
Y1309447D01*
X834477Y1299290D02*
X837862D01*
X836169D01*
Y1309447D01*
X834477Y1307754D01*
X824320Y1331415D02*
Y1324644D01*
X827705Y1321258D01*
X831091Y1324644D01*
Y1331415D01*
X841248Y1321258D02*
X834477D01*
X841248Y1328029D01*
Y1329722D01*
X839555Y1331415D01*
X836169D01*
X834477Y1329722D01*
X839648Y745843D02*
Y752614D01*
X846419Y745843D01*
X848112D01*
X849805Y747536D01*
Y750921D01*
X848112Y752614D01*
X814648Y750614D02*
Y747228D01*
Y748921D01*
X824805D01*
X823112Y750614D01*
X847858Y1200042D02*
X849551Y1198349D01*
Y1194964D01*
X847858Y1193271D01*
X846165D01*
X844472Y1194964D01*
Y1196656D01*
Y1194964D01*
X842779Y1193271D01*
X841087D01*
X839394Y1194964D01*
Y1198349D01*
X841087Y1200042D01*
X839394Y1184807D02*
X849551D01*
X844472Y1189885D01*
Y1183114D01*
X822858Y1200042D02*
X824551Y1198349D01*
Y1194964D01*
X822858Y1193271D01*
X821165D01*
X819472Y1194964D01*
Y1196656D01*
Y1194964D01*
X817779Y1193271D01*
X816087D01*
X814394Y1194964D01*
Y1198349D01*
X816087Y1200042D01*
X822858Y1189885D02*
X824551Y1188192D01*
Y1184807D01*
X822858Y1183114D01*
X821165D01*
X819472Y1184807D01*
Y1186500D01*
Y1184807D01*
X817779Y1183114D01*
X816087D01*
X814394Y1184807D01*
Y1188192D01*
X816087Y1189885D01*
X839394Y171795D02*
Y178566D01*
X846165Y171795D01*
X847858D01*
X849551Y173487D01*
Y176873D01*
X847858Y178566D01*
X814394Y176566D02*
Y173180D01*
Y174873D01*
X824551D01*
X822858Y176566D01*
X847604Y625994D02*
X849297Y624301D01*
Y620915D01*
X847604Y619223D01*
X845911D01*
X844218Y620915D01*
Y622608D01*
Y620915D01*
X842525Y619223D01*
X840833D01*
X839140Y620915D01*
Y624301D01*
X840833Y625994D01*
X839140Y610759D02*
X849297D01*
X844218Y615837D01*
Y609066D01*
X822604Y625994D02*
X824297Y624301D01*
Y620915D01*
X822604Y619223D01*
X820911D01*
X819218Y620915D01*
Y622608D01*
Y620915D01*
X817525Y619223D01*
X815833D01*
X814140Y620915D01*
Y624301D01*
X815833Y625994D01*
X822604Y615837D02*
X824297Y614144D01*
Y610759D01*
X822604Y609066D01*
X820911D01*
X819218Y610759D01*
Y612452D01*
Y610759D01*
X817525Y609066D01*
X815833D01*
X814140Y610759D01*
Y614144D01*
X815833Y615837D01*
X439250Y1332992D02*
Y1348227D01*
X446867D01*
X449407Y1345688D01*
Y1340609D01*
X446867Y1338070D01*
X439250D01*
X462103Y1332992D02*
Y1348227D01*
X454485Y1340609D01*
X464642D01*
X640932Y1282446D02*
Y1297681D01*
X648549D01*
X651089Y1295142D01*
Y1290063D01*
X648549Y1287524D01*
X640932D01*
X666324Y1297681D02*
X656167D01*
Y1290063D01*
X661245Y1292603D01*
X663784D01*
X666324Y1290063D01*
Y1284985D01*
X663784Y1282446D01*
X658706D01*
X656167Y1284985D01*
X599784Y1203198D02*
Y1218433D01*
X607401D01*
X609941Y1215894D01*
Y1210816D01*
X607401Y1208276D01*
X599784D01*
X615019Y1215894D02*
X617558Y1218433D01*
X622636D01*
X625176Y1215894D01*
Y1213355D01*
X622636Y1210816D01*
X620097D01*
X622636D01*
X625176Y1208276D01*
Y1205737D01*
X622636Y1203198D01*
X617558D01*
X615019Y1205737D01*
X391548Y1202578D02*
Y1217813D01*
X399166D01*
X401705Y1215274D01*
Y1210195D01*
X399166Y1207656D01*
X391548D01*
X416940Y1202578D02*
X406783D01*
X416940Y1212735D01*
Y1215274D01*
X414401Y1217813D01*
X409322D01*
X406783Y1215274D01*
X231384Y1307734D02*
Y1322969D01*
X236463Y1317891D01*
X241541Y1322969D01*
Y1307734D01*
X246619Y1322969D02*
X256776D01*
X251698D01*
Y1307734D01*
X261854D02*
Y1322969D01*
X269472D01*
X272011Y1320430D01*
Y1315352D01*
X269472Y1312812D01*
X261854D01*
X266933D02*
X272011Y1307734D01*
X221114Y985662D02*
Y1000897D01*
X228732D01*
X231271Y998358D01*
Y993279D01*
X228732Y990740D01*
X221114D01*
X236349Y985662D02*
X241427D01*
X238888D01*
Y1000897D01*
X236349Y998358D01*
X583215Y999209D02*
X580675Y1001749D01*
X575597D01*
X573058Y999209D01*
Y996670D01*
X575597Y994131D01*
X580675D01*
X583215Y991592D01*
Y989053D01*
X580675Y986514D01*
X575597D01*
X573058Y989053D01*
X598450Y986514D02*
X588293D01*
X598450Y996670D01*
Y999209D01*
X595910Y1001749D01*
X590832D01*
X588293Y999209D01*
X613685Y1001749D02*
X603528D01*
Y994131D01*
X608606Y996670D01*
X611146D01*
X613685Y994131D01*
Y989053D01*
X611146Y986514D01*
X606067D01*
X603528Y989053D01*
X416337Y999176D02*
X413797Y1001715D01*
X408719D01*
X406180Y999176D01*
Y996637D01*
X408719Y994098D01*
X413797D01*
X416337Y991558D01*
Y989019D01*
X413797Y986480D01*
X408719D01*
X406180Y989019D01*
X431572Y986480D02*
X421415D01*
X431572Y996637D01*
Y999176D01*
X429033Y1001715D01*
X423954D01*
X421415Y999176D01*
X446807Y1001715D02*
X441728Y999176D01*
X436650Y994098D01*
Y989019D01*
X439189Y986480D01*
X444268D01*
X446807Y989019D01*
Y991558D01*
X444268Y994098D01*
X436650D01*
X250983Y891734D02*
X248443Y894273D01*
X243365D01*
X240826Y891734D01*
Y889195D01*
X243365Y886656D01*
X248443D01*
X250983Y884116D01*
Y881577D01*
X248443Y879038D01*
X243365D01*
X240826Y881577D01*
X266218Y879038D02*
X256061D01*
X266218Y889195D01*
Y891734D01*
X263678Y894273D01*
X258600D01*
X256061Y891734D01*
X278913Y879038D02*
Y894273D01*
X271296Y886656D01*
X281453D01*
X416337Y892496D02*
X413797Y895035D01*
X408719D01*
X406180Y892496D01*
Y889957D01*
X408719Y887418D01*
X413797D01*
X416337Y884878D01*
Y882339D01*
X413797Y879800D01*
X408719D01*
X406180Y882339D01*
X431572Y879800D02*
X421415D01*
X431572Y889957D01*
Y892496D01*
X429033Y895035D01*
X423954D01*
X421415Y892496D01*
X436650D02*
X439189Y895035D01*
X444268D01*
X446807Y892496D01*
Y889957D01*
X444268Y887418D01*
X441728D01*
X444268D01*
X446807Y884878D01*
Y882339D01*
X444268Y879800D01*
X439189D01*
X436650Y882339D01*
X583215Y892529D02*
X580675Y895069D01*
X575597D01*
X573058Y892529D01*
Y889990D01*
X575597Y887451D01*
X580675D01*
X583215Y884912D01*
Y882373D01*
X580675Y879834D01*
X575597D01*
X573058Y882373D01*
X598450Y879834D02*
X588293D01*
X598450Y889990D01*
Y892529D01*
X595910Y895069D01*
X590832D01*
X588293Y892529D01*
X613685Y879834D02*
X603528D01*
X613685Y889990D01*
Y892529D01*
X611146Y895069D01*
X606067D01*
X603528Y892529D01*
X250983Y785054D02*
X248443Y787593D01*
X243365D01*
X240826Y785054D01*
Y782515D01*
X243365Y779976D01*
X248443D01*
X250983Y777436D01*
Y774897D01*
X248443Y772358D01*
X243365D01*
X240826Y774897D01*
X266218Y772358D02*
X256061D01*
X266218Y782515D01*
Y785054D01*
X263678Y787593D01*
X258600D01*
X256061Y785054D01*
X271296Y772358D02*
X276374D01*
X273835D01*
Y787593D01*
X271296Y785054D01*
X416337Y785816D02*
X413797Y788355D01*
X408719D01*
X406180Y785816D01*
Y783277D01*
X408719Y780738D01*
X413797D01*
X416337Y778198D01*
Y775659D01*
X413797Y773120D01*
X408719D01*
X406180Y775659D01*
X431572Y773120D02*
X421415D01*
X431572Y783277D01*
Y785816D01*
X429033Y788355D01*
X423954D01*
X421415Y785816D01*
X436650D02*
X439189Y788355D01*
X444268D01*
X446807Y785816D01*
Y775659D01*
X444268Y773120D01*
X439189D01*
X436650Y775659D01*
Y785816D01*
X583215Y785849D02*
X580675Y788389D01*
X575597D01*
X573058Y785849D01*
Y783310D01*
X575597Y780771D01*
X580675D01*
X583215Y778232D01*
Y775693D01*
X580675Y773154D01*
X575597D01*
X573058Y775693D01*
X588293Y773154D02*
X593371D01*
X590832D01*
Y788389D01*
X588293Y785849D01*
X600989Y775693D02*
X603528Y773154D01*
X608606D01*
X611146Y775693D01*
Y785849D01*
X608606Y788389D01*
X603528D01*
X600989Y785849D01*
Y783310D01*
X603528Y780771D01*
X611146D01*
X250983Y678374D02*
X248443Y680913D01*
X243365D01*
X240826Y678374D01*
Y675835D01*
X243365Y673296D01*
X248443D01*
X250983Y670756D01*
Y668217D01*
X248443Y665678D01*
X243365D01*
X240826Y668217D01*
X256061Y665678D02*
X261139D01*
X258600D01*
Y680913D01*
X256061Y678374D01*
X268757D02*
X271296Y680913D01*
X276374D01*
X278913Y678374D01*
Y675835D01*
X276374Y673296D01*
X278913Y670756D01*
Y668217D01*
X276374Y665678D01*
X271296D01*
X268757Y668217D01*
Y670756D01*
X271296Y673296D01*
X268757Y675835D01*
Y678374D01*
X271296Y673296D02*
X276374D01*
X416337Y679136D02*
X413797Y681675D01*
X408719D01*
X406180Y679136D01*
Y676597D01*
X408719Y674057D01*
X413797D01*
X416337Y671518D01*
Y668979D01*
X413797Y666440D01*
X408719D01*
X406180Y668979D01*
X421415Y666440D02*
X426493D01*
X423954D01*
Y681675D01*
X421415Y679136D01*
X434111Y681675D02*
X444268D01*
Y679136D01*
X434111Y668979D01*
Y666440D01*
X583215Y679169D02*
X580675Y681709D01*
X575597D01*
X573058Y679169D01*
Y676630D01*
X575597Y674091D01*
X580675D01*
X583215Y671552D01*
Y669013D01*
X580675Y666473D01*
X575597D01*
X573058Y669013D01*
X588293Y666473D02*
X593371D01*
X590832D01*
Y681709D01*
X588293Y679169D01*
X611146Y681709D02*
X606067Y679169D01*
X600989Y674091D01*
Y669013D01*
X603528Y666473D01*
X608606D01*
X611146Y669013D01*
Y671552D01*
X608606Y674091D01*
X600989D01*
X250983Y571694D02*
X248443Y574233D01*
X243365D01*
X240826Y571694D01*
Y569155D01*
X243365Y566615D01*
X248443D01*
X250983Y564076D01*
Y561537D01*
X248443Y558998D01*
X243365D01*
X240826Y561537D01*
X256061Y558998D02*
X261139D01*
X258600D01*
Y574233D01*
X256061Y571694D01*
X278913Y574233D02*
X268757D01*
Y566615D01*
X273835Y569155D01*
X276374D01*
X278913Y566615D01*
Y561537D01*
X276374Y558998D01*
X271296D01*
X268757Y561537D01*
X416337Y572456D02*
X413797Y574995D01*
X408719D01*
X406180Y572456D01*
Y569917D01*
X408719Y567378D01*
X413797D01*
X416337Y564838D01*
Y562299D01*
X413797Y559760D01*
X408719D01*
X406180Y562299D01*
X421415Y559760D02*
X426493D01*
X423954D01*
Y574995D01*
X421415Y572456D01*
X441728Y559760D02*
Y574995D01*
X434111Y567378D01*
X444268D01*
X583215Y572489D02*
X580675Y575029D01*
X575597D01*
X573058Y572489D01*
Y569950D01*
X575597Y567411D01*
X580675D01*
X583215Y564872D01*
Y562333D01*
X580675Y559794D01*
X575597D01*
X573058Y562333D01*
X588293Y559794D02*
X593371D01*
X590832D01*
Y575029D01*
X588293Y572489D01*
X600989D02*
X603528Y575029D01*
X608606D01*
X611146Y572489D01*
Y569950D01*
X608606Y567411D01*
X606067D01*
X608606D01*
X611146Y564872D01*
Y562333D01*
X608606Y559794D01*
X603528D01*
X600989Y562333D01*
X250023Y464054D02*
X247483Y466593D01*
X242405D01*
X239866Y464054D01*
Y461515D01*
X242405Y458975D01*
X247483D01*
X250023Y456436D01*
Y453897D01*
X247483Y451358D01*
X242405D01*
X239866Y453897D01*
X255101Y451358D02*
X260179D01*
X257640D01*
Y466593D01*
X255101Y464054D01*
X277953Y451358D02*
X267797D01*
X277953Y461515D01*
Y464054D01*
X275414Y466593D01*
X270336D01*
X267797Y464054D01*
X415377Y464816D02*
X412837Y467355D01*
X407759D01*
X405220Y464816D01*
Y462277D01*
X407759Y459738D01*
X412837D01*
X415377Y457198D01*
Y454659D01*
X412837Y452120D01*
X407759D01*
X405220Y454659D01*
X420455Y452120D02*
X425533D01*
X422994D01*
Y467355D01*
X420455Y464816D01*
X433151Y452120D02*
X438229D01*
X435690D01*
Y467355D01*
X433151Y464816D01*
X582255Y464849D02*
X579715Y467389D01*
X574637D01*
X572098Y464849D01*
Y462310D01*
X574637Y459771D01*
X579715D01*
X582255Y457232D01*
Y454693D01*
X579715Y452154D01*
X574637D01*
X572098Y454693D01*
X587333Y452154D02*
X592411D01*
X589872D01*
Y467389D01*
X587333Y464849D01*
X600029D02*
X602568Y467389D01*
X607646D01*
X610186Y464849D01*
Y454693D01*
X607646Y452154D01*
X602568D01*
X600029Y454693D01*
Y464849D01*
X250023Y357374D02*
X247483Y359913D01*
X242405D01*
X239866Y357374D01*
Y354835D01*
X242405Y352295D01*
X247483D01*
X250023Y349756D01*
Y347217D01*
X247483Y344678D01*
X242405D01*
X239866Y347217D01*
X255101Y357374D02*
X257640Y359913D01*
X262719D01*
X265258Y357374D01*
Y347217D01*
X262719Y344678D01*
X257640D01*
X255101Y347217D01*
Y357374D01*
X270336Y347217D02*
X272875Y344678D01*
X277953D01*
X280493Y347217D01*
Y357374D01*
X277953Y359913D01*
X272875D01*
X270336Y357374D01*
Y354835D01*
X272875Y352295D01*
X280493D01*
X415377Y358136D02*
X412837Y360675D01*
X407759D01*
X405220Y358136D01*
Y355597D01*
X407759Y353058D01*
X412837D01*
X415377Y350518D01*
Y347979D01*
X412837Y345440D01*
X407759D01*
X405220Y347979D01*
X420455Y358136D02*
X422994Y360675D01*
X428073D01*
X430612Y358136D01*
Y347979D01*
X428073Y345440D01*
X422994D01*
X420455Y347979D01*
Y358136D01*
X435690D02*
X438229Y360675D01*
X443307D01*
X445847Y358136D01*
Y355597D01*
X443307Y353058D01*
X445847Y350518D01*
Y347979D01*
X443307Y345440D01*
X438229D01*
X435690Y347979D01*
Y350518D01*
X438229Y353058D01*
X435690Y355597D01*
Y358136D01*
X438229Y353058D02*
X443307D01*
X582255Y358169D02*
X579715Y360709D01*
X574637D01*
X572098Y358169D01*
Y355630D01*
X574637Y353091D01*
X579715D01*
X582255Y350552D01*
Y348013D01*
X579715Y345474D01*
X574637D01*
X572098Y348013D01*
X587333Y358169D02*
X589872Y360709D01*
X594950D01*
X597490Y358169D01*
Y348013D01*
X594950Y345474D01*
X589872D01*
X587333Y348013D01*
Y358169D01*
X602568Y360709D02*
X612725D01*
Y358169D01*
X602568Y348013D01*
Y345474D01*
X250023Y250694D02*
X247483Y253233D01*
X242405D01*
X239866Y250694D01*
Y248155D01*
X242405Y245616D01*
X247483D01*
X250023Y243076D01*
Y240537D01*
X247483Y237998D01*
X242405D01*
X239866Y240537D01*
X255101Y250694D02*
X257640Y253233D01*
X262719D01*
X265258Y250694D01*
Y240537D01*
X262719Y237998D01*
X257640D01*
X255101Y240537D01*
Y250694D01*
X280493Y253233D02*
X275414Y250694D01*
X270336Y245616D01*
Y240537D01*
X272875Y237998D01*
X277953D01*
X280493Y240537D01*
Y243076D01*
X277953Y245616D01*
X270336D01*
X415377Y251456D02*
X412837Y253995D01*
X407759D01*
X405220Y251456D01*
Y248917D01*
X407759Y246378D01*
X412837D01*
X415377Y243838D01*
Y241299D01*
X412837Y238760D01*
X407759D01*
X405220Y241299D01*
X420455Y251456D02*
X422994Y253995D01*
X428073D01*
X430612Y251456D01*
Y241299D01*
X428073Y238760D01*
X422994D01*
X420455Y241299D01*
Y251456D01*
X445847Y253995D02*
X435690D01*
Y246378D01*
X440768Y248917D01*
X443307D01*
X445847Y246378D01*
Y241299D01*
X443307Y238760D01*
X438229D01*
X435690Y241299D01*
X582255Y251489D02*
X579715Y254029D01*
X574637D01*
X572098Y251489D01*
Y248950D01*
X574637Y246411D01*
X579715D01*
X582255Y243872D01*
Y241333D01*
X579715Y238794D01*
X574637D01*
X572098Y241333D01*
X587333Y251489D02*
X589872Y254029D01*
X594950D01*
X597490Y251489D01*
Y241333D01*
X594950Y238794D01*
X589872D01*
X587333Y241333D01*
Y251489D01*
X610186Y238794D02*
Y254029D01*
X602568Y246411D01*
X612725D01*
X582255Y144809D02*
X579715Y147349D01*
X574637D01*
X572098Y144809D01*
Y142270D01*
X574637Y139731D01*
X579715D01*
X582255Y137192D01*
Y134653D01*
X579715Y132114D01*
X574637D01*
X572098Y134653D01*
X587333Y144809D02*
X589872Y147349D01*
X594950D01*
X597490Y144809D01*
Y134653D01*
X594950Y132114D01*
X589872D01*
X587333Y134653D01*
Y144809D01*
X602568Y132114D02*
X607646D01*
X605107D01*
Y147349D01*
X602568Y144809D01*
X415377Y144776D02*
X412837Y147315D01*
X407759D01*
X405220Y144776D01*
Y142237D01*
X407759Y139698D01*
X412837D01*
X415377Y137158D01*
Y134619D01*
X412837Y132080D01*
X407759D01*
X405220Y134619D01*
X420455Y144776D02*
X422994Y147315D01*
X428073D01*
X430612Y144776D01*
Y134619D01*
X428073Y132080D01*
X422994D01*
X420455Y134619D01*
Y144776D01*
X445847Y132080D02*
X435690D01*
X445847Y142237D01*
Y144776D01*
X443307Y147315D01*
X438229D01*
X435690Y144776D01*
X250023Y144014D02*
X247483Y146553D01*
X242405D01*
X239866Y144014D01*
Y141475D01*
X242405Y138935D01*
X247483D01*
X250023Y136396D01*
Y133857D01*
X247483Y131318D01*
X242405D01*
X239866Y133857D01*
X255101Y144014D02*
X257640Y146553D01*
X262719D01*
X265258Y144014D01*
Y133857D01*
X262719Y131318D01*
X257640D01*
X255101Y133857D01*
Y144014D01*
X270336D02*
X272875Y146553D01*
X277953D01*
X280493Y144014D01*
Y141475D01*
X277953Y138935D01*
X275414D01*
X277953D01*
X280493Y136396D01*
Y133857D01*
X277953Y131318D01*
X272875D01*
X270336Y133857D01*
X622390Y106934D02*
Y117091D01*
X627468Y122169D01*
X632547Y117091D01*
Y106934D01*
Y114551D01*
X622390D01*
X637625Y122169D02*
X642703D01*
X640164D01*
Y106934D01*
X637625D01*
X642703D01*
X650321D02*
X655399D01*
X652860D01*
Y122169D01*
X650321Y119630D01*
X558890Y106934D02*
Y117091D01*
X563968Y122169D01*
X569047Y117091D01*
Y106934D01*
Y114551D01*
X558890D01*
X574125Y122169D02*
X579203D01*
X576664D01*
Y106934D01*
X574125D01*
X579203D01*
X596978D02*
X586821D01*
X596978Y117091D01*
Y119630D01*
X594438Y122169D01*
X589360D01*
X586821Y119630D01*
X495390Y106934D02*
Y117091D01*
X500468Y122169D01*
X505547Y117091D01*
Y106934D01*
Y114551D01*
X495390D01*
X510625Y122169D02*
X515703D01*
X513164D01*
Y106934D01*
X510625D01*
X515703D01*
X523321Y119630D02*
X525860Y122169D01*
X530938D01*
X533478Y119630D01*
Y117091D01*
X530938Y114551D01*
X528399D01*
X530938D01*
X533478Y112012D01*
Y109473D01*
X530938Y106934D01*
X525860D01*
X523321Y109473D01*
X431890Y106934D02*
Y117091D01*
X436968Y122169D01*
X442047Y117091D01*
Y106934D01*
Y114551D01*
X431890D01*
X447125Y122169D02*
X452203D01*
X449664D01*
Y106934D01*
X447125D01*
X452203D01*
X467438D02*
Y122169D01*
X459821Y114551D01*
X469977D01*
X368390Y106934D02*
Y117091D01*
X373468Y122169D01*
X378547Y117091D01*
Y106934D01*
Y114551D01*
X368390D01*
X383625Y122169D02*
X388703D01*
X386164D01*
Y106934D01*
X383625D01*
X388703D01*
X406478Y122169D02*
X396321D01*
Y114551D01*
X401399Y117091D01*
X403938D01*
X406478Y114551D01*
Y109473D01*
X403938Y106934D01*
X398860D01*
X396321Y109473D01*
X304890Y106934D02*
Y117091D01*
X309968Y122169D01*
X315047Y117091D01*
Y106934D01*
Y114551D01*
X304890D01*
X320125Y122169D02*
X325203D01*
X322664D01*
Y106934D01*
X320125D01*
X325203D01*
X342977Y122169D02*
X337899Y119630D01*
X332821Y114551D01*
Y109473D01*
X335360Y106934D01*
X340438D01*
X342977Y109473D01*
Y112012D01*
X340438Y114551D01*
X332821D01*
X241390Y106934D02*
Y117091D01*
X246468Y122169D01*
X251547Y117091D01*
Y106934D01*
Y114551D01*
X241390D01*
X256625Y122169D02*
X261703D01*
X259164D01*
Y106934D01*
X256625D01*
X261703D01*
X269321Y122169D02*
X279478D01*
Y119630D01*
X269321Y109473D01*
Y106934D01*
X177890D02*
Y117091D01*
X182968Y122169D01*
X188047Y117091D01*
Y106934D01*
Y114551D01*
X177890D01*
X193125Y122169D02*
X198203D01*
X195664D01*
Y106934D01*
X193125D01*
X198203D01*
X205821Y119630D02*
X208360Y122169D01*
X213438D01*
X215977Y119630D01*
Y117091D01*
X213438Y114551D01*
X215977Y112012D01*
Y109473D01*
X213438Y106934D01*
X208360D01*
X205821Y109473D01*
Y112012D01*
X208360Y114551D01*
X205821Y117091D01*
Y119630D01*
X208360Y114551D02*
X213438D01*
X462815Y1556582D02*
Y1544732D01*
X468740Y1538807D01*
X474665Y1544732D01*
Y1556582D01*
X492439Y1538807D02*
X480589D01*
X492439Y1550657D01*
Y1553619D01*
X489477Y1556582D01*
X483552D01*
X480589Y1553619D01*
X14312Y42861D02*
X11773Y45400D01*
X6695D01*
X4155Y42861D01*
Y40322D01*
X6695Y37783D01*
X11773D01*
X14312Y35244D01*
Y32705D01*
X11773Y30165D01*
X6695D01*
X4155Y32705D01*
X19390Y42861D02*
X21930Y45400D01*
X27008D01*
X29547Y42861D01*
Y32705D01*
X27008Y30165D01*
X21930D01*
X19390Y32705D01*
Y42861D01*
X34625Y30165D02*
X39704D01*
X37165D01*
Y45400D01*
X34625Y42861D01*
X14311Y354861D02*
X11771Y357400D01*
X6693D01*
X4154Y354861D01*
Y352322D01*
X6693Y349783D01*
X11771D01*
X14311Y347244D01*
Y344705D01*
X11771Y342165D01*
X6693D01*
X4154Y344705D01*
X19389Y354861D02*
X21928Y357400D01*
X27006D01*
X29546Y354861D01*
Y344705D01*
X27006Y342165D01*
X21928D01*
X19389Y344705D01*
Y354861D01*
X34624Y357400D02*
X44781D01*
Y354861D01*
X34624Y344705D01*
Y342165D01*
X14311Y304061D02*
X11771Y306600D01*
X6693D01*
X4154Y304061D01*
Y301522D01*
X6693Y298983D01*
X11771D01*
X14311Y296444D01*
Y293904D01*
X11771Y291365D01*
X6693D01*
X4154Y293904D01*
X19389Y304061D02*
X21928Y306600D01*
X27006D01*
X29546Y304061D01*
Y293904D01*
X27006Y291365D01*
X21928D01*
X19389Y293904D01*
Y304061D01*
X44781Y306600D02*
X39702Y304061D01*
X34624Y298983D01*
Y293904D01*
X37163Y291365D01*
X42242D01*
X44781Y293904D01*
Y296444D01*
X42242Y298983D01*
X34624D01*
X14311Y253261D02*
X11771Y255800D01*
X6693D01*
X4154Y253261D01*
Y250722D01*
X6693Y248183D01*
X11771D01*
X14311Y245644D01*
Y243104D01*
X11771Y240565D01*
X6693D01*
X4154Y243104D01*
X19389Y253261D02*
X21928Y255800D01*
X27006D01*
X29546Y253261D01*
Y243104D01*
X27006Y240565D01*
X21928D01*
X19389Y243104D01*
Y253261D01*
X44781Y255800D02*
X34624D01*
Y248183D01*
X39702Y250722D01*
X42242D01*
X44781Y248183D01*
Y243104D01*
X42242Y240565D01*
X37163D01*
X34624Y243104D01*
X14311Y202461D02*
X11771Y205000D01*
X6693D01*
X4154Y202461D01*
Y199922D01*
X6693Y197383D01*
X11771D01*
X14311Y194844D01*
Y192304D01*
X11771Y189765D01*
X6693D01*
X4154Y192304D01*
X19389Y202461D02*
X21928Y205000D01*
X27006D01*
X29546Y202461D01*
Y192304D01*
X27006Y189765D01*
X21928D01*
X19389Y192304D01*
Y202461D01*
X42242Y189765D02*
Y205000D01*
X34624Y197383D01*
X44781D01*
X14311Y151661D02*
X11771Y154200D01*
X6693D01*
X4154Y151661D01*
Y149122D01*
X6693Y146583D01*
X11771D01*
X14311Y144044D01*
Y141504D01*
X11771Y138965D01*
X6693D01*
X4154Y141504D01*
X19389Y151661D02*
X21928Y154200D01*
X27006D01*
X29546Y151661D01*
Y141504D01*
X27006Y138965D01*
X21928D01*
X19389Y141504D01*
Y151661D01*
X34624D02*
X37163Y154200D01*
X42242D01*
X44781Y151661D01*
Y149122D01*
X42242Y146583D01*
X39702D01*
X42242D01*
X44781Y144044D01*
Y141504D01*
X42242Y138965D01*
X37163D01*
X34624Y141504D01*
X14311Y100861D02*
X11771Y103400D01*
X6693D01*
X4154Y100861D01*
Y98322D01*
X6693Y95783D01*
X11771D01*
X14311Y93244D01*
Y90704D01*
X11771Y88165D01*
X6693D01*
X4154Y90704D01*
X19389Y100861D02*
X21928Y103400D01*
X27006D01*
X29546Y100861D01*
Y90704D01*
X27006Y88165D01*
X21928D01*
X19389Y90704D01*
Y100861D01*
X44781Y88165D02*
X34624D01*
X44781Y98322D01*
Y100861D01*
X42242Y103400D01*
X37163D01*
X34624Y100861D01*
X14337Y667361D02*
X11797Y669900D01*
X6719D01*
X4180Y667361D01*
Y664822D01*
X6719Y662283D01*
X11797D01*
X14337Y659744D01*
Y657205D01*
X11797Y654665D01*
X6719D01*
X4180Y657205D01*
X19415Y654665D02*
X24493D01*
X21954D01*
Y669900D01*
X19415Y667361D01*
X32111D02*
X34650Y669900D01*
X39728D01*
X42268Y667361D01*
Y664822D01*
X39728Y662283D01*
X37189D01*
X39728D01*
X42268Y659744D01*
Y657205D01*
X39728Y654665D01*
X34650D01*
X32111Y657205D01*
X14337Y616561D02*
X11797Y619100D01*
X6719D01*
X4180Y616561D01*
Y614022D01*
X6719Y611483D01*
X11797D01*
X14337Y608944D01*
Y606404D01*
X11797Y603865D01*
X6719D01*
X4180Y606404D01*
X19415Y603865D02*
X24493D01*
X21954D01*
Y619100D01*
X19415Y616561D01*
X42268Y603865D02*
X32111D01*
X42268Y614022D01*
Y616561D01*
X39728Y619100D01*
X34650D01*
X32111Y616561D01*
X14337Y565761D02*
X11797Y568300D01*
X6719D01*
X4180Y565761D01*
Y563222D01*
X6719Y560683D01*
X11797D01*
X14337Y558144D01*
Y555605D01*
X11797Y553065D01*
X6719D01*
X4180Y555605D01*
X19415Y553065D02*
X24493D01*
X21954D01*
Y568300D01*
X19415Y565761D01*
X32111Y553065D02*
X37189D01*
X34650D01*
Y568300D01*
X32111Y565761D01*
X14337Y514961D02*
X11797Y517500D01*
X6719D01*
X4180Y514961D01*
Y512422D01*
X6719Y509883D01*
X11797D01*
X14337Y507344D01*
Y504804D01*
X11797Y502265D01*
X6719D01*
X4180Y504804D01*
X19415Y502265D02*
X24493D01*
X21954D01*
Y517500D01*
X19415Y514961D01*
X32111D02*
X34650Y517500D01*
X39728D01*
X42268Y514961D01*
Y504804D01*
X39728Y502265D01*
X34650D01*
X32111Y504804D01*
Y514961D01*
X14337Y464161D02*
X11797Y466700D01*
X6719D01*
X4180Y464161D01*
Y461622D01*
X6719Y459083D01*
X11797D01*
X14337Y456544D01*
Y454005D01*
X11797Y451465D01*
X6719D01*
X4180Y454005D01*
X19415Y464161D02*
X21954Y466700D01*
X27032D01*
X29572Y464161D01*
Y454005D01*
X27032Y451465D01*
X21954D01*
X19415Y454005D01*
Y464161D01*
X34650Y454005D02*
X37189Y451465D01*
X42268D01*
X44807Y454005D01*
Y464161D01*
X42268Y466700D01*
X37189D01*
X34650Y464161D01*
Y461622D01*
X37189Y459083D01*
X44807D01*
X14337Y413361D02*
X11797Y415900D01*
X6719D01*
X4180Y413361D01*
Y410822D01*
X6719Y408283D01*
X11797D01*
X14337Y405744D01*
Y403204D01*
X11797Y400665D01*
X6719D01*
X4180Y403204D01*
X19415Y413361D02*
X21954Y415900D01*
X27032D01*
X29572Y413361D01*
Y403204D01*
X27032Y400665D01*
X21954D01*
X19415Y403204D01*
Y413361D01*
X34650D02*
X37189Y415900D01*
X42268D01*
X44807Y413361D01*
Y410822D01*
X42268Y408283D01*
X44807Y405744D01*
Y403204D01*
X42268Y400665D01*
X37189D01*
X34650Y403204D01*
Y405744D01*
X37189Y408283D01*
X34650Y410822D01*
Y413361D01*
X37189Y408283D02*
X42268D01*
X14311Y979611D02*
X11771Y982150D01*
X6693D01*
X4154Y979611D01*
Y977072D01*
X6693Y974533D01*
X11771D01*
X14311Y971994D01*
Y969454D01*
X11771Y966915D01*
X6693D01*
X4154Y969454D01*
X19389Y966915D02*
X24467D01*
X21928D01*
Y982150D01*
X19389Y979611D01*
X32085Y969454D02*
X34624Y966915D01*
X39702D01*
X42242Y969454D01*
Y979611D01*
X39702Y982150D01*
X34624D01*
X32085Y979611D01*
Y977072D01*
X34624Y974533D01*
X42242D01*
X14311Y928811D02*
X11771Y931350D01*
X6693D01*
X4154Y928811D01*
Y926272D01*
X6693Y923733D01*
X11771D01*
X14311Y921194D01*
Y918654D01*
X11771Y916115D01*
X6693D01*
X4154Y918654D01*
X19389Y916115D02*
X24467D01*
X21928D01*
Y931350D01*
X19389Y928811D01*
X32085D02*
X34624Y931350D01*
X39702D01*
X42242Y928811D01*
Y926272D01*
X39702Y923733D01*
X42242Y921194D01*
Y918654D01*
X39702Y916115D01*
X34624D01*
X32085Y918654D01*
Y921194D01*
X34624Y923733D01*
X32085Y926272D01*
Y928811D01*
X34624Y923733D02*
X39702D01*
X14311Y878011D02*
X11771Y880550D01*
X6693D01*
X4154Y878011D01*
Y875472D01*
X6693Y872933D01*
X11771D01*
X14311Y870394D01*
Y867855D01*
X11771Y865315D01*
X6693D01*
X4154Y867855D01*
X19389Y865315D02*
X24467D01*
X21928D01*
Y880550D01*
X19389Y878011D01*
X32085Y880550D02*
X42242D01*
Y878011D01*
X32085Y867855D01*
Y865315D01*
X14311Y827211D02*
X11771Y829750D01*
X6693D01*
X4154Y827211D01*
Y824672D01*
X6693Y822133D01*
X11771D01*
X14311Y819594D01*
Y817055D01*
X11771Y814515D01*
X6693D01*
X4154Y817055D01*
X19389Y814515D02*
X24467D01*
X21928D01*
Y829750D01*
X19389Y827211D01*
X42242Y829750D02*
X37163Y827211D01*
X32085Y822133D01*
Y817055D01*
X34624Y814515D01*
X39702D01*
X42242Y817055D01*
Y819594D01*
X39702Y822133D01*
X32085D01*
X14311Y776411D02*
X11771Y778950D01*
X6693D01*
X4154Y776411D01*
Y773872D01*
X6693Y771333D01*
X11771D01*
X14311Y768794D01*
Y766255D01*
X11771Y763715D01*
X6693D01*
X4154Y766255D01*
X19389Y763715D02*
X24467D01*
X21928D01*
Y778950D01*
X19389Y776411D01*
X42242Y778950D02*
X32085D01*
Y771333D01*
X37163Y773872D01*
X39702D01*
X42242Y771333D01*
Y766255D01*
X39702Y763715D01*
X34624D01*
X32085Y766255D01*
X14311Y725611D02*
X11771Y728150D01*
X6693D01*
X4154Y725611D01*
Y723072D01*
X6693Y720533D01*
X11771D01*
X14311Y717994D01*
Y715454D01*
X11771Y712915D01*
X6693D01*
X4154Y715454D01*
X19389Y712915D02*
X24467D01*
X21928D01*
Y728150D01*
X19389Y725611D01*
X39702Y712915D02*
Y728150D01*
X32085Y720533D01*
X42242D01*
X14311Y1038611D02*
X11771Y1041150D01*
X6693D01*
X4154Y1038611D01*
Y1036072D01*
X6693Y1033533D01*
X11771D01*
X14311Y1030994D01*
Y1028455D01*
X11771Y1025915D01*
X6693D01*
X4154Y1028455D01*
X29546Y1025915D02*
X19389D01*
X29546Y1036072D01*
Y1038611D01*
X27006Y1041150D01*
X21928D01*
X19389Y1038611D01*
X34624D02*
X37163Y1041150D01*
X42242D01*
X44781Y1038611D01*
Y1028455D01*
X42242Y1025915D01*
X37163D01*
X34624Y1028455D01*
Y1038611D01*
X14311Y1089411D02*
X11771Y1091950D01*
X6693D01*
X4154Y1089411D01*
Y1086872D01*
X6693Y1084333D01*
X11771D01*
X14311Y1081794D01*
Y1079255D01*
X11771Y1076715D01*
X6693D01*
X4154Y1079255D01*
X29546Y1076715D02*
X19389D01*
X29546Y1086872D01*
Y1089411D01*
X27006Y1091950D01*
X21928D01*
X19389Y1089411D01*
X34624Y1076715D02*
X39702D01*
X37163D01*
Y1091950D01*
X34624Y1089411D01*
X14311Y1140211D02*
X11771Y1142750D01*
X6693D01*
X4154Y1140211D01*
Y1137672D01*
X6693Y1135133D01*
X11771D01*
X14311Y1132594D01*
Y1130054D01*
X11771Y1127515D01*
X6693D01*
X4154Y1130054D01*
X29546Y1127515D02*
X19389D01*
X29546Y1137672D01*
Y1140211D01*
X27006Y1142750D01*
X21928D01*
X19389Y1140211D01*
X44781Y1127515D02*
X34624D01*
X44781Y1137672D01*
Y1140211D01*
X42242Y1142750D01*
X37163D01*
X34624Y1140211D01*
X14311Y1191011D02*
X11771Y1193550D01*
X6693D01*
X4154Y1191011D01*
Y1188472D01*
X6693Y1185933D01*
X11771D01*
X14311Y1183394D01*
Y1180854D01*
X11771Y1178315D01*
X6693D01*
X4154Y1180854D01*
X29546Y1178315D02*
X19389D01*
X29546Y1188472D01*
Y1191011D01*
X27006Y1193550D01*
X21928D01*
X19389Y1191011D01*
X34624D02*
X37163Y1193550D01*
X42242D01*
X44781Y1191011D01*
Y1188472D01*
X42242Y1185933D01*
X39702D01*
X42242D01*
X44781Y1183394D01*
Y1180854D01*
X42242Y1178315D01*
X37163D01*
X34624Y1180854D01*
X14311Y1241811D02*
X11771Y1244350D01*
X6693D01*
X4154Y1241811D01*
Y1239272D01*
X6693Y1236733D01*
X11771D01*
X14311Y1234194D01*
Y1231655D01*
X11771Y1229115D01*
X6693D01*
X4154Y1231655D01*
X29546Y1229115D02*
X19389D01*
X29546Y1239272D01*
Y1241811D01*
X27006Y1244350D01*
X21928D01*
X19389Y1241811D01*
X42242Y1229115D02*
Y1244350D01*
X34624Y1236733D01*
X44781D01*
X14311Y1292611D02*
X11771Y1295150D01*
X6693D01*
X4154Y1292611D01*
Y1290072D01*
X6693Y1287533D01*
X11771D01*
X14311Y1284994D01*
Y1282455D01*
X11771Y1279915D01*
X6693D01*
X4154Y1282455D01*
X29546Y1279915D02*
X19389D01*
X29546Y1290072D01*
Y1292611D01*
X27006Y1295150D01*
X21928D01*
X19389Y1292611D01*
X44781Y1295150D02*
X34624D01*
Y1287533D01*
X39702Y1290072D01*
X42242D01*
X44781Y1287533D01*
Y1282455D01*
X42242Y1279915D01*
X37163D01*
X34624Y1282455D01*
X4154Y1388943D02*
Y1404179D01*
X11771D01*
X14311Y1401639D01*
Y1396561D01*
X11771Y1394022D01*
X4154D01*
X19389Y1388943D02*
X24467D01*
X21928D01*
Y1404179D01*
X19389Y1401639D01*
X4154Y1439743D02*
Y1454979D01*
X11771D01*
X14311Y1452439D01*
Y1447361D01*
X11771Y1444822D01*
X4154D01*
X29546Y1439743D02*
X19389D01*
X29546Y1449900D01*
Y1452439D01*
X27006Y1454979D01*
X21928D01*
X19389Y1452439D01*
X4154Y1490544D02*
Y1505779D01*
X11771D01*
X14311Y1503239D01*
Y1498161D01*
X11771Y1495622D01*
X4154D01*
X19389Y1503239D02*
X21928Y1505779D01*
X27006D01*
X29546Y1503239D01*
Y1500700D01*
X27006Y1498161D01*
X24467D01*
X27006D01*
X29546Y1495622D01*
Y1493083D01*
X27006Y1490544D01*
X21928D01*
X19389Y1493083D01*
X4154Y1541344D02*
Y1556579D01*
X11771D01*
X14311Y1554039D01*
Y1548961D01*
X11771Y1546422D01*
X4154D01*
X27006Y1541344D02*
Y1556579D01*
X19389Y1548961D01*
X29546D01*
X4154Y1592144D02*
Y1607379D01*
X11771D01*
X14311Y1604839D01*
Y1599761D01*
X11771Y1597222D01*
X4154D01*
X29546Y1607379D02*
X19389D01*
Y1599761D01*
X24467Y1602300D01*
X27006D01*
X29546Y1599761D01*
Y1594683D01*
X27006Y1592144D01*
X21928D01*
X19389Y1594683D01*
X380226Y1565000D02*
Y1582774D01*
X386151Y1576849D01*
X392076Y1582774D01*
Y1565000D01*
X398000Y1582774D02*
X409850D01*
X403925D01*
Y1565000D01*
X415774D02*
Y1582774D01*
X424662D01*
X427624Y1579812D01*
Y1573887D01*
X424662Y1570925D01*
X415774D01*
X421699D02*
X427624Y1565000D01*
X637630Y1557166D02*
Y1545317D01*
X643555Y1539392D01*
X649479Y1545317D01*
Y1557166D01*
X655404Y1539392D02*
X661329D01*
X658366D01*
Y1557166D01*
X655404Y1554204D01*
D14*
X133666Y1295728D02*
X171754D01*
Y1276684D01*
X165406Y1270336D01*
X152710D01*
X146362Y1276684D01*
Y1295728D01*
X133666Y1257640D02*
X159058D01*
Y1238596D01*
X152710Y1232248D01*
X133666D01*
Y1200508D02*
Y1213204D01*
X140014Y1219552D01*
X152710D01*
X159058Y1213204D01*
Y1200508D01*
X152710Y1194160D01*
X146362D01*
Y1219552D01*
X159058Y1181464D02*
X140014D01*
X133666Y1175117D01*
Y1156073D01*
X159058D01*
X165406Y1117985D02*
X171754Y1124333D01*
Y1137029D01*
X165406Y1143377D01*
X159058D01*
X152710Y1137029D01*
Y1124333D01*
X146362Y1117985D01*
X140014D01*
X133666Y1124333D01*
Y1137029D01*
X140014Y1143377D01*
X133666Y1098941D02*
Y1086245D01*
X140014Y1079897D01*
X152710D01*
X159058Y1086245D01*
Y1098941D01*
X152710Y1105289D01*
X140014D01*
X133666Y1098941D01*
Y1067201D02*
X171754D01*
Y1048158D01*
X165406Y1041810D01*
X152710D01*
X146362Y1048158D01*
Y1067201D01*
Y1054506D02*
X133666Y1041810D01*
X171754Y1029114D02*
X133666D01*
Y1010070D01*
X140014Y1003722D01*
X165406D01*
X171754Y1010070D01*
Y1029114D01*
X165406Y927547D02*
X171754Y933895D01*
Y946590D01*
X165406Y952938D01*
X159058D01*
X152710Y946590D01*
Y933895D01*
X146362Y927547D01*
X140014D01*
X133666Y933895D01*
Y946590D01*
X140014Y952938D01*
X133666Y908503D02*
Y895807D01*
X140014Y889459D01*
X152710D01*
X159058Y895807D01*
Y908503D01*
X152710Y914851D01*
X140014D01*
X133666Y908503D01*
Y870415D02*
X165406D01*
X152710D01*
Y876763D01*
Y864067D01*
Y870415D01*
X165406D01*
X171754Y864067D01*
X165406Y838675D02*
X159058D01*
Y845023D01*
Y832327D01*
Y838675D01*
X140014D01*
X133666Y832327D01*
Y775196D02*
X171754D01*
Y756152D01*
X165406Y749804D01*
X152710D01*
X146362Y756152D01*
Y775196D01*
Y762500D02*
X133666Y749804D01*
Y730760D02*
Y718064D01*
X140014Y711716D01*
X152710D01*
X159058Y718064D01*
Y730760D01*
X152710Y737108D01*
X140014D01*
X133666Y730760D01*
X171754Y699020D02*
X133666D01*
Y679977D01*
X140014Y673629D01*
X146362D01*
X152710D01*
X159058Y679977D01*
Y699020D01*
X133666Y654585D02*
Y641889D01*
X140014Y635541D01*
X152710D01*
X159058Y641889D01*
Y654585D01*
X152710Y660933D01*
X140014D01*
X133666Y654585D01*
X165406Y616497D02*
X159058D01*
Y622845D01*
Y610149D01*
Y616497D01*
X140014D01*
X133666Y610149D01*
Y591105D02*
Y578410D01*
Y584757D01*
X159058D01*
Y591105D01*
Y533974D02*
Y553018D01*
X152710Y559366D01*
X140014D01*
X133666Y553018D01*
Y533974D01*
Y521278D02*
Y502234D01*
X140014Y495886D01*
X146362Y502234D01*
Y514930D01*
X152710Y521278D01*
X159058Y514930D01*
Y495886D01*
X171754Y445103D02*
X133666D01*
Y426059D01*
X140014Y419711D01*
X165406D01*
X171754Y426059D01*
Y445103D01*
X159058Y407015D02*
X133666D01*
X146362D01*
X152710Y400667D01*
X159058Y394319D01*
Y387971D01*
X133666Y368927D02*
Y356231D01*
Y362579D01*
X159058D01*
Y368927D01*
Y337188D02*
X133666Y324492D01*
X159058Y311796D01*
X133666Y280056D02*
Y292752D01*
X140014Y299100D01*
X152710D01*
X159058Y292752D01*
Y280056D01*
X152710Y273708D01*
X146362D01*
Y299100D01*
X159058Y261012D02*
X133666D01*
X146362D01*
X152710Y254664D01*
X159058Y248316D01*
Y241968D01*
M02*
