G04*
G04 #@! TF.GenerationSoftware,Altium Limited,Altium Designer,21.0.9 (235)*
G04*
G04 Layer_Color=2752767*
%FSLAX44Y44*%
%MOMM*%
G71*
G04*
G04 #@! TF.SameCoordinates,70CB9891-2270-4D21-866A-A56E4BF175EE*
G04*
G04*
G04 #@! TF.FilePolarity,Positive*
G04*
G01*
G75*
%ADD101C,0.0508*%
%ADD102C,0.0677*%
%ADD103C,0.0339*%
D101*
X139968Y37968D02*
Y42032D01*
X144032D01*
Y37968D01*
X139968D01*
X807968Y37968D02*
Y42032D01*
X812032D01*
Y37968D01*
X807968D01*
X697968Y1517968D02*
Y1522032D01*
X702032D01*
Y1517968D01*
X697968D01*
X139968Y1587968D02*
Y1592032D01*
X144032D01*
Y1587968D01*
X139968D01*
X845148Y1168146D02*
X843116Y1172210D01*
X847180D01*
X845148Y1168146D01*
Y1142746D02*
X843116Y1146810D01*
X847180D01*
X845148Y1142746D01*
X819748Y1168146D02*
X817716Y1172210D01*
X821780D01*
X819748Y1168146D01*
Y1142746D02*
X817716Y1146810D01*
X821780D01*
X819748Y1142746D01*
X845148Y1041146D02*
X843116Y1045210D01*
X847180D01*
X845148Y1041146D01*
X819748D02*
X817716Y1045210D01*
X821780D01*
X819748Y1041146D01*
X845148Y990346D02*
X843116Y994410D01*
X847180D01*
X845148Y990346D01*
X819748D02*
X817716Y994410D01*
X821780D01*
X819748Y990346D01*
X845148Y863346D02*
X843116Y867410D01*
X847180D01*
X845148Y863346D01*
X819748D02*
X817716Y867410D01*
X821780D01*
X819748Y863346D01*
X845148Y787146D02*
X843116Y791210D01*
X847180D01*
X845148Y787146D01*
X819748D02*
X817716Y791210D01*
X821780D01*
X819748Y787146D01*
Y761746D02*
X817716Y765810D01*
X821780D01*
X819748Y761746D01*
X845148D02*
X843116Y765810D01*
X847180D01*
X845148Y761746D01*
X819748Y812546D02*
X817716Y816610D01*
X821780D01*
X819748Y812546D01*
X845148D02*
X843116Y816610D01*
X847180D01*
X845148Y812546D01*
X819748Y837946D02*
X817716Y842010D01*
X821780D01*
X819748Y837946D01*
X845148D02*
X843116Y842010D01*
X847180D01*
X845148Y837946D01*
X819748Y888746D02*
X817716Y892810D01*
X821780D01*
X819748Y888746D01*
X845148D02*
X843116Y892810D01*
X847180D01*
X845148Y888746D01*
X819748Y914146D02*
X817716Y918210D01*
X821780D01*
X819748Y914146D01*
X845148D02*
X843116Y918210D01*
X847180D01*
X845148Y914146D01*
X819748Y939546D02*
X817716Y943610D01*
X821780D01*
X819748Y939546D01*
Y964946D02*
X817716Y969010D01*
X821780D01*
X819748Y964946D01*
X845148Y939546D02*
X843116Y943610D01*
X847180D01*
X845148Y939546D01*
Y964946D02*
X843116Y969010D01*
X847180D01*
X845148Y964946D01*
X819748Y1015746D02*
X817716Y1019810D01*
X821780D01*
X819748Y1015746D01*
X845148D02*
X843116Y1019810D01*
X847180D01*
X845148Y1015746D01*
X819748Y1066546D02*
X817716Y1070610D01*
X821780D01*
X819748Y1066546D01*
Y1091946D02*
X817716Y1096010D01*
X821780D01*
X819748Y1091946D01*
Y1117346D02*
X817716Y1121410D01*
X821780D01*
X819748Y1117346D01*
X845148Y1066546D02*
X843116Y1070610D01*
X847180D01*
X845148Y1066546D01*
Y1091946D02*
X843116Y1096010D01*
X847180D01*
X845148Y1091946D01*
Y1117346D02*
X843116Y1121410D01*
X847180D01*
X845148Y1117346D01*
X844894Y594098D02*
X842862Y598162D01*
X846926D01*
X844894Y594098D01*
Y568698D02*
X842862Y572762D01*
X846926D01*
X844894Y568698D01*
X819494Y594098D02*
X817462Y598162D01*
X821526D01*
X819494Y594098D01*
Y568698D02*
X817462Y572762D01*
X821526D01*
X819494Y568698D01*
X844894Y467098D02*
X842862Y471162D01*
X846926D01*
X844894Y467098D01*
X819494D02*
X817462Y471162D01*
X821526D01*
X819494Y467098D01*
X844894Y416298D02*
X842862Y420362D01*
X846926D01*
X844894Y416298D01*
X819494D02*
X817462Y420362D01*
X821526D01*
X819494Y416298D01*
X844894Y289298D02*
X842862Y293362D01*
X846926D01*
X844894Y289298D01*
X819494D02*
X817462Y293362D01*
X821526D01*
X819494Y289298D01*
X844894Y213098D02*
X842862Y217162D01*
X846926D01*
X844894Y213098D01*
X819494D02*
X817462Y217162D01*
X821526D01*
X819494Y213098D01*
Y187698D02*
X817462Y191762D01*
X821526D01*
X819494Y187698D01*
X844894D02*
X842862Y191762D01*
X846926D01*
X844894Y187698D01*
X819494Y238498D02*
X817462Y242562D01*
X821526D01*
X819494Y238498D01*
X844894D02*
X842862Y242562D01*
X846926D01*
X844894Y238498D01*
X819494Y263898D02*
X817462Y267962D01*
X821526D01*
X819494Y263898D01*
X844894D02*
X842862Y267962D01*
X846926D01*
X844894Y263898D01*
X819494Y314698D02*
X817462Y318762D01*
X821526D01*
X819494Y314698D01*
X844894D02*
X842862Y318762D01*
X846926D01*
X844894Y314698D01*
X819494Y340098D02*
X817462Y344162D01*
X821526D01*
X819494Y340098D01*
X844894D02*
X842862Y344162D01*
X846926D01*
X844894Y340098D01*
X819494Y365498D02*
X817462Y369562D01*
X821526D01*
X819494Y365498D01*
Y390898D02*
X817462Y394962D01*
X821526D01*
X819494Y390898D01*
X844894Y365498D02*
X842862Y369562D01*
X846926D01*
X844894Y365498D01*
Y390898D02*
X842862Y394962D01*
X846926D01*
X844894Y390898D01*
X819494Y441698D02*
X817462Y445762D01*
X821526D01*
X819494Y441698D01*
X844894D02*
X842862Y445762D01*
X846926D01*
X844894Y441698D01*
X819494Y492498D02*
X817462Y496562D01*
X821526D01*
X819494Y492498D01*
Y517898D02*
X817462Y521962D01*
X821526D01*
X819494Y517898D01*
Y543298D02*
X817462Y547362D01*
X821526D01*
X819494Y543298D01*
X844894Y492498D02*
X842862Y496562D01*
X846926D01*
X844894Y492498D01*
Y517898D02*
X842862Y521962D01*
X846926D01*
X844894Y517898D01*
Y543298D02*
X842862Y547362D01*
X846926D01*
X844894Y543298D01*
X77814Y1330796D02*
X78830Y1331812D01*
X79846D01*
X78830Y1332828D01*
X79846Y1333844D01*
X78830D01*
X77814Y1334860D01*
X76798Y1333844D01*
X75782D01*
X76798Y1332828D01*
X75782Y1331812D01*
X76798D01*
X77814Y1330796D01*
Y1356196D02*
X78830Y1357212D01*
X79846D01*
X78830Y1358228D01*
X79846Y1359244D01*
X78830D01*
X77814Y1360260D01*
X76798Y1359244D01*
X75782D01*
X76798Y1358228D01*
X75782Y1357212D01*
X76798D01*
X77814Y1356196D01*
Y1381596D02*
X78830Y1382612D01*
X79846D01*
X78830Y1383628D01*
X79846Y1384644D01*
X78830D01*
X77814Y1385660D01*
X76798Y1384644D01*
X75782D01*
X76798Y1383628D01*
X75782Y1382612D01*
X76798D01*
X77814Y1381596D01*
Y1406996D02*
X78830Y1408012D01*
X79846D01*
X78830Y1409028D01*
X79846Y1410044D01*
X78830D01*
X77814Y1411060D01*
X76798Y1410044D01*
X75782D01*
X76798Y1409028D01*
X75782Y1408012D01*
X76798D01*
X77814Y1406996D01*
Y1432396D02*
X78830Y1433412D01*
X79846D01*
X78830Y1434428D01*
X79846Y1435444D01*
X78830D01*
X77814Y1436460D01*
X76798Y1435444D01*
X75782D01*
X76798Y1434428D01*
X75782Y1433412D01*
X76798D01*
X77814Y1432396D01*
Y1457796D02*
X78830Y1458812D01*
X79846D01*
X78830Y1459828D01*
X79846Y1460844D01*
X78830D01*
X77814Y1461860D01*
X76798Y1460844D01*
X75782D01*
X76798Y1459828D01*
X75782Y1458812D01*
X76798D01*
X77814Y1457796D01*
Y1483196D02*
X78830Y1484212D01*
X79846D01*
X78830Y1485228D01*
X79846Y1486244D01*
X78830D01*
X77814Y1487260D01*
X76798Y1486244D01*
X75782D01*
X76798Y1485228D01*
X75782Y1484212D01*
X76798D01*
X77814Y1483196D01*
Y1508596D02*
X78830Y1509612D01*
X79846D01*
X78830Y1510628D01*
X79846Y1511644D01*
X78830D01*
X77814Y1512660D01*
X76798Y1511644D01*
X75782D01*
X76798Y1510628D01*
X75782Y1509612D01*
X76798D01*
X77814Y1508596D01*
Y1533996D02*
X78830Y1535012D01*
X79846D01*
X78830Y1536028D01*
X79846Y1537044D01*
X78830D01*
X77814Y1538060D01*
X76798Y1537044D01*
X75782D01*
X76798Y1536028D01*
X75782Y1535012D01*
X76798D01*
X77814Y1533996D01*
Y1559396D02*
X78830Y1560412D01*
X79846D01*
X78830Y1561428D01*
X79846Y1562444D01*
X78830D01*
X77814Y1563460D01*
X76798Y1562444D01*
X75782D01*
X76798Y1561428D01*
X75782Y1560412D01*
X76798D01*
X77814Y1559396D01*
Y1584796D02*
X78830Y1585812D01*
X79846D01*
X78830Y1586828D01*
X79846Y1587844D01*
X78830D01*
X77814Y1588860D01*
X76798Y1587844D01*
X75782D01*
X76798Y1586828D01*
X75782Y1585812D01*
X76798D01*
X77814Y1584796D01*
Y1610196D02*
X78830Y1611212D01*
X79846D01*
X78830Y1612228D01*
X79846Y1613244D01*
X78830D01*
X77814Y1614260D01*
X76798Y1613244D01*
X75782D01*
X76798Y1612228D01*
X75782Y1611212D01*
X76798D01*
X77814Y1610196D01*
X77840Y393318D02*
X78856Y394334D01*
X79872D01*
X78856Y395350D01*
X79872Y396366D01*
X78856D01*
X77840Y397382D01*
X76824Y396366D01*
X75808D01*
X76824Y395350D01*
X75808Y394334D01*
X76824D01*
X77840Y393318D01*
Y418718D02*
X78856Y419734D01*
X79872D01*
X78856Y420750D01*
X79872Y421766D01*
X78856D01*
X77840Y422782D01*
X76824Y421766D01*
X75808D01*
X76824Y420750D01*
X75808Y419734D01*
X76824D01*
X77840Y418718D01*
Y444118D02*
X78856Y445134D01*
X79872D01*
X78856Y446150D01*
X79872Y447166D01*
X78856D01*
X77840Y448182D01*
X76824Y447166D01*
X75808D01*
X76824Y446150D01*
X75808Y445134D01*
X76824D01*
X77840Y444118D01*
Y469518D02*
X78856Y470534D01*
X79872D01*
X78856Y471550D01*
X79872Y472566D01*
X78856D01*
X77840Y473582D01*
X76824Y472566D01*
X75808D01*
X76824Y471550D01*
X75808Y470534D01*
X76824D01*
X77840Y469518D01*
Y494918D02*
X78856Y495934D01*
X79872D01*
X78856Y496950D01*
X79872Y497966D01*
X78856D01*
X77840Y498982D01*
X76824Y497966D01*
X75808D01*
X76824Y496950D01*
X75808Y495934D01*
X76824D01*
X77840Y494918D01*
Y520318D02*
X78856Y521334D01*
X79872D01*
X78856Y522350D01*
X79872Y523366D01*
X78856D01*
X77840Y524382D01*
X76824Y523366D01*
X75808D01*
X76824Y522350D01*
X75808Y521334D01*
X76824D01*
X77840Y520318D01*
Y545718D02*
X78856Y546734D01*
X79872D01*
X78856Y547750D01*
X79872Y548766D01*
X78856D01*
X77840Y549782D01*
X76824Y548766D01*
X75808D01*
X76824Y547750D01*
X75808Y546734D01*
X76824D01*
X77840Y545718D01*
Y571118D02*
X78856Y572134D01*
X79872D01*
X78856Y573150D01*
X79872Y574166D01*
X78856D01*
X77840Y575182D01*
X76824Y574166D01*
X75808D01*
X76824Y573150D01*
X75808Y572134D01*
X76824D01*
X77840Y571118D01*
Y596518D02*
X78856Y597534D01*
X79872D01*
X78856Y598550D01*
X79872Y599566D01*
X78856D01*
X77840Y600582D01*
X76824Y599566D01*
X75808D01*
X76824Y598550D01*
X75808Y597534D01*
X76824D01*
X77840Y596518D01*
Y621918D02*
X78856Y622934D01*
X79872D01*
X78856Y623950D01*
X79872Y624966D01*
X78856D01*
X77840Y625982D01*
X76824Y624966D01*
X75808D01*
X76824Y623950D01*
X75808Y622934D01*
X76824D01*
X77840Y621918D01*
Y647318D02*
X78856Y648334D01*
X79872D01*
X78856Y649350D01*
X79872Y650366D01*
X78856D01*
X77840Y651382D01*
X76824Y650366D01*
X75808D01*
X76824Y649350D01*
X75808Y648334D01*
X76824D01*
X77840Y647318D01*
Y672718D02*
X78856Y673734D01*
X79872D01*
X78856Y674750D01*
X79872Y675766D01*
X78856D01*
X77840Y676782D01*
X76824Y675766D01*
X75808D01*
X76824Y674750D01*
X75808Y673734D01*
X76824D01*
X77840Y672718D01*
X77814Y80818D02*
X78830Y81834D01*
X79846D01*
X78830Y82850D01*
X79846Y83866D01*
X78830D01*
X77814Y84882D01*
X76798Y83866D01*
X75782D01*
X76798Y82850D01*
X75782Y81834D01*
X76798D01*
X77814Y80818D01*
Y106218D02*
X78830Y107234D01*
X79846D01*
X78830Y108250D01*
X79846Y109266D01*
X78830D01*
X77814Y110282D01*
X76798Y109266D01*
X75782D01*
X76798Y108250D01*
X75782Y107234D01*
X76798D01*
X77814Y106218D01*
Y131618D02*
X78830Y132634D01*
X79846D01*
X78830Y133650D01*
X79846Y134666D01*
X78830D01*
X77814Y135682D01*
X76798Y134666D01*
X75782D01*
X76798Y133650D01*
X75782Y132634D01*
X76798D01*
X77814Y131618D01*
Y157018D02*
X78830Y158034D01*
X79846D01*
X78830Y159050D01*
X79846Y160066D01*
X78830D01*
X77814Y161082D01*
X76798Y160066D01*
X75782D01*
X76798Y159050D01*
X75782Y158034D01*
X76798D01*
X77814Y157018D01*
Y182418D02*
X78830Y183434D01*
X79846D01*
X78830Y184450D01*
X79846Y185466D01*
X78830D01*
X77814Y186482D01*
X76798Y185466D01*
X75782D01*
X76798Y184450D01*
X75782Y183434D01*
X76798D01*
X77814Y182418D01*
Y207818D02*
X78830Y208834D01*
X79846D01*
X78830Y209850D01*
X79846Y210866D01*
X78830D01*
X77814Y211882D01*
X76798Y210866D01*
X75782D01*
X76798Y209850D01*
X75782Y208834D01*
X76798D01*
X77814Y207818D01*
Y233218D02*
X78830Y234234D01*
X79846D01*
X78830Y235250D01*
X79846Y236266D01*
X78830D01*
X77814Y237282D01*
X76798Y236266D01*
X75782D01*
X76798Y235250D01*
X75782Y234234D01*
X76798D01*
X77814Y233218D01*
Y258618D02*
X78830Y259634D01*
X79846D01*
X78830Y260650D01*
X79846Y261666D01*
X78830D01*
X77814Y262682D01*
X76798Y261666D01*
X75782D01*
X76798Y260650D01*
X75782Y259634D01*
X76798D01*
X77814Y258618D01*
Y284018D02*
X78830Y285034D01*
X79846D01*
X78830Y286050D01*
X79846Y287066D01*
X78830D01*
X77814Y288082D01*
X76798Y287066D01*
X75782D01*
X76798Y286050D01*
X75782Y285034D01*
X76798D01*
X77814Y284018D01*
Y309418D02*
X78830Y310434D01*
X79846D01*
X78830Y311450D01*
X79846Y312466D01*
X78830D01*
X77814Y313482D01*
X76798Y312466D01*
X75782D01*
X76798Y311450D01*
X75782Y310434D01*
X76798D01*
X77814Y309418D01*
Y334818D02*
X78830Y335834D01*
X79846D01*
X78830Y336850D01*
X79846Y337866D01*
X78830D01*
X77814Y338882D01*
X76798Y337866D01*
X75782D01*
X76798Y336850D01*
X75782Y335834D01*
X76798D01*
X77814Y334818D01*
Y360218D02*
X78830Y361234D01*
X79846D01*
X78830Y362250D01*
X79846Y363266D01*
X78830D01*
X77814Y364282D01*
X76798Y363266D01*
X75782D01*
X76798Y362250D01*
X75782Y361234D01*
X76798D01*
X77814Y360218D01*
Y705568D02*
X78830Y706584D01*
X79846D01*
X78830Y707600D01*
X79846Y708616D01*
X78830D01*
X77814Y709632D01*
X76798Y708616D01*
X75782D01*
X76798Y707600D01*
X75782Y706584D01*
X76798D01*
X77814Y705568D01*
Y730968D02*
X78830Y731984D01*
X79846D01*
X78830Y733000D01*
X79846Y734016D01*
X78830D01*
X77814Y735032D01*
X76798Y734016D01*
X75782D01*
X76798Y733000D01*
X75782Y731984D01*
X76798D01*
X77814Y730968D01*
Y756368D02*
X78830Y757384D01*
X79846D01*
X78830Y758400D01*
X79846Y759416D01*
X78830D01*
X77814Y760432D01*
X76798Y759416D01*
X75782D01*
X76798Y758400D01*
X75782Y757384D01*
X76798D01*
X77814Y756368D01*
Y781768D02*
X78830Y782784D01*
X79846D01*
X78830Y783800D01*
X79846Y784816D01*
X78830D01*
X77814Y785832D01*
X76798Y784816D01*
X75782D01*
X76798Y783800D01*
X75782Y782784D01*
X76798D01*
X77814Y781768D01*
Y807168D02*
X78830Y808184D01*
X79846D01*
X78830Y809200D01*
X79846Y810216D01*
X78830D01*
X77814Y811232D01*
X76798Y810216D01*
X75782D01*
X76798Y809200D01*
X75782Y808184D01*
X76798D01*
X77814Y807168D01*
Y832568D02*
X78830Y833584D01*
X79846D01*
X78830Y834600D01*
X79846Y835616D01*
X78830D01*
X77814Y836632D01*
X76798Y835616D01*
X75782D01*
X76798Y834600D01*
X75782Y833584D01*
X76798D01*
X77814Y832568D01*
Y857968D02*
X78830Y858984D01*
X79846D01*
X78830Y860000D01*
X79846Y861016D01*
X78830D01*
X77814Y862032D01*
X76798Y861016D01*
X75782D01*
X76798Y860000D01*
X75782Y858984D01*
X76798D01*
X77814Y857968D01*
Y883368D02*
X78830Y884384D01*
X79846D01*
X78830Y885400D01*
X79846Y886416D01*
X78830D01*
X77814Y887432D01*
X76798Y886416D01*
X75782D01*
X76798Y885400D01*
X75782Y884384D01*
X76798D01*
X77814Y883368D01*
Y908768D02*
X78830Y909784D01*
X79846D01*
X78830Y910800D01*
X79846Y911816D01*
X78830D01*
X77814Y912832D01*
X76798Y911816D01*
X75782D01*
X76798Y910800D01*
X75782Y909784D01*
X76798D01*
X77814Y908768D01*
Y934168D02*
X78830Y935184D01*
X79846D01*
X78830Y936200D01*
X79846Y937216D01*
X78830D01*
X77814Y938232D01*
X76798Y937216D01*
X75782D01*
X76798Y936200D01*
X75782Y935184D01*
X76798D01*
X77814Y934168D01*
Y959568D02*
X78830Y960584D01*
X79846D01*
X78830Y961600D01*
X79846Y962616D01*
X78830D01*
X77814Y963632D01*
X76798Y962616D01*
X75782D01*
X76798Y961600D01*
X75782Y960584D01*
X76798D01*
X77814Y959568D01*
Y984968D02*
X78830Y985984D01*
X79846D01*
X78830Y987000D01*
X79846Y988016D01*
X78830D01*
X77814Y989032D01*
X76798Y988016D01*
X75782D01*
X76798Y987000D01*
X75782Y985984D01*
X76798D01*
X77814Y984968D01*
Y1018568D02*
X78830Y1019584D01*
X79846D01*
X78830Y1020600D01*
X79846Y1021616D01*
X78830D01*
X77814Y1022632D01*
X76798Y1021616D01*
X75782D01*
X76798Y1020600D01*
X75782Y1019584D01*
X76798D01*
X77814Y1018568D01*
Y1043968D02*
X78830Y1044984D01*
X79846D01*
X78830Y1046000D01*
X79846Y1047016D01*
X78830D01*
X77814Y1048032D01*
X76798Y1047016D01*
X75782D01*
X76798Y1046000D01*
X75782Y1044984D01*
X76798D01*
X77814Y1043968D01*
Y1069368D02*
X78830Y1070384D01*
X79846D01*
X78830Y1071400D01*
X79846Y1072416D01*
X78830D01*
X77814Y1073432D01*
X76798Y1072416D01*
X75782D01*
X76798Y1071400D01*
X75782Y1070384D01*
X76798D01*
X77814Y1069368D01*
Y1094768D02*
X78830Y1095784D01*
X79846D01*
X78830Y1096800D01*
X79846Y1097816D01*
X78830D01*
X77814Y1098832D01*
X76798Y1097816D01*
X75782D01*
X76798Y1096800D01*
X75782Y1095784D01*
X76798D01*
X77814Y1094768D01*
Y1120168D02*
X78830Y1121184D01*
X79846D01*
X78830Y1122200D01*
X79846Y1123216D01*
X78830D01*
X77814Y1124232D01*
X76798Y1123216D01*
X75782D01*
X76798Y1122200D01*
X75782Y1121184D01*
X76798D01*
X77814Y1120168D01*
Y1145568D02*
X78830Y1146584D01*
X79846D01*
X78830Y1147600D01*
X79846Y1148616D01*
X78830D01*
X77814Y1149632D01*
X76798Y1148616D01*
X75782D01*
X76798Y1147600D01*
X75782Y1146584D01*
X76798D01*
X77814Y1145568D01*
Y1170968D02*
X78830Y1171984D01*
X79846D01*
X78830Y1173000D01*
X79846Y1174016D01*
X78830D01*
X77814Y1175032D01*
X76798Y1174016D01*
X75782D01*
X76798Y1173000D01*
X75782Y1171984D01*
X76798D01*
X77814Y1170968D01*
Y1196368D02*
X78830Y1197384D01*
X79846D01*
X78830Y1198400D01*
X79846Y1199416D01*
X78830D01*
X77814Y1200432D01*
X76798Y1199416D01*
X75782D01*
X76798Y1198400D01*
X75782Y1197384D01*
X76798D01*
X77814Y1196368D01*
Y1221768D02*
X78830Y1222784D01*
X79846D01*
X78830Y1223800D01*
X79846Y1224816D01*
X78830D01*
X77814Y1225832D01*
X76798Y1224816D01*
X75782D01*
X76798Y1223800D01*
X75782Y1222784D01*
X76798D01*
X77814Y1221768D01*
Y1247168D02*
X78830Y1248184D01*
X79846D01*
X78830Y1249200D01*
X79846Y1250216D01*
X78830D01*
X77814Y1251232D01*
X76798Y1250216D01*
X75782D01*
X76798Y1249200D01*
X75782Y1248184D01*
X76798D01*
X77814Y1247168D01*
Y1272568D02*
X78830Y1273584D01*
X79846D01*
X78830Y1274600D01*
X79846Y1275616D01*
X78830D01*
X77814Y1276632D01*
X76798Y1275616D01*
X75782D01*
X76798Y1274600D01*
X75782Y1273584D01*
X76798D01*
X77814Y1272568D01*
Y1297968D02*
X78830Y1298984D01*
X79846D01*
X78830Y1300000D01*
X79846Y1301016D01*
X78830D01*
X77814Y1302032D01*
X76798Y1301016D01*
X75782D01*
X76798Y1300000D01*
X75782Y1298984D01*
X76798D01*
X77814Y1297968D01*
X599712Y1316878D02*
X600728Y1318910D01*
X599712Y1320942D01*
X601744Y1319926D01*
X603776Y1320942D01*
X602760Y1318910D01*
X603776Y1316878D01*
X601744Y1317894D01*
X599712Y1316878D01*
X625112D02*
X626128Y1318910D01*
X625112Y1320942D01*
X627144Y1319926D01*
X629176Y1320942D01*
X628160Y1318910D01*
X629176Y1316878D01*
X627144Y1317894D01*
X625112Y1316878D01*
X650512D02*
X651528Y1318910D01*
X650512Y1320942D01*
X652544Y1319926D01*
X654576Y1320942D01*
X653560Y1318910D01*
X654576Y1316878D01*
X652544Y1317894D01*
X650512Y1316878D01*
X399492Y1314958D02*
X400508Y1316990D01*
X399492Y1319022D01*
X401524Y1318006D01*
X403556Y1319022D01*
X402540Y1316990D01*
X403556Y1314958D01*
X401524Y1315974D01*
X399492Y1314958D01*
X424892D02*
X425908Y1316990D01*
X424892Y1319022D01*
X426924Y1318006D01*
X428956Y1319022D01*
X427940Y1316990D01*
X428956Y1314958D01*
X426924Y1315974D01*
X424892Y1314958D01*
X450292D02*
X451308Y1316990D01*
X450292Y1319022D01*
X452324Y1318006D01*
X454356Y1319022D01*
X453340Y1316990D01*
X454356Y1314958D01*
X452324Y1315974D01*
X450292Y1314958D01*
X591402Y1186434D02*
X592418Y1188466D01*
X591402Y1190498D01*
X593434Y1189482D01*
X595466Y1190498D01*
X594450Y1188466D01*
X595466Y1186434D01*
X593434Y1187450D01*
X591402Y1186434D01*
X616802D02*
X617818Y1188466D01*
X616802Y1190498D01*
X618834Y1189482D01*
X620866Y1190498D01*
X619850Y1188466D01*
X620866Y1186434D01*
X618834Y1187450D01*
X616802Y1186434D01*
X642202D02*
X643218Y1188466D01*
X642202Y1190498D01*
X644234Y1189482D01*
X646266Y1190498D01*
X645250Y1188466D01*
X646266Y1186434D01*
X644234Y1187450D01*
X642202Y1186434D01*
X400140Y1159764D02*
X401156Y1161796D01*
X400140Y1163828D01*
X402172Y1162812D01*
X404204Y1163828D01*
X403188Y1161796D01*
X404204Y1159764D01*
X402172Y1160780D01*
X400140Y1159764D01*
X425540D02*
X426556Y1161796D01*
X425540Y1163828D01*
X427572Y1162812D01*
X429604Y1163828D01*
X428588Y1161796D01*
X429604Y1159764D01*
X427572Y1160780D01*
X425540Y1159764D01*
X450940D02*
X451956Y1161796D01*
X450940Y1163828D01*
X452972Y1162812D01*
X455004Y1163828D01*
X453988Y1161796D01*
X455004Y1159764D01*
X452972Y1160780D01*
X450940Y1159764D01*
X51399Y49234D02*
Y48218D01*
X53431D01*
Y49234D01*
X54447D01*
Y51266D01*
X53431D01*
Y52282D01*
X51399D01*
Y51266D01*
X50383D01*
Y49234D01*
X51399D01*
Y23834D02*
Y22818D01*
X53431D01*
Y23834D01*
X54447D01*
Y25866D01*
X53431D01*
Y26882D01*
X51399D01*
Y25866D01*
X50383D01*
Y23834D01*
X51399D01*
X77815Y22818D02*
X78831Y23834D01*
X79847D01*
X78831Y24850D01*
X79847Y25866D01*
X78831D01*
X77815Y26882D01*
X76799Y25866D01*
X75783D01*
X76799Y24850D01*
X75783Y23834D01*
X76799D01*
X77815Y22818D01*
Y48218D02*
X78831Y49234D01*
X79847D01*
X78831Y50250D01*
X79847Y51266D01*
X78831D01*
X77815Y52282D01*
X76799Y51266D01*
X75783D01*
X76799Y50250D01*
X75783Y49234D01*
X76799D01*
X77815Y48218D01*
X264536Y1015492D02*
X265552Y1017524D01*
X264536Y1019556D01*
X266568Y1018540D01*
X268600Y1019556D01*
X267584Y1017524D01*
X268600Y1015492D01*
X266568Y1016508D01*
X264536Y1015492D01*
X239136D02*
X240152Y1017524D01*
X239136Y1019556D01*
X241168Y1018540D01*
X243200Y1019556D01*
X242184Y1017524D01*
X243200Y1015492D01*
X241168Y1016508D01*
X239136Y1015492D01*
X213736D02*
X214752Y1017524D01*
X213736Y1019556D01*
X215768Y1018540D01*
X217800Y1019556D01*
X216784Y1017524D01*
X217800Y1015492D01*
X215768Y1016508D01*
X213736Y1015492D01*
X449348Y1015548D02*
X450364Y1017580D01*
X449348Y1019612D01*
X451380Y1018596D01*
X453412Y1019612D01*
X452396Y1017580D01*
X453412Y1015548D01*
X451380Y1016564D01*
X449348Y1015548D01*
X423948D02*
X424964Y1017580D01*
X423948Y1019612D01*
X425980Y1018596D01*
X428012Y1019612D01*
X426996Y1017580D01*
X428012Y1015548D01*
X425980Y1016564D01*
X423948Y1015548D01*
X398548D02*
X399564Y1017580D01*
X398548Y1019612D01*
X400580Y1018596D01*
X402612Y1019612D01*
X401596Y1017580D01*
X402612Y1015548D01*
X400580Y1016564D01*
X398548Y1015548D01*
X614448D02*
X615464Y1017580D01*
X614448Y1019612D01*
X616480Y1018596D01*
X618512Y1019612D01*
X617496Y1017580D01*
X618512Y1015548D01*
X616480Y1016564D01*
X614448Y1015548D01*
X589048D02*
X590064Y1017580D01*
X589048Y1019612D01*
X591080Y1018596D01*
X593112Y1019612D01*
X592096Y1017580D01*
X593112Y1015548D01*
X591080Y1016564D01*
X589048Y1015548D01*
X563648D02*
X564664Y1017580D01*
X563648Y1019612D01*
X565680Y1018596D01*
X567712Y1019612D01*
X566696Y1017580D01*
X567712Y1015548D01*
X565680Y1016564D01*
X563648Y1015548D01*
X284248Y908868D02*
X285264Y910900D01*
X284248Y912932D01*
X286280Y911916D01*
X288312Y912932D01*
X287296Y910900D01*
X288312Y908868D01*
X286280Y909884D01*
X284248Y908868D01*
X258848D02*
X259864Y910900D01*
X258848Y912932D01*
X260880Y911916D01*
X262912Y912932D01*
X261896Y910900D01*
X262912Y908868D01*
X260880Y909884D01*
X258848Y908868D01*
X233448D02*
X234464Y910900D01*
X233448Y912932D01*
X235480Y911916D01*
X237512Y912932D01*
X236496Y910900D01*
X237512Y908868D01*
X235480Y909884D01*
X233448Y908868D01*
X449348D02*
X450364Y910900D01*
X449348Y912932D01*
X451380Y911916D01*
X453412Y912932D01*
X452396Y910900D01*
X453412Y908868D01*
X451380Y909884D01*
X449348Y908868D01*
X423948D02*
X424964Y910900D01*
X423948Y912932D01*
X425980Y911916D01*
X428012Y912932D01*
X426996Y910900D01*
X428012Y908868D01*
X425980Y909884D01*
X423948Y908868D01*
X398548D02*
X399564Y910900D01*
X398548Y912932D01*
X400580Y911916D01*
X402612Y912932D01*
X401596Y910900D01*
X402612Y908868D01*
X400580Y909884D01*
X398548Y908868D01*
X614448D02*
X615464Y910900D01*
X614448Y912932D01*
X616480Y911916D01*
X618512Y912932D01*
X617496Y910900D01*
X618512Y908868D01*
X616480Y909884D01*
X614448Y908868D01*
X589048D02*
X590064Y910900D01*
X589048Y912932D01*
X591080Y911916D01*
X593112Y912932D01*
X592096Y910900D01*
X593112Y908868D01*
X591080Y909884D01*
X589048Y908868D01*
X563648D02*
X564664Y910900D01*
X563648Y912932D01*
X565680Y911916D01*
X567712Y912932D01*
X566696Y910900D01*
X567712Y908868D01*
X565680Y909884D01*
X563648Y908868D01*
X284248Y802188D02*
X285264Y804220D01*
X284248Y806252D01*
X286280Y805236D01*
X288312Y806252D01*
X287296Y804220D01*
X288312Y802188D01*
X286280Y803204D01*
X284248Y802188D01*
X258848D02*
X259864Y804220D01*
X258848Y806252D01*
X260880Y805236D01*
X262912Y806252D01*
X261896Y804220D01*
X262912Y802188D01*
X260880Y803204D01*
X258848Y802188D01*
X233448D02*
X234464Y804220D01*
X233448Y806252D01*
X235480Y805236D01*
X237512Y806252D01*
X236496Y804220D01*
X237512Y802188D01*
X235480Y803204D01*
X233448Y802188D01*
X449348D02*
X450364Y804220D01*
X449348Y806252D01*
X451380Y805236D01*
X453412Y806252D01*
X452396Y804220D01*
X453412Y802188D01*
X451380Y803204D01*
X449348Y802188D01*
X423948D02*
X424964Y804220D01*
X423948Y806252D01*
X425980Y805236D01*
X428012Y806252D01*
X426996Y804220D01*
X428012Y802188D01*
X425980Y803204D01*
X423948Y802188D01*
X398548D02*
X399564Y804220D01*
X398548Y806252D01*
X400580Y805236D01*
X402612Y806252D01*
X401596Y804220D01*
X402612Y802188D01*
X400580Y803204D01*
X398548Y802188D01*
X614448D02*
X615464Y804220D01*
X614448Y806252D01*
X616480Y805236D01*
X618512Y806252D01*
X617496Y804220D01*
X618512Y802188D01*
X616480Y803204D01*
X614448Y802188D01*
X589048D02*
X590064Y804220D01*
X589048Y806252D01*
X591080Y805236D01*
X593112Y806252D01*
X592096Y804220D01*
X593112Y802188D01*
X591080Y803204D01*
X589048Y802188D01*
X563648D02*
X564664Y804220D01*
X563648Y806252D01*
X565680Y805236D01*
X567712Y806252D01*
X566696Y804220D01*
X567712Y802188D01*
X565680Y803204D01*
X563648Y802188D01*
X284248Y695508D02*
X285264Y697540D01*
X284248Y699572D01*
X286280Y698556D01*
X288312Y699572D01*
X287296Y697540D01*
X288312Y695508D01*
X286280Y696524D01*
X284248Y695508D01*
X258848D02*
X259864Y697540D01*
X258848Y699572D01*
X260880Y698556D01*
X262912Y699572D01*
X261896Y697540D01*
X262912Y695508D01*
X260880Y696524D01*
X258848Y695508D01*
X233448D02*
X234464Y697540D01*
X233448Y699572D01*
X235480Y698556D01*
X237512Y699572D01*
X236496Y697540D01*
X237512Y695508D01*
X235480Y696524D01*
X233448Y695508D01*
X449348D02*
X450364Y697540D01*
X449348Y699572D01*
X451380Y698556D01*
X453412Y699572D01*
X452396Y697540D01*
X453412Y695508D01*
X451380Y696524D01*
X449348Y695508D01*
X423948D02*
X424964Y697540D01*
X423948Y699572D01*
X425980Y698556D01*
X428012Y699572D01*
X426996Y697540D01*
X428012Y695508D01*
X425980Y696524D01*
X423948Y695508D01*
X398548D02*
X399564Y697540D01*
X398548Y699572D01*
X400580Y698556D01*
X402612Y699572D01*
X401596Y697540D01*
X402612Y695508D01*
X400580Y696524D01*
X398548Y695508D01*
X614448D02*
X615464Y697540D01*
X614448Y699572D01*
X616480Y698556D01*
X618512Y699572D01*
X617496Y697540D01*
X618512Y695508D01*
X616480Y696524D01*
X614448Y695508D01*
X589048D02*
X590064Y697540D01*
X589048Y699572D01*
X591080Y698556D01*
X593112Y699572D01*
X592096Y697540D01*
X593112Y695508D01*
X591080Y696524D01*
X589048Y695508D01*
X563648D02*
X564664Y697540D01*
X563648Y699572D01*
X565680Y698556D01*
X567712Y699572D01*
X566696Y697540D01*
X567712Y695508D01*
X565680Y696524D01*
X563648Y695508D01*
X284248Y588828D02*
X285264Y590860D01*
X284248Y592892D01*
X286280Y591876D01*
X288312Y592892D01*
X287296Y590860D01*
X288312Y588828D01*
X286280Y589844D01*
X284248Y588828D01*
X258848D02*
X259864Y590860D01*
X258848Y592892D01*
X260880Y591876D01*
X262912Y592892D01*
X261896Y590860D01*
X262912Y588828D01*
X260880Y589844D01*
X258848Y588828D01*
X233448D02*
X234464Y590860D01*
X233448Y592892D01*
X235480Y591876D01*
X237512Y592892D01*
X236496Y590860D01*
X237512Y588828D01*
X235480Y589844D01*
X233448Y588828D01*
X449348D02*
X450364Y590860D01*
X449348Y592892D01*
X451380Y591876D01*
X453412Y592892D01*
X452396Y590860D01*
X453412Y588828D01*
X451380Y589844D01*
X449348Y588828D01*
X423948D02*
X424964Y590860D01*
X423948Y592892D01*
X425980Y591876D01*
X428012Y592892D01*
X426996Y590860D01*
X428012Y588828D01*
X425980Y589844D01*
X423948Y588828D01*
X398548D02*
X399564Y590860D01*
X398548Y592892D01*
X400580Y591876D01*
X402612Y592892D01*
X401596Y590860D01*
X402612Y588828D01*
X400580Y589844D01*
X398548Y588828D01*
X614448D02*
X615464Y590860D01*
X614448Y592892D01*
X616480Y591876D01*
X618512Y592892D01*
X617496Y590860D01*
X618512Y588828D01*
X616480Y589844D01*
X614448Y588828D01*
X589048D02*
X590064Y590860D01*
X589048Y592892D01*
X591080Y591876D01*
X593112Y592892D01*
X592096Y590860D01*
X593112Y588828D01*
X591080Y589844D01*
X589048Y588828D01*
X563648D02*
X564664Y590860D01*
X563648Y592892D01*
X565680Y591876D01*
X567712Y592892D01*
X566696Y590860D01*
X567712Y588828D01*
X565680Y589844D01*
X563648Y588828D01*
X283288Y481188D02*
X284304Y483220D01*
X283288Y485252D01*
X285320Y484236D01*
X287352Y485252D01*
X286336Y483220D01*
X287352Y481188D01*
X285320Y482204D01*
X283288Y481188D01*
X257888D02*
X258904Y483220D01*
X257888Y485252D01*
X259920Y484236D01*
X261952Y485252D01*
X260936Y483220D01*
X261952Y481188D01*
X259920Y482204D01*
X257888Y481188D01*
X232488D02*
X233504Y483220D01*
X232488Y485252D01*
X234520Y484236D01*
X236552Y485252D01*
X235536Y483220D01*
X236552Y481188D01*
X234520Y482204D01*
X232488Y481188D01*
X448388D02*
X449404Y483220D01*
X448388Y485252D01*
X450420Y484236D01*
X452452Y485252D01*
X451436Y483220D01*
X452452Y481188D01*
X450420Y482204D01*
X448388Y481188D01*
X422988D02*
X424004Y483220D01*
X422988Y485252D01*
X425020Y484236D01*
X427052Y485252D01*
X426036Y483220D01*
X427052Y481188D01*
X425020Y482204D01*
X422988Y481188D01*
X397588D02*
X398604Y483220D01*
X397588Y485252D01*
X399620Y484236D01*
X401652Y485252D01*
X400636Y483220D01*
X401652Y481188D01*
X399620Y482204D01*
X397588Y481188D01*
X613488D02*
X614504Y483220D01*
X613488Y485252D01*
X615520Y484236D01*
X617552Y485252D01*
X616536Y483220D01*
X617552Y481188D01*
X615520Y482204D01*
X613488Y481188D01*
X588088D02*
X589104Y483220D01*
X588088Y485252D01*
X590120Y484236D01*
X592152Y485252D01*
X591136Y483220D01*
X592152Y481188D01*
X590120Y482204D01*
X588088Y481188D01*
X562688D02*
X563704Y483220D01*
X562688Y485252D01*
X564720Y484236D01*
X566752Y485252D01*
X565736Y483220D01*
X566752Y481188D01*
X564720Y482204D01*
X562688Y481188D01*
X283288Y374508D02*
X284304Y376540D01*
X283288Y378572D01*
X285320Y377556D01*
X287352Y378572D01*
X286336Y376540D01*
X287352Y374508D01*
X285320Y375524D01*
X283288Y374508D01*
X257888D02*
X258904Y376540D01*
X257888Y378572D01*
X259920Y377556D01*
X261952Y378572D01*
X260936Y376540D01*
X261952Y374508D01*
X259920Y375524D01*
X257888Y374508D01*
X232488D02*
X233504Y376540D01*
X232488Y378572D01*
X234520Y377556D01*
X236552Y378572D01*
X235536Y376540D01*
X236552Y374508D01*
X234520Y375524D01*
X232488Y374508D01*
X448388D02*
X449404Y376540D01*
X448388Y378572D01*
X450420Y377556D01*
X452452Y378572D01*
X451436Y376540D01*
X452452Y374508D01*
X450420Y375524D01*
X448388Y374508D01*
X422988D02*
X424004Y376540D01*
X422988Y378572D01*
X425020Y377556D01*
X427052Y378572D01*
X426036Y376540D01*
X427052Y374508D01*
X425020Y375524D01*
X422988Y374508D01*
X397588D02*
X398604Y376540D01*
X397588Y378572D01*
X399620Y377556D01*
X401652Y378572D01*
X400636Y376540D01*
X401652Y374508D01*
X399620Y375524D01*
X397588Y374508D01*
X613488D02*
X614504Y376540D01*
X613488Y378572D01*
X615520Y377556D01*
X617552Y378572D01*
X616536Y376540D01*
X617552Y374508D01*
X615520Y375524D01*
X613488Y374508D01*
X588088D02*
X589104Y376540D01*
X588088Y378572D01*
X590120Y377556D01*
X592152Y378572D01*
X591136Y376540D01*
X592152Y374508D01*
X590120Y375524D01*
X588088Y374508D01*
X562688D02*
X563704Y376540D01*
X562688Y378572D01*
X564720Y377556D01*
X566752Y378572D01*
X565736Y376540D01*
X566752Y374508D01*
X564720Y375524D01*
X562688Y374508D01*
X283288Y267828D02*
X284304Y269860D01*
X283288Y271892D01*
X285320Y270876D01*
X287352Y271892D01*
X286336Y269860D01*
X287352Y267828D01*
X285320Y268844D01*
X283288Y267828D01*
X257888D02*
X258904Y269860D01*
X257888Y271892D01*
X259920Y270876D01*
X261952Y271892D01*
X260936Y269860D01*
X261952Y267828D01*
X259920Y268844D01*
X257888Y267828D01*
X232488D02*
X233504Y269860D01*
X232488Y271892D01*
X234520Y270876D01*
X236552Y271892D01*
X235536Y269860D01*
X236552Y267828D01*
X234520Y268844D01*
X232488Y267828D01*
X448388D02*
X449404Y269860D01*
X448388Y271892D01*
X450420Y270876D01*
X452452Y271892D01*
X451436Y269860D01*
X452452Y267828D01*
X450420Y268844D01*
X448388Y267828D01*
X422988D02*
X424004Y269860D01*
X422988Y271892D01*
X425020Y270876D01*
X427052Y271892D01*
X426036Y269860D01*
X427052Y267828D01*
X425020Y268844D01*
X422988Y267828D01*
X397588D02*
X398604Y269860D01*
X397588Y271892D01*
X399620Y270876D01*
X401652Y271892D01*
X400636Y269860D01*
X401652Y267828D01*
X399620Y268844D01*
X397588Y267828D01*
X613488D02*
X614504Y269860D01*
X613488Y271892D01*
X615520Y270876D01*
X617552Y271892D01*
X616536Y269860D01*
X617552Y267828D01*
X615520Y268844D01*
X613488Y267828D01*
X588088D02*
X589104Y269860D01*
X588088Y271892D01*
X590120Y270876D01*
X592152Y271892D01*
X591136Y269860D01*
X592152Y267828D01*
X590120Y268844D01*
X588088Y267828D01*
X562688D02*
X563704Y269860D01*
X562688Y271892D01*
X564720Y270876D01*
X566752Y271892D01*
X565736Y269860D01*
X566752Y267828D01*
X564720Y268844D01*
X562688Y267828D01*
X283288Y161148D02*
X284304Y163180D01*
X283288Y165212D01*
X285320Y164196D01*
X287352Y165212D01*
X286336Y163180D01*
X287352Y161148D01*
X285320Y162164D01*
X283288Y161148D01*
X257888D02*
X258904Y163180D01*
X257888Y165212D01*
X259920Y164196D01*
X261952Y165212D01*
X260936Y163180D01*
X261952Y161148D01*
X259920Y162164D01*
X257888Y161148D01*
X232488D02*
X233504Y163180D01*
X232488Y165212D01*
X234520Y164196D01*
X236552Y165212D01*
X235536Y163180D01*
X236552Y161148D01*
X234520Y162164D01*
X232488Y161148D01*
X448388D02*
X449404Y163180D01*
X448388Y165212D01*
X450420Y164196D01*
X452452Y165212D01*
X451436Y163180D01*
X452452Y161148D01*
X450420Y162164D01*
X448388Y161148D01*
X422988D02*
X424004Y163180D01*
X422988Y165212D01*
X425020Y164196D01*
X427052Y165212D01*
X426036Y163180D01*
X427052Y161148D01*
X425020Y162164D01*
X422988Y161148D01*
X397588D02*
X398604Y163180D01*
X397588Y165212D01*
X399620Y164196D01*
X401652Y165212D01*
X400636Y163180D01*
X401652Y161148D01*
X399620Y162164D01*
X397588Y161148D01*
X613488D02*
X614504Y163180D01*
X613488Y165212D01*
X615520Y164196D01*
X617552Y165212D01*
X616536Y163180D01*
X617552Y161148D01*
X615520Y162164D01*
X613488Y161148D01*
X588088D02*
X589104Y163180D01*
X588088Y165212D01*
X590120Y164196D01*
X592152Y165212D01*
X591136Y163180D01*
X592152Y161148D01*
X590120Y162164D01*
X588088Y161148D01*
X562688D02*
X563704Y163180D01*
X562688Y165212D01*
X564720Y164196D01*
X566752Y165212D01*
X565736Y163180D01*
X566752Y161148D01*
X564720Y162164D01*
X562688Y161148D01*
X274806Y1337564D02*
X275822Y1339596D01*
X274806Y1341628D01*
X276838Y1340612D01*
X278870Y1341628D01*
X277854Y1339596D01*
X278870Y1337564D01*
X276838Y1338580D01*
X274806Y1337564D01*
X249406D02*
X250422Y1339596D01*
X249406Y1341628D01*
X251438Y1340612D01*
X253470Y1341628D01*
X252454Y1339596D01*
X253470Y1337564D01*
X251438Y1338580D01*
X249406Y1337564D01*
X224006D02*
X225022Y1339596D01*
X224006Y1341628D01*
X226038Y1340612D01*
X228070Y1341628D01*
X227054Y1339596D01*
X228070Y1337564D01*
X226038Y1338580D01*
X224006Y1337564D01*
X496406Y1618488D02*
Y1617472D01*
X498438D01*
Y1618488D01*
X499454D01*
Y1620520D01*
X498438D01*
Y1621536D01*
X496406D01*
Y1620520D01*
X495390D01*
Y1618488D01*
X496406D01*
X471006D02*
Y1617472D01*
X473038D01*
Y1618488D01*
X474054D01*
Y1620520D01*
X473038D01*
Y1621536D01*
X471006D01*
Y1620520D01*
X469990D01*
Y1618488D01*
X471006D01*
X472022Y1592072D02*
X473038Y1593088D01*
X474054D01*
X473038Y1594104D01*
X474054Y1595120D01*
X473038D01*
X472022Y1596136D01*
X471006Y1595120D01*
X469990D01*
X471006Y1594104D01*
X469990Y1593088D01*
X471006D01*
X472022Y1592072D01*
X497422D02*
X498438Y1593088D01*
X499454D01*
X498438Y1594104D01*
X499454Y1595120D01*
X498438D01*
X497422Y1596136D01*
X496406Y1595120D01*
X495390D01*
X496406Y1594104D01*
X495390Y1593088D01*
X496406D01*
X497422Y1592072D01*
X716116Y1618488D02*
Y1617472D01*
X718148D01*
Y1618488D01*
X719164D01*
Y1620520D01*
X718148D01*
Y1621536D01*
X716116D01*
Y1620520D01*
X715100D01*
Y1618488D01*
X716116D01*
X690716D02*
Y1617472D01*
X692748D01*
Y1618488D01*
X693764D01*
Y1620520D01*
X692748D01*
Y1621536D01*
X690716D01*
Y1620520D01*
X689700D01*
Y1618488D01*
X690716D01*
X691732Y1592072D02*
X692748Y1593088D01*
X693764D01*
X692748Y1594104D01*
X693764Y1595120D01*
X692748D01*
X691732Y1596136D01*
X690716Y1595120D01*
X689700D01*
X690716Y1594104D01*
X689700Y1593088D01*
X690716D01*
X691732Y1592072D01*
X717132D02*
X718148Y1593088D01*
X719164D01*
X718148Y1594104D01*
X719164Y1595120D01*
X718148D01*
X717132Y1596136D01*
X716116Y1595120D01*
X715100D01*
X716116Y1594104D01*
X715100Y1593088D01*
X716116D01*
X717132Y1592072D01*
X580900Y1547448D02*
X581916D01*
X582932Y1548464D01*
X583948Y1547448D01*
X584964D01*
Y1548464D01*
X583948Y1549480D01*
X584964Y1550496D01*
Y1551512D01*
X583948D01*
X582932Y1550496D01*
X581916Y1551512D01*
X580900D01*
Y1550496D01*
X581916Y1549480D01*
X580900Y1548464D01*
Y1547448D01*
Y1487448D02*
X581916D01*
X582932Y1488464D01*
X583948Y1487448D01*
X584964D01*
Y1488464D01*
X583948Y1489480D01*
X584964Y1490496D01*
Y1491512D01*
X583948D01*
X582932Y1490496D01*
X581916Y1491512D01*
X580900D01*
Y1490496D01*
X581916Y1489480D01*
X580900Y1488464D01*
Y1487448D01*
X533900Y1519480D02*
X535932Y1521512D01*
X537964Y1519480D01*
X535932Y1517448D01*
X533900Y1519480D01*
X796800Y1547448D02*
X797816D01*
X798832Y1548464D01*
X799848Y1547448D01*
X800864D01*
Y1548464D01*
X799848Y1549480D01*
X800864Y1550496D01*
Y1551512D01*
X799848D01*
X798832Y1550496D01*
X797816Y1551512D01*
X796800D01*
Y1550496D01*
X797816Y1549480D01*
X796800Y1548464D01*
Y1547448D01*
Y1487448D02*
X797816D01*
X798832Y1488464D01*
X799848Y1487448D01*
X800864D01*
Y1488464D01*
X799848Y1489480D01*
X800864Y1490496D01*
Y1491512D01*
X799848D01*
X798832Y1490496D01*
X797816Y1491512D01*
X796800D01*
Y1490496D01*
X797816Y1489480D01*
X796800Y1488464D01*
Y1487448D01*
X749800Y1519480D02*
X751832Y1521512D01*
X753864Y1519480D01*
X751832Y1517448D01*
X749800Y1519480D01*
X209132Y25908D02*
X210148Y27940D01*
X209132Y29972D01*
X211164Y28956D01*
X213196Y29972D01*
X212180Y27940D01*
X213196Y25908D01*
X211164Y26924D01*
X209132Y25908D01*
Y50908D02*
X210148Y52940D01*
X209132Y54972D01*
X211164Y53956D01*
X213196Y54972D01*
X212180Y52940D01*
X213196Y50908D01*
X211164Y51924D01*
X209132Y50908D01*
Y75908D02*
X210148Y77940D01*
X209132Y79972D01*
X211164Y78956D01*
X213196Y79972D01*
X212180Y77940D01*
X213196Y75908D01*
X211164Y76924D01*
X209132Y75908D01*
X272632Y25908D02*
X273648Y27940D01*
X272632Y29972D01*
X274664Y28956D01*
X276696Y29972D01*
X275680Y27940D01*
X276696Y25908D01*
X274664Y26924D01*
X272632Y25908D01*
Y50908D02*
X273648Y52940D01*
X272632Y54972D01*
X274664Y53956D01*
X276696Y54972D01*
X275680Y52940D01*
X276696Y50908D01*
X274664Y51924D01*
X272632Y50908D01*
Y75908D02*
X273648Y77940D01*
X272632Y79972D01*
X274664Y78956D01*
X276696Y79972D01*
X275680Y77940D01*
X276696Y75908D01*
X274664Y76924D01*
X272632Y75908D01*
X336132Y25908D02*
X337148Y27940D01*
X336132Y29972D01*
X338164Y28956D01*
X340196Y29972D01*
X339180Y27940D01*
X340196Y25908D01*
X338164Y26924D01*
X336132Y25908D01*
Y50908D02*
X337148Y52940D01*
X336132Y54972D01*
X338164Y53956D01*
X340196Y54972D01*
X339180Y52940D01*
X340196Y50908D01*
X338164Y51924D01*
X336132Y50908D01*
Y75908D02*
X337148Y77940D01*
X336132Y79972D01*
X338164Y78956D01*
X340196Y79972D01*
X339180Y77940D01*
X340196Y75908D01*
X338164Y76924D01*
X336132Y75908D01*
X399632Y25908D02*
X400648Y27940D01*
X399632Y29972D01*
X401664Y28956D01*
X403696Y29972D01*
X402680Y27940D01*
X403696Y25908D01*
X401664Y26924D01*
X399632Y25908D01*
Y50908D02*
X400648Y52940D01*
X399632Y54972D01*
X401664Y53956D01*
X403696Y54972D01*
X402680Y52940D01*
X403696Y50908D01*
X401664Y51924D01*
X399632Y50908D01*
Y75908D02*
X400648Y77940D01*
X399632Y79972D01*
X401664Y78956D01*
X403696Y79972D01*
X402680Y77940D01*
X403696Y75908D01*
X401664Y76924D01*
X399632Y75908D01*
X463132Y25908D02*
X464148Y27940D01*
X463132Y29972D01*
X465164Y28956D01*
X467196Y29972D01*
X466180Y27940D01*
X467196Y25908D01*
X465164Y26924D01*
X463132Y25908D01*
Y50908D02*
X464148Y52940D01*
X463132Y54972D01*
X465164Y53956D01*
X467196Y54972D01*
X466180Y52940D01*
X467196Y50908D01*
X465164Y51924D01*
X463132Y50908D01*
Y75908D02*
X464148Y77940D01*
X463132Y79972D01*
X465164Y78956D01*
X467196Y79972D01*
X466180Y77940D01*
X467196Y75908D01*
X465164Y76924D01*
X463132Y75908D01*
X526632Y25908D02*
X527648Y27940D01*
X526632Y29972D01*
X528664Y28956D01*
X530696Y29972D01*
X529680Y27940D01*
X530696Y25908D01*
X528664Y26924D01*
X526632Y25908D01*
Y50908D02*
X527648Y52940D01*
X526632Y54972D01*
X528664Y53956D01*
X530696Y54972D01*
X529680Y52940D01*
X530696Y50908D01*
X528664Y51924D01*
X526632Y50908D01*
Y75908D02*
X527648Y77940D01*
X526632Y79972D01*
X528664Y78956D01*
X530696Y79972D01*
X529680Y77940D01*
X530696Y75908D01*
X528664Y76924D01*
X526632Y75908D01*
X590132Y25908D02*
X591148Y27940D01*
X590132Y29972D01*
X592164Y28956D01*
X594196Y29972D01*
X593180Y27940D01*
X594196Y25908D01*
X592164Y26924D01*
X590132Y25908D01*
Y50908D02*
X591148Y52940D01*
X590132Y54972D01*
X592164Y53956D01*
X594196Y54972D01*
X593180Y52940D01*
X594196Y50908D01*
X592164Y51924D01*
X590132Y50908D01*
Y75908D02*
X591148Y77940D01*
X590132Y79972D01*
X592164Y78956D01*
X594196Y79972D01*
X593180Y77940D01*
X594196Y75908D01*
X592164Y76924D01*
X590132Y75908D01*
X653632Y25908D02*
X654648Y27940D01*
X653632Y29972D01*
X655664Y28956D01*
X657696Y29972D01*
X656680Y27940D01*
X657696Y25908D01*
X655664Y26924D01*
X653632Y25908D01*
Y50908D02*
X654648Y52940D01*
X653632Y54972D01*
X655664Y53956D01*
X657696Y54972D01*
X656680Y52940D01*
X657696Y50908D01*
X655664Y51924D01*
X653632Y50908D01*
Y75908D02*
X654648Y77940D01*
X653632Y79972D01*
X655664Y78956D01*
X657696Y79972D01*
X656680Y77940D01*
X657696Y75908D01*
X655664Y76924D01*
X653632Y75908D01*
X357468Y1617726D02*
Y1616710D01*
X359500D01*
Y1617726D01*
X360516D01*
Y1619758D01*
X359500D01*
Y1620774D01*
X357468D01*
Y1619758D01*
X356452D01*
Y1617726D01*
X357468D01*
X332068D02*
Y1616710D01*
X334100D01*
Y1617726D01*
X335116D01*
Y1619758D01*
X334100D01*
Y1620774D01*
X332068D01*
Y1619758D01*
X331052D01*
Y1617726D01*
X332068D01*
X333084Y1591310D02*
X334100Y1592326D01*
X335116D01*
X334100Y1593342D01*
X335116Y1594358D01*
X334100D01*
X333084Y1595374D01*
X332068Y1594358D01*
X331052D01*
X332068Y1593342D01*
X331052Y1592326D01*
X332068D01*
X333084Y1591310D01*
X358484D02*
X359500Y1592326D01*
X360516D01*
X359500Y1593342D01*
X360516Y1594358D01*
X359500D01*
X358484Y1595374D01*
X357468Y1594358D01*
X356452D01*
X357468Y1593342D01*
X356452Y1592326D01*
X357468D01*
X358484Y1591310D01*
X190212Y1467438D02*
Y1471502D01*
X194276D01*
Y1467438D01*
X190212D01*
X191228Y1468454D02*
Y1470486D01*
X193260D01*
Y1468454D01*
X191228D01*
X747072Y1199688D02*
Y1203752D01*
X751136D01*
Y1199688D01*
X747072D01*
X748088Y1200704D02*
Y1202736D01*
X750120D01*
Y1200704D01*
X748088D01*
X259458Y1057099D02*
Y1061163D01*
X263522D01*
Y1057099D01*
X259458D01*
X260474Y1058115D02*
Y1060147D01*
X262506D01*
Y1058115D01*
X260474D01*
X427178Y1091058D02*
Y1095122D01*
X431242D01*
Y1091058D01*
X427178D01*
X428194Y1092074D02*
Y1094106D01*
X430226D01*
Y1092074D01*
X428194D01*
X445858Y1343528D02*
Y1347592D01*
X449922D01*
Y1343528D01*
X445858D01*
X446874Y1344544D02*
Y1346576D01*
X448906D01*
Y1344544D01*
X446874D01*
X816090Y1340358D02*
Y1344422D01*
X820154D01*
Y1340358D01*
X816090D01*
X817106Y1341374D02*
Y1343406D01*
X819138D01*
Y1341374D01*
X817106D01*
X426992Y1219018D02*
Y1223082D01*
X431056D01*
Y1219018D01*
X426992D01*
X428008Y1220034D02*
Y1222066D01*
X430040D01*
Y1220034D01*
X428008D01*
X729070Y1297178D02*
Y1301242D01*
X733134D01*
Y1297178D01*
X729070D01*
X730086Y1298194D02*
Y1300226D01*
X732118D01*
Y1298194D01*
X730086D01*
X504788Y1195502D02*
Y1199566D01*
X508852D01*
Y1195502D01*
X504788D01*
X505804Y1196518D02*
Y1198550D01*
X507836D01*
Y1196518D01*
X505804D01*
X321726Y1208858D02*
Y1212922D01*
X325790D01*
Y1208858D01*
X321726D01*
X322742Y1209874D02*
Y1211906D01*
X324774D01*
Y1209874D01*
X322742D01*
X513424Y1326316D02*
Y1330380D01*
X517488D01*
Y1326316D01*
X513424D01*
X514440Y1327332D02*
Y1329364D01*
X516472D01*
Y1327332D01*
X514440D01*
X671666Y1155844D02*
Y1159908D01*
X675730D01*
Y1155844D01*
X671666D01*
X672682Y1156860D02*
Y1158892D01*
X674714D01*
Y1156860D01*
X672682D01*
X447892Y1212596D02*
Y1216660D01*
X451956D01*
Y1212596D01*
X447892D01*
X448908Y1213612D02*
Y1215644D01*
X450940D01*
Y1213612D01*
X448908D01*
X440780Y1270981D02*
Y1275045D01*
X444844D01*
Y1270981D01*
X440780D01*
X441796Y1271997D02*
Y1274029D01*
X443828D01*
Y1271997D01*
X441796D01*
X672478Y1270328D02*
Y1274392D01*
X676542D01*
Y1270328D01*
X672478D01*
X673494Y1271344D02*
Y1273376D01*
X675526D01*
Y1271344D01*
X673494D01*
X689700Y1220980D02*
Y1225044D01*
X693764D01*
Y1220980D01*
X689700D01*
X690716Y1221996D02*
Y1224028D01*
X692748D01*
Y1221996D01*
X690716D01*
X652616Y1271812D02*
Y1275876D01*
X656680D01*
Y1271812D01*
X652616D01*
X653632Y1272828D02*
Y1274860D01*
X655664D01*
Y1272828D01*
X653632D01*
X613398Y1288856D02*
Y1292920D01*
X617462D01*
Y1288856D01*
X613398D01*
X614414Y1289872D02*
Y1291904D01*
X616446D01*
Y1289872D01*
X614414D01*
X301476Y1379982D02*
Y1384046D01*
X305540D01*
Y1379982D01*
X301476D01*
X302492Y1380998D02*
Y1383030D01*
X304524D01*
Y1380998D01*
X302492D01*
X217146Y1354328D02*
Y1358392D01*
X221210D01*
Y1354328D01*
X217146D01*
X218162Y1355344D02*
Y1357376D01*
X220194D01*
Y1355344D01*
X218162D01*
X226917Y1188228D02*
Y1192292D01*
X230981D01*
Y1188228D01*
X226917D01*
X227933Y1189244D02*
Y1191276D01*
X229965D01*
Y1189244D01*
X227933D01*
X483836Y1279906D02*
Y1283970D01*
X487900D01*
Y1279906D01*
X483836D01*
X484852Y1280922D02*
Y1282954D01*
X486884D01*
Y1280922D01*
X484852D01*
X507108Y1043008D02*
Y1047072D01*
X511172D01*
Y1043008D01*
X507108D01*
X508124Y1044024D02*
Y1046056D01*
X510156D01*
Y1044024D01*
X508124D01*
X507108Y829648D02*
Y833712D01*
X511172D01*
Y829648D01*
X507108D01*
X508124Y830664D02*
Y832696D01*
X510156D01*
Y830664D01*
X508124D01*
X507108Y722968D02*
Y727032D01*
X511172D01*
Y722968D01*
X507108D01*
X508124Y723984D02*
Y726016D01*
X510156D01*
Y723984D01*
X508124D01*
X507108Y616288D02*
Y620352D01*
X511172D01*
Y616288D01*
X507108D01*
X508124Y617304D02*
Y619336D01*
X510156D01*
Y617304D01*
X508124D01*
X506148Y508648D02*
Y512712D01*
X510212D01*
Y508648D01*
X506148D01*
X507164Y509664D02*
Y511696D01*
X509196D01*
Y509664D01*
X507164D01*
X506148Y401968D02*
Y406032D01*
X510212D01*
Y401968D01*
X506148D01*
X507164Y402984D02*
Y405016D01*
X509196D01*
Y402984D01*
X507164D01*
X506148Y188608D02*
Y192672D01*
X510212D01*
Y188608D01*
X506148D01*
X507164Y189624D02*
Y191656D01*
X509196D01*
Y189624D01*
X507164D01*
X341048Y188608D02*
Y192672D01*
X345112D01*
Y188608D01*
X341048D01*
X342064Y189624D02*
Y191656D01*
X344096D01*
Y189624D01*
X342064D01*
X341048Y401968D02*
Y406032D01*
X345112D01*
Y401968D01*
X341048D01*
X342064Y402984D02*
Y405016D01*
X344096D01*
Y402984D01*
X342064D01*
X341048Y508648D02*
Y512712D01*
X345112D01*
Y508648D01*
X341048D01*
X342064Y509664D02*
Y511696D01*
X344096D01*
Y509664D01*
X342064D01*
X342008Y616288D02*
Y620352D01*
X346072D01*
Y616288D01*
X342008D01*
X343024Y617304D02*
Y619336D01*
X345056D01*
Y617304D01*
X343024D01*
X342008Y722968D02*
Y727032D01*
X346072D01*
Y722968D01*
X342008D01*
X343024Y723984D02*
Y726016D01*
X345056D01*
Y723984D01*
X343024D01*
X342008Y829648D02*
Y833712D01*
X346072D01*
Y829648D01*
X342008D01*
X343024Y830664D02*
Y832696D01*
X345056D01*
Y830664D01*
X343024D01*
X342008Y936328D02*
Y940392D01*
X346072D01*
Y936328D01*
X342008D01*
X343024Y937344D02*
Y939376D01*
X345056D01*
Y937344D01*
X343024D01*
X507108Y936328D02*
Y940392D01*
X511172D01*
Y936328D01*
X507108D01*
X508124Y937344D02*
Y939376D01*
X510156D01*
Y937344D01*
X508124D01*
X371072Y1472438D02*
Y1476502D01*
X375136D01*
Y1472438D01*
X371072D01*
X372088Y1473454D02*
Y1475486D01*
X374120D01*
Y1473454D01*
X372088D01*
X256296Y1405978D02*
Y1410042D01*
X260360D01*
Y1405978D01*
X256296D01*
X257312Y1406994D02*
Y1409026D01*
X259344D01*
Y1406994D01*
X257312D01*
X256296Y1416978D02*
Y1421042D01*
X260360D01*
Y1416978D01*
X256296D01*
X257312Y1417994D02*
Y1420026D01*
X259344D01*
Y1417994D01*
X257312D01*
X267296Y1405978D02*
Y1410042D01*
X271360D01*
Y1405978D01*
X267296D01*
X268312Y1406994D02*
Y1409026D01*
X270344D01*
Y1406994D01*
X268312D01*
X267296Y1416978D02*
Y1421042D01*
X271360D01*
Y1416978D01*
X267296D01*
X268312Y1417994D02*
Y1420026D01*
X270344D01*
Y1417994D01*
X268312D01*
X278296Y1405978D02*
Y1410042D01*
X282360D01*
Y1405978D01*
X278296D01*
X279312Y1406994D02*
Y1409026D01*
X281344D01*
Y1406994D01*
X279312D01*
X278296Y1416978D02*
Y1421042D01*
X282360D01*
Y1416978D01*
X278296D01*
X279312Y1417994D02*
Y1420026D01*
X281344D01*
Y1417994D01*
X279312D01*
X224063Y1114514D02*
Y1118578D01*
X228127D01*
Y1114514D01*
X224063D01*
X225079Y1115530D02*
Y1117562D01*
X227111D01*
Y1115530D01*
X225079D01*
X224063Y1125514D02*
Y1129578D01*
X228127D01*
Y1125514D01*
X224063D01*
X225079Y1126530D02*
Y1128562D01*
X227111D01*
Y1126530D01*
X225079D01*
X235063Y1114514D02*
Y1118578D01*
X239127D01*
Y1114514D01*
X235063D01*
X236079Y1115530D02*
Y1117562D01*
X238111D01*
Y1115530D01*
X236079D01*
X235063Y1125514D02*
Y1129578D01*
X239127D01*
Y1125514D01*
X235063D01*
X236079Y1126530D02*
Y1128562D01*
X238111D01*
Y1126530D01*
X236079D01*
X246063Y1114514D02*
Y1118578D01*
X250127D01*
Y1114514D01*
X246063D01*
X247079Y1115530D02*
Y1117562D01*
X249111D01*
Y1115530D01*
X247079D01*
X246063Y1125514D02*
Y1129578D01*
X250127D01*
Y1125514D01*
X246063D01*
X247079Y1126530D02*
Y1128562D01*
X249111D01*
Y1126530D01*
X247079D01*
X405428Y1106562D02*
Y1110626D01*
X409492D01*
Y1106562D01*
X405428D01*
X406444Y1107578D02*
Y1109610D01*
X408476D01*
Y1107578D01*
X406444D01*
X394428Y1106562D02*
Y1110626D01*
X398492D01*
Y1106562D01*
X394428D01*
X395444Y1107578D02*
Y1109610D01*
X397476D01*
Y1107578D01*
X395444D01*
X405428Y1117562D02*
Y1121626D01*
X409492D01*
Y1117562D01*
X405428D01*
X406444Y1118578D02*
Y1120610D01*
X408476D01*
Y1118578D01*
X406444D01*
X394428Y1117562D02*
Y1121626D01*
X398492D01*
Y1117562D01*
X394428D01*
X395444Y1118578D02*
Y1120610D01*
X397476D01*
Y1118578D01*
X395444D01*
X405428Y1128562D02*
Y1132626D01*
X409492D01*
Y1128562D01*
X405428D01*
X406444Y1129578D02*
Y1131610D01*
X408476D01*
Y1129578D01*
X406444D01*
X394428Y1128562D02*
Y1132626D01*
X398492D01*
Y1128562D01*
X394428D01*
X395444Y1129578D02*
Y1131610D01*
X397476D01*
Y1129578D01*
X395444D01*
X595928Y1106562D02*
Y1110626D01*
X599992D01*
Y1106562D01*
X595928D01*
X596944Y1107578D02*
Y1109610D01*
X598976D01*
Y1107578D01*
X596944D01*
X584928Y1106562D02*
Y1110626D01*
X588992D01*
Y1106562D01*
X584928D01*
X585944Y1107578D02*
Y1109610D01*
X587976D01*
Y1107578D01*
X585944D01*
X595928Y1117562D02*
Y1121626D01*
X599992D01*
Y1117562D01*
X595928D01*
X596944Y1118578D02*
Y1120610D01*
X598976D01*
Y1118578D01*
X596944D01*
X584928Y1117562D02*
Y1121626D01*
X588992D01*
Y1117562D01*
X584928D01*
X585944Y1118578D02*
Y1120610D01*
X587976D01*
Y1118578D01*
X585944D01*
X595928Y1128562D02*
Y1132626D01*
X599992D01*
Y1128562D01*
X595928D01*
X596944Y1129578D02*
Y1131610D01*
X598976D01*
Y1129578D01*
X596944D01*
X584928Y1128562D02*
Y1132626D01*
X588992D01*
Y1128562D01*
X584928D01*
X585944Y1129578D02*
Y1131610D01*
X587976D01*
Y1129578D01*
X585944D01*
X623004Y1233566D02*
Y1237630D01*
X627068D01*
Y1233566D01*
X623004D01*
X624020Y1234582D02*
Y1236614D01*
X626052D01*
Y1234582D01*
X624020D01*
X612004Y1233566D02*
Y1237630D01*
X616068D01*
Y1233566D01*
X612004D01*
X613020Y1234582D02*
Y1236614D01*
X615052D01*
Y1234582D01*
X613020D01*
X623004Y1244566D02*
Y1248630D01*
X627068D01*
Y1244566D01*
X623004D01*
X624020Y1245582D02*
Y1247614D01*
X626052D01*
Y1245582D01*
X624020D01*
X612004Y1244566D02*
Y1248630D01*
X616068D01*
Y1244566D01*
X612004D01*
X613020Y1245582D02*
Y1247614D01*
X615052D01*
Y1245582D01*
X613020D01*
X623004Y1255566D02*
Y1259630D01*
X627068D01*
Y1255566D01*
X623004D01*
X624020Y1256582D02*
Y1258614D01*
X626052D01*
Y1256582D01*
X624020D01*
X612004Y1255566D02*
Y1259630D01*
X616068D01*
Y1255566D01*
X612004D01*
X613020Y1256582D02*
Y1258614D01*
X615052D01*
Y1256582D01*
X613020D01*
X405242Y1234522D02*
Y1238586D01*
X409306D01*
Y1234522D01*
X405242D01*
X406258Y1235538D02*
Y1237570D01*
X408290D01*
Y1235538D01*
X406258D01*
X394242Y1234522D02*
Y1238586D01*
X398306D01*
Y1234522D01*
X394242D01*
X395258Y1235538D02*
Y1237570D01*
X397290D01*
Y1235538D01*
X395258D01*
X405242Y1245522D02*
Y1249586D01*
X409306D01*
Y1245522D01*
X405242D01*
X406258Y1246538D02*
Y1248570D01*
X408290D01*
Y1246538D01*
X406258D01*
X394242Y1245522D02*
Y1249586D01*
X398306D01*
Y1245522D01*
X394242D01*
X395258Y1246538D02*
Y1248570D01*
X397290D01*
Y1246538D01*
X395258D01*
X405242Y1256522D02*
Y1260586D01*
X409306D01*
Y1256522D01*
X405242D01*
X406258Y1257538D02*
Y1259570D01*
X408290D01*
Y1257538D01*
X406258D01*
X394242Y1256522D02*
Y1260586D01*
X398306D01*
Y1256522D01*
X394242D01*
X395258Y1257538D02*
Y1259570D01*
X397290D01*
Y1257538D01*
X395258D01*
X247198Y199108D02*
Y203172D01*
X251262D01*
Y199108D01*
X247198D01*
X248214Y200124D02*
Y202156D01*
X250246D01*
Y200124D01*
X248214D01*
X258198Y199108D02*
Y203172D01*
X262262D01*
Y199108D01*
X258198D01*
X259214Y200124D02*
Y202156D01*
X261246D01*
Y200124D01*
X259214D01*
X247198Y188108D02*
Y192172D01*
X251262D01*
Y188108D01*
X247198D01*
X248214Y189124D02*
Y191156D01*
X250246D01*
Y189124D01*
X248214D01*
X258198Y188108D02*
Y192172D01*
X262262D01*
Y188108D01*
X258198D01*
X259214Y189124D02*
Y191156D01*
X261246D01*
Y189124D01*
X259214D01*
X577266Y199048D02*
Y203112D01*
X581330D01*
Y199048D01*
X577266D01*
X578282Y200064D02*
Y202096D01*
X580314D01*
Y200064D01*
X578282D01*
X588266Y199048D02*
Y203112D01*
X592330D01*
Y199048D01*
X588266D01*
X589282Y200064D02*
Y202096D01*
X591314D01*
Y200064D01*
X589282D01*
X577266Y188048D02*
Y192112D01*
X581330D01*
Y188048D01*
X577266D01*
X578282Y189064D02*
Y191096D01*
X580314D01*
Y189064D01*
X578282D01*
X588266Y188048D02*
Y192112D01*
X592330D01*
Y188048D01*
X588266D01*
X589282Y189064D02*
Y191096D01*
X591314D01*
Y189064D01*
X589282D01*
X412298Y199108D02*
Y203172D01*
X416362D01*
Y199108D01*
X412298D01*
X413314Y200124D02*
Y202156D01*
X415346D01*
Y200124D01*
X413314D01*
X423298Y199108D02*
Y203172D01*
X427362D01*
Y199108D01*
X423298D01*
X424314Y200124D02*
Y202156D01*
X426346D01*
Y200124D01*
X424314D01*
X412298Y188108D02*
Y192172D01*
X416362D01*
Y188108D01*
X412298D01*
X413314Y189124D02*
Y191156D01*
X415346D01*
Y189124D01*
X413314D01*
X423298Y188108D02*
Y192172D01*
X427362D01*
Y188108D01*
X423298D01*
X424314Y189124D02*
Y191156D01*
X426346D01*
Y189124D01*
X424314D01*
X577398Y305788D02*
Y309852D01*
X581462D01*
Y305788D01*
X577398D01*
X578414Y306804D02*
Y308836D01*
X580446D01*
Y306804D01*
X578414D01*
X588398Y305788D02*
Y309852D01*
X592462D01*
Y305788D01*
X588398D01*
X589414Y306804D02*
Y308836D01*
X591446D01*
Y306804D01*
X589414D01*
X577398Y294788D02*
Y298852D01*
X581462D01*
Y294788D01*
X577398D01*
X578414Y295804D02*
Y297836D01*
X580446D01*
Y295804D01*
X578414D01*
X588398Y294788D02*
Y298852D01*
X592462D01*
Y294788D01*
X588398D01*
X589414Y295804D02*
Y297836D01*
X591446D01*
Y295804D01*
X589414D01*
X412298Y305788D02*
Y309852D01*
X416362D01*
Y305788D01*
X412298D01*
X413314Y306804D02*
Y308836D01*
X415346D01*
Y306804D01*
X413314D01*
X423298Y305788D02*
Y309852D01*
X427362D01*
Y305788D01*
X423298D01*
X424314Y306804D02*
Y308836D01*
X426346D01*
Y306804D01*
X424314D01*
X412298Y294788D02*
Y298852D01*
X416362D01*
Y294788D01*
X412298D01*
X413314Y295804D02*
Y297836D01*
X415346D01*
Y295804D01*
X413314D01*
X423298Y294788D02*
Y298852D01*
X427362D01*
Y294788D01*
X423298D01*
X424314Y295804D02*
Y297836D01*
X426346D01*
Y295804D01*
X424314D01*
X247198Y305788D02*
Y309852D01*
X251262D01*
Y305788D01*
X247198D01*
X248214Y306804D02*
Y308836D01*
X250246D01*
Y306804D01*
X248214D01*
X258198Y305788D02*
Y309852D01*
X262262D01*
Y305788D01*
X258198D01*
X259214Y306804D02*
Y308836D01*
X261246D01*
Y306804D01*
X259214D01*
X247198Y294788D02*
Y298852D01*
X251262D01*
Y294788D01*
X247198D01*
X248214Y295804D02*
Y297836D01*
X250246D01*
Y295804D01*
X248214D01*
X258198Y294788D02*
Y298852D01*
X262262D01*
Y294788D01*
X258198D01*
X259214Y295804D02*
Y297836D01*
X261246D01*
Y295804D01*
X259214D01*
X577398Y412468D02*
Y416532D01*
X581462D01*
Y412468D01*
X577398D01*
X578414Y413484D02*
Y415516D01*
X580446D01*
Y413484D01*
X578414D01*
X588398Y412468D02*
Y416532D01*
X592462D01*
Y412468D01*
X588398D01*
X589414Y413484D02*
Y415516D01*
X591446D01*
Y413484D01*
X589414D01*
X577398Y401468D02*
Y405532D01*
X581462D01*
Y401468D01*
X577398D01*
X578414Y402484D02*
Y404516D01*
X580446D01*
Y402484D01*
X578414D01*
X588398Y401468D02*
Y405532D01*
X592462D01*
Y401468D01*
X588398D01*
X589414Y402484D02*
Y404516D01*
X591446D01*
Y402484D01*
X589414D01*
X412298Y412468D02*
Y416532D01*
X416362D01*
Y412468D01*
X412298D01*
X413314Y413484D02*
Y415516D01*
X415346D01*
Y413484D01*
X413314D01*
X423298Y412468D02*
Y416532D01*
X427362D01*
Y412468D01*
X423298D01*
X424314Y413484D02*
Y415516D01*
X426346D01*
Y413484D01*
X424314D01*
X412298Y401468D02*
Y405532D01*
X416362D01*
Y401468D01*
X412298D01*
X413314Y402484D02*
Y404516D01*
X415346D01*
Y402484D01*
X413314D01*
X423298Y401468D02*
Y405532D01*
X427362D01*
Y401468D01*
X423298D01*
X424314Y402484D02*
Y404516D01*
X426346D01*
Y402484D01*
X424314D01*
X247198Y412468D02*
Y416532D01*
X251262D01*
Y412468D01*
X247198D01*
X248214Y413484D02*
Y415516D01*
X250246D01*
Y413484D01*
X248214D01*
X258198Y412468D02*
Y416532D01*
X262262D01*
Y412468D01*
X258198D01*
X259214Y413484D02*
Y415516D01*
X261246D01*
Y413484D01*
X259214D01*
X247198Y401468D02*
Y405532D01*
X251262D01*
Y401468D01*
X247198D01*
X248214Y402484D02*
Y404516D01*
X250246D01*
Y402484D01*
X248214D01*
X258198Y401468D02*
Y405532D01*
X262262D01*
Y401468D01*
X258198D01*
X259214Y402484D02*
Y404516D01*
X261246D01*
Y402484D01*
X259214D01*
X577398Y519148D02*
Y523212D01*
X581462D01*
Y519148D01*
X577398D01*
X578414Y520164D02*
Y522196D01*
X580446D01*
Y520164D01*
X578414D01*
X588398Y519148D02*
Y523212D01*
X592462D01*
Y519148D01*
X588398D01*
X589414Y520164D02*
Y522196D01*
X591446D01*
Y520164D01*
X589414D01*
X577398Y508148D02*
Y512212D01*
X581462D01*
Y508148D01*
X577398D01*
X578414Y509164D02*
Y511196D01*
X580446D01*
Y509164D01*
X578414D01*
X588398Y508148D02*
Y512212D01*
X592462D01*
Y508148D01*
X588398D01*
X589414Y509164D02*
Y511196D01*
X591446D01*
Y509164D01*
X589414D01*
X412298Y519148D02*
Y523212D01*
X416362D01*
Y519148D01*
X412298D01*
X413314Y520164D02*
Y522196D01*
X415346D01*
Y520164D01*
X413314D01*
X423298Y519148D02*
Y523212D01*
X427362D01*
Y519148D01*
X423298D01*
X424314Y520164D02*
Y522196D01*
X426346D01*
Y520164D01*
X424314D01*
X412298Y508148D02*
Y512212D01*
X416362D01*
Y508148D01*
X412298D01*
X413314Y509164D02*
Y511196D01*
X415346D01*
Y509164D01*
X413314D01*
X423298Y508148D02*
Y512212D01*
X427362D01*
Y508148D01*
X423298D01*
X424314Y509164D02*
Y511196D01*
X426346D01*
Y509164D01*
X424314D01*
X247198Y519148D02*
Y523212D01*
X251262D01*
Y519148D01*
X247198D01*
X248214Y520164D02*
Y522196D01*
X250246D01*
Y520164D01*
X248214D01*
X258198Y519148D02*
Y523212D01*
X262262D01*
Y519148D01*
X258198D01*
X259214Y520164D02*
Y522196D01*
X261246D01*
Y520164D01*
X259214D01*
X247198Y508148D02*
Y512212D01*
X251262D01*
Y508148D01*
X247198D01*
X248214Y509164D02*
Y511196D01*
X250246D01*
Y509164D01*
X248214D01*
X258198Y508148D02*
Y512212D01*
X262262D01*
Y508148D01*
X258198D01*
X259214Y509164D02*
Y511196D01*
X261246D01*
Y509164D01*
X259214D01*
X578358Y626788D02*
Y630852D01*
X582422D01*
Y626788D01*
X578358D01*
X579374Y627804D02*
Y629836D01*
X581406D01*
Y627804D01*
X579374D01*
X589358Y626788D02*
Y630852D01*
X593422D01*
Y626788D01*
X589358D01*
X590374Y627804D02*
Y629836D01*
X592406D01*
Y627804D01*
X590374D01*
X578358Y615788D02*
Y619852D01*
X582422D01*
Y615788D01*
X578358D01*
X579374Y616804D02*
Y618836D01*
X581406D01*
Y616804D01*
X579374D01*
X589358Y615788D02*
Y619852D01*
X593422D01*
Y615788D01*
X589358D01*
X590374Y616804D02*
Y618836D01*
X592406D01*
Y616804D01*
X590374D01*
X413258Y626788D02*
Y630852D01*
X417322D01*
Y626788D01*
X413258D01*
X414274Y627804D02*
Y629836D01*
X416306D01*
Y627804D01*
X414274D01*
X424258Y626788D02*
Y630852D01*
X428322D01*
Y626788D01*
X424258D01*
X425274Y627804D02*
Y629836D01*
X427306D01*
Y627804D01*
X425274D01*
X413258Y615788D02*
Y619852D01*
X417322D01*
Y615788D01*
X413258D01*
X414274Y616804D02*
Y618836D01*
X416306D01*
Y616804D01*
X414274D01*
X424258Y615788D02*
Y619852D01*
X428322D01*
Y615788D01*
X424258D01*
X425274Y616804D02*
Y618836D01*
X427306D01*
Y616804D01*
X425274D01*
X248158Y626788D02*
Y630852D01*
X252222D01*
Y626788D01*
X248158D01*
X249174Y627804D02*
Y629836D01*
X251206D01*
Y627804D01*
X249174D01*
X259158Y626788D02*
Y630852D01*
X263222D01*
Y626788D01*
X259158D01*
X260174Y627804D02*
Y629836D01*
X262206D01*
Y627804D01*
X260174D01*
X248158Y615788D02*
Y619852D01*
X252222D01*
Y615788D01*
X248158D01*
X249174Y616804D02*
Y618836D01*
X251206D01*
Y616804D01*
X249174D01*
X259158Y615788D02*
Y619852D01*
X263222D01*
Y615788D01*
X259158D01*
X260174Y616804D02*
Y618836D01*
X262206D01*
Y616804D01*
X260174D01*
X578358Y733468D02*
Y737532D01*
X582422D01*
Y733468D01*
X578358D01*
X579374Y734484D02*
Y736516D01*
X581406D01*
Y734484D01*
X579374D01*
X589358Y733468D02*
Y737532D01*
X593422D01*
Y733468D01*
X589358D01*
X590374Y734484D02*
Y736516D01*
X592406D01*
Y734484D01*
X590374D01*
X578358Y722468D02*
Y726532D01*
X582422D01*
Y722468D01*
X578358D01*
X579374Y723484D02*
Y725516D01*
X581406D01*
Y723484D01*
X579374D01*
X589358Y722468D02*
Y726532D01*
X593422D01*
Y722468D01*
X589358D01*
X590374Y723484D02*
Y725516D01*
X592406D01*
Y723484D01*
X590374D01*
X413258Y733468D02*
Y737532D01*
X417322D01*
Y733468D01*
X413258D01*
X414274Y734484D02*
Y736516D01*
X416306D01*
Y734484D01*
X414274D01*
X424258Y733468D02*
Y737532D01*
X428322D01*
Y733468D01*
X424258D01*
X425274Y734484D02*
Y736516D01*
X427306D01*
Y734484D01*
X425274D01*
X413258Y722468D02*
Y726532D01*
X417322D01*
Y722468D01*
X413258D01*
X414274Y723484D02*
Y725516D01*
X416306D01*
Y723484D01*
X414274D01*
X424258Y722468D02*
Y726532D01*
X428322D01*
Y722468D01*
X424258D01*
X425274Y723484D02*
Y725516D01*
X427306D01*
Y723484D01*
X425274D01*
X248158Y733468D02*
Y737532D01*
X252222D01*
Y733468D01*
X248158D01*
X249174Y734484D02*
Y736516D01*
X251206D01*
Y734484D01*
X249174D01*
X259158Y733468D02*
Y737532D01*
X263222D01*
Y733468D01*
X259158D01*
X260174Y734484D02*
Y736516D01*
X262206D01*
Y734484D01*
X260174D01*
X248158Y722468D02*
Y726532D01*
X252222D01*
Y722468D01*
X248158D01*
X249174Y723484D02*
Y725516D01*
X251206D01*
Y723484D01*
X249174D01*
X259158Y722468D02*
Y726532D01*
X263222D01*
Y722468D01*
X259158D01*
X260174Y723484D02*
Y725516D01*
X262206D01*
Y723484D01*
X260174D01*
X578358Y840148D02*
Y844212D01*
X582422D01*
Y840148D01*
X578358D01*
X579374Y841164D02*
Y843196D01*
X581406D01*
Y841164D01*
X579374D01*
X589358Y840148D02*
Y844212D01*
X593422D01*
Y840148D01*
X589358D01*
X590374Y841164D02*
Y843196D01*
X592406D01*
Y841164D01*
X590374D01*
X578358Y829148D02*
Y833212D01*
X582422D01*
Y829148D01*
X578358D01*
X579374Y830164D02*
Y832196D01*
X581406D01*
Y830164D01*
X579374D01*
X589358Y829148D02*
Y833212D01*
X593422D01*
Y829148D01*
X589358D01*
X590374Y830164D02*
Y832196D01*
X592406D01*
Y830164D01*
X590374D01*
X413258Y840148D02*
Y844212D01*
X417322D01*
Y840148D01*
X413258D01*
X414274Y841164D02*
Y843196D01*
X416306D01*
Y841164D01*
X414274D01*
X424258Y840148D02*
Y844212D01*
X428322D01*
Y840148D01*
X424258D01*
X425274Y841164D02*
Y843196D01*
X427306D01*
Y841164D01*
X425274D01*
X413258Y829148D02*
Y833212D01*
X417322D01*
Y829148D01*
X413258D01*
X414274Y830164D02*
Y832196D01*
X416306D01*
Y830164D01*
X414274D01*
X424258Y829148D02*
Y833212D01*
X428322D01*
Y829148D01*
X424258D01*
X425274Y830164D02*
Y832196D01*
X427306D01*
Y830164D01*
X425274D01*
X248158Y840148D02*
Y844212D01*
X252222D01*
Y840148D01*
X248158D01*
X249174Y841164D02*
Y843196D01*
X251206D01*
Y841164D01*
X249174D01*
X259158Y840148D02*
Y844212D01*
X263222D01*
Y840148D01*
X259158D01*
X260174Y841164D02*
Y843196D01*
X262206D01*
Y841164D01*
X260174D01*
X248158Y829148D02*
Y833212D01*
X252222D01*
Y829148D01*
X248158D01*
X249174Y830164D02*
Y832196D01*
X251206D01*
Y830164D01*
X249174D01*
X259158Y829148D02*
Y833212D01*
X263222D01*
Y829148D01*
X259158D01*
X260174Y830164D02*
Y832196D01*
X262206D01*
Y830164D01*
X260174D01*
X578358Y946828D02*
Y950892D01*
X582422D01*
Y946828D01*
X578358D01*
X579374Y947844D02*
Y949876D01*
X581406D01*
Y947844D01*
X579374D01*
X589358Y946828D02*
Y950892D01*
X593422D01*
Y946828D01*
X589358D01*
X590374Y947844D02*
Y949876D01*
X592406D01*
Y947844D01*
X590374D01*
X578358Y935828D02*
Y939892D01*
X582422D01*
Y935828D01*
X578358D01*
X579374Y936844D02*
Y938876D01*
X581406D01*
Y936844D01*
X579374D01*
X589358Y935828D02*
Y939892D01*
X593422D01*
Y935828D01*
X589358D01*
X590374Y936844D02*
Y938876D01*
X592406D01*
Y936844D01*
X590374D01*
X413258Y946828D02*
Y950892D01*
X417322D01*
Y946828D01*
X413258D01*
X414274Y947844D02*
Y949876D01*
X416306D01*
Y947844D01*
X414274D01*
X424258Y946828D02*
Y950892D01*
X428322D01*
Y946828D01*
X424258D01*
X425274Y947844D02*
Y949876D01*
X427306D01*
Y947844D01*
X425274D01*
X413258Y935828D02*
Y939892D01*
X417322D01*
Y935828D01*
X413258D01*
X414274Y936844D02*
Y938876D01*
X416306D01*
Y936844D01*
X414274D01*
X424258Y935828D02*
Y939892D01*
X428322D01*
Y935828D01*
X424258D01*
X425274Y936844D02*
Y938876D01*
X427306D01*
Y936844D01*
X425274D01*
X248158Y946828D02*
Y950892D01*
X252222D01*
Y946828D01*
X248158D01*
X249174Y947844D02*
Y949876D01*
X251206D01*
Y947844D01*
X249174D01*
X259158Y946828D02*
Y950892D01*
X263222D01*
Y946828D01*
X259158D01*
X260174Y947844D02*
Y949876D01*
X262206D01*
Y947844D01*
X260174D01*
X248158Y935828D02*
Y939892D01*
X252222D01*
Y935828D01*
X248158D01*
X249174Y936844D02*
Y938876D01*
X251206D01*
Y936844D01*
X249174D01*
X259158Y935828D02*
Y939892D01*
X263222D01*
Y935828D01*
X259158D01*
X260174Y936844D02*
Y938876D01*
X262206D01*
Y936844D01*
X260174D01*
X578358Y1053508D02*
Y1057572D01*
X582422D01*
Y1053508D01*
X578358D01*
X579374Y1054524D02*
Y1056556D01*
X581406D01*
Y1054524D01*
X579374D01*
X589358Y1053508D02*
Y1057572D01*
X593422D01*
Y1053508D01*
X589358D01*
X590374Y1054524D02*
Y1056556D01*
X592406D01*
Y1054524D01*
X590374D01*
X578358Y1042508D02*
Y1046572D01*
X582422D01*
Y1042508D01*
X578358D01*
X579374Y1043524D02*
Y1045556D01*
X581406D01*
Y1043524D01*
X579374D01*
X589358Y1042508D02*
Y1046572D01*
X593422D01*
Y1042508D01*
X589358D01*
X590374Y1043524D02*
Y1045556D01*
X592406D01*
Y1043524D01*
X590374D01*
X413258Y1053508D02*
Y1057572D01*
X417322D01*
Y1053508D01*
X413258D01*
X414274Y1054524D02*
Y1056556D01*
X416306D01*
Y1054524D01*
X414274D01*
X424258Y1053508D02*
Y1057572D01*
X428322D01*
Y1053508D01*
X424258D01*
X425274Y1054524D02*
Y1056556D01*
X427306D01*
Y1054524D01*
X425274D01*
X413258Y1042508D02*
Y1046572D01*
X417322D01*
Y1042508D01*
X413258D01*
X414274Y1043524D02*
Y1045556D01*
X416306D01*
Y1043524D01*
X414274D01*
X424258Y1042508D02*
Y1046572D01*
X428322D01*
Y1042508D01*
X424258D01*
X425274Y1043524D02*
Y1045556D01*
X427306D01*
Y1043524D01*
X425274D01*
X791002Y1233678D02*
Y1237742D01*
X795066D01*
Y1233678D01*
X791002D01*
X792018Y1234694D02*
Y1236726D01*
X794050D01*
Y1234694D01*
X792018D01*
X208559Y1092764D02*
Y1096828D01*
X212623D01*
Y1092764D01*
X208559D01*
X209575Y1093780D02*
Y1095812D01*
X211607D01*
Y1093780D01*
X209575D01*
X262865Y1187260D02*
Y1191324D01*
X266929D01*
Y1187260D01*
X262865D01*
X263881Y1188276D02*
Y1190308D01*
X265913D01*
Y1188276D01*
X263881D01*
X304890Y1228246D02*
Y1232310D01*
X308954D01*
Y1228246D01*
X304890D01*
X305906Y1229262D02*
Y1231294D01*
X307938D01*
Y1229262D01*
X305906D01*
X522652Y1227290D02*
Y1231354D01*
X526716D01*
Y1227290D01*
X522652D01*
X523668Y1228306D02*
Y1230338D01*
X525700D01*
Y1228306D01*
X523668D01*
X495576Y1100286D02*
Y1104350D01*
X499640D01*
Y1100286D01*
X495576D01*
X496592Y1101302D02*
Y1103334D01*
X498624D01*
Y1101302D01*
X496592D01*
X305076Y1100286D02*
Y1104350D01*
X309140D01*
Y1100286D01*
X305076D01*
X306092Y1101302D02*
Y1103334D01*
X308124D01*
Y1101302D01*
X306092D01*
X644754Y1218062D02*
Y1222126D01*
X648818D01*
Y1218062D01*
X644754D01*
X645770Y1219078D02*
Y1221110D01*
X647802D01*
Y1219078D01*
X645770D01*
X665631Y1096684D02*
Y1100748D01*
X669695D01*
Y1096684D01*
X665631D01*
X666647Y1097700D02*
Y1099732D01*
X668679D01*
Y1097700D01*
X666647D01*
X653056Y1140070D02*
Y1144134D01*
X657120D01*
Y1140070D01*
X653056D01*
X654072Y1141086D02*
Y1143118D01*
X656104D01*
Y1141086D01*
X654072D01*
X617678Y1091058D02*
Y1095122D01*
X621742D01*
Y1091058D01*
X617678D01*
X618694Y1092074D02*
Y1094106D01*
X620726D01*
Y1092074D01*
X618694D01*
X475131Y1096684D02*
Y1100748D01*
X479195D01*
Y1096684D01*
X475131D01*
X476147Y1097700D02*
Y1099732D01*
X478179D01*
Y1097700D01*
X476147D01*
X462556Y1140070D02*
Y1144134D01*
X466620D01*
Y1140070D01*
X462556D01*
X463572Y1141086D02*
Y1143118D01*
X465604D01*
Y1141086D01*
X463572D01*
X214186Y1044810D02*
Y1048874D01*
X218250D01*
Y1044810D01*
X214186D01*
X215202Y1045826D02*
Y1047858D01*
X217234D01*
Y1045826D01*
X215202D01*
X202526Y1425448D02*
Y1429512D01*
X206590D01*
Y1425448D01*
X202526D01*
X203542Y1426464D02*
Y1428496D01*
X205574D01*
Y1426464D01*
X203542D01*
X672208Y1043008D02*
Y1047072D01*
X676272D01*
Y1043008D01*
X672208D01*
X673224Y1044024D02*
Y1046056D01*
X675256D01*
Y1044024D01*
X673224D01*
X629808Y1052068D02*
Y1056132D01*
X633872D01*
Y1052068D01*
X629808D01*
X630824Y1053084D02*
Y1055116D01*
X632856D01*
Y1053084D01*
X630824D01*
X464708Y1052068D02*
Y1056132D01*
X468772D01*
Y1052068D01*
X464708D01*
X465724Y1053084D02*
Y1055116D01*
X467756D01*
Y1053084D01*
X465724D01*
X672208Y936328D02*
Y940392D01*
X676272D01*
Y936328D01*
X672208D01*
X673224Y937344D02*
Y939376D01*
X675256D01*
Y937344D01*
X673224D01*
X629808Y945388D02*
Y949452D01*
X633872D01*
Y945388D01*
X629808D01*
X630824Y946404D02*
Y948436D01*
X632856D01*
Y946404D01*
X630824D01*
X464708Y945388D02*
Y949452D01*
X468772D01*
Y945388D01*
X464708D01*
X465724Y946404D02*
Y948436D01*
X467756D01*
Y946404D01*
X465724D01*
X299608Y945388D02*
Y949452D01*
X303672D01*
Y945388D01*
X299608D01*
X300624Y946404D02*
Y948436D01*
X302656D01*
Y946404D01*
X300624D01*
X672208Y829648D02*
Y833712D01*
X676272D01*
Y829648D01*
X672208D01*
X673224Y830664D02*
Y832696D01*
X675256D01*
Y830664D01*
X673224D01*
X629808Y838708D02*
Y842772D01*
X633872D01*
Y838708D01*
X629808D01*
X630824Y839724D02*
Y841756D01*
X632856D01*
Y839724D01*
X630824D01*
X464708Y838708D02*
Y842772D01*
X468772D01*
Y838708D01*
X464708D01*
X465724Y839724D02*
Y841756D01*
X467756D01*
Y839724D01*
X465724D01*
X299608Y838708D02*
Y842772D01*
X303672D01*
Y838708D01*
X299608D01*
X300624Y839724D02*
Y841756D01*
X302656D01*
Y839724D01*
X300624D01*
X672208Y722968D02*
Y727032D01*
X676272D01*
Y722968D01*
X672208D01*
X673224Y723984D02*
Y726016D01*
X675256D01*
Y723984D01*
X673224D01*
X629808Y732028D02*
Y736092D01*
X633872D01*
Y732028D01*
X629808D01*
X630824Y733044D02*
Y735076D01*
X632856D01*
Y733044D01*
X630824D01*
X464708Y732028D02*
Y736092D01*
X468772D01*
Y732028D01*
X464708D01*
X465724Y733044D02*
Y735076D01*
X467756D01*
Y733044D01*
X465724D01*
X299608Y732028D02*
Y736092D01*
X303672D01*
Y732028D01*
X299608D01*
X300624Y733044D02*
Y735076D01*
X302656D01*
Y733044D01*
X300624D01*
X672208Y616288D02*
Y620352D01*
X676272D01*
Y616288D01*
X672208D01*
X673224Y617304D02*
Y619336D01*
X675256D01*
Y617304D01*
X673224D01*
X629808Y625348D02*
Y629412D01*
X633872D01*
Y625348D01*
X629808D01*
X630824Y626364D02*
Y628396D01*
X632856D01*
Y626364D01*
X630824D01*
X464708Y625348D02*
Y629412D01*
X468772D01*
Y625348D01*
X464708D01*
X465724Y626364D02*
Y628396D01*
X467756D01*
Y626364D01*
X465724D01*
X299608Y625348D02*
Y629412D01*
X303672D01*
Y625348D01*
X299608D01*
X300624Y626364D02*
Y628396D01*
X302656D01*
Y626364D01*
X300624D01*
X671248Y508648D02*
Y512712D01*
X675312D01*
Y508648D01*
X671248D01*
X672264Y509664D02*
Y511696D01*
X674296D01*
Y509664D01*
X672264D01*
X628848Y517708D02*
Y521772D01*
X632912D01*
Y517708D01*
X628848D01*
X629864Y518724D02*
Y520756D01*
X631896D01*
Y518724D01*
X629864D01*
X463748Y517708D02*
Y521772D01*
X467812D01*
Y517708D01*
X463748D01*
X464764Y518724D02*
Y520756D01*
X466796D01*
Y518724D01*
X464764D01*
X298648Y517708D02*
Y521772D01*
X302712D01*
Y517708D01*
X298648D01*
X299664Y518724D02*
Y520756D01*
X301696D01*
Y518724D01*
X299664D01*
X671248Y401968D02*
Y406032D01*
X675312D01*
Y401968D01*
X671248D01*
X672264Y402984D02*
Y405016D01*
X674296D01*
Y402984D01*
X672264D01*
X628848Y411028D02*
Y415092D01*
X632912D01*
Y411028D01*
X628848D01*
X629864Y412044D02*
Y414076D01*
X631896D01*
Y412044D01*
X629864D01*
X463748Y411028D02*
Y415092D01*
X467812D01*
Y411028D01*
X463748D01*
X464764Y412044D02*
Y414076D01*
X466796D01*
Y412044D01*
X464764D01*
X298648Y411028D02*
Y415092D01*
X302712D01*
Y411028D01*
X298648D01*
X299664Y412044D02*
Y414076D01*
X301696D01*
Y412044D01*
X299664D01*
X671248Y188608D02*
Y192672D01*
X675312D01*
Y188608D01*
X671248D01*
X672264Y189624D02*
Y191656D01*
X674296D01*
Y189624D01*
X672264D01*
X628848Y197668D02*
Y201732D01*
X632912D01*
Y197668D01*
X628848D01*
X629864Y198684D02*
Y200716D01*
X631896D01*
Y198684D01*
X629864D01*
X463748Y197668D02*
Y201732D01*
X467812D01*
Y197668D01*
X463748D01*
X464764Y198684D02*
Y200716D01*
X466796D01*
Y198684D01*
X464764D01*
X298648Y197668D02*
Y201732D01*
X302712D01*
Y197668D01*
X298648D01*
X299664Y198684D02*
Y200716D01*
X301696D01*
Y198684D01*
X299664D01*
X341048Y295288D02*
Y299352D01*
X345112D01*
Y295288D01*
X341048D01*
X342064Y296304D02*
Y298336D01*
X344096D01*
Y296304D01*
X342064D01*
X298648Y304348D02*
Y308412D01*
X302712D01*
Y304348D01*
X298648D01*
X299664Y305364D02*
Y307396D01*
X301696D01*
Y305364D01*
X299664D01*
X506148Y295288D02*
Y299352D01*
X510212D01*
Y295288D01*
X506148D01*
X507164Y296304D02*
Y298336D01*
X509196D01*
Y296304D01*
X507164D01*
X463748Y304348D02*
Y308412D01*
X467812D01*
Y304348D01*
X463748D01*
X464764Y305364D02*
Y307396D01*
X466796D01*
Y305364D01*
X464764D01*
X628848Y304348D02*
Y308412D01*
X632912D01*
Y304348D01*
X628848D01*
X629864Y305364D02*
Y307396D01*
X631896D01*
Y305364D01*
X629864D01*
X671248Y295288D02*
Y299352D01*
X675312D01*
Y295288D01*
X671248D01*
X672264Y296304D02*
Y298336D01*
X674296D01*
Y296304D01*
X672264D01*
X372487Y1057148D02*
Y1061212D01*
X376552D01*
Y1057148D01*
X372487D01*
X373503Y1058164D02*
Y1060196D01*
X375536D01*
Y1058164D01*
X373503D01*
X537588Y1057148D02*
Y1061212D01*
X541651D01*
Y1057148D01*
X537588D01*
X538604Y1058164D02*
Y1060196D01*
X540635D01*
Y1058164D01*
X538604D01*
X207388Y950468D02*
Y954532D01*
X211451D01*
Y950468D01*
X207388D01*
X208403Y951484D02*
Y953516D01*
X210436D01*
Y951484D01*
X208403D01*
X372487Y950468D02*
Y954532D01*
X376552D01*
Y950468D01*
X372487D01*
X373503Y951484D02*
Y953516D01*
X375536D01*
Y951484D01*
X373503D01*
X537588Y950468D02*
Y954532D01*
X541651D01*
Y950468D01*
X537588D01*
X538604Y951484D02*
Y953516D01*
X540635D01*
Y951484D01*
X538604D01*
X207388Y843788D02*
Y847852D01*
X211451D01*
Y843788D01*
X207388D01*
X208403Y844804D02*
Y846836D01*
X210436D01*
Y844804D01*
X208403D01*
X372487Y843788D02*
Y847852D01*
X376552D01*
Y843788D01*
X372487D01*
X373503Y844804D02*
Y846836D01*
X375536D01*
Y844804D01*
X373503D01*
X537588Y843788D02*
Y847852D01*
X541651D01*
Y843788D01*
X537588D01*
X538604Y844804D02*
Y846836D01*
X540635D01*
Y844804D01*
X538604D01*
X207388Y737108D02*
Y741172D01*
X211451D01*
Y737108D01*
X207388D01*
X208403Y738124D02*
Y740156D01*
X210436D01*
Y738124D01*
X208403D01*
X372487Y737108D02*
Y741172D01*
X376552D01*
Y737108D01*
X372487D01*
X373503Y738124D02*
Y740156D01*
X375536D01*
Y738124D01*
X373503D01*
X537588Y737108D02*
Y741172D01*
X541651D01*
Y737108D01*
X537588D01*
X538604Y738124D02*
Y740156D01*
X540635D01*
Y738124D01*
X538604D01*
X207388Y630428D02*
Y634492D01*
X211451D01*
Y630428D01*
X207388D01*
X208403Y631444D02*
Y633476D01*
X210436D01*
Y631444D01*
X208403D01*
X372487Y630428D02*
Y634492D01*
X376552D01*
Y630428D01*
X372487D01*
X373503Y631444D02*
Y633476D01*
X375536D01*
Y631444D01*
X373503D01*
X537588Y630428D02*
Y634492D01*
X541651D01*
Y630428D01*
X537588D01*
X538604Y631444D02*
Y633476D01*
X540635D01*
Y631444D01*
X538604D01*
X206427Y522788D02*
Y526852D01*
X210492D01*
Y522788D01*
X206427D01*
X207444Y523804D02*
Y525836D01*
X209475D01*
Y523804D01*
X207444D01*
X371527Y522788D02*
Y526852D01*
X375592D01*
Y522788D01*
X371527D01*
X372543Y523804D02*
Y525836D01*
X374576D01*
Y523804D01*
X372543D01*
X536628Y522788D02*
Y526852D01*
X540691D01*
Y522788D01*
X536628D01*
X537644Y523804D02*
Y525836D01*
X539675D01*
Y523804D01*
X537644D01*
X206427Y416108D02*
Y420172D01*
X210492D01*
Y416108D01*
X206427D01*
X207444Y417124D02*
Y419156D01*
X209475D01*
Y417124D01*
X207444D01*
X371527Y416108D02*
Y420172D01*
X375592D01*
Y416108D01*
X371527D01*
X372543Y417124D02*
Y419156D01*
X374576D01*
Y417124D01*
X372543D01*
X536628Y416108D02*
Y420172D01*
X540691D01*
Y416108D01*
X536628D01*
X537644Y417124D02*
Y419156D01*
X539675D01*
Y417124D01*
X537644D01*
X206427Y309428D02*
Y313492D01*
X210492D01*
Y309428D01*
X206427D01*
X207444Y310444D02*
Y312476D01*
X209475D01*
Y310444D01*
X207444D01*
X371527Y309428D02*
Y313492D01*
X375592D01*
Y309428D01*
X371527D01*
X372543Y310444D02*
Y312476D01*
X374576D01*
Y310444D01*
X372543D01*
X536628Y309428D02*
Y313492D01*
X540691D01*
Y309428D01*
X536628D01*
X537644Y310444D02*
Y312476D01*
X539675D01*
Y310444D01*
X537644D01*
X206427Y202748D02*
Y206812D01*
X210492D01*
Y202748D01*
X206427D01*
X207444Y203764D02*
Y205796D01*
X209475D01*
Y203764D01*
X207444D01*
X371527Y202748D02*
Y206812D01*
X375592D01*
Y202748D01*
X371527D01*
X372543Y203764D02*
Y205796D01*
X374576D01*
Y203764D01*
X372543D01*
X536628Y202748D02*
Y206812D01*
X540691D01*
Y202748D01*
X536628D01*
X537644Y203764D02*
Y205796D01*
X539675D01*
Y203764D01*
X537644D01*
D102*
X796506Y596400D02*
G03*
X796506Y596400I-2032J0D01*
G01*
Y571000D02*
G03*
X796506Y571000I-2032J0D01*
G01*
Y545600D02*
G03*
X796506Y545600I-2032J0D01*
G01*
X771106Y596400D02*
G03*
X771106Y596400I-2032J0D01*
G01*
Y571000D02*
G03*
X771106Y571000I-2032J0D01*
G01*
Y545600D02*
G03*
X771106Y545600I-2032J0D01*
G01*
X796506Y367800D02*
G03*
X796506Y367800I-2032J0D01*
G01*
X771106D02*
G03*
X771106Y367800I-2032J0D01*
G01*
X796506Y342400D02*
G03*
X796506Y342400I-2032J0D01*
G01*
Y317000D02*
G03*
X796506Y317000I-2032J0D01*
G01*
Y291600D02*
G03*
X796506Y291600I-2032J0D01*
G01*
X771106Y342400D02*
G03*
X771106Y342400I-2032J0D01*
G01*
Y317000D02*
G03*
X771106Y317000I-2032J0D01*
G01*
Y291600D02*
G03*
X771106Y291600I-2032J0D01*
G01*
Y215400D02*
G03*
X771106Y215400I-2032J0D01*
G01*
Y190000D02*
G03*
X771106Y190000I-2032J0D01*
G01*
Y240800D02*
G03*
X771106Y240800I-2032J0D01*
G01*
Y266200D02*
G03*
X771106Y266200I-2032J0D01*
G01*
X796506Y190000D02*
G03*
X796506Y190000I-2032J0D01*
G01*
Y215400D02*
G03*
X796506Y215400I-2032J0D01*
G01*
Y240800D02*
G03*
X796506Y240800I-2032J0D01*
G01*
Y266200D02*
G03*
X796506Y266200I-2032J0D01*
G01*
X771106Y393200D02*
G03*
X771106Y393200I-2032J0D01*
G01*
Y418600D02*
G03*
X771106Y418600I-2032J0D01*
G01*
Y444000D02*
G03*
X771106Y444000I-2032J0D01*
G01*
Y469400D02*
G03*
X771106Y469400I-2032J0D01*
G01*
X796506Y393200D02*
G03*
X796506Y393200I-2032J0D01*
G01*
Y418600D02*
G03*
X796506Y418600I-2032J0D01*
G01*
Y444000D02*
G03*
X796506Y444000I-2032J0D01*
G01*
Y469400D02*
G03*
X796506Y469400I-2032J0D01*
G01*
X771106Y494800D02*
G03*
X771106Y494800I-2032J0D01*
G01*
Y520200D02*
G03*
X771106Y520200I-2032J0D01*
G01*
X796506Y494800D02*
G03*
X796506Y494800I-2032J0D01*
G01*
Y520200D02*
G03*
X796506Y520200I-2032J0D01*
G01*
Y1170178D02*
G03*
X796506Y1170178I-2032J0D01*
G01*
Y1144778D02*
G03*
X796506Y1144778I-2032J0D01*
G01*
Y1119378D02*
G03*
X796506Y1119378I-2032J0D01*
G01*
X771106Y1170178D02*
G03*
X771106Y1170178I-2032J0D01*
G01*
Y1144778D02*
G03*
X771106Y1144778I-2032J0D01*
G01*
Y1119378D02*
G03*
X771106Y1119378I-2032J0D01*
G01*
X796506Y941578D02*
G03*
X796506Y941578I-2032J0D01*
G01*
X771106D02*
G03*
X771106Y941578I-2032J0D01*
G01*
X796506Y916178D02*
G03*
X796506Y916178I-2032J0D01*
G01*
Y890778D02*
G03*
X796506Y890778I-2032J0D01*
G01*
Y865378D02*
G03*
X796506Y865378I-2032J0D01*
G01*
X771106Y916178D02*
G03*
X771106Y916178I-2032J0D01*
G01*
Y890778D02*
G03*
X771106Y890778I-2032J0D01*
G01*
Y865378D02*
G03*
X771106Y865378I-2032J0D01*
G01*
Y789178D02*
G03*
X771106Y789178I-2032J0D01*
G01*
Y763778D02*
G03*
X771106Y763778I-2032J0D01*
G01*
Y814578D02*
G03*
X771106Y814578I-2032J0D01*
G01*
Y839978D02*
G03*
X771106Y839978I-2032J0D01*
G01*
X796506Y763778D02*
G03*
X796506Y763778I-2032J0D01*
G01*
Y789178D02*
G03*
X796506Y789178I-2032J0D01*
G01*
Y814578D02*
G03*
X796506Y814578I-2032J0D01*
G01*
Y839978D02*
G03*
X796506Y839978I-2032J0D01*
G01*
X771106Y966978D02*
G03*
X771106Y966978I-2032J0D01*
G01*
Y992378D02*
G03*
X771106Y992378I-2032J0D01*
G01*
Y1017778D02*
G03*
X771106Y1017778I-2032J0D01*
G01*
Y1043178D02*
G03*
X771106Y1043178I-2032J0D01*
G01*
X796506Y966978D02*
G03*
X796506Y966978I-2032J0D01*
G01*
Y992378D02*
G03*
X796506Y992378I-2032J0D01*
G01*
Y1017778D02*
G03*
X796506Y1017778I-2032J0D01*
G01*
Y1043178D02*
G03*
X796506Y1043178I-2032J0D01*
G01*
X771106Y1068578D02*
G03*
X771106Y1068578I-2032J0D01*
G01*
Y1093978D02*
G03*
X771106Y1093978I-2032J0D01*
G01*
X796506Y1068578D02*
G03*
X796506Y1068578I-2032J0D01*
G01*
Y1093978D02*
G03*
X796506Y1093978I-2032J0D01*
G01*
X702032Y560250D02*
G03*
X702032Y560250I-2032J0D01*
G01*
X698282Y602170D02*
G03*
X698282Y602170I-2032J0D01*
G01*
X712532Y585000D02*
G03*
X712532Y585000I-2032J0D01*
G01*
X698032Y708750D02*
G03*
X698032Y708750I-2032J0D01*
G01*
X697512Y815530D02*
G03*
X697512Y815530I-2032J0D01*
G01*
X691986Y509270D02*
G03*
X691986Y509270I-2032J0D01*
G01*
X744056Y1003980D02*
G03*
X744056Y1003980I-2032J0D01*
G01*
Y953770D02*
G03*
X744056Y953770I-2032J0D01*
G01*
X754316Y1040130D02*
G03*
X754316Y1040130I-2032J0D01*
G01*
X332830Y1367790D02*
G03*
X332830Y1367790I-2032J0D01*
G01*
X453734Y1258824D02*
G03*
X453734Y1258824I-2032J0D01*
G01*
X677740Y1238114D02*
G03*
X677740Y1238114I-2032J0D01*
G01*
X719926Y1142102D02*
G03*
X719926Y1142102I-2032J0D01*
G01*
X692086Y1033272D02*
G03*
X692086Y1033272I-2032J0D01*
G01*
X687668Y929894D02*
G03*
X687668Y929894I-2032J0D01*
G01*
X688938Y823292D02*
G03*
X688938Y823292I-2032J0D01*
G01*
X688684Y716534D02*
G03*
X688684Y716534I-2032J0D01*
G01*
X686144Y182118D02*
G03*
X686144Y182118I-2032J0D01*
G01*
Y288798D02*
G03*
X686144Y288798I-2032J0D01*
G01*
X689446Y395970D02*
G03*
X689446Y395970I-2032J0D01*
G01*
X690581Y610947D02*
G03*
X690581Y610947I-2032J0D01*
G01*
X719926Y549910D02*
G03*
X719926Y549910I-2032J0D01*
G01*
X690583Y922274D02*
G03*
X690583Y922274I-2032J0D01*
G01*
X695542Y1146138D02*
G03*
X695542Y1146138I-2032J0D01*
G01*
X742786Y1132840D02*
G03*
X742786Y1132840I-2032J0D01*
G01*
X688430Y1123442D02*
G03*
X688430Y1123442I-2032J0D01*
G01*
X693256Y1099058D02*
G03*
X693256Y1099058I-2032J0D01*
G01*
X742532Y1082040D02*
G03*
X742532Y1082040I-2032J0D01*
G01*
Y1107186D02*
G03*
X742532Y1107186I-2032J0D01*
G01*
X459068Y1112266D02*
G03*
X459068Y1112266I-2032J0D01*
G01*
X292336Y1367790D02*
G03*
X292336Y1367790I-2032J0D01*
G01*
X651917Y1113464D02*
G03*
X651917Y1113464I-2032J0D01*
G01*
X232997Y1064620D02*
G03*
X232997Y1064620I-2032J0D01*
G01*
X834226Y171526D02*
G03*
X834226Y171526I-2032J0D01*
G01*
X689623Y281234D02*
G03*
X689623Y281234I-2032J0D01*
G01*
Y494594D02*
G03*
X689623Y494594I-2032J0D01*
G01*
Y387914D02*
G03*
X689623Y387914I-2032J0D01*
G01*
Y174554D02*
G03*
X689623Y174554I-2032J0D01*
G01*
X522952Y1018850D02*
G03*
X522952Y1018850I-2032J0D01*
G01*
X357852Y912170D02*
G03*
X357852Y912170I-2032J0D01*
G01*
X522952D02*
G03*
X522952Y912170I-2032J0D01*
G01*
X357852Y805490D02*
G03*
X357852Y805490I-2032J0D01*
G01*
X522952D02*
G03*
X522952Y805490I-2032J0D01*
G01*
X357852Y698810D02*
G03*
X357852Y698810I-2032J0D01*
G01*
X522952D02*
G03*
X522952Y698810I-2032J0D01*
G01*
X357852Y592130D02*
G03*
X357852Y592130I-2032J0D01*
G01*
X522952D02*
G03*
X522952Y592130I-2032J0D01*
G01*
X356892Y484490D02*
G03*
X356892Y484490I-2032J0D01*
G01*
X521992D02*
G03*
X521992Y484490I-2032J0D01*
G01*
X356892Y377810D02*
G03*
X356892Y377810I-2032J0D01*
G01*
X521992D02*
G03*
X521992Y377810I-2032J0D01*
G01*
X356892Y164450D02*
G03*
X356892Y164450I-2032J0D01*
G01*
X521992D02*
G03*
X521992Y164450I-2032J0D01*
G01*
Y271130D02*
G03*
X521992Y271130I-2032J0D01*
G01*
X356892D02*
G03*
X356892Y271130I-2032J0D01*
G01*
D103*
X701016Y560250D02*
G03*
X701016Y560250I-1016J0D01*
G01*
X697266Y602170D02*
G03*
X697266Y602170I-1016J0D01*
G01*
X711516Y585000D02*
G03*
X711516Y585000I-1016J0D01*
G01*
X697016Y708750D02*
G03*
X697016Y708750I-1016J0D01*
G01*
X696496Y815530D02*
G03*
X696496Y815530I-1016J0D01*
G01*
X690970Y509270D02*
G03*
X690970Y509270I-1016J0D01*
G01*
X743040Y1003980D02*
G03*
X743040Y1003980I-1016J0D01*
G01*
Y953770D02*
G03*
X743040Y953770I-1016J0D01*
G01*
X753300Y1040130D02*
G03*
X753300Y1040130I-1016J0D01*
G01*
X331814Y1367790D02*
G03*
X331814Y1367790I-1016J0D01*
G01*
X452718Y1258824D02*
G03*
X452718Y1258824I-1016J0D01*
G01*
X676724Y1238114D02*
G03*
X676724Y1238114I-1016J0D01*
G01*
X718910Y1142102D02*
G03*
X718910Y1142102I-1016J0D01*
G01*
X691070Y1033272D02*
G03*
X691070Y1033272I-1016J0D01*
G01*
X686652Y929894D02*
G03*
X686652Y929894I-1016J0D01*
G01*
X687922Y823292D02*
G03*
X687922Y823292I-1016J0D01*
G01*
X687668Y716534D02*
G03*
X687668Y716534I-1016J0D01*
G01*
X685128Y182118D02*
G03*
X685128Y182118I-1016J0D01*
G01*
Y288798D02*
G03*
X685128Y288798I-1016J0D01*
G01*
X688430Y395970D02*
G03*
X688430Y395970I-1016J0D01*
G01*
X689565Y610947D02*
G03*
X689565Y610947I-1016J0D01*
G01*
X718910Y549910D02*
G03*
X718910Y549910I-1016J0D01*
G01*
X689567Y922274D02*
G03*
X689567Y922274I-1016J0D01*
G01*
X694526Y1146138D02*
G03*
X694526Y1146138I-1016J0D01*
G01*
X741770Y1132840D02*
G03*
X741770Y1132840I-1016J0D01*
G01*
X687414Y1123442D02*
G03*
X687414Y1123442I-1016J0D01*
G01*
X692240Y1099058D02*
G03*
X692240Y1099058I-1016J0D01*
G01*
X741516Y1082040D02*
G03*
X741516Y1082040I-1016J0D01*
G01*
Y1107186D02*
G03*
X741516Y1107186I-1016J0D01*
G01*
X458052Y1112266D02*
G03*
X458052Y1112266I-1016J0D01*
G01*
X291320Y1367790D02*
G03*
X291320Y1367790I-1016J0D01*
G01*
X650901Y1113464D02*
G03*
X650901Y1113464I-1016J0D01*
G01*
X231981Y1064620D02*
G03*
X231981Y1064620I-1016J0D01*
G01*
X833210Y171526D02*
G03*
X833210Y171526I-1016J0D01*
G01*
X688607Y281234D02*
G03*
X688607Y281234I-1016J0D01*
G01*
Y494594D02*
G03*
X688607Y494594I-1016J0D01*
G01*
Y387914D02*
G03*
X688607Y387914I-1016J0D01*
G01*
Y174554D02*
G03*
X688607Y174554I-1016J0D01*
G01*
X521936Y1018850D02*
G03*
X521936Y1018850I-1016J0D01*
G01*
X356836Y912170D02*
G03*
X356836Y912170I-1016J0D01*
G01*
X521936D02*
G03*
X521936Y912170I-1016J0D01*
G01*
X356836Y805490D02*
G03*
X356836Y805490I-1016J0D01*
G01*
X521936D02*
G03*
X521936Y805490I-1016J0D01*
G01*
X356836Y698810D02*
G03*
X356836Y698810I-1016J0D01*
G01*
X521936D02*
G03*
X521936Y698810I-1016J0D01*
G01*
X356836Y592130D02*
G03*
X356836Y592130I-1016J0D01*
G01*
X521936D02*
G03*
X521936Y592130I-1016J0D01*
G01*
X355876Y484490D02*
G03*
X355876Y484490I-1016J0D01*
G01*
X520976D02*
G03*
X520976Y484490I-1016J0D01*
G01*
X355876Y377810D02*
G03*
X355876Y377810I-1016J0D01*
G01*
X520976D02*
G03*
X520976Y377810I-1016J0D01*
G01*
X355876Y164450D02*
G03*
X355876Y164450I-1016J0D01*
G01*
X520976D02*
G03*
X520976Y164450I-1016J0D01*
G01*
Y271130D02*
G03*
X520976Y271130I-1016J0D01*
G01*
X355876D02*
G03*
X355876Y271130I-1016J0D01*
G01*
M02*
