M48
;Layer_Color=9474304
;FILE_FORMAT=2:5
INCH,TZ
;TYPE=PLATED
T01F00S00C0.00787
T02F00S00C0.03937
T03F00S00C0.04331
T04F00S00C0.07874
T05F00S00C0.12205
T06F00S00C0.12598
%
T01
X31890Y125197
X35433Y135039
X38976Y145276
X43307Y155118
X47244Y164961
X51181Y175197
X55118Y179528
X59055Y185039
X62992Y194882
X66929Y199606
X86614Y204331
X78347Y215354
X70866Y230315
X74803Y240158
X82677Y160236
X86614Y338976
X78347Y342126
X77953Y351575
X80709Y361024
X83858Y370866
X87008Y381102
X90945Y385827
X94882Y390945
X98425Y401181
X102362Y405905
X106299Y411024
X110236Y420866
X114961Y432677
X122505Y446063
X74803Y449606
X70866Y459842
X77953Y438583
X80709Y427165
X83858Y416142
X25591Y423622
X27953Y437402
Y396063
X22441Y375984
X24803Y345669
X157874Y530315
X110117Y484539
X62992Y481496
X66929Y470866
X59055Y492913
X55118Y503543
X51181Y514567
X47244Y524803
X43307Y546850
X38976Y558268
X35433Y568898
X31890Y579528
T02
X115787Y37323
Y47323
Y57323
X125787Y47323
X115787Y124567
Y134567
Y144567
X125787Y134567
X115787Y211811
Y221811
Y231811
X125787Y221811
X115787Y299055
Y309055
Y319055
X125787Y309055
X127638Y405512
Y416417
Y427323
Y438110
Y449016
Y459921
X138819Y454409
Y443622
Y432717
Y421811
Y411024
X150000Y416417
Y405512
Y427323
Y438110
Y449016
Y459921
Y470709
Y481614
Y492520
Y503425
Y514331
Y525118
Y536024
Y546929
Y557717
Y568622
Y579528
X138819Y574016
Y563228
Y552323
Y541417
Y530630
Y519724
Y508819
Y498032
Y487008
Y476221
Y465315
X127638Y470709
Y481614
Y492520
Y503425
Y514331
Y525118
Y536024
Y546929
Y557717
Y568622
Y579528
T03
X6500Y75000
X16500
Y85000
X6500
Y95000
X16500
Y105000
X6500
Y115000
X16500
Y125000
X6500
Y135000
Y145000
X16500
Y135000
Y155000
Y165000
X6500
Y175000
X16500
Y185000
X6500
Y195000
X16500
Y205000
Y215000
Y225000
Y235000
X6500
Y225000
Y215000
Y205000
Y155000
Y301000
X16500
Y311000
X6500
Y321000
X16500
Y331000
X6500
Y341000
X16500
Y351000
X6500
Y361000
Y371000
Y381000
Y391000
Y401000
X16500
Y391000
Y381000
Y371000
Y361000
Y411000
X6500
Y421000
X16500
Y431000
Y441000
Y451000
Y461000
X6500
Y451000
Y441000
Y431000
T04
X150787Y27323
Y67323
Y114567
Y154567
Y201811
Y241811
Y289055
Y329055
T05
X138819Y372244
Y612795
T06
X87008Y45669
X87508Y604224
M30
