G04*
G04 #@! TF.GenerationSoftware,Altium Limited,Altium Designer,24.3.1 (35)*
G04*
G04 Layer_Color=128*
%FSLAX25Y25*%
%MOIN*%
G70*
G04*
G04 #@! TF.SameCoordinates,F9B35F18-39F2-4BAC-A9EF-380DD9FA1C01*
G04*
G04*
G04 #@! TF.FilePolarity,Positive*
G04*
G01*
G75*
%ADD32C,0.00500*%
D32*
X80709Y45669D02*
X93307D01*
X87008Y39370D02*
Y51968D01*
X81209Y604224D02*
X93807D01*
X87508Y597925D02*
Y610524D01*
X113819Y221811D02*
X117756D01*
X115787Y219843D02*
Y223780D01*
X113819Y231811D02*
X117756D01*
X115787Y229842D02*
Y233780D01*
X146850Y241811D02*
X154724D01*
X150787Y237874D02*
Y245748D01*
X146850Y201811D02*
X154724D01*
X150787Y197874D02*
Y205748D01*
X113819Y211811D02*
X117756D01*
X115787Y209842D02*
Y213779D01*
X123819Y221811D02*
X127756D01*
X125787Y219843D02*
Y223780D01*
X113819Y309055D02*
X117756D01*
X115787Y307087D02*
Y311024D01*
X113819Y319055D02*
X117756D01*
X115787Y317087D02*
Y321024D01*
X146850Y329055D02*
X154724D01*
X150787Y325118D02*
Y332992D01*
X146850Y289055D02*
X154724D01*
X150787Y285118D02*
Y292992D01*
X113819Y299055D02*
X117756D01*
X115787Y297087D02*
Y301024D01*
X123819Y309055D02*
X127756D01*
X125787Y307087D02*
Y311024D01*
X113819Y134567D02*
X117756D01*
X115787Y132598D02*
Y136535D01*
X113819Y144567D02*
X117756D01*
X115787Y142598D02*
Y146535D01*
X146850Y154567D02*
X154724D01*
X150787Y150630D02*
Y158504D01*
X146850Y114567D02*
X154724D01*
X150787Y110630D02*
Y118504D01*
X113819Y124567D02*
X117756D01*
X115787Y122598D02*
Y126535D01*
X123819Y134567D02*
X127756D01*
X125787Y132598D02*
Y136535D01*
X113819Y47323D02*
X117756D01*
X115787Y45354D02*
Y49291D01*
X113819Y57323D02*
X117756D01*
X115787Y55354D02*
Y59291D01*
X146850Y67323D02*
X154724D01*
X150787Y63386D02*
Y71260D01*
X146850Y27323D02*
X154724D01*
X150787Y23386D02*
Y31260D01*
X113819Y37323D02*
X117756D01*
X115787Y35354D02*
Y39291D01*
X123819Y47323D02*
X127756D01*
X125787Y45354D02*
Y49291D01*
X4335Y401000D02*
X8665D01*
X6500Y398835D02*
Y403165D01*
X4335Y391000D02*
X8665D01*
X6500Y388835D02*
Y393165D01*
X14335Y401000D02*
X18665D01*
X16500Y398835D02*
Y403165D01*
X14335Y391000D02*
X18665D01*
X16500Y388835D02*
Y393165D01*
X4335Y381000D02*
X8665D01*
X6500Y378835D02*
Y383165D01*
X4335Y371000D02*
X8665D01*
X6500Y368835D02*
Y373165D01*
X14335Y381000D02*
X18665D01*
X16500Y378835D02*
Y383165D01*
X14335Y371000D02*
X18665D01*
X16500Y368835D02*
Y373165D01*
X14335Y301000D02*
X18665D01*
X16500Y298835D02*
Y303165D01*
X4335Y301000D02*
X8665D01*
X6500Y298835D02*
Y303165D01*
X14335Y311000D02*
X18665D01*
X16500Y308835D02*
Y313165D01*
X4335Y311000D02*
X8665D01*
X6500Y308835D02*
Y313165D01*
X14335Y321000D02*
X18665D01*
X16500Y318835D02*
Y323165D01*
X4335Y321000D02*
X8665D01*
X6500Y318835D02*
Y323165D01*
X14335Y331000D02*
X18665D01*
X16500Y328835D02*
Y333165D01*
X4335Y331000D02*
X8665D01*
X6500Y328835D02*
Y333165D01*
X14335Y341000D02*
X18665D01*
X16500Y338835D02*
Y343165D01*
X14335Y351000D02*
X18665D01*
X16500Y348835D02*
Y353165D01*
X4335Y341000D02*
X8665D01*
X6500Y338835D02*
Y343165D01*
X4335Y351000D02*
X8665D01*
X6500Y348835D02*
Y353165D01*
X14335Y361000D02*
X18665D01*
X16500Y358835D02*
Y363165D01*
X4335Y361000D02*
X8665D01*
X6500Y358835D02*
Y363165D01*
X14335Y411000D02*
X18665D01*
X16500Y408835D02*
Y413165D01*
X4335Y411000D02*
X8665D01*
X6500Y408835D02*
Y413165D01*
X14335Y421000D02*
X18665D01*
X16500Y418835D02*
Y423165D01*
X14335Y431000D02*
X18665D01*
X16500Y428835D02*
Y433165D01*
X14335Y441000D02*
X18665D01*
X16500Y438835D02*
Y443165D01*
X14335Y451000D02*
X18665D01*
X16500Y448835D02*
Y453165D01*
X14335Y461000D02*
X18665D01*
X16500Y458835D02*
Y463165D01*
X4335Y421000D02*
X8665D01*
X6500Y418835D02*
Y423165D01*
X4335Y431000D02*
X8665D01*
X6500Y428835D02*
Y433165D01*
X4335Y441000D02*
X8665D01*
X6500Y438835D02*
Y443165D01*
X4335Y451000D02*
X8665D01*
X6500Y448835D02*
Y453165D01*
X4335Y461000D02*
X8665D01*
X6500Y458835D02*
Y463165D01*
X4335Y175000D02*
X8665D01*
X6500Y172835D02*
Y177165D01*
X4335Y165000D02*
X8665D01*
X6500Y162835D02*
Y167165D01*
X14335Y175000D02*
X18665D01*
X16500Y172835D02*
Y177165D01*
X14335Y165000D02*
X18665D01*
X16500Y162835D02*
Y167165D01*
X4335Y155000D02*
X8665D01*
X6500Y152835D02*
Y157165D01*
X4335Y145000D02*
X8665D01*
X6500Y142835D02*
Y147165D01*
X14335Y155000D02*
X18665D01*
X16500Y152835D02*
Y157165D01*
X14335Y145000D02*
X18665D01*
X16500Y142835D02*
Y147165D01*
X14335Y75000D02*
X18665D01*
X16500Y72835D02*
Y77165D01*
X4335Y75000D02*
X8665D01*
X6500Y72835D02*
Y77165D01*
X14335Y85000D02*
X18665D01*
X16500Y82835D02*
Y87165D01*
X4335Y85000D02*
X8665D01*
X6500Y82835D02*
Y87165D01*
X14335Y95000D02*
X18665D01*
X16500Y92835D02*
Y97165D01*
X4335Y95000D02*
X8665D01*
X6500Y92835D02*
Y97165D01*
X14335Y105000D02*
X18665D01*
X16500Y102835D02*
Y107165D01*
X4335Y105000D02*
X8665D01*
X6500Y102835D02*
Y107165D01*
X14335Y115000D02*
X18665D01*
X16500Y112835D02*
Y117165D01*
X14335Y125000D02*
X18665D01*
X16500Y122835D02*
Y127165D01*
X4335Y115000D02*
X8665D01*
X6500Y112835D02*
Y117165D01*
X4335Y125000D02*
X8665D01*
X6500Y122835D02*
Y127165D01*
X14335Y135000D02*
X18665D01*
X16500Y132835D02*
Y137165D01*
X4335Y135000D02*
X8665D01*
X6500Y132835D02*
Y137165D01*
X14335Y185000D02*
X18665D01*
X16500Y182835D02*
Y187165D01*
X4335Y185000D02*
X8665D01*
X6500Y182835D02*
Y187165D01*
X14335Y195000D02*
X18665D01*
X16500Y192835D02*
Y197165D01*
X14335Y205000D02*
X18665D01*
X16500Y202835D02*
Y207165D01*
X14335Y215000D02*
X18665D01*
X16500Y212835D02*
Y217165D01*
X14335Y225000D02*
X18665D01*
X16500Y222835D02*
Y227165D01*
X14335Y235000D02*
X18665D01*
X16500Y232835D02*
Y237165D01*
X4335Y195000D02*
X8665D01*
X6500Y192835D02*
Y197165D01*
X4335Y205000D02*
X8665D01*
X6500Y202835D02*
Y207165D01*
X4335Y215000D02*
X8665D01*
X6500Y212835D02*
Y217165D01*
X4335Y225000D02*
X8665D01*
X6500Y222835D02*
Y227165D01*
X4335Y235000D02*
X8665D01*
X6500Y232835D02*
Y237165D01*
X125669Y579528D02*
X129606D01*
X127638Y577559D02*
Y581496D01*
X125669Y568622D02*
X129606D01*
X127638Y566653D02*
Y570590D01*
X125669Y557717D02*
X129606D01*
X127638Y555748D02*
Y559685D01*
X125669Y546929D02*
X129606D01*
X127638Y544961D02*
Y548898D01*
X125669Y536024D02*
X129606D01*
X127638Y534055D02*
Y537992D01*
X125669Y525118D02*
X129606D01*
X127638Y523150D02*
Y527087D01*
X125669Y514331D02*
X129606D01*
X127638Y512362D02*
Y516299D01*
X125669Y503425D02*
X129606D01*
X127638Y501457D02*
Y505394D01*
X125669Y492520D02*
X129606D01*
X127638Y490551D02*
Y494488D01*
X136850Y487008D02*
X140787D01*
X138819Y485039D02*
Y488976D01*
X136850Y476221D02*
X140787D01*
X138819Y474252D02*
Y478189D01*
X136850Y465315D02*
X140787D01*
X138819Y463346D02*
Y467283D01*
X136850Y454409D02*
X140787D01*
X138819Y452441D02*
Y456378D01*
X136850Y443622D02*
X140787D01*
X138819Y441653D02*
Y445590D01*
X136850Y432717D02*
X140787D01*
X138819Y430748D02*
Y434685D01*
X136850Y421811D02*
X140787D01*
X138819Y419842D02*
Y423779D01*
X136850Y411024D02*
X140787D01*
X138819Y409055D02*
Y412992D01*
X136850Y498032D02*
X140787D01*
X138819Y496063D02*
Y500000D01*
X136850Y508819D02*
X140787D01*
X138819Y506850D02*
Y510787D01*
X136850Y519724D02*
X140787D01*
X138819Y517756D02*
Y521693D01*
X136850Y530630D02*
X140787D01*
X138819Y528661D02*
Y532598D01*
X136850Y541417D02*
X140787D01*
X138819Y539449D02*
Y543386D01*
X136850Y552323D02*
X140787D01*
X138819Y550354D02*
Y554291D01*
X136850Y563228D02*
X140787D01*
X138819Y561260D02*
Y565197D01*
X136850Y574016D02*
X140787D01*
X138819Y572047D02*
Y575984D01*
X125669Y405512D02*
X129606D01*
X127638Y403543D02*
Y407480D01*
X125669Y416417D02*
X129606D01*
X127638Y414449D02*
Y418386D01*
X125669Y427323D02*
X129606D01*
X127638Y425354D02*
Y429291D01*
X125669Y438110D02*
X129606D01*
X127638Y436142D02*
Y440079D01*
X125669Y449016D02*
X129606D01*
X127638Y447047D02*
Y450984D01*
X125669Y459921D02*
X129606D01*
X127638Y457953D02*
Y461890D01*
X125669Y470709D02*
X129606D01*
X127638Y468740D02*
Y472677D01*
X125669Y481614D02*
X129606D01*
X127638Y479646D02*
Y483583D01*
X148031Y405512D02*
X151969D01*
X150000Y403543D02*
Y407480D01*
X148031Y416417D02*
X151969D01*
X150000Y414449D02*
Y418386D01*
X148031Y427323D02*
X151969D01*
X150000Y425354D02*
Y429291D01*
X148031Y438110D02*
X151969D01*
X150000Y436142D02*
Y440079D01*
X148031Y449016D02*
X151969D01*
X150000Y447047D02*
Y450984D01*
X148031Y459921D02*
X151969D01*
X150000Y457953D02*
Y461890D01*
X148031Y470709D02*
X151969D01*
X150000Y468740D02*
Y472677D01*
X148031Y481614D02*
X151969D01*
X150000Y479646D02*
Y483583D01*
X148031Y492520D02*
X151969D01*
X150000Y490551D02*
Y494488D01*
X148031Y579528D02*
X151969D01*
X150000Y577559D02*
Y581496D01*
X148031Y568622D02*
X151969D01*
X150000Y566653D02*
Y570590D01*
X148031Y557717D02*
X151969D01*
X150000Y555748D02*
Y559685D01*
X148031Y546929D02*
X151969D01*
X150000Y544961D02*
Y548898D01*
X148031Y536024D02*
X151969D01*
X150000Y534055D02*
Y537992D01*
X148031Y525118D02*
X151969D01*
X150000Y523150D02*
Y527087D01*
X148031Y514331D02*
X151969D01*
X150000Y512362D02*
Y516299D01*
X148031Y503425D02*
X151969D01*
X150000Y501457D02*
Y505394D01*
X132717Y612795D02*
X144921D01*
X138819Y606693D02*
Y618898D01*
X132717Y372244D02*
X144921D01*
X138819Y366142D02*
Y378346D01*
X22047Y375984D02*
X22835D01*
X22441Y375590D02*
Y376378D01*
X27559Y437402D02*
X28346D01*
X27953Y437008D02*
Y437795D01*
X86221Y204331D02*
X87008D01*
X86614Y203937D02*
Y204724D01*
X86221Y338976D02*
X87008D01*
X86614Y338583D02*
Y339370D01*
X157480Y530315D02*
X158268D01*
X157874Y529921D02*
Y530709D01*
X82284Y160236D02*
X83071D01*
X82677Y159843D02*
Y160630D01*
X105905Y411024D02*
X106693D01*
X106299Y410630D02*
Y411417D01*
X101969Y405905D02*
X102756D01*
X102362Y405512D02*
Y406299D01*
X94488Y390945D02*
X95276D01*
X94882Y390551D02*
Y391339D01*
X98032Y401181D02*
X98819D01*
X98425Y400787D02*
Y401575D01*
X109843Y420866D02*
X110630D01*
X110236Y420472D02*
Y421260D01*
X77559Y351575D02*
X78347D01*
X77953Y351181D02*
Y351969D01*
X122112Y446063D02*
X122899D01*
X122505Y445669D02*
Y446457D01*
X58661Y492913D02*
X59449D01*
X59055Y492520D02*
Y493307D01*
X77953Y215354D02*
X78740D01*
X78347Y214961D02*
Y215748D01*
X77953Y342126D02*
X78740D01*
X78347Y341732D02*
Y342520D01*
X24409Y345669D02*
X25197D01*
X24803Y345276D02*
Y346063D01*
X27559Y396063D02*
X28346D01*
X27953Y395669D02*
Y396457D01*
X25197Y423622D02*
X25984D01*
X25591Y423228D02*
Y424016D01*
X74410Y449606D02*
X75197D01*
X74803Y449213D02*
Y450000D01*
X74410Y240158D02*
X75197D01*
X74803Y239764D02*
Y240551D01*
X70472Y459842D02*
X71260D01*
X70866Y459449D02*
Y460236D01*
X70472Y230315D02*
X71260D01*
X70866Y229921D02*
Y230709D01*
X62598Y194882D02*
X63386D01*
X62992Y194488D02*
Y195276D01*
X50787Y514567D02*
X51575D01*
X51181Y514173D02*
Y514961D01*
X54724Y503543D02*
X55512D01*
X55118Y503150D02*
Y503937D01*
X62598Y481496D02*
X63386D01*
X62992Y481102D02*
Y481890D01*
X66535Y470866D02*
X67323D01*
X66929Y470472D02*
Y471260D01*
X46850Y524803D02*
X47638D01*
X47244Y524409D02*
Y525197D01*
X66535Y199606D02*
X67323D01*
X66929Y199213D02*
Y200000D01*
X58661Y185039D02*
X59449D01*
X59055Y184646D02*
Y185433D01*
X54724Y179528D02*
X55512D01*
X55118Y179134D02*
Y179921D01*
X50787Y175197D02*
X51575D01*
X51181Y174803D02*
Y175591D01*
X46850Y164961D02*
X47638D01*
X47244Y164567D02*
Y165354D01*
X42913Y546850D02*
X43701D01*
X43307Y546457D02*
Y547244D01*
X42913Y155118D02*
X43701D01*
X43307Y154724D02*
Y155512D01*
X38583Y558268D02*
X39370D01*
X38976Y557874D02*
Y558661D01*
X38583Y145276D02*
X39370D01*
X38976Y144882D02*
Y145669D01*
X35039Y568898D02*
X35827D01*
X35433Y568504D02*
Y569291D01*
X35039Y135039D02*
X35827D01*
X35433Y134646D02*
Y135433D01*
X31496Y579528D02*
X32283D01*
X31890Y579134D02*
Y579921D01*
X31496Y125197D02*
X32283D01*
X31890Y124803D02*
Y125591D01*
X114567Y432677D02*
X115354D01*
X114961Y432283D02*
Y433071D01*
X109723Y484539D02*
X110511D01*
X110117Y484146D02*
Y484933D01*
X90551Y385827D02*
X91339D01*
X90945Y385433D02*
Y386221D01*
X86614Y381102D02*
X87402D01*
X87008Y380709D02*
Y381496D01*
X83465Y416142D02*
X84252D01*
X83858Y415748D02*
Y416535D01*
X83465Y370866D02*
X84252D01*
X83858Y370472D02*
Y371260D01*
X80315Y427165D02*
X81102D01*
X80709Y426772D02*
Y427559D01*
X80315Y361024D02*
X81102D01*
X80709Y360630D02*
Y361417D01*
X77559Y438583D02*
X78347D01*
X77953Y438189D02*
Y438976D01*
M02*
