G04*
G04 #@! TF.GenerationSoftware,Altium Limited,Altium Designer,24.3.1 (35)*
G04*
G04 Layer_Color=8388736*
%FSLAX25Y25*%
%MOIN*%
G70*
G04*
G04 #@! TF.SameCoordinates,F9B35F18-39F2-4BAC-A9EF-380DD9FA1C01*
G04*
G04*
G04 #@! TF.FilePolarity,Positive*
G04*
G01*
G75*
%ADD10C,0.01000*%
D10*
X458858Y221811D02*
X464370D01*
X373819Y219843D02*
Y223780D01*
X371457Y221811D02*
X376181D01*
X436811Y219843D02*
Y223780D01*
X434449Y221811D02*
X439173D01*
X464370Y198189D02*
Y245433D01*
X458858Y309055D02*
X464370D01*
X373819Y307087D02*
Y311024D01*
X371457Y309055D02*
X376181D01*
X436811Y307087D02*
Y311024D01*
X434449Y309055D02*
X439173D01*
X464370Y285433D02*
Y332677D01*
X458858Y134567D02*
X464370D01*
X373819Y132598D02*
Y136535D01*
X371457Y134567D02*
X376181D01*
X436811Y132598D02*
Y136535D01*
X434449Y134567D02*
X439173D01*
X464370Y110945D02*
Y158189D01*
X458858Y47323D02*
X464370D01*
X373819Y45354D02*
Y49291D01*
X371457Y47323D02*
X376181D01*
X436811Y45354D02*
Y49291D01*
X434449Y47323D02*
X439173D01*
X464370Y23701D02*
Y70945D01*
M02*
