G04*
G04 #@! TF.GenerationSoftware,Altium Limited,Altium Designer,24.3.1 (35)*
G04*
G04 Layer_Physical_Order=1*
G04 Layer_Color=255*
%FSLAX25Y25*%
%MOIN*%
G70*
G04*
G04 #@! TF.SameCoordinates,F9B35F18-39F2-4BAC-A9EF-380DD9FA1C01*
G04*
G04*
G04 #@! TF.FilePolarity,Positive*
G04*
G01*
G75*
%ADD10C,0.01000*%
%ADD20C,0.19685*%
%ADD21C,0.07000*%
%ADD22C,0.15748*%
%ADD23C,0.06299*%
G04:AMPARAMS|DCode=24|XSize=62.99mil|YSize=62.99mil|CornerRadius=15.75mil|HoleSize=0mil|Usage=FLASHONLY|Rotation=90.000|XOffset=0mil|YOffset=0mil|HoleType=Round|Shape=RoundedRectangle|*
%AMROUNDEDRECTD24*
21,1,0.06299,0.03150,0,0,90.0*
21,1,0.03150,0.06299,0,0,90.0*
1,1,0.03150,0.01575,0.01575*
1,1,0.03150,0.01575,-0.01575*
1,1,0.03150,-0.01575,-0.01575*
1,1,0.03150,-0.01575,0.01575*
%
%ADD24ROUNDEDRECTD24*%
%ADD25C,0.07874*%
%ADD26C,0.01968*%
G36*
X146322Y540034D02*
X145649Y539362D01*
X144933Y538122D01*
X144563Y536739D01*
Y535308D01*
X144933Y533925D01*
X145649Y532685D01*
X146662Y531673D01*
X147901Y530957D01*
X148377Y530830D01*
Y530312D01*
X147901Y530185D01*
X146662Y529469D01*
X145649Y528456D01*
X144933Y527217D01*
X144563Y525834D01*
Y524402D01*
X144933Y523020D01*
X145649Y521780D01*
X146662Y520767D01*
X147901Y520052D01*
X148190Y519974D01*
Y519474D01*
X147901Y519397D01*
X146662Y518681D01*
X145649Y517669D01*
X144933Y516429D01*
X144563Y515047D01*
Y514301D01*
X144101Y514110D01*
X142513Y515698D01*
X142398Y515775D01*
X142349Y516272D01*
X142770Y516693D01*
X143420Y517819D01*
X143756Y519074D01*
Y519224D01*
X138819D01*
X133882D01*
Y519074D01*
X134218Y517819D01*
X134868Y516693D01*
X135289Y516272D01*
X135240Y515775D01*
X135125Y515698D01*
X133537Y514110D01*
X133075Y514301D01*
Y515047D01*
X132704Y516429D01*
X131989Y517669D01*
X130976Y518681D01*
X129736Y519397D01*
X129448Y519474D01*
Y519974D01*
X129736Y520052D01*
X130976Y520767D01*
X131989Y521780D01*
X132704Y523020D01*
X133075Y524402D01*
Y525834D01*
X132704Y527217D01*
X131989Y528456D01*
X130976Y529469D01*
X129736Y530185D01*
X129261Y530312D01*
Y530830D01*
X129736Y530957D01*
X130976Y531673D01*
X131989Y532685D01*
X132704Y533925D01*
X133075Y535308D01*
Y536739D01*
X132704Y538122D01*
X132674Y538175D01*
X133782Y539284D01*
X134401Y539196D01*
X134868Y538386D01*
X135787Y537467D01*
X136913Y536817D01*
X138169Y536480D01*
X138319D01*
Y541417D01*
X138819D01*
Y541917D01*
X143806D01*
X144233Y542124D01*
X146322Y540034D01*
D02*
G37*
G36*
X171977Y2039D02*
X2039D01*
Y72427D01*
X2539Y72561D01*
X2779Y72145D01*
X3645Y71279D01*
X4705Y70667D01*
X5888Y70350D01*
X7112D01*
X8295Y70667D01*
X9355Y71279D01*
X10221Y72145D01*
X10833Y73205D01*
X11150Y74388D01*
Y75612D01*
X10833Y76795D01*
X10221Y77855D01*
X9355Y78721D01*
X8295Y79333D01*
X7112Y79650D01*
X5888D01*
X4705Y79333D01*
X3645Y78721D01*
X2779Y77855D01*
X2539Y77439D01*
X2039Y77573D01*
Y82427D01*
X2539Y82561D01*
X2779Y82145D01*
X3645Y81279D01*
X4705Y80667D01*
X5888Y80350D01*
X7112D01*
X8295Y80667D01*
X9355Y81279D01*
X10221Y82145D01*
X10833Y83205D01*
X11150Y84388D01*
Y85612D01*
X10833Y86795D01*
X10221Y87855D01*
X9355Y88721D01*
X8295Y89333D01*
X7112Y89650D01*
X5888D01*
X4705Y89333D01*
X3645Y88721D01*
X2779Y87855D01*
X2539Y87439D01*
X2039Y87573D01*
Y92427D01*
X2539Y92561D01*
X2779Y92145D01*
X3645Y91279D01*
X4705Y90667D01*
X5888Y90350D01*
X7112D01*
X8295Y90667D01*
X9355Y91279D01*
X10221Y92145D01*
X10833Y93205D01*
X11150Y94388D01*
Y95612D01*
X10833Y96795D01*
X10221Y97855D01*
X9355Y98721D01*
X8295Y99333D01*
X7112Y99650D01*
X5888D01*
X4705Y99333D01*
X3645Y98721D01*
X2779Y97855D01*
X2539Y97439D01*
X2039Y97573D01*
Y103683D01*
X2539Y103749D01*
X2633Y103398D01*
X3179Y102452D01*
X3952Y101680D01*
X4898Y101133D01*
X5954Y100850D01*
X6000D01*
Y105000D01*
Y109150D01*
X5954D01*
X4898Y108867D01*
X3952Y108320D01*
X3179Y107548D01*
X2633Y106602D01*
X2539Y106251D01*
X2039Y106317D01*
Y112427D01*
X2539Y112561D01*
X2779Y112145D01*
X3645Y111279D01*
X4705Y110667D01*
X5888Y110350D01*
X7112D01*
X8295Y110667D01*
X9355Y111279D01*
X10221Y112145D01*
X10833Y113205D01*
X11150Y114388D01*
Y115612D01*
X10833Y116795D01*
X10221Y117855D01*
X9355Y118721D01*
X8295Y119333D01*
X7112Y119650D01*
X5888D01*
X4705Y119333D01*
X3645Y118721D01*
X2779Y117855D01*
X2539Y117439D01*
X2039Y117573D01*
Y123683D01*
X2539Y123749D01*
X2633Y123398D01*
X3179Y122452D01*
X3952Y121679D01*
X4898Y121133D01*
X5954Y120850D01*
X6000D01*
Y125000D01*
Y129150D01*
X5954D01*
X4898Y128867D01*
X3952Y128321D01*
X3179Y127548D01*
X2633Y126602D01*
X2539Y126251D01*
X2039Y126317D01*
Y132427D01*
X2539Y132561D01*
X2779Y132145D01*
X3645Y131279D01*
X4705Y130667D01*
X5888Y130350D01*
X7112D01*
X8295Y130667D01*
X9355Y131279D01*
X10221Y132145D01*
X10833Y133205D01*
X11150Y134388D01*
Y135612D01*
X10833Y136795D01*
X10221Y137855D01*
X9355Y138721D01*
X8295Y139333D01*
X7112Y139650D01*
X5888D01*
X4705Y139333D01*
X3645Y138721D01*
X2779Y137855D01*
X2539Y137439D01*
X2039Y137573D01*
Y143683D01*
X2539Y143749D01*
X2633Y143398D01*
X3179Y142452D01*
X3952Y141680D01*
X4898Y141133D01*
X5954Y140850D01*
X6000D01*
Y145000D01*
Y149150D01*
X5954D01*
X4898Y148867D01*
X3952Y148320D01*
X3179Y147548D01*
X2633Y146602D01*
X2539Y146251D01*
X2039Y146317D01*
Y152427D01*
X2539Y152561D01*
X2779Y152145D01*
X3645Y151279D01*
X4705Y150667D01*
X5888Y150350D01*
X7112D01*
X8295Y150667D01*
X9355Y151279D01*
X10221Y152145D01*
X10833Y153205D01*
X11150Y154388D01*
Y155612D01*
X10906Y156522D01*
X12152Y157768D01*
X12552Y157461D01*
X12167Y156795D01*
X11850Y155612D01*
Y154388D01*
X12167Y153205D01*
X12779Y152145D01*
X13645Y151279D01*
X14705Y150667D01*
X15888Y150350D01*
X17112D01*
X18295Y150667D01*
X19355Y151279D01*
X20221Y152145D01*
X20692Y152961D01*
X42024D01*
X42813Y152634D01*
X43801D01*
X44714Y153012D01*
X45413Y153711D01*
X45791Y154624D01*
Y155612D01*
X45413Y156525D01*
X44714Y157224D01*
X43801Y157602D01*
X42813D01*
X41900Y157224D01*
X41715Y157039D01*
X20692D01*
X20312Y157697D01*
X20534Y158197D01*
X81203D01*
X81270Y158130D01*
X82183Y157752D01*
X83171D01*
X84084Y158130D01*
X84783Y158829D01*
X85161Y159742D01*
Y160730D01*
X84783Y161643D01*
X84084Y162342D01*
X83171Y162721D01*
X82183D01*
X81270Y162342D01*
X81203Y162275D01*
X48560D01*
X48460Y162775D01*
X48651Y162855D01*
X49350Y163553D01*
X49728Y164467D01*
Y165455D01*
X49350Y166368D01*
X48651Y167067D01*
X47738Y167445D01*
X46750D01*
X45837Y167067D01*
X45809Y167039D01*
X20692D01*
X20221Y167855D01*
X19355Y168721D01*
X18295Y169333D01*
X17112Y169650D01*
X15888D01*
X14705Y169333D01*
X13645Y168721D01*
X12779Y167855D01*
X12167Y166795D01*
X11850Y165612D01*
Y164388D01*
X12167Y163205D01*
X12454Y162708D01*
X12204Y162275D01*
X11736D01*
X10956Y162120D01*
X10294Y161678D01*
X8022Y159406D01*
X7112Y159650D01*
X5888D01*
X4705Y159333D01*
X3645Y158721D01*
X2779Y157855D01*
X2539Y157439D01*
X2039Y157573D01*
Y163683D01*
X2539Y163749D01*
X2633Y163398D01*
X3179Y162452D01*
X3952Y161679D01*
X4898Y161133D01*
X5954Y160850D01*
X6000D01*
Y165000D01*
Y169150D01*
X5954D01*
X4898Y168867D01*
X3952Y168321D01*
X3179Y167548D01*
X2633Y166602D01*
X2539Y166251D01*
X2039Y166317D01*
Y172427D01*
X2539Y172561D01*
X2779Y172145D01*
X3645Y171279D01*
X4705Y170667D01*
X5888Y170350D01*
X7112D01*
X8295Y170667D01*
X9355Y171279D01*
X10221Y172145D01*
X10833Y173205D01*
X11150Y174388D01*
Y175612D01*
X10906Y176522D01*
X11720Y177336D01*
X11889Y177313D01*
X12165Y176799D01*
X12162Y176773D01*
X11850Y175612D01*
Y174388D01*
X12167Y173205D01*
X12779Y172145D01*
X13645Y171279D01*
X14705Y170667D01*
X15888Y170350D01*
X17112D01*
X18295Y170667D01*
X19355Y171279D01*
X20221Y172145D01*
X20692Y172961D01*
X50088D01*
X50687Y172713D01*
X51675D01*
X52588Y173091D01*
X53287Y173790D01*
X53665Y174703D01*
Y175691D01*
X53287Y176604D01*
X52781Y177110D01*
X52988Y177610D01*
X53522D01*
X53711Y177421D01*
X54624Y177043D01*
X55612D01*
X56525Y177421D01*
X57224Y178120D01*
X57602Y179033D01*
Y180022D01*
X57224Y180935D01*
X56525Y181634D01*
X55612Y182012D01*
X54624D01*
X53844Y181689D01*
X20410D01*
X20334Y181871D01*
X20246Y182189D01*
X20692Y182961D01*
X57620D01*
X57648Y182933D01*
X58561Y182555D01*
X59549D01*
X60462Y182933D01*
X61161Y183632D01*
X61539Y184545D01*
Y185533D01*
X61161Y186447D01*
X60462Y187145D01*
X59549Y187524D01*
X58561D01*
X57648Y187145D01*
X57542Y187039D01*
X20692D01*
X20221Y187855D01*
X19355Y188721D01*
X18295Y189333D01*
X17112Y189650D01*
X15888D01*
X14705Y189333D01*
X13645Y188721D01*
X12779Y187855D01*
X12167Y186795D01*
X11850Y185612D01*
Y184388D01*
X12167Y183205D01*
X12754Y182189D01*
X12666Y181871D01*
X12590Y181689D01*
X11150D01*
X10369Y181534D01*
X9708Y181091D01*
X8022Y179406D01*
X7112Y179650D01*
X5888D01*
X4705Y179333D01*
X3645Y178721D01*
X2779Y177855D01*
X2539Y177439D01*
X2039Y177573D01*
Y183683D01*
X2539Y183749D01*
X2633Y183398D01*
X3179Y182452D01*
X3952Y181679D01*
X4898Y181133D01*
X5954Y180850D01*
X6000D01*
Y185000D01*
Y189150D01*
X5954D01*
X4898Y188867D01*
X3952Y188321D01*
X3179Y187548D01*
X2633Y186602D01*
X2539Y186251D01*
X2039Y186317D01*
Y192427D01*
X2539Y192561D01*
X2779Y192145D01*
X3645Y191279D01*
X4705Y190667D01*
X5888Y190350D01*
X7112D01*
X8295Y190667D01*
X9355Y191279D01*
X10221Y192145D01*
X10833Y193205D01*
X11150Y194388D01*
Y195612D01*
X10906Y196522D01*
X11720Y197336D01*
X11889Y197313D01*
X12165Y196799D01*
X12162Y196773D01*
X11850Y195612D01*
Y194388D01*
X12167Y193205D01*
X12779Y192145D01*
X13645Y191279D01*
X14705Y190667D01*
X15888Y190350D01*
X17112D01*
X18295Y190667D01*
X19355Y191279D01*
X20221Y192145D01*
X20692Y192961D01*
X61400D01*
X61585Y192776D01*
X62498Y192398D01*
X63486D01*
X64399Y192776D01*
X65098Y193475D01*
X65476Y194388D01*
Y195376D01*
X65098Y196289D01*
X64399Y196988D01*
X64104Y197110D01*
X64203Y197610D01*
X65412D01*
X65522Y197500D01*
X66435Y197122D01*
X67423D01*
X68336Y197500D01*
X69035Y198199D01*
X69413Y199112D01*
Y200100D01*
X69035Y201013D01*
X68336Y201712D01*
X67698Y201977D01*
X67797Y202477D01*
X84955D01*
X85207Y202225D01*
X86120Y201847D01*
X87108D01*
X88021Y202225D01*
X88720Y202923D01*
X89098Y203837D01*
Y204825D01*
X88720Y205738D01*
X88021Y206437D01*
X87108Y206815D01*
X86120D01*
X85493Y206555D01*
X20897D01*
X20833Y206795D01*
X20221Y207855D01*
X19355Y208721D01*
X18295Y209333D01*
X17112Y209650D01*
X15888D01*
X14705Y209333D01*
X13645Y208721D01*
X12779Y207855D01*
X12167Y206795D01*
X11850Y205612D01*
Y204388D01*
X12167Y203205D01*
X12754Y202189D01*
X12666Y201871D01*
X12590Y201689D01*
X11150D01*
X10369Y201534D01*
X9708Y201092D01*
X8022Y199406D01*
X7112Y199650D01*
X5888D01*
X4705Y199333D01*
X3645Y198721D01*
X2779Y197855D01*
X2539Y197439D01*
X2039Y197573D01*
Y203683D01*
X2539Y203749D01*
X2633Y203398D01*
X3179Y202452D01*
X3952Y201679D01*
X4898Y201133D01*
X5954Y200850D01*
X6000D01*
Y205000D01*
Y209150D01*
X5954D01*
X4898Y208867D01*
X3952Y208320D01*
X3179Y207548D01*
X2633Y206602D01*
X2539Y206251D01*
X2039Y206317D01*
Y213683D01*
X2539Y213749D01*
X2633Y213398D01*
X3179Y212452D01*
X3952Y211680D01*
X4898Y211133D01*
X5954Y210850D01*
X6000D01*
Y215000D01*
Y219150D01*
X5954D01*
X4898Y218867D01*
X3952Y218320D01*
X3179Y217548D01*
X2633Y216602D01*
X2539Y216251D01*
X2039Y216317D01*
Y222427D01*
X2539Y222561D01*
X2779Y222145D01*
X3645Y221279D01*
X4705Y220667D01*
X5888Y220350D01*
X7112D01*
X8295Y220667D01*
X9355Y221279D01*
X10221Y222145D01*
X10833Y223205D01*
X11150Y224388D01*
Y225612D01*
X10906Y226522D01*
X12152Y227768D01*
X12552Y227461D01*
X12167Y226795D01*
X11850Y225612D01*
Y224388D01*
X12167Y223205D01*
X12779Y222145D01*
X13645Y221279D01*
X14705Y220667D01*
X15888Y220350D01*
X17112D01*
X18295Y220667D01*
X19355Y221279D01*
X20221Y222145D01*
X20833Y223205D01*
X21150Y224388D01*
Y225612D01*
X20833Y226795D01*
X20266Y227776D01*
X20431Y228276D01*
X69392D01*
X69459Y228209D01*
X70372Y227831D01*
X71360D01*
X72273Y228209D01*
X72972Y228908D01*
X73350Y229821D01*
Y230809D01*
X72972Y231722D01*
X72273Y232421D01*
X71360Y232799D01*
X70372D01*
X69459Y232421D01*
X69392Y232354D01*
X20841D01*
X20591Y232787D01*
X20833Y233205D01*
X21150Y234388D01*
Y235612D01*
X20833Y236795D01*
X20357Y237618D01*
X20636Y238118D01*
X73329D01*
X73396Y238051D01*
X74309Y237673D01*
X75297D01*
X76210Y238051D01*
X76909Y238750D01*
X77287Y239663D01*
Y240652D01*
X76909Y241565D01*
X76210Y242264D01*
X75297Y242642D01*
X74309D01*
X73396Y242264D01*
X73329Y242197D01*
X11658D01*
X10877Y242041D01*
X10216Y241599D01*
X8022Y239406D01*
X7112Y239650D01*
X5888D01*
X4705Y239333D01*
X3645Y238721D01*
X2779Y237855D01*
X2539Y237439D01*
X2039Y237573D01*
Y298427D01*
X2539Y298561D01*
X2779Y298145D01*
X3645Y297279D01*
X4705Y296667D01*
X5888Y296350D01*
X7112D01*
X8295Y296667D01*
X9355Y297279D01*
X10221Y298145D01*
X10833Y299205D01*
X11150Y300388D01*
Y301612D01*
X10833Y302795D01*
X10221Y303855D01*
X9355Y304721D01*
X8295Y305333D01*
X7112Y305650D01*
X5888D01*
X4705Y305333D01*
X3645Y304721D01*
X2779Y303855D01*
X2539Y303439D01*
X2039Y303573D01*
Y308427D01*
X2539Y308561D01*
X2779Y308145D01*
X3645Y307279D01*
X4705Y306667D01*
X5888Y306350D01*
X7112D01*
X8295Y306667D01*
X9355Y307279D01*
X10221Y308145D01*
X10833Y309205D01*
X11150Y310388D01*
Y311612D01*
X10833Y312795D01*
X10221Y313855D01*
X9355Y314721D01*
X8295Y315333D01*
X7112Y315650D01*
X5888D01*
X4705Y315333D01*
X3645Y314721D01*
X2779Y313855D01*
X2539Y313439D01*
X2039Y313573D01*
Y318427D01*
X2539Y318561D01*
X2779Y318145D01*
X3645Y317279D01*
X4705Y316667D01*
X5888Y316350D01*
X7112D01*
X8295Y316667D01*
X9355Y317279D01*
X10221Y318145D01*
X10833Y319205D01*
X11150Y320388D01*
Y321612D01*
X10906Y322522D01*
X11720Y323336D01*
X11889Y323313D01*
X12165Y322799D01*
X12162Y322773D01*
X11850Y321612D01*
Y320388D01*
X12167Y319205D01*
X12779Y318145D01*
X13645Y317279D01*
X14705Y316667D01*
X15888Y316350D01*
X17112D01*
X18022Y316594D01*
X19268Y315348D01*
X18961Y314948D01*
X18295Y315333D01*
X17112Y315650D01*
X15888D01*
X14705Y315333D01*
X13645Y314721D01*
X12779Y313855D01*
X12167Y312795D01*
X11850Y311612D01*
Y310388D01*
X12167Y309205D01*
X12779Y308145D01*
X13645Y307279D01*
X14705Y306667D01*
X15888Y306350D01*
X17112D01*
X18022Y306594D01*
X18490Y306126D01*
X18257Y305652D01*
X18075Y305676D01*
X14925D01*
X14122Y305570D01*
X13374Y305261D01*
X12732Y304768D01*
X12239Y304125D01*
X11930Y303378D01*
X11824Y302575D01*
Y299425D01*
X11930Y298622D01*
X12239Y297874D01*
X12732Y297232D01*
X13374Y296739D01*
X14122Y296430D01*
X14925Y296324D01*
X18075D01*
X18878Y296430D01*
X19625Y296739D01*
X20268Y297232D01*
X20761Y297874D01*
X21070Y298622D01*
X21176Y299425D01*
Y302575D01*
X21152Y302757D01*
X21626Y302990D01*
X104247Y220369D01*
X104909Y219927D01*
X105689Y219772D01*
X111191D01*
X111786Y218741D01*
X112717Y217810D01*
X113857Y217152D01*
X114196Y217061D01*
Y216561D01*
X113857Y216470D01*
X112717Y215812D01*
X111786Y214881D01*
X111128Y213741D01*
X110787Y212469D01*
Y211153D01*
X111128Y209881D01*
X111786Y208741D01*
X112717Y207810D01*
X113857Y207152D01*
X115129Y206811D01*
X116446D01*
X117717Y207152D01*
X118858Y207810D01*
X119788Y208741D01*
X120447Y209881D01*
X120787Y211153D01*
Y212469D01*
X120447Y213741D01*
X119788Y214881D01*
X118858Y215812D01*
X117717Y216470D01*
X117379Y216561D01*
Y217061D01*
X117717Y217152D01*
X118858Y217810D01*
X119788Y218741D01*
X120447Y219881D01*
X120537Y220220D01*
X121037D01*
X121128Y219881D01*
X121786Y218741D01*
X122717Y217810D01*
X123857Y217152D01*
X125129Y216811D01*
X126446D01*
X127717Y217152D01*
X128858Y217810D01*
X129788Y218741D01*
X130447Y219881D01*
X130787Y221153D01*
Y222469D01*
X130447Y223741D01*
X129788Y224881D01*
X128858Y225812D01*
X127717Y226470D01*
X126446Y226811D01*
X125129D01*
X123979Y226503D01*
X123288Y227194D01*
Y233421D01*
X123133Y234201D01*
X122691Y234862D01*
X61229Y296324D01*
X60942Y296516D01*
X61094Y297016D01*
X111191D01*
X111786Y295985D01*
X112717Y295054D01*
X113857Y294396D01*
X115129Y294055D01*
X116446D01*
X117717Y294396D01*
X118858Y295054D01*
X119788Y295985D01*
X120447Y297125D01*
X120787Y298397D01*
Y299713D01*
X120447Y300985D01*
X119788Y302125D01*
X118858Y303056D01*
X117717Y303714D01*
X117379Y303805D01*
Y304305D01*
X117717Y304396D01*
X118858Y305054D01*
X119788Y305985D01*
X120447Y307125D01*
X120537Y307464D01*
X121037D01*
X121128Y307125D01*
X121786Y305985D01*
X122717Y305054D01*
X123857Y304396D01*
X125129Y304055D01*
X126446D01*
X127717Y304396D01*
X128858Y305054D01*
X129788Y305985D01*
X130447Y307125D01*
X130787Y308397D01*
Y309713D01*
X130447Y310985D01*
X129788Y312125D01*
X128858Y313056D01*
X127717Y313714D01*
X126446Y314055D01*
X125129D01*
X123979Y313747D01*
X122229Y315497D01*
X121568Y315939D01*
X120787Y316094D01*
X120352D01*
X120101Y316527D01*
X120447Y317125D01*
X120787Y318397D01*
Y319713D01*
X120447Y320985D01*
X119788Y322125D01*
X118858Y323056D01*
X117717Y323714D01*
X116446Y324055D01*
X115129D01*
X113857Y323714D01*
X112717Y323056D01*
X111786Y322125D01*
X111128Y320985D01*
X110787Y319713D01*
Y318397D01*
X111128Y317125D01*
X111473Y316527D01*
X111223Y316094D01*
X44290D01*
X20906Y339478D01*
X21150Y340388D01*
Y341612D01*
X20833Y342795D01*
X20221Y343855D01*
X19355Y344721D01*
X18295Y345333D01*
X17112Y345650D01*
X15888D01*
X14705Y345333D01*
X13645Y344721D01*
X12779Y343855D01*
X12167Y342795D01*
X11850Y341612D01*
Y340388D01*
X12167Y339205D01*
X12779Y338145D01*
X13645Y337279D01*
X14705Y336667D01*
X15888Y336350D01*
X17112D01*
X18022Y336594D01*
X19268Y335348D01*
X18961Y334948D01*
X18295Y335333D01*
X17112Y335650D01*
X15888D01*
X14705Y335333D01*
X13645Y334721D01*
X12779Y333855D01*
X12167Y332795D01*
X11850Y331612D01*
Y330388D01*
X12167Y329205D01*
X12754Y328189D01*
X12666Y327871D01*
X12590Y327689D01*
X11150D01*
X10369Y327534D01*
X9708Y327092D01*
X8022Y325406D01*
X7112Y325650D01*
X5888D01*
X4705Y325333D01*
X3645Y324721D01*
X2779Y323855D01*
X2539Y323439D01*
X2039Y323573D01*
Y329683D01*
X2539Y329749D01*
X2633Y329398D01*
X3179Y328452D01*
X3952Y327679D01*
X4898Y327133D01*
X5954Y326850D01*
X6000D01*
Y331000D01*
Y335150D01*
X5954D01*
X4898Y334867D01*
X3952Y334320D01*
X3179Y333548D01*
X2633Y332602D01*
X2539Y332251D01*
X2039Y332317D01*
Y338427D01*
X2539Y338561D01*
X2779Y338145D01*
X3645Y337279D01*
X4705Y336667D01*
X5888Y336350D01*
X7112D01*
X8295Y336667D01*
X9355Y337279D01*
X10221Y338145D01*
X10833Y339205D01*
X11150Y340388D01*
Y341612D01*
X10833Y342795D01*
X10221Y343855D01*
X9355Y344721D01*
X8295Y345333D01*
X7112Y345650D01*
X5888D01*
X4705Y345333D01*
X3645Y344721D01*
X2779Y343855D01*
X2539Y343439D01*
X2039Y343573D01*
Y349683D01*
X2539Y349749D01*
X2633Y349398D01*
X3179Y348452D01*
X3952Y347679D01*
X4898Y347133D01*
X5954Y346850D01*
X6000D01*
Y351000D01*
Y355150D01*
X5954D01*
X4898Y354867D01*
X3952Y354321D01*
X3179Y353548D01*
X2633Y352602D01*
X2539Y352251D01*
X2039Y352317D01*
Y358427D01*
X2539Y358561D01*
X2779Y358145D01*
X3645Y357279D01*
X4705Y356667D01*
X5888Y356350D01*
X7112D01*
X8295Y356667D01*
X9355Y357279D01*
X10221Y358145D01*
X10833Y359205D01*
X11150Y360388D01*
Y361612D01*
X10833Y362795D01*
X10221Y363855D01*
X9355Y364721D01*
X8295Y365333D01*
X7112Y365650D01*
X5888D01*
X4705Y365333D01*
X3645Y364721D01*
X2779Y363855D01*
X2539Y363439D01*
X2039Y363573D01*
Y369683D01*
X2539Y369749D01*
X2633Y369398D01*
X3179Y368452D01*
X3952Y367680D01*
X4898Y367133D01*
X5954Y366850D01*
X6000D01*
Y371000D01*
Y375150D01*
X5954D01*
X4898Y374867D01*
X3952Y374321D01*
X3179Y373548D01*
X2633Y372602D01*
X2539Y372251D01*
X2039Y372317D01*
Y378427D01*
X2539Y378561D01*
X2779Y378145D01*
X3645Y377279D01*
X4705Y376667D01*
X5888Y376350D01*
X7112D01*
X8295Y376667D01*
X9355Y377279D01*
X10221Y378145D01*
X10833Y379205D01*
X11150Y380388D01*
Y381612D01*
X10906Y382522D01*
X11849Y383465D01*
X11968Y383450D01*
X12234Y382910D01*
X12167Y382795D01*
X11850Y381612D01*
Y380388D01*
X12167Y379205D01*
X12779Y378145D01*
X13645Y377279D01*
X14705Y376667D01*
X15888Y376350D01*
X17112D01*
X18295Y376667D01*
X19355Y377279D01*
X20221Y378145D01*
X20692Y378961D01*
X21928D01*
X21947Y378468D01*
X21034Y378090D01*
X20335Y377392D01*
X19957Y376478D01*
Y375490D01*
X20335Y374577D01*
X21034Y373878D01*
X21852Y373539D01*
X21753Y373039D01*
X20692D01*
X20221Y373855D01*
X19355Y374721D01*
X18295Y375333D01*
X17112Y375650D01*
X15888D01*
X14705Y375333D01*
X13645Y374721D01*
X12779Y373855D01*
X12167Y372795D01*
X11850Y371612D01*
Y370388D01*
X12167Y369205D01*
X12779Y368145D01*
X13645Y367279D01*
X14705Y366667D01*
X15888Y366350D01*
X17112D01*
X18295Y366667D01*
X19355Y367279D01*
X20221Y368145D01*
X20692Y368961D01*
X82250D01*
X82451Y368760D01*
X83364Y368382D01*
X84352D01*
X85265Y368760D01*
X85964Y369459D01*
X86343Y370372D01*
Y371360D01*
X85964Y372273D01*
X85265Y372972D01*
X84352Y373350D01*
X83364D01*
X82613Y373039D01*
X23129D01*
X23030Y373539D01*
X23848Y373878D01*
X23915Y373945D01*
X120866D01*
X121646Y374100D01*
X122308Y374542D01*
X148146Y400380D01*
X149284Y400075D01*
X150716D01*
X152099Y400445D01*
X153338Y401161D01*
X154351Y402173D01*
X154898Y403121D01*
X155398Y402987D01*
Y375666D01*
X149988Y370256D01*
X149520Y370495D01*
X149661Y371391D01*
Y371744D01*
X139319D01*
Y361402D01*
X139672D01*
X140568Y361543D01*
X140807Y361075D01*
X127440Y347709D01*
X26277D01*
X26210Y347775D01*
X25297Y348153D01*
X24309D01*
X23396Y347775D01*
X22697Y347077D01*
X22319Y346163D01*
Y345175D01*
X22697Y344262D01*
X23396Y343563D01*
X24309Y343185D01*
X25297D01*
X26210Y343563D01*
X26277Y343630D01*
X75739D01*
X76073Y343130D01*
X75862Y342620D01*
Y341632D01*
X76240Y340719D01*
X76939Y340020D01*
X77852Y339642D01*
X78841D01*
X79754Y340020D01*
X79821Y340087D01*
X83935D01*
X84213Y339671D01*
X84130Y339471D01*
Y338482D01*
X84508Y337569D01*
X85207Y336870D01*
X86120Y336492D01*
X87108D01*
X88021Y336870D01*
X88482Y337331D01*
X133465D01*
X134245Y337486D01*
X134906Y337928D01*
X166402Y369424D01*
X166402Y369424D01*
X166845Y370086D01*
X167000Y370866D01*
X167000Y370866D01*
Y444961D01*
X167000Y444961D01*
X166845Y445741D01*
X166402Y446403D01*
X155036Y457769D01*
X155067Y457823D01*
X155437Y459205D01*
Y460637D01*
X155067Y462020D01*
X154351Y463260D01*
X153338Y464272D01*
X152099Y464988D01*
X151810Y465065D01*
Y465565D01*
X152099Y465642D01*
X153338Y466358D01*
X154351Y467370D01*
X155067Y468610D01*
X155437Y469993D01*
Y471424D01*
X155067Y472807D01*
X154351Y474047D01*
X153338Y475059D01*
X152099Y475775D01*
X151623Y475903D01*
Y476420D01*
X152099Y476548D01*
X153338Y477263D01*
X154351Y478276D01*
X155067Y479516D01*
X155437Y480898D01*
Y482330D01*
X155067Y483713D01*
X154351Y484953D01*
X153338Y485965D01*
X152099Y486681D01*
X151623Y486808D01*
Y487326D01*
X152099Y487453D01*
X153338Y488169D01*
X154351Y489181D01*
X155067Y490421D01*
X155437Y491804D01*
Y493235D01*
X155067Y494618D01*
X154351Y495858D01*
X153338Y496870D01*
X152099Y497586D01*
X151623Y497714D01*
Y498231D01*
X152099Y498359D01*
X153338Y499075D01*
X154351Y500087D01*
X155067Y501327D01*
X155437Y502709D01*
Y504141D01*
X155067Y505524D01*
X154351Y506764D01*
X153338Y507776D01*
X152099Y508492D01*
X151623Y508619D01*
Y509137D01*
X152099Y509264D01*
X153338Y509980D01*
X154351Y510992D01*
X155067Y512232D01*
X155437Y513615D01*
Y515047D01*
X155067Y516429D01*
X154351Y517669D01*
X153338Y518681D01*
X152099Y519397D01*
X151810Y519474D01*
Y519974D01*
X152099Y520052D01*
X153338Y520767D01*
X154351Y521780D01*
X155067Y523020D01*
X155437Y524402D01*
Y525834D01*
X155067Y527217D01*
X154351Y528456D01*
X153338Y529469D01*
X152099Y530185D01*
X151623Y530312D01*
Y530830D01*
X152099Y530957D01*
X153338Y531673D01*
X154351Y532685D01*
X155067Y533925D01*
X155177Y534339D01*
X155759Y534579D01*
X155835Y534534D01*
Y531789D01*
X155768Y531722D01*
X155390Y530809D01*
Y529821D01*
X155768Y528908D01*
X156467Y528209D01*
X157380Y527831D01*
X158368D01*
X159281Y528209D01*
X159980Y528908D01*
X160358Y529821D01*
Y530809D01*
X159980Y531722D01*
X159913Y531789D01*
Y535839D01*
X159758Y536619D01*
X159316Y537281D01*
X153694Y542903D01*
X153691Y542931D01*
X154351Y543591D01*
X155067Y544831D01*
X155437Y546213D01*
Y547645D01*
X155067Y549028D01*
X154351Y550268D01*
X153338Y551280D01*
X152099Y551996D01*
X151811Y552073D01*
Y552573D01*
X152099Y552650D01*
X153338Y553366D01*
X154351Y554378D01*
X155067Y555618D01*
X155437Y557001D01*
Y558432D01*
X155067Y559815D01*
X154351Y561055D01*
X153338Y562067D01*
X152099Y562783D01*
X151623Y562911D01*
Y563428D01*
X152099Y563556D01*
X153338Y564271D01*
X154351Y565284D01*
X155067Y566523D01*
X155437Y567906D01*
Y569338D01*
X155067Y570721D01*
X154351Y571960D01*
X153338Y572973D01*
X152099Y573689D01*
X150716Y574059D01*
X149284D01*
X147901Y573689D01*
X146662Y572973D01*
X145649Y571960D01*
X144933Y570721D01*
X144563Y569338D01*
Y567906D01*
X144933Y566523D01*
X145649Y565284D01*
X146662Y564271D01*
X147901Y563556D01*
X148377Y563428D01*
Y562911D01*
X147901Y562783D01*
X146662Y562067D01*
X145649Y561055D01*
X144933Y559815D01*
X144563Y558432D01*
Y557001D01*
X144933Y555618D01*
X145649Y554378D01*
X146662Y553366D01*
X147901Y552650D01*
X148189Y552573D01*
Y552073D01*
X147901Y551996D01*
X146662Y551280D01*
X145649Y550268D01*
X144933Y549028D01*
X144695Y548136D01*
X144137Y547987D01*
X143828Y548296D01*
X143166Y548738D01*
X142964Y548778D01*
X142774Y549278D01*
X142788Y549323D01*
X143420Y550417D01*
X143756Y551673D01*
Y551823D01*
X138819D01*
X133882D01*
Y551673D01*
X134218Y550417D01*
X134868Y549291D01*
X135289Y548871D01*
X135240Y548373D01*
X135125Y548296D01*
X133537Y546708D01*
X133075Y546899D01*
Y547645D01*
X132704Y549028D01*
X131989Y550268D01*
X130976Y551280D01*
X129736Y551996D01*
X129448Y552073D01*
Y552573D01*
X129736Y552650D01*
X130976Y553366D01*
X131989Y554378D01*
X132704Y555618D01*
X133075Y557001D01*
Y558432D01*
X132704Y559815D01*
X131989Y561055D01*
X130976Y562067D01*
X129736Y562783D01*
X129261Y562911D01*
Y563428D01*
X129736Y563556D01*
X130976Y564271D01*
X131989Y565284D01*
X132704Y566523D01*
X133075Y567906D01*
Y569338D01*
X132704Y570721D01*
X131989Y571960D01*
X130976Y572973D01*
X129736Y573689D01*
X129261Y573816D01*
Y574334D01*
X129736Y574461D01*
X130976Y575177D01*
X131989Y576189D01*
X132704Y577429D01*
X133075Y578812D01*
Y580243D01*
X132704Y581626D01*
X131989Y582866D01*
X130976Y583878D01*
X129736Y584594D01*
X128354Y584965D01*
X126922D01*
X125539Y584594D01*
X124299Y583878D01*
X123287Y582866D01*
X122571Y581626D01*
X122555Y581567D01*
X33364D01*
X33297Y581634D01*
X32384Y582012D01*
X31396D01*
X30483Y581634D01*
X29784Y580935D01*
X29406Y580022D01*
Y579033D01*
X29784Y578120D01*
X30483Y577422D01*
X31396Y577043D01*
X32384D01*
X33297Y577422D01*
X33364Y577488D01*
X122555D01*
X122571Y577429D01*
X123287Y576189D01*
X124299Y575177D01*
X125539Y574461D01*
X126015Y574334D01*
Y573816D01*
X125539Y573689D01*
X124299Y572973D01*
X123287Y571960D01*
X122617Y570799D01*
X37045D01*
X36840Y571004D01*
X35927Y571382D01*
X34939D01*
X34026Y571004D01*
X33327Y570305D01*
X32949Y569392D01*
Y568403D01*
X33327Y567490D01*
X34026Y566792D01*
X34939Y566413D01*
X35927D01*
X36669Y566721D01*
X122519D01*
X122571Y566523D01*
X123287Y565284D01*
X124299Y564271D01*
X125539Y563556D01*
X126015Y563428D01*
Y562911D01*
X125539Y562783D01*
X124299Y562067D01*
X123287Y561055D01*
X122748Y560122D01*
X40636D01*
X40384Y560374D01*
X39470Y560752D01*
X38482D01*
X37569Y560374D01*
X36870Y559675D01*
X36492Y558762D01*
Y557774D01*
X36870Y556860D01*
X37569Y556162D01*
X38482Y555784D01*
X39470D01*
X40098Y556043D01*
X122457D01*
X122571Y555618D01*
X123287Y554378D01*
X124299Y553366D01*
X125539Y552650D01*
X125827Y552573D01*
Y552073D01*
X125539Y551996D01*
X124299Y551280D01*
X123287Y550268D01*
X122571Y549028D01*
X122545Y548929D01*
X44742D01*
X44714Y548956D01*
X43801Y549335D01*
X42813D01*
X41900Y548956D01*
X41201Y548258D01*
X40823Y547344D01*
Y546356D01*
X41201Y545443D01*
X41900Y544744D01*
X42813Y544366D01*
X43801D01*
X44714Y544744D01*
X44820Y544851D01*
X122566D01*
X122571Y544831D01*
X123287Y543591D01*
X124299Y542578D01*
X125539Y541863D01*
X126015Y541735D01*
Y541218D01*
X125539Y541090D01*
X124299Y540374D01*
X123287Y539362D01*
X122571Y538122D01*
X122201Y536739D01*
Y535308D01*
X122571Y533925D01*
X123287Y532685D01*
X124299Y531673D01*
X125539Y530957D01*
X126015Y530830D01*
Y530312D01*
X125539Y530185D01*
X124299Y529469D01*
X123287Y528456D01*
X122571Y527217D01*
X122513Y527000D01*
X48432D01*
X47738Y527287D01*
X46750D01*
X45837Y526909D01*
X45138Y526210D01*
X44760Y525297D01*
Y524309D01*
X45138Y523396D01*
X45837Y522697D01*
X46750Y522319D01*
X47738D01*
X48651Y522697D01*
X48876Y522922D01*
X122628D01*
X123287Y521780D01*
X124299Y520767D01*
X125539Y520052D01*
X125827Y519974D01*
Y519474D01*
X125539Y519397D01*
X124299Y518681D01*
X123287Y517669D01*
X122605Y516488D01*
X52773D01*
X52588Y516673D01*
X51675Y517051D01*
X50687D01*
X49774Y516673D01*
X49075Y515974D01*
X48697Y515061D01*
Y514073D01*
X49075Y513160D01*
X49774Y512461D01*
X50687Y512083D01*
X51675D01*
X52465Y512410D01*
X122524D01*
X122571Y512232D01*
X123287Y510992D01*
X124299Y509980D01*
X125539Y509264D01*
X126015Y509137D01*
Y508619D01*
X125539Y508492D01*
X124299Y507776D01*
X123287Y506764D01*
X122571Y505524D01*
X122571Y505523D01*
X56651D01*
X56525Y505649D01*
X55612Y506028D01*
X54624D01*
X53711Y505649D01*
X53012Y504951D01*
X52634Y504038D01*
Y503049D01*
X53012Y502136D01*
X53711Y501437D01*
X54624Y501059D01*
X55612D01*
X56525Y501437D01*
X56533Y501445D01*
X122540D01*
X122571Y501327D01*
X123287Y500087D01*
X124299Y499075D01*
X125539Y498359D01*
X126015Y498231D01*
Y497714D01*
X125539Y497586D01*
X124299Y496870D01*
X123287Y495858D01*
X122571Y494618D01*
X122555Y494559D01*
X60923D01*
X60462Y495019D01*
X59549Y495398D01*
X58561D01*
X57648Y495019D01*
X56949Y494321D01*
X56571Y493407D01*
Y492419D01*
X56949Y491506D01*
X57648Y490807D01*
X58561Y490429D01*
X59549D01*
X59685Y490486D01*
X59711Y490481D01*
X122555D01*
X122571Y490421D01*
X123033Y489622D01*
X122744Y489122D01*
X112660D01*
X111880Y488967D01*
X111218Y488525D01*
X109718Y487024D01*
X109623D01*
X108710Y486646D01*
X108011Y485947D01*
X107633Y485034D01*
Y484045D01*
X107647Y484010D01*
X107370Y483594D01*
X64407D01*
X64399Y483602D01*
X63486Y483980D01*
X62498D01*
X61585Y483602D01*
X60886Y482903D01*
X60508Y481990D01*
Y481002D01*
X60886Y480089D01*
X61585Y479390D01*
X62498Y479012D01*
X63486D01*
X64399Y479390D01*
X64525Y479516D01*
X122571D01*
X122571Y479516D01*
X123051Y478685D01*
X122762Y478185D01*
X21646D01*
X20865Y478030D01*
X20204Y477588D01*
X8022Y465406D01*
X7112Y465650D01*
X5888D01*
X4705Y465333D01*
X3645Y464721D01*
X2779Y463855D01*
X2539Y463439D01*
X2039Y463573D01*
Y641662D01*
X171977D01*
Y2039D01*
D02*
G37*
G36*
X139319Y503882D02*
X139469D01*
X140725Y504218D01*
X141850Y504868D01*
X142770Y505788D01*
X143420Y506913D01*
X143716Y508020D01*
X144214Y508229D01*
X145664Y506779D01*
X145649Y506764D01*
X144933Y505524D01*
X144563Y504141D01*
Y502709D01*
X144933Y501327D01*
X145649Y500087D01*
X146662Y499075D01*
X147901Y498359D01*
X148377Y498231D01*
Y497714D01*
X147901Y497586D01*
X146662Y496870D01*
X145649Y495858D01*
X144933Y494618D01*
X144563Y493235D01*
Y491804D01*
X144933Y490421D01*
X145649Y489181D01*
X146662Y488169D01*
X147901Y487453D01*
X148377Y487326D01*
Y486808D01*
X147901Y486681D01*
X146662Y485965D01*
X145649Y484953D01*
X144933Y483713D01*
X144563Y482330D01*
Y480898D01*
X144933Y479516D01*
X145649Y478276D01*
X146662Y477263D01*
X147901Y476548D01*
X148377Y476420D01*
Y475903D01*
X147901Y475775D01*
X146662Y475059D01*
X145649Y474047D01*
X144933Y472807D01*
X144929Y472791D01*
X143010D01*
X142828Y473291D01*
X143420Y474315D01*
X143756Y475570D01*
Y475721D01*
X138819D01*
X133832D01*
X133405Y475514D01*
X131332Y477588D01*
X131329Y477616D01*
X131989Y478276D01*
X132704Y479516D01*
X133075Y480898D01*
Y482330D01*
X132704Y483713D01*
X131989Y484953D01*
X131329Y485612D01*
X131332Y485641D01*
X133405Y487714D01*
X133832Y487508D01*
X138319D01*
Y491945D01*
X138169D01*
X136913Y491608D01*
X135787Y490958D01*
X135730Y490900D01*
X135267Y491092D01*
Y493948D01*
X135730Y494139D01*
X135787Y494081D01*
X136913Y493431D01*
X138169Y493094D01*
X138319D01*
Y498032D01*
Y502969D01*
X138169D01*
X136913Y502632D01*
X135787Y501982D01*
X135730Y501924D01*
X135267Y502115D01*
Y504735D01*
X135730Y504926D01*
X135787Y504868D01*
X136913Y504218D01*
X138169Y503882D01*
X138319D01*
Y508819D01*
X139319D01*
Y503882D01*
D02*
G37*
G36*
X2779Y448145D02*
X3645Y447279D01*
X4705Y446667D01*
X5888Y446350D01*
X7112D01*
X8022Y446594D01*
X9995Y444621D01*
X10657Y444179D01*
X11437Y444024D01*
X11437Y444024D01*
X12299D01*
X12588Y443524D01*
X12167Y442795D01*
X11850Y441612D01*
Y440388D01*
X12167Y439205D01*
X12722Y438244D01*
X12638Y437857D01*
X12546Y437671D01*
X11944Y437269D01*
X10408Y435733D01*
X9966Y435072D01*
X9811Y434291D01*
Y434210D01*
X9349Y434019D01*
X9048Y434320D01*
X8102Y434867D01*
X7046Y435150D01*
X7000D01*
Y431000D01*
X6000D01*
Y435150D01*
X5954D01*
X4898Y434867D01*
X3952Y434320D01*
X3179Y433548D01*
X2633Y432602D01*
X2539Y432251D01*
X2039Y432317D01*
Y439683D01*
X2539Y439749D01*
X2633Y439398D01*
X3179Y438452D01*
X3952Y437679D01*
X4898Y437133D01*
X5954Y436850D01*
X6000D01*
Y441000D01*
Y445150D01*
X5954D01*
X4898Y444867D01*
X3952Y444320D01*
X3179Y443548D01*
X2633Y442602D01*
X2539Y442251D01*
X2039Y442317D01*
Y448427D01*
X2539Y448561D01*
X2779Y448145D01*
D02*
G37*
G36*
X133842Y469310D02*
X134503Y468868D01*
X134723Y468824D01*
X134743Y468758D01*
X134837Y468292D01*
X134218Y467221D01*
X133882Y465965D01*
Y465815D01*
X138819D01*
X143756D01*
Y465965D01*
X143420Y467221D01*
X142847Y468213D01*
X143051Y468713D01*
X144906D01*
X144933Y468610D01*
X145649Y467370D01*
X146662Y466358D01*
X147901Y465642D01*
X148190Y465565D01*
Y465065D01*
X147901Y464988D01*
X146662Y464272D01*
X145649Y463260D01*
X144933Y462020D01*
X144563Y460637D01*
Y459205D01*
X144933Y457823D01*
X145649Y456583D01*
X146662Y455571D01*
X147901Y454855D01*
X148377Y454727D01*
Y454210D01*
X147901Y454082D01*
X146662Y453366D01*
X145649Y452354D01*
X144933Y451114D01*
X144563Y449731D01*
Y448300D01*
X144933Y446917D01*
X145649Y445677D01*
X146662Y444665D01*
X147901Y443949D01*
X148377Y443822D01*
Y443304D01*
X147901Y443177D01*
X146662Y442461D01*
X145649Y441449D01*
X144933Y440209D01*
X144563Y438826D01*
Y437394D01*
X144933Y436012D01*
X145649Y434772D01*
X146662Y433759D01*
X147901Y433044D01*
X148189Y432967D01*
Y432467D01*
X147901Y432389D01*
X146662Y431673D01*
X145649Y430661D01*
X144933Y429421D01*
X144906Y429319D01*
X143051D01*
X142847Y429819D01*
X143420Y430811D01*
X143756Y432067D01*
Y432217D01*
X138819D01*
X133882D01*
Y432067D01*
X134218Y430811D01*
X134868Y429685D01*
X135283Y429271D01*
X135234Y428773D01*
X135156Y428721D01*
X133537Y427102D01*
X133075Y427293D01*
Y428039D01*
X132704Y429421D01*
X131989Y430661D01*
X130976Y431673D01*
X129736Y432389D01*
X129448Y432467D01*
Y432967D01*
X129736Y433044D01*
X130976Y433759D01*
X131989Y434772D01*
X132704Y436012D01*
X133075Y437394D01*
Y438826D01*
X132704Y440209D01*
X131989Y441449D01*
X130976Y442461D01*
X129736Y443177D01*
X129261Y443304D01*
Y443822D01*
X129736Y443949D01*
X130976Y444665D01*
X131989Y445677D01*
X132704Y446917D01*
X133075Y448300D01*
Y449731D01*
X132704Y451114D01*
X131989Y452354D01*
X130976Y453366D01*
X129736Y454082D01*
X129261Y454210D01*
Y454727D01*
X129736Y454855D01*
X130976Y455571D01*
X131989Y456583D01*
X132704Y457823D01*
X133075Y459205D01*
Y460637D01*
X132704Y462020D01*
X131989Y463260D01*
X130976Y464272D01*
X129736Y464988D01*
X129448Y465065D01*
Y465565D01*
X129736Y465642D01*
X130976Y466358D01*
X131989Y467370D01*
X132704Y468610D01*
X132943Y469501D01*
X133501Y469651D01*
X133842Y469310D01*
D02*
G37*
G36*
X144933Y425224D02*
X145649Y423984D01*
X146662Y422972D01*
X147901Y422256D01*
X148377Y422129D01*
Y421611D01*
X147901Y421484D01*
X146662Y420768D01*
X145649Y419756D01*
X144933Y418516D01*
X144563Y417133D01*
Y415701D01*
X144933Y414319D01*
X145649Y413079D01*
X145664Y413064D01*
X144214Y411613D01*
X143716Y411823D01*
X143420Y412929D01*
X142770Y414055D01*
X141850Y414974D01*
X140725Y415624D01*
X139469Y415961D01*
X139319D01*
Y411024D01*
X138819D01*
Y410524D01*
X133882D01*
Y410374D01*
X134218Y409118D01*
X134868Y407992D01*
X135787Y407073D01*
X136913Y406423D01*
X138020Y406126D01*
X138229Y405629D01*
X130703Y398102D01*
X29427D01*
X29360Y398169D01*
X28655Y398461D01*
X28755Y398961D01*
X97294D01*
X97931Y398697D01*
X98919D01*
X99832Y399075D01*
X100531Y399774D01*
X100909Y400687D01*
Y401675D01*
X100531Y402588D01*
X99832Y403287D01*
X99641Y403366D01*
X99741Y403866D01*
X100888D01*
X100955Y403799D01*
X101868Y403421D01*
X102856D01*
X103769Y403799D01*
X104468Y404498D01*
X104847Y405411D01*
Y406400D01*
X104468Y407313D01*
X103769Y408012D01*
X102856Y408390D01*
X101868D01*
X100955Y408012D01*
X100888Y407945D01*
X20682D01*
X20394Y408445D01*
X20692Y408961D01*
X104849D01*
X104892Y408918D01*
X105805Y408539D01*
X106793D01*
X107706Y408918D01*
X108405Y409616D01*
X108783Y410530D01*
Y411518D01*
X108405Y412431D01*
X107706Y413130D01*
X106793Y413508D01*
X105805D01*
X104892Y413130D01*
X104801Y413039D01*
X20692D01*
X20221Y413855D01*
X19355Y414721D01*
X18295Y415333D01*
X17112Y415650D01*
X15888D01*
X14705Y415333D01*
X13645Y414721D01*
X12779Y413855D01*
X12167Y412795D01*
X11850Y411612D01*
Y410388D01*
X12167Y409205D01*
X12606Y408445D01*
X12318Y407945D01*
X11406D01*
X10625Y407790D01*
X9964Y407347D01*
X8022Y405406D01*
X7112Y405650D01*
X5888D01*
X4705Y405333D01*
X3645Y404721D01*
X2779Y403855D01*
X2539Y403439D01*
X2039Y403573D01*
Y409683D01*
X2539Y409749D01*
X2633Y409398D01*
X3179Y408452D01*
X3952Y407680D01*
X4898Y407133D01*
X5954Y406850D01*
X6000D01*
Y411000D01*
Y415150D01*
X5954D01*
X4898Y414867D01*
X3952Y414321D01*
X3179Y413548D01*
X2633Y412602D01*
X2539Y412251D01*
X2039Y412317D01*
Y418427D01*
X2539Y418561D01*
X2779Y418145D01*
X3645Y417279D01*
X4705Y416667D01*
X5888Y416350D01*
X7112D01*
X8295Y416667D01*
X9355Y417279D01*
X10221Y418145D01*
X10833Y419205D01*
X11150Y420388D01*
Y421612D01*
X10906Y422522D01*
X12152Y423768D01*
X12552Y423461D01*
X12167Y422795D01*
X11850Y421612D01*
Y420388D01*
X12167Y419205D01*
X12779Y418145D01*
X13645Y417279D01*
X14705Y416667D01*
X15888Y416350D01*
X17112D01*
X18295Y416667D01*
X19355Y417279D01*
X20221Y418145D01*
X20692Y418961D01*
X82866D01*
X82965Y418461D01*
X82451Y418248D01*
X81752Y417549D01*
X81374Y416636D01*
Y415648D01*
X81752Y414735D01*
X82451Y414036D01*
X83364Y413658D01*
X84352D01*
X85265Y414036D01*
X85470Y414240D01*
X122617D01*
X123287Y413079D01*
X124299Y412067D01*
X125539Y411351D01*
X126922Y410980D01*
X128354D01*
X129736Y411351D01*
X130976Y412067D01*
X131989Y413079D01*
X132704Y414319D01*
X133075Y415701D01*
Y417133D01*
X132704Y418516D01*
X132116Y419534D01*
X132034Y419827D01*
X132263Y420188D01*
X132647Y420444D01*
X133424Y421221D01*
X133922Y421012D01*
X134218Y419905D01*
X134868Y418780D01*
X135787Y417860D01*
X136913Y417210D01*
X138169Y416874D01*
X138319D01*
Y421811D01*
X138819D01*
Y422311D01*
X143756D01*
Y422461D01*
X143420Y423717D01*
X142828Y424740D01*
X143010Y425240D01*
X144929D01*
X144933Y425224D01*
D02*
G37*
G36*
X144563Y405542D02*
Y404796D01*
X144933Y403413D01*
X145108Y403110D01*
X120021Y378023D01*
X23915D01*
X23848Y378090D01*
X22935Y378468D01*
X22954Y378961D01*
X85686D01*
X86514Y378618D01*
X87502D01*
X88415Y378996D01*
X89114Y379695D01*
X89492Y380608D01*
Y381596D01*
X89114Y382510D01*
X88415Y383208D01*
X88224Y383288D01*
X88323Y383788D01*
X89471D01*
X89538Y383721D01*
X90451Y383343D01*
X91439D01*
X92352Y383721D01*
X93051Y384420D01*
X93429Y385333D01*
Y386321D01*
X93051Y387234D01*
X92352Y387933D01*
X91439Y388311D01*
X90451D01*
X89538Y387933D01*
X89471Y387866D01*
X20616D01*
X20348Y388366D01*
X20692Y388961D01*
X93353D01*
X93475Y388839D01*
X94388Y388461D01*
X95376D01*
X96289Y388839D01*
X96988Y389538D01*
X97366Y390451D01*
Y391439D01*
X96988Y392352D01*
X96289Y393051D01*
X95376Y393429D01*
X94388D01*
X93475Y393051D01*
X93463Y393039D01*
X20692D01*
X20221Y393855D01*
X19355Y394721D01*
X18295Y395333D01*
X17112Y395650D01*
X15888D01*
X14705Y395333D01*
X13645Y394721D01*
X12779Y393855D01*
X12167Y392795D01*
X11850Y391612D01*
Y390388D01*
X12167Y389205D01*
X12652Y388366D01*
X12384Y387866D01*
X11327D01*
X10546Y387711D01*
X9885Y387269D01*
X8022Y385406D01*
X7112Y385650D01*
X5888D01*
X4705Y385333D01*
X3645Y384721D01*
X2779Y383855D01*
X2539Y383439D01*
X2039Y383573D01*
Y389683D01*
X2539Y389749D01*
X2633Y389398D01*
X3179Y388452D01*
X3952Y387680D01*
X4898Y387133D01*
X5954Y386850D01*
X6000D01*
Y391000D01*
Y395150D01*
X5954D01*
X4898Y394867D01*
X3952Y394321D01*
X3179Y393548D01*
X2633Y392602D01*
X2539Y392251D01*
X2039Y392317D01*
Y398427D01*
X2539Y398561D01*
X2779Y398145D01*
X3645Y397279D01*
X4705Y396667D01*
X5888Y396350D01*
X7112D01*
X8295Y396667D01*
X9355Y397279D01*
X10221Y398145D01*
X10833Y399205D01*
X11150Y400388D01*
Y401612D01*
X10906Y402522D01*
X11928Y403545D01*
X12010Y403522D01*
X12250Y402939D01*
X12167Y402795D01*
X11850Y401612D01*
Y400388D01*
X12167Y399205D01*
X12779Y398145D01*
X13645Y397279D01*
X14705Y396667D01*
X15888Y396350D01*
X17112D01*
X18295Y396667D01*
X19355Y397279D01*
X20221Y398145D01*
X20692Y398961D01*
X27150D01*
X27250Y398461D01*
X26546Y398169D01*
X25847Y397470D01*
X25469Y396557D01*
Y395569D01*
X25847Y394656D01*
X26546Y393957D01*
X27459Y393579D01*
X28447D01*
X29360Y393957D01*
X29427Y394024D01*
X131547D01*
X132328Y394179D01*
X132989Y394621D01*
X144101Y405733D01*
X144563Y405542D01*
D02*
G37*
%LPC*%
G36*
X143756Y540917D02*
X139319D01*
Y536480D01*
X139469D01*
X140725Y536817D01*
X141850Y537467D01*
X142770Y538386D01*
X143420Y539512D01*
X143756Y540767D01*
Y540917D01*
D02*
G37*
G36*
X139469Y535567D02*
X139319D01*
Y531130D01*
X143756D01*
Y531280D01*
X143420Y532536D01*
X142770Y533661D01*
X141850Y534581D01*
X140725Y535230D01*
X139469Y535567D01*
D02*
G37*
G36*
X138319D02*
X138169D01*
X136913Y535230D01*
X135787Y534581D01*
X134868Y533661D01*
X134218Y532536D01*
X133882Y531280D01*
Y531130D01*
X138319D01*
Y535567D01*
D02*
G37*
G36*
X143756Y530130D02*
X139319D01*
Y525693D01*
X139469D01*
X140725Y526029D01*
X141850Y526679D01*
X142770Y527598D01*
X143420Y528724D01*
X143756Y529980D01*
Y530130D01*
D02*
G37*
G36*
X138319D02*
X133882D01*
Y529980D01*
X134218Y528724D01*
X134868Y527598D01*
X135787Y526679D01*
X136913Y526029D01*
X138169Y525693D01*
X138319D01*
Y530130D01*
D02*
G37*
G36*
X139469Y524661D02*
X139319D01*
Y520224D01*
X143756D01*
Y520374D01*
X143420Y521630D01*
X142770Y522756D01*
X141850Y523675D01*
X140725Y524325D01*
X139469Y524661D01*
D02*
G37*
G36*
X138319D02*
X138169D01*
X136913Y524325D01*
X135787Y523675D01*
X134868Y522756D01*
X134218Y521630D01*
X133882Y520374D01*
Y520224D01*
X138319D01*
Y524661D01*
D02*
G37*
G36*
X139672Y623638D02*
X139319D01*
Y613295D01*
X149661D01*
Y613649D01*
X149394Y615334D01*
X148867Y616957D01*
X148092Y618478D01*
X147089Y619859D01*
X145882Y621066D01*
X144502Y622069D01*
X142981Y622843D01*
X141358Y623371D01*
X139672Y623638D01*
D02*
G37*
G36*
X138319D02*
X137966D01*
X136280Y623371D01*
X134657Y622843D01*
X133136Y622069D01*
X131755Y621066D01*
X130549Y619859D01*
X129545Y618478D01*
X128771Y616957D01*
X128243Y615334D01*
X127976Y613649D01*
Y613295D01*
X138319D01*
Y623638D01*
D02*
G37*
G36*
X88361Y615067D02*
X88008D01*
Y604724D01*
X98350D01*
Y605078D01*
X98083Y606763D01*
X97556Y608387D01*
X96781Y609907D01*
X95778Y611288D01*
X94571Y612495D01*
X93191Y613498D01*
X91670Y614273D01*
X90047Y614800D01*
X88361Y615067D01*
D02*
G37*
G36*
X87008D02*
X86655D01*
X84969Y614800D01*
X83346Y614273D01*
X81825Y613498D01*
X80444Y612495D01*
X79238Y611288D01*
X78234Y609907D01*
X77460Y608387D01*
X76932Y606763D01*
X76665Y605078D01*
Y604724D01*
X87008D01*
Y615067D01*
D02*
G37*
G36*
X149661Y612295D02*
X139319D01*
Y601953D01*
X139672D01*
X141358Y602220D01*
X142981Y602747D01*
X144502Y603522D01*
X145882Y604525D01*
X147089Y605732D01*
X148092Y607113D01*
X148867Y608633D01*
X149394Y610256D01*
X149661Y611942D01*
Y612295D01*
D02*
G37*
G36*
X138319D02*
X127976D01*
Y611942D01*
X128243Y610256D01*
X128771Y608633D01*
X129545Y607113D01*
X130549Y605732D01*
X131755Y604525D01*
X133136Y603522D01*
X134657Y602747D01*
X136280Y602220D01*
X137966Y601953D01*
X138319D01*
Y612295D01*
D02*
G37*
G36*
X98350Y603724D02*
X88008D01*
Y593382D01*
X88361D01*
X90047Y593649D01*
X91670Y594176D01*
X93191Y594951D01*
X94571Y595954D01*
X95778Y597161D01*
X96781Y598542D01*
X97556Y600062D01*
X98083Y601685D01*
X98350Y603371D01*
Y603724D01*
D02*
G37*
G36*
X87008D02*
X76665D01*
Y603371D01*
X76932Y601685D01*
X77460Y600062D01*
X78234Y598542D01*
X79238Y597161D01*
X80444Y595954D01*
X81825Y594951D01*
X83346Y594176D01*
X84969Y593649D01*
X86655Y593382D01*
X87008D01*
Y603724D01*
D02*
G37*
G36*
X150650Y584465D02*
X150500D01*
Y580028D01*
X154937D01*
Y580177D01*
X154601Y581433D01*
X153951Y582559D01*
X153031Y583478D01*
X151906Y584128D01*
X150650Y584465D01*
D02*
G37*
G36*
X149500D02*
X149350D01*
X148094Y584128D01*
X146969Y583478D01*
X146049Y582559D01*
X145399Y581433D01*
X145063Y580177D01*
Y580028D01*
X149500D01*
Y584465D01*
D02*
G37*
G36*
X154937Y579028D02*
X150500D01*
Y574590D01*
X150650D01*
X151906Y574927D01*
X153031Y575577D01*
X153951Y576496D01*
X154601Y577622D01*
X154937Y578878D01*
Y579028D01*
D02*
G37*
G36*
X149500D02*
X145063D01*
Y578878D01*
X145399Y577622D01*
X146049Y576496D01*
X146969Y575577D01*
X148094Y574927D01*
X149350Y574590D01*
X149500D01*
Y579028D01*
D02*
G37*
G36*
X139469Y578953D02*
X139319D01*
Y574516D01*
X143756D01*
Y574666D01*
X143420Y575921D01*
X142770Y577047D01*
X141850Y577966D01*
X140725Y578616D01*
X139469Y578953D01*
D02*
G37*
G36*
X138319D02*
X138169D01*
X136913Y578616D01*
X135787Y577966D01*
X134868Y577047D01*
X134218Y575921D01*
X133882Y574666D01*
Y574516D01*
X138319D01*
Y578953D01*
D02*
G37*
G36*
X143756Y573516D02*
X139319D01*
Y569079D01*
X139469D01*
X140725Y569415D01*
X141850Y570065D01*
X142770Y570984D01*
X143420Y572110D01*
X143756Y573366D01*
Y573516D01*
D02*
G37*
G36*
X138319D02*
X133882D01*
Y573366D01*
X134218Y572110D01*
X134868Y570984D01*
X135787Y570065D01*
X136913Y569415D01*
X138169Y569079D01*
X138319D01*
Y573516D01*
D02*
G37*
G36*
X139469Y568165D02*
X139319D01*
Y563728D01*
X143756D01*
Y563878D01*
X143420Y565134D01*
X142770Y566260D01*
X141850Y567179D01*
X140725Y567829D01*
X139469Y568165D01*
D02*
G37*
G36*
X138319D02*
X138169D01*
X136913Y567829D01*
X135787Y567179D01*
X134868Y566260D01*
X134218Y565134D01*
X133882Y563878D01*
Y563728D01*
X138319D01*
Y568165D01*
D02*
G37*
G36*
X143756Y562728D02*
X139319D01*
Y558291D01*
X139469D01*
X140725Y558628D01*
X141850Y559278D01*
X142770Y560197D01*
X143420Y561323D01*
X143756Y562578D01*
Y562728D01*
D02*
G37*
G36*
X138319D02*
X133882D01*
Y562578D01*
X134218Y561323D01*
X134868Y560197D01*
X135787Y559278D01*
X136913Y558628D01*
X138169Y558291D01*
X138319D01*
Y562728D01*
D02*
G37*
G36*
X139469Y557260D02*
X139319D01*
Y552823D01*
X143756D01*
Y552973D01*
X143420Y554228D01*
X142770Y555354D01*
X141850Y556273D01*
X140725Y556923D01*
X139469Y557260D01*
D02*
G37*
G36*
X138319D02*
X138169D01*
X136913Y556923D01*
X135787Y556273D01*
X134868Y555354D01*
X134218Y554228D01*
X133882Y552973D01*
Y552823D01*
X138319D01*
Y557260D01*
D02*
G37*
G36*
X139672Y383087D02*
X139319D01*
Y372744D01*
X149661D01*
Y373097D01*
X149394Y374783D01*
X148867Y376406D01*
X148092Y377927D01*
X147089Y379308D01*
X145882Y380514D01*
X144502Y381518D01*
X142981Y382292D01*
X141358Y382820D01*
X139672Y383087D01*
D02*
G37*
G36*
X138319D02*
X137966D01*
X136280Y382820D01*
X134657Y382292D01*
X133136Y381518D01*
X131755Y380514D01*
X130549Y379308D01*
X129545Y377927D01*
X128771Y376406D01*
X128243Y374783D01*
X127976Y373097D01*
Y372744D01*
X138319D01*
Y383087D01*
D02*
G37*
G36*
X7046Y375150D02*
X7000D01*
Y371500D01*
X10650D01*
Y371546D01*
X10367Y372602D01*
X9821Y373548D01*
X9048Y374321D01*
X8102Y374867D01*
X7046Y375150D01*
D02*
G37*
G36*
X10650Y370500D02*
X7000D01*
Y366850D01*
X7046D01*
X8102Y367133D01*
X9048Y367680D01*
X9821Y368452D01*
X10367Y369398D01*
X10650Y370454D01*
Y370500D01*
D02*
G37*
G36*
X138319Y371744D02*
X127976D01*
Y371391D01*
X128243Y369705D01*
X128771Y368082D01*
X129545Y366561D01*
X130549Y365181D01*
X131755Y363974D01*
X133136Y362971D01*
X134657Y362196D01*
X136280Y361669D01*
X137966Y361402D01*
X138319D01*
Y371744D01*
D02*
G37*
G36*
X17112Y365650D02*
X15888D01*
X14705Y365333D01*
X13645Y364721D01*
X12779Y363855D01*
X12167Y362795D01*
X11850Y361612D01*
Y360388D01*
X12167Y359205D01*
X12779Y358145D01*
X13645Y357279D01*
X14705Y356667D01*
X15888Y356350D01*
X17112D01*
X18295Y356667D01*
X19355Y357279D01*
X20221Y358145D01*
X20692Y358961D01*
X79258D01*
X79301Y358918D01*
X80215Y358539D01*
X81203D01*
X82116Y358918D01*
X82815Y359616D01*
X83193Y360529D01*
Y361518D01*
X82815Y362431D01*
X82116Y363130D01*
X81203Y363508D01*
X80215D01*
X79301Y363130D01*
X79211Y363039D01*
X20692D01*
X20221Y363855D01*
X19355Y364721D01*
X18295Y365333D01*
X17112Y365650D01*
D02*
G37*
G36*
X7046Y355150D02*
X7000D01*
Y351500D01*
X10650D01*
Y351546D01*
X10367Y352602D01*
X9821Y353548D01*
X9048Y354321D01*
X8102Y354867D01*
X7046Y355150D01*
D02*
G37*
G36*
X17112Y355650D02*
X15888D01*
X14705Y355333D01*
X13645Y354721D01*
X12779Y353855D01*
X12167Y352795D01*
X11850Y351612D01*
Y350388D01*
X12167Y349205D01*
X12779Y348145D01*
X13645Y347279D01*
X14705Y346667D01*
X15888Y346350D01*
X17112D01*
X18295Y346667D01*
X19355Y347279D01*
X20221Y348145D01*
X20744Y349051D01*
X77206D01*
X77441Y349098D01*
X77459Y349091D01*
X78447D01*
X79360Y349469D01*
X80059Y350168D01*
X80437Y351081D01*
Y352069D01*
X80059Y352982D01*
X79360Y353681D01*
X78447Y354059D01*
X77459D01*
X76546Y353681D01*
X75994Y353130D01*
X20639D01*
X20221Y353855D01*
X19355Y354721D01*
X18295Y355333D01*
X17112Y355650D01*
D02*
G37*
G36*
X10650Y350500D02*
X7000D01*
Y346850D01*
X7046D01*
X8102Y347133D01*
X9048Y347679D01*
X9821Y348452D01*
X10367Y349398D01*
X10650Y350454D01*
Y350500D01*
D02*
G37*
G36*
X7046Y335150D02*
X7000D01*
Y331500D01*
X10650D01*
Y331546D01*
X10367Y332602D01*
X9821Y333548D01*
X9048Y334320D01*
X8102Y334867D01*
X7046Y335150D01*
D02*
G37*
G36*
X10650Y330500D02*
X7000D01*
Y326850D01*
X7046D01*
X8102Y327133D01*
X9048Y327679D01*
X9821Y328452D01*
X10367Y329398D01*
X10650Y330454D01*
Y330500D01*
D02*
G37*
G36*
X151711Y338429D02*
X149864D01*
X148053Y338069D01*
X146347Y337362D01*
X144812Y336336D01*
X143506Y335031D01*
X142480Y333495D01*
X141774Y331789D01*
X141413Y329978D01*
Y328132D01*
X141774Y326321D01*
X142480Y324615D01*
X143506Y323079D01*
X144812Y321774D01*
X146347Y320748D01*
X148053Y320041D01*
X149864Y319681D01*
X151711D01*
X153522Y320041D01*
X155228Y320748D01*
X156763Y321774D01*
X158069Y323079D01*
X159095Y324615D01*
X159801Y326321D01*
X160161Y328132D01*
Y329978D01*
X159801Y331789D01*
X159095Y333495D01*
X158069Y335031D01*
X156763Y336336D01*
X155228Y337362D01*
X153522Y338069D01*
X151711Y338429D01*
D02*
G37*
G36*
Y298429D02*
X149864D01*
X148053Y298069D01*
X146347Y297362D01*
X144812Y296336D01*
X143506Y295031D01*
X142480Y293495D01*
X141774Y291789D01*
X141413Y289978D01*
Y288132D01*
X141774Y286321D01*
X142480Y284615D01*
X143506Y283080D01*
X144812Y281774D01*
X146347Y280748D01*
X148053Y280041D01*
X149864Y279681D01*
X151711D01*
X153522Y280041D01*
X155228Y280748D01*
X156763Y281774D01*
X158069Y283080D01*
X159095Y284615D01*
X159801Y286321D01*
X160161Y288132D01*
Y289978D01*
X159801Y291789D01*
X159095Y293495D01*
X158069Y295031D01*
X156763Y296336D01*
X155228Y297362D01*
X153522Y298069D01*
X151711Y298429D01*
D02*
G37*
G36*
Y251185D02*
X149864D01*
X148053Y250825D01*
X146347Y250118D01*
X144812Y249092D01*
X143506Y247787D01*
X142480Y246251D01*
X141774Y244545D01*
X141413Y242734D01*
Y240888D01*
X141774Y239077D01*
X142480Y237371D01*
X143506Y235835D01*
X144812Y234530D01*
X146347Y233504D01*
X148053Y232797D01*
X149864Y232437D01*
X151711D01*
X153522Y232797D01*
X155228Y233504D01*
X156763Y234530D01*
X158069Y235835D01*
X159095Y237371D01*
X159801Y239077D01*
X160161Y240888D01*
Y242734D01*
X159801Y244545D01*
X159095Y246251D01*
X158069Y247787D01*
X156763Y249092D01*
X155228Y250118D01*
X153522Y250825D01*
X151711Y251185D01*
D02*
G37*
G36*
X7046Y219150D02*
X7000D01*
Y215500D01*
X10650D01*
Y215546D01*
X10367Y216602D01*
X9821Y217548D01*
X9048Y218320D01*
X8102Y218867D01*
X7046Y219150D01*
D02*
G37*
G36*
X17112Y219650D02*
X15888D01*
X14705Y219333D01*
X13645Y218721D01*
X12779Y217855D01*
X12167Y216795D01*
X11850Y215612D01*
Y214388D01*
X12167Y213205D01*
X12779Y212145D01*
X13645Y211279D01*
X14705Y210667D01*
X15888Y210350D01*
X17112D01*
X18295Y210667D01*
X19355Y211279D01*
X20221Y212145D01*
X20794Y213138D01*
X77205D01*
X77852Y212870D01*
X78841D01*
X79754Y213248D01*
X80453Y213947D01*
X80831Y214860D01*
Y215848D01*
X80453Y216761D01*
X79754Y217460D01*
X78841Y217839D01*
X77852D01*
X76939Y217460D01*
X76695Y217216D01*
X20589D01*
X20221Y217855D01*
X19355Y218721D01*
X18295Y219333D01*
X17112Y219650D01*
D02*
G37*
G36*
X10650Y214500D02*
X7000D01*
Y210850D01*
X7046D01*
X8102Y211133D01*
X9048Y211680D01*
X9821Y212452D01*
X10367Y213398D01*
X10650Y214454D01*
Y214500D01*
D02*
G37*
G36*
X7046Y209150D02*
X7000D01*
Y205500D01*
X10650D01*
Y205546D01*
X10367Y206602D01*
X9821Y207548D01*
X9048Y208320D01*
X8102Y208867D01*
X7046Y209150D01*
D02*
G37*
G36*
X10650Y204500D02*
X7000D01*
Y200850D01*
X7046D01*
X8102Y201133D01*
X9048Y201679D01*
X9821Y202452D01*
X10367Y203398D01*
X10650Y204454D01*
Y204500D01*
D02*
G37*
G36*
X151711Y211185D02*
X149864D01*
X148053Y210825D01*
X146347Y210118D01*
X144812Y209092D01*
X143506Y207787D01*
X142480Y206251D01*
X141774Y204545D01*
X141413Y202734D01*
Y200888D01*
X141774Y199077D01*
X142480Y197371D01*
X143506Y195835D01*
X144812Y194530D01*
X146347Y193504D01*
X148053Y192797D01*
X149864Y192437D01*
X151711D01*
X153522Y192797D01*
X155228Y193504D01*
X156763Y194530D01*
X158069Y195835D01*
X159095Y197371D01*
X159801Y199077D01*
X160161Y200888D01*
Y202734D01*
X159801Y204545D01*
X159095Y206251D01*
X158069Y207787D01*
X156763Y209092D01*
X155228Y210118D01*
X153522Y210825D01*
X151711Y211185D01*
D02*
G37*
G36*
X7046Y189150D02*
X7000D01*
Y185500D01*
X10650D01*
Y185546D01*
X10367Y186602D01*
X9821Y187548D01*
X9048Y188321D01*
X8102Y188867D01*
X7046Y189150D01*
D02*
G37*
G36*
X10650Y184500D02*
X7000D01*
Y180850D01*
X7046D01*
X8102Y181133D01*
X9048Y181679D01*
X9821Y182452D01*
X10367Y183398D01*
X10650Y184454D01*
Y184500D01*
D02*
G37*
G36*
X7046Y169150D02*
X7000D01*
Y165500D01*
X10650D01*
Y165546D01*
X10367Y166602D01*
X9821Y167548D01*
X9048Y168321D01*
X8102Y168867D01*
X7046Y169150D01*
D02*
G37*
G36*
X10650Y164500D02*
X7000D01*
Y160850D01*
X7046D01*
X8102Y161133D01*
X9048Y161679D01*
X9821Y162452D01*
X10367Y163398D01*
X10650Y164454D01*
Y164500D01*
D02*
G37*
G36*
X7046Y149150D02*
X7000D01*
Y145500D01*
X10650D01*
Y145546D01*
X10367Y146602D01*
X9821Y147548D01*
X9048Y148320D01*
X8102Y148867D01*
X7046Y149150D01*
D02*
G37*
G36*
X151711Y163941D02*
X149864D01*
X148053Y163581D01*
X146347Y162874D01*
X144812Y161848D01*
X143506Y160543D01*
X142480Y159007D01*
X141774Y157301D01*
X141413Y155490D01*
Y153644D01*
X141774Y151833D01*
X142480Y150127D01*
X143506Y148591D01*
X144812Y147286D01*
X146347Y146260D01*
X148053Y145553D01*
X149864Y145193D01*
X151711D01*
X153522Y145553D01*
X155228Y146260D01*
X156763Y147286D01*
X158069Y148591D01*
X159095Y150127D01*
X159801Y151833D01*
X160161Y153644D01*
Y155490D01*
X159801Y157301D01*
X159095Y159007D01*
X158069Y160543D01*
X156763Y161848D01*
X155228Y162874D01*
X153522Y163581D01*
X151711Y163941D01*
D02*
G37*
G36*
X17112Y149650D02*
X15888D01*
X14705Y149333D01*
X13645Y148721D01*
X12779Y147855D01*
X12167Y146795D01*
X11850Y145612D01*
Y144388D01*
X12167Y143205D01*
X12779Y142145D01*
X13645Y141279D01*
X14705Y140667D01*
X15888Y140350D01*
X17112D01*
X18295Y140667D01*
X19355Y141279D01*
X20221Y142145D01*
X20692Y142961D01*
X38073D01*
X38482Y142791D01*
X39470D01*
X40384Y143169D01*
X41082Y143868D01*
X41461Y144781D01*
Y145770D01*
X41082Y146683D01*
X40384Y147382D01*
X39470Y147760D01*
X38482D01*
X37569Y147382D01*
X37227Y147039D01*
X20692D01*
X20221Y147855D01*
X19355Y148721D01*
X18295Y149333D01*
X17112Y149650D01*
D02*
G37*
G36*
X10650Y144500D02*
X7000D01*
Y140850D01*
X7046D01*
X8102Y141133D01*
X9048Y141680D01*
X9821Y142452D01*
X10367Y143398D01*
X10650Y144454D01*
Y144500D01*
D02*
G37*
G36*
X17112Y139650D02*
X15888D01*
X14705Y139333D01*
X13645Y138721D01*
X12779Y137855D01*
X12167Y136795D01*
X11850Y135612D01*
Y134388D01*
X12167Y133205D01*
X12779Y132145D01*
X13645Y131279D01*
X14705Y130667D01*
X15888Y130350D01*
X17112D01*
X18295Y130667D01*
X19355Y131279D01*
X20221Y132145D01*
X20692Y132961D01*
X33998D01*
X34026Y132933D01*
X34939Y132555D01*
X35927D01*
X36840Y132933D01*
X37539Y133632D01*
X37917Y134545D01*
Y135533D01*
X37539Y136447D01*
X36840Y137145D01*
X35927Y137524D01*
X34939D01*
X34026Y137145D01*
X33920Y137039D01*
X20692D01*
X20221Y137855D01*
X19355Y138721D01*
X18295Y139333D01*
X17112Y139650D01*
D02*
G37*
G36*
X116446Y149567D02*
X115129D01*
X113857Y149226D01*
X112717Y148568D01*
X111786Y147637D01*
X111128Y146497D01*
X110787Y145225D01*
Y143909D01*
X111128Y142637D01*
X111473Y142039D01*
X111223Y141606D01*
X108357D01*
X107576Y141451D01*
X106915Y141009D01*
X82945Y117039D01*
X20692D01*
X20221Y117855D01*
X19355Y118721D01*
X18295Y119333D01*
X17112Y119650D01*
X15888D01*
X14705Y119333D01*
X13645Y118721D01*
X12779Y117855D01*
X12167Y116795D01*
X11850Y115612D01*
Y114388D01*
X12167Y113205D01*
X12779Y112145D01*
X13645Y111279D01*
X14705Y110667D01*
X15888Y110350D01*
X17112D01*
X18295Y110667D01*
X19355Y111279D01*
X20221Y112145D01*
X20692Y112961D01*
X83790D01*
X84570Y113116D01*
X85232Y113558D01*
X109201Y137528D01*
X111223D01*
X111473Y137095D01*
X111128Y136497D01*
X110787Y135225D01*
Y133909D01*
X111128Y132637D01*
X111786Y131497D01*
X112717Y130566D01*
X113857Y129908D01*
X114196Y129817D01*
Y129317D01*
X113857Y129226D01*
X112717Y128568D01*
X111786Y127637D01*
X111128Y126497D01*
X110787Y125225D01*
Y123909D01*
X111128Y122637D01*
X111786Y121497D01*
X112717Y120566D01*
X113857Y119908D01*
X115129Y119567D01*
X116446D01*
X117418Y119827D01*
X117676Y119379D01*
X105336Y107039D01*
X20692D01*
X20221Y107855D01*
X19355Y108721D01*
X18295Y109333D01*
X17112Y109650D01*
X15888D01*
X14705Y109333D01*
X13645Y108721D01*
X12779Y107855D01*
X12167Y106795D01*
X11850Y105612D01*
Y104388D01*
X12167Y103205D01*
X12779Y102145D01*
X13645Y101279D01*
X14705Y100667D01*
X15888Y100350D01*
X17112D01*
X18295Y100667D01*
X19355Y101279D01*
X20221Y102145D01*
X20692Y102961D01*
X106181D01*
X106962Y103116D01*
X107623Y103558D01*
X124277Y120212D01*
X124719Y120873D01*
X124874Y121653D01*
Y127520D01*
X124874Y127520D01*
X124719Y128300D01*
X124277Y128962D01*
X123845Y129393D01*
X124103Y129842D01*
X125129Y129567D01*
X126446D01*
X127717Y129908D01*
X128858Y130566D01*
X129788Y131497D01*
X130447Y132637D01*
X130787Y133909D01*
Y135225D01*
X130447Y136497D01*
X129788Y137637D01*
X128858Y138568D01*
X127717Y139226D01*
X126446Y139567D01*
X125129D01*
X123979Y139259D01*
X122229Y141009D01*
X121568Y141451D01*
X120787Y141606D01*
X120352D01*
X120101Y142039D01*
X120447Y142637D01*
X120787Y143909D01*
Y145225D01*
X120447Y146497D01*
X119788Y147637D01*
X118858Y148568D01*
X117717Y149226D01*
X116446Y149567D01*
D02*
G37*
G36*
X7046Y129150D02*
X7000D01*
Y125500D01*
X10650D01*
Y125546D01*
X10367Y126602D01*
X9821Y127548D01*
X9048Y128321D01*
X8102Y128867D01*
X7046Y129150D01*
D02*
G37*
G36*
X17112Y129650D02*
X15888D01*
X14705Y129333D01*
X13645Y128721D01*
X12779Y127855D01*
X12167Y126795D01*
X11850Y125612D01*
Y124388D01*
X12167Y123205D01*
X12779Y122145D01*
X13645Y121279D01*
X14705Y120667D01*
X15888Y120350D01*
X17112D01*
X18295Y120667D01*
X19355Y121279D01*
X20221Y122145D01*
X20692Y122961D01*
X30796D01*
X31396Y122713D01*
X32384D01*
X33297Y123091D01*
X33996Y123790D01*
X34374Y124703D01*
Y125691D01*
X33996Y126604D01*
X33297Y127303D01*
X32384Y127681D01*
X31396D01*
X30483Y127303D01*
X30219Y127039D01*
X20692D01*
X20221Y127855D01*
X19355Y128721D01*
X18295Y129333D01*
X17112Y129650D01*
D02*
G37*
G36*
X10650Y124500D02*
X7000D01*
Y120850D01*
X7046D01*
X8102Y121133D01*
X9048Y121679D01*
X9821Y122452D01*
X10367Y123398D01*
X10650Y124454D01*
Y124500D01*
D02*
G37*
G36*
X7046Y109150D02*
X7000D01*
Y105500D01*
X10650D01*
Y105546D01*
X10367Y106602D01*
X9821Y107548D01*
X9048Y108320D01*
X8102Y108867D01*
X7046Y109150D01*
D02*
G37*
G36*
X151711Y123941D02*
X149864D01*
X148053Y123581D01*
X146347Y122874D01*
X144812Y121848D01*
X143506Y120543D01*
X142480Y119007D01*
X141774Y117301D01*
X141413Y115490D01*
Y113644D01*
X141774Y111833D01*
X142480Y110127D01*
X143506Y108591D01*
X144812Y107286D01*
X146347Y106260D01*
X148053Y105553D01*
X149864Y105193D01*
X151711D01*
X153522Y105553D01*
X155228Y106260D01*
X156763Y107286D01*
X158069Y108591D01*
X159095Y110127D01*
X159801Y111833D01*
X160161Y113644D01*
Y115490D01*
X159801Y117301D01*
X159095Y119007D01*
X158069Y120543D01*
X156763Y121848D01*
X155228Y122874D01*
X153522Y123581D01*
X151711Y123941D01*
D02*
G37*
G36*
X10650Y104500D02*
X7000D01*
Y100850D01*
X7046D01*
X8102Y101133D01*
X9048Y101680D01*
X9821Y102452D01*
X10367Y103398D01*
X10650Y104454D01*
Y104500D01*
D02*
G37*
G36*
X18075Y79676D02*
X14925D01*
X14122Y79571D01*
X13374Y79261D01*
X12732Y78768D01*
X12239Y78126D01*
X11930Y77377D01*
X11824Y76575D01*
Y73425D01*
X11930Y72623D01*
X12239Y71874D01*
X12732Y71232D01*
X13374Y70739D01*
X14122Y70429D01*
X14925Y70324D01*
X18075D01*
X18878Y70429D01*
X19625Y70739D01*
X20268Y71232D01*
X20761Y71874D01*
X21070Y72623D01*
X21176Y73425D01*
Y76575D01*
X21070Y77377D01*
X20761Y78126D01*
X20268Y78768D01*
X19625Y79261D01*
X18878Y79571D01*
X18075Y79676D01*
D02*
G37*
G36*
X151711Y76697D02*
X149864D01*
X148053Y76337D01*
X146347Y75630D01*
X144812Y74604D01*
X143506Y73298D01*
X142480Y71763D01*
X141774Y70057D01*
X141413Y68246D01*
Y66400D01*
X141774Y64588D01*
X142480Y62883D01*
X143506Y61347D01*
X144812Y60042D01*
X146347Y59016D01*
X148053Y58309D01*
X149864Y57949D01*
X151711D01*
X153522Y58309D01*
X155228Y59016D01*
X156763Y60042D01*
X158069Y61347D01*
X159095Y62883D01*
X159801Y64588D01*
X160161Y66400D01*
Y68246D01*
X159801Y70057D01*
X159095Y71763D01*
X158069Y73298D01*
X156763Y74604D01*
X155228Y75630D01*
X153522Y76337D01*
X151711Y76697D01*
D02*
G37*
G36*
X17112Y99650D02*
X15888D01*
X14705Y99333D01*
X13645Y98721D01*
X12779Y97855D01*
X12167Y96795D01*
X11850Y95612D01*
Y94388D01*
X12167Y93205D01*
X12779Y92145D01*
X13645Y91279D01*
X14705Y90667D01*
X15888Y90350D01*
X17112D01*
X18295Y90667D01*
X19355Y91279D01*
X20221Y92145D01*
X20692Y92961D01*
X84337D01*
X114654Y62644D01*
X114524Y62161D01*
X113857Y61982D01*
X112717Y61324D01*
X111786Y60393D01*
X111128Y59253D01*
X110787Y57981D01*
Y56665D01*
X111062Y55639D01*
X110614Y55380D01*
X79552Y86442D01*
X78891Y86884D01*
X78110Y87039D01*
X20692D01*
X20221Y87855D01*
X19355Y88721D01*
X18295Y89333D01*
X17112Y89650D01*
X15888D01*
X14705Y89333D01*
X13645Y88721D01*
X12779Y87855D01*
X12167Y86795D01*
X11850Y85612D01*
Y84388D01*
X12167Y83205D01*
X12779Y82145D01*
X13645Y81279D01*
X14705Y80667D01*
X15888Y80350D01*
X17112D01*
X18295Y80667D01*
X19355Y81279D01*
X20221Y82145D01*
X20692Y82961D01*
X77266D01*
X111095Y49131D01*
X110787Y47981D01*
Y46665D01*
X111128Y45393D01*
X111786Y44253D01*
X112717Y43322D01*
X113857Y42664D01*
X114196Y42573D01*
Y42073D01*
X113857Y41982D01*
X112717Y41324D01*
X111786Y40393D01*
X111128Y39253D01*
X110787Y37981D01*
Y36665D01*
X111128Y35393D01*
X111786Y34253D01*
X112717Y33322D01*
X113857Y32664D01*
X115129Y32323D01*
X116446D01*
X117717Y32664D01*
X118858Y33322D01*
X119788Y34253D01*
X120447Y35393D01*
X120787Y36665D01*
Y37981D01*
X120447Y39253D01*
X119788Y40393D01*
X118858Y41324D01*
X117717Y41982D01*
X117379Y42073D01*
Y42573D01*
X117717Y42664D01*
X118858Y43322D01*
X119788Y44253D01*
X120447Y45393D01*
X120537Y45732D01*
X121037D01*
X121128Y45393D01*
X121786Y44253D01*
X122717Y43322D01*
X123857Y42664D01*
X125129Y42323D01*
X126446D01*
X127717Y42664D01*
X128858Y43322D01*
X129788Y44253D01*
X130447Y45393D01*
X130787Y46665D01*
Y47981D01*
X130447Y49253D01*
X129788Y50393D01*
X128858Y51324D01*
X127827Y51919D01*
Y54394D01*
X127671Y55174D01*
X127229Y55836D01*
X86623Y96442D01*
X85962Y96884D01*
X85181Y97039D01*
X20692D01*
X20221Y97855D01*
X19355Y98721D01*
X18295Y99333D01*
X17112Y99650D01*
D02*
G37*
G36*
X87861Y56512D02*
X87508D01*
Y46169D01*
X97850D01*
Y46523D01*
X97583Y48208D01*
X97056Y49831D01*
X96281Y51352D01*
X95278Y52733D01*
X94071Y53939D01*
X92691Y54943D01*
X91170Y55717D01*
X89547Y56245D01*
X87861Y56512D01*
D02*
G37*
G36*
X86508D02*
X86155D01*
X84469Y56245D01*
X82846Y55717D01*
X81325Y54943D01*
X79944Y53939D01*
X78738Y52733D01*
X77735Y51352D01*
X76960Y49831D01*
X76432Y48208D01*
X76165Y46523D01*
Y46169D01*
X86508D01*
Y56512D01*
D02*
G37*
G36*
X97850Y45169D02*
X87508D01*
Y34827D01*
X87861D01*
X89547Y35094D01*
X91170Y35621D01*
X92691Y36396D01*
X94071Y37399D01*
X95278Y38606D01*
X96281Y39987D01*
X97056Y41507D01*
X97583Y43130D01*
X97850Y44816D01*
Y45169D01*
D02*
G37*
G36*
X86508D02*
X76165D01*
Y44816D01*
X76432Y43130D01*
X76960Y41507D01*
X77735Y39987D01*
X78738Y38606D01*
X79944Y37399D01*
X81325Y36396D01*
X82846Y35621D01*
X84469Y35094D01*
X86155Y34827D01*
X86508D01*
Y45169D01*
D02*
G37*
G36*
X151711Y36697D02*
X149864D01*
X148053Y36337D01*
X146347Y35630D01*
X144812Y34604D01*
X143506Y33298D01*
X142480Y31763D01*
X141774Y30057D01*
X141413Y28246D01*
Y26400D01*
X141774Y24588D01*
X142480Y22883D01*
X143506Y21347D01*
X144812Y20042D01*
X146347Y19016D01*
X148053Y18309D01*
X149864Y17949D01*
X151711D01*
X153522Y18309D01*
X155228Y19016D01*
X156763Y20042D01*
X158069Y21347D01*
X159095Y22883D01*
X159801Y24588D01*
X160161Y26400D01*
Y28246D01*
X159801Y30057D01*
X159095Y31763D01*
X158069Y33298D01*
X156763Y34604D01*
X155228Y35630D01*
X153522Y36337D01*
X151711Y36697D01*
D02*
G37*
G36*
X139469Y502969D02*
X139319D01*
Y498531D01*
X143756D01*
Y498681D01*
X143420Y499937D01*
X142770Y501063D01*
X141850Y501982D01*
X140725Y502632D01*
X139469Y502969D01*
D02*
G37*
G36*
X143756Y497532D02*
X139319D01*
Y493094D01*
X139469D01*
X140725Y493431D01*
X141850Y494081D01*
X142770Y495000D01*
X143420Y496126D01*
X143756Y497381D01*
Y497532D01*
D02*
G37*
G36*
X139469Y491945D02*
X139319D01*
Y487508D01*
X143756D01*
Y487658D01*
X143420Y488913D01*
X142770Y490039D01*
X141850Y490958D01*
X140725Y491608D01*
X139469Y491945D01*
D02*
G37*
G36*
X143756Y486508D02*
X139319D01*
Y482071D01*
X139469D01*
X140725Y482407D01*
X141850Y483057D01*
X142770Y483977D01*
X143420Y485102D01*
X143756Y486358D01*
Y486508D01*
D02*
G37*
G36*
X138319D02*
X133882D01*
Y486358D01*
X134218Y485102D01*
X134868Y483977D01*
X135787Y483057D01*
X136913Y482407D01*
X138169Y482071D01*
X138319D01*
Y486508D01*
D02*
G37*
G36*
X139469Y481157D02*
X139319D01*
Y476721D01*
X143756D01*
Y476870D01*
X143420Y478126D01*
X142770Y479252D01*
X141850Y480171D01*
X140725Y480821D01*
X139469Y481157D01*
D02*
G37*
G36*
X138319D02*
X138169D01*
X136913Y480821D01*
X135787Y480171D01*
X134868Y479252D01*
X134218Y478126D01*
X133882Y476870D01*
Y476721D01*
X138319D01*
Y481157D01*
D02*
G37*
G36*
X7046Y445150D02*
X7000D01*
Y441500D01*
X10650D01*
Y441546D01*
X10367Y442602D01*
X9821Y443548D01*
X9048Y444320D01*
X8102Y444867D01*
X7046Y445150D01*
D02*
G37*
G36*
X10650Y440500D02*
X7000D01*
Y436850D01*
X7046D01*
X8102Y437133D01*
X9048Y437679D01*
X9821Y438452D01*
X10367Y439398D01*
X10650Y440454D01*
Y440500D01*
D02*
G37*
G36*
X143756Y464815D02*
X139319D01*
Y460378D01*
X139469D01*
X140725Y460714D01*
X141850Y461364D01*
X142770Y462284D01*
X143420Y463409D01*
X143756Y464665D01*
Y464815D01*
D02*
G37*
G36*
X138319D02*
X133882D01*
Y464665D01*
X134218Y463409D01*
X134868Y462284D01*
X135787Y461364D01*
X136913Y460714D01*
X138169Y460378D01*
X138319D01*
Y464815D01*
D02*
G37*
G36*
X139469Y459346D02*
X139319D01*
Y454909D01*
X143756D01*
Y455059D01*
X143420Y456315D01*
X142770Y457441D01*
X141850Y458360D01*
X140725Y459010D01*
X139469Y459346D01*
D02*
G37*
G36*
X138319D02*
X138169D01*
X136913Y459010D01*
X135787Y458360D01*
X134868Y457441D01*
X134218Y456315D01*
X133882Y455059D01*
Y454909D01*
X138319D01*
Y459346D01*
D02*
G37*
G36*
X143756Y453909D02*
X139319D01*
Y449472D01*
X139469D01*
X140725Y449809D01*
X141850Y450459D01*
X142770Y451378D01*
X143420Y452504D01*
X143756Y453759D01*
Y453909D01*
D02*
G37*
G36*
X138319D02*
X133882D01*
Y453759D01*
X134218Y452504D01*
X134868Y451378D01*
X135787Y450459D01*
X136913Y449809D01*
X138169Y449472D01*
X138319D01*
Y453909D01*
D02*
G37*
G36*
X139469Y448559D02*
X139319D01*
Y444122D01*
X143756D01*
Y444272D01*
X143420Y445528D01*
X142770Y446653D01*
X141850Y447573D01*
X140725Y448223D01*
X139469Y448559D01*
D02*
G37*
G36*
X138319D02*
X138169D01*
X136913Y448223D01*
X135787Y447573D01*
X134868Y446653D01*
X134218Y445528D01*
X133882Y444272D01*
Y444122D01*
X138319D01*
Y448559D01*
D02*
G37*
G36*
X138819Y443622D02*
D01*
D01*
D01*
D02*
G37*
G36*
X143756Y443122D02*
X139319D01*
Y438685D01*
X139469D01*
X140725Y439021D01*
X141850Y439672D01*
X142770Y440591D01*
X143420Y441716D01*
X143756Y442972D01*
Y443122D01*
D02*
G37*
G36*
X138319D02*
X133882D01*
Y442972D01*
X134218Y441716D01*
X134868Y440591D01*
X135787Y439672D01*
X136913Y439021D01*
X138169Y438685D01*
X138319D01*
Y443122D01*
D02*
G37*
G36*
X139469Y437653D02*
X139319D01*
Y433216D01*
X143756D01*
Y433366D01*
X143420Y434622D01*
X142770Y435748D01*
X141850Y436667D01*
X140725Y437317D01*
X139469Y437653D01*
D02*
G37*
G36*
X138319D02*
X138169D01*
X136913Y437317D01*
X135787Y436667D01*
X134868Y435748D01*
X134218Y434622D01*
X133882Y433366D01*
Y433216D01*
X138319D01*
Y437653D01*
D02*
G37*
G36*
X143756Y421311D02*
X139319D01*
Y416874D01*
X139469D01*
X140725Y417210D01*
X141850Y417860D01*
X142770Y418780D01*
X143420Y419905D01*
X143756Y421161D01*
Y421311D01*
D02*
G37*
G36*
X138319Y415961D02*
X138169D01*
X136913Y415624D01*
X135787Y414974D01*
X134868Y414055D01*
X134218Y412929D01*
X133882Y411674D01*
Y411524D01*
X138319D01*
Y415961D01*
D02*
G37*
G36*
X7046Y415150D02*
X7000D01*
Y411500D01*
X10650D01*
Y411546D01*
X10367Y412602D01*
X9821Y413548D01*
X9048Y414321D01*
X8102Y414867D01*
X7046Y415150D01*
D02*
G37*
G36*
X10650Y410500D02*
X7000D01*
Y406850D01*
X7046D01*
X8102Y407133D01*
X9048Y407680D01*
X9821Y408452D01*
X10367Y409398D01*
X10650Y410454D01*
Y410500D01*
D02*
G37*
G36*
X128288Y410449D02*
X128138D01*
Y406012D01*
X132575D01*
Y406162D01*
X132238Y407417D01*
X131588Y408543D01*
X130669Y409462D01*
X129543Y410112D01*
X128288Y410449D01*
D02*
G37*
G36*
X127138D02*
X126988D01*
X125732Y410112D01*
X124606Y409462D01*
X123687Y408543D01*
X123037Y407417D01*
X122701Y406162D01*
Y406012D01*
X127138D01*
Y410449D01*
D02*
G37*
G36*
X132575Y405012D02*
X128138D01*
Y400575D01*
X128288D01*
X129543Y400911D01*
X130669Y401561D01*
X131588Y402480D01*
X132238Y403606D01*
X132575Y404862D01*
Y405012D01*
D02*
G37*
G36*
X127138D02*
X122701D01*
Y404862D01*
X123037Y403606D01*
X123687Y402480D01*
X124606Y401561D01*
X125732Y400911D01*
X126988Y400575D01*
X127138D01*
Y405012D01*
D02*
G37*
G36*
X7046Y395150D02*
X7000D01*
Y391500D01*
X10650D01*
Y391546D01*
X10367Y392602D01*
X9821Y393548D01*
X9048Y394321D01*
X8102Y394867D01*
X7046Y395150D01*
D02*
G37*
G36*
X10650Y390500D02*
X7000D01*
Y386850D01*
X7046D01*
X8102Y387133D01*
X9048Y387680D01*
X9821Y388452D01*
X10367Y389398D01*
X10650Y390454D01*
Y390500D01*
D02*
G37*
%LPD*%
D10*
X22441Y375984D02*
X120866D01*
X16500Y441000D02*
X24354D01*
X27953Y437402D01*
X23693Y423807D02*
X25405D01*
X25591Y423622D01*
X16500Y431000D02*
X23693Y423807D01*
X29134Y426350D02*
X60959D01*
X13386Y435827D02*
X19658D01*
X29134Y426350D01*
X11850Y434291D02*
X13386Y435827D01*
X11850Y426350D02*
Y434291D01*
X6500Y421000D02*
X11850Y426350D01*
X161417Y551181D02*
Y553988D01*
X152252Y563154D02*
X161417Y553988D01*
X147748Y563154D02*
X152252D01*
X143941Y559347D02*
X147748Y563154D01*
X143941Y557445D02*
Y559347D01*
X138819Y552323D02*
X143941Y557445D01*
X161225Y524803D02*
X161811Y525389D01*
Y550787D01*
X158004Y524803D02*
X161225D01*
X161417Y551181D02*
X161811Y550787D01*
X152252Y530555D02*
X158004Y524803D01*
X147748Y530555D02*
X152252D01*
X143941Y526748D02*
X147748Y530555D01*
X143941Y524847D02*
Y526748D01*
X138819Y519724D02*
X143941Y524847D01*
X141071Y514256D02*
X148106Y507221D01*
Y507179D02*
Y507221D01*
Y507179D02*
X150000Y505285D01*
Y503425D02*
Y505285D01*
X136567Y514256D02*
X141071D01*
X138819Y563228D02*
Y574016D01*
Y552323D02*
Y563228D01*
X144331Y579528D02*
X150000D01*
X138819Y574016D02*
X144331Y579528D01*
X138819Y519724D02*
Y530630D01*
X157874Y530315D02*
Y535839D01*
X152252Y541461D02*
X157874Y535839D01*
X142386Y546854D02*
X147779Y541461D01*
X136567Y546854D02*
X142386D01*
X147779Y541461D02*
X152252D01*
X132760Y543048D02*
X136567Y546854D01*
X132760Y541146D02*
Y543048D01*
X127638Y536024D02*
X132760Y541146D01*
X138819Y487008D02*
Y498032D01*
X129890Y487083D02*
X133228Y490421D01*
Y510917D02*
X136567Y514256D01*
X133228Y490421D02*
Y510917D01*
X41339Y309055D02*
X115787D01*
X16500Y331000D02*
X17341Y330159D01*
X20235D02*
X41339Y309055D01*
X17341Y330159D02*
X20235D01*
X59788Y294882D02*
X121249Y233421D01*
X16500Y321000D02*
X42618Y294882D01*
X59788D01*
X11150Y325650D02*
X19022D01*
X45616Y299055D02*
X115787D01*
X6500Y321000D02*
X11150Y325650D01*
X19022D02*
X45616Y299055D01*
X16984Y204516D02*
X86429D01*
X16500Y205000D02*
X16984Y204516D01*
X86429D02*
X86614Y204331D01*
X87008Y339370D02*
X133465D01*
X86614Y338976D02*
X87008Y339370D01*
X133465D02*
X164961Y370866D01*
Y444961D01*
X150000Y459921D02*
X164961Y444961D01*
X130168Y342126D02*
X161024Y372981D01*
X150000Y449016D02*
X161024Y437992D01*
Y372981D02*
Y437992D01*
X11736Y160236D02*
X82677D01*
X16500Y411000D02*
X106276D01*
X106299Y411024D01*
X11406Y405905D02*
X102362D01*
X94827Y391000D02*
X94882Y390945D01*
X16500Y401000D02*
X98244D01*
X16500Y391000D02*
X94827D01*
X98244Y401000D02*
X98425Y401181D01*
X148106Y412664D02*
X150000Y414557D01*
X131547Y396063D02*
X148106Y412622D01*
Y412664D01*
X150000Y414557D02*
Y416417D01*
X120866Y375984D02*
X150000Y405118D01*
X27953Y396063D02*
X131547D01*
X150000Y405118D02*
Y405512D01*
X112730Y421886D02*
X131205D01*
X110994Y423622D02*
X112730Y421886D01*
X131205D02*
X136598Y427280D01*
X16500Y421000D02*
X110102D01*
X110236Y420866D01*
X25591Y423622D02*
X110994D01*
X77691Y351575D02*
X77953D01*
X16590Y351091D02*
X77206D01*
X77691Y351575D01*
X6500Y155000D02*
X11736Y160236D01*
X47402Y524961D02*
X127480D01*
X127638Y525118D01*
X47244Y524803D02*
X47402Y524961D01*
X11437Y446063D02*
X122505D01*
X6500Y451000D02*
X11437Y446063D01*
X59055Y492913D02*
X59317D01*
X59711Y492520D02*
X127638D01*
X59317Y492913D02*
X59711Y492520D01*
X16677Y215177D02*
X78169D01*
X16500Y215000D02*
X16677Y215177D01*
X78169D02*
X78347Y215354D01*
Y342126D02*
X130168D01*
X157437Y374821D02*
Y430673D01*
X150000Y438110D02*
X157437Y430673D01*
X128285Y345669D02*
X157437Y374821D01*
X24803Y345669D02*
X128285D01*
X11327Y385827D02*
X90945D01*
X136598Y427280D02*
X149957D01*
X150000Y427323D01*
X60959Y426350D02*
X67286Y432677D01*
X78469Y453272D02*
X123382D01*
X127638Y449016D01*
X74803Y449606D02*
X78469Y453272D01*
X11658Y240158D02*
X74803D01*
X6500Y235000D02*
X11658Y240158D01*
X70906Y459882D02*
X127598D01*
X127638Y459921D01*
X70866Y459842D02*
X70906Y459882D01*
X6500Y225000D02*
X11815Y230315D01*
X70866D01*
X62874Y195000D02*
X62992Y194882D01*
X16500Y195000D02*
X62874D01*
X16500Y311000D02*
X105689Y221811D01*
X115787D01*
X121249Y226349D02*
Y233421D01*
X43445Y314055D02*
X120787D01*
X16500Y351000D02*
X16590Y351091D01*
X51181Y514567D02*
X51299Y514449D01*
X127520D02*
X127638Y514331D01*
X51299Y514449D02*
X127520D01*
X127579Y503484D02*
X127638Y503425D01*
X55177Y503484D02*
X127579D01*
X55118Y503543D02*
X55177Y503484D01*
X62992Y481496D02*
X63051Y481555D01*
X127579D02*
X127638Y481614D01*
X63051Y481555D02*
X127579D01*
X66929Y470866D02*
X67008Y470787D01*
X127559D02*
X127638Y470709D01*
X67008Y470787D02*
X127559D01*
X43307Y546850D02*
X43347Y546890D01*
X127598D01*
X11150Y199650D02*
X66886D01*
X66929Y199606D01*
X6500Y195000D02*
X11150Y199650D01*
X59016Y185000D02*
X59055Y185039D01*
X16500Y185000D02*
X59016D01*
X6500Y175000D02*
X11150Y179650D01*
X54996D01*
X55118Y179528D01*
X50984Y175000D02*
X51181Y175197D01*
X16500Y175000D02*
X50984D01*
X16500Y165000D02*
X47205D01*
X47244Y164961D01*
X127598Y546890D02*
X127638Y546929D01*
X16500Y155000D02*
X43189D01*
X43307Y155118D01*
X39162Y558082D02*
X127272D01*
X38976Y558268D02*
X39162Y558082D01*
X127272D02*
X127638Y557717D01*
X16500Y145000D02*
X38701D01*
X38976Y145276D01*
X35571Y568760D02*
X127500D01*
X35433Y568898D02*
X35571Y568760D01*
X127500D02*
X127638Y568622D01*
X35039Y135039D02*
X35433D01*
X35000Y135000D02*
X35039Y135039D01*
X16500Y135000D02*
X35000D01*
X31890Y579528D02*
X31890Y579528D01*
X127638D01*
X16500Y125000D02*
X31693D01*
X31890Y125197D01*
X149957Y470752D02*
X150000Y470709D01*
X135284Y470752D02*
X149957D01*
X21646Y476146D02*
X129890D01*
X135284Y470752D01*
X6500Y461000D02*
X21646Y476146D01*
X67286Y432677D02*
X114961D01*
X110117Y484539D02*
X112660Y487083D01*
X129890D01*
X6500Y401000D02*
X11406Y405905D01*
X6500Y381000D02*
X11327Y385827D01*
X86905Y381000D02*
X87008Y381102D01*
X16500Y381000D02*
X86905D01*
X83858Y416142D02*
X83996Y416280D01*
X127500D02*
X127638Y416417D01*
X83996Y416280D02*
X127500D01*
X83724Y371000D02*
X83858Y370866D01*
X16500Y371000D02*
X83724D01*
X80787Y427244D02*
X127559D01*
X80709Y427165D02*
X80787Y427244D01*
X127559D02*
X127638Y427323D01*
X16500Y361000D02*
X80685D01*
X80709Y361024D01*
X77953Y438583D02*
X78215D01*
X78648Y438150D01*
X127598D01*
X127638Y438110D01*
X120787Y314055D02*
X125787Y309055D01*
X16500Y341000D02*
X43445Y314055D01*
X121249Y226349D02*
X125787Y221811D01*
X16500Y115000D02*
X83790D01*
X108357Y139567D01*
X120787D01*
X125787Y134567D01*
X16500Y105000D02*
X106181D01*
X122835Y121653D01*
X115787Y134567D02*
X122835Y127520D01*
Y121653D02*
Y127520D01*
X16500Y85000D02*
X78110D01*
X115787Y47323D01*
X16500Y95000D02*
X85181D01*
X125787Y54394D01*
Y47323D02*
Y54394D01*
D20*
X87008Y45669D02*
D03*
X87508Y604224D02*
D03*
X138819Y612795D02*
D03*
Y372244D02*
D03*
D21*
X115787Y221811D02*
D03*
Y231811D02*
D03*
Y211811D02*
D03*
X125787Y221811D02*
D03*
X115787Y309055D02*
D03*
Y319055D02*
D03*
Y299055D02*
D03*
X125787Y309055D02*
D03*
X115787Y134567D02*
D03*
Y144567D02*
D03*
Y124567D02*
D03*
X125787Y134567D02*
D03*
X115787Y47323D02*
D03*
Y57323D02*
D03*
Y37323D02*
D03*
X125787Y47323D02*
D03*
D22*
X150787Y241811D02*
D03*
Y201811D02*
D03*
Y329055D02*
D03*
Y289055D02*
D03*
Y154567D02*
D03*
Y114567D02*
D03*
Y67323D02*
D03*
Y27323D02*
D03*
D23*
X6500Y401000D02*
D03*
Y391000D02*
D03*
X16500Y401000D02*
D03*
Y391000D02*
D03*
X6500Y381000D02*
D03*
Y371000D02*
D03*
X16500Y381000D02*
D03*
Y371000D02*
D03*
X6500Y301000D02*
D03*
X16500Y311000D02*
D03*
X6500D02*
D03*
X16500Y321000D02*
D03*
X6500D02*
D03*
X16500Y331000D02*
D03*
X6500D02*
D03*
X16500Y341000D02*
D03*
Y351000D02*
D03*
X6500Y341000D02*
D03*
Y351000D02*
D03*
X16500Y361000D02*
D03*
X6500D02*
D03*
X16500Y411000D02*
D03*
X6500D02*
D03*
X16500Y421000D02*
D03*
Y431000D02*
D03*
Y441000D02*
D03*
Y451000D02*
D03*
Y461000D02*
D03*
X6500Y421000D02*
D03*
Y431000D02*
D03*
Y441000D02*
D03*
Y451000D02*
D03*
Y461000D02*
D03*
Y175000D02*
D03*
Y165000D02*
D03*
X16500Y175000D02*
D03*
Y165000D02*
D03*
X6500Y155000D02*
D03*
Y145000D02*
D03*
X16500Y155000D02*
D03*
Y145000D02*
D03*
X6500Y75000D02*
D03*
X16500Y85000D02*
D03*
X6500D02*
D03*
X16500Y95000D02*
D03*
X6500D02*
D03*
X16500Y105000D02*
D03*
X6500D02*
D03*
X16500Y115000D02*
D03*
Y125000D02*
D03*
X6500Y115000D02*
D03*
Y125000D02*
D03*
X16500Y135000D02*
D03*
X6500D02*
D03*
X16500Y185000D02*
D03*
X6500D02*
D03*
X16500Y195000D02*
D03*
Y205000D02*
D03*
Y215000D02*
D03*
Y225000D02*
D03*
Y235000D02*
D03*
X6500Y195000D02*
D03*
Y205000D02*
D03*
Y215000D02*
D03*
Y225000D02*
D03*
Y235000D02*
D03*
D24*
X16500Y301000D02*
D03*
Y75000D02*
D03*
D25*
X127638Y579528D02*
D03*
Y568622D02*
D03*
Y557717D02*
D03*
Y546929D02*
D03*
Y536024D02*
D03*
Y525118D02*
D03*
Y514331D02*
D03*
Y503425D02*
D03*
Y492520D02*
D03*
X138819Y487008D02*
D03*
Y476221D02*
D03*
Y465315D02*
D03*
Y454409D02*
D03*
Y443622D02*
D03*
Y432717D02*
D03*
Y421811D02*
D03*
Y411024D02*
D03*
Y498032D02*
D03*
Y508819D02*
D03*
Y519724D02*
D03*
Y530630D02*
D03*
Y541417D02*
D03*
Y552323D02*
D03*
Y563228D02*
D03*
Y574016D02*
D03*
X127638Y405512D02*
D03*
Y416417D02*
D03*
Y427323D02*
D03*
Y438110D02*
D03*
Y449016D02*
D03*
Y459921D02*
D03*
Y470709D02*
D03*
Y481614D02*
D03*
X150000Y405512D02*
D03*
Y416417D02*
D03*
Y427323D02*
D03*
Y438110D02*
D03*
Y449016D02*
D03*
Y459921D02*
D03*
Y470709D02*
D03*
Y481614D02*
D03*
Y492520D02*
D03*
Y579528D02*
D03*
Y568622D02*
D03*
Y557717D02*
D03*
Y546929D02*
D03*
Y536024D02*
D03*
Y525118D02*
D03*
Y514331D02*
D03*
Y503425D02*
D03*
D26*
X22441Y375984D02*
D03*
X27953Y437402D02*
D03*
X86614Y204331D02*
D03*
Y338976D02*
D03*
X157874Y530315D02*
D03*
X82677Y160236D02*
D03*
X106299Y411024D02*
D03*
X102362Y405905D02*
D03*
X94882Y390945D02*
D03*
X98425Y401181D02*
D03*
X110236Y420866D02*
D03*
X77953Y351575D02*
D03*
X122505Y446063D02*
D03*
X59055Y492913D02*
D03*
X78347Y215354D02*
D03*
Y342126D02*
D03*
X24803Y345669D02*
D03*
X27953Y396063D02*
D03*
X25591Y423622D02*
D03*
X74803Y449606D02*
D03*
Y240158D02*
D03*
X70866Y459842D02*
D03*
Y230315D02*
D03*
X62992Y194882D02*
D03*
X51181Y514567D02*
D03*
X55118Y503543D02*
D03*
X62992Y481496D02*
D03*
X66929Y470866D02*
D03*
X47244Y524803D02*
D03*
X66929Y199606D02*
D03*
X59055Y185039D02*
D03*
X55118Y179528D02*
D03*
X51181Y175197D02*
D03*
X47244Y164961D02*
D03*
X43307Y546850D02*
D03*
Y155118D02*
D03*
X38976Y558268D02*
D03*
Y145276D02*
D03*
X35433Y568898D02*
D03*
Y135039D02*
D03*
X31890Y579528D02*
D03*
Y125197D02*
D03*
X114961Y432677D02*
D03*
X110117Y484539D02*
D03*
X90945Y385827D02*
D03*
X87008Y381102D02*
D03*
X83858Y416142D02*
D03*
Y370866D02*
D03*
X80709Y427165D02*
D03*
Y361024D02*
D03*
X77953Y438583D02*
D03*
M02*
