G04*
G04 #@! TF.GenerationSoftware,Altium Limited,Altium Designer,24.3.1 (35)*
G04*
G04 Layer_Color=16711935*
%FSLAX25Y25*%
%MOIN*%
G70*
G04*
G04 #@! TF.SameCoordinates,F9B35F18-39F2-4BAC-A9EF-380DD9FA1C01*
G04*
G04*
G04 #@! TF.FilePolarity,Positive*
G04*
G01*
G75*
%ADD10C,0.01000*%
D10*
X401168Y231266D02*
G03*
X348506Y235832I-27349J-9455D01*
G01*
Y207790D02*
G03*
X401168Y212356I25313J14021D01*
G01*
X409462D02*
G03*
X462124Y207790I27349J9455D01*
G01*
Y235832D02*
G03*
X409462Y231266I-25313J-14021D01*
G01*
X401168Y318510D02*
G03*
X348506Y323077I-27349J-9455D01*
G01*
Y295034D02*
G03*
X401168Y299600I25313J14021D01*
G01*
X409462D02*
G03*
X462124Y295034I27349J9455D01*
G01*
Y323077D02*
G03*
X409462Y318510I-25313J-14021D01*
G01*
X401168Y144022D02*
G03*
X348506Y148588I-27349J-9455D01*
G01*
Y120545D02*
G03*
X401168Y125112I25313J14021D01*
G01*
X409462D02*
G03*
X462124Y120545I27349J9455D01*
G01*
Y148588D02*
G03*
X409462Y144022I-25313J-14021D01*
G01*
X401168Y56778D02*
G03*
X348506Y61344I-27349J-9455D01*
G01*
Y33301D02*
G03*
X401168Y37868I25313J14021D01*
G01*
X409462D02*
G03*
X462124Y33301I27349J9455D01*
G01*
Y61344D02*
G03*
X409462Y56778I-25313J-14021D01*
G01*
X401168Y231260D02*
X409480D01*
X401168Y212362D02*
X409462D01*
X462124Y207790D02*
Y235832D01*
X348506Y207790D02*
Y235832D01*
X401168Y318504D02*
X409480D01*
X401168Y299606D02*
X409462D01*
X462124Y295034D02*
Y323077D01*
X348506Y295034D02*
Y323077D01*
X401168Y144016D02*
X409480D01*
X401168Y125118D02*
X409462D01*
X462124Y120545D02*
Y148588D01*
X348506Y120545D02*
Y148588D01*
X401168Y56772D02*
X409480D01*
X401168Y37874D02*
X409462D01*
X462124Y33301D02*
Y61344D01*
X348506Y33301D02*
Y61344D01*
M02*
