G04*
G04 #@! TF.GenerationSoftware,Altium Limited,Altium Designer,21.0.9 (235)*
G04*
G04 Layer_Color=128*
%FSLAX44Y44*%
%MOMM*%
G71*
G04*
G04 #@! TF.SameCoordinates,B04B5628-BEB7-489B-AFC1-9DCA5A1A145D*
G04*
G04*
G04 #@! TF.FilePolarity,Positive*
G04*
G01*
G75*
%ADD39C,0.0508*%
D39*
X-5080Y-787400D02*
X5080D01*
X0Y-792480D02*
Y-782320D01*
X-30480Y-787400D02*
X-20320D01*
X-25400Y-792480D02*
Y-782320D01*
X-55880Y-787400D02*
X-45720D01*
X-50800Y-792480D02*
Y-782320D01*
X-81280Y-787400D02*
X-71120D01*
X-76200Y-792480D02*
Y-782320D01*
X-106680Y-787400D02*
X-96520D01*
X-101600Y-792480D02*
Y-782320D01*
X-132080Y-787400D02*
X-121920D01*
X-127000Y-792480D02*
Y-782320D01*
X-157480Y-787400D02*
X-147320D01*
X-152400Y-792480D02*
Y-782320D01*
X-182880Y-787400D02*
X-172720D01*
X-177800Y-792480D02*
Y-782320D01*
X-208280Y-787400D02*
X-198120D01*
X-203200Y-792480D02*
Y-782320D01*
X-5080Y-812800D02*
X5080D01*
X0Y-817880D02*
Y-807720D01*
X-233680Y-787400D02*
X-223520D01*
X-228600Y-792480D02*
Y-782320D01*
X-259080Y-787400D02*
X-248920D01*
X-254000Y-792480D02*
Y-782320D01*
X-284480Y-787400D02*
X-274320D01*
X-279400Y-792480D02*
Y-782320D01*
X-309880Y-787400D02*
X-299720D01*
X-304800Y-792480D02*
Y-782320D01*
X-335280Y-787400D02*
X-325120D01*
X-330200Y-792480D02*
Y-782320D01*
X-360680Y-787400D02*
X-350520D01*
X-355600Y-792480D02*
Y-782320D01*
X-386080Y-787400D02*
X-375920D01*
X-381000Y-792480D02*
Y-782320D01*
X-411480Y-787400D02*
X-401320D01*
X-406400Y-792480D02*
Y-782320D01*
X-436880Y-787400D02*
X-426720D01*
X-431800Y-792480D02*
Y-782320D01*
X-30480Y-812800D02*
X-20320D01*
X-25400Y-817880D02*
Y-807720D01*
X-55880Y-812800D02*
X-45720D01*
X-50800Y-817880D02*
Y-807720D01*
X-81280Y-812800D02*
X-71120D01*
X-76200Y-817880D02*
Y-807720D01*
X-106680Y-812800D02*
X-96520D01*
X-101600Y-817880D02*
Y-807720D01*
X-132080Y-812800D02*
X-121920D01*
X-127000Y-817880D02*
Y-807720D01*
X-157480Y-812800D02*
X-147320D01*
X-152400Y-817880D02*
Y-807720D01*
X-182880Y-812800D02*
X-172720D01*
X-177800Y-817880D02*
Y-807720D01*
X-208280Y-812800D02*
X-198120D01*
X-203200Y-817880D02*
Y-807720D01*
X-233680Y-812800D02*
X-223520D01*
X-228600Y-817880D02*
Y-807720D01*
X-259080Y-812800D02*
X-248920D01*
X-254000Y-817880D02*
Y-807720D01*
X-284480Y-812800D02*
X-274320D01*
X-279400Y-817880D02*
Y-807720D01*
X-309880Y-812800D02*
X-299720D01*
X-304800Y-817880D02*
Y-807720D01*
X-335280Y-812800D02*
X-325120D01*
X-330200Y-817880D02*
Y-807720D01*
X-360680Y-812800D02*
X-350520D01*
X-355600Y-817880D02*
Y-807720D01*
X-386080Y-812800D02*
X-375920D01*
X-381000Y-817880D02*
Y-807720D01*
X-411480Y-812800D02*
X-401320D01*
X-406400Y-817880D02*
Y-807720D01*
X-436880Y-812800D02*
X-426720D01*
X-431800Y-817880D02*
Y-807720D01*
X-5080Y-213360D02*
X5080D01*
X0Y-218440D02*
Y-208280D01*
X-5080Y-187960D02*
X5080D01*
X0Y-193040D02*
Y-182880D01*
X-5080Y-162560D02*
X5080D01*
X0Y-167640D02*
Y-157480D01*
X-5080Y-137160D02*
X5080D01*
X0Y-142240D02*
Y-132080D01*
X-5080Y-111760D02*
X5080D01*
X0Y-116840D02*
Y-106680D01*
X-5080Y-86360D02*
X5080D01*
X0Y-91440D02*
Y-81280D01*
X-5080Y-60960D02*
X5080D01*
X0Y-66040D02*
Y-55880D01*
X-5080Y-35560D02*
X5080D01*
X0Y-40640D02*
Y-30480D01*
X-5080Y-238760D02*
X5080D01*
X0Y-243840D02*
Y-233680D01*
X-5080Y-264160D02*
X5080D01*
X0Y-269240D02*
Y-259080D01*
X-5080Y-533400D02*
X5080D01*
X0Y-538480D02*
Y-528320D01*
X-5080Y-558800D02*
X5080D01*
X0Y-563880D02*
Y-553720D01*
X-5080Y-584200D02*
X5080D01*
X0Y-589280D02*
Y-579120D01*
X-5080Y-609600D02*
X5080D01*
X0Y-614680D02*
Y-604520D01*
X-5080Y-635000D02*
X5080D01*
X0Y-640080D02*
Y-629920D01*
X-5080Y-660400D02*
X5080D01*
X0Y-665480D02*
Y-655320D01*
X-5080Y-685800D02*
X5080D01*
X0Y-690880D02*
Y-680720D01*
X-5080Y-711200D02*
X5080D01*
X0Y-716280D02*
Y-706120D01*
X-775228Y-1025854D02*
X-766228D01*
X-770728Y-1030354D02*
Y-1021354D01*
X-775228Y-1050854D02*
X-766228D01*
X-770728Y-1055354D02*
Y-1046354D01*
X-775228Y-1075854D02*
X-766228D01*
X-770728Y-1080354D02*
Y-1071354D01*
X-845936Y57504D02*
X-834936D01*
X-840436Y52004D02*
Y63004D01*
X-845936Y32104D02*
X-834936D01*
X-840436Y26604D02*
Y37604D01*
X-845936Y6704D02*
X-834936D01*
X-840436Y1204D02*
Y12204D01*
X-845936Y-18696D02*
X-834936D01*
X-840436Y-24196D02*
Y-13196D01*
X-845936Y-44096D02*
X-834936D01*
X-840436Y-49596D02*
Y-38596D01*
X-871336Y57504D02*
X-860336D01*
X-865836Y52004D02*
Y63004D01*
X-871336Y32104D02*
X-860336D01*
X-865836Y26604D02*
Y37604D01*
X-871336Y6704D02*
X-860336D01*
X-865836Y1204D02*
Y12204D01*
X-871336Y-18696D02*
X-860336D01*
X-865836Y-24196D02*
Y-13196D01*
X-871336Y-44096D02*
X-860336D01*
X-865836Y-49596D02*
Y-38596D01*
X-845936Y-94896D02*
X-834936D01*
X-840436Y-100396D02*
Y-89396D01*
X-845936Y-120296D02*
X-834936D01*
X-840436Y-125796D02*
Y-114796D01*
X-871336Y-94896D02*
X-860336D01*
X-865836Y-100396D02*
Y-89396D01*
X-871336Y-120296D02*
X-860336D01*
X-865836Y-125796D02*
Y-114796D01*
X-845936Y-196496D02*
X-834936D01*
X-840436Y-201996D02*
Y-190996D01*
X-871336Y-196496D02*
X-860336D01*
X-865836Y-201996D02*
Y-190996D01*
X-845936Y-348896D02*
X-834936D01*
X-840436Y-354396D02*
Y-343396D01*
X-871336Y-348896D02*
X-860336D01*
X-865836Y-354396D02*
Y-343396D01*
X-845936Y-323496D02*
X-834936D01*
X-840436Y-328996D02*
Y-317996D01*
X-871336Y-323496D02*
X-860336D01*
X-865836Y-328996D02*
Y-317996D01*
X-871336Y-298096D02*
X-860336D01*
X-865836Y-303596D02*
Y-292596D01*
X-845936Y-298096D02*
X-834936D01*
X-840436Y-303596D02*
Y-292596D01*
X-871336Y-272696D02*
X-860336D01*
X-865836Y-278196D02*
Y-267196D01*
X-845936Y-272696D02*
X-834936D01*
X-840436Y-278196D02*
Y-267196D01*
X-871336Y-247296D02*
X-860336D01*
X-865836Y-252796D02*
Y-241796D01*
X-871336Y-221896D02*
X-860336D01*
X-865836Y-227396D02*
Y-216396D01*
X-845936Y-247296D02*
X-834936D01*
X-840436Y-252796D02*
Y-241796D01*
X-845936Y-221896D02*
X-834936D01*
X-840436Y-227396D02*
Y-216396D01*
X-871336Y-171096D02*
X-860336D01*
X-865836Y-176596D02*
Y-165596D01*
X-871336Y-145696D02*
X-860336D01*
X-865836Y-151196D02*
Y-140196D01*
X-845936Y-171096D02*
X-834936D01*
X-840436Y-176596D02*
Y-165596D01*
X-845936Y-145696D02*
X-834936D01*
X-840436Y-151196D02*
Y-140196D01*
X-871336Y-69496D02*
X-860336D01*
X-865836Y-74996D02*
Y-63996D01*
X-845936Y-69496D02*
X-834936D01*
X-840436Y-74996D02*
Y-63996D01*
X-234300Y-484000D02*
X-223900D01*
X-229100Y-489200D02*
Y-478800D01*
X-208900Y-484000D02*
X-198500D01*
X-203700Y-489200D02*
Y-478800D01*
X-259700Y-484000D02*
X-249300D01*
X-254500Y-489200D02*
Y-478800D01*
X-208900Y-509400D02*
X-198500D01*
X-203700Y-514600D02*
Y-504200D01*
X-259700Y-509400D02*
X-249300D01*
X-254500Y-514600D02*
Y-504200D01*
X-234300Y-509400D02*
X-223900D01*
X-229100Y-514600D02*
Y-504200D01*
X-16000Y0D02*
X16000D01*
X0Y-16000D02*
Y16000D01*
X-447000Y-508000D02*
X-415000D01*
X-431000Y-524000D02*
Y-492000D01*
X-168000Y-508000D02*
X-136000D01*
X-152000Y-524000D02*
Y-492000D01*
X-797726Y77316D02*
X-765726D01*
X-781726Y61316D02*
Y93316D01*
X22274Y-1072684D02*
X54274D01*
X38274Y-1088684D02*
Y-1056684D01*
X-857726Y-1072684D02*
X-825726D01*
X-841726Y-1088684D02*
Y-1056684D01*
X-711728Y-1075854D02*
X-702728D01*
X-707228Y-1080354D02*
Y-1071354D01*
X-711728Y-1050854D02*
X-702728D01*
X-707228Y-1055354D02*
Y-1046354D01*
X-711728Y-1025854D02*
X-702728D01*
X-707228Y-1030354D02*
Y-1021354D01*
X-648228Y-1075854D02*
X-639228D01*
X-643728Y-1080354D02*
Y-1071354D01*
X-648228Y-1050854D02*
X-639228D01*
X-643728Y-1055354D02*
Y-1046354D01*
X-648228Y-1025854D02*
X-639228D01*
X-643728Y-1030354D02*
Y-1021354D01*
X-584728Y-1075854D02*
X-575728D01*
X-580228Y-1080354D02*
Y-1071354D01*
X-584728Y-1050854D02*
X-575728D01*
X-580228Y-1055354D02*
Y-1046354D01*
X-584728Y-1025854D02*
X-575728D01*
X-580228Y-1030354D02*
Y-1021354D01*
X-845936Y-516546D02*
X-834936D01*
X-840436Y-522046D02*
Y-511046D01*
X-845936Y-541946D02*
X-834936D01*
X-840436Y-547446D02*
Y-536446D01*
X-845936Y-567346D02*
X-834936D01*
X-840436Y-572846D02*
Y-561846D01*
X-845936Y-592746D02*
X-834936D01*
X-840436Y-598246D02*
Y-587246D01*
X-845936Y-618146D02*
X-834936D01*
X-840436Y-623646D02*
Y-612646D01*
X-871336Y-516546D02*
X-860336D01*
X-865836Y-522046D02*
Y-511046D01*
X-871336Y-541946D02*
X-860336D01*
X-865836Y-547446D02*
Y-536446D01*
X-871336Y-567346D02*
X-860336D01*
X-865836Y-572846D02*
Y-561846D01*
X-871336Y-592746D02*
X-860336D01*
X-865836Y-598246D02*
Y-587246D01*
X-871336Y-618146D02*
X-860336D01*
X-865836Y-623646D02*
Y-612646D01*
X-845936Y-668946D02*
X-834936D01*
X-840436Y-674446D02*
Y-663446D01*
X-845936Y-694346D02*
X-834936D01*
X-840436Y-699846D02*
Y-688846D01*
X-871336Y-668946D02*
X-860336D01*
X-865836Y-674446D02*
Y-663446D01*
X-871336Y-694346D02*
X-860336D01*
X-865836Y-699846D02*
Y-688846D01*
X-845936Y-770546D02*
X-834936D01*
X-840436Y-776046D02*
Y-765046D01*
X-871336Y-770546D02*
X-860336D01*
X-865836Y-776046D02*
Y-765046D01*
X-845936Y-922946D02*
X-834936D01*
X-840436Y-928446D02*
Y-917446D01*
X-871336Y-922946D02*
X-860336D01*
X-865836Y-928446D02*
Y-917446D01*
X-845936Y-897546D02*
X-834936D01*
X-840436Y-903046D02*
Y-892046D01*
X-871336Y-897546D02*
X-860336D01*
X-865836Y-903046D02*
Y-892046D01*
X-871336Y-872146D02*
X-860336D01*
X-865836Y-877646D02*
Y-866646D01*
X-845936Y-872146D02*
X-834936D01*
X-840436Y-877646D02*
Y-866646D01*
X-871336Y-846746D02*
X-860336D01*
X-865836Y-852246D02*
Y-841246D01*
X-845936Y-846746D02*
X-834936D01*
X-840436Y-852246D02*
Y-841246D01*
X-871336Y-821346D02*
X-860336D01*
X-865836Y-826846D02*
Y-815846D01*
X-871336Y-795946D02*
X-860336D01*
X-865836Y-801446D02*
Y-790446D01*
X-845936Y-821346D02*
X-834936D01*
X-840436Y-826846D02*
Y-815846D01*
X-845936Y-795946D02*
X-834936D01*
X-840436Y-801446D02*
Y-790446D01*
X-871336Y-745146D02*
X-860336D01*
X-865836Y-750646D02*
Y-739646D01*
X-871336Y-719746D02*
X-860336D01*
X-865836Y-725246D02*
Y-714246D01*
X-845936Y-745146D02*
X-834936D01*
X-840436Y-750646D02*
Y-739646D01*
X-845936Y-719746D02*
X-834936D01*
X-840436Y-725246D02*
Y-714246D01*
X-871336Y-643546D02*
X-860336D01*
X-865836Y-649046D02*
Y-638046D01*
X-845936Y-643546D02*
X-834936D01*
X-840436Y-649046D02*
Y-638046D01*
X-5080Y-482600D02*
X5080D01*
X0Y-487680D02*
Y-477520D01*
X-5080Y-457200D02*
X5080D01*
X0Y-462280D02*
Y-452120D01*
X-5080Y-431800D02*
X5080D01*
X0Y-436880D02*
Y-426720D01*
X-5080Y-406400D02*
X5080D01*
X0Y-411480D02*
Y-401320D01*
X-5080Y-381000D02*
X5080D01*
X0Y-386080D02*
Y-375920D01*
X-5080Y-355600D02*
X5080D01*
X0Y-360680D02*
Y-350520D01*
X-5080Y-330200D02*
X5080D01*
X0Y-335280D02*
Y-325120D01*
X-5080Y-304800D02*
X5080D01*
X0Y-309880D02*
Y-299720D01*
X-487680Y-304800D02*
X-477520D01*
X-482600Y-309880D02*
Y-299720D01*
X-487680Y-279400D02*
X-477520D01*
X-482600Y-284480D02*
Y-274320D01*
X-487680Y-254000D02*
X-477520D01*
X-482600Y-259080D02*
Y-248920D01*
X-487680Y-228600D02*
X-477520D01*
X-482600Y-233680D02*
Y-223520D01*
X-487680Y-203200D02*
X-477520D01*
X-482600Y-208280D02*
Y-198120D01*
X-487680Y-177800D02*
X-477520D01*
X-482600Y-182880D02*
Y-172720D01*
X-487680Y-152400D02*
X-477520D01*
X-482600Y-157480D02*
Y-147320D01*
X-487680Y-127000D02*
X-477520D01*
X-482600Y-132080D02*
Y-121920D01*
X-487680Y-533400D02*
X-477520D01*
X-482600Y-538480D02*
Y-528320D01*
X-487680Y-508000D02*
X-477520D01*
X-482600Y-513080D02*
Y-502920D01*
X-487680Y-482600D02*
X-477520D01*
X-482600Y-487680D02*
Y-477520D01*
X-487680Y-457200D02*
X-477520D01*
X-482600Y-462280D02*
Y-452120D01*
X-487680Y-431800D02*
X-477520D01*
X-482600Y-436880D02*
Y-426720D01*
X-487680Y-406400D02*
X-477520D01*
X-482600Y-411480D02*
Y-401320D01*
X-487680Y-381000D02*
X-477520D01*
X-482600Y-386080D02*
Y-375920D01*
X-487680Y-355600D02*
X-477520D01*
X-482600Y-360680D02*
Y-350520D01*
X-487680Y-762000D02*
X-477520D01*
X-482600Y-767080D02*
Y-756920D01*
X-487680Y-736600D02*
X-477520D01*
X-482600Y-741680D02*
Y-731520D01*
X-487680Y-711200D02*
X-477520D01*
X-482600Y-716280D02*
Y-706120D01*
X-487680Y-685800D02*
X-477520D01*
X-482600Y-690880D02*
Y-680720D01*
X-487680Y-660400D02*
X-477520D01*
X-482600Y-665480D02*
Y-655320D01*
X-487680Y-635000D02*
X-477520D01*
X-482600Y-640080D02*
Y-629920D01*
X-487680Y-609600D02*
X-477520D01*
X-482600Y-614680D02*
Y-604520D01*
X-487680Y-584200D02*
X-477520D01*
X-482600Y-589280D02*
Y-579120D01*
X-498600Y-812800D02*
X-466600D01*
X-482600Y-828800D02*
Y-796800D01*
X-16000Y-749300D02*
X16000D01*
X0Y-765300D02*
Y-733300D01*
X-789666Y-389128D02*
X-787166D01*
X-788416Y-390378D02*
Y-387878D01*
X-801740Y-431546D02*
X-799240D01*
X-800490Y-432796D02*
Y-430296D01*
X-752474Y-277278D02*
X-749974D01*
X-751224Y-278528D02*
Y-276028D01*
X-752474Y-322998D02*
X-749974D01*
X-751224Y-324248D02*
Y-321748D01*
X-752474Y-367919D02*
X-749974D01*
X-751224Y-369169D02*
Y-366669D01*
X-752474Y-411898D02*
X-749974D01*
X-751224Y-413148D02*
Y-410648D01*
X-752474Y-456089D02*
X-749974D01*
X-751224Y-457339D02*
Y-454839D01*
X-776636Y-511068D02*
X-774136D01*
X-775386Y-512318D02*
Y-509818D01*
X-702890Y-681666D02*
X-700390D01*
X-701640Y-682916D02*
Y-680416D01*
X-711018Y-694366D02*
X-708518D01*
X-709768Y-695616D02*
Y-693116D01*
X-719146Y-707066D02*
X-716646D01*
X-717896Y-708316D02*
Y-705816D01*
X-517767Y-767244D02*
X-515267D01*
X-516517Y-768494D02*
Y-765994D01*
X-308590Y-840442D02*
X-306090D01*
X-307340Y-841692D02*
Y-839192D01*
X-267950Y-840442D02*
X-265450D01*
X-266700Y-841692D02*
Y-839192D01*
X-313508Y-858520D02*
X-311008D01*
X-312258Y-859770D02*
Y-857270D01*
X-361930Y-856742D02*
X-359430D01*
X-360680Y-857992D02*
Y-855492D01*
X-388382Y-856080D02*
X-385882D01*
X-387132Y-857330D02*
Y-854830D01*
X-340340Y-858520D02*
X-337840D01*
X-339090Y-859770D02*
Y-857270D01*
X-127326Y-874940D02*
X-124826D01*
X-126076Y-876190D02*
Y-873690D01*
X-152726Y-874940D02*
X-150226D01*
X-151476Y-876190D02*
Y-873690D01*
X-203526Y-874940D02*
X-201026D01*
X-202276Y-876190D02*
Y-873690D01*
X-252059Y-974191D02*
X-249559D01*
X-250809Y-975441D02*
Y-972941D01*
X-572588Y-979080D02*
X-570088D01*
X-571338Y-980330D02*
Y-977830D01*
X-635580Y-979080D02*
X-633080D01*
X-634330Y-980330D02*
Y-977830D01*
X-722484Y-981876D02*
X-719984D01*
X-721234Y-983126D02*
Y-980626D01*
X-762580Y-979080D02*
X-760080D01*
X-761330Y-980330D02*
Y-977830D01*
X-279472Y-915494D02*
X-276972D01*
X-278222Y-916744D02*
Y-914244D01*
X-324938Y-901592D02*
X-322438D01*
X-323688Y-902842D02*
Y-900342D01*
X-270074Y-973660D02*
X-267574D01*
X-268824Y-974910D02*
Y-972410D01*
X-283282Y-935306D02*
X-280782D01*
X-282032Y-936556D02*
Y-934056D01*
X-313508Y-915494D02*
X-311008D01*
X-312258Y-916744D02*
Y-914244D01*
X-222576Y-994996D02*
X-220076D01*
X-221326Y-996246D02*
Y-993746D01*
X-266264Y-937678D02*
X-263764D01*
X-265014Y-938928D02*
Y-936428D01*
X-832174Y-479735D02*
X-829674D01*
X-830924Y-480985D02*
Y-478485D01*
X-832979Y-492832D02*
X-830479D01*
X-831729Y-494082D02*
Y-491582D01*
X-830777Y-504311D02*
X-828277D01*
X-829527Y-505561D02*
Y-503061D01*
X-832989Y-465746D02*
X-830489D01*
X-831739Y-466996D02*
Y-464496D01*
X-822480Y-340524D02*
X-819980D01*
X-821230Y-341774D02*
Y-339274D01*
X-815456Y-326773D02*
X-812956D01*
X-814206Y-328023D02*
Y-325523D01*
X-830170Y-380509D02*
X-827670D01*
X-828920Y-381759D02*
Y-379259D01*
X-801740Y-409094D02*
X-799240D01*
X-800490Y-410344D02*
Y-407844D01*
X-800426Y-374560D02*
X-797926D01*
X-799176Y-375810D02*
Y-373310D01*
X-847841Y-403179D02*
X-845341D01*
X-846591Y-404429D02*
Y-401929D01*
X-791282Y-556424D02*
X-788782D01*
X-790032Y-557674D02*
Y-555174D01*
X-784424Y-541946D02*
X-781924D01*
X-783174Y-543196D02*
Y-540696D01*
X-777566Y-521118D02*
X-775066D01*
X-776316Y-522368D02*
Y-519868D01*
X-754750Y-808436D02*
X-752250D01*
X-753500Y-809686D02*
Y-807186D01*
X-752474Y-500370D02*
X-749974D01*
X-751224Y-501620D02*
Y-499120D01*
X-776636Y-311054D02*
X-774136D01*
X-775386Y-312304D02*
Y-309804D01*
X-702636Y-354054D02*
X-700136D01*
X-701386Y-355304D02*
Y-352804D01*
X-702636Y-444054D02*
X-700136D01*
X-701386Y-445304D02*
Y-442804D01*
X-776636Y-444054D02*
X-774136D01*
X-775386Y-445304D02*
Y-442804D01*
X-776636Y-399054D02*
X-774136D01*
X-775386Y-400304D02*
Y-397804D01*
X-776636Y-355054D02*
X-774136D01*
X-775386Y-356304D02*
Y-353804D01*
X-702636Y-310054D02*
X-700136D01*
X-701386Y-311304D02*
Y-308804D01*
X-702636Y-399054D02*
X-700136D01*
X-701386Y-400304D02*
Y-397804D01*
X-702636Y-265054D02*
X-700136D01*
X-701386Y-266304D02*
Y-263804D01*
X-776636Y-265054D02*
X-774136D01*
X-775386Y-266304D02*
Y-263804D01*
X-776636Y-488054D02*
X-774136D01*
X-775386Y-489304D02*
Y-486804D01*
X-702636Y-488054D02*
X-700136D01*
X-701386Y-489304D02*
Y-486804D01*
X-645486Y-457105D02*
X-642986D01*
X-644236Y-458355D02*
Y-455855D01*
X-645486Y-278294D02*
X-642986D01*
X-644236Y-279544D02*
Y-277044D01*
X-645486Y-501296D02*
X-642986D01*
X-644236Y-502546D02*
Y-500046D01*
X-645486Y-412914D02*
X-642986D01*
X-644236Y-414164D02*
Y-411664D01*
X-645486Y-368935D02*
X-642986D01*
X-644236Y-370185D02*
Y-367685D01*
X-645486Y-324014D02*
X-642986D01*
X-644236Y-325264D02*
Y-322764D01*
X-637656Y-234616D02*
X-635156D01*
X-636406Y-235866D02*
Y-233366D01*
X-589098Y-751242D02*
X-586598D01*
X-587848Y-752492D02*
Y-749992D01*
X-231974Y-878496D02*
X-229474D01*
X-230724Y-879746D02*
Y-877246D01*
X-596972Y-762418D02*
X-594472D01*
X-595722Y-763668D02*
Y-761168D01*
X-648788Y-184568D02*
X-646288D01*
X-647538Y-185818D02*
Y-183318D01*
X-228672Y-865288D02*
X-226172D01*
X-227422Y-866538D02*
Y-864038D01*
X-101926Y-874940D02*
X-99426D01*
X-100676Y-876190D02*
Y-873690D01*
X-654122Y-618166D02*
X-651622D01*
X-652872Y-619416D02*
Y-616916D01*
X-670378Y-592766D02*
X-667878D01*
X-669128Y-594016D02*
Y-591516D01*
X-662250Y-630866D02*
X-659750D01*
X-661000Y-632116D02*
Y-629616D01*
X-645994Y-605466D02*
X-643494D01*
X-644744Y-606716D02*
Y-604216D01*
X-605354Y-158416D02*
X-602854D01*
X-604104Y-159666D02*
Y-157166D01*
X-613482Y-171116D02*
X-610982D01*
X-612232Y-172366D02*
Y-169866D01*
X-743530Y-757866D02*
X-741030D01*
X-742280Y-759116D02*
Y-756616D01*
X-735402Y-745166D02*
X-732902D01*
X-734152Y-746416D02*
Y-743916D01*
X-727274Y-732466D02*
X-724774D01*
X-726024Y-733716D02*
Y-731216D01*
X-524074Y-756576D02*
X-521574D01*
X-522824Y-757826D02*
Y-755326D01*
X-540330Y-756576D02*
X-537830D01*
X-539080Y-757826D02*
Y-755326D01*
X-556586Y-56816D02*
X-554086D01*
X-555336Y-58066D02*
Y-55566D01*
X-621610Y-183816D02*
X-619110D01*
X-620360Y-185066D02*
Y-182566D01*
X-629738Y-209216D02*
X-627238D01*
X-628488Y-210466D02*
Y-207966D01*
X-678506Y-630866D02*
X-676006D01*
X-677256Y-632116D02*
Y-629616D01*
X-686634Y-643566D02*
X-684134D01*
X-685384Y-644816D02*
Y-642316D01*
X-751658Y-783266D02*
X-749158D01*
X-750408Y-784516D02*
Y-782016D01*
X-694762Y-656266D02*
X-692262D01*
X-693512Y-657516D02*
Y-655016D01*
X-561158Y44784D02*
X-558658D01*
X-559908Y43534D02*
Y46034D01*
X-515946Y-31416D02*
X-513446D01*
X-514696Y-32666D02*
Y-30166D01*
X-572842Y-82216D02*
X-570342D01*
X-571592Y-83466D02*
Y-80966D01*
X-580970Y-107616D02*
X-578470D01*
X-579720Y-108866D02*
Y-106366D01*
X-589098Y-120316D02*
X-586598D01*
X-587848Y-121566D02*
Y-119066D01*
X-597226Y-133016D02*
X-594726D01*
X-595976Y-134266D02*
Y-131766D01*
X-564714Y-69516D02*
X-562214D01*
X-563464Y-70766D02*
Y-68266D01*
X-540330Y-6016D02*
X-537830D01*
X-539080Y-7266D02*
Y-4766D01*
X-532202Y6684D02*
X-529702D01*
X-530952Y5434D02*
Y7934D01*
X-524074Y19384D02*
X-521574D01*
X-522824Y18134D02*
Y20634D01*
M02*
