G04*
G04 #@! TF.GenerationSoftware,Altium Limited,Altium Designer,21.0.9 (235)*
G04*
G04 Layer_Color=255*
%FSLAX44Y44*%
%MOMM*%
G71*
G04*
G04 #@! TF.SameCoordinates,B04B5628-BEB7-489B-AFC1-9DCA5A1A145D*
G04*
G04*
G04 #@! TF.FilePolarity,Positive*
G04*
G01*
G75*
%ADD21R,1.4000X1.4000*%
%ADD22C,1.4000*%
%ADD29C,1.7780*%
%ADD30C,1.6000*%
%ADD31R,1.6000X1.6000*%
%ADD32C,1.5500*%
%ADD33R,1.5500X1.5500*%
%ADD34C,5.0000*%
D21*
X-770728Y-1025854D02*
D03*
X-707228D02*
D03*
X-643728D02*
D03*
X-580228D02*
D03*
D22*
X-770728Y-1050854D02*
D03*
Y-1075854D02*
D03*
X-707228D02*
D03*
Y-1050854D02*
D03*
X-643728Y-1075854D02*
D03*
Y-1050854D02*
D03*
X-580228Y-1075854D02*
D03*
Y-1050854D02*
D03*
D29*
X0Y-787400D02*
D03*
X-25400D02*
D03*
X-50800D02*
D03*
X-76200D02*
D03*
X-101600D02*
D03*
X-127000D02*
D03*
X-152400D02*
D03*
X-177800D02*
D03*
X-203200D02*
D03*
X0Y-812800D02*
D03*
X-228600Y-787400D02*
D03*
X-254000D02*
D03*
X-279400D02*
D03*
X-304800D02*
D03*
X-330200D02*
D03*
X-355600D02*
D03*
X-381000D02*
D03*
X-406400D02*
D03*
X-431800D02*
D03*
X-25400Y-812800D02*
D03*
X-50800D02*
D03*
X-76200D02*
D03*
X-101600D02*
D03*
X-127000D02*
D03*
X-152400D02*
D03*
X-177800D02*
D03*
X-203200D02*
D03*
X-228600D02*
D03*
X-254000D02*
D03*
X-279400D02*
D03*
X-304800D02*
D03*
X-330200D02*
D03*
X-355600D02*
D03*
X-381000D02*
D03*
X-406400D02*
D03*
X-431800D02*
D03*
X0Y-213360D02*
D03*
Y-187960D02*
D03*
Y-162560D02*
D03*
Y-137160D02*
D03*
Y-111760D02*
D03*
Y-86360D02*
D03*
Y-60960D02*
D03*
Y-35560D02*
D03*
Y-238760D02*
D03*
Y-264160D02*
D03*
Y-533400D02*
D03*
Y-558800D02*
D03*
Y-584200D02*
D03*
Y-609600D02*
D03*
Y-635000D02*
D03*
Y-660400D02*
D03*
Y-685800D02*
D03*
Y-711200D02*
D03*
Y-482600D02*
D03*
Y-457200D02*
D03*
Y-431800D02*
D03*
Y-406400D02*
D03*
Y-381000D02*
D03*
Y-355600D02*
D03*
Y-330200D02*
D03*
Y-304800D02*
D03*
X-482600D02*
D03*
Y-279400D02*
D03*
Y-254000D02*
D03*
Y-228600D02*
D03*
Y-203200D02*
D03*
Y-177800D02*
D03*
Y-152400D02*
D03*
Y-127000D02*
D03*
Y-533400D02*
D03*
Y-508000D02*
D03*
Y-482600D02*
D03*
Y-457200D02*
D03*
Y-431800D02*
D03*
Y-406400D02*
D03*
Y-381000D02*
D03*
Y-355600D02*
D03*
Y-762000D02*
D03*
Y-736600D02*
D03*
Y-711200D02*
D03*
Y-685800D02*
D03*
Y-660400D02*
D03*
Y-635000D02*
D03*
Y-609600D02*
D03*
Y-584200D02*
D03*
D30*
X-840436Y57504D02*
D03*
Y32104D02*
D03*
Y6704D02*
D03*
Y-18696D02*
D03*
Y-44096D02*
D03*
X-865836Y57504D02*
D03*
Y32104D02*
D03*
Y6704D02*
D03*
Y-18696D02*
D03*
Y-44096D02*
D03*
X-840436Y-94896D02*
D03*
Y-120296D02*
D03*
X-865836Y-94896D02*
D03*
Y-120296D02*
D03*
X-840436Y-196496D02*
D03*
X-865836D02*
D03*
Y-348896D02*
D03*
X-840436Y-323496D02*
D03*
X-865836D02*
D03*
Y-298096D02*
D03*
X-840436D02*
D03*
X-865836Y-272696D02*
D03*
X-840436D02*
D03*
X-865836Y-247296D02*
D03*
Y-221896D02*
D03*
X-840436Y-247296D02*
D03*
Y-221896D02*
D03*
X-865836Y-171096D02*
D03*
Y-145696D02*
D03*
X-840436Y-171096D02*
D03*
Y-145696D02*
D03*
X-865836Y-69496D02*
D03*
X-840436D02*
D03*
Y-516546D02*
D03*
Y-541946D02*
D03*
Y-567346D02*
D03*
Y-592746D02*
D03*
Y-618146D02*
D03*
X-865836Y-516546D02*
D03*
Y-541946D02*
D03*
Y-567346D02*
D03*
Y-592746D02*
D03*
Y-618146D02*
D03*
X-840436Y-668946D02*
D03*
Y-694346D02*
D03*
X-865836Y-668946D02*
D03*
Y-694346D02*
D03*
X-840436Y-770546D02*
D03*
X-865836D02*
D03*
Y-922946D02*
D03*
X-840436Y-897546D02*
D03*
X-865836D02*
D03*
Y-872146D02*
D03*
X-840436D02*
D03*
X-865836Y-846746D02*
D03*
X-840436D02*
D03*
X-865836Y-821346D02*
D03*
Y-795946D02*
D03*
X-840436Y-821346D02*
D03*
Y-795946D02*
D03*
X-865836Y-745146D02*
D03*
Y-719746D02*
D03*
X-840436Y-745146D02*
D03*
Y-719746D02*
D03*
X-865836Y-643546D02*
D03*
X-840436D02*
D03*
D31*
Y-348896D02*
D03*
Y-922946D02*
D03*
D32*
X-229100Y-484000D02*
D03*
X-254500D02*
D03*
X-203700Y-509400D02*
D03*
X-254500D02*
D03*
X-229100D02*
D03*
D33*
X-203700Y-484000D02*
D03*
D34*
X0Y0D02*
D03*
X-431000Y-508000D02*
D03*
X-152000D02*
D03*
X-781726Y77316D02*
D03*
X38274Y-1072684D02*
D03*
X-841726D02*
D03*
X-482600Y-812800D02*
D03*
X0Y-749300D02*
D03*
M02*
