G04*
G04 #@! TF.GenerationSoftware,Altium Limited,Altium Designer,21.0.9 (235)*
G04*
G04 Layer_Physical_Order=2*
G04 Layer_Color=16711680*
%FSLAX44Y44*%
%MOMM*%
G71*
G04*
G04 #@! TF.SameCoordinates,B04B5628-BEB7-489B-AFC1-9DCA5A1A145D*
G04*
G04*
G04 #@! TF.FilePolarity,Positive*
G04*
G01*
G75*
%ADD11C,0.2540*%
%ADD13C,0.5080*%
%ADD21R,1.4000X1.4000*%
%ADD22C,1.4000*%
%ADD29C,1.7780*%
%ADD30C,1.6000*%
%ADD31R,1.6000X1.6000*%
%ADD32C,1.5500*%
%ADD33R,1.5500X1.5500*%
%ADD34C,5.0000*%
%ADD35C,0.5500*%
%ADD36C,0.3810*%
G36*
X-518385Y111775D02*
Y24307D01*
X-519655Y23628D01*
X-520760Y24367D01*
X-522824Y24778D01*
X-524888Y24367D01*
X-526638Y23198D01*
X-527807Y21448D01*
X-528218Y19384D01*
X-527807Y17320D01*
X-526709Y15676D01*
Y11738D01*
X-527979Y11059D01*
X-528888Y11667D01*
X-530952Y12078D01*
X-533016Y11667D01*
X-534766Y10498D01*
X-535935Y8748D01*
X-536346Y6684D01*
X-535935Y4620D01*
X-534837Y2976D01*
Y-962D01*
X-536107Y-1640D01*
X-537016Y-1033D01*
X-539080Y-622D01*
X-541144Y-1033D01*
X-542054Y-1641D01*
X-543324Y-962D01*
Y32083D01*
X-543323Y32084D01*
X-543619Y33571D01*
X-544461Y34831D01*
X-554539Y44909D01*
X-554925Y46848D01*
X-556094Y48598D01*
X-557844Y49767D01*
X-559908Y50178D01*
X-561972Y49767D01*
X-563722Y48598D01*
X-564891Y46848D01*
X-565302Y44784D01*
X-564891Y42720D01*
X-563722Y40970D01*
X-561972Y39801D01*
X-560033Y39415D01*
X-551093Y30475D01*
Y-51761D01*
X-552363Y-52440D01*
X-553272Y-51833D01*
X-555336Y-51422D01*
X-557400Y-51833D01*
X-559150Y-53002D01*
X-560319Y-54752D01*
X-560730Y-56816D01*
X-560319Y-58880D01*
X-559221Y-60524D01*
Y-64462D01*
X-560491Y-65141D01*
X-561400Y-64533D01*
X-563464Y-64122D01*
X-565528Y-64533D01*
X-567278Y-65702D01*
X-568447Y-67452D01*
X-568858Y-69516D01*
X-568447Y-71580D01*
X-567349Y-73224D01*
Y-77162D01*
X-568619Y-77840D01*
X-569528Y-77233D01*
X-571592Y-76822D01*
X-573656Y-77233D01*
X-575406Y-78402D01*
X-576575Y-80152D01*
X-576986Y-82216D01*
X-576575Y-84280D01*
X-575477Y-85924D01*
Y-102562D01*
X-576747Y-103240D01*
X-577656Y-102633D01*
X-579720Y-102222D01*
X-581784Y-102633D01*
X-583534Y-103802D01*
X-584703Y-105552D01*
X-585114Y-107616D01*
X-584703Y-109680D01*
X-583605Y-111324D01*
Y-115262D01*
X-584875Y-115941D01*
X-585784Y-115333D01*
X-587848Y-114922D01*
X-589912Y-115333D01*
X-591662Y-116502D01*
X-592831Y-118252D01*
X-593242Y-120316D01*
X-592831Y-122380D01*
X-591733Y-124024D01*
Y-127962D01*
X-593003Y-128640D01*
X-593912Y-128033D01*
X-595976Y-127622D01*
X-598040Y-128033D01*
X-599790Y-129202D01*
X-600959Y-130952D01*
X-601370Y-133016D01*
X-600959Y-135080D01*
X-599790Y-136830D01*
X-599607Y-136952D01*
Y-153531D01*
X-600877Y-154210D01*
X-602040Y-153433D01*
X-604104Y-153022D01*
X-606168Y-153433D01*
X-607918Y-154602D01*
X-609087Y-156352D01*
X-609498Y-158416D01*
X-609087Y-160480D01*
X-607989Y-162124D01*
Y-166062D01*
X-609259Y-166740D01*
X-610168Y-166133D01*
X-612232Y-165722D01*
X-614296Y-166133D01*
X-616046Y-167302D01*
X-617215Y-169052D01*
X-617626Y-171116D01*
X-617215Y-173180D01*
X-616117Y-174824D01*
Y-178762D01*
X-617387Y-179440D01*
X-618296Y-178833D01*
X-620360Y-178422D01*
X-622424Y-178833D01*
X-624174Y-180002D01*
X-625343Y-181752D01*
X-625754Y-183816D01*
X-625343Y-185880D01*
X-624245Y-187524D01*
Y-204162D01*
X-625515Y-204841D01*
X-626424Y-204233D01*
X-628488Y-203822D01*
X-630552Y-204233D01*
X-632302Y-205402D01*
X-633471Y-207152D01*
X-633882Y-209216D01*
X-633471Y-211280D01*
X-632373Y-212924D01*
Y-229421D01*
X-633643Y-230100D01*
X-634342Y-229633D01*
X-636406Y-229222D01*
X-638434Y-229626D01*
X-638662Y-229661D01*
X-639704Y-228946D01*
Y-214736D01*
Y-188328D01*
X-639704Y-188327D01*
X-640049Y-186593D01*
X-641031Y-185123D01*
X-641031Y-185123D01*
X-642283Y-183871D01*
X-642555Y-182504D01*
X-643724Y-180754D01*
X-645474Y-179585D01*
X-647538Y-179174D01*
X-649602Y-179585D01*
X-651246Y-180683D01*
X-802139D01*
X-820945Y-161877D01*
Y41898D01*
X-821241Y43385D01*
X-822083Y44645D01*
X-830760Y53322D01*
X-830167Y54752D01*
X-829805Y57504D01*
X-830167Y60255D01*
X-831229Y62819D01*
X-832919Y65021D01*
X-835121Y66711D01*
X-837684Y67773D01*
X-840436Y68135D01*
X-843187Y67773D01*
X-845751Y66711D01*
X-847953Y65021D01*
X-849643Y62819D01*
X-850705Y60255D01*
X-851067Y57504D01*
X-850705Y54752D01*
X-850112Y53322D01*
X-856025Y47409D01*
X-856867Y46149D01*
X-857163Y44662D01*
Y40014D01*
X-857515Y39894D01*
X-858433Y39709D01*
X-860521Y41311D01*
X-863084Y42373D01*
X-865836Y42735D01*
X-868587Y42373D01*
X-871152Y41311D01*
X-873353Y39621D01*
X-875043Y37420D01*
X-876105Y34855D01*
X-876467Y32104D01*
X-876105Y29353D01*
X-875043Y26788D01*
X-873353Y24587D01*
X-871152Y22897D01*
X-868587Y21835D01*
X-865836Y21473D01*
X-863084Y21835D01*
X-860521Y22897D01*
X-858433Y24499D01*
X-857515Y24314D01*
X-857163Y24194D01*
Y14614D01*
X-857515Y14494D01*
X-858433Y14309D01*
X-860521Y15911D01*
X-863084Y16973D01*
X-864566Y17168D01*
Y6704D01*
X-865836D01*
D01*
X-864566D01*
Y-3760D01*
X-863084Y-3565D01*
X-860521Y-2503D01*
X-858433Y-901D01*
X-857515Y-1086D01*
X-857163Y-1206D01*
Y-10786D01*
X-857515Y-10906D01*
X-858433Y-11091D01*
X-860521Y-9489D01*
X-863084Y-8427D01*
X-864566Y-8232D01*
Y-18696D01*
Y-29160D01*
X-863084Y-28965D01*
X-860521Y-27903D01*
X-858433Y-26301D01*
X-857515Y-26486D01*
X-857163Y-26606D01*
Y-36186D01*
X-857515Y-36306D01*
X-858433Y-36491D01*
X-860521Y-34889D01*
X-863084Y-33827D01*
X-865836Y-33465D01*
X-868587Y-33827D01*
X-871152Y-34889D01*
X-873353Y-36579D01*
X-875043Y-38781D01*
X-876105Y-41344D01*
X-876467Y-44096D01*
X-876105Y-46848D01*
X-875043Y-49412D01*
X-873353Y-51613D01*
X-871152Y-53303D01*
X-868587Y-54365D01*
X-865836Y-54727D01*
X-863084Y-54365D01*
X-860521Y-53303D01*
X-858433Y-51701D01*
X-857515Y-51886D01*
X-857163Y-52006D01*
Y-61586D01*
X-857515Y-61706D01*
X-858433Y-61891D01*
X-860521Y-60289D01*
X-863084Y-59227D01*
X-864566Y-59032D01*
Y-69496D01*
Y-79960D01*
X-863084Y-79765D01*
X-860521Y-78703D01*
X-858433Y-77101D01*
X-857515Y-77286D01*
X-857163Y-77406D01*
Y-86986D01*
X-857515Y-87106D01*
X-858433Y-87291D01*
X-860521Y-85689D01*
X-863084Y-84627D01*
X-865836Y-84265D01*
X-868587Y-84627D01*
X-871152Y-85689D01*
X-873353Y-87379D01*
X-875043Y-89580D01*
X-876105Y-92144D01*
X-876467Y-94896D01*
X-876105Y-97647D01*
X-875043Y-100211D01*
X-873353Y-102413D01*
X-871152Y-104103D01*
X-868587Y-105165D01*
X-865836Y-105527D01*
X-863084Y-105165D01*
X-860521Y-104103D01*
X-858433Y-102501D01*
X-857515Y-102686D01*
X-857163Y-102806D01*
Y-112386D01*
X-857515Y-112506D01*
X-858433Y-112691D01*
X-860521Y-111089D01*
X-863084Y-110027D01*
X-864566Y-109832D01*
Y-120296D01*
X-865836D01*
D01*
X-864566D01*
Y-130760D01*
X-863084Y-130565D01*
X-860521Y-129503D01*
X-858433Y-127901D01*
X-857515Y-128086D01*
X-857163Y-128206D01*
Y-137786D01*
X-857515Y-137906D01*
X-858433Y-138091D01*
X-860521Y-136489D01*
X-863084Y-135427D01*
X-865836Y-135065D01*
X-868587Y-135427D01*
X-871152Y-136489D01*
X-873353Y-138179D01*
X-875043Y-140380D01*
X-876105Y-142944D01*
X-876467Y-145696D01*
X-876105Y-148448D01*
X-875043Y-151011D01*
X-873353Y-153213D01*
X-871152Y-154903D01*
X-868587Y-155965D01*
X-865836Y-156327D01*
X-863084Y-155965D01*
X-860521Y-154903D01*
X-858433Y-153301D01*
X-857515Y-153486D01*
X-857163Y-153606D01*
Y-163186D01*
X-857515Y-163306D01*
X-858433Y-163491D01*
X-860521Y-161889D01*
X-863084Y-160827D01*
X-864566Y-160632D01*
Y-171096D01*
Y-181560D01*
X-863084Y-181365D01*
X-860521Y-180303D01*
X-858433Y-178701D01*
X-857515Y-178886D01*
X-857163Y-179006D01*
Y-188586D01*
X-857515Y-188706D01*
X-858433Y-188891D01*
X-860521Y-187289D01*
X-863084Y-186227D01*
X-865836Y-185865D01*
X-868587Y-186227D01*
X-871152Y-187289D01*
X-873353Y-188979D01*
X-875043Y-191180D01*
X-876105Y-193745D01*
X-876467Y-196496D01*
X-876105Y-199247D01*
X-875043Y-201812D01*
X-873353Y-204013D01*
X-871152Y-205703D01*
X-868587Y-206765D01*
X-865836Y-207127D01*
X-863084Y-206765D01*
X-860521Y-205703D01*
X-858433Y-204101D01*
X-857515Y-204286D01*
X-857163Y-204406D01*
Y-213986D01*
X-857515Y-214106D01*
X-858433Y-214291D01*
X-860521Y-212689D01*
X-863084Y-211627D01*
X-864566Y-211432D01*
Y-221896D01*
Y-232360D01*
X-863084Y-232165D01*
X-860521Y-231103D01*
X-858433Y-229501D01*
X-857515Y-229686D01*
X-857163Y-229806D01*
Y-239386D01*
X-857515Y-239506D01*
X-858433Y-239691D01*
X-860521Y-238089D01*
X-863084Y-237027D01*
X-865836Y-236665D01*
X-868587Y-237027D01*
X-871152Y-238089D01*
X-873353Y-239779D01*
X-875043Y-241980D01*
X-876105Y-244545D01*
X-876467Y-247296D01*
X-876105Y-250047D01*
X-875043Y-252612D01*
X-873353Y-254813D01*
X-871152Y-256503D01*
X-868587Y-257565D01*
X-865836Y-257927D01*
X-863084Y-257565D01*
X-860521Y-256503D01*
X-858433Y-254901D01*
X-857515Y-255086D01*
X-857163Y-255206D01*
Y-264786D01*
X-857515Y-264906D01*
X-858433Y-265091D01*
X-860521Y-263489D01*
X-863084Y-262427D01*
X-864566Y-262232D01*
Y-272696D01*
Y-283160D01*
X-863084Y-282965D01*
X-860521Y-281903D01*
X-858433Y-280301D01*
X-857515Y-280486D01*
X-857163Y-280606D01*
Y-290186D01*
X-857515Y-290306D01*
X-858433Y-290491D01*
X-860521Y-288889D01*
X-863084Y-287827D01*
X-864566Y-287632D01*
Y-298096D01*
Y-308560D01*
X-863084Y-308365D01*
X-860521Y-307303D01*
X-858433Y-305701D01*
X-857515Y-305886D01*
X-857163Y-306006D01*
Y-315586D01*
X-857515Y-315706D01*
X-858433Y-315891D01*
X-860521Y-314289D01*
X-863084Y-313227D01*
X-865836Y-312865D01*
X-868587Y-313227D01*
X-871152Y-314289D01*
X-873353Y-315979D01*
X-875043Y-318181D01*
X-876105Y-320745D01*
X-876467Y-323496D01*
X-876105Y-326247D01*
X-875043Y-328811D01*
X-873353Y-331013D01*
X-871152Y-332703D01*
X-868587Y-333765D01*
X-865836Y-334127D01*
X-863084Y-333765D01*
X-860521Y-332703D01*
X-858433Y-331101D01*
X-857515Y-331286D01*
X-857163Y-331406D01*
Y-340986D01*
X-857515Y-341106D01*
X-858433Y-341291D01*
X-860521Y-339689D01*
X-863084Y-338627D01*
X-865836Y-338265D01*
X-868587Y-338627D01*
X-871152Y-339689D01*
X-873353Y-341379D01*
X-875043Y-343581D01*
X-876105Y-346144D01*
X-876467Y-348896D01*
X-876105Y-351647D01*
X-875043Y-354212D01*
X-873353Y-356413D01*
X-871152Y-358103D01*
X-868587Y-359165D01*
X-865836Y-359527D01*
X-863084Y-359165D01*
X-860521Y-358103D01*
X-858433Y-356501D01*
X-857515Y-356686D01*
X-857163Y-356806D01*
Y-503704D01*
X-856867Y-505191D01*
X-856025Y-506451D01*
X-850112Y-512364D01*
X-850705Y-513795D01*
X-851067Y-516546D01*
X-850705Y-519297D01*
X-849643Y-521861D01*
X-847953Y-524063D01*
X-845751Y-525753D01*
X-843187Y-526815D01*
X-840436Y-527177D01*
X-837684Y-526815D01*
X-835121Y-525753D01*
X-832919Y-524063D01*
X-831509Y-522225D01*
X-830239Y-522657D01*
Y-535835D01*
X-831509Y-536267D01*
X-832919Y-534429D01*
X-835121Y-532739D01*
X-837684Y-531677D01*
X-840436Y-531315D01*
X-843187Y-531677D01*
X-845751Y-532739D01*
X-847953Y-534429D01*
X-849643Y-536631D01*
X-850705Y-539194D01*
X-851067Y-541946D01*
X-850705Y-544697D01*
X-849643Y-547262D01*
X-847953Y-549463D01*
X-845751Y-551153D01*
X-843187Y-552215D01*
X-840436Y-552577D01*
X-837684Y-552215D01*
X-835121Y-551153D01*
X-832919Y-549463D01*
X-831509Y-547626D01*
X-830239Y-548057D01*
Y-561235D01*
X-831509Y-561666D01*
X-832919Y-559829D01*
X-835121Y-558139D01*
X-837684Y-557077D01*
X-840436Y-556715D01*
X-843187Y-557077D01*
X-845751Y-558139D01*
X-847953Y-559829D01*
X-849643Y-562030D01*
X-850705Y-564594D01*
X-851067Y-567346D01*
X-850705Y-570098D01*
X-849643Y-572662D01*
X-847953Y-574863D01*
X-845751Y-576553D01*
X-843187Y-577615D01*
X-840436Y-577977D01*
X-837684Y-577615D01*
X-835121Y-576553D01*
X-832919Y-574863D01*
X-831509Y-573026D01*
X-830239Y-573457D01*
Y-586635D01*
X-831509Y-587066D01*
X-832919Y-585229D01*
X-835121Y-583539D01*
X-837684Y-582477D01*
X-840436Y-582115D01*
X-843187Y-582477D01*
X-845751Y-583539D01*
X-847953Y-585229D01*
X-849643Y-587430D01*
X-850705Y-589995D01*
X-851067Y-592746D01*
X-850705Y-595498D01*
X-849643Y-598061D01*
X-847953Y-600263D01*
X-845751Y-601953D01*
X-843187Y-603015D01*
X-840436Y-603377D01*
X-837684Y-603015D01*
X-835121Y-601953D01*
X-832919Y-600263D01*
X-831509Y-598425D01*
X-830239Y-598857D01*
Y-612035D01*
X-831509Y-612467D01*
X-832919Y-610629D01*
X-835121Y-608939D01*
X-837684Y-607877D01*
X-840436Y-607515D01*
X-843187Y-607877D01*
X-845751Y-608939D01*
X-847953Y-610629D01*
X-849643Y-612831D01*
X-850705Y-615395D01*
X-851067Y-618146D01*
X-850705Y-620897D01*
X-849643Y-623461D01*
X-847953Y-625663D01*
X-845751Y-627353D01*
X-843187Y-628415D01*
X-840436Y-628777D01*
X-837684Y-628415D01*
X-835121Y-627353D01*
X-832919Y-625663D01*
X-831509Y-623825D01*
X-830239Y-624257D01*
Y-637435D01*
X-831509Y-637867D01*
X-832919Y-636029D01*
X-835121Y-634339D01*
X-837684Y-633277D01*
X-840436Y-632915D01*
X-843187Y-633277D01*
X-845751Y-634339D01*
X-847953Y-636029D01*
X-849643Y-638231D01*
X-850705Y-640795D01*
X-851067Y-643546D01*
X-850705Y-646298D01*
X-849643Y-648861D01*
X-847953Y-651063D01*
X-845751Y-652753D01*
X-843187Y-653815D01*
X-840436Y-654177D01*
X-837684Y-653815D01*
X-835121Y-652753D01*
X-832919Y-651063D01*
X-831509Y-649225D01*
X-830239Y-649657D01*
Y-662835D01*
X-831509Y-663267D01*
X-832919Y-661429D01*
X-835121Y-659739D01*
X-837684Y-658677D01*
X-840436Y-658315D01*
X-843187Y-658677D01*
X-845751Y-659739D01*
X-847953Y-661429D01*
X-849643Y-663631D01*
X-850705Y-666195D01*
X-851067Y-668946D01*
X-850705Y-671697D01*
X-849643Y-674261D01*
X-847953Y-676463D01*
X-845751Y-678153D01*
X-843187Y-679215D01*
X-840436Y-679577D01*
X-837684Y-679215D01*
X-835121Y-678153D01*
X-832919Y-676463D01*
X-831509Y-674625D01*
X-830239Y-675057D01*
Y-688235D01*
X-831509Y-688667D01*
X-832919Y-686829D01*
X-835121Y-685139D01*
X-837684Y-684077D01*
X-840436Y-683715D01*
X-843187Y-684077D01*
X-845751Y-685139D01*
X-847953Y-686829D01*
X-849643Y-689031D01*
X-850705Y-691594D01*
X-851067Y-694346D01*
X-850705Y-697097D01*
X-849643Y-699661D01*
X-847953Y-701863D01*
X-845751Y-703553D01*
X-843187Y-704615D01*
X-840436Y-704977D01*
X-837684Y-704615D01*
X-835121Y-703553D01*
X-832919Y-701863D01*
X-831509Y-700025D01*
X-830239Y-700457D01*
Y-713635D01*
X-831509Y-714066D01*
X-832919Y-712229D01*
X-835121Y-710539D01*
X-837684Y-709477D01*
X-840436Y-709115D01*
X-843187Y-709477D01*
X-845751Y-710539D01*
X-847953Y-712229D01*
X-849643Y-714430D01*
X-850705Y-716994D01*
X-851067Y-719746D01*
X-850705Y-722497D01*
X-849643Y-725061D01*
X-847953Y-727263D01*
X-845751Y-728953D01*
X-843187Y-730015D01*
X-840436Y-730377D01*
X-837684Y-730015D01*
X-835121Y-728953D01*
X-832919Y-727263D01*
X-831509Y-725425D01*
X-830239Y-725857D01*
Y-739035D01*
X-831509Y-739466D01*
X-832919Y-737629D01*
X-835121Y-735939D01*
X-837684Y-734877D01*
X-840436Y-734515D01*
X-843187Y-734877D01*
X-845751Y-735939D01*
X-847953Y-737629D01*
X-849643Y-739830D01*
X-850705Y-742394D01*
X-851067Y-745146D01*
X-850705Y-747897D01*
X-849643Y-750462D01*
X-847953Y-752663D01*
X-845751Y-754353D01*
X-843187Y-755415D01*
X-840436Y-755777D01*
X-837684Y-755415D01*
X-835121Y-754353D01*
X-832919Y-752663D01*
X-831509Y-750826D01*
X-830239Y-751257D01*
Y-764435D01*
X-831509Y-764866D01*
X-832919Y-763029D01*
X-835121Y-761339D01*
X-837684Y-760277D01*
X-840436Y-759915D01*
X-843187Y-760277D01*
X-845751Y-761339D01*
X-847953Y-763029D01*
X-849643Y-765230D01*
X-850705Y-767794D01*
X-851067Y-770546D01*
X-850705Y-773298D01*
X-849643Y-775862D01*
X-847953Y-778063D01*
X-845751Y-779753D01*
X-843187Y-780815D01*
X-840436Y-781177D01*
X-837684Y-780815D01*
X-835121Y-779753D01*
X-832919Y-778063D01*
X-831509Y-776226D01*
X-830239Y-776657D01*
Y-789835D01*
X-831509Y-790266D01*
X-832919Y-788429D01*
X-835121Y-786739D01*
X-837684Y-785677D01*
X-840436Y-785315D01*
X-843187Y-785677D01*
X-845751Y-786739D01*
X-847953Y-788429D01*
X-849643Y-790630D01*
X-850705Y-793195D01*
X-851067Y-795946D01*
X-850705Y-798698D01*
X-849643Y-801262D01*
X-847953Y-803463D01*
X-845751Y-805153D01*
X-843187Y-806215D01*
X-840436Y-806577D01*
X-837684Y-806215D01*
X-835121Y-805153D01*
X-832919Y-803463D01*
X-831509Y-801626D01*
X-830239Y-802057D01*
Y-805655D01*
X-836254Y-811670D01*
X-837684Y-811077D01*
X-840436Y-810715D01*
X-843187Y-811077D01*
X-845751Y-812139D01*
X-847953Y-813829D01*
X-849643Y-816031D01*
X-850705Y-818595D01*
X-851067Y-821346D01*
X-850705Y-824098D01*
X-849643Y-826662D01*
X-847953Y-828863D01*
X-845751Y-830553D01*
X-843187Y-831615D01*
X-840436Y-831977D01*
X-837684Y-831615D01*
X-835121Y-830553D01*
X-832919Y-828863D01*
X-831229Y-826662D01*
X-830167Y-824098D01*
X-829805Y-821346D01*
X-830167Y-818595D01*
X-830760Y-817164D01*
X-826332Y-812736D01*
X-825159Y-813222D01*
Y-825975D01*
X-836254Y-837070D01*
X-837684Y-836477D01*
X-840436Y-836115D01*
X-843187Y-836477D01*
X-845751Y-837539D01*
X-847953Y-839229D01*
X-849643Y-841431D01*
X-850705Y-843995D01*
X-851067Y-846746D01*
X-850705Y-849498D01*
X-849643Y-852061D01*
X-847953Y-854263D01*
X-845751Y-855953D01*
X-843187Y-857015D01*
X-840436Y-857377D01*
X-837684Y-857015D01*
X-835121Y-855953D01*
X-832919Y-854263D01*
X-831229Y-852061D01*
X-830167Y-849498D01*
X-829805Y-846746D01*
X-830167Y-843995D01*
X-830760Y-842564D01*
X-821252Y-833056D01*
X-820079Y-833542D01*
Y-846295D01*
X-836254Y-862470D01*
X-837684Y-861877D01*
X-840436Y-861515D01*
X-843187Y-861877D01*
X-845751Y-862939D01*
X-847953Y-864629D01*
X-849643Y-866831D01*
X-850705Y-869395D01*
X-851067Y-872146D01*
X-850705Y-874898D01*
X-849643Y-877461D01*
X-847953Y-879663D01*
X-845751Y-881353D01*
X-843187Y-882415D01*
X-840436Y-882777D01*
X-837684Y-882415D01*
X-835121Y-881353D01*
X-832919Y-879663D01*
X-831229Y-877461D01*
X-830167Y-874898D01*
X-829805Y-872146D01*
X-830167Y-869395D01*
X-830760Y-867964D01*
X-815918Y-853122D01*
X-814745Y-853608D01*
Y-866361D01*
X-836254Y-887870D01*
X-837684Y-887277D01*
X-840436Y-886915D01*
X-843187Y-887277D01*
X-845751Y-888339D01*
X-847953Y-890029D01*
X-849643Y-892231D01*
X-850705Y-894794D01*
X-851067Y-897546D01*
X-850705Y-900297D01*
X-849643Y-902861D01*
X-847953Y-905063D01*
X-845751Y-906753D01*
X-843187Y-907815D01*
X-840436Y-908177D01*
X-837684Y-907815D01*
X-835121Y-906753D01*
X-832919Y-905063D01*
X-831229Y-902861D01*
X-830167Y-900297D01*
X-829805Y-897546D01*
X-830167Y-894794D01*
X-830760Y-893364D01*
X-810584Y-873188D01*
X-809411Y-873674D01*
Y-934884D01*
X-809115Y-936371D01*
X-808273Y-937631D01*
X-766699Y-979205D01*
X-766313Y-981144D01*
X-765144Y-982894D01*
X-763394Y-984063D01*
X-761330Y-984474D01*
X-759266Y-984063D01*
X-757516Y-982894D01*
X-756347Y-981144D01*
X-755936Y-979080D01*
X-756347Y-977016D01*
X-757516Y-975266D01*
X-759266Y-974097D01*
X-761205Y-973711D01*
X-801641Y-933275D01*
Y-930437D01*
X-800490Y-930042D01*
X-800371Y-930039D01*
X-745787Y-984623D01*
X-744527Y-985465D01*
X-743040Y-985761D01*
X-724942D01*
X-723298Y-986859D01*
X-721234Y-987270D01*
X-719170Y-986859D01*
X-717420Y-985690D01*
X-716251Y-983940D01*
X-715840Y-981876D01*
X-716251Y-979812D01*
X-717049Y-978618D01*
X-716377Y-977348D01*
X-641556D01*
X-639699Y-979205D01*
X-639313Y-981144D01*
X-638144Y-982894D01*
X-636394Y-984063D01*
X-634330Y-984474D01*
X-632266Y-984063D01*
X-630516Y-982894D01*
X-629347Y-981144D01*
X-628936Y-979080D01*
X-629347Y-977016D01*
X-630516Y-975266D01*
X-632266Y-974097D01*
X-634205Y-973711D01*
X-636636Y-971281D01*
X-636110Y-970011D01*
X-585901D01*
X-576707Y-979205D01*
X-576321Y-981144D01*
X-575152Y-982894D01*
X-573402Y-984063D01*
X-571338Y-984474D01*
X-569274Y-984063D01*
X-567524Y-982894D01*
X-566355Y-981144D01*
X-566209Y-980412D01*
X-564831Y-979994D01*
X-563817Y-981007D01*
Y-1027119D01*
X-569515Y-1032816D01*
X-570688Y-1032330D01*
Y-1027124D01*
X-578958D01*
Y-1035394D01*
X-573752D01*
X-573266Y-1036567D01*
X-578198Y-1041499D01*
X-580228Y-1041232D01*
X-582718Y-1041560D01*
X-585039Y-1042521D01*
X-587032Y-1044050D01*
X-588279Y-1045675D01*
X-635677D01*
X-636924Y-1044050D01*
X-638917Y-1042521D01*
X-641238Y-1041560D01*
X-643728Y-1041232D01*
X-646218Y-1041560D01*
X-648539Y-1042521D01*
X-650532Y-1044050D01*
X-651778Y-1045675D01*
X-699177D01*
X-700424Y-1044050D01*
X-702417Y-1042521D01*
X-704738Y-1041560D01*
X-707228Y-1041232D01*
X-709718Y-1041560D01*
X-712039Y-1042521D01*
X-714032Y-1044050D01*
X-715278Y-1045675D01*
X-762678D01*
X-763924Y-1044050D01*
X-765917Y-1042521D01*
X-768238Y-1041560D01*
X-770728Y-1041232D01*
X-772758Y-1041499D01*
X-777690Y-1036567D01*
X-777204Y-1035394D01*
X-771998D01*
Y-1027124D01*
X-780268D01*
Y-1032330D01*
X-781441Y-1032816D01*
X-835257Y-979001D01*
Y-933486D01*
X-829896D01*
Y-912406D01*
X-850976D01*
Y-933486D01*
X-845615D01*
Y-981146D01*
X-845221Y-983128D01*
X-844099Y-984809D01*
X-780083Y-1048824D01*
X-780350Y-1050854D01*
X-780022Y-1053345D01*
X-779061Y-1055665D01*
X-777532Y-1057658D01*
X-775539Y-1059187D01*
X-773218Y-1060149D01*
X-770728Y-1060476D01*
X-768238Y-1060149D01*
X-765917Y-1059187D01*
X-763924Y-1057658D01*
X-762678Y-1056034D01*
X-715278D01*
X-714032Y-1057658D01*
X-712039Y-1059187D01*
X-709718Y-1060149D01*
X-707228Y-1060476D01*
X-704738Y-1060149D01*
X-702417Y-1059187D01*
X-700424Y-1057658D01*
X-699177Y-1056034D01*
X-651778D01*
X-650532Y-1057658D01*
X-648539Y-1059187D01*
X-646218Y-1060149D01*
X-643728Y-1060476D01*
X-641238Y-1060149D01*
X-638917Y-1059187D01*
X-636924Y-1057658D01*
X-635677Y-1056034D01*
X-588279D01*
X-587032Y-1057658D01*
X-585039Y-1059187D01*
X-582718Y-1060149D01*
X-580228Y-1060476D01*
X-577738Y-1060149D01*
X-575417Y-1059187D01*
X-573424Y-1057658D01*
X-571895Y-1055665D01*
X-570934Y-1053345D01*
X-570606Y-1050854D01*
X-570873Y-1048824D01*
X-554976Y-1032927D01*
X-554976Y-1032927D01*
X-553853Y-1031246D01*
X-553459Y-1029264D01*
X-553459Y-1029264D01*
Y-980502D01*
X-552188Y-979976D01*
X-540981Y-991183D01*
X-534421Y-997743D01*
X-533161Y-998585D01*
X-531675Y-998881D01*
X-225034D01*
X-223390Y-999979D01*
X-221326Y-1000390D01*
X-219262Y-999979D01*
X-217512Y-998810D01*
X-216343Y-997060D01*
X-215932Y-994996D01*
X-216212Y-993591D01*
X-215340Y-992321D01*
X-201036D01*
X-199549Y-992025D01*
X-198289Y-991183D01*
X-30264Y-823157D01*
X-28384Y-823936D01*
X-25400Y-824329D01*
X-22416Y-823936D01*
X-19636Y-822784D01*
X-17248Y-820952D01*
X-15416Y-818564D01*
X-14264Y-815784D01*
X-13871Y-812800D01*
X-14264Y-809816D01*
X-15416Y-807036D01*
X-17248Y-804648D01*
X-19636Y-802816D01*
X-22416Y-801664D01*
X-25400Y-801271D01*
X-28384Y-801664D01*
X-31164Y-802816D01*
X-32945Y-804183D01*
X-34215Y-803556D01*
Y-801709D01*
X-30264Y-797757D01*
X-28384Y-798536D01*
X-25400Y-798929D01*
X-22416Y-798536D01*
X-19636Y-797384D01*
X-17248Y-795552D01*
X-15416Y-793164D01*
X-14264Y-790384D01*
X-13871Y-787400D01*
X-14264Y-784416D01*
X-15416Y-781636D01*
X-17248Y-779248D01*
X-19636Y-777416D01*
X-22416Y-776264D01*
X-25400Y-775871D01*
X-28384Y-776264D01*
X-31164Y-777416D01*
X-33552Y-779248D01*
X-35384Y-781636D01*
X-36536Y-784416D01*
X-36929Y-787400D01*
X-36536Y-790384D01*
X-35757Y-792263D01*
X-40847Y-797353D01*
X-41689Y-798613D01*
X-41985Y-800100D01*
Y-803556D01*
X-43255Y-804183D01*
X-45036Y-802816D01*
X-47816Y-801664D01*
X-50800Y-801271D01*
X-53784Y-801664D01*
X-56564Y-802816D01*
X-58345Y-804183D01*
X-59615Y-803556D01*
Y-801709D01*
X-55663Y-797757D01*
X-53784Y-798536D01*
X-50800Y-798929D01*
X-47816Y-798536D01*
X-45036Y-797384D01*
X-42648Y-795552D01*
X-40816Y-793164D01*
X-39664Y-790384D01*
X-39271Y-787400D01*
X-39664Y-784416D01*
X-40816Y-781636D01*
X-42648Y-779248D01*
X-45036Y-777416D01*
X-47816Y-776264D01*
X-50800Y-775871D01*
X-53784Y-776264D01*
X-56564Y-777416D01*
X-58952Y-779248D01*
X-60784Y-781636D01*
X-61936Y-784416D01*
X-62329Y-787400D01*
X-61936Y-790384D01*
X-61157Y-792263D01*
X-66247Y-797353D01*
X-67089Y-798613D01*
X-67385Y-800100D01*
Y-803556D01*
X-68655Y-804183D01*
X-70436Y-802816D01*
X-73216Y-801664D01*
X-76200Y-801271D01*
X-79184Y-801664D01*
X-81964Y-802816D01*
X-83745Y-804183D01*
X-85015Y-803556D01*
Y-801709D01*
X-81063Y-797757D01*
X-79184Y-798536D01*
X-76200Y-798929D01*
X-73216Y-798536D01*
X-70436Y-797384D01*
X-68048Y-795552D01*
X-66216Y-793164D01*
X-65064Y-790384D01*
X-64671Y-787400D01*
X-65064Y-784416D01*
X-66216Y-781636D01*
X-68048Y-779248D01*
X-70436Y-777416D01*
X-73216Y-776264D01*
X-76200Y-775871D01*
X-79184Y-776264D01*
X-81964Y-777416D01*
X-84352Y-779248D01*
X-86184Y-781636D01*
X-87336Y-784416D01*
X-87729Y-787400D01*
X-87336Y-790384D01*
X-86557Y-792263D01*
X-91647Y-797353D01*
X-92489Y-798613D01*
X-92785Y-800100D01*
Y-803556D01*
X-94055Y-804183D01*
X-95836Y-802816D01*
X-98616Y-801664D01*
X-101600Y-801271D01*
X-104584Y-801664D01*
X-107364Y-802816D01*
X-109145Y-804183D01*
X-110415Y-803556D01*
Y-801709D01*
X-106463Y-797757D01*
X-104584Y-798536D01*
X-101600Y-798929D01*
X-98616Y-798536D01*
X-95836Y-797384D01*
X-93448Y-795552D01*
X-91616Y-793164D01*
X-90464Y-790384D01*
X-90071Y-787400D01*
X-90464Y-784416D01*
X-91616Y-781636D01*
X-93448Y-779248D01*
X-95836Y-777416D01*
X-98616Y-776264D01*
X-101600Y-775871D01*
X-104584Y-776264D01*
X-107364Y-777416D01*
X-109752Y-779248D01*
X-111584Y-781636D01*
X-112736Y-784416D01*
X-113129Y-787400D01*
X-112736Y-790384D01*
X-111957Y-792263D01*
X-117047Y-797353D01*
X-117889Y-798613D01*
X-118185Y-800100D01*
Y-803556D01*
X-119455Y-804183D01*
X-121236Y-802816D01*
X-124016Y-801664D01*
X-127000Y-801271D01*
X-129984Y-801664D01*
X-132764Y-802816D01*
X-134545Y-804183D01*
X-135815Y-803556D01*
Y-801709D01*
X-131863Y-797757D01*
X-129984Y-798536D01*
X-127000Y-798929D01*
X-124016Y-798536D01*
X-121236Y-797384D01*
X-118848Y-795552D01*
X-117016Y-793164D01*
X-115864Y-790384D01*
X-115471Y-787400D01*
X-115864Y-784416D01*
X-117016Y-781636D01*
X-118848Y-779248D01*
X-121236Y-777416D01*
X-124016Y-776264D01*
X-127000Y-775871D01*
X-129984Y-776264D01*
X-132764Y-777416D01*
X-135152Y-779248D01*
X-136984Y-781636D01*
X-138136Y-784416D01*
X-138529Y-787400D01*
X-138136Y-790384D01*
X-137357Y-792263D01*
X-142447Y-797353D01*
X-143289Y-798613D01*
X-143585Y-800100D01*
Y-803556D01*
X-144855Y-804183D01*
X-146636Y-802816D01*
X-149416Y-801664D01*
X-152400Y-801271D01*
X-155384Y-801664D01*
X-158164Y-802816D01*
X-159945Y-804183D01*
X-161215Y-803556D01*
Y-801709D01*
X-157263Y-797757D01*
X-155384Y-798536D01*
X-152400Y-798929D01*
X-149416Y-798536D01*
X-146636Y-797384D01*
X-144248Y-795552D01*
X-142416Y-793164D01*
X-141264Y-790384D01*
X-140871Y-787400D01*
X-141264Y-784416D01*
X-142416Y-781636D01*
X-144248Y-779248D01*
X-146636Y-777416D01*
X-149416Y-776264D01*
X-152400Y-775871D01*
X-155384Y-776264D01*
X-158164Y-777416D01*
X-160552Y-779248D01*
X-162384Y-781636D01*
X-163536Y-784416D01*
X-163929Y-787400D01*
X-163536Y-790384D01*
X-162757Y-792263D01*
X-167847Y-797353D01*
X-168689Y-798613D01*
X-168985Y-800100D01*
Y-803556D01*
X-170255Y-804183D01*
X-172036Y-802816D01*
X-174816Y-801664D01*
X-177800Y-801271D01*
X-180784Y-801664D01*
X-183564Y-802816D01*
X-185345Y-804183D01*
X-186615Y-803556D01*
Y-801709D01*
X-182663Y-797757D01*
X-180784Y-798536D01*
X-177800Y-798929D01*
X-174816Y-798536D01*
X-172036Y-797384D01*
X-169648Y-795552D01*
X-167816Y-793164D01*
X-166664Y-790384D01*
X-166271Y-787400D01*
X-166664Y-784416D01*
X-167816Y-781636D01*
X-169648Y-779248D01*
X-172036Y-777416D01*
X-174816Y-776264D01*
X-177800Y-775871D01*
X-180784Y-776264D01*
X-183564Y-777416D01*
X-185952Y-779248D01*
X-187784Y-781636D01*
X-188936Y-784416D01*
X-189329Y-787400D01*
X-188936Y-790384D01*
X-188157Y-792263D01*
X-193247Y-797353D01*
X-194089Y-798613D01*
X-194385Y-800100D01*
Y-803556D01*
X-195655Y-804183D01*
X-197436Y-802816D01*
X-200216Y-801664D01*
X-203200Y-801271D01*
X-206184Y-801664D01*
X-208964Y-802816D01*
X-210745Y-804183D01*
X-212015Y-803556D01*
Y-801709D01*
X-208064Y-797757D01*
X-206184Y-798536D01*
X-203200Y-798929D01*
X-200216Y-798536D01*
X-197436Y-797384D01*
X-195048Y-795552D01*
X-193216Y-793164D01*
X-192064Y-790384D01*
X-191671Y-787400D01*
X-192064Y-784416D01*
X-193216Y-781636D01*
X-195048Y-779248D01*
X-197436Y-777416D01*
X-200216Y-776264D01*
X-203200Y-775871D01*
X-206184Y-776264D01*
X-208964Y-777416D01*
X-211352Y-779248D01*
X-213184Y-781636D01*
X-214336Y-784416D01*
X-214729Y-787400D01*
X-214336Y-790384D01*
X-213557Y-792263D01*
X-218647Y-797353D01*
X-219489Y-798613D01*
X-219785Y-800100D01*
Y-803556D01*
X-221055Y-804183D01*
X-222836Y-802816D01*
X-225616Y-801664D01*
X-228600Y-801271D01*
X-231584Y-801664D01*
X-234364Y-802816D01*
X-236145Y-804183D01*
X-237415Y-803556D01*
Y-801709D01*
X-233463Y-797757D01*
X-231584Y-798536D01*
X-228600Y-798929D01*
X-225616Y-798536D01*
X-222836Y-797384D01*
X-220448Y-795552D01*
X-218616Y-793164D01*
X-217464Y-790384D01*
X-217071Y-787400D01*
X-217464Y-784416D01*
X-218616Y-781636D01*
X-220448Y-779248D01*
X-222836Y-777416D01*
X-225616Y-776264D01*
X-228600Y-775871D01*
X-231584Y-776264D01*
X-234364Y-777416D01*
X-236752Y-779248D01*
X-238584Y-781636D01*
X-239736Y-784416D01*
X-240129Y-787400D01*
X-239736Y-790384D01*
X-238957Y-792263D01*
X-244047Y-797353D01*
X-244889Y-798613D01*
X-245185Y-800100D01*
Y-803556D01*
X-246455Y-804183D01*
X-248236Y-802816D01*
X-251016Y-801664D01*
X-254000Y-801271D01*
X-256984Y-801664D01*
X-259764Y-802816D01*
X-261545Y-804183D01*
X-262815Y-803556D01*
Y-801709D01*
X-258864Y-797757D01*
X-256984Y-798536D01*
X-254000Y-798929D01*
X-251016Y-798536D01*
X-248236Y-797384D01*
X-245848Y-795552D01*
X-244016Y-793164D01*
X-242864Y-790384D01*
X-242471Y-787400D01*
X-242864Y-784416D01*
X-244016Y-781636D01*
X-245848Y-779248D01*
X-248236Y-777416D01*
X-251016Y-776264D01*
X-254000Y-775871D01*
X-256984Y-776264D01*
X-259764Y-777416D01*
X-262152Y-779248D01*
X-263984Y-781636D01*
X-265136Y-784416D01*
X-265529Y-787400D01*
X-265136Y-790384D01*
X-264357Y-792263D01*
X-269447Y-797353D01*
X-270289Y-798613D01*
X-270585Y-800100D01*
Y-803556D01*
X-271855Y-804183D01*
X-273636Y-802816D01*
X-276416Y-801664D01*
X-279400Y-801271D01*
X-282384Y-801664D01*
X-285164Y-802816D01*
X-286945Y-804183D01*
X-288215Y-803556D01*
Y-801709D01*
X-284263Y-797757D01*
X-282384Y-798536D01*
X-279400Y-798929D01*
X-276416Y-798536D01*
X-273636Y-797384D01*
X-271248Y-795552D01*
X-269416Y-793164D01*
X-268264Y-790384D01*
X-267871Y-787400D01*
X-268264Y-784416D01*
X-269416Y-781636D01*
X-271248Y-779248D01*
X-273636Y-777416D01*
X-276416Y-776264D01*
X-279400Y-775871D01*
X-282384Y-776264D01*
X-285164Y-777416D01*
X-287552Y-779248D01*
X-289384Y-781636D01*
X-290536Y-784416D01*
X-290929Y-787400D01*
X-290536Y-790384D01*
X-289757Y-792263D01*
X-294847Y-797353D01*
X-295689Y-798613D01*
X-295985Y-800100D01*
Y-803556D01*
X-297255Y-804183D01*
X-299036Y-802816D01*
X-301816Y-801664D01*
X-304800Y-801271D01*
X-307784Y-801664D01*
X-310564Y-802816D01*
X-312345Y-804183D01*
X-313615Y-803556D01*
Y-801709D01*
X-309664Y-797757D01*
X-307784Y-798536D01*
X-304800Y-798929D01*
X-301816Y-798536D01*
X-299036Y-797384D01*
X-296648Y-795552D01*
X-294816Y-793164D01*
X-293664Y-790384D01*
X-293271Y-787400D01*
X-293664Y-784416D01*
X-294816Y-781636D01*
X-296648Y-779248D01*
X-299036Y-777416D01*
X-301816Y-776264D01*
X-304800Y-775871D01*
X-307784Y-776264D01*
X-310564Y-777416D01*
X-312952Y-779248D01*
X-314784Y-781636D01*
X-315936Y-784416D01*
X-316329Y-787400D01*
X-315936Y-790384D01*
X-315157Y-792263D01*
X-320247Y-797353D01*
X-321089Y-798613D01*
X-321385Y-800100D01*
Y-803556D01*
X-322655Y-804183D01*
X-324436Y-802816D01*
X-327216Y-801664D01*
X-330200Y-801271D01*
X-333184Y-801664D01*
X-335964Y-802816D01*
X-337745Y-804183D01*
X-339015Y-803556D01*
Y-801709D01*
X-335064Y-797757D01*
X-333184Y-798536D01*
X-330200Y-798929D01*
X-327216Y-798536D01*
X-324436Y-797384D01*
X-322048Y-795552D01*
X-320216Y-793164D01*
X-319064Y-790384D01*
X-318671Y-787400D01*
X-319064Y-784416D01*
X-320216Y-781636D01*
X-322048Y-779248D01*
X-324436Y-777416D01*
X-327216Y-776264D01*
X-330200Y-775871D01*
X-333184Y-776264D01*
X-335964Y-777416D01*
X-338352Y-779248D01*
X-340184Y-781636D01*
X-341336Y-784416D01*
X-341729Y-787400D01*
X-341336Y-790384D01*
X-340557Y-792263D01*
X-345647Y-797353D01*
X-346489Y-798613D01*
X-346785Y-800100D01*
Y-803556D01*
X-348055Y-804183D01*
X-349836Y-802816D01*
X-352616Y-801664D01*
X-355600Y-801271D01*
X-358584Y-801664D01*
X-361364Y-802816D01*
X-363145Y-804183D01*
X-364415Y-803556D01*
Y-801709D01*
X-360463Y-797757D01*
X-358584Y-798536D01*
X-355600Y-798929D01*
X-352616Y-798536D01*
X-349836Y-797384D01*
X-347448Y-795552D01*
X-345616Y-793164D01*
X-344464Y-790384D01*
X-344071Y-787400D01*
X-344464Y-784416D01*
X-345616Y-781636D01*
X-347448Y-779248D01*
X-349836Y-777416D01*
X-352616Y-776264D01*
X-355600Y-775871D01*
X-358584Y-776264D01*
X-361364Y-777416D01*
X-363752Y-779248D01*
X-365584Y-781636D01*
X-366736Y-784416D01*
X-367129Y-787400D01*
X-366736Y-790384D01*
X-365957Y-792263D01*
X-371047Y-797353D01*
X-371889Y-798613D01*
X-372185Y-800100D01*
Y-803556D01*
X-373455Y-804183D01*
X-375236Y-802816D01*
X-378016Y-801664D01*
X-381000Y-801271D01*
X-383984Y-801664D01*
X-386764Y-802816D01*
X-388545Y-804183D01*
X-389815Y-803556D01*
Y-801709D01*
X-385863Y-797757D01*
X-383984Y-798536D01*
X-381000Y-798929D01*
X-378016Y-798536D01*
X-375236Y-797384D01*
X-372848Y-795552D01*
X-371016Y-793164D01*
X-369864Y-790384D01*
X-369471Y-787400D01*
X-369864Y-784416D01*
X-371016Y-781636D01*
X-372848Y-779248D01*
X-375236Y-777416D01*
X-378016Y-776264D01*
X-381000Y-775871D01*
X-383984Y-776264D01*
X-386764Y-777416D01*
X-389152Y-779248D01*
X-390984Y-781636D01*
X-392136Y-784416D01*
X-392529Y-787400D01*
X-392136Y-790384D01*
X-391357Y-792263D01*
X-396447Y-797353D01*
X-397289Y-798613D01*
X-397585Y-800100D01*
Y-803556D01*
X-398855Y-804183D01*
X-400636Y-802816D01*
X-403416Y-801664D01*
X-406400Y-801271D01*
X-409384Y-801664D01*
X-412164Y-802816D01*
X-413945Y-804183D01*
X-415215Y-803556D01*
Y-801709D01*
X-411264Y-797757D01*
X-409384Y-798536D01*
X-406400Y-798929D01*
X-403416Y-798536D01*
X-400636Y-797384D01*
X-398248Y-795552D01*
X-396416Y-793164D01*
X-395264Y-790384D01*
X-394871Y-787400D01*
X-395264Y-784416D01*
X-396416Y-781636D01*
X-398248Y-779248D01*
X-400636Y-777416D01*
X-403416Y-776264D01*
X-406400Y-775871D01*
X-409384Y-776264D01*
X-412164Y-777416D01*
X-414552Y-779248D01*
X-416384Y-781636D01*
X-417536Y-784416D01*
X-417929Y-787400D01*
X-417536Y-790384D01*
X-416757Y-792263D01*
X-421847Y-797353D01*
X-422689Y-798613D01*
X-422985Y-800100D01*
Y-803556D01*
X-424255Y-804183D01*
X-426036Y-802816D01*
X-428816Y-801664D01*
X-430530Y-801439D01*
Y-812800D01*
Y-824161D01*
X-430169Y-824114D01*
X-429576Y-825317D01*
X-444416Y-840157D01*
X-465761D01*
X-466247Y-838984D01*
X-452600Y-825337D01*
Y-800337D01*
X-470100Y-782837D01*
X-495100D01*
X-512600Y-800337D01*
Y-825337D01*
X-498953Y-838984D01*
X-499439Y-840157D01*
X-501415D01*
X-527068Y-814505D01*
Y-761630D01*
X-525798Y-760952D01*
X-524888Y-761559D01*
X-522824Y-761970D01*
X-520760Y-761559D01*
X-520588Y-761444D01*
X-519284Y-762100D01*
X-519254Y-762711D01*
X-520331Y-763430D01*
X-521500Y-765180D01*
X-521911Y-767244D01*
X-521500Y-769308D01*
X-520331Y-771058D01*
X-518581Y-772227D01*
X-516517Y-772638D01*
X-514453Y-772227D01*
X-512703Y-771058D01*
X-511534Y-769308D01*
X-511123Y-767244D01*
X-511294Y-766388D01*
X-511107Y-766109D01*
X-510811Y-764622D01*
Y-35124D01*
X-509713Y-33480D01*
X-509302Y-31416D01*
X-509713Y-29352D01*
X-510882Y-27602D01*
X-512632Y-26433D01*
X-514696Y-26022D01*
X-516760Y-26433D01*
X-517669Y-27041D01*
X-518939Y-26362D01*
X-518939Y6002D01*
X-517669Y6152D01*
X-516686Y2055D01*
X-514559Y-3080D01*
X-511655Y-7819D01*
X-508045Y-12045D01*
X-503819Y-15655D01*
X-499080Y-18559D01*
X-493945Y-20686D01*
X-488541Y-21983D01*
X-483000Y-22419D01*
Y-22385D01*
X-461187D01*
X-461187Y-457200D01*
Y-457387D01*
X-460891Y-458874D01*
X-460049Y-460134D01*
X-458789Y-460976D01*
X-457302Y-461272D01*
X-456362Y-461085D01*
X-31500D01*
X-30013Y-460789D01*
X-28753Y-459947D01*
X-27911Y-458687D01*
X-27615Y-457200D01*
X-27615Y-16581D01*
X-26442Y-16095D01*
X-12500Y-30037D01*
X-11227D01*
X-10521Y-31093D01*
X-11136Y-32576D01*
X-11529Y-35560D01*
X-11136Y-38544D01*
X-9984Y-41324D01*
X-8152Y-43712D01*
X-5764Y-45544D01*
X-2984Y-46696D01*
X0Y-47089D01*
X2984Y-46696D01*
X5764Y-45544D01*
X8152Y-43712D01*
X9984Y-41324D01*
X11136Y-38544D01*
X11529Y-35560D01*
X11136Y-32576D01*
X10521Y-31093D01*
X11227Y-30037D01*
X12500D01*
X30000Y-12537D01*
Y12463D01*
X16021Y26442D01*
X16507Y27615D01*
X86701D01*
X86701Y-1108799D01*
X-877841Y-1108800D01*
Y111775D01*
X-518385Y111775D01*
D02*
G37*
%LPC*%
G36*
X-769226Y107279D02*
X-794226D01*
X-811726Y89779D01*
Y64779D01*
X-794226Y47279D01*
X-769226D01*
X-751726Y64779D01*
Y89779D01*
X-769226Y107279D01*
D02*
G37*
G36*
X-865836Y68135D02*
X-868587Y67773D01*
X-871152Y66711D01*
X-873353Y65021D01*
X-875043Y62819D01*
X-876105Y60255D01*
X-876467Y57504D01*
X-876105Y54752D01*
X-875043Y52189D01*
X-873353Y49987D01*
X-871152Y48297D01*
X-868587Y47235D01*
X-865836Y46873D01*
X-863084Y47235D01*
X-860521Y48297D01*
X-858319Y49987D01*
X-856629Y52189D01*
X-855567Y54752D01*
X-855205Y57504D01*
X-855567Y60255D01*
X-856629Y62819D01*
X-858319Y65021D01*
X-860521Y66711D01*
X-863084Y67773D01*
X-865836Y68135D01*
D02*
G37*
G36*
X-867106Y17168D02*
X-868587Y16973D01*
X-871152Y15911D01*
X-873353Y14221D01*
X-875043Y12019D01*
X-876105Y9456D01*
X-876300Y7974D01*
X-867106D01*
Y17168D01*
D02*
G37*
G36*
Y5434D02*
X-876300D01*
X-876105Y3952D01*
X-875043Y1389D01*
X-873353Y-813D01*
X-871152Y-2503D01*
X-868587Y-3565D01*
X-867106Y-3760D01*
Y5434D01*
D02*
G37*
G36*
Y-8232D02*
X-868587Y-8427D01*
X-871152Y-9489D01*
X-873353Y-11179D01*
X-875043Y-13381D01*
X-876105Y-15944D01*
X-876300Y-17426D01*
X-867106D01*
Y-8232D01*
D02*
G37*
G36*
Y-19966D02*
X-876300D01*
X-876105Y-21448D01*
X-875043Y-24011D01*
X-873353Y-26213D01*
X-871152Y-27903D01*
X-868587Y-28965D01*
X-867106Y-29160D01*
Y-19966D01*
D02*
G37*
G36*
Y-59032D02*
X-868587Y-59227D01*
X-871152Y-60289D01*
X-873353Y-61979D01*
X-875043Y-64180D01*
X-876105Y-66744D01*
X-876300Y-68226D01*
X-867106D01*
Y-59032D01*
D02*
G37*
G36*
X0Y-49431D02*
X-2984Y-49824D01*
X-5764Y-50976D01*
X-8152Y-52808D01*
X-9984Y-55196D01*
X-11136Y-57976D01*
X-11529Y-60960D01*
X-11136Y-63944D01*
X-9984Y-66724D01*
X-8152Y-69112D01*
X-5764Y-70944D01*
X-2984Y-72096D01*
X0Y-72489D01*
X2984Y-72096D01*
X5764Y-70944D01*
X8152Y-69112D01*
X9984Y-66724D01*
X11136Y-63944D01*
X11529Y-60960D01*
X11136Y-57976D01*
X9984Y-55196D01*
X8152Y-52808D01*
X5764Y-50976D01*
X2984Y-49824D01*
X0Y-49431D01*
D02*
G37*
G36*
X-867106Y-70766D02*
X-876300D01*
X-876105Y-72248D01*
X-875043Y-74812D01*
X-873353Y-77013D01*
X-871152Y-78703D01*
X-868587Y-79765D01*
X-867106Y-79960D01*
Y-70766D01*
D02*
G37*
G36*
X0Y-74831D02*
X-2984Y-75224D01*
X-5764Y-76376D01*
X-8152Y-78208D01*
X-9984Y-80596D01*
X-11136Y-83376D01*
X-11529Y-86360D01*
X-11136Y-89344D01*
X-9984Y-92124D01*
X-8152Y-94512D01*
X-5764Y-96344D01*
X-2984Y-97496D01*
X0Y-97889D01*
X2984Y-97496D01*
X5764Y-96344D01*
X8152Y-94512D01*
X9984Y-92124D01*
X11136Y-89344D01*
X11529Y-86360D01*
X11136Y-83376D01*
X9984Y-80596D01*
X8152Y-78208D01*
X5764Y-76376D01*
X2984Y-75224D01*
X0Y-74831D01*
D02*
G37*
G36*
X1270Y-100399D02*
Y-110490D01*
X11361D01*
X11136Y-108776D01*
X9984Y-105996D01*
X8152Y-103608D01*
X5764Y-101776D01*
X2984Y-100624D01*
X1270Y-100399D01*
D02*
G37*
G36*
X-1270D02*
X-2984Y-100624D01*
X-5764Y-101776D01*
X-8152Y-103608D01*
X-9984Y-105996D01*
X-11136Y-108776D01*
X-11361Y-110490D01*
X-1270D01*
Y-100399D01*
D02*
G37*
G36*
X-867106Y-109832D02*
X-868587Y-110027D01*
X-871152Y-111089D01*
X-873353Y-112779D01*
X-875043Y-114980D01*
X-876105Y-117544D01*
X-876300Y-119026D01*
X-867106D01*
Y-109832D01*
D02*
G37*
G36*
X11361Y-113030D02*
X1270D01*
Y-123121D01*
X2984Y-122896D01*
X5764Y-121744D01*
X8152Y-119912D01*
X9984Y-117524D01*
X11136Y-114744D01*
X11361Y-113030D01*
D02*
G37*
G36*
X-1270D02*
X-11361D01*
X-11136Y-114744D01*
X-9984Y-117524D01*
X-8152Y-119912D01*
X-5764Y-121744D01*
X-2984Y-122896D01*
X-1270Y-123121D01*
Y-113030D01*
D02*
G37*
G36*
X-867106Y-121566D02*
X-876300D01*
X-876105Y-123048D01*
X-875043Y-125611D01*
X-873353Y-127813D01*
X-871152Y-129503D01*
X-868587Y-130565D01*
X-867106Y-130760D01*
Y-121566D01*
D02*
G37*
G36*
X-482600Y-115471D02*
X-485584Y-115864D01*
X-488364Y-117016D01*
X-490752Y-118848D01*
X-492584Y-121236D01*
X-493736Y-124016D01*
X-494129Y-127000D01*
X-493736Y-129984D01*
X-492584Y-132764D01*
X-490752Y-135152D01*
X-488364Y-136984D01*
X-485584Y-138136D01*
X-482600Y-138529D01*
X-479616Y-138136D01*
X-476836Y-136984D01*
X-474448Y-135152D01*
X-472616Y-132764D01*
X-471464Y-129984D01*
X-471071Y-127000D01*
X-471464Y-124016D01*
X-472616Y-121236D01*
X-474448Y-118848D01*
X-476836Y-117016D01*
X-479616Y-115864D01*
X-482600Y-115471D01*
D02*
G37*
G36*
X0Y-125631D02*
X-2984Y-126024D01*
X-5764Y-127176D01*
X-8152Y-129008D01*
X-9984Y-131396D01*
X-11136Y-134176D01*
X-11529Y-137160D01*
X-11136Y-140144D01*
X-9984Y-142924D01*
X-8152Y-145312D01*
X-5764Y-147144D01*
X-2984Y-148296D01*
X0Y-148689D01*
X2984Y-148296D01*
X5764Y-147144D01*
X8152Y-145312D01*
X9984Y-142924D01*
X11136Y-140144D01*
X11529Y-137160D01*
X11136Y-134176D01*
X9984Y-131396D01*
X8152Y-129008D01*
X5764Y-127176D01*
X2984Y-126024D01*
X0Y-125631D01*
D02*
G37*
G36*
X-482600Y-140871D02*
X-485584Y-141264D01*
X-488364Y-142416D01*
X-490752Y-144248D01*
X-492584Y-146636D01*
X-493736Y-149416D01*
X-494129Y-152400D01*
X-493736Y-155384D01*
X-492584Y-158164D01*
X-490752Y-160552D01*
X-488364Y-162384D01*
X-485584Y-163536D01*
X-482600Y-163929D01*
X-479616Y-163536D01*
X-476836Y-162384D01*
X-474448Y-160552D01*
X-472616Y-158164D01*
X-471464Y-155384D01*
X-471071Y-152400D01*
X-471464Y-149416D01*
X-472616Y-146636D01*
X-474448Y-144248D01*
X-476836Y-142416D01*
X-479616Y-141264D01*
X-482600Y-140871D01*
D02*
G37*
G36*
X-867106Y-160632D02*
X-868587Y-160827D01*
X-871152Y-161889D01*
X-873353Y-163579D01*
X-875043Y-165781D01*
X-876105Y-168344D01*
X-876300Y-169826D01*
X-867106D01*
Y-160632D01*
D02*
G37*
G36*
X0Y-151031D02*
X-2984Y-151424D01*
X-5764Y-152576D01*
X-8152Y-154408D01*
X-9984Y-156796D01*
X-11136Y-159576D01*
X-11529Y-162560D01*
X-11136Y-165544D01*
X-9984Y-168324D01*
X-8152Y-170712D01*
X-5764Y-172544D01*
X-2984Y-173696D01*
X0Y-174089D01*
X2984Y-173696D01*
X5764Y-172544D01*
X8152Y-170712D01*
X9984Y-168324D01*
X11136Y-165544D01*
X11529Y-162560D01*
X11136Y-159576D01*
X9984Y-156796D01*
X8152Y-154408D01*
X5764Y-152576D01*
X2984Y-151424D01*
X0Y-151031D01*
D02*
G37*
G36*
X-867106Y-172366D02*
X-876300D01*
X-876105Y-173848D01*
X-875043Y-176411D01*
X-873353Y-178613D01*
X-871152Y-180303D01*
X-868587Y-181365D01*
X-867106Y-181560D01*
Y-172366D01*
D02*
G37*
G36*
X-482600Y-166271D02*
X-485584Y-166664D01*
X-488364Y-167816D01*
X-490752Y-169648D01*
X-492584Y-172036D01*
X-493736Y-174816D01*
X-494129Y-177800D01*
X-493736Y-180784D01*
X-492584Y-183564D01*
X-490752Y-185952D01*
X-488364Y-187784D01*
X-485584Y-188936D01*
X-482600Y-189329D01*
X-479616Y-188936D01*
X-476836Y-187784D01*
X-474448Y-185952D01*
X-472616Y-183564D01*
X-471464Y-180784D01*
X-471071Y-177800D01*
X-471464Y-174816D01*
X-472616Y-172036D01*
X-474448Y-169648D01*
X-476836Y-167816D01*
X-479616Y-166664D01*
X-482600Y-166271D01*
D02*
G37*
G36*
X0Y-176431D02*
X-2984Y-176824D01*
X-5764Y-177976D01*
X-8152Y-179808D01*
X-9984Y-182196D01*
X-11136Y-184976D01*
X-11529Y-187960D01*
X-11136Y-190944D01*
X-9984Y-193724D01*
X-8152Y-196112D01*
X-5764Y-197944D01*
X-2984Y-199096D01*
X0Y-199489D01*
X2984Y-199096D01*
X5764Y-197944D01*
X8152Y-196112D01*
X9984Y-193724D01*
X11136Y-190944D01*
X11529Y-187960D01*
X11136Y-184976D01*
X9984Y-182196D01*
X8152Y-179808D01*
X5764Y-177976D01*
X2984Y-176824D01*
X0Y-176431D01*
D02*
G37*
G36*
X-482600Y-191671D02*
X-485584Y-192064D01*
X-488364Y-193216D01*
X-490752Y-195048D01*
X-492584Y-197436D01*
X-493736Y-200216D01*
X-494129Y-203200D01*
X-493736Y-206184D01*
X-492584Y-208964D01*
X-490752Y-211352D01*
X-488364Y-213184D01*
X-485584Y-214336D01*
X-482600Y-214729D01*
X-479616Y-214336D01*
X-476836Y-213184D01*
X-474448Y-211352D01*
X-472616Y-208964D01*
X-471464Y-206184D01*
X-471071Y-203200D01*
X-471464Y-200216D01*
X-472616Y-197436D01*
X-474448Y-195048D01*
X-476836Y-193216D01*
X-479616Y-192064D01*
X-482600Y-191671D01*
D02*
G37*
G36*
X-867106Y-211432D02*
X-868587Y-211627D01*
X-871152Y-212689D01*
X-873353Y-214379D01*
X-875043Y-216581D01*
X-876105Y-219144D01*
X-876300Y-220626D01*
X-867106D01*
Y-211432D01*
D02*
G37*
G36*
X0Y-201831D02*
X-2984Y-202224D01*
X-5764Y-203376D01*
X-8152Y-205208D01*
X-9984Y-207596D01*
X-11136Y-210376D01*
X-11529Y-213360D01*
X-11136Y-216344D01*
X-9984Y-219124D01*
X-8152Y-221512D01*
X-5764Y-223344D01*
X-2984Y-224496D01*
X0Y-224889D01*
X2984Y-224496D01*
X5764Y-223344D01*
X8152Y-221512D01*
X9984Y-219124D01*
X11136Y-216344D01*
X11529Y-213360D01*
X11136Y-210376D01*
X9984Y-207596D01*
X8152Y-205208D01*
X5764Y-203376D01*
X2984Y-202224D01*
X0Y-201831D01*
D02*
G37*
G36*
X-867106Y-223166D02*
X-876300D01*
X-876105Y-224648D01*
X-875043Y-227211D01*
X-873353Y-229413D01*
X-871152Y-231103D01*
X-868587Y-232165D01*
X-867106Y-232360D01*
Y-223166D01*
D02*
G37*
G36*
X-482600Y-217071D02*
X-485584Y-217464D01*
X-488364Y-218616D01*
X-490752Y-220448D01*
X-492584Y-222836D01*
X-493736Y-225616D01*
X-494129Y-228600D01*
X-493736Y-231584D01*
X-492584Y-234364D01*
X-490752Y-236752D01*
X-488364Y-238584D01*
X-485584Y-239736D01*
X-482600Y-240129D01*
X-479616Y-239736D01*
X-476836Y-238584D01*
X-474448Y-236752D01*
X-472616Y-234364D01*
X-471464Y-231584D01*
X-471071Y-228600D01*
X-471464Y-225616D01*
X-472616Y-222836D01*
X-474448Y-220448D01*
X-476836Y-218616D01*
X-479616Y-217464D01*
X-482600Y-217071D01*
D02*
G37*
G36*
X0Y-227231D02*
X-2984Y-227624D01*
X-5764Y-228776D01*
X-8152Y-230608D01*
X-9984Y-232996D01*
X-11136Y-235776D01*
X-11529Y-238760D01*
X-11136Y-241744D01*
X-9984Y-244524D01*
X-8152Y-246912D01*
X-5764Y-248744D01*
X-2984Y-249896D01*
X0Y-250289D01*
X2984Y-249896D01*
X5764Y-248744D01*
X8152Y-246912D01*
X9984Y-244524D01*
X11136Y-241744D01*
X11529Y-238760D01*
X11136Y-235776D01*
X9984Y-232996D01*
X8152Y-230608D01*
X5764Y-228776D01*
X2984Y-227624D01*
X0Y-227231D01*
D02*
G37*
G36*
X-481330Y-242639D02*
Y-252730D01*
X-471239D01*
X-471464Y-251016D01*
X-472616Y-248236D01*
X-474448Y-245848D01*
X-476836Y-244016D01*
X-479616Y-242864D01*
X-481330Y-242639D01*
D02*
G37*
G36*
X-483870D02*
X-485584Y-242864D01*
X-488364Y-244016D01*
X-490752Y-245848D01*
X-492584Y-248236D01*
X-493736Y-251016D01*
X-493961Y-252730D01*
X-483870D01*
Y-242639D01*
D02*
G37*
G36*
X-471239Y-255270D02*
X-481330D01*
Y-265361D01*
X-479616Y-265136D01*
X-476836Y-263984D01*
X-474448Y-262152D01*
X-472616Y-259764D01*
X-471464Y-256984D01*
X-471239Y-255270D01*
D02*
G37*
G36*
X-483870D02*
X-493961D01*
X-493736Y-256984D01*
X-492584Y-259764D01*
X-490752Y-262152D01*
X-488364Y-263984D01*
X-485584Y-265136D01*
X-483870Y-265361D01*
Y-255270D01*
D02*
G37*
G36*
X-867106Y-262232D02*
X-868587Y-262427D01*
X-871152Y-263489D01*
X-873353Y-265179D01*
X-875043Y-267381D01*
X-876105Y-269944D01*
X-876300Y-271426D01*
X-867106D01*
Y-262232D01*
D02*
G37*
G36*
X0Y-252631D02*
X-2984Y-253024D01*
X-5764Y-254176D01*
X-8152Y-256008D01*
X-9984Y-258396D01*
X-11136Y-261176D01*
X-11529Y-264160D01*
X-11136Y-267144D01*
X-9984Y-269924D01*
X-8152Y-272312D01*
X-5764Y-274144D01*
X-2984Y-275296D01*
X0Y-275689D01*
X2984Y-275296D01*
X5764Y-274144D01*
X8152Y-272312D01*
X9984Y-269924D01*
X11136Y-267144D01*
X11529Y-264160D01*
X11136Y-261176D01*
X9984Y-258396D01*
X8152Y-256008D01*
X5764Y-254176D01*
X2984Y-253024D01*
X0Y-252631D01*
D02*
G37*
G36*
X-481330Y-268039D02*
Y-278130D01*
X-471239D01*
X-471464Y-276416D01*
X-472616Y-273636D01*
X-474448Y-271248D01*
X-476836Y-269416D01*
X-479616Y-268264D01*
X-481330Y-268039D01*
D02*
G37*
G36*
X-483870D02*
X-485584Y-268264D01*
X-488364Y-269416D01*
X-490752Y-271248D01*
X-492584Y-273636D01*
X-493736Y-276416D01*
X-493961Y-278130D01*
X-483870D01*
Y-268039D01*
D02*
G37*
G36*
X-867106Y-273966D02*
X-876300D01*
X-876105Y-275448D01*
X-875043Y-278011D01*
X-873353Y-280213D01*
X-871152Y-281903D01*
X-868587Y-282965D01*
X-867106Y-283160D01*
Y-273966D01*
D02*
G37*
G36*
X-471239Y-280670D02*
X-481330D01*
Y-290761D01*
X-479616Y-290536D01*
X-476836Y-289384D01*
X-474448Y-287552D01*
X-472616Y-285164D01*
X-471464Y-282384D01*
X-471239Y-280670D01*
D02*
G37*
G36*
X-483870D02*
X-493961D01*
X-493736Y-282384D01*
X-492584Y-285164D01*
X-490752Y-287552D01*
X-488364Y-289384D01*
X-485584Y-290536D01*
X-483870Y-290761D01*
Y-280670D01*
D02*
G37*
G36*
X-867106Y-287632D02*
X-868587Y-287827D01*
X-871152Y-288889D01*
X-873353Y-290579D01*
X-875043Y-292780D01*
X-876105Y-295345D01*
X-876300Y-296826D01*
X-867106D01*
Y-287632D01*
D02*
G37*
G36*
Y-299366D02*
X-876300D01*
X-876105Y-300847D01*
X-875043Y-303412D01*
X-873353Y-305613D01*
X-871152Y-307303D01*
X-868587Y-308365D01*
X-867106Y-308560D01*
Y-299366D01*
D02*
G37*
G36*
X0Y-293271D02*
X-2984Y-293664D01*
X-5764Y-294816D01*
X-8152Y-296648D01*
X-9984Y-299036D01*
X-11136Y-301816D01*
X-11529Y-304800D01*
X-11136Y-307784D01*
X-9984Y-310564D01*
X-8152Y-312952D01*
X-5764Y-314784D01*
X-2984Y-315936D01*
X0Y-316329D01*
X2984Y-315936D01*
X5764Y-314784D01*
X8152Y-312952D01*
X9984Y-310564D01*
X11136Y-307784D01*
X11529Y-304800D01*
X11136Y-301816D01*
X9984Y-299036D01*
X8152Y-296648D01*
X5764Y-294816D01*
X2984Y-293664D01*
X0Y-293271D01*
D02*
G37*
G36*
X-482600D02*
X-485584Y-293664D01*
X-488364Y-294816D01*
X-490752Y-296648D01*
X-492584Y-299036D01*
X-493736Y-301816D01*
X-494129Y-304800D01*
X-493736Y-307784D01*
X-492584Y-310564D01*
X-490752Y-312952D01*
X-488364Y-314784D01*
X-485584Y-315936D01*
X-482600Y-316329D01*
X-479616Y-315936D01*
X-476836Y-314784D01*
X-474448Y-312952D01*
X-472616Y-310564D01*
X-471464Y-307784D01*
X-471071Y-304800D01*
X-471464Y-301816D01*
X-472616Y-299036D01*
X-474448Y-296648D01*
X-476836Y-294816D01*
X-479616Y-293664D01*
X-482600Y-293271D01*
D02*
G37*
G36*
X0Y-318671D02*
X-2984Y-319064D01*
X-5764Y-320216D01*
X-8152Y-322048D01*
X-9984Y-324436D01*
X-11136Y-327216D01*
X-11529Y-330200D01*
X-11136Y-333184D01*
X-9984Y-335964D01*
X-8152Y-338352D01*
X-5764Y-340184D01*
X-2984Y-341336D01*
X0Y-341729D01*
X2984Y-341336D01*
X5764Y-340184D01*
X8152Y-338352D01*
X9984Y-335964D01*
X11136Y-333184D01*
X11529Y-330200D01*
X11136Y-327216D01*
X9984Y-324436D01*
X8152Y-322048D01*
X5764Y-320216D01*
X2984Y-319064D01*
X0Y-318671D01*
D02*
G37*
G36*
Y-344071D02*
X-2984Y-344464D01*
X-5764Y-345616D01*
X-8152Y-347448D01*
X-9984Y-349836D01*
X-11136Y-352616D01*
X-11529Y-355600D01*
X-11136Y-358584D01*
X-9984Y-361364D01*
X-8152Y-363752D01*
X-5764Y-365584D01*
X-2984Y-366736D01*
X0Y-367129D01*
X2984Y-366736D01*
X5764Y-365584D01*
X8152Y-363752D01*
X9984Y-361364D01*
X11136Y-358584D01*
X11529Y-355600D01*
X11136Y-352616D01*
X9984Y-349836D01*
X8152Y-347448D01*
X5764Y-345616D01*
X2984Y-344464D01*
X0Y-344071D01*
D02*
G37*
G36*
X-482600D02*
X-485584Y-344464D01*
X-488364Y-345616D01*
X-490752Y-347448D01*
X-492584Y-349836D01*
X-493736Y-352616D01*
X-494129Y-355600D01*
X-493736Y-358584D01*
X-492584Y-361364D01*
X-490752Y-363752D01*
X-488364Y-365584D01*
X-485584Y-366736D01*
X-482600Y-367129D01*
X-479616Y-366736D01*
X-476836Y-365584D01*
X-474448Y-363752D01*
X-472616Y-361364D01*
X-471464Y-358584D01*
X-471071Y-355600D01*
X-471464Y-352616D01*
X-472616Y-349836D01*
X-474448Y-347448D01*
X-476836Y-345616D01*
X-479616Y-344464D01*
X-482600Y-344071D01*
D02*
G37*
G36*
X0Y-369471D02*
X-2984Y-369864D01*
X-5764Y-371016D01*
X-8152Y-372848D01*
X-9984Y-375236D01*
X-11136Y-378016D01*
X-11529Y-381000D01*
X-11136Y-383984D01*
X-9984Y-386764D01*
X-8152Y-389152D01*
X-5764Y-390984D01*
X-2984Y-392136D01*
X0Y-392529D01*
X2984Y-392136D01*
X5764Y-390984D01*
X8152Y-389152D01*
X9984Y-386764D01*
X11136Y-383984D01*
X11529Y-381000D01*
X11136Y-378016D01*
X9984Y-375236D01*
X8152Y-372848D01*
X5764Y-371016D01*
X2984Y-369864D01*
X0Y-369471D01*
D02*
G37*
G36*
X-482600D02*
X-485584Y-369864D01*
X-488364Y-371016D01*
X-490752Y-372848D01*
X-492584Y-375236D01*
X-493736Y-378016D01*
X-494129Y-381000D01*
X-493736Y-383984D01*
X-492584Y-386764D01*
X-490752Y-389152D01*
X-488364Y-390984D01*
X-485584Y-392136D01*
X-482600Y-392529D01*
X-479616Y-392136D01*
X-476836Y-390984D01*
X-474448Y-389152D01*
X-472616Y-386764D01*
X-471464Y-383984D01*
X-471071Y-381000D01*
X-471464Y-378016D01*
X-472616Y-375236D01*
X-474448Y-372848D01*
X-476836Y-371016D01*
X-479616Y-369864D01*
X-482600Y-369471D01*
D02*
G37*
G36*
X0Y-394871D02*
X-2984Y-395264D01*
X-5764Y-396416D01*
X-8152Y-398248D01*
X-9984Y-400636D01*
X-11136Y-403416D01*
X-11529Y-406400D01*
X-11136Y-409384D01*
X-9984Y-412164D01*
X-8152Y-414552D01*
X-5764Y-416384D01*
X-2984Y-417536D01*
X0Y-417929D01*
X2984Y-417536D01*
X5764Y-416384D01*
X8152Y-414552D01*
X9984Y-412164D01*
X11136Y-409384D01*
X11529Y-406400D01*
X11136Y-403416D01*
X9984Y-400636D01*
X8152Y-398248D01*
X5764Y-396416D01*
X2984Y-395264D01*
X0Y-394871D01*
D02*
G37*
G36*
X-482600D02*
X-485584Y-395264D01*
X-488364Y-396416D01*
X-490752Y-398248D01*
X-492584Y-400636D01*
X-493736Y-403416D01*
X-494129Y-406400D01*
X-493736Y-409384D01*
X-492584Y-412164D01*
X-490752Y-414552D01*
X-488364Y-416384D01*
X-485584Y-417536D01*
X-482600Y-417929D01*
X-479616Y-417536D01*
X-476836Y-416384D01*
X-474448Y-414552D01*
X-472616Y-412164D01*
X-471464Y-409384D01*
X-471071Y-406400D01*
X-471464Y-403416D01*
X-472616Y-400636D01*
X-474448Y-398248D01*
X-476836Y-396416D01*
X-479616Y-395264D01*
X-482600Y-394871D01*
D02*
G37*
G36*
X0Y-420271D02*
X-2984Y-420664D01*
X-5764Y-421816D01*
X-8152Y-423648D01*
X-9984Y-426036D01*
X-11136Y-428816D01*
X-11529Y-431800D01*
X-11136Y-434784D01*
X-9984Y-437564D01*
X-8152Y-439952D01*
X-5764Y-441784D01*
X-2984Y-442936D01*
X0Y-443329D01*
X2984Y-442936D01*
X5764Y-441784D01*
X8152Y-439952D01*
X9984Y-437564D01*
X11136Y-434784D01*
X11529Y-431800D01*
X11136Y-428816D01*
X9984Y-426036D01*
X8152Y-423648D01*
X5764Y-421816D01*
X2984Y-420664D01*
X0Y-420271D01*
D02*
G37*
G36*
X-482600D02*
X-485584Y-420664D01*
X-488364Y-421816D01*
X-490752Y-423648D01*
X-492584Y-426036D01*
X-493736Y-428816D01*
X-494129Y-431800D01*
X-493736Y-434784D01*
X-492584Y-437564D01*
X-490752Y-439952D01*
X-488364Y-441784D01*
X-485584Y-442936D01*
X-482600Y-443329D01*
X-479616Y-442936D01*
X-476836Y-441784D01*
X-474448Y-439952D01*
X-472616Y-437564D01*
X-471464Y-434784D01*
X-471071Y-431800D01*
X-471464Y-428816D01*
X-472616Y-426036D01*
X-474448Y-423648D01*
X-476836Y-421816D01*
X-479616Y-420664D01*
X-482600Y-420271D01*
D02*
G37*
G36*
X0Y-445671D02*
X-2984Y-446064D01*
X-5764Y-447216D01*
X-8152Y-449048D01*
X-9984Y-451436D01*
X-11136Y-454216D01*
X-11529Y-457200D01*
X-11136Y-460184D01*
X-9984Y-462964D01*
X-8152Y-465352D01*
X-5764Y-467184D01*
X-2984Y-468336D01*
X0Y-468729D01*
X2984Y-468336D01*
X5764Y-467184D01*
X8152Y-465352D01*
X9984Y-462964D01*
X11136Y-460184D01*
X11529Y-457200D01*
X11136Y-454216D01*
X9984Y-451436D01*
X8152Y-449048D01*
X5764Y-447216D01*
X2984Y-446064D01*
X0Y-445671D01*
D02*
G37*
G36*
X-482600D02*
X-485584Y-446064D01*
X-488364Y-447216D01*
X-490752Y-449048D01*
X-492584Y-451436D01*
X-493736Y-454216D01*
X-494129Y-457200D01*
X-493736Y-460184D01*
X-492584Y-462964D01*
X-490752Y-465352D01*
X-488364Y-467184D01*
X-485584Y-468336D01*
X-482600Y-468729D01*
X-479616Y-468336D01*
X-476836Y-467184D01*
X-474448Y-465352D01*
X-472616Y-462964D01*
X-471464Y-460184D01*
X-471071Y-457200D01*
X-471464Y-454216D01*
X-472616Y-451436D01*
X-474448Y-449048D01*
X-476836Y-447216D01*
X-479616Y-446064D01*
X-482600Y-445671D01*
D02*
G37*
G36*
X0Y-471071D02*
X-2984Y-471464D01*
X-5764Y-472616D01*
X-8152Y-474448D01*
X-9984Y-476836D01*
X-11136Y-479616D01*
X-11529Y-482600D01*
X-11136Y-485584D01*
X-9984Y-488364D01*
X-8152Y-490752D01*
X-5764Y-492584D01*
X-2984Y-493736D01*
X0Y-494129D01*
X2984Y-493736D01*
X5764Y-492584D01*
X8152Y-490752D01*
X9984Y-488364D01*
X11136Y-485584D01*
X11529Y-482600D01*
X11136Y-479616D01*
X9984Y-476836D01*
X8152Y-474448D01*
X5764Y-472616D01*
X2984Y-471464D01*
X0Y-471071D01*
D02*
G37*
G36*
X-482600D02*
X-485584Y-471464D01*
X-488364Y-472616D01*
X-490752Y-474448D01*
X-492584Y-476836D01*
X-493736Y-479616D01*
X-494129Y-482600D01*
X-493736Y-485584D01*
X-492584Y-488364D01*
X-490752Y-490752D01*
X-488364Y-492584D01*
X-485584Y-493736D01*
X-482600Y-494129D01*
X-479616Y-493736D01*
X-476836Y-492584D01*
X-474448Y-490752D01*
X-472616Y-488364D01*
X-471464Y-485584D01*
X-471071Y-482600D01*
X-471464Y-479616D01*
X-472616Y-476836D01*
X-474448Y-474448D01*
X-476836Y-472616D01*
X-479616Y-471464D01*
X-482600Y-471071D01*
D02*
G37*
G36*
X-193410Y-473710D02*
X-213990D01*
Y-494290D01*
X-193410D01*
Y-473710D01*
D02*
G37*
G36*
X-229100Y-473621D02*
X-231786Y-473975D01*
X-234289Y-475012D01*
X-236439Y-476661D01*
X-238088Y-478811D01*
X-239125Y-481314D01*
X-239479Y-484000D01*
X-239125Y-486686D01*
X-238088Y-489189D01*
X-236439Y-491339D01*
X-234289Y-492988D01*
X-231786Y-494025D01*
X-229100Y-494379D01*
X-226414Y-494025D01*
X-223911Y-492988D01*
X-221761Y-491339D01*
X-220112Y-489189D01*
X-219075Y-486686D01*
X-218721Y-484000D01*
X-219075Y-481314D01*
X-220112Y-478811D01*
X-221761Y-476661D01*
X-223911Y-475012D01*
X-226414Y-473975D01*
X-229100Y-473621D01*
D02*
G37*
G36*
X-254500D02*
X-257186Y-473975D01*
X-259689Y-475012D01*
X-261839Y-476661D01*
X-263488Y-478811D01*
X-264525Y-481314D01*
X-264879Y-484000D01*
X-264525Y-486686D01*
X-263488Y-489189D01*
X-261839Y-491339D01*
X-259689Y-492988D01*
X-257186Y-494025D01*
X-254500Y-494379D01*
X-251814Y-494025D01*
X-249311Y-492988D01*
X-247161Y-491339D01*
X-245512Y-489189D01*
X-244475Y-486686D01*
X-244121Y-484000D01*
X-244475Y-481314D01*
X-245512Y-478811D01*
X-247161Y-476661D01*
X-249311Y-475012D01*
X-251814Y-473975D01*
X-254500Y-473621D01*
D02*
G37*
G36*
X-253230Y-499188D02*
Y-508130D01*
X-244288D01*
X-244475Y-506714D01*
X-245512Y-504211D01*
X-247161Y-502061D01*
X-249311Y-500412D01*
X-251814Y-499375D01*
X-253230Y-499188D01*
D02*
G37*
G36*
X-255770Y-499188D02*
X-257186Y-499375D01*
X-259689Y-500412D01*
X-261839Y-502061D01*
X-263488Y-504211D01*
X-264525Y-506714D01*
X-264712Y-508130D01*
X-255770D01*
Y-499188D01*
D02*
G37*
G36*
X-482600Y-496471D02*
X-485584Y-496864D01*
X-488364Y-498016D01*
X-490752Y-499848D01*
X-492584Y-502236D01*
X-493736Y-505016D01*
X-494129Y-508000D01*
X-493736Y-510984D01*
X-492584Y-513764D01*
X-490752Y-516152D01*
X-488364Y-517984D01*
X-485584Y-519136D01*
X-482600Y-519529D01*
X-479616Y-519136D01*
X-476836Y-517984D01*
X-474448Y-516152D01*
X-472616Y-513764D01*
X-471464Y-510984D01*
X-471071Y-508000D01*
X-471464Y-505016D01*
X-472616Y-502236D01*
X-474448Y-499848D01*
X-476836Y-498016D01*
X-479616Y-496864D01*
X-482600Y-496471D01*
D02*
G37*
G36*
X-244288Y-510670D02*
X-253230D01*
Y-519612D01*
X-251814Y-519425D01*
X-249311Y-518388D01*
X-247161Y-516739D01*
X-245512Y-514589D01*
X-244475Y-512086D01*
X-244288Y-510670D01*
D02*
G37*
G36*
X-255770D02*
X-264712D01*
X-264525Y-512086D01*
X-263488Y-514589D01*
X-261839Y-516739D01*
X-259689Y-518388D01*
X-257186Y-519425D01*
X-255770Y-519612D01*
Y-510670D01*
D02*
G37*
G36*
X-203700Y-499021D02*
X-206386Y-499375D01*
X-208889Y-500412D01*
X-211039Y-502061D01*
X-212688Y-504211D01*
X-213725Y-506714D01*
X-214079Y-509400D01*
X-213725Y-512086D01*
X-212688Y-514589D01*
X-211039Y-516739D01*
X-208889Y-518388D01*
X-206386Y-519425D01*
X-203700Y-519779D01*
X-201014Y-519425D01*
X-198511Y-518388D01*
X-196361Y-516739D01*
X-194712Y-514589D01*
X-193675Y-512086D01*
X-193321Y-509400D01*
X-193675Y-506714D01*
X-194712Y-504211D01*
X-196361Y-502061D01*
X-198511Y-500412D01*
X-201014Y-499375D01*
X-203700Y-499021D01*
D02*
G37*
G36*
X-229100D02*
X-231786Y-499375D01*
X-234289Y-500412D01*
X-236439Y-502061D01*
X-238088Y-504211D01*
X-239125Y-506714D01*
X-239479Y-509400D01*
X-239125Y-512086D01*
X-238088Y-514589D01*
X-236439Y-516739D01*
X-234289Y-518388D01*
X-231786Y-519425D01*
X-229100Y-519779D01*
X-226414Y-519425D01*
X-223911Y-518388D01*
X-221761Y-516739D01*
X-220112Y-514589D01*
X-219075Y-512086D01*
X-218721Y-509400D01*
X-219075Y-506714D01*
X-220112Y-504211D01*
X-221761Y-502061D01*
X-223911Y-500412D01*
X-226414Y-499375D01*
X-229100Y-499021D01*
D02*
G37*
G36*
X-865836Y-505915D02*
X-868587Y-506277D01*
X-871152Y-507339D01*
X-873353Y-509029D01*
X-875043Y-511231D01*
X-876105Y-513795D01*
X-876467Y-516546D01*
X-876105Y-519297D01*
X-875043Y-521861D01*
X-873353Y-524063D01*
X-871152Y-525753D01*
X-868587Y-526815D01*
X-865836Y-527177D01*
X-863084Y-526815D01*
X-860521Y-525753D01*
X-858319Y-524063D01*
X-856629Y-521861D01*
X-855567Y-519297D01*
X-855205Y-516546D01*
X-855567Y-513795D01*
X-856629Y-511231D01*
X-858319Y-509029D01*
X-860521Y-507339D01*
X-863084Y-506277D01*
X-865836Y-505915D01*
D02*
G37*
G36*
X-139500Y-478037D02*
X-164500D01*
X-182000Y-495537D01*
Y-520537D01*
X-164500Y-538037D01*
X-139500D01*
X-122000Y-520537D01*
Y-495537D01*
X-139500Y-478037D01*
D02*
G37*
G36*
X-418500D02*
X-443500D01*
X-461000Y-495537D01*
Y-520537D01*
X-443500Y-538037D01*
X-418500D01*
X-401000Y-520537D01*
Y-495537D01*
X-418500Y-478037D01*
D02*
G37*
G36*
X0Y-521871D02*
X-2984Y-522264D01*
X-5764Y-523416D01*
X-8152Y-525248D01*
X-9984Y-527636D01*
X-11136Y-530416D01*
X-11529Y-533400D01*
X-11136Y-536384D01*
X-9984Y-539164D01*
X-8152Y-541552D01*
X-5764Y-543384D01*
X-2984Y-544536D01*
X0Y-544929D01*
X2984Y-544536D01*
X5764Y-543384D01*
X8152Y-541552D01*
X9984Y-539164D01*
X11136Y-536384D01*
X11529Y-533400D01*
X11136Y-530416D01*
X9984Y-527636D01*
X8152Y-525248D01*
X5764Y-523416D01*
X2984Y-522264D01*
X0Y-521871D01*
D02*
G37*
G36*
X-482600D02*
X-485584Y-522264D01*
X-488364Y-523416D01*
X-490752Y-525248D01*
X-492584Y-527636D01*
X-493736Y-530416D01*
X-494129Y-533400D01*
X-493736Y-536384D01*
X-492584Y-539164D01*
X-490752Y-541552D01*
X-488364Y-543384D01*
X-485584Y-544536D01*
X-482600Y-544929D01*
X-479616Y-544536D01*
X-476836Y-543384D01*
X-474448Y-541552D01*
X-472616Y-539164D01*
X-471464Y-536384D01*
X-471071Y-533400D01*
X-471464Y-530416D01*
X-472616Y-527636D01*
X-474448Y-525248D01*
X-476836Y-523416D01*
X-479616Y-522264D01*
X-482600Y-521871D01*
D02*
G37*
G36*
X-865836Y-531315D02*
X-868587Y-531677D01*
X-871152Y-532739D01*
X-873353Y-534429D01*
X-875043Y-536631D01*
X-876105Y-539194D01*
X-876467Y-541946D01*
X-876105Y-544697D01*
X-875043Y-547262D01*
X-873353Y-549463D01*
X-871152Y-551153D01*
X-868587Y-552215D01*
X-865836Y-552577D01*
X-863084Y-552215D01*
X-860521Y-551153D01*
X-858319Y-549463D01*
X-856629Y-547262D01*
X-855567Y-544697D01*
X-855205Y-541946D01*
X-855567Y-539194D01*
X-856629Y-536631D01*
X-858319Y-534429D01*
X-860521Y-532739D01*
X-863084Y-531677D01*
X-865836Y-531315D01*
D02*
G37*
G36*
X-864566Y-556882D02*
Y-566076D01*
X-855372D01*
X-855567Y-564594D01*
X-856629Y-562030D01*
X-858319Y-559829D01*
X-860521Y-558139D01*
X-863084Y-557077D01*
X-864566Y-556882D01*
D02*
G37*
G36*
X-867106Y-556882D02*
X-868587Y-557077D01*
X-871152Y-558139D01*
X-873353Y-559829D01*
X-875043Y-562030D01*
X-876105Y-564594D01*
X-876300Y-566076D01*
X-867106D01*
Y-556882D01*
D02*
G37*
G36*
X0Y-547271D02*
X-2984Y-547664D01*
X-5764Y-548816D01*
X-8152Y-550648D01*
X-9984Y-553036D01*
X-11136Y-555816D01*
X-11529Y-558800D01*
X-11136Y-561784D01*
X-9984Y-564564D01*
X-8152Y-566952D01*
X-5764Y-568784D01*
X-2984Y-569936D01*
X0Y-570329D01*
X2984Y-569936D01*
X5764Y-568784D01*
X8152Y-566952D01*
X9984Y-564564D01*
X11136Y-561784D01*
X11529Y-558800D01*
X11136Y-555816D01*
X9984Y-553036D01*
X8152Y-550648D01*
X5764Y-548816D01*
X2984Y-547664D01*
X0Y-547271D01*
D02*
G37*
G36*
X-867106Y-568616D02*
X-876300D01*
X-876105Y-570098D01*
X-875043Y-572662D01*
X-873353Y-574863D01*
X-871152Y-576553D01*
X-868587Y-577615D01*
X-867106Y-577810D01*
Y-568616D01*
D02*
G37*
G36*
X-855372D02*
X-864566D01*
Y-577810D01*
X-863084Y-577615D01*
X-860521Y-576553D01*
X-858319Y-574863D01*
X-856629Y-572662D01*
X-855567Y-570098D01*
X-855372Y-568616D01*
D02*
G37*
G36*
X-864566Y-582282D02*
Y-591476D01*
X-855372D01*
X-855567Y-589995D01*
X-856629Y-587430D01*
X-858319Y-585229D01*
X-860521Y-583539D01*
X-863084Y-582477D01*
X-864566Y-582282D01*
D02*
G37*
G36*
X-867106Y-582282D02*
X-868587Y-582477D01*
X-871152Y-583539D01*
X-873353Y-585229D01*
X-875043Y-587430D01*
X-876105Y-589995D01*
X-876300Y-591476D01*
X-867106D01*
Y-582282D01*
D02*
G37*
G36*
X0Y-572671D02*
X-2984Y-573064D01*
X-5764Y-574216D01*
X-8152Y-576048D01*
X-9984Y-578436D01*
X-11136Y-581216D01*
X-11529Y-584200D01*
X-11136Y-587184D01*
X-9984Y-589964D01*
X-8152Y-592352D01*
X-5764Y-594184D01*
X-2984Y-595336D01*
X0Y-595729D01*
X2984Y-595336D01*
X5764Y-594184D01*
X8152Y-592352D01*
X9984Y-589964D01*
X11136Y-587184D01*
X11529Y-584200D01*
X11136Y-581216D01*
X9984Y-578436D01*
X8152Y-576048D01*
X5764Y-574216D01*
X2984Y-573064D01*
X0Y-572671D01*
D02*
G37*
G36*
X-482600D02*
X-485584Y-573064D01*
X-488364Y-574216D01*
X-490752Y-576048D01*
X-492584Y-578436D01*
X-493736Y-581216D01*
X-494129Y-584200D01*
X-493736Y-587184D01*
X-492584Y-589964D01*
X-490752Y-592352D01*
X-488364Y-594184D01*
X-485584Y-595336D01*
X-482600Y-595729D01*
X-479616Y-595336D01*
X-476836Y-594184D01*
X-474448Y-592352D01*
X-472616Y-589964D01*
X-471464Y-587184D01*
X-471071Y-584200D01*
X-471464Y-581216D01*
X-472616Y-578436D01*
X-474448Y-576048D01*
X-476836Y-574216D01*
X-479616Y-573064D01*
X-482600Y-572671D01*
D02*
G37*
G36*
X-867106Y-594016D02*
X-876300D01*
X-876105Y-595498D01*
X-875043Y-598061D01*
X-873353Y-600263D01*
X-871152Y-601953D01*
X-868587Y-603015D01*
X-867106Y-603210D01*
Y-594016D01*
D02*
G37*
G36*
X-855372D02*
X-864566D01*
Y-603210D01*
X-863084Y-603015D01*
X-860521Y-601953D01*
X-858319Y-600263D01*
X-856629Y-598061D01*
X-855567Y-595498D01*
X-855372Y-594016D01*
D02*
G37*
G36*
X0Y-598071D02*
X-2984Y-598464D01*
X-5764Y-599616D01*
X-8152Y-601448D01*
X-9984Y-603836D01*
X-11136Y-606616D01*
X-11529Y-609600D01*
X-11136Y-612584D01*
X-9984Y-615364D01*
X-8152Y-617752D01*
X-5764Y-619584D01*
X-2984Y-620736D01*
X0Y-621129D01*
X2984Y-620736D01*
X5764Y-619584D01*
X8152Y-617752D01*
X9984Y-615364D01*
X11136Y-612584D01*
X11529Y-609600D01*
X11136Y-606616D01*
X9984Y-603836D01*
X8152Y-601448D01*
X5764Y-599616D01*
X2984Y-598464D01*
X0Y-598071D01*
D02*
G37*
G36*
X-482600D02*
X-485584Y-598464D01*
X-488364Y-599616D01*
X-490752Y-601448D01*
X-492584Y-603836D01*
X-493736Y-606616D01*
X-494129Y-609600D01*
X-493736Y-612584D01*
X-492584Y-615364D01*
X-490752Y-617752D01*
X-488364Y-619584D01*
X-485584Y-620736D01*
X-482600Y-621129D01*
X-479616Y-620736D01*
X-476836Y-619584D01*
X-474448Y-617752D01*
X-472616Y-615364D01*
X-471464Y-612584D01*
X-471071Y-609600D01*
X-471464Y-606616D01*
X-472616Y-603836D01*
X-474448Y-601448D01*
X-476836Y-599616D01*
X-479616Y-598464D01*
X-482600Y-598071D01*
D02*
G37*
G36*
X-865836Y-607515D02*
X-868587Y-607877D01*
X-871152Y-608939D01*
X-873353Y-610629D01*
X-875043Y-612831D01*
X-876105Y-615395D01*
X-876467Y-618146D01*
X-876105Y-620897D01*
X-875043Y-623461D01*
X-873353Y-625663D01*
X-871152Y-627353D01*
X-868587Y-628415D01*
X-865836Y-628777D01*
X-863084Y-628415D01*
X-860521Y-627353D01*
X-858319Y-625663D01*
X-856629Y-623461D01*
X-855567Y-620897D01*
X-855205Y-618146D01*
X-855567Y-615395D01*
X-856629Y-612831D01*
X-858319Y-610629D01*
X-860521Y-608939D01*
X-863084Y-607877D01*
X-865836Y-607515D01*
D02*
G37*
G36*
X-864566Y-633082D02*
Y-642276D01*
X-855372D01*
X-855567Y-640795D01*
X-856629Y-638231D01*
X-858319Y-636029D01*
X-860521Y-634339D01*
X-863084Y-633277D01*
X-864566Y-633082D01*
D02*
G37*
G36*
X-867106Y-633082D02*
X-868587Y-633277D01*
X-871152Y-634339D01*
X-873353Y-636029D01*
X-875043Y-638231D01*
X-876105Y-640795D01*
X-876300Y-642276D01*
X-867106D01*
Y-633082D01*
D02*
G37*
G36*
X0Y-623471D02*
X-2984Y-623864D01*
X-5764Y-625016D01*
X-8152Y-626848D01*
X-9984Y-629236D01*
X-11136Y-632016D01*
X-11529Y-635000D01*
X-11136Y-637984D01*
X-9984Y-640764D01*
X-8152Y-643152D01*
X-5764Y-644984D01*
X-2984Y-646136D01*
X0Y-646529D01*
X2984Y-646136D01*
X5764Y-644984D01*
X8152Y-643152D01*
X9984Y-640764D01*
X11136Y-637984D01*
X11529Y-635000D01*
X11136Y-632016D01*
X9984Y-629236D01*
X8152Y-626848D01*
X5764Y-625016D01*
X2984Y-623864D01*
X0Y-623471D01*
D02*
G37*
G36*
X-482600D02*
X-485584Y-623864D01*
X-488364Y-625016D01*
X-490752Y-626848D01*
X-492584Y-629236D01*
X-493736Y-632016D01*
X-494129Y-635000D01*
X-493736Y-637984D01*
X-492584Y-640764D01*
X-490752Y-643152D01*
X-488364Y-644984D01*
X-485584Y-646136D01*
X-482600Y-646529D01*
X-479616Y-646136D01*
X-476836Y-644984D01*
X-474448Y-643152D01*
X-472616Y-640764D01*
X-471464Y-637984D01*
X-471071Y-635000D01*
X-471464Y-632016D01*
X-472616Y-629236D01*
X-474448Y-626848D01*
X-476836Y-625016D01*
X-479616Y-623864D01*
X-482600Y-623471D01*
D02*
G37*
G36*
X-867106Y-644816D02*
X-876300D01*
X-876105Y-646298D01*
X-875043Y-648861D01*
X-873353Y-651063D01*
X-871152Y-652753D01*
X-868587Y-653815D01*
X-867106Y-654010D01*
Y-644816D01*
D02*
G37*
G36*
X-855372D02*
X-864566D01*
Y-654010D01*
X-863084Y-653815D01*
X-860521Y-652753D01*
X-858319Y-651063D01*
X-856629Y-648861D01*
X-855567Y-646298D01*
X-855372Y-644816D01*
D02*
G37*
G36*
X0Y-648871D02*
X-2984Y-649264D01*
X-5764Y-650416D01*
X-8152Y-652248D01*
X-9984Y-654636D01*
X-11136Y-657416D01*
X-11529Y-660400D01*
X-11136Y-663384D01*
X-9984Y-666164D01*
X-8152Y-668552D01*
X-5764Y-670384D01*
X-2984Y-671536D01*
X0Y-671929D01*
X2984Y-671536D01*
X5764Y-670384D01*
X8152Y-668552D01*
X9984Y-666164D01*
X11136Y-663384D01*
X11529Y-660400D01*
X11136Y-657416D01*
X9984Y-654636D01*
X8152Y-652248D01*
X5764Y-650416D01*
X2984Y-649264D01*
X0Y-648871D01*
D02*
G37*
G36*
X-482600D02*
X-485584Y-649264D01*
X-488364Y-650416D01*
X-490752Y-652248D01*
X-492584Y-654636D01*
X-493736Y-657416D01*
X-494129Y-660400D01*
X-493736Y-663384D01*
X-492584Y-666164D01*
X-490752Y-668552D01*
X-488364Y-670384D01*
X-485584Y-671536D01*
X-482600Y-671929D01*
X-479616Y-671536D01*
X-476836Y-670384D01*
X-474448Y-668552D01*
X-472616Y-666164D01*
X-471464Y-663384D01*
X-471071Y-660400D01*
X-471464Y-657416D01*
X-472616Y-654636D01*
X-474448Y-652248D01*
X-476836Y-650416D01*
X-479616Y-649264D01*
X-482600Y-648871D01*
D02*
G37*
G36*
X-865836Y-658315D02*
X-868587Y-658677D01*
X-871152Y-659739D01*
X-873353Y-661429D01*
X-875043Y-663631D01*
X-876105Y-666195D01*
X-876467Y-668946D01*
X-876105Y-671697D01*
X-875043Y-674261D01*
X-873353Y-676463D01*
X-871152Y-678153D01*
X-868587Y-679215D01*
X-865836Y-679577D01*
X-863084Y-679215D01*
X-860521Y-678153D01*
X-858319Y-676463D01*
X-856629Y-674261D01*
X-855567Y-671697D01*
X-855205Y-668946D01*
X-855567Y-666195D01*
X-856629Y-663631D01*
X-858319Y-661429D01*
X-860521Y-659739D01*
X-863084Y-658677D01*
X-865836Y-658315D01*
D02*
G37*
G36*
X-864566Y-683882D02*
Y-693076D01*
X-855372D01*
X-855567Y-691594D01*
X-856629Y-689031D01*
X-858319Y-686829D01*
X-860521Y-685139D01*
X-863084Y-684077D01*
X-864566Y-683882D01*
D02*
G37*
G36*
X-867106Y-683882D02*
X-868587Y-684077D01*
X-871152Y-685139D01*
X-873353Y-686829D01*
X-875043Y-689031D01*
X-876105Y-691594D01*
X-876300Y-693076D01*
X-867106D01*
Y-683882D01*
D02*
G37*
G36*
X0Y-674271D02*
X-2984Y-674664D01*
X-5764Y-675816D01*
X-8152Y-677648D01*
X-9984Y-680036D01*
X-11136Y-682816D01*
X-11529Y-685800D01*
X-11136Y-688784D01*
X-9984Y-691564D01*
X-8152Y-693952D01*
X-5764Y-695784D01*
X-2984Y-696936D01*
X0Y-697329D01*
X2984Y-696936D01*
X5764Y-695784D01*
X8152Y-693952D01*
X9984Y-691564D01*
X11136Y-688784D01*
X11529Y-685800D01*
X11136Y-682816D01*
X9984Y-680036D01*
X8152Y-677648D01*
X5764Y-675816D01*
X2984Y-674664D01*
X0Y-674271D01*
D02*
G37*
G36*
X-482600D02*
X-485584Y-674664D01*
X-488364Y-675816D01*
X-490752Y-677648D01*
X-492584Y-680036D01*
X-493736Y-682816D01*
X-494129Y-685800D01*
X-493736Y-688784D01*
X-492584Y-691564D01*
X-490752Y-693952D01*
X-488364Y-695784D01*
X-485584Y-696936D01*
X-482600Y-697329D01*
X-479616Y-696936D01*
X-476836Y-695784D01*
X-474448Y-693952D01*
X-472616Y-691564D01*
X-471464Y-688784D01*
X-471071Y-685800D01*
X-471464Y-682816D01*
X-472616Y-680036D01*
X-474448Y-677648D01*
X-476836Y-675816D01*
X-479616Y-674664D01*
X-482600Y-674271D01*
D02*
G37*
G36*
X-867106Y-695616D02*
X-876300D01*
X-876105Y-697097D01*
X-875043Y-699661D01*
X-873353Y-701863D01*
X-871152Y-703553D01*
X-868587Y-704615D01*
X-867106Y-704810D01*
Y-695616D01*
D02*
G37*
G36*
X-855372D02*
X-864566D01*
Y-704810D01*
X-863084Y-704615D01*
X-860521Y-703553D01*
X-858319Y-701863D01*
X-856629Y-699661D01*
X-855567Y-697097D01*
X-855372Y-695616D01*
D02*
G37*
G36*
X-482600Y-699671D02*
X-485584Y-700064D01*
X-488364Y-701216D01*
X-490752Y-703048D01*
X-492584Y-705436D01*
X-493736Y-708216D01*
X-494129Y-711200D01*
X-493736Y-714184D01*
X-492584Y-716964D01*
X-490752Y-719352D01*
X-488364Y-721184D01*
X-485584Y-722336D01*
X-482600Y-722729D01*
X-479616Y-722336D01*
X-476836Y-721184D01*
X-474448Y-719352D01*
X-472616Y-716964D01*
X-471464Y-714184D01*
X-471071Y-711200D01*
X-471464Y-708216D01*
X-472616Y-705436D01*
X-474448Y-703048D01*
X-476836Y-701216D01*
X-479616Y-700064D01*
X-482600Y-699671D01*
D02*
G37*
G36*
X-865836Y-709115D02*
X-868587Y-709477D01*
X-871152Y-710539D01*
X-873353Y-712229D01*
X-875043Y-714430D01*
X-876105Y-716994D01*
X-876467Y-719746D01*
X-876105Y-722497D01*
X-875043Y-725061D01*
X-873353Y-727263D01*
X-871152Y-728953D01*
X-868587Y-730015D01*
X-865836Y-730377D01*
X-863084Y-730015D01*
X-860521Y-728953D01*
X-858319Y-727263D01*
X-856629Y-725061D01*
X-855567Y-722497D01*
X-855205Y-719746D01*
X-855567Y-716994D01*
X-856629Y-714430D01*
X-858319Y-712229D01*
X-860521Y-710539D01*
X-863084Y-709477D01*
X-865836Y-709115D01*
D02*
G37*
G36*
X-864566Y-734682D02*
Y-743876D01*
X-855372D01*
X-855567Y-742394D01*
X-856629Y-739830D01*
X-858319Y-737629D01*
X-860521Y-735939D01*
X-863084Y-734877D01*
X-864566Y-734682D01*
D02*
G37*
G36*
X-867106Y-734682D02*
X-868587Y-734877D01*
X-871152Y-735939D01*
X-873353Y-737629D01*
X-875043Y-739830D01*
X-876105Y-742394D01*
X-876300Y-743876D01*
X-867106D01*
Y-734682D01*
D02*
G37*
G36*
X-482600Y-725071D02*
X-485584Y-725464D01*
X-488364Y-726616D01*
X-490752Y-728448D01*
X-492584Y-730836D01*
X-493736Y-733616D01*
X-494129Y-736600D01*
X-493736Y-739584D01*
X-492584Y-742364D01*
X-490752Y-744752D01*
X-488364Y-746584D01*
X-485584Y-747736D01*
X-482600Y-748129D01*
X-479616Y-747736D01*
X-476836Y-746584D01*
X-474448Y-744752D01*
X-472616Y-742364D01*
X-471464Y-739584D01*
X-471071Y-736600D01*
X-471464Y-733616D01*
X-472616Y-730836D01*
X-474448Y-728448D01*
X-476836Y-726616D01*
X-479616Y-725464D01*
X-482600Y-725071D01*
D02*
G37*
G36*
X-867106Y-746416D02*
X-876300D01*
X-876105Y-747897D01*
X-875043Y-750462D01*
X-873353Y-752663D01*
X-871152Y-754353D01*
X-868587Y-755415D01*
X-867106Y-755610D01*
Y-746416D01*
D02*
G37*
G36*
X-855372D02*
X-864566D01*
Y-755610D01*
X-863084Y-755415D01*
X-860521Y-754353D01*
X-858319Y-752663D01*
X-856629Y-750462D01*
X-855567Y-747897D01*
X-855372Y-746416D01*
D02*
G37*
G36*
X-482600Y-750471D02*
X-485584Y-750864D01*
X-488364Y-752016D01*
X-490752Y-753848D01*
X-492584Y-756236D01*
X-493736Y-759016D01*
X-494129Y-762000D01*
X-493736Y-764984D01*
X-492584Y-767764D01*
X-490752Y-770152D01*
X-488364Y-771984D01*
X-485584Y-773136D01*
X-482600Y-773529D01*
X-479616Y-773136D01*
X-476836Y-771984D01*
X-474448Y-770152D01*
X-472616Y-767764D01*
X-471464Y-764984D01*
X-471071Y-762000D01*
X-471464Y-759016D01*
X-472616Y-756236D01*
X-474448Y-753848D01*
X-476836Y-752016D01*
X-479616Y-750864D01*
X-482600Y-750471D01*
D02*
G37*
G36*
X-865836Y-759915D02*
X-868587Y-760277D01*
X-871152Y-761339D01*
X-873353Y-763029D01*
X-875043Y-765230D01*
X-876105Y-767794D01*
X-876467Y-770546D01*
X-876105Y-773298D01*
X-875043Y-775862D01*
X-873353Y-778063D01*
X-871152Y-779753D01*
X-868587Y-780815D01*
X-865836Y-781177D01*
X-863084Y-780815D01*
X-860521Y-779753D01*
X-858319Y-778063D01*
X-856629Y-775862D01*
X-855567Y-773298D01*
X-855205Y-770546D01*
X-855567Y-767794D01*
X-856629Y-765230D01*
X-858319Y-763029D01*
X-860521Y-761339D01*
X-863084Y-760277D01*
X-865836Y-759915D01*
D02*
G37*
G36*
X-430530Y-776039D02*
Y-786130D01*
X-420439D01*
X-420664Y-784416D01*
X-421816Y-781636D01*
X-423648Y-779248D01*
X-426036Y-777416D01*
X-428816Y-776264D01*
X-430530Y-776039D01*
D02*
G37*
G36*
X-433070Y-776039D02*
X-434784Y-776264D01*
X-437564Y-777416D01*
X-439952Y-779248D01*
X-441784Y-781636D01*
X-442936Y-784416D01*
X-443161Y-786130D01*
X-433070D01*
Y-776039D01*
D02*
G37*
G36*
X-864566Y-785482D02*
Y-794676D01*
X-855372D01*
X-855567Y-793195D01*
X-856629Y-790630D01*
X-858319Y-788429D01*
X-860521Y-786739D01*
X-863084Y-785677D01*
X-864566Y-785482D01*
D02*
G37*
G36*
X-867106Y-785482D02*
X-868587Y-785677D01*
X-871152Y-786739D01*
X-873353Y-788429D01*
X-875043Y-790630D01*
X-876105Y-793195D01*
X-876300Y-794676D01*
X-867106D01*
Y-785482D01*
D02*
G37*
G36*
X-433070Y-788670D02*
X-443161D01*
X-442936Y-790384D01*
X-441784Y-793164D01*
X-439952Y-795552D01*
X-437564Y-797384D01*
X-434784Y-798536D01*
X-433070Y-798761D01*
Y-788670D01*
D02*
G37*
G36*
X-420439D02*
X-430530D01*
Y-798761D01*
X-428816Y-798536D01*
X-426036Y-797384D01*
X-423648Y-795552D01*
X-421816Y-793164D01*
X-420664Y-790384D01*
X-420439Y-788670D01*
D02*
G37*
G36*
X0Y-699671D02*
X-2984Y-700064D01*
X-5764Y-701216D01*
X-8152Y-703048D01*
X-9984Y-705436D01*
X-11136Y-708216D01*
X-11529Y-711200D01*
X-11136Y-714184D01*
X-9984Y-716964D01*
X-9038Y-718198D01*
X-9599Y-719337D01*
X-12500D01*
X-30000Y-736837D01*
Y-761837D01*
X-12500Y-779337D01*
X-9656D01*
X-9094Y-780476D01*
X-9984Y-781636D01*
X-11136Y-784416D01*
X-11529Y-787400D01*
X-11136Y-790384D01*
X-9984Y-793164D01*
X-8152Y-795552D01*
X-5764Y-797384D01*
X-2984Y-798536D01*
X0Y-798929D01*
X2984Y-798536D01*
X5764Y-797384D01*
X8152Y-795552D01*
X9984Y-793164D01*
X11136Y-790384D01*
X11529Y-787400D01*
X11136Y-784416D01*
X9984Y-781636D01*
X9094Y-780476D01*
X9656Y-779337D01*
X12500D01*
X30000Y-761837D01*
Y-736837D01*
X12500Y-719337D01*
X9599D01*
X9038Y-718198D01*
X9984Y-716964D01*
X11136Y-714184D01*
X11529Y-711200D01*
X11136Y-708216D01*
X9984Y-705436D01*
X8152Y-703048D01*
X5764Y-701216D01*
X2984Y-700064D01*
X0Y-699671D01*
D02*
G37*
G36*
X-867106Y-797216D02*
X-876300D01*
X-876105Y-798698D01*
X-875043Y-801262D01*
X-873353Y-803463D01*
X-871152Y-805153D01*
X-868587Y-806215D01*
X-867106Y-806410D01*
Y-797216D01*
D02*
G37*
G36*
X-855372D02*
X-864566D01*
Y-806410D01*
X-863084Y-806215D01*
X-860521Y-805153D01*
X-858319Y-803463D01*
X-856629Y-801262D01*
X-855567Y-798698D01*
X-855372Y-797216D01*
D02*
G37*
G36*
X-433070Y-801439D02*
X-434784Y-801664D01*
X-437564Y-802816D01*
X-439952Y-804648D01*
X-441784Y-807036D01*
X-442936Y-809816D01*
X-443161Y-811530D01*
X-433070D01*
Y-801439D01*
D02*
G37*
G36*
Y-814070D02*
X-443161D01*
X-442936Y-815784D01*
X-441784Y-818564D01*
X-439952Y-820952D01*
X-437564Y-822784D01*
X-434784Y-823936D01*
X-433070Y-824161D01*
Y-814070D01*
D02*
G37*
G36*
X0Y-801271D02*
X-2984Y-801664D01*
X-5764Y-802816D01*
X-8152Y-804648D01*
X-9984Y-807036D01*
X-11136Y-809816D01*
X-11529Y-812800D01*
X-11136Y-815784D01*
X-9984Y-818564D01*
X-8152Y-820952D01*
X-5764Y-822784D01*
X-2984Y-823936D01*
X0Y-824329D01*
X2984Y-823936D01*
X5764Y-822784D01*
X8152Y-820952D01*
X9984Y-818564D01*
X11136Y-815784D01*
X11529Y-812800D01*
X11136Y-809816D01*
X9984Y-807036D01*
X8152Y-804648D01*
X5764Y-802816D01*
X2984Y-801664D01*
X0Y-801271D01*
D02*
G37*
G36*
X-865836Y-810715D02*
X-868587Y-811077D01*
X-871152Y-812139D01*
X-873353Y-813829D01*
X-875043Y-816031D01*
X-876105Y-818595D01*
X-876467Y-821346D01*
X-876105Y-824098D01*
X-875043Y-826662D01*
X-873353Y-828863D01*
X-871152Y-830553D01*
X-868587Y-831615D01*
X-865836Y-831977D01*
X-863084Y-831615D01*
X-860521Y-830553D01*
X-858319Y-828863D01*
X-856629Y-826662D01*
X-855567Y-824098D01*
X-855205Y-821346D01*
X-855567Y-818595D01*
X-856629Y-816031D01*
X-858319Y-813829D01*
X-860521Y-812139D01*
X-863084Y-811077D01*
X-865836Y-810715D01*
D02*
G37*
G36*
X-864566Y-836282D02*
Y-845476D01*
X-855372D01*
X-855567Y-843995D01*
X-856629Y-841431D01*
X-858319Y-839229D01*
X-860521Y-837539D01*
X-863084Y-836477D01*
X-864566Y-836282D01*
D02*
G37*
G36*
X-867106Y-836282D02*
X-868587Y-836477D01*
X-871152Y-837539D01*
X-873353Y-839229D01*
X-875043Y-841431D01*
X-876105Y-843995D01*
X-876300Y-845476D01*
X-867106D01*
Y-836282D01*
D02*
G37*
G36*
Y-848016D02*
X-876300D01*
X-876105Y-849498D01*
X-875043Y-852061D01*
X-873353Y-854263D01*
X-871152Y-855953D01*
X-868587Y-857015D01*
X-867106Y-857210D01*
Y-848016D01*
D02*
G37*
G36*
X-855372D02*
X-864566D01*
Y-857210D01*
X-863084Y-857015D01*
X-860521Y-855953D01*
X-858319Y-854263D01*
X-856629Y-852061D01*
X-855567Y-849498D01*
X-855372Y-848016D01*
D02*
G37*
G36*
X-864566Y-861682D02*
Y-870876D01*
X-855372D01*
X-855567Y-869395D01*
X-856629Y-866831D01*
X-858319Y-864629D01*
X-860521Y-862939D01*
X-863084Y-861877D01*
X-864566Y-861682D01*
D02*
G37*
G36*
X-867106Y-861682D02*
X-868587Y-861877D01*
X-871152Y-862939D01*
X-873353Y-864629D01*
X-875043Y-866831D01*
X-876105Y-869395D01*
X-876300Y-870876D01*
X-867106D01*
Y-861682D01*
D02*
G37*
G36*
Y-873416D02*
X-876300D01*
X-876105Y-874898D01*
X-875043Y-877461D01*
X-873353Y-879663D01*
X-871152Y-881353D01*
X-868587Y-882415D01*
X-867106Y-882610D01*
Y-873416D01*
D02*
G37*
G36*
X-855372D02*
X-864566D01*
Y-882610D01*
X-863084Y-882415D01*
X-860521Y-881353D01*
X-858319Y-879663D01*
X-856629Y-877461D01*
X-855567Y-874898D01*
X-855372Y-873416D01*
D02*
G37*
G36*
X-865836Y-886915D02*
X-868587Y-887277D01*
X-871152Y-888339D01*
X-873353Y-890029D01*
X-875043Y-892231D01*
X-876105Y-894794D01*
X-876467Y-897546D01*
X-876105Y-900297D01*
X-875043Y-902861D01*
X-873353Y-905063D01*
X-871152Y-906753D01*
X-868587Y-907815D01*
X-865836Y-908177D01*
X-863084Y-907815D01*
X-860521Y-906753D01*
X-858319Y-905063D01*
X-856629Y-902861D01*
X-855567Y-900297D01*
X-855205Y-897546D01*
X-855567Y-894794D01*
X-856629Y-892231D01*
X-858319Y-890029D01*
X-860521Y-888339D01*
X-863084Y-887277D01*
X-865836Y-886915D01*
D02*
G37*
G36*
Y-912315D02*
X-868587Y-912677D01*
X-871152Y-913739D01*
X-873353Y-915429D01*
X-875043Y-917630D01*
X-876105Y-920194D01*
X-876467Y-922946D01*
X-876105Y-925697D01*
X-875043Y-928261D01*
X-873353Y-930463D01*
X-871152Y-932153D01*
X-868587Y-933215D01*
X-865836Y-933577D01*
X-863084Y-933215D01*
X-860521Y-932153D01*
X-858319Y-930463D01*
X-856629Y-928261D01*
X-855567Y-925697D01*
X-855205Y-922946D01*
X-855567Y-920194D01*
X-856629Y-917630D01*
X-858319Y-915429D01*
X-860521Y-913739D01*
X-863084Y-912677D01*
X-865836Y-912315D01*
D02*
G37*
G36*
X-570688Y-1016314D02*
X-578958D01*
Y-1024584D01*
X-570688D01*
Y-1016314D01*
D02*
G37*
G36*
X-634188D02*
X-642458D01*
Y-1024584D01*
X-634188D01*
Y-1016314D01*
D02*
G37*
G36*
X-697688D02*
X-705958D01*
Y-1024584D01*
X-697688D01*
Y-1016314D01*
D02*
G37*
G36*
X-761188D02*
X-769458D01*
Y-1024584D01*
X-761188D01*
Y-1016314D01*
D02*
G37*
G36*
X-581498D02*
X-589768D01*
Y-1024584D01*
X-581498D01*
Y-1016314D01*
D02*
G37*
G36*
X-644998D02*
X-653268D01*
Y-1024584D01*
X-644998D01*
Y-1016314D01*
D02*
G37*
G36*
X-708498D02*
X-716768D01*
Y-1024584D01*
X-708498D01*
Y-1016314D01*
D02*
G37*
G36*
X-771998D02*
X-780268D01*
Y-1024584D01*
X-771998D01*
Y-1016314D01*
D02*
G37*
G36*
X-581498Y-1027124D02*
X-589768D01*
Y-1035394D01*
X-581498D01*
Y-1027124D01*
D02*
G37*
G36*
X-634188D02*
X-642458D01*
Y-1035394D01*
X-634188D01*
Y-1027124D01*
D02*
G37*
G36*
X-644998D02*
X-653268D01*
Y-1035394D01*
X-644998D01*
Y-1027124D01*
D02*
G37*
G36*
X-697688D02*
X-705958D01*
Y-1035394D01*
X-697688D01*
Y-1027124D01*
D02*
G37*
G36*
X-708498D02*
X-716768D01*
Y-1035394D01*
X-708498D01*
Y-1027124D01*
D02*
G37*
G36*
X-761188D02*
X-769458D01*
Y-1035394D01*
X-761188D01*
Y-1027124D01*
D02*
G37*
G36*
X-580228Y-1066232D02*
X-582718Y-1066560D01*
X-585039Y-1067521D01*
X-587032Y-1069050D01*
X-588561Y-1071043D01*
X-589522Y-1073364D01*
X-589850Y-1075854D01*
X-589522Y-1078345D01*
X-588561Y-1080665D01*
X-587032Y-1082658D01*
X-585039Y-1084187D01*
X-582718Y-1085149D01*
X-580228Y-1085476D01*
X-577738Y-1085149D01*
X-575417Y-1084187D01*
X-573424Y-1082658D01*
X-571895Y-1080665D01*
X-570934Y-1078345D01*
X-570606Y-1075854D01*
X-570934Y-1073364D01*
X-571895Y-1071043D01*
X-573424Y-1069050D01*
X-575417Y-1067521D01*
X-577738Y-1066560D01*
X-580228Y-1066232D01*
D02*
G37*
G36*
X-643728D02*
X-646218Y-1066560D01*
X-648539Y-1067521D01*
X-650532Y-1069050D01*
X-652061Y-1071043D01*
X-653022Y-1073364D01*
X-653350Y-1075854D01*
X-653022Y-1078345D01*
X-652061Y-1080665D01*
X-650532Y-1082658D01*
X-648539Y-1084187D01*
X-646218Y-1085149D01*
X-643728Y-1085476D01*
X-641238Y-1085149D01*
X-638917Y-1084187D01*
X-636924Y-1082658D01*
X-635395Y-1080665D01*
X-634434Y-1078345D01*
X-634106Y-1075854D01*
X-634434Y-1073364D01*
X-635395Y-1071043D01*
X-636924Y-1069050D01*
X-638917Y-1067521D01*
X-641238Y-1066560D01*
X-643728Y-1066232D01*
D02*
G37*
G36*
X-707228D02*
X-709718Y-1066560D01*
X-712039Y-1067521D01*
X-714032Y-1069050D01*
X-715561Y-1071043D01*
X-716522Y-1073364D01*
X-716850Y-1075854D01*
X-716522Y-1078345D01*
X-715561Y-1080665D01*
X-714032Y-1082658D01*
X-712039Y-1084187D01*
X-709718Y-1085149D01*
X-707228Y-1085476D01*
X-704738Y-1085149D01*
X-702417Y-1084187D01*
X-700424Y-1082658D01*
X-698895Y-1080665D01*
X-697934Y-1078345D01*
X-697606Y-1075854D01*
X-697934Y-1073364D01*
X-698895Y-1071043D01*
X-700424Y-1069050D01*
X-702417Y-1067521D01*
X-704738Y-1066560D01*
X-707228Y-1066232D01*
D02*
G37*
G36*
X-770728D02*
X-773218Y-1066560D01*
X-775539Y-1067521D01*
X-777532Y-1069050D01*
X-779061Y-1071043D01*
X-780022Y-1073364D01*
X-780350Y-1075854D01*
X-780022Y-1078345D01*
X-779061Y-1080665D01*
X-777532Y-1082658D01*
X-775539Y-1084187D01*
X-773218Y-1085149D01*
X-770728Y-1085476D01*
X-768238Y-1085149D01*
X-765917Y-1084187D01*
X-763924Y-1082658D01*
X-762395Y-1080665D01*
X-761434Y-1078345D01*
X-761106Y-1075854D01*
X-761434Y-1073364D01*
X-762395Y-1071043D01*
X-763924Y-1069050D01*
X-765917Y-1067521D01*
X-768238Y-1066560D01*
X-770728Y-1066232D01*
D02*
G37*
G36*
X50774Y-1042721D02*
X25774D01*
X8274Y-1060221D01*
Y-1085221D01*
X25774Y-1102721D01*
X50774D01*
X68274Y-1085221D01*
Y-1060221D01*
X50774Y-1042721D01*
D02*
G37*
G36*
X-829226D02*
X-854226D01*
X-871726Y-1060221D01*
Y-1085221D01*
X-854226Y-1102721D01*
X-829226D01*
X-811726Y-1085221D01*
Y-1060221D01*
X-829226Y-1042721D01*
D02*
G37*
%LPD*%
D11*
X-811024Y-389128D02*
X-788416D01*
X-828386Y-371766D02*
X-811024Y-389128D01*
X-846591Y-403179D02*
X-818224Y-431546D01*
X-800490D01*
X-701640Y-746924D02*
X-701640Y-681666D01*
X-709768Y-773797D02*
Y-747940D01*
X-709768Y-694366D01*
X-717896Y-749972D02*
X-717896Y-707066D01*
X-514696Y-764622D02*
Y-31416D01*
X-516517Y-766443D02*
X-514696Y-764622D01*
X-516517Y-767244D02*
Y-766443D01*
X-307340Y-840442D02*
Y-840232D01*
X-254000Y-827742D02*
Y-812800D01*
X-307340Y-840232D02*
X-292100Y-824992D01*
X-266700Y-840442D02*
X-254000Y-827742D01*
X-292100Y-824992D02*
Y-800100D01*
X-280039Y-826301D02*
Y-813439D01*
X-312258Y-858520D02*
X-280039Y-826301D01*
Y-813439D02*
X-279400Y-812800D01*
X-360680Y-856742D02*
X-342900Y-838962D01*
Y-800100D01*
X-387132Y-856080D02*
X-368300Y-837248D01*
X-547208Y-807042D02*
Y32084D01*
X-547208Y32084D01*
X-505128Y-849122D02*
X-435102D01*
X-547208Y-807042D02*
X-536032Y-818218D01*
Y-818218D02*
Y-818218D01*
X-503024Y-844042D02*
X-442807D01*
X-419100Y-820335D01*
X-530952Y-816114D02*
X-503024Y-844042D01*
X-536032Y-818218D02*
X-505128Y-849122D01*
X-435102D02*
X-409030Y-823050D01*
X-530952Y-816114D02*
Y-756576D01*
X-409030Y-823050D02*
Y-815430D01*
X-419100Y-820335D02*
Y-800100D01*
X-368300Y-837248D02*
Y-820335D01*
X-292100Y-800100D02*
X-279400Y-787400D01*
X-515459Y-874712D02*
X-355282D01*
X-339090Y-858520D01*
X-201036Y-988436D02*
X-25400Y-812800D01*
X-38100Y-818316D02*
Y-800100D01*
X-100676Y-874940D02*
X-100110Y-874374D01*
X-94158D01*
X-38100Y-818316D01*
X-126076Y-874940D02*
X-125510Y-874374D01*
X-63500Y-818316D02*
Y-800100D01*
X-125510Y-874374D02*
X-119558D01*
X-63500Y-818316D01*
X-205100Y-967100D02*
X-50800Y-812800D01*
X-151476Y-874940D02*
X-150910Y-874374D01*
X-225420Y-962020D02*
X-76200Y-812800D01*
X-88900Y-818316D02*
Y-800100D01*
X-150910Y-874374D02*
X-144958D01*
X-88900Y-818316D01*
X-524521Y-951860D02*
X-247844D01*
X-114300Y-818316D02*
Y-800100D01*
X-247844Y-951860D02*
X-114300Y-818316D01*
X-245740Y-956940D02*
X-101600Y-812800D01*
X-242946Y-928746D02*
X-127000Y-812800D01*
X-139700Y-818316D02*
Y-800100D01*
X-202276Y-874940D02*
X-201710Y-874374D01*
X-195758D01*
X-139700Y-818316D01*
X-230724Y-878496D02*
X-200351Y-848123D01*
X-194907D01*
X-248534Y-908934D02*
X-152400Y-812800D01*
X-165100Y-818316D02*
Y-800100D01*
X-194907Y-848123D02*
X-165100Y-818316D01*
X-227422Y-865288D02*
X-190500Y-828366D01*
Y-800100D01*
X-215900Y-820335D02*
Y-800100D01*
Y-825500D02*
Y-820335D01*
X-285432Y-895032D02*
X-215900Y-825500D01*
X-241300D02*
Y-800100D01*
X-305752Y-889952D02*
X-241300Y-825500D01*
X-266700D02*
Y-800100D01*
X-326072Y-884872D02*
X-266700Y-825500D01*
X-317500Y-820335D02*
Y-800100D01*
Y-850900D02*
Y-820335D01*
X-346392Y-879792D02*
X-317500Y-850900D01*
X-355600Y-838200D02*
Y-812800D01*
X-511251Y-864552D02*
X-381952D01*
X-355600Y-838200D01*
X-330200D02*
Y-812800D01*
X-361632Y-869632D02*
X-330200Y-838200D01*
X-368300Y-820335D02*
Y-800100D01*
X-383154Y-823526D02*
Y-814954D01*
X-419100Y-859472D02*
Y-859472D01*
X-383154Y-823526D01*
Y-814954D02*
X-381000Y-812800D01*
X-509146Y-859472D02*
X-419100D01*
X-393700Y-820335D02*
Y-800100D01*
X-427757Y-854392D02*
X-393700Y-820335D01*
X-507042Y-854392D02*
X-427757D01*
X-409030Y-815430D02*
X-406400Y-812800D01*
X-38100Y-800100D02*
X-25400Y-787400D01*
X-63500Y-800100D02*
X-50800Y-787400D01*
X-88900Y-800100D02*
X-76200Y-787400D01*
X-114300Y-800100D02*
X-101600Y-787400D01*
X-139700Y-800100D02*
X-127000Y-787400D01*
X-165100Y-800100D02*
X-152400Y-787400D01*
X-190500Y-800100D02*
X-177800Y-787400D01*
X-215900Y-800100D02*
X-203200Y-787400D01*
X-241300Y-800100D02*
X-228600Y-787400D01*
X-266700Y-800100D02*
X-254000Y-787400D01*
X-317500Y-800100D02*
X-304800Y-787400D01*
X-368300Y-800100D02*
X-355600Y-787400D01*
X-342900Y-800100D02*
X-330200Y-787400D01*
X-393700Y-800100D02*
X-381000Y-787400D01*
X-419100Y-800100D02*
X-406400Y-787400D01*
X-531170Y-981132D02*
X-257751D01*
X-250809Y-974191D01*
X-742280Y-770022D02*
X-531170Y-981132D01*
X-584292Y-966126D02*
X-571338Y-979080D01*
X-639947Y-973463D02*
X-634330Y-979080D01*
X-797652Y-927264D02*
X-743040Y-981876D01*
X-721234D01*
X-805526Y-934884D02*
X-761330Y-979080D01*
X-718005Y-808666D02*
X-538235Y-988436D01*
X-531675Y-994996D02*
X-221326D01*
X-538235Y-988436D02*
X-531675Y-994996D01*
X-534809Y-970309D02*
X-532024Y-973094D01*
X-734152Y-770966D02*
X-534809Y-970309D01*
X-532024Y-973094D02*
X-269390D01*
X-268824Y-973660D01*
X-531050Y-988436D02*
X-201036D01*
X-531794Y-987692D02*
X-531050Y-988436D01*
X-526707Y-935306D02*
X-282032D01*
X-685384Y-776629D02*
X-526707Y-935306D01*
X-661000Y-779460D02*
X-530426Y-910034D01*
X-525533Y-914928D01*
X-312824D01*
X-312258Y-915494D01*
X-524500Y-901592D02*
X-323688D01*
X-644744Y-781348D02*
X-524500Y-901592D01*
X-285800Y-922142D02*
X-278687Y-915029D01*
X-272636Y-945300D02*
X-265014Y-937678D01*
X-278687Y-915029D02*
X-278687D01*
X-278222Y-915494D01*
X-525086Y-908190D02*
X-524342Y-908934D01*
X-523876Y-895032D02*
X-285432D01*
X-518307Y-879048D02*
X-517563Y-879792D01*
X-516203Y-873968D02*
X-515459Y-874712D01*
X-526827Y-928002D02*
X-526083Y-928746D01*
X-528730Y-962020D02*
X-225420D01*
X-526246Y-921398D02*
X-525503Y-922142D01*
X-285800D01*
X-531578Y-966356D02*
X-530834Y-967100D01*
X-628488Y-783235D02*
X-522516Y-889208D01*
X-529473Y-961276D02*
X-528730Y-962020D01*
X-520411Y-884128D02*
X-519667Y-884872D01*
X-521772Y-889952D02*
X-305752D01*
X-507786Y-853648D02*
X-507042Y-854392D01*
X-523897Y-945300D02*
X-272636D01*
X-519667Y-884872D02*
X-326072D01*
X-530834Y-967100D02*
X-205100D01*
X-620360Y-784179D02*
X-520411Y-884128D01*
X-669128Y-778516D02*
X-526246Y-921398D01*
X-555336Y-806098D02*
X-507786Y-853648D01*
X-527369Y-956196D02*
X-526625Y-956940D01*
X-513355Y-869632D02*
X-361632D01*
X-726024Y-771910D02*
X-531578Y-966356D01*
X-693512Y-775685D02*
X-524641Y-944556D01*
X-524342Y-908934D02*
X-248534D01*
X-522516Y-889208D02*
X-521772Y-889952D01*
X-526083Y-928746D02*
X-242946D01*
X-736220Y-783266D02*
X-531794Y-987692D01*
X-526625Y-956940D02*
X-245740D01*
X-525265Y-951116D02*
X-524521Y-951860D01*
X-677256Y-777572D02*
X-526827Y-928002D01*
X-509891Y-858728D02*
X-509146Y-859472D01*
X-524620Y-894288D02*
X-523876Y-895032D01*
X-524641Y-944556D02*
X-523897Y-945300D01*
X-709768Y-773797D02*
X-527369Y-956196D01*
X-717896Y-772853D02*
X-529473Y-961276D01*
X-514099Y-868888D02*
X-513355Y-869632D01*
X-511995Y-863808D02*
X-511251Y-864552D01*
X-571592Y-804210D02*
X-511995Y-863808D01*
X-517563Y-879792D02*
X-346392D01*
X-652872Y-780404D02*
X-525086Y-908190D01*
X-636616Y-782291D02*
X-524620Y-894288D01*
X-612232Y-785123D02*
X-518307Y-879048D01*
X-604104Y-786067D02*
X-516203Y-873968D01*
X-701640Y-774741D02*
X-525265Y-951116D01*
X-563464Y-805154D02*
X-509891Y-858728D01*
X-579720Y-803267D02*
X-514099Y-868888D01*
X-734152Y-770966D02*
Y-745166D01*
X-753270Y-808666D02*
X-718005D01*
X-563464Y-805154D02*
Y-756576D01*
X-742280Y-770022D02*
Y-757866D01*
X-701640Y-774741D02*
Y-746924D01*
X-628488Y-783235D02*
Y-756576D01*
X-750408Y-783266D02*
X-736220D01*
X-717896Y-772853D02*
Y-749972D01*
X-612232Y-785123D02*
Y-756576D01*
X-620360Y-784179D02*
Y-756576D01*
X-685384Y-776629D02*
Y-738288D01*
X-644744Y-781348D02*
Y-605466D01*
X-579720Y-803267D02*
Y-756576D01*
X-677256Y-777572D02*
Y-738288D01*
X-604104Y-786067D02*
Y-756576D01*
X-555336Y-806098D02*
Y-756576D01*
X-661000Y-779460D02*
Y-630866D01*
X-726024Y-771910D02*
Y-732466D01*
X-652872Y-780404D02*
Y-618166D01*
X-669128Y-778516D02*
Y-592766D01*
X-571592Y-804210D02*
Y-756576D01*
X-693512Y-775685D02*
Y-749972D01*
X-830924Y-479735D02*
X-816194Y-494465D01*
X-831729Y-492832D02*
X-821274Y-503287D01*
X-829527Y-504311D02*
X-828961Y-504877D01*
X-826354Y-807264D02*
Y-510445D01*
X-828961Y-507838D02*
Y-504877D01*
Y-507838D02*
X-826354Y-510445D01*
X-840436Y-846746D02*
X-821274Y-827584D01*
Y-503287D01*
X-840436Y-872146D02*
X-816194Y-847904D01*
X-840436Y-821346D02*
X-826354Y-807264D01*
X-816194Y-847904D02*
Y-494465D01*
X-840436Y-897546D02*
X-810860Y-867970D01*
Y-486320D01*
X-805526Y-934884D02*
Y-539152D01*
X-831434Y-465746D02*
X-810860Y-486320D01*
X-805526Y-539152D02*
X-787492Y-521118D01*
X-831739Y-465746D02*
X-831434D01*
X-821230Y-340524D02*
X-820766Y-340060D01*
Y-292366D01*
X-814206Y-359530D02*
Y-326773D01*
X-828920Y-380587D02*
Y-380509D01*
Y-380587D02*
X-800490Y-409017D01*
Y-409094D02*
Y-409017D01*
X-828386Y-371766D02*
Y-310146D01*
X-840436Y-272696D02*
X-820766Y-292366D01*
X-814206Y-359530D02*
X-799176Y-374560D01*
X-853278Y-503704D02*
Y44662D01*
X-790032Y-556424D02*
X-790032Y-924216D01*
X-783174Y-919395D02*
Y-541946D01*
Y-919395D02*
X-736443Y-966126D01*
X-790032Y-924216D02*
X-740785Y-973463D01*
X-797652Y-927264D02*
Y-540168D01*
X-789016Y-531532D01*
X-768696Y-523658D02*
Y-518012D01*
X-775386Y-511322D02*
X-768696Y-518012D01*
X-789016Y-531532D02*
X-776570D01*
X-768696Y-523658D01*
X-787492Y-521118D02*
X-776316D01*
X-753500Y-808436D02*
X-753270Y-808666D01*
X-736443Y-966126D02*
X-584292D01*
X-740785Y-973463D02*
X-639947D01*
X-840436Y-298096D02*
X-828386Y-310146D01*
X-636616Y-782291D02*
Y-234826D01*
X-636406Y-234616D01*
X-693512Y-749972D02*
X-693512Y-656266D01*
X-853278Y-503704D02*
X-840436Y-516546D01*
X-853278Y44662D02*
X-840436Y57504D01*
X-824830Y41898D01*
Y-163486D02*
Y41898D01*
Y-163486D02*
X-803748Y-184568D01*
X-647538D01*
X-595976Y-133016D02*
X-595976Y-133016D01*
X-595976Y-133016D02*
X-595722Y-133270D01*
Y-762418D02*
Y-133270D01*
X-555336Y-756576D02*
X-555336Y-56816D01*
X-612232Y-756576D02*
X-612232Y-171116D01*
X-604104Y-756576D02*
X-604104Y-158416D01*
X-559908Y44784D02*
X-547208Y32084D01*
X-685384Y-738288D02*
X-685384Y-643566D01*
X-677256Y-738288D02*
X-677256Y-630866D01*
X-522824Y-756576D02*
X-522824Y19384D01*
X-530952Y-756576D02*
X-530952Y6684D01*
X-539080Y-756576D02*
X-539080Y-6016D01*
X-563464Y-756576D02*
X-563464Y-69516D01*
X-571592Y-756576D02*
X-571592Y-82216D01*
X-579720Y-756576D02*
X-579720Y-107616D01*
X-587848Y-751242D02*
X-587848Y-120316D01*
X-620360Y-756576D02*
X-620360Y-183816D01*
X-628488Y-756576D02*
X-628488Y-209216D01*
X-652872Y-618166D02*
X-652872Y-618166D01*
D13*
X-558638Y-1029264D02*
Y-978862D01*
X-580228Y-1050854D02*
X-558638Y-1029264D01*
X-643728Y-1050854D02*
X-580228D01*
X-707228D02*
X-643728D01*
X-770728D02*
X-707228D01*
X-840436Y-981146D02*
Y-922946D01*
Y-981146D02*
X-770728Y-1050854D01*
X-761330Y-816038D02*
X-746815Y-830553D01*
X-761330Y-816038D02*
Y-502110D01*
X-746815Y-830553D02*
X-706947D01*
X-558638Y-978862D01*
X-746386Y-399054D02*
X-701386Y-354054D01*
X-775386Y-402754D02*
X-750086D01*
X-746386Y-399054D01*
X-701386D01*
X-750086Y-402754D02*
X-742686D01*
X-701386Y-444054D01*
X-775386Y-488054D02*
Y-444054D01*
Y-436450D01*
Y-399054D02*
Y-355054D01*
X-793334Y-418502D02*
X-775386Y-436450D01*
X-813146Y-418502D02*
X-791134D01*
X-775386Y-488054D02*
X-761330Y-502110D01*
X-840436Y-391212D02*
X-813146Y-418502D01*
X-775386Y-311054D02*
Y-265054D01*
Y-355054D02*
Y-311054D01*
Y-402754D02*
Y-399054D01*
X-701386Y-310054D02*
Y-265054D01*
Y-354054D02*
Y-310054D01*
Y-488054D02*
Y-444054D01*
X-791134Y-418502D02*
X-775386Y-402754D01*
X-840436Y-391212D02*
Y-348896D01*
D21*
X-770728Y-1025854D02*
D03*
X-707228D02*
D03*
X-643728D02*
D03*
X-580228D02*
D03*
D22*
X-770728Y-1050854D02*
D03*
Y-1075854D02*
D03*
X-707228D02*
D03*
Y-1050854D02*
D03*
X-643728Y-1075854D02*
D03*
Y-1050854D02*
D03*
X-580228Y-1075854D02*
D03*
Y-1050854D02*
D03*
D29*
X0Y-787400D02*
D03*
X-25400D02*
D03*
X-50800D02*
D03*
X-76200D02*
D03*
X-101600D02*
D03*
X-127000D02*
D03*
X-152400D02*
D03*
X-177800D02*
D03*
X-203200D02*
D03*
X0Y-812800D02*
D03*
X-228600Y-787400D02*
D03*
X-254000D02*
D03*
X-279400D02*
D03*
X-304800D02*
D03*
X-330200D02*
D03*
X-355600D02*
D03*
X-381000D02*
D03*
X-406400D02*
D03*
X-431800D02*
D03*
X-25400Y-812800D02*
D03*
X-50800D02*
D03*
X-76200D02*
D03*
X-101600D02*
D03*
X-127000D02*
D03*
X-152400D02*
D03*
X-177800D02*
D03*
X-203200D02*
D03*
X-228600D02*
D03*
X-254000D02*
D03*
X-279400D02*
D03*
X-304800D02*
D03*
X-330200D02*
D03*
X-355600D02*
D03*
X-381000D02*
D03*
X-406400D02*
D03*
X-431800D02*
D03*
X0Y-213360D02*
D03*
Y-187960D02*
D03*
Y-162560D02*
D03*
Y-137160D02*
D03*
Y-111760D02*
D03*
Y-86360D02*
D03*
Y-60960D02*
D03*
Y-35560D02*
D03*
Y-238760D02*
D03*
Y-264160D02*
D03*
Y-533400D02*
D03*
Y-558800D02*
D03*
Y-584200D02*
D03*
Y-609600D02*
D03*
Y-635000D02*
D03*
Y-660400D02*
D03*
Y-685800D02*
D03*
Y-711200D02*
D03*
Y-482600D02*
D03*
Y-457200D02*
D03*
Y-431800D02*
D03*
Y-406400D02*
D03*
Y-381000D02*
D03*
Y-355600D02*
D03*
Y-330200D02*
D03*
Y-304800D02*
D03*
X-482600D02*
D03*
Y-279400D02*
D03*
Y-254000D02*
D03*
Y-228600D02*
D03*
Y-203200D02*
D03*
Y-177800D02*
D03*
Y-152400D02*
D03*
Y-127000D02*
D03*
Y-533400D02*
D03*
Y-508000D02*
D03*
Y-482600D02*
D03*
Y-457200D02*
D03*
Y-431800D02*
D03*
Y-406400D02*
D03*
Y-381000D02*
D03*
Y-355600D02*
D03*
Y-762000D02*
D03*
Y-736600D02*
D03*
Y-711200D02*
D03*
Y-685800D02*
D03*
Y-660400D02*
D03*
Y-635000D02*
D03*
Y-609600D02*
D03*
Y-584200D02*
D03*
D30*
X-840436Y57504D02*
D03*
Y32104D02*
D03*
Y6704D02*
D03*
Y-18696D02*
D03*
Y-44096D02*
D03*
X-865836Y57504D02*
D03*
Y32104D02*
D03*
Y6704D02*
D03*
Y-18696D02*
D03*
Y-44096D02*
D03*
X-840436Y-94896D02*
D03*
Y-120296D02*
D03*
X-865836Y-94896D02*
D03*
Y-120296D02*
D03*
X-840436Y-196496D02*
D03*
X-865836D02*
D03*
Y-348896D02*
D03*
X-840436Y-323496D02*
D03*
X-865836D02*
D03*
Y-298096D02*
D03*
X-840436D02*
D03*
X-865836Y-272696D02*
D03*
X-840436D02*
D03*
X-865836Y-247296D02*
D03*
Y-221896D02*
D03*
X-840436Y-247296D02*
D03*
Y-221896D02*
D03*
X-865836Y-171096D02*
D03*
Y-145696D02*
D03*
X-840436Y-171096D02*
D03*
Y-145696D02*
D03*
X-865836Y-69496D02*
D03*
X-840436D02*
D03*
Y-516546D02*
D03*
Y-541946D02*
D03*
Y-567346D02*
D03*
Y-592746D02*
D03*
Y-618146D02*
D03*
X-865836Y-516546D02*
D03*
Y-541946D02*
D03*
Y-567346D02*
D03*
Y-592746D02*
D03*
Y-618146D02*
D03*
X-840436Y-668946D02*
D03*
Y-694346D02*
D03*
X-865836Y-668946D02*
D03*
Y-694346D02*
D03*
X-840436Y-770546D02*
D03*
X-865836D02*
D03*
Y-922946D02*
D03*
X-840436Y-897546D02*
D03*
X-865836D02*
D03*
Y-872146D02*
D03*
X-840436D02*
D03*
X-865836Y-846746D02*
D03*
X-840436D02*
D03*
X-865836Y-821346D02*
D03*
Y-795946D02*
D03*
X-840436Y-821346D02*
D03*
Y-795946D02*
D03*
X-865836Y-745146D02*
D03*
Y-719746D02*
D03*
X-840436Y-745146D02*
D03*
Y-719746D02*
D03*
X-865836Y-643546D02*
D03*
X-840436D02*
D03*
D31*
Y-348896D02*
D03*
Y-922946D02*
D03*
D32*
X-229100Y-484000D02*
D03*
X-254500D02*
D03*
X-203700Y-509400D02*
D03*
X-254500D02*
D03*
X-229100D02*
D03*
D33*
X-203700Y-484000D02*
D03*
D34*
X0Y0D02*
D03*
X-431000Y-508000D02*
D03*
X-152000D02*
D03*
X-781726Y77316D02*
D03*
X38274Y-1072684D02*
D03*
X-841726D02*
D03*
X-482600Y-812800D02*
D03*
X0Y-749300D02*
D03*
D35*
X-788416Y-389128D02*
D03*
X-800490Y-431546D02*
D03*
X-751224Y-277278D02*
D03*
Y-322998D02*
D03*
Y-367919D02*
D03*
Y-411898D02*
D03*
Y-456089D02*
D03*
X-775386Y-511068D02*
D03*
X-701640Y-681666D02*
D03*
X-709768Y-694366D02*
D03*
X-717896Y-707066D02*
D03*
X-516517Y-767244D02*
D03*
X-307340Y-840442D02*
D03*
X-266700D02*
D03*
X-312258Y-858520D02*
D03*
X-360680Y-856742D02*
D03*
X-387132Y-856080D02*
D03*
X-339090Y-858520D02*
D03*
X-126076Y-874940D02*
D03*
X-151476D02*
D03*
X-202276D02*
D03*
X-250809Y-974191D02*
D03*
X-571338Y-979080D02*
D03*
X-634330D02*
D03*
X-721234Y-981876D02*
D03*
X-761330Y-979080D02*
D03*
X-278222Y-915494D02*
D03*
X-323688Y-901592D02*
D03*
X-268824Y-973660D02*
D03*
X-282032Y-935306D02*
D03*
X-312258Y-915494D02*
D03*
X-221326Y-994996D02*
D03*
X-265014Y-937678D02*
D03*
X-830924Y-479735D02*
D03*
X-831729Y-492832D02*
D03*
X-829527Y-504311D02*
D03*
X-831739Y-465746D02*
D03*
X-821230Y-340524D02*
D03*
X-814206Y-326773D02*
D03*
X-828920Y-380509D02*
D03*
X-800490Y-409094D02*
D03*
X-799176Y-374560D02*
D03*
X-846591Y-403179D02*
D03*
X-790032Y-556424D02*
D03*
X-783174Y-541946D02*
D03*
X-776316Y-521118D02*
D03*
X-753500Y-808436D02*
D03*
X-751224Y-500370D02*
D03*
X-775386Y-311054D02*
D03*
X-701386Y-354054D02*
D03*
Y-444054D02*
D03*
X-775386D02*
D03*
Y-399054D02*
D03*
Y-355054D02*
D03*
X-701386Y-310054D02*
D03*
Y-399054D02*
D03*
Y-265054D02*
D03*
X-775386D02*
D03*
Y-488054D02*
D03*
X-701386D02*
D03*
X-644236Y-457105D02*
D03*
Y-278294D02*
D03*
Y-501296D02*
D03*
Y-412914D02*
D03*
Y-368935D02*
D03*
Y-324014D02*
D03*
X-636406Y-234616D02*
D03*
X-587848Y-751242D02*
D03*
X-230724Y-878496D02*
D03*
X-595722Y-762418D02*
D03*
X-647538Y-184568D02*
D03*
X-227422Y-865288D02*
D03*
X-100676Y-874940D02*
D03*
X-652872Y-618166D02*
D03*
X-669128Y-592766D02*
D03*
X-661000Y-630866D02*
D03*
X-644744Y-605466D02*
D03*
X-604104Y-158416D02*
D03*
X-612232Y-171116D02*
D03*
X-742280Y-757866D02*
D03*
X-734152Y-745166D02*
D03*
X-726024Y-732466D02*
D03*
X-522824Y-756576D02*
D03*
X-539080Y-756576D02*
D03*
X-555336Y-56816D02*
D03*
X-620360Y-183816D02*
D03*
X-628488Y-209216D02*
D03*
X-677256Y-630866D02*
D03*
X-685384Y-643566D02*
D03*
X-750408Y-783266D02*
D03*
X-693512Y-656266D02*
D03*
X-559908Y44784D02*
D03*
X-514696Y-31416D02*
D03*
X-571592Y-82216D02*
D03*
X-579720Y-107616D02*
D03*
X-587848Y-120316D02*
D03*
X-595976Y-133016D02*
D03*
X-563464Y-69516D02*
D03*
X-539080Y-6016D02*
D03*
X-530952Y6684D02*
D03*
X-522824Y19384D02*
D03*
D36*
X-751224Y-278294D02*
X-729180Y-256250D01*
X-751224Y-322998D02*
Y-278294D01*
Y-367919D02*
Y-322998D01*
Y-456089D02*
Y-412914D01*
Y-500370D02*
Y-456089D01*
X-729180Y-256250D02*
X-685750D01*
X-644236Y-278294D02*
Y-214736D01*
X-685750Y-256250D02*
X-644236Y-214736D01*
Y-188327D01*
X-738168Y-513426D02*
X-656366D01*
X-751224Y-500370D02*
X-738168Y-513426D01*
X-656366D02*
X-644236Y-501296D01*
X-647538Y-185025D02*
Y-184568D01*
X-644236Y-324014D02*
Y-278294D01*
Y-368935D02*
Y-324014D01*
Y-412914D02*
Y-368935D01*
Y-457105D02*
Y-412914D01*
Y-501296D02*
Y-457105D01*
X-647538Y-185025D02*
X-644236Y-188327D01*
M02*
