M48
;Layer_Color=9474304
;FILE_FORMAT=4:4
METRIC,TZ
;TYPE=PLATED
T1F00S00C0.2500
T2F00S00C0.9000
T3F00S00C1.0160
T4F00S00C1.0400
T5F00S00C1.1000
T6F00S00C3.2000
%
T01
X-100676Y-874940
X-126076
X-151476
X-202276
X-230724Y-878496
X-227422Y-865288
X-266700Y-840442
X-307340
X-312258Y-858520
X-339090
X-360680Y-856742
X-387132Y-856080
X-323688Y-901592
X-312258Y-915494
X-278222
X-282032Y-935306
X-265014Y-937678
X-268824Y-973660
X-250809Y-974191
X-221326Y-994996
X-516517Y-767244
X-522824Y-756576
X-539080Y-756576
X-587848Y-751242
X-595722Y-762418
X-742280Y-757866
X-734152Y-745166
X-726024Y-732466
X-717896Y-707066
X-750408Y-783266
X-753500Y-808436
X-761330Y-979080
X-721234Y-981876
X-634330Y-979080
X-571338
X-709768Y-694366
X-701640Y-681666
X-693512Y-656266
X-685384Y-643566
X-677256Y-630866
X-661000
X-652872Y-618166
X-644744Y-605466
X-669128Y-592766
X-644236Y-501296
Y-457105
Y-412914
Y-368935
Y-324014
X-701386Y-310054
Y-354054
Y-399054
Y-444054
Y-488054
X-751224Y-500370
X-775386Y-511068
X-776316Y-521118
X-783174Y-541946
X-790032Y-556424
X-775386Y-488054
Y-444054
X-751224Y-456089
Y-411898
X-775386Y-399054
X-788416Y-389128
X-799176Y-374560
X-828920Y-380509
X-846591Y-403179
X-800490Y-409094
Y-431546
X-831739Y-465746
X-830924Y-479735
X-831729Y-492832
X-829527Y-504311
X-821230Y-340524
X-814206Y-326773
X-775386Y-311054
X-751224Y-322998
Y-367919
X-775386Y-355054
X-514696Y-31416
X-539080Y-6016
X-530952Y6684
X-522824Y19384
X-559908Y44784
X-555336Y-56816
X-563464Y-69516
X-571592Y-82216
X-579720Y-107616
X-587848Y-120316
X-595976Y-133016
X-604104Y-158416
X-612232Y-171116
X-620360Y-183816
X-647538Y-184568
X-628488Y-209216
X-636406Y-234616
X-644236Y-278294
X-701386Y-265054
X-751224Y-277278
X-775386Y-265054
T02
X-770728Y-1075854
Y-1050854
Y-1025854
X-707228
Y-1050854
Y-1075854
X-643728
Y-1050854
Y-1025854
X-580228
Y-1050854
Y-1075854
T03
X-101600Y-812800
Y-787400
X-76200
X-50800
X-25400
X0
Y-812800
X-25400
X-50800
X-76200
X0Y-711200
X-127000Y-787400
X-152400
X-177800
X-203200
X-228600
X-254000
X-279400
X-304800
X-330200
X-355600
X-381000
X-406400
X-431800
Y-812800
X-406400
X-381000
X-355600
X-330200
X-304800
X-279400
X-254000
X-228600
X-203200
X-177800
X-152400
X-127000
X-482600Y-762000
Y-736600
Y-711200
Y-685800
Y-660400
Y-635000
Y-609600
Y-584200
Y-533400
Y-508000
Y-482600
Y-457200
Y-431800
Y-406400
Y-381000
Y-355600
X0
Y-381000
Y-406400
Y-431800
Y-457200
Y-482600
Y-533400
Y-558800
Y-584200
Y-609600
Y-635000
Y-660400
Y-685800
Y-330200
Y-304800
Y-264160
Y-238760
Y-213360
Y-187960
Y-162560
Y-137160
Y-111760
Y-86360
Y-60960
Y-35560
X-482600Y-127000
Y-152400
Y-177800
Y-203200
Y-228600
Y-254000
Y-279400
Y-304800
T04
X-254500Y-509400
Y-484000
X-229100
X-203700
Y-509400
X-229100
T05
X-865836Y-922946
X-840436
Y-897546
X-865836
Y-872146
X-840436
Y-846746
X-865836
Y-821346
Y-795946
Y-770546
X-840436
Y-795946
Y-821346
Y-745146
X-865836
Y-719746
X-840436
Y-694346
Y-668946
X-865836
Y-694346
Y-643546
Y-618146
X-840436
Y-592746
Y-567346
Y-541946
Y-516546
X-865836
Y-541946
Y-567346
Y-592746
X-840436Y-643546
Y-348896
X-865836
Y-323496
X-840436
Y-298096
X-865836
Y-272696
X-840436
Y-247296
X-865836
Y-221896
Y-196496
X-840436
Y-221896
Y-171096
X-865836
Y-145696
Y-120296
X-840436
Y-94896
X-865836
Y-69496
Y-44096
X-840436
Y-18696
Y6704
Y32104
Y57504
X-865836
Y32104
Y6704
Y-18696
X-840436Y-69496
Y-145696
T06
X38274Y-1072684
X0Y-749300
X-482600Y-812800
X-841726Y-1072684
X-431000Y-508000
X-152000
X0Y0
X-781726Y77316
M30
