G04*
G04 #@! TF.GenerationSoftware,Altium Limited,Altium Designer,21.0.9 (235)*
G04*
G04 Layer_Color=8388736*
%FSLAX44Y44*%
%MOMM*%
G71*
G04*
G04 #@! TF.SameCoordinates,B04B5628-BEB7-489B-AFC1-9DCA5A1A145D*
G04*
G04*
G04 #@! TF.FilePolarity,Positive*
G04*
G01*
G75*
%ADD37C,0.1000*%
D37*
X-692416Y-500544D02*
X-682416D01*
X-687416Y-505544D02*
Y-495544D01*
Y-461094D02*
Y-451094D01*
X-692416Y-456094D02*
X-682416D01*
X-761076Y-461094D02*
Y-451094D01*
X-766076Y-456094D02*
X-756076D01*
X-687599Y-282116D02*
Y-272116D01*
X-692599Y-277116D02*
X-682599D01*
X-761682Y-282116D02*
Y-272116D01*
X-766682Y-277116D02*
X-756682D01*
X-687599Y-327744D02*
Y-317744D01*
X-692599Y-322744D02*
X-682599D01*
X-761682Y-327744D02*
Y-317744D01*
X-766682Y-322744D02*
X-756682D01*
X-687416Y-416644D02*
Y-406644D01*
X-692416Y-411644D02*
X-682416D01*
X-761471Y-416644D02*
Y-406644D01*
X-766471Y-411644D02*
X-756471D01*
X-687416Y-372194D02*
Y-362194D01*
X-692416Y-367194D02*
X-682416D01*
X-761471Y-372194D02*
Y-362194D01*
X-766471Y-367194D02*
X-756471D01*
X-761076Y-505544D02*
Y-495544D01*
X-766076Y-500544D02*
X-756076D01*
M02*
