G04*
G04 #@! TF.GenerationSoftware,Altium Limited,Altium Designer,21.0.9 (235)*
G04*
G04 Layer_Color=8421504*
%FSLAX44Y44*%
%MOMM*%
G71*
G04*
G04 #@! TF.SameCoordinates,B04B5628-BEB7-489B-AFC1-9DCA5A1A145D*
G04*
G04*
G04 #@! TF.FilePolarity,Positive*
G04*
G01*
G75*
%ADD14R,0.7000X0.9000*%
%ADD15R,1.5242X0.5780*%
G04:AMPARAMS|DCode=16|XSize=1.5242mm|YSize=0.578mm|CornerRadius=0.289mm|HoleSize=0mm|Usage=FLASHONLY|Rotation=180.000|XOffset=0mm|YOffset=0mm|HoleType=Round|Shape=RoundedRectangle|*
%AMROUNDEDRECTD16*
21,1,1.5242,0.0000,0,0,180.0*
21,1,0.9463,0.5780,0,0,180.0*
1,1,0.5780,-0.4731,0.0000*
1,1,0.5780,0.4731,0.0000*
1,1,0.5780,0.4731,0.0000*
1,1,0.5780,-0.4731,0.0000*
%
%ADD16ROUNDEDRECTD16*%
%ADD17R,1.0000X0.9000*%
D14*
X-759156Y-992180D02*
D03*
X-773156D02*
D03*
X-709656D02*
D03*
X-695656D02*
D03*
X-646410D02*
D03*
X-632410D02*
D03*
X-582910D02*
D03*
X-568910D02*
D03*
D15*
X-678314Y-510044D02*
D03*
Y-465594D02*
D03*
X-751974D02*
D03*
X-678497Y-286616D02*
D03*
X-752581D02*
D03*
X-678497Y-332244D02*
D03*
X-752581D02*
D03*
X-678314Y-421144D02*
D03*
X-752369D02*
D03*
X-678314Y-376694D02*
D03*
X-752369D02*
D03*
X-751974Y-510044D02*
D03*
D16*
X-678314Y-491044D02*
D03*
X-696518Y-500544D02*
D03*
Y-456094D02*
D03*
X-678314Y-446594D02*
D03*
X-770178Y-456094D02*
D03*
X-751974Y-446594D02*
D03*
X-696701Y-277116D02*
D03*
X-678497Y-267616D02*
D03*
X-770784Y-277116D02*
D03*
X-752581Y-267616D02*
D03*
X-696701Y-322744D02*
D03*
X-678497Y-313244D02*
D03*
X-770784Y-322744D02*
D03*
X-752581Y-313244D02*
D03*
X-696518Y-411644D02*
D03*
X-678314Y-402144D02*
D03*
X-770572Y-411644D02*
D03*
X-752369Y-402144D02*
D03*
X-696518Y-367194D02*
D03*
X-678314Y-357694D02*
D03*
X-770572Y-367194D02*
D03*
X-752369Y-357694D02*
D03*
X-770178Y-500544D02*
D03*
X-751974Y-491044D02*
D03*
D17*
X-659024Y-492544D02*
D03*
Y-508544D02*
D03*
Y-464094D02*
D03*
Y-448094D02*
D03*
X-733136Y-464094D02*
D03*
Y-448094D02*
D03*
X-790286Y-448094D02*
D03*
Y-464094D02*
D03*
X-716894Y-448094D02*
D03*
Y-464094D02*
D03*
X-790286Y-269116D02*
D03*
Y-285116D02*
D03*
X-716894Y-269116D02*
D03*
Y-285116D02*
D03*
X-659024Y-285776D02*
D03*
Y-269776D02*
D03*
X-733136Y-285116D02*
D03*
Y-269116D02*
D03*
X-716894Y-314744D02*
D03*
Y-330744D02*
D03*
X-790286Y-314744D02*
D03*
Y-330744D02*
D03*
X-659024Y-330744D02*
D03*
Y-314744D02*
D03*
X-733136Y-330744D02*
D03*
Y-314744D02*
D03*
X-716894Y-403644D02*
D03*
Y-419644D02*
D03*
X-790286Y-403644D02*
D03*
Y-419644D02*
D03*
X-716894Y-359194D02*
D03*
Y-375194D02*
D03*
X-790286Y-359194D02*
D03*
Y-375194D02*
D03*
X-659024Y-419644D02*
D03*
Y-403644D02*
D03*
X-733136Y-419644D02*
D03*
Y-403644D02*
D03*
X-659024Y-375194D02*
D03*
Y-359194D02*
D03*
X-733136Y-375194D02*
D03*
Y-359194D02*
D03*
X-716894Y-492544D02*
D03*
Y-508544D02*
D03*
X-790286Y-492544D02*
D03*
Y-508544D02*
D03*
X-733136Y-508544D02*
D03*
Y-492544D02*
D03*
M02*
