G04*
G04 #@! TF.GenerationSoftware,Altium Limited,Altium Designer,21.0.9 (235)*
G04*
G04 Layer_Physical_Order=1*
G04 Layer_Color=255*
%FSLAX44Y44*%
%MOMM*%
G71*
G04*
G04 #@! TF.SameCoordinates,B04B5628-BEB7-489B-AFC1-9DCA5A1A145D*
G04*
G04*
G04 #@! TF.FilePolarity,Positive*
G04*
G01*
G75*
%ADD11C,0.2540*%
%ADD13C,0.5080*%
%ADD14R,0.7000X0.9000*%
%ADD15R,1.5242X0.5780*%
G04:AMPARAMS|DCode=16|XSize=1.5242mm|YSize=0.578mm|CornerRadius=0.289mm|HoleSize=0mm|Usage=FLASHONLY|Rotation=180.000|XOffset=0mm|YOffset=0mm|HoleType=Round|Shape=RoundedRectangle|*
%AMROUNDEDRECTD16*
21,1,1.5242,0.0000,0,0,180.0*
21,1,0.9463,0.5780,0,0,180.0*
1,1,0.5780,-0.4731,0.0000*
1,1,0.5780,0.4731,0.0000*
1,1,0.5780,0.4731,0.0000*
1,1,0.5780,-0.4731,0.0000*
%
%ADD16ROUNDEDRECTD16*%
%ADD17R,1.0000X0.9000*%
%ADD21R,1.4000X1.4000*%
%ADD22C,1.4000*%
%ADD29C,1.7780*%
%ADD30C,1.6000*%
%ADD31R,1.6000X1.6000*%
%ADD32C,1.5500*%
%ADD33R,1.5500X1.5500*%
%ADD34C,5.0000*%
%ADD35C,0.5500*%
G36*
X-518385Y111775D02*
Y24307D01*
X-519655Y23628D01*
X-520760Y24367D01*
X-522699Y24753D01*
X-532797Y34851D01*
X-534057Y35693D01*
X-535544Y35989D01*
X-830637D01*
X-831229Y37420D01*
X-832919Y39621D01*
X-833030Y39707D01*
X-832622Y40909D01*
X-563631Y40909D01*
X-561972Y39801D01*
X-559908Y39390D01*
X-557844Y39801D01*
X-556094Y40970D01*
X-554925Y42720D01*
X-554514Y44784D01*
X-554925Y46848D01*
X-556094Y48598D01*
X-557844Y49767D01*
X-559908Y50178D01*
X-561972Y49767D01*
X-563601Y48679D01*
X-766167Y48679D01*
X-766653Y49852D01*
X-751726Y64779D01*
Y89779D01*
X-769226Y107279D01*
X-794226D01*
X-811726Y89779D01*
Y64779D01*
X-796799Y49852D01*
X-797285Y48679D01*
X-832648D01*
X-833056Y49881D01*
X-832919Y49987D01*
X-831229Y52189D01*
X-830167Y54752D01*
X-829805Y57504D01*
X-830167Y60255D01*
X-831229Y62819D01*
X-832919Y65021D01*
X-835121Y66711D01*
X-837684Y67773D01*
X-840436Y68135D01*
X-843187Y67773D01*
X-845751Y66711D01*
X-847953Y65021D01*
X-849643Y62819D01*
X-850705Y60255D01*
X-851067Y57504D01*
X-850705Y54752D01*
X-849643Y52189D01*
X-847953Y49987D01*
X-847816Y49881D01*
X-848224Y48679D01*
X-851517D01*
X-856160Y53322D01*
X-855567Y54752D01*
X-855205Y57504D01*
X-855567Y60255D01*
X-856629Y62819D01*
X-858319Y65021D01*
X-860521Y66711D01*
X-863084Y67773D01*
X-865836Y68135D01*
X-868587Y67773D01*
X-871152Y66711D01*
X-873353Y65021D01*
X-875043Y62819D01*
X-876105Y60255D01*
X-876467Y57504D01*
X-876105Y54752D01*
X-875043Y52189D01*
X-873353Y49987D01*
X-871152Y48297D01*
X-868587Y47235D01*
X-865836Y46873D01*
X-863084Y47235D01*
X-861654Y47828D01*
X-855873Y42047D01*
X-854613Y41205D01*
X-853126Y40909D01*
X-848250D01*
X-847842Y39707D01*
X-847953Y39621D01*
X-849643Y37420D01*
X-850705Y34855D01*
X-851067Y32104D01*
X-850705Y29353D01*
X-849643Y26788D01*
X-847953Y24587D01*
X-847816Y24481D01*
X-848224Y23279D01*
X-851517D01*
X-856160Y27922D01*
X-855567Y29353D01*
X-855205Y32104D01*
X-855567Y34855D01*
X-856629Y37420D01*
X-858319Y39621D01*
X-860521Y41311D01*
X-863084Y42373D01*
X-865836Y42735D01*
X-868587Y42373D01*
X-871152Y41311D01*
X-873353Y39621D01*
X-875043Y37420D01*
X-876105Y34855D01*
X-876467Y32104D01*
X-876105Y29353D01*
X-875043Y26788D01*
X-873353Y24587D01*
X-871152Y22897D01*
X-868587Y21835D01*
X-865836Y21473D01*
X-863084Y21835D01*
X-861654Y22428D01*
X-855873Y16647D01*
X-855873Y16647D01*
X-854613Y15805D01*
X-853126Y15509D01*
X-848250D01*
X-847842Y14307D01*
X-847953Y14221D01*
X-849643Y12019D01*
X-850705Y9456D01*
X-851067Y6704D01*
X-850705Y3952D01*
X-849643Y1389D01*
X-847953Y-813D01*
X-845751Y-2503D01*
X-843187Y-3565D01*
X-840436Y-3927D01*
X-837684Y-3565D01*
X-835121Y-2503D01*
X-832919Y-813D01*
X-831229Y1389D01*
X-830641Y2809D01*
X-553399Y2809D01*
X-544449Y-6141D01*
X-544063Y-8080D01*
X-542894Y-9830D01*
X-541144Y-10999D01*
X-539080Y-11410D01*
X-537016Y-10999D01*
X-535266Y-9830D01*
X-534097Y-8080D01*
X-533686Y-6016D01*
X-534097Y-3952D01*
X-535266Y-2202D01*
X-537016Y-1033D01*
X-538955Y-647D01*
X-549043Y9441D01*
X-550303Y10283D01*
X-551790Y10579D01*
X-830632Y10579D01*
X-831229Y12019D01*
X-832919Y14221D01*
X-833030Y14307D01*
X-832622Y15509D01*
X-545271Y15509D01*
X-536321Y6559D01*
X-535935Y4620D01*
X-534766Y2870D01*
X-533016Y1701D01*
X-530952Y1290D01*
X-528888Y1701D01*
X-527138Y2870D01*
X-525969Y4620D01*
X-525558Y6684D01*
X-525969Y8748D01*
X-527138Y10498D01*
X-528888Y11667D01*
X-530827Y12053D01*
X-540915Y22141D01*
X-542175Y22983D01*
X-543662Y23279D01*
X-832648Y23279D01*
X-833056Y24481D01*
X-832919Y24587D01*
X-831229Y26788D01*
X-830637Y28219D01*
X-537153D01*
X-528193Y19259D01*
X-527807Y17320D01*
X-526638Y15570D01*
X-524888Y14401D01*
X-522824Y13990D01*
X-520760Y14401D01*
X-519655Y15139D01*
X-518385Y14461D01*
Y13000D01*
X-518419D01*
X-517983Y7459D01*
X-516686Y2055D01*
X-514559Y-3080D01*
X-511655Y-7819D01*
X-508045Y-12045D01*
X-503819Y-15655D01*
X-499080Y-18559D01*
X-493945Y-20686D01*
X-488541Y-21983D01*
X-483000Y-22419D01*
Y-22385D01*
X-461187D01*
X-461187Y-457200D01*
Y-457387D01*
X-460891Y-458874D01*
X-460049Y-460134D01*
X-458789Y-460976D01*
X-457302Y-461272D01*
X-456362Y-461085D01*
X-31500D01*
X-30013Y-460789D01*
X-28753Y-459947D01*
X-27911Y-458687D01*
X-27615Y-457200D01*
X-27615Y-16581D01*
X-26442Y-16095D01*
X-12500Y-30037D01*
X-11227D01*
X-10521Y-31093D01*
X-11136Y-32576D01*
X-11529Y-35560D01*
X-11136Y-38544D01*
X-9984Y-41324D01*
X-8152Y-43712D01*
X-5764Y-45544D01*
X-2984Y-46696D01*
X0Y-47089D01*
X2984Y-46696D01*
X5764Y-45544D01*
X8152Y-43712D01*
X9984Y-41324D01*
X11136Y-38544D01*
X11529Y-35560D01*
X11136Y-32576D01*
X10521Y-31093D01*
X11227Y-30037D01*
X12500D01*
X30000Y-12537D01*
Y12463D01*
X16021Y26442D01*
X16507Y27615D01*
X86701D01*
X86701Y-1108799D01*
X-877841Y-1108800D01*
Y111775D01*
X-518385Y111775D01*
D02*
G37*
%LPC*%
G36*
X-864566Y17168D02*
Y7974D01*
X-855372D01*
X-855567Y9456D01*
X-856629Y12019D01*
X-858319Y14221D01*
X-860521Y15911D01*
X-863084Y16973D01*
X-864566Y17168D01*
D02*
G37*
G36*
X-867106Y17168D02*
X-868587Y16973D01*
X-871152Y15911D01*
X-873353Y14221D01*
X-875043Y12019D01*
X-876105Y9456D01*
X-876300Y7974D01*
X-867106D01*
Y17168D01*
D02*
G37*
G36*
X-855372Y5434D02*
X-864566D01*
Y-3760D01*
X-863084Y-3565D01*
X-860521Y-2503D01*
X-858319Y-813D01*
X-856629Y1389D01*
X-855567Y3952D01*
X-855372Y5434D01*
D02*
G37*
G36*
X-867106D02*
X-876300D01*
X-876105Y3952D01*
X-875043Y1389D01*
X-873353Y-813D01*
X-871152Y-2503D01*
X-868587Y-3565D01*
X-867106Y-3760D01*
Y5434D01*
D02*
G37*
G36*
X-864566Y-8232D02*
Y-17426D01*
X-855372D01*
X-855567Y-15944D01*
X-856629Y-13381D01*
X-858319Y-11179D01*
X-860521Y-9489D01*
X-863084Y-8427D01*
X-864566Y-8232D01*
D02*
G37*
G36*
X-867106Y-8232D02*
X-868587Y-8427D01*
X-871152Y-9489D01*
X-873353Y-11179D01*
X-875043Y-13381D01*
X-876105Y-15944D01*
X-876300Y-17426D01*
X-867106D01*
Y-8232D01*
D02*
G37*
G36*
X-855372Y-19966D02*
X-864566D01*
Y-29160D01*
X-863084Y-28965D01*
X-860521Y-27903D01*
X-858319Y-26213D01*
X-856629Y-24011D01*
X-855567Y-21448D01*
X-855372Y-19966D01*
D02*
G37*
G36*
X-867106D02*
X-876300D01*
X-876105Y-21448D01*
X-875043Y-24011D01*
X-873353Y-26213D01*
X-871152Y-27903D01*
X-868587Y-28965D01*
X-867106Y-29160D01*
Y-19966D01*
D02*
G37*
G36*
X-840436Y-8065D02*
X-843187Y-8427D01*
X-845751Y-9489D01*
X-847953Y-11179D01*
X-849643Y-13381D01*
X-850705Y-15944D01*
X-851067Y-18696D01*
X-850705Y-21448D01*
X-849643Y-24011D01*
X-847953Y-26213D01*
X-845751Y-27903D01*
X-843187Y-28965D01*
X-840436Y-29327D01*
X-837684Y-28965D01*
X-835121Y-27903D01*
X-832919Y-26213D01*
X-831229Y-24011D01*
X-830641Y-22591D01*
X-707924D01*
X-529015Y-22591D01*
X-520065Y-31541D01*
X-519679Y-33480D01*
X-518510Y-35230D01*
X-516760Y-36399D01*
X-514696Y-36810D01*
X-512632Y-36399D01*
X-510882Y-35230D01*
X-509713Y-33480D01*
X-509302Y-31416D01*
X-509713Y-29352D01*
X-510882Y-27602D01*
X-512632Y-26433D01*
X-514571Y-26047D01*
X-524659Y-15959D01*
X-525919Y-15117D01*
X-527406Y-14821D01*
X-559918D01*
X-830632Y-14821D01*
X-831229Y-13381D01*
X-832919Y-11179D01*
X-835121Y-9489D01*
X-837684Y-8427D01*
X-840436Y-8065D01*
D02*
G37*
G36*
Y-33465D02*
X-843187Y-33827D01*
X-845751Y-34889D01*
X-847953Y-36579D01*
X-849643Y-38781D01*
X-850705Y-41344D01*
X-851067Y-44096D01*
X-850705Y-46848D01*
X-849643Y-49412D01*
X-847953Y-51613D01*
X-847816Y-51719D01*
X-848224Y-52921D01*
X-851517D01*
X-856160Y-48278D01*
X-855567Y-46848D01*
X-855205Y-44096D01*
X-855567Y-41344D01*
X-856629Y-38781D01*
X-858319Y-36579D01*
X-860521Y-34889D01*
X-863084Y-33827D01*
X-865836Y-33465D01*
X-868587Y-33827D01*
X-871152Y-34889D01*
X-873353Y-36579D01*
X-875043Y-38781D01*
X-876105Y-41344D01*
X-876467Y-44096D01*
X-876105Y-46848D01*
X-875043Y-49412D01*
X-873353Y-51613D01*
X-871152Y-53303D01*
X-868587Y-54365D01*
X-865836Y-54727D01*
X-863084Y-54365D01*
X-861654Y-53772D01*
X-855873Y-59553D01*
X-854613Y-60395D01*
X-853126Y-60691D01*
X-848250D01*
X-847842Y-61893D01*
X-847953Y-61979D01*
X-849643Y-64180D01*
X-850705Y-66744D01*
X-851067Y-69496D01*
X-850705Y-72248D01*
X-849643Y-74812D01*
X-847953Y-77013D01*
X-845751Y-78703D01*
X-843187Y-79765D01*
X-840436Y-80127D01*
X-837684Y-79765D01*
X-835121Y-78703D01*
X-832919Y-77013D01*
X-831229Y-74812D01*
X-830637Y-73381D01*
X-585921Y-73381D01*
X-576961Y-82341D01*
X-576575Y-84280D01*
X-575406Y-86030D01*
X-573656Y-87199D01*
X-571592Y-87610D01*
X-569528Y-87199D01*
X-567778Y-86030D01*
X-566609Y-84280D01*
X-566198Y-82216D01*
X-566609Y-80152D01*
X-567778Y-78402D01*
X-569528Y-77233D01*
X-571467Y-76847D01*
X-581535Y-66779D01*
X-581555Y-66749D01*
X-582815Y-65907D01*
X-584302Y-65611D01*
X-830637Y-65611D01*
X-831229Y-64180D01*
X-832919Y-61979D01*
X-833030Y-61893D01*
X-832622Y-60691D01*
X-577783Y-60691D01*
X-568833Y-69641D01*
X-568447Y-71580D01*
X-567278Y-73330D01*
X-565528Y-74499D01*
X-563464Y-74910D01*
X-561400Y-74499D01*
X-559650Y-73330D01*
X-558481Y-71580D01*
X-558070Y-69516D01*
X-558481Y-67452D01*
X-559650Y-65702D01*
X-561400Y-64533D01*
X-563339Y-64147D01*
X-573427Y-54059D01*
X-574687Y-53217D01*
X-576174Y-52921D01*
X-832648Y-52921D01*
X-833056Y-51719D01*
X-832919Y-51613D01*
X-831229Y-49412D01*
X-830641Y-47991D01*
X-569655Y-47991D01*
X-560705Y-56941D01*
X-560319Y-58880D01*
X-559150Y-60630D01*
X-557400Y-61799D01*
X-555336Y-62210D01*
X-553272Y-61799D01*
X-551522Y-60630D01*
X-550353Y-58880D01*
X-549942Y-56816D01*
X-550353Y-54752D01*
X-551522Y-53002D01*
X-553272Y-51833D01*
X-555211Y-51447D01*
X-565299Y-41359D01*
X-566559Y-40517D01*
X-568046Y-40221D01*
X-830632Y-40221D01*
X-831229Y-38781D01*
X-832919Y-36579D01*
X-835121Y-34889D01*
X-837684Y-33827D01*
X-840436Y-33465D01*
D02*
G37*
G36*
X-864566Y-59032D02*
Y-68226D01*
X-855372D01*
X-855567Y-66744D01*
X-856629Y-64180D01*
X-858319Y-61979D01*
X-860521Y-60289D01*
X-863084Y-59227D01*
X-864566Y-59032D01*
D02*
G37*
G36*
X-867106Y-59032D02*
X-868587Y-59227D01*
X-871152Y-60289D01*
X-873353Y-61979D01*
X-875043Y-64180D01*
X-876105Y-66744D01*
X-876300Y-68226D01*
X-867106D01*
Y-59032D01*
D02*
G37*
G36*
X0Y-49431D02*
X-2984Y-49824D01*
X-5764Y-50976D01*
X-8152Y-52808D01*
X-9984Y-55196D01*
X-11136Y-57976D01*
X-11529Y-60960D01*
X-11136Y-63944D01*
X-9984Y-66724D01*
X-8152Y-69112D01*
X-5764Y-70944D01*
X-2984Y-72096D01*
X0Y-72489D01*
X2984Y-72096D01*
X5764Y-70944D01*
X8152Y-69112D01*
X9984Y-66724D01*
X11136Y-63944D01*
X11529Y-60960D01*
X11136Y-57976D01*
X9984Y-55196D01*
X8152Y-52808D01*
X5764Y-50976D01*
X2984Y-49824D01*
X0Y-49431D01*
D02*
G37*
G36*
X-855372Y-70766D02*
X-864566D01*
Y-79960D01*
X-863084Y-79765D01*
X-860521Y-78703D01*
X-858319Y-77013D01*
X-856629Y-74812D01*
X-855567Y-72248D01*
X-855372Y-70766D01*
D02*
G37*
G36*
X-867106D02*
X-876300D01*
X-876105Y-72248D01*
X-875043Y-74812D01*
X-873353Y-77013D01*
X-871152Y-78703D01*
X-868587Y-79765D01*
X-867106Y-79960D01*
Y-70766D01*
D02*
G37*
G36*
X0Y-74831D02*
X-2984Y-75224D01*
X-5764Y-76376D01*
X-8152Y-78208D01*
X-9984Y-80596D01*
X-11136Y-83376D01*
X-11529Y-86360D01*
X-11136Y-89344D01*
X-9984Y-92124D01*
X-8152Y-94512D01*
X-5764Y-96344D01*
X-2984Y-97496D01*
X0Y-97889D01*
X2984Y-97496D01*
X5764Y-96344D01*
X8152Y-94512D01*
X9984Y-92124D01*
X11136Y-89344D01*
X11529Y-86360D01*
X11136Y-83376D01*
X9984Y-80596D01*
X8152Y-78208D01*
X5764Y-76376D01*
X2984Y-75224D01*
X0Y-74831D01*
D02*
G37*
G36*
X-840436Y-84265D02*
X-843187Y-84627D01*
X-845751Y-85689D01*
X-847953Y-87379D01*
X-849643Y-89580D01*
X-850705Y-92144D01*
X-851067Y-94896D01*
X-850705Y-97647D01*
X-849643Y-100211D01*
X-847953Y-102413D01*
X-847816Y-102519D01*
X-848224Y-103721D01*
X-851517D01*
X-856160Y-99078D01*
X-855567Y-97647D01*
X-855205Y-94896D01*
X-855567Y-92144D01*
X-856629Y-89580D01*
X-858319Y-87379D01*
X-860521Y-85689D01*
X-863084Y-84627D01*
X-865836Y-84265D01*
X-868587Y-84627D01*
X-871152Y-85689D01*
X-873353Y-87379D01*
X-875043Y-89580D01*
X-876105Y-92144D01*
X-876467Y-94896D01*
X-876105Y-97647D01*
X-875043Y-100211D01*
X-873353Y-102413D01*
X-871152Y-104103D01*
X-868587Y-105165D01*
X-865836Y-105527D01*
X-863084Y-105165D01*
X-861654Y-104572D01*
X-856023Y-110203D01*
X-855933Y-110263D01*
X-855873Y-110353D01*
X-854613Y-111195D01*
X-853126Y-111491D01*
X-848250D01*
X-847842Y-112693D01*
X-847953Y-112779D01*
X-849643Y-114980D01*
X-850705Y-117544D01*
X-851067Y-120296D01*
X-850705Y-123048D01*
X-849643Y-125611D01*
X-847953Y-127813D01*
X-845751Y-129503D01*
X-843187Y-130565D01*
X-840436Y-130927D01*
X-837684Y-130565D01*
X-835121Y-129503D01*
X-832919Y-127813D01*
X-831229Y-125611D01*
X-830641Y-124191D01*
X-610295Y-124191D01*
X-601345Y-133141D01*
X-600959Y-135080D01*
X-599790Y-136830D01*
X-598040Y-137999D01*
X-595976Y-138410D01*
X-593912Y-137999D01*
X-592162Y-136830D01*
X-590993Y-135080D01*
X-590582Y-133016D01*
X-590993Y-130952D01*
X-592162Y-129202D01*
X-593912Y-128033D01*
X-595851Y-127647D01*
X-605939Y-117559D01*
X-607199Y-116717D01*
X-608686Y-116421D01*
X-830632Y-116421D01*
X-831229Y-114980D01*
X-832919Y-112779D01*
X-833030Y-112693D01*
X-832622Y-111491D01*
X-602167Y-111491D01*
X-593217Y-120441D01*
X-592831Y-122380D01*
X-591662Y-124130D01*
X-589912Y-125299D01*
X-587848Y-125710D01*
X-585784Y-125299D01*
X-584034Y-124130D01*
X-582865Y-122380D01*
X-582454Y-120316D01*
X-582865Y-118252D01*
X-584034Y-116502D01*
X-585784Y-115333D01*
X-587723Y-114947D01*
X-597811Y-104859D01*
X-599071Y-104017D01*
X-600558Y-103721D01*
X-832648Y-103721D01*
X-833056Y-102519D01*
X-832919Y-102413D01*
X-831229Y-100211D01*
X-830637Y-98781D01*
X-594049Y-98781D01*
X-585089Y-107741D01*
X-584703Y-109680D01*
X-583534Y-111430D01*
X-581784Y-112599D01*
X-579720Y-113010D01*
X-577656Y-112599D01*
X-575906Y-111430D01*
X-574737Y-109680D01*
X-574326Y-107616D01*
X-574737Y-105552D01*
X-575906Y-103802D01*
X-577656Y-102633D01*
X-579595Y-102247D01*
X-589693Y-92149D01*
X-590953Y-91307D01*
X-592440Y-91011D01*
X-830637Y-91011D01*
X-831229Y-89580D01*
X-832919Y-87379D01*
X-835121Y-85689D01*
X-837684Y-84627D01*
X-840436Y-84265D01*
D02*
G37*
G36*
X1270Y-100399D02*
Y-110490D01*
X11361D01*
X11136Y-108776D01*
X9984Y-105996D01*
X8152Y-103608D01*
X5764Y-101776D01*
X2984Y-100624D01*
X1270Y-100399D01*
D02*
G37*
G36*
X-1270D02*
X-2984Y-100624D01*
X-5764Y-101776D01*
X-8152Y-103608D01*
X-9984Y-105996D01*
X-11136Y-108776D01*
X-11361Y-110490D01*
X-1270D01*
Y-100399D01*
D02*
G37*
G36*
X-864566Y-109832D02*
Y-119026D01*
X-855372D01*
X-855567Y-117544D01*
X-856629Y-114980D01*
X-858319Y-112779D01*
X-860521Y-111089D01*
X-863084Y-110027D01*
X-864566Y-109832D01*
D02*
G37*
G36*
X-867106Y-109832D02*
X-868587Y-110027D01*
X-871152Y-111089D01*
X-873353Y-112779D01*
X-875043Y-114980D01*
X-876105Y-117544D01*
X-876300Y-119026D01*
X-867106D01*
Y-109832D01*
D02*
G37*
G36*
X11361Y-113030D02*
X1270D01*
Y-123121D01*
X2984Y-122896D01*
X5764Y-121744D01*
X8152Y-119912D01*
X9984Y-117524D01*
X11136Y-114744D01*
X11361Y-113030D01*
D02*
G37*
G36*
X-1270D02*
X-11361D01*
X-11136Y-114744D01*
X-9984Y-117524D01*
X-8152Y-119912D01*
X-5764Y-121744D01*
X-2984Y-122896D01*
X-1270Y-123121D01*
Y-113030D01*
D02*
G37*
G36*
X-855372Y-121566D02*
X-864566D01*
Y-130760D01*
X-863084Y-130565D01*
X-860521Y-129503D01*
X-858319Y-127813D01*
X-856629Y-125611D01*
X-855567Y-123048D01*
X-855372Y-121566D01*
D02*
G37*
G36*
X-867106D02*
X-876300D01*
X-876105Y-123048D01*
X-875043Y-125611D01*
X-873353Y-127813D01*
X-871152Y-129503D01*
X-868587Y-130565D01*
X-867106Y-130760D01*
Y-121566D01*
D02*
G37*
G36*
X-482600Y-115471D02*
X-485584Y-115864D01*
X-488364Y-117016D01*
X-490752Y-118848D01*
X-492584Y-121236D01*
X-493736Y-124016D01*
X-494129Y-127000D01*
X-493736Y-129984D01*
X-492584Y-132764D01*
X-490752Y-135152D01*
X-488364Y-136984D01*
X-485584Y-138136D01*
X-482600Y-138529D01*
X-479616Y-138136D01*
X-476836Y-136984D01*
X-474448Y-135152D01*
X-472616Y-132764D01*
X-471464Y-129984D01*
X-471071Y-127000D01*
X-471464Y-124016D01*
X-472616Y-121236D01*
X-474448Y-118848D01*
X-476836Y-117016D01*
X-479616Y-115864D01*
X-482600Y-115471D01*
D02*
G37*
G36*
X0Y-125631D02*
X-2984Y-126024D01*
X-5764Y-127176D01*
X-8152Y-129008D01*
X-9984Y-131396D01*
X-11136Y-134176D01*
X-11529Y-137160D01*
X-11136Y-140144D01*
X-9984Y-142924D01*
X-8152Y-145312D01*
X-5764Y-147144D01*
X-2984Y-148296D01*
X0Y-148689D01*
X2984Y-148296D01*
X5764Y-147144D01*
X8152Y-145312D01*
X9984Y-142924D01*
X11136Y-140144D01*
X11529Y-137160D01*
X11136Y-134176D01*
X9984Y-131396D01*
X8152Y-129008D01*
X5764Y-127176D01*
X2984Y-126024D01*
X0Y-125631D01*
D02*
G37*
G36*
X-840436Y-135065D02*
X-843187Y-135427D01*
X-845751Y-136489D01*
X-847953Y-138179D01*
X-849643Y-140380D01*
X-850705Y-142944D01*
X-851067Y-145696D01*
X-850705Y-148448D01*
X-849643Y-151011D01*
X-847953Y-153213D01*
X-847816Y-153319D01*
X-848224Y-154521D01*
X-851517D01*
X-856160Y-149878D01*
X-855567Y-148448D01*
X-855205Y-145696D01*
X-855567Y-142944D01*
X-856629Y-140380D01*
X-858319Y-138179D01*
X-860521Y-136489D01*
X-863084Y-135427D01*
X-865836Y-135065D01*
X-868587Y-135427D01*
X-871152Y-136489D01*
X-873353Y-138179D01*
X-875043Y-140380D01*
X-876105Y-142944D01*
X-876467Y-145696D01*
X-876105Y-148448D01*
X-875043Y-151011D01*
X-873353Y-153213D01*
X-871152Y-154903D01*
X-868587Y-155965D01*
X-865836Y-156327D01*
X-863084Y-155965D01*
X-861654Y-155372D01*
X-856053Y-160973D01*
X-855945Y-161045D01*
X-855873Y-161153D01*
X-854613Y-161995D01*
X-853126Y-162291D01*
X-848250D01*
X-847842Y-163493D01*
X-847953Y-163579D01*
X-849643Y-165781D01*
X-850705Y-168344D01*
X-851067Y-171096D01*
X-850705Y-173848D01*
X-849643Y-176411D01*
X-847953Y-178613D01*
X-845751Y-180303D01*
X-843187Y-181365D01*
X-840436Y-181727D01*
X-837684Y-181365D01*
X-835121Y-180303D01*
X-832919Y-178613D01*
X-831229Y-176411D01*
X-830637Y-174981D01*
X-634689Y-174981D01*
X-625729Y-183941D01*
X-625343Y-185880D01*
X-624174Y-187630D01*
X-622424Y-188799D01*
X-620360Y-189210D01*
X-618296Y-188799D01*
X-616546Y-187630D01*
X-615377Y-185880D01*
X-614966Y-183816D01*
X-615377Y-181752D01*
X-616546Y-180002D01*
X-618296Y-178833D01*
X-620235Y-178447D01*
X-630333Y-168349D01*
X-631593Y-167507D01*
X-633080Y-167211D01*
X-830637Y-167211D01*
X-831229Y-165781D01*
X-832919Y-163579D01*
X-833030Y-163493D01*
X-832622Y-162291D01*
X-626551Y-162291D01*
X-617601Y-171241D01*
X-617215Y-173180D01*
X-616046Y-174930D01*
X-614296Y-176099D01*
X-612232Y-176510D01*
X-610168Y-176099D01*
X-608418Y-174930D01*
X-607249Y-173180D01*
X-606838Y-171116D01*
X-607249Y-169052D01*
X-608418Y-167302D01*
X-610168Y-166133D01*
X-612107Y-165747D01*
X-622195Y-155659D01*
X-623455Y-154817D01*
X-624942Y-154521D01*
X-832648Y-154521D01*
X-833056Y-153319D01*
X-832919Y-153213D01*
X-831229Y-151011D01*
X-830637Y-149581D01*
X-618433Y-149581D01*
X-609473Y-158541D01*
X-609087Y-160480D01*
X-607918Y-162230D01*
X-606168Y-163399D01*
X-604104Y-163810D01*
X-602040Y-163399D01*
X-600290Y-162230D01*
X-599121Y-160480D01*
X-598710Y-158416D01*
X-599121Y-156352D01*
X-600290Y-154602D01*
X-602040Y-153433D01*
X-603979Y-153047D01*
X-614047Y-142979D01*
X-614067Y-142949D01*
X-615327Y-142107D01*
X-616814Y-141811D01*
X-830637Y-141811D01*
X-831229Y-140380D01*
X-832919Y-138179D01*
X-835121Y-136489D01*
X-837684Y-135427D01*
X-840436Y-135065D01*
D02*
G37*
G36*
X-482600Y-140871D02*
X-485584Y-141264D01*
X-488364Y-142416D01*
X-490752Y-144248D01*
X-492584Y-146636D01*
X-493736Y-149416D01*
X-494129Y-152400D01*
X-493736Y-155384D01*
X-492584Y-158164D01*
X-490752Y-160552D01*
X-488364Y-162384D01*
X-485584Y-163536D01*
X-482600Y-163929D01*
X-479616Y-163536D01*
X-476836Y-162384D01*
X-474448Y-160552D01*
X-472616Y-158164D01*
X-471464Y-155384D01*
X-471071Y-152400D01*
X-471464Y-149416D01*
X-472616Y-146636D01*
X-474448Y-144248D01*
X-476836Y-142416D01*
X-479616Y-141264D01*
X-482600Y-140871D01*
D02*
G37*
G36*
X-864566Y-160632D02*
Y-169826D01*
X-855372D01*
X-855567Y-168344D01*
X-856629Y-165781D01*
X-858319Y-163579D01*
X-860521Y-161889D01*
X-863084Y-160827D01*
X-864566Y-160632D01*
D02*
G37*
G36*
X-867106Y-160632D02*
X-868587Y-160827D01*
X-871152Y-161889D01*
X-873353Y-163579D01*
X-875043Y-165781D01*
X-876105Y-168344D01*
X-876300Y-169826D01*
X-867106D01*
Y-160632D01*
D02*
G37*
G36*
X0Y-151031D02*
X-2984Y-151424D01*
X-5764Y-152576D01*
X-8152Y-154408D01*
X-9984Y-156796D01*
X-11136Y-159576D01*
X-11529Y-162560D01*
X-11136Y-165544D01*
X-9984Y-168324D01*
X-8152Y-170712D01*
X-5764Y-172544D01*
X-2984Y-173696D01*
X0Y-174089D01*
X2984Y-173696D01*
X5764Y-172544D01*
X8152Y-170712D01*
X9984Y-168324D01*
X11136Y-165544D01*
X11529Y-162560D01*
X11136Y-159576D01*
X9984Y-156796D01*
X8152Y-154408D01*
X5764Y-152576D01*
X2984Y-151424D01*
X0Y-151031D01*
D02*
G37*
G36*
X-855372Y-172366D02*
X-864566D01*
Y-181560D01*
X-863084Y-181365D01*
X-860521Y-180303D01*
X-858319Y-178613D01*
X-856629Y-176411D01*
X-855567Y-173848D01*
X-855372Y-172366D01*
D02*
G37*
G36*
X-867106D02*
X-876300D01*
X-876105Y-173848D01*
X-875043Y-176411D01*
X-873353Y-178613D01*
X-871152Y-180303D01*
X-868587Y-181365D01*
X-867106Y-181560D01*
Y-172366D01*
D02*
G37*
G36*
X-482600Y-166271D02*
X-485584Y-166664D01*
X-488364Y-167816D01*
X-490752Y-169648D01*
X-492584Y-172036D01*
X-493736Y-174816D01*
X-494129Y-177800D01*
X-493736Y-180784D01*
X-492584Y-183564D01*
X-490752Y-185952D01*
X-488364Y-187784D01*
X-485584Y-188936D01*
X-482600Y-189329D01*
X-479616Y-188936D01*
X-476836Y-187784D01*
X-474448Y-185952D01*
X-472616Y-183564D01*
X-471464Y-180784D01*
X-471071Y-177800D01*
X-471464Y-174816D01*
X-472616Y-172036D01*
X-474448Y-169648D01*
X-476836Y-167816D01*
X-479616Y-166664D01*
X-482600Y-166271D01*
D02*
G37*
G36*
X0Y-176431D02*
X-2984Y-176824D01*
X-5764Y-177976D01*
X-8152Y-179808D01*
X-9984Y-182196D01*
X-11136Y-184976D01*
X-11529Y-187960D01*
X-11136Y-190944D01*
X-9984Y-193724D01*
X-8152Y-196112D01*
X-5764Y-197944D01*
X-2984Y-199096D01*
X0Y-199489D01*
X2984Y-199096D01*
X5764Y-197944D01*
X8152Y-196112D01*
X9984Y-193724D01*
X11136Y-190944D01*
X11529Y-187960D01*
X11136Y-184976D01*
X9984Y-182196D01*
X8152Y-179808D01*
X5764Y-177976D01*
X2984Y-176824D01*
X0Y-176431D01*
D02*
G37*
G36*
X-865836Y-185865D02*
X-868587Y-186227D01*
X-871152Y-187289D01*
X-873353Y-188979D01*
X-875043Y-191180D01*
X-876105Y-193745D01*
X-876467Y-196496D01*
X-876105Y-199247D01*
X-875043Y-201812D01*
X-873353Y-204013D01*
X-871152Y-205703D01*
X-868587Y-206765D01*
X-865836Y-207127D01*
X-863084Y-206765D01*
X-860521Y-205703D01*
X-858319Y-204013D01*
X-856629Y-201812D01*
X-855567Y-199247D01*
X-855205Y-196496D01*
X-855567Y-193745D01*
X-856629Y-191180D01*
X-858319Y-188979D01*
X-860521Y-187289D01*
X-863084Y-186227D01*
X-865836Y-185865D01*
D02*
G37*
G36*
X-840436D02*
X-843187Y-186227D01*
X-845751Y-187289D01*
X-847953Y-188979D01*
X-849643Y-191180D01*
X-850705Y-193745D01*
X-851067Y-196496D01*
X-850705Y-199247D01*
X-849643Y-201812D01*
X-847953Y-204013D01*
X-845751Y-205703D01*
X-843187Y-206765D01*
X-840436Y-207127D01*
X-837684Y-206765D01*
X-835121Y-205703D01*
X-832919Y-204013D01*
X-831229Y-201812D01*
X-830641Y-200391D01*
X-642807Y-200391D01*
X-633857Y-209341D01*
X-633471Y-211280D01*
X-632302Y-213030D01*
X-630552Y-214199D01*
X-628488Y-214610D01*
X-626424Y-214199D01*
X-624674Y-213030D01*
X-623505Y-211280D01*
X-623094Y-209216D01*
X-623505Y-207152D01*
X-624674Y-205402D01*
X-626424Y-204233D01*
X-628363Y-203847D01*
X-638451Y-193759D01*
X-639711Y-192917D01*
X-641198Y-192621D01*
X-830632Y-192621D01*
X-831229Y-191180D01*
X-832919Y-188979D01*
X-835121Y-187289D01*
X-837684Y-186227D01*
X-840436Y-185865D01*
D02*
G37*
G36*
X-647538Y-179174D02*
X-649602Y-179585D01*
X-651352Y-180754D01*
X-652521Y-182504D01*
X-652932Y-184568D01*
X-652521Y-186632D01*
X-651352Y-188382D01*
X-649602Y-189551D01*
X-647538Y-189962D01*
X-645474Y-189551D01*
X-643830Y-188453D01*
X-637971D01*
X-627181Y-199243D01*
X-625921Y-200085D01*
X-624434Y-200381D01*
X-494720D01*
X-493883Y-201336D01*
X-494129Y-203200D01*
X-493736Y-206184D01*
X-492584Y-208964D01*
X-490752Y-211352D01*
X-488364Y-213184D01*
X-485584Y-214336D01*
X-482600Y-214729D01*
X-479616Y-214336D01*
X-476836Y-213184D01*
X-474448Y-211352D01*
X-472616Y-208964D01*
X-471464Y-206184D01*
X-471071Y-203200D01*
X-471464Y-200216D01*
X-472616Y-197436D01*
X-474448Y-195048D01*
X-476836Y-193216D01*
X-479616Y-192064D01*
X-482600Y-191671D01*
X-485584Y-192064D01*
X-488364Y-193216D01*
X-489013Y-193714D01*
X-490221Y-192907D01*
X-491708Y-192611D01*
X-622825D01*
X-633615Y-181821D01*
X-634875Y-180979D01*
X-636362Y-180683D01*
X-643830D01*
X-645474Y-179585D01*
X-647538Y-179174D01*
D02*
G37*
G36*
X-864566Y-211432D02*
Y-220626D01*
X-855372D01*
X-855567Y-219144D01*
X-856629Y-216581D01*
X-858319Y-214379D01*
X-860521Y-212689D01*
X-863084Y-211627D01*
X-864566Y-211432D01*
D02*
G37*
G36*
X-867106Y-211432D02*
X-868587Y-211627D01*
X-871152Y-212689D01*
X-873353Y-214379D01*
X-875043Y-216581D01*
X-876105Y-219144D01*
X-876300Y-220626D01*
X-867106D01*
Y-211432D01*
D02*
G37*
G36*
X0Y-201831D02*
X-2984Y-202224D01*
X-5764Y-203376D01*
X-8152Y-205208D01*
X-9984Y-207596D01*
X-11136Y-210376D01*
X-11529Y-213360D01*
X-11136Y-216344D01*
X-9984Y-219124D01*
X-8152Y-221512D01*
X-5764Y-223344D01*
X-2984Y-224496D01*
X0Y-224889D01*
X2984Y-224496D01*
X5764Y-223344D01*
X8152Y-221512D01*
X9984Y-219124D01*
X11136Y-216344D01*
X11529Y-213360D01*
X11136Y-210376D01*
X9984Y-207596D01*
X8152Y-205208D01*
X5764Y-203376D01*
X2984Y-202224D01*
X0Y-201831D01*
D02*
G37*
G36*
X-855372Y-223166D02*
X-864566D01*
Y-232360D01*
X-863084Y-232165D01*
X-860521Y-231103D01*
X-858319Y-229413D01*
X-856629Y-227211D01*
X-855567Y-224648D01*
X-855372Y-223166D01*
D02*
G37*
G36*
X-867106D02*
X-876300D01*
X-876105Y-224648D01*
X-875043Y-227211D01*
X-873353Y-229413D01*
X-871152Y-231103D01*
X-868587Y-232165D01*
X-867106Y-232360D01*
Y-223166D01*
D02*
G37*
G36*
X-840436Y-211265D02*
X-843187Y-211627D01*
X-845751Y-212689D01*
X-847953Y-214379D01*
X-849643Y-216581D01*
X-850705Y-219144D01*
X-851067Y-221896D01*
X-850705Y-224648D01*
X-849643Y-227211D01*
X-847953Y-229413D01*
X-845751Y-231103D01*
X-843187Y-232165D01*
X-840436Y-232527D01*
X-837684Y-232165D01*
X-835121Y-231103D01*
X-832919Y-229413D01*
X-831229Y-227211D01*
X-830637Y-225781D01*
X-650945Y-225781D01*
X-641723Y-235003D01*
X-641389Y-236680D01*
X-640220Y-238430D01*
X-638470Y-239599D01*
X-636406Y-240010D01*
X-634342Y-239599D01*
X-632592Y-238430D01*
X-631423Y-236680D01*
X-631012Y-234616D01*
X-631423Y-232552D01*
X-632592Y-230802D01*
X-634342Y-229633D01*
X-636406Y-229222D01*
X-636498Y-229241D01*
X-646589Y-219149D01*
X-647849Y-218307D01*
X-649336Y-218011D01*
X-830637Y-218011D01*
X-831229Y-216581D01*
X-832919Y-214379D01*
X-835121Y-212689D01*
X-837684Y-211627D01*
X-840436Y-211265D01*
D02*
G37*
G36*
X-482600Y-217071D02*
X-485584Y-217464D01*
X-488364Y-218616D01*
X-490752Y-220448D01*
X-492584Y-222836D01*
X-493736Y-225616D01*
X-494129Y-228600D01*
X-493736Y-231584D01*
X-492584Y-234364D01*
X-490752Y-236752D01*
X-488364Y-238584D01*
X-485584Y-239736D01*
X-482600Y-240129D01*
X-479616Y-239736D01*
X-476836Y-238584D01*
X-474448Y-236752D01*
X-472616Y-234364D01*
X-471464Y-231584D01*
X-471071Y-228600D01*
X-471464Y-225616D01*
X-472616Y-222836D01*
X-474448Y-220448D01*
X-476836Y-218616D01*
X-479616Y-217464D01*
X-482600Y-217071D01*
D02*
G37*
G36*
X0Y-227231D02*
X-2984Y-227624D01*
X-5764Y-228776D01*
X-8152Y-230608D01*
X-9984Y-232996D01*
X-11136Y-235776D01*
X-11529Y-238760D01*
X-11136Y-241744D01*
X-9984Y-244524D01*
X-8152Y-246912D01*
X-5764Y-248744D01*
X-2984Y-249896D01*
X0Y-250289D01*
X2984Y-249896D01*
X5764Y-248744D01*
X8152Y-246912D01*
X9984Y-244524D01*
X11136Y-241744D01*
X11529Y-238760D01*
X11136Y-235776D01*
X9984Y-232996D01*
X8152Y-230608D01*
X5764Y-228776D01*
X2984Y-227624D01*
X0Y-227231D01*
D02*
G37*
G36*
X-481330Y-242639D02*
Y-252730D01*
X-471239D01*
X-471464Y-251016D01*
X-472616Y-248236D01*
X-474448Y-245848D01*
X-476836Y-244016D01*
X-479616Y-242864D01*
X-481330Y-242639D01*
D02*
G37*
G36*
X-483870D02*
X-485584Y-242864D01*
X-488364Y-244016D01*
X-490752Y-245848D01*
X-492584Y-248236D01*
X-493736Y-251016D01*
X-493961Y-252730D01*
X-483870D01*
Y-242639D01*
D02*
G37*
G36*
X-482600Y-254000D02*
D01*
D01*
D01*
D02*
G37*
G36*
X-865836Y-236665D02*
X-868587Y-237027D01*
X-871152Y-238089D01*
X-873353Y-239779D01*
X-875043Y-241980D01*
X-876105Y-244545D01*
X-876467Y-247296D01*
X-876105Y-250047D01*
X-875043Y-252612D01*
X-873353Y-254813D01*
X-871152Y-256503D01*
X-868587Y-257565D01*
X-865836Y-257927D01*
X-863084Y-257565D01*
X-860521Y-256503D01*
X-858319Y-254813D01*
X-856629Y-252612D01*
X-855567Y-250047D01*
X-855205Y-247296D01*
X-855567Y-244545D01*
X-856629Y-241980D01*
X-858319Y-239779D01*
X-860521Y-238089D01*
X-863084Y-237027D01*
X-865836Y-236665D01*
D02*
G37*
G36*
X-471239Y-255270D02*
X-481330D01*
Y-265361D01*
X-479616Y-265136D01*
X-476836Y-263984D01*
X-474448Y-262152D01*
X-472616Y-259764D01*
X-471464Y-256984D01*
X-471239Y-255270D01*
D02*
G37*
G36*
X-483870D02*
X-493961D01*
X-493736Y-256984D01*
X-492584Y-259764D01*
X-490752Y-262152D01*
X-488364Y-263984D01*
X-485584Y-265136D01*
X-483870Y-265361D01*
Y-255270D01*
D02*
G37*
G36*
X-867106Y-262232D02*
X-868587Y-262427D01*
X-871152Y-263489D01*
X-873353Y-265179D01*
X-875043Y-267381D01*
X-876105Y-269944D01*
X-876300Y-271426D01*
X-867106D01*
Y-262232D01*
D02*
G37*
G36*
X0Y-252631D02*
X-2984Y-253024D01*
X-5764Y-254176D01*
X-8152Y-256008D01*
X-9984Y-258396D01*
X-11136Y-261176D01*
X-11529Y-264160D01*
X-11136Y-267144D01*
X-9984Y-269924D01*
X-8152Y-272312D01*
X-5764Y-274144D01*
X-2984Y-275296D01*
X0Y-275689D01*
X2984Y-275296D01*
X5764Y-274144D01*
X8152Y-272312D01*
X9984Y-269924D01*
X11136Y-267144D01*
X11529Y-264160D01*
X11136Y-261176D01*
X9984Y-258396D01*
X8152Y-256008D01*
X5764Y-254176D01*
X2984Y-253024D01*
X0Y-252631D01*
D02*
G37*
G36*
X-481330Y-268039D02*
Y-278130D01*
X-471239D01*
X-471464Y-276416D01*
X-472616Y-273636D01*
X-474448Y-271248D01*
X-476836Y-269416D01*
X-479616Y-268264D01*
X-481330Y-268039D01*
D02*
G37*
G36*
X-483870D02*
X-485584Y-268264D01*
X-488364Y-269416D01*
X-490752Y-271248D01*
X-492584Y-273636D01*
X-493736Y-276416D01*
X-493961Y-278130D01*
X-483870D01*
Y-268039D01*
D02*
G37*
G36*
X-867106Y-273966D02*
X-876300D01*
X-876105Y-275448D01*
X-875043Y-278011D01*
X-873353Y-280213D01*
X-871152Y-281903D01*
X-868587Y-282965D01*
X-867106Y-283160D01*
Y-273966D01*
D02*
G37*
G36*
X-471239Y-280670D02*
X-481330D01*
Y-290761D01*
X-479616Y-290536D01*
X-476836Y-289384D01*
X-474448Y-287552D01*
X-472616Y-285164D01*
X-471464Y-282384D01*
X-471239Y-280670D01*
D02*
G37*
G36*
X-483870D02*
X-493961D01*
X-493736Y-282384D01*
X-492584Y-285164D01*
X-490752Y-287552D01*
X-488364Y-289384D01*
X-485584Y-290536D01*
X-483870Y-290761D01*
Y-280670D01*
D02*
G37*
G36*
X-867106Y-287632D02*
X-868587Y-287827D01*
X-871152Y-288889D01*
X-873353Y-290579D01*
X-875043Y-292780D01*
X-876105Y-295345D01*
X-876300Y-296826D01*
X-867106D01*
Y-287632D01*
D02*
G37*
G36*
Y-299366D02*
X-876300D01*
X-876105Y-300847D01*
X-875043Y-303412D01*
X-873353Y-305613D01*
X-871152Y-307303D01*
X-868587Y-308365D01*
X-867106Y-308560D01*
Y-299366D01*
D02*
G37*
G36*
X0Y-293271D02*
X-2984Y-293664D01*
X-5764Y-294816D01*
X-8152Y-296648D01*
X-9984Y-299036D01*
X-11136Y-301816D01*
X-11529Y-304800D01*
X-11136Y-307784D01*
X-9984Y-310564D01*
X-8152Y-312952D01*
X-5764Y-314784D01*
X-2984Y-315936D01*
X0Y-316329D01*
X2984Y-315936D01*
X5764Y-314784D01*
X8152Y-312952D01*
X9984Y-310564D01*
X11136Y-307784D01*
X11529Y-304800D01*
X11136Y-301816D01*
X9984Y-299036D01*
X8152Y-296648D01*
X5764Y-294816D01*
X2984Y-293664D01*
X0Y-293271D01*
D02*
G37*
G36*
X-482600D02*
X-485584Y-293664D01*
X-488364Y-294816D01*
X-490752Y-296648D01*
X-492584Y-299036D01*
X-493736Y-301816D01*
X-494129Y-304800D01*
X-493736Y-307784D01*
X-492584Y-310564D01*
X-490752Y-312952D01*
X-488364Y-314784D01*
X-485584Y-315936D01*
X-482600Y-316329D01*
X-479616Y-315936D01*
X-476836Y-314784D01*
X-474448Y-312952D01*
X-472616Y-310564D01*
X-471464Y-307784D01*
X-471071Y-304800D01*
X-471464Y-301816D01*
X-472616Y-299036D01*
X-474448Y-296648D01*
X-476836Y-294816D01*
X-479616Y-293664D01*
X-482600Y-293271D01*
D02*
G37*
G36*
X0Y-318671D02*
X-2984Y-319064D01*
X-5764Y-320216D01*
X-8152Y-322048D01*
X-9984Y-324436D01*
X-11136Y-327216D01*
X-11529Y-330200D01*
X-11136Y-333184D01*
X-9984Y-335964D01*
X-8152Y-338352D01*
X-5764Y-340184D01*
X-2984Y-341336D01*
X0Y-341729D01*
X2984Y-341336D01*
X5764Y-340184D01*
X8152Y-338352D01*
X9984Y-335964D01*
X11136Y-333184D01*
X11529Y-330200D01*
X11136Y-327216D01*
X9984Y-324436D01*
X8152Y-322048D01*
X5764Y-320216D01*
X2984Y-319064D01*
X0Y-318671D01*
D02*
G37*
G36*
Y-344071D02*
X-2984Y-344464D01*
X-5764Y-345616D01*
X-8152Y-347448D01*
X-9984Y-349836D01*
X-11136Y-352616D01*
X-11529Y-355600D01*
X-11136Y-358584D01*
X-9984Y-361364D01*
X-8152Y-363752D01*
X-5764Y-365584D01*
X-2984Y-366736D01*
X0Y-367129D01*
X2984Y-366736D01*
X5764Y-365584D01*
X8152Y-363752D01*
X9984Y-361364D01*
X11136Y-358584D01*
X11529Y-355600D01*
X11136Y-352616D01*
X9984Y-349836D01*
X8152Y-347448D01*
X5764Y-345616D01*
X2984Y-344464D01*
X0Y-344071D01*
D02*
G37*
G36*
X-840436Y-236665D02*
X-843187Y-237027D01*
X-845751Y-238089D01*
X-847953Y-239779D01*
X-849643Y-241980D01*
X-850705Y-244545D01*
X-851067Y-247296D01*
X-850705Y-250047D01*
X-850112Y-251478D01*
X-856053Y-257419D01*
X-856895Y-258680D01*
X-857191Y-260166D01*
Y-264786D01*
X-858461Y-265070D01*
X-860521Y-263489D01*
X-863084Y-262427D01*
X-864566Y-262232D01*
Y-272696D01*
Y-283160D01*
X-863084Y-282965D01*
X-860521Y-281903D01*
X-858461Y-280322D01*
X-857191Y-280606D01*
Y-290186D01*
X-858461Y-290470D01*
X-860521Y-288889D01*
X-863084Y-287827D01*
X-864566Y-287632D01*
Y-298096D01*
Y-308560D01*
X-863084Y-308365D01*
X-860521Y-307303D01*
X-858461Y-305722D01*
X-857191Y-306006D01*
Y-315586D01*
X-858461Y-315870D01*
X-860521Y-314289D01*
X-863084Y-313227D01*
X-865836Y-312865D01*
X-868587Y-313227D01*
X-871152Y-314289D01*
X-873353Y-315979D01*
X-875043Y-318181D01*
X-876105Y-320745D01*
X-876467Y-323496D01*
X-876105Y-326247D01*
X-875043Y-328811D01*
X-873353Y-331013D01*
X-871152Y-332703D01*
X-868587Y-333765D01*
X-865836Y-334127D01*
X-863084Y-333765D01*
X-860521Y-332703D01*
X-858461Y-331122D01*
X-857191Y-331406D01*
Y-340986D01*
X-858461Y-341270D01*
X-860521Y-339689D01*
X-863084Y-338627D01*
X-865836Y-338265D01*
X-868587Y-338627D01*
X-871152Y-339689D01*
X-873353Y-341379D01*
X-875043Y-343581D01*
X-876105Y-346144D01*
X-876467Y-348896D01*
X-876105Y-351647D01*
X-875043Y-354212D01*
X-873353Y-356413D01*
X-871152Y-358103D01*
X-868587Y-359165D01*
X-865836Y-359527D01*
X-863084Y-359165D01*
X-860521Y-358103D01*
X-858461Y-356522D01*
X-857191Y-356806D01*
Y-396464D01*
X-856895Y-397951D01*
X-856053Y-399211D01*
X-851960Y-403304D01*
X-851574Y-405243D01*
X-850405Y-406993D01*
X-848655Y-408162D01*
X-846591Y-408573D01*
X-844527Y-408162D01*
X-842777Y-406993D01*
X-841608Y-405243D01*
X-841197Y-403179D01*
X-841608Y-401115D01*
X-842777Y-399365D01*
X-844527Y-398196D01*
X-846466Y-397810D01*
X-849421Y-394855D01*
Y-359436D01*
X-832511D01*
Y-376546D01*
X-832734Y-376695D01*
X-833903Y-378445D01*
X-834314Y-380509D01*
X-833903Y-382573D01*
X-832734Y-384323D01*
X-830984Y-385492D01*
X-828920Y-385903D01*
X-827445Y-385609D01*
X-826175Y-386448D01*
Y-440144D01*
X-834181Y-448150D01*
X-835023Y-449410D01*
X-835319Y-450897D01*
Y-461776D01*
X-835553Y-461932D01*
X-836722Y-463682D01*
X-837133Y-465746D01*
X-836722Y-467810D01*
X-835553Y-469560D01*
X-834068Y-470552D01*
X-833799Y-470759D01*
X-833618Y-472061D01*
X-833947Y-472553D01*
X-834242Y-474040D01*
Y-475590D01*
X-834738Y-475921D01*
X-835907Y-477671D01*
X-836318Y-479735D01*
X-835907Y-481799D01*
X-834738Y-483549D01*
X-833487Y-484385D01*
X-833182Y-485876D01*
X-833910Y-486604D01*
X-834752Y-487864D01*
X-834895Y-488585D01*
X-835543Y-489018D01*
X-836712Y-490768D01*
X-837123Y-492832D01*
X-836712Y-494896D01*
X-835543Y-496646D01*
X-833793Y-497815D01*
X-833274Y-499213D01*
X-833412Y-499907D01*
Y-500603D01*
X-834510Y-502247D01*
X-834921Y-504311D01*
X-834531Y-506269D01*
X-834840Y-506645D01*
X-835498Y-507183D01*
X-837684Y-506277D01*
X-840436Y-505915D01*
X-843187Y-506277D01*
X-845751Y-507339D01*
X-847953Y-509029D01*
X-849643Y-511231D01*
X-850705Y-513795D01*
X-851067Y-516546D01*
X-850705Y-519297D01*
X-849643Y-521861D01*
X-847953Y-524063D01*
X-846909Y-524865D01*
X-847340Y-526135D01*
X-850753D01*
X-856160Y-520728D01*
X-855567Y-519297D01*
X-855205Y-516546D01*
X-855567Y-513795D01*
X-856629Y-511231D01*
X-858319Y-509029D01*
X-860521Y-507339D01*
X-863084Y-506277D01*
X-865836Y-505915D01*
X-868587Y-506277D01*
X-871152Y-507339D01*
X-873353Y-509029D01*
X-875043Y-511231D01*
X-876105Y-513795D01*
X-876467Y-516546D01*
X-876105Y-519297D01*
X-875043Y-521861D01*
X-873353Y-524063D01*
X-871152Y-525753D01*
X-868587Y-526815D01*
X-865836Y-527177D01*
X-863084Y-526815D01*
X-861654Y-526222D01*
X-855109Y-532766D01*
X-853849Y-533608D01*
X-852363Y-533904D01*
X-849151D01*
X-848525Y-535174D01*
X-849643Y-536631D01*
X-850705Y-539194D01*
X-851067Y-541946D01*
X-850705Y-544697D01*
X-849643Y-547262D01*
X-847953Y-549463D01*
X-846922Y-550255D01*
X-847353Y-551525D01*
X-850763D01*
X-856160Y-546128D01*
X-855567Y-544697D01*
X-855205Y-541946D01*
X-855567Y-539194D01*
X-856629Y-536631D01*
X-858319Y-534429D01*
X-860521Y-532739D01*
X-863084Y-531677D01*
X-865836Y-531315D01*
X-868587Y-531677D01*
X-871152Y-532739D01*
X-873353Y-534429D01*
X-875043Y-536631D01*
X-876105Y-539194D01*
X-876467Y-541946D01*
X-876105Y-544697D01*
X-875043Y-547262D01*
X-873353Y-549463D01*
X-871152Y-551153D01*
X-868587Y-552215D01*
X-865836Y-552577D01*
X-863084Y-552215D01*
X-861654Y-551622D01*
X-855119Y-558156D01*
X-853859Y-558998D01*
X-852373Y-559294D01*
X-849144D01*
X-848518Y-560564D01*
X-849643Y-562030D01*
X-850705Y-564594D01*
X-851067Y-567346D01*
X-850705Y-570098D01*
X-849643Y-572662D01*
X-847953Y-574863D01*
X-845751Y-576553D01*
X-843187Y-577615D01*
X-840436Y-577977D01*
X-837684Y-577615D01*
X-836254Y-577022D01*
X-805258Y-608018D01*
X-805744Y-609191D01*
X-818497D01*
X-830760Y-596928D01*
X-830167Y-595498D01*
X-829805Y-592746D01*
X-830167Y-589995D01*
X-831229Y-587430D01*
X-832919Y-585229D01*
X-835121Y-583539D01*
X-837684Y-582477D01*
X-840436Y-582115D01*
X-843187Y-582477D01*
X-845751Y-583539D01*
X-847953Y-585229D01*
X-849643Y-587430D01*
X-850705Y-589995D01*
X-851067Y-592746D01*
X-850705Y-595498D01*
X-849643Y-598061D01*
X-847953Y-600263D01*
X-845751Y-601953D01*
X-843187Y-603015D01*
X-840436Y-603377D01*
X-837684Y-603015D01*
X-836254Y-602422D01*
X-825578Y-613098D01*
X-826064Y-614271D01*
X-830632D01*
X-831229Y-612831D01*
X-832919Y-610629D01*
X-835121Y-608939D01*
X-837684Y-607877D01*
X-840436Y-607515D01*
X-843187Y-607877D01*
X-845751Y-608939D01*
X-847953Y-610629D01*
X-849643Y-612831D01*
X-850705Y-615395D01*
X-851067Y-618146D01*
X-850705Y-620897D01*
X-849643Y-623461D01*
X-847953Y-625663D01*
X-847816Y-625769D01*
X-848224Y-626971D01*
X-851517D01*
X-856160Y-622328D01*
X-855567Y-620897D01*
X-855205Y-618146D01*
X-855567Y-615395D01*
X-856629Y-612831D01*
X-858319Y-610629D01*
X-860521Y-608939D01*
X-863084Y-607877D01*
X-865836Y-607515D01*
X-868587Y-607877D01*
X-871152Y-608939D01*
X-873353Y-610629D01*
X-875043Y-612831D01*
X-876105Y-615395D01*
X-876467Y-618146D01*
X-876105Y-620897D01*
X-875043Y-623461D01*
X-873353Y-625663D01*
X-871152Y-627353D01*
X-868587Y-628415D01*
X-865836Y-628777D01*
X-863084Y-628415D01*
X-861654Y-627822D01*
X-855873Y-633603D01*
X-854613Y-634445D01*
X-853126Y-634741D01*
X-848250D01*
X-847842Y-635943D01*
X-847953Y-636029D01*
X-849643Y-638231D01*
X-850705Y-640795D01*
X-851067Y-643546D01*
X-850705Y-646298D01*
X-849643Y-648861D01*
X-847953Y-651063D01*
X-845751Y-652753D01*
X-843187Y-653815D01*
X-840436Y-654177D01*
X-837684Y-653815D01*
X-835121Y-652753D01*
X-832919Y-651063D01*
X-831229Y-648861D01*
X-830637Y-647431D01*
X-707841D01*
X-698881Y-656391D01*
X-698495Y-658330D01*
X-697326Y-660080D01*
X-695576Y-661249D01*
X-693512Y-661660D01*
X-691448Y-661249D01*
X-689698Y-660080D01*
X-688529Y-658330D01*
X-688118Y-656266D01*
X-688529Y-654202D01*
X-689698Y-652452D01*
X-691448Y-651283D01*
X-693387Y-650897D01*
X-703455Y-640829D01*
X-703475Y-640799D01*
X-704735Y-639957D01*
X-706222Y-639661D01*
X-830637D01*
X-831229Y-638231D01*
X-832919Y-636029D01*
X-833030Y-635943D01*
X-832622Y-634741D01*
X-699703D01*
X-690753Y-643691D01*
X-690367Y-645630D01*
X-689198Y-647380D01*
X-687448Y-648549D01*
X-685384Y-648960D01*
X-683320Y-648549D01*
X-681570Y-647380D01*
X-680401Y-645630D01*
X-679990Y-643566D01*
X-680401Y-641502D01*
X-681570Y-639752D01*
X-683320Y-638583D01*
X-685259Y-638197D01*
X-695347Y-628109D01*
X-696607Y-627267D01*
X-698094Y-626971D01*
X-832648D01*
X-833056Y-625769D01*
X-832919Y-625663D01*
X-831229Y-623461D01*
X-830641Y-622041D01*
X-691575D01*
X-682625Y-630991D01*
X-682239Y-632930D01*
X-681070Y-634680D01*
X-679320Y-635849D01*
X-677256Y-636260D01*
X-675192Y-635849D01*
X-674283Y-635242D01*
X-673013Y-635920D01*
Y-652964D01*
X-672717Y-654451D01*
X-671875Y-655711D01*
X-583413Y-744173D01*
X-582153Y-745015D01*
X-580666Y-745311D01*
X-525865D01*
X-520907Y-750269D01*
X-521532Y-751440D01*
X-522824Y-751182D01*
X-524888Y-751593D01*
X-526638Y-752762D01*
X-527807Y-754512D01*
X-528218Y-756576D01*
X-528182Y-756758D01*
X-530051Y-758627D01*
X-530893Y-759887D01*
X-531189Y-761374D01*
Y-830389D01*
X-532362Y-830875D01*
X-535196Y-828042D01*
Y-760284D01*
X-534097Y-758640D01*
X-533687Y-756576D01*
X-534097Y-754512D01*
X-535266Y-752762D01*
X-537016Y-751593D01*
X-539080Y-751182D01*
X-541144Y-751593D01*
X-542894Y-752762D01*
X-544063Y-754512D01*
X-544474Y-756576D01*
X-544063Y-758640D01*
X-542965Y-760284D01*
Y-825797D01*
X-544138Y-826283D01*
X-583963Y-786458D01*
Y-754950D01*
X-582865Y-753306D01*
X-582454Y-751242D01*
X-582865Y-749178D01*
X-584034Y-747428D01*
X-585784Y-746259D01*
X-587848Y-745848D01*
X-589912Y-746259D01*
X-591662Y-747428D01*
X-592831Y-749178D01*
X-593242Y-751242D01*
X-592831Y-753306D01*
X-591733Y-754950D01*
Y-757194D01*
X-593003Y-757873D01*
X-593658Y-757435D01*
X-595722Y-757025D01*
X-597786Y-757435D01*
X-599536Y-758604D01*
X-600705Y-760354D01*
X-601116Y-762418D01*
X-600705Y-764482D01*
X-599607Y-766126D01*
Y-787377D01*
X-599311Y-788864D01*
X-598469Y-790124D01*
X-516404Y-872189D01*
X-515144Y-873031D01*
X-513657Y-873327D01*
X-373380D01*
X-371893Y-873031D01*
X-370633Y-872189D01*
X-360555Y-862111D01*
X-358616Y-861725D01*
X-356866Y-860556D01*
X-355697Y-858806D01*
X-355286Y-856742D01*
X-355697Y-854678D01*
X-356814Y-853007D01*
X-356723Y-852588D01*
X-356363Y-851737D01*
X-274110D01*
X-272623Y-851441D01*
X-271363Y-850599D01*
X-266575Y-845811D01*
X-264636Y-845425D01*
X-262886Y-844256D01*
X-261717Y-842506D01*
X-261306Y-840442D01*
X-261717Y-838378D01*
X-261886Y-838125D01*
X-261287Y-837005D01*
X-248920D01*
X-247433Y-836709D01*
X-246173Y-835867D01*
X-233463Y-823157D01*
X-231584Y-823936D01*
X-228600Y-824329D01*
X-225616Y-823936D01*
X-222836Y-822784D01*
X-220448Y-820952D01*
X-218616Y-818564D01*
X-217464Y-815784D01*
X-217071Y-812800D01*
X-217464Y-809816D01*
X-218616Y-807036D01*
X-220448Y-804648D01*
X-222836Y-802816D01*
X-225616Y-801664D01*
X-228600Y-801271D01*
X-231584Y-801664D01*
X-234364Y-802816D01*
X-236752Y-804648D01*
X-238584Y-807036D01*
X-239736Y-809816D01*
X-240129Y-812800D01*
X-239736Y-815784D01*
X-238957Y-817663D01*
X-250529Y-829235D01*
X-314082D01*
X-314568Y-828062D01*
X-309664Y-823157D01*
X-307784Y-823936D01*
X-304800Y-824329D01*
X-301816Y-823936D01*
X-299036Y-822784D01*
X-296648Y-820952D01*
X-294816Y-818564D01*
X-293664Y-815784D01*
X-293271Y-812800D01*
X-293664Y-809816D01*
X-294816Y-807036D01*
X-296648Y-804648D01*
X-299036Y-802816D01*
X-301816Y-801664D01*
X-304800Y-801271D01*
X-307784Y-801664D01*
X-310564Y-802816D01*
X-312952Y-804648D01*
X-314784Y-807036D01*
X-315936Y-809816D01*
X-316329Y-812800D01*
X-315936Y-815784D01*
X-315157Y-817663D01*
X-321141Y-823647D01*
X-323475D01*
X-323906Y-822377D01*
X-322048Y-820952D01*
X-320216Y-818564D01*
X-319064Y-815784D01*
X-318671Y-812800D01*
X-319064Y-809816D01*
X-320216Y-807036D01*
X-322048Y-804648D01*
X-324436Y-802816D01*
X-327216Y-801664D01*
X-330200Y-801271D01*
X-333184Y-801664D01*
X-335964Y-802816D01*
X-338352Y-804648D01*
X-340184Y-807036D01*
X-341336Y-809816D01*
X-341729Y-812800D01*
X-341336Y-815784D01*
X-340184Y-818564D01*
X-338352Y-820952D01*
X-336494Y-822377D01*
X-336926Y-823647D01*
X-348875D01*
X-349306Y-822377D01*
X-347448Y-820952D01*
X-345616Y-818564D01*
X-344464Y-815784D01*
X-344071Y-812800D01*
X-344464Y-809816D01*
X-345616Y-807036D01*
X-347448Y-804648D01*
X-349836Y-802816D01*
X-352616Y-801664D01*
X-355600Y-801271D01*
X-358584Y-801664D01*
X-361364Y-802816D01*
X-363752Y-804648D01*
X-365584Y-807036D01*
X-366736Y-809816D01*
X-367129Y-812800D01*
X-366736Y-815784D01*
X-365584Y-818564D01*
X-363752Y-820952D01*
X-361894Y-822377D01*
X-362326Y-823647D01*
X-374274D01*
X-374706Y-822377D01*
X-372848Y-820952D01*
X-371016Y-818564D01*
X-369864Y-815784D01*
X-369471Y-812800D01*
X-369864Y-809816D01*
X-371016Y-807036D01*
X-372848Y-804648D01*
X-375236Y-802816D01*
X-378016Y-801664D01*
X-381000Y-801271D01*
X-383984Y-801664D01*
X-386764Y-802816D01*
X-389152Y-804648D01*
X-390984Y-807036D01*
X-392136Y-809816D01*
X-392529Y-812800D01*
X-392136Y-815784D01*
X-390984Y-818564D01*
X-389152Y-820952D01*
X-387294Y-822377D01*
X-387725Y-823647D01*
X-399674D01*
X-400106Y-822377D01*
X-398248Y-820952D01*
X-396416Y-818564D01*
X-395264Y-815784D01*
X-394871Y-812800D01*
X-395264Y-809816D01*
X-396416Y-807036D01*
X-398248Y-804648D01*
X-400636Y-802816D01*
X-403416Y-801664D01*
X-406400Y-801271D01*
X-409384Y-801664D01*
X-412164Y-802816D01*
X-414552Y-804648D01*
X-416384Y-807036D01*
X-417536Y-809816D01*
X-417929Y-812800D01*
X-417536Y-815784D01*
X-416384Y-818564D01*
X-414552Y-820952D01*
X-412164Y-822784D01*
X-409384Y-823936D01*
X-406400Y-824329D01*
X-404671Y-824101D01*
X-404078Y-825304D01*
X-418931Y-840157D01*
X-473362D01*
X-473615Y-838887D01*
X-470058Y-837414D01*
X-466362Y-835149D01*
X-463066Y-832334D01*
X-460251Y-829038D01*
X-457986Y-825342D01*
X-456327Y-821337D01*
X-455315Y-817122D01*
X-454975Y-812800D01*
X-455315Y-808478D01*
X-456327Y-804263D01*
X-457986Y-800258D01*
X-460251Y-796562D01*
X-463066Y-793266D01*
X-466362Y-790451D01*
X-470058Y-788186D01*
X-474063Y-786527D01*
X-478279Y-785515D01*
X-482600Y-785175D01*
X-486922Y-785515D01*
X-491137Y-786527D01*
X-495142Y-788186D01*
X-498838Y-790451D01*
X-502134Y-793266D01*
X-504949Y-796562D01*
X-507214Y-800258D01*
X-508873Y-804263D01*
X-509885Y-808478D01*
X-510225Y-812800D01*
X-509885Y-817122D01*
X-508873Y-821337D01*
X-507214Y-825342D01*
X-504949Y-829038D01*
X-502134Y-832334D01*
X-498838Y-835149D01*
X-495142Y-837414D01*
X-491585Y-838887D01*
X-491838Y-840157D01*
X-501527D01*
X-513259Y-828425D01*
Y-783914D01*
X-507210Y-777865D01*
X-506368Y-776605D01*
X-506072Y-775118D01*
Y-755725D01*
X-506368Y-754239D01*
X-507210Y-752978D01*
X-521509Y-738679D01*
X-522769Y-737837D01*
X-524256Y-737541D01*
X-579057D01*
X-665243Y-651355D01*
Y-635920D01*
X-663973Y-635242D01*
X-663064Y-635849D01*
X-661000Y-636260D01*
X-658936Y-635849D01*
X-657186Y-634680D01*
X-656017Y-632930D01*
X-655606Y-630866D01*
X-656017Y-628802D01*
X-657186Y-627052D01*
X-658936Y-625883D01*
X-660619Y-625548D01*
X-680918Y-605249D01*
X-682178Y-604407D01*
X-683664Y-604111D01*
X-798177D01*
X-830760Y-571528D01*
X-830167Y-570098D01*
X-829805Y-567346D01*
X-829864Y-566896D01*
X-828725Y-566335D01*
X-794467Y-600593D01*
X-793207Y-601435D01*
X-791720Y-601731D01*
X-682119D01*
X-662936Y-620913D01*
X-661676Y-621755D01*
X-660189Y-622051D01*
X-656580D01*
X-654936Y-623149D01*
X-652872Y-623560D01*
X-650808Y-623149D01*
X-649058Y-621980D01*
X-647889Y-620230D01*
X-647478Y-618166D01*
X-647889Y-616102D01*
X-649058Y-614352D01*
X-650808Y-613183D01*
X-652872Y-612772D01*
X-654936Y-613183D01*
X-656580Y-614281D01*
X-658580D01*
X-668478Y-604384D01*
X-667992Y-603211D01*
X-652493D01*
X-650113Y-605591D01*
X-649727Y-607530D01*
X-648558Y-609280D01*
X-646808Y-610449D01*
X-644744Y-610860D01*
X-642680Y-610449D01*
X-640930Y-609280D01*
X-639761Y-607530D01*
X-639350Y-605466D01*
X-639761Y-603402D01*
X-640930Y-601652D01*
X-642680Y-600483D01*
X-644619Y-600097D01*
X-648137Y-596579D01*
X-649397Y-595737D01*
X-650884Y-595441D01*
X-663142D01*
X-664014Y-594171D01*
X-663734Y-592766D01*
X-664145Y-590702D01*
X-665314Y-588952D01*
X-667064Y-587783D01*
X-669003Y-587397D01*
X-679081Y-577319D01*
X-680341Y-576477D01*
X-681828Y-576181D01*
X-774453D01*
X-788020Y-562614D01*
X-787646Y-561192D01*
X-786324Y-560309D01*
X-784698D01*
X-783211Y-560013D01*
X-781951Y-559171D01*
X-773315Y-550535D01*
X-772473Y-549275D01*
X-772177Y-547788D01*
Y-539180D01*
X-772473Y-537693D01*
X-773315Y-536433D01*
X-792991Y-516757D01*
X-792505Y-515584D01*
X-782746D01*
Y-506498D01*
X-780677Y-504429D01*
X-779043D01*
X-778087Y-505303D01*
X-778160Y-506559D01*
X-779200Y-507254D01*
X-780369Y-509004D01*
X-780780Y-511068D01*
X-780369Y-513132D01*
X-779200Y-514882D01*
X-778946Y-515051D01*
X-778995Y-516546D01*
X-780130Y-517304D01*
X-781299Y-519054D01*
X-781710Y-521118D01*
X-781299Y-523182D01*
X-780130Y-524932D01*
X-778380Y-526101D01*
X-776316Y-526512D01*
X-774252Y-526101D01*
X-772502Y-524932D01*
X-771333Y-523182D01*
X-771206Y-522544D01*
X-726455D01*
X-724969Y-522248D01*
X-723708Y-521406D01*
X-717887Y-515584D01*
X-709354D01*
Y-506498D01*
X-707285Y-504429D01*
X-705184D01*
X-705164Y-504459D01*
X-703368Y-505659D01*
X-701249Y-506080D01*
X-691787D01*
X-689745Y-505674D01*
X-689475Y-505675D01*
X-688475Y-506209D01*
Y-515474D01*
X-668153D01*
Y-513179D01*
X-666564D01*
Y-515584D01*
X-651484D01*
Y-513009D01*
X-650369Y-512787D01*
X-649109Y-511945D01*
X-643759Y-506595D01*
X-642172Y-506279D01*
X-640422Y-505110D01*
X-639253Y-503360D01*
X-638842Y-501296D01*
X-639253Y-499232D01*
X-640277Y-497699D01*
X-639887Y-496429D01*
X-609649D01*
X-542965Y-563113D01*
Y-603920D01*
X-542669Y-605407D01*
X-541827Y-606667D01*
X-492957Y-655536D01*
X-493736Y-657416D01*
X-494129Y-660400D01*
X-493736Y-663384D01*
X-492584Y-666164D01*
X-490752Y-668552D01*
X-488364Y-670384D01*
X-485584Y-671536D01*
X-482600Y-671929D01*
X-479616Y-671536D01*
X-476836Y-670384D01*
X-474448Y-668552D01*
X-472616Y-666164D01*
X-471464Y-663384D01*
X-471071Y-660400D01*
X-471464Y-657416D01*
X-472616Y-654636D01*
X-474448Y-652248D01*
X-476836Y-650416D01*
X-479616Y-649264D01*
X-482600Y-648871D01*
X-485584Y-649264D01*
X-487463Y-650043D01*
X-535195Y-602311D01*
Y-589637D01*
X-535036Y-589517D01*
X-533925Y-589168D01*
X-492957Y-630136D01*
X-493736Y-632016D01*
X-494129Y-635000D01*
X-493736Y-637984D01*
X-492584Y-640764D01*
X-490752Y-643152D01*
X-488364Y-644984D01*
X-485584Y-646136D01*
X-482600Y-646529D01*
X-479616Y-646136D01*
X-476836Y-644984D01*
X-474448Y-643152D01*
X-472616Y-640764D01*
X-471464Y-637984D01*
X-471071Y-635000D01*
X-471464Y-632016D01*
X-472616Y-629236D01*
X-474448Y-626848D01*
X-476836Y-625016D01*
X-479616Y-623864D01*
X-482600Y-623471D01*
X-485584Y-623864D01*
X-487463Y-624643D01*
X-527575Y-584531D01*
Y-571235D01*
X-526930Y-571028D01*
X-526305Y-571024D01*
X-525571Y-572123D01*
X-492957Y-604737D01*
X-493736Y-606616D01*
X-494129Y-609600D01*
X-493736Y-612584D01*
X-492584Y-615364D01*
X-490752Y-617752D01*
X-488364Y-619584D01*
X-485584Y-620736D01*
X-482600Y-621129D01*
X-479616Y-620736D01*
X-476836Y-619584D01*
X-474448Y-617752D01*
X-472616Y-615364D01*
X-471464Y-612584D01*
X-471071Y-609600D01*
X-471464Y-606616D01*
X-472616Y-603836D01*
X-474448Y-601448D01*
X-476836Y-599616D01*
X-479616Y-598464D01*
X-482600Y-598071D01*
X-485584Y-598464D01*
X-487463Y-599243D01*
X-518939Y-567767D01*
Y-552231D01*
X-517788Y-551836D01*
X-517669Y-551833D01*
X-491925Y-577577D01*
X-492584Y-578436D01*
X-493736Y-581216D01*
X-494129Y-584200D01*
X-493736Y-587184D01*
X-492584Y-589964D01*
X-490752Y-592352D01*
X-488364Y-594184D01*
X-485584Y-595336D01*
X-482600Y-595729D01*
X-479616Y-595336D01*
X-476836Y-594184D01*
X-474448Y-592352D01*
X-472616Y-589964D01*
X-471464Y-587184D01*
X-471071Y-584200D01*
X-471464Y-581216D01*
X-472616Y-578436D01*
X-474448Y-576048D01*
X-476836Y-574216D01*
X-479616Y-573064D01*
X-482600Y-572671D01*
X-485466Y-573049D01*
X-511065Y-547449D01*
Y-523658D01*
X-511361Y-522172D01*
X-512203Y-520911D01*
X-599177Y-433937D01*
X-600437Y-433095D01*
X-601924Y-432799D01*
X-721270D01*
X-722757Y-433095D01*
X-724017Y-433937D01*
X-729086Y-439006D01*
X-729175Y-439140D01*
X-731090Y-441054D01*
X-740676D01*
Y-443086D01*
X-743056D01*
X-743328Y-442679D01*
X-745124Y-441479D01*
X-747243Y-441058D01*
X-756705D01*
X-758824Y-441479D01*
X-760620Y-442679D01*
X-761820Y-444475D01*
X-762242Y-446594D01*
X-761820Y-448713D01*
X-760620Y-450509D01*
X-758824Y-451709D01*
X-756705Y-452130D01*
X-756469D01*
X-755790Y-453400D01*
X-756207Y-454025D01*
X-756618Y-456089D01*
X-756207Y-458153D01*
X-755712Y-458894D01*
X-756391Y-460164D01*
X-760108D01*
X-760787Y-458894D01*
X-760332Y-458213D01*
X-759910Y-456094D01*
X-760332Y-453975D01*
X-761532Y-452179D01*
X-763328Y-450979D01*
X-765447Y-450558D01*
X-772254D01*
X-773355Y-449288D01*
X-773322Y-449037D01*
X-771572Y-447868D01*
X-770403Y-446118D01*
X-769992Y-444054D01*
X-770403Y-441990D01*
X-771572Y-440240D01*
X-773322Y-439071D01*
X-775386Y-438661D01*
X-777450Y-439071D01*
X-779200Y-440240D01*
X-779978Y-441405D01*
X-782746D01*
Y-441054D01*
X-797826D01*
Y-455134D01*
X-788872D01*
X-788338Y-456346D01*
X-788906Y-457054D01*
X-797826D01*
Y-465640D01*
X-807072Y-474886D01*
X-808245Y-474400D01*
Y-457703D01*
X-804303Y-453761D01*
X-803461Y-452501D01*
X-803165Y-451014D01*
Y-437532D01*
X-801895Y-436660D01*
X-800490Y-436940D01*
X-798426Y-436529D01*
X-796782Y-435431D01*
X-729296D01*
X-727810Y-435135D01*
X-726549Y-434293D01*
X-718941Y-426684D01*
X-709354D01*
Y-417598D01*
X-707285Y-415529D01*
X-705184D01*
X-705164Y-415559D01*
X-703368Y-416759D01*
X-701249Y-417180D01*
X-691787D01*
X-689745Y-416774D01*
X-689475Y-416775D01*
X-688475Y-417309D01*
Y-426574D01*
X-668153D01*
Y-424279D01*
X-666564D01*
Y-426684D01*
X-651484D01*
Y-424627D01*
X-650369Y-424405D01*
X-649109Y-423563D01*
X-643759Y-418213D01*
X-642172Y-417897D01*
X-640422Y-416728D01*
X-639253Y-414978D01*
X-638842Y-412914D01*
X-639253Y-410850D01*
X-640422Y-409100D01*
X-640873Y-408799D01*
X-640488Y-407529D01*
X-613965D01*
X-492957Y-528536D01*
X-493736Y-530416D01*
X-494129Y-533400D01*
X-493736Y-536384D01*
X-492584Y-539164D01*
X-490752Y-541552D01*
X-488364Y-543384D01*
X-485584Y-544536D01*
X-482600Y-544929D01*
X-479616Y-544536D01*
X-476836Y-543384D01*
X-474448Y-541552D01*
X-472616Y-539164D01*
X-471464Y-536384D01*
X-471071Y-533400D01*
X-471464Y-530416D01*
X-472616Y-527636D01*
X-474448Y-525248D01*
X-476836Y-523416D01*
X-479616Y-522264D01*
X-482600Y-521871D01*
X-485584Y-522264D01*
X-487463Y-523043D01*
X-609609Y-400897D01*
X-610869Y-400055D01*
X-612356Y-399759D01*
X-651484D01*
Y-396604D01*
X-666564D01*
Y-398636D01*
X-669396D01*
X-669668Y-398229D01*
X-671464Y-397029D01*
X-673583Y-396608D01*
X-683045D01*
X-685164Y-397029D01*
X-686960Y-398229D01*
X-688160Y-400025D01*
X-688582Y-402144D01*
X-688160Y-404263D01*
X-686960Y-406059D01*
X-685164Y-407259D01*
X-683045Y-407680D01*
X-673583D01*
X-671464Y-407259D01*
X-670187Y-406406D01*
X-666564D01*
Y-410684D01*
X-651484D01*
Y-407529D01*
X-647984D01*
X-647599Y-408799D01*
X-648050Y-409100D01*
X-649219Y-410850D01*
X-649611Y-412818D01*
X-650214Y-413276D01*
X-651484Y-412684D01*
Y-412604D01*
X-666564D01*
Y-416510D01*
X-668153D01*
Y-415714D01*
X-686448D01*
X-687127Y-414444D01*
X-686672Y-413763D01*
X-686250Y-411644D01*
X-686672Y-409525D01*
X-687872Y-407729D01*
X-689668Y-406529D01*
X-691787Y-406108D01*
X-699337D01*
X-699989Y-404882D01*
X-699540Y-404081D01*
X-699322Y-404037D01*
X-697572Y-402868D01*
X-696403Y-401118D01*
X-695992Y-399054D01*
X-696403Y-396990D01*
X-696819Y-396367D01*
X-696141Y-395097D01*
X-600997D01*
X-492957Y-503136D01*
X-493736Y-505016D01*
X-494129Y-508000D01*
X-493736Y-510984D01*
X-492584Y-513764D01*
X-490752Y-516152D01*
X-488364Y-517984D01*
X-485584Y-519136D01*
X-482600Y-519529D01*
X-479616Y-519136D01*
X-476836Y-517984D01*
X-474448Y-516152D01*
X-472616Y-513764D01*
X-471464Y-510984D01*
X-471071Y-508000D01*
X-471464Y-505016D01*
X-472616Y-502236D01*
X-474448Y-499848D01*
X-476836Y-498016D01*
X-479616Y-496864D01*
X-482600Y-496471D01*
X-485584Y-496864D01*
X-487463Y-497643D01*
X-596641Y-388465D01*
X-597901Y-387623D01*
X-599388Y-387327D01*
X-720248D01*
X-721735Y-387623D01*
X-722995Y-388465D01*
X-729086Y-394556D01*
X-729175Y-394690D01*
X-731090Y-396604D01*
X-740676D01*
Y-398636D01*
X-743451D01*
X-743723Y-398229D01*
X-745519Y-397029D01*
X-747637Y-396608D01*
X-757100D01*
X-759219Y-397029D01*
X-761015Y-398229D01*
X-762215Y-400025D01*
X-762636Y-402144D01*
X-762215Y-404263D01*
X-761015Y-406059D01*
X-759219Y-407259D01*
X-757100Y-407680D01*
X-756296D01*
X-755617Y-408950D01*
X-756207Y-409834D01*
X-756618Y-411898D01*
X-756207Y-413962D01*
X-755885Y-414444D01*
X-756564Y-415714D01*
X-760503D01*
X-761182Y-414444D01*
X-760726Y-413763D01*
X-760305Y-411644D01*
X-760726Y-409525D01*
X-761926Y-407729D01*
X-763723Y-406529D01*
X-765841Y-406108D01*
X-773489D01*
X-774030Y-404940D01*
X-773429Y-404058D01*
X-773322Y-404037D01*
X-771572Y-402868D01*
X-770403Y-401118D01*
X-769992Y-399054D01*
X-770403Y-396990D01*
X-771572Y-395240D01*
X-773005Y-394283D01*
X-772629Y-393013D01*
X-731328D01*
X-729842Y-392717D01*
X-728581Y-391875D01*
X-718941Y-382234D01*
X-709354D01*
Y-373148D01*
X-707285Y-371079D01*
X-705184D01*
X-705164Y-371109D01*
X-703368Y-372309D01*
X-701249Y-372730D01*
X-691787D01*
X-689745Y-372324D01*
X-689475Y-372325D01*
X-688475Y-372859D01*
Y-382124D01*
X-668153D01*
Y-379829D01*
X-666564D01*
Y-382234D01*
X-651484D01*
Y-380647D01*
X-650369Y-380425D01*
X-649109Y-379583D01*
X-643759Y-374233D01*
X-642172Y-373918D01*
X-640422Y-372748D01*
X-639253Y-370999D01*
X-638842Y-368935D01*
X-639253Y-366871D01*
X-640422Y-365121D01*
X-641578Y-364349D01*
X-641192Y-363079D01*
X-607615D01*
X-492957Y-477737D01*
X-493736Y-479616D01*
X-494129Y-482600D01*
X-493736Y-485584D01*
X-492584Y-488364D01*
X-490752Y-490752D01*
X-488364Y-492584D01*
X-485584Y-493736D01*
X-482600Y-494129D01*
X-479616Y-493736D01*
X-476836Y-492584D01*
X-474448Y-490752D01*
X-472616Y-488364D01*
X-471464Y-485584D01*
X-471071Y-482600D01*
X-471464Y-479616D01*
X-472616Y-476836D01*
X-474448Y-474448D01*
X-476836Y-472616D01*
X-479616Y-471464D01*
X-482600Y-471071D01*
X-485584Y-471464D01*
X-487463Y-472243D01*
X-603259Y-356447D01*
X-604519Y-355605D01*
X-606006Y-355309D01*
X-651484D01*
Y-352154D01*
X-666564D01*
Y-354186D01*
X-669396D01*
X-669668Y-353779D01*
X-671464Y-352579D01*
X-673583Y-352158D01*
X-683045D01*
X-685164Y-352579D01*
X-686960Y-353779D01*
X-688160Y-355575D01*
X-688582Y-357694D01*
X-688160Y-359813D01*
X-686960Y-361609D01*
X-685164Y-362809D01*
X-683045Y-363230D01*
X-673583D01*
X-671464Y-362809D01*
X-670187Y-361956D01*
X-666564D01*
Y-366234D01*
X-651484D01*
Y-363079D01*
X-647280D01*
X-646894Y-364349D01*
X-648050Y-365121D01*
X-649219Y-366871D01*
X-649611Y-368839D01*
X-650214Y-369297D01*
X-651484Y-368705D01*
Y-368154D01*
X-666564D01*
Y-372060D01*
X-668153D01*
Y-371264D01*
X-686448D01*
X-687127Y-369994D01*
X-686672Y-369313D01*
X-686250Y-367194D01*
X-686672Y-365075D01*
X-687872Y-363279D01*
X-689668Y-362079D01*
X-691787Y-361658D01*
X-700544D01*
X-700929Y-360388D01*
X-700717Y-360247D01*
X-699999Y-359172D01*
X-699322Y-359037D01*
X-697572Y-357868D01*
X-696403Y-356118D01*
X-695992Y-354054D01*
X-696403Y-351990D01*
X-697172Y-350839D01*
X-696493Y-349569D01*
X-595725D01*
X-492957Y-452337D01*
X-493736Y-454216D01*
X-494129Y-457200D01*
X-493736Y-460184D01*
X-492584Y-462964D01*
X-490752Y-465352D01*
X-488364Y-467184D01*
X-485584Y-468336D01*
X-482600Y-468729D01*
X-479616Y-468336D01*
X-476836Y-467184D01*
X-474448Y-465352D01*
X-472616Y-462964D01*
X-471464Y-460184D01*
X-471071Y-457200D01*
X-471464Y-454216D01*
X-472616Y-451436D01*
X-474448Y-449048D01*
X-476836Y-447216D01*
X-479616Y-446064D01*
X-482600Y-445671D01*
X-485584Y-446064D01*
X-487463Y-446843D01*
X-591369Y-342937D01*
X-592629Y-342095D01*
X-594116Y-341800D01*
X-719170D01*
X-720657Y-342095D01*
X-721557Y-342696D01*
X-722366Y-341710D01*
X-718440Y-337784D01*
X-709354D01*
Y-328698D01*
X-707285Y-326629D01*
X-705367D01*
X-705347Y-326659D01*
X-703550Y-327859D01*
X-701432Y-328280D01*
X-691969D01*
X-689928Y-327874D01*
X-689657Y-327875D01*
X-688658Y-328409D01*
Y-337674D01*
X-668336D01*
Y-335379D01*
X-666564D01*
Y-337784D01*
X-651484D01*
Y-335727D01*
X-650369Y-335505D01*
X-649109Y-334663D01*
X-643759Y-329313D01*
X-642172Y-328997D01*
X-640422Y-327828D01*
X-639253Y-326078D01*
X-638842Y-324014D01*
X-639253Y-321950D01*
X-640422Y-320200D01*
X-640873Y-319899D01*
X-640488Y-318629D01*
X-601265D01*
X-492957Y-426936D01*
X-493736Y-428816D01*
X-494129Y-431800D01*
X-493736Y-434784D01*
X-492584Y-437564D01*
X-490752Y-439952D01*
X-488364Y-441784D01*
X-485584Y-442936D01*
X-482600Y-443329D01*
X-479616Y-442936D01*
X-476836Y-441784D01*
X-474448Y-439952D01*
X-472616Y-437564D01*
X-471464Y-434784D01*
X-471071Y-431800D01*
X-471464Y-428816D01*
X-472616Y-426036D01*
X-474448Y-423648D01*
X-476836Y-421816D01*
X-479616Y-420664D01*
X-482600Y-420271D01*
X-485584Y-420664D01*
X-487463Y-421443D01*
X-596909Y-311997D01*
X-598169Y-311155D01*
X-599656Y-310860D01*
X-651484D01*
Y-307704D01*
X-666564D01*
Y-309736D01*
X-669579D01*
X-669851Y-309329D01*
X-671647Y-308129D01*
X-673766Y-307708D01*
X-683228D01*
X-685347Y-308129D01*
X-687143Y-309329D01*
X-688343Y-311125D01*
X-688764Y-313244D01*
X-688343Y-315363D01*
X-687143Y-317159D01*
X-685347Y-318359D01*
X-683228Y-318780D01*
X-673766D01*
X-671647Y-318359D01*
X-670370Y-317506D01*
X-666564D01*
Y-321784D01*
X-651484D01*
Y-318629D01*
X-647984D01*
X-647599Y-319899D01*
X-648050Y-320200D01*
X-649219Y-321950D01*
X-649611Y-323918D01*
X-650214Y-324376D01*
X-651484Y-323784D01*
Y-323704D01*
X-666564D01*
Y-327609D01*
X-668336D01*
Y-326814D01*
X-686631D01*
X-687310Y-325544D01*
X-686854Y-324863D01*
X-686433Y-322744D01*
X-686854Y-320625D01*
X-688055Y-318829D01*
X-689851Y-317629D01*
X-691969Y-317208D01*
X-699646D01*
X-700243Y-316060D01*
X-699680Y-315108D01*
X-699322Y-315037D01*
X-697572Y-313868D01*
X-696403Y-312118D01*
X-695992Y-310054D01*
X-696403Y-307990D01*
X-697172Y-306839D01*
X-696493Y-305569D01*
X-588925D01*
X-492957Y-401536D01*
X-493736Y-403416D01*
X-494129Y-406400D01*
X-493736Y-409384D01*
X-492584Y-412164D01*
X-490752Y-414552D01*
X-488364Y-416384D01*
X-485584Y-417536D01*
X-482600Y-417929D01*
X-479616Y-417536D01*
X-476836Y-416384D01*
X-474448Y-414552D01*
X-472616Y-412164D01*
X-471464Y-409384D01*
X-471071Y-406400D01*
X-471464Y-403416D01*
X-472616Y-400636D01*
X-474448Y-398248D01*
X-476836Y-396416D01*
X-479616Y-395264D01*
X-482600Y-394871D01*
X-485584Y-395264D01*
X-487463Y-396043D01*
X-584569Y-298937D01*
X-585829Y-298095D01*
X-587316Y-297799D01*
X-719620D01*
X-721107Y-298095D01*
X-722367Y-298937D01*
X-729086Y-305656D01*
X-729175Y-305790D01*
X-731090Y-307704D01*
X-740676D01*
Y-309736D01*
X-743663D01*
X-743935Y-309329D01*
X-745731Y-308129D01*
X-747849Y-307708D01*
X-757312D01*
X-759430Y-308129D01*
X-761227Y-309329D01*
X-762427Y-311125D01*
X-762848Y-313244D01*
X-762427Y-315363D01*
X-761227Y-317159D01*
X-759430Y-318359D01*
X-757312Y-318780D01*
X-756296D01*
X-755617Y-320050D01*
X-756207Y-320934D01*
X-756618Y-322998D01*
X-756207Y-325062D01*
X-755885Y-325544D01*
X-756564Y-326814D01*
X-760715D01*
X-761394Y-325544D01*
X-760938Y-324863D01*
X-760517Y-322744D01*
X-760938Y-320625D01*
X-762138Y-318829D01*
X-763934Y-317629D01*
X-766053Y-317208D01*
X-772213D01*
X-772415Y-316959D01*
X-772160Y-315261D01*
X-771572Y-314868D01*
X-770403Y-313118D01*
X-769992Y-311054D01*
X-770403Y-308990D01*
X-771572Y-307240D01*
X-773322Y-306071D01*
X-775386Y-305660D01*
X-777450Y-306071D01*
X-777710Y-306245D01*
X-777832Y-306269D01*
X-779512Y-307392D01*
X-780525Y-308405D01*
X-782746D01*
Y-307704D01*
X-792846D01*
X-793332Y-306531D01*
X-785582Y-298781D01*
X-726674D01*
X-725188Y-298485D01*
X-723927Y-297643D01*
X-718440Y-292156D01*
X-709354D01*
Y-283070D01*
X-707285Y-281001D01*
X-705367D01*
X-705347Y-281031D01*
X-703550Y-282231D01*
X-701432Y-282652D01*
X-691969D01*
X-689928Y-282246D01*
X-689657Y-282247D01*
X-688658Y-282781D01*
Y-292046D01*
X-668336D01*
Y-290081D01*
X-666564D01*
Y-292816D01*
X-651484D01*
Y-290007D01*
X-650369Y-289785D01*
X-649109Y-288943D01*
X-643759Y-283593D01*
X-642172Y-283277D01*
X-640422Y-282108D01*
X-639253Y-280358D01*
X-638842Y-278294D01*
X-639253Y-276230D01*
X-640121Y-274931D01*
X-639537Y-273661D01*
X-595433D01*
X-492957Y-376137D01*
X-493736Y-378016D01*
X-494129Y-381000D01*
X-493736Y-383984D01*
X-492584Y-386764D01*
X-490752Y-389152D01*
X-488364Y-390984D01*
X-485584Y-392136D01*
X-482600Y-392529D01*
X-479616Y-392136D01*
X-476836Y-390984D01*
X-474448Y-389152D01*
X-472616Y-386764D01*
X-471464Y-383984D01*
X-471071Y-381000D01*
X-471464Y-378016D01*
X-472616Y-375236D01*
X-474448Y-372848D01*
X-476836Y-371016D01*
X-479616Y-369864D01*
X-482600Y-369471D01*
X-485584Y-369864D01*
X-487463Y-370643D01*
X-591077Y-267029D01*
X-592337Y-266187D01*
X-593824Y-265891D01*
X-651484D01*
Y-262736D01*
X-650540Y-261951D01*
X-581743D01*
X-492957Y-350737D01*
X-493736Y-352616D01*
X-494129Y-355600D01*
X-493736Y-358584D01*
X-492584Y-361364D01*
X-490752Y-363752D01*
X-488364Y-365584D01*
X-485584Y-366736D01*
X-482600Y-367129D01*
X-479616Y-366736D01*
X-476836Y-365584D01*
X-474448Y-363752D01*
X-472616Y-361364D01*
X-471464Y-358584D01*
X-471071Y-355600D01*
X-471464Y-352616D01*
X-472616Y-349836D01*
X-474448Y-347448D01*
X-476836Y-345616D01*
X-479616Y-344464D01*
X-482600Y-344071D01*
X-485584Y-344464D01*
X-487463Y-345243D01*
X-577387Y-255319D01*
X-578647Y-254477D01*
X-580134Y-254181D01*
X-721630D01*
X-723117Y-254477D01*
X-724377Y-255319D01*
X-729086Y-260028D01*
X-729175Y-260162D01*
X-731090Y-262076D01*
X-740676D01*
Y-264108D01*
X-743663D01*
X-743935Y-263701D01*
X-745731Y-262501D01*
X-747849Y-262080D01*
X-757312D01*
X-759430Y-262501D01*
X-761227Y-263701D01*
X-762427Y-265497D01*
X-762848Y-267616D01*
X-762427Y-269735D01*
X-761227Y-271531D01*
X-759430Y-272731D01*
X-757312Y-273152D01*
X-756357D01*
X-755678Y-274422D01*
X-756207Y-275214D01*
X-756618Y-277278D01*
X-756207Y-279342D01*
X-755824Y-279916D01*
X-756503Y-281186D01*
X-760715D01*
X-761394Y-279916D01*
X-760938Y-279235D01*
X-760517Y-277116D01*
X-760938Y-274997D01*
X-762138Y-273201D01*
X-763934Y-272001D01*
X-766053Y-271580D01*
X-772279D01*
X-773363Y-270310D01*
X-773322Y-270037D01*
X-771572Y-268868D01*
X-770403Y-267118D01*
X-769992Y-265054D01*
X-770403Y-262990D01*
X-771572Y-261240D01*
X-773322Y-260071D01*
X-775386Y-259660D01*
X-777450Y-260071D01*
X-779200Y-261240D01*
X-779978Y-262405D01*
X-782746D01*
Y-262076D01*
X-797826D01*
Y-276156D01*
X-788872D01*
X-788338Y-277367D01*
X-788906Y-278076D01*
X-797826D01*
Y-287971D01*
X-797901Y-288346D01*
Y-292928D01*
X-807257Y-302284D01*
X-808099Y-303544D01*
X-808395Y-305031D01*
Y-323662D01*
X-809665Y-324048D01*
X-810392Y-322959D01*
X-812142Y-321790D01*
X-814206Y-321379D01*
X-814791Y-321496D01*
X-815537Y-320749D01*
X-816797Y-319907D01*
X-818284Y-319611D01*
X-830637D01*
X-831229Y-318181D01*
X-832919Y-315979D01*
X-835121Y-314289D01*
X-837684Y-313227D01*
X-840436Y-312865D01*
X-843187Y-313227D01*
X-845751Y-314289D01*
X-847953Y-315979D01*
X-848219Y-316325D01*
X-849421Y-315917D01*
Y-305675D01*
X-848219Y-305267D01*
X-847953Y-305613D01*
X-845751Y-307303D01*
X-843187Y-308365D01*
X-840436Y-308727D01*
X-837684Y-308365D01*
X-835121Y-307303D01*
X-832919Y-305613D01*
X-831229Y-303412D01*
X-830167Y-300847D01*
X-829805Y-298096D01*
X-830167Y-295345D01*
X-831229Y-292780D01*
X-832919Y-290579D01*
X-835121Y-288889D01*
X-837684Y-287827D01*
X-840436Y-287465D01*
X-843187Y-287827D01*
X-845751Y-288889D01*
X-847953Y-290579D01*
X-848219Y-290925D01*
X-849421Y-290517D01*
Y-280275D01*
X-848219Y-279867D01*
X-847953Y-280213D01*
X-845751Y-281903D01*
X-843187Y-282965D01*
X-840436Y-283327D01*
X-837684Y-282965D01*
X-835121Y-281903D01*
X-832919Y-280213D01*
X-831229Y-278011D01*
X-830167Y-275448D01*
X-829805Y-272696D01*
X-830167Y-269944D01*
X-831229Y-267381D01*
X-832919Y-265179D01*
X-835121Y-263489D01*
X-837684Y-262427D01*
X-840436Y-262065D01*
X-843187Y-262427D01*
X-845751Y-263489D01*
X-847953Y-265179D01*
X-848219Y-265525D01*
X-849421Y-265117D01*
Y-261775D01*
X-844618Y-256972D01*
X-843187Y-257565D01*
X-840436Y-257927D01*
X-837684Y-257565D01*
X-835121Y-256503D01*
X-832919Y-254813D01*
X-831229Y-252612D01*
X-830167Y-250047D01*
X-829805Y-247296D01*
X-830167Y-244545D01*
X-831229Y-241980D01*
X-832919Y-239779D01*
X-835121Y-238089D01*
X-837684Y-237027D01*
X-840436Y-236665D01*
D02*
G37*
G36*
X0Y-369471D02*
X-2984Y-369864D01*
X-5764Y-371016D01*
X-8152Y-372848D01*
X-9984Y-375236D01*
X-11136Y-378016D01*
X-11529Y-381000D01*
X-11136Y-383984D01*
X-9984Y-386764D01*
X-8152Y-389152D01*
X-5764Y-390984D01*
X-2984Y-392136D01*
X0Y-392529D01*
X2984Y-392136D01*
X5764Y-390984D01*
X8152Y-389152D01*
X9984Y-386764D01*
X11136Y-383984D01*
X11529Y-381000D01*
X11136Y-378016D01*
X9984Y-375236D01*
X8152Y-372848D01*
X5764Y-371016D01*
X2984Y-369864D01*
X0Y-369471D01*
D02*
G37*
G36*
Y-394871D02*
X-2984Y-395264D01*
X-5764Y-396416D01*
X-8152Y-398248D01*
X-9984Y-400636D01*
X-11136Y-403416D01*
X-11529Y-406400D01*
X-11136Y-409384D01*
X-9984Y-412164D01*
X-8152Y-414552D01*
X-5764Y-416384D01*
X-2984Y-417536D01*
X0Y-417929D01*
X2984Y-417536D01*
X5764Y-416384D01*
X8152Y-414552D01*
X9984Y-412164D01*
X11136Y-409384D01*
X11529Y-406400D01*
X11136Y-403416D01*
X9984Y-400636D01*
X8152Y-398248D01*
X5764Y-396416D01*
X2984Y-395264D01*
X0Y-394871D01*
D02*
G37*
G36*
Y-420271D02*
X-2984Y-420664D01*
X-5764Y-421816D01*
X-8152Y-423648D01*
X-9984Y-426036D01*
X-11136Y-428816D01*
X-11529Y-431800D01*
X-11136Y-434784D01*
X-9984Y-437564D01*
X-8152Y-439952D01*
X-5764Y-441784D01*
X-2984Y-442936D01*
X0Y-443329D01*
X2984Y-442936D01*
X5764Y-441784D01*
X8152Y-439952D01*
X9984Y-437564D01*
X11136Y-434784D01*
X11529Y-431800D01*
X11136Y-428816D01*
X9984Y-426036D01*
X8152Y-423648D01*
X5764Y-421816D01*
X2984Y-420664D01*
X0Y-420271D01*
D02*
G37*
G36*
Y-445671D02*
X-2984Y-446064D01*
X-5764Y-447216D01*
X-8152Y-449048D01*
X-9984Y-451436D01*
X-11136Y-454216D01*
X-11529Y-457200D01*
X-11136Y-460184D01*
X-9984Y-462964D01*
X-8152Y-465352D01*
X-5764Y-467184D01*
X-2984Y-468336D01*
X0Y-468729D01*
X2984Y-468336D01*
X5764Y-467184D01*
X8152Y-465352D01*
X9984Y-462964D01*
X11136Y-460184D01*
X11529Y-457200D01*
X11136Y-454216D01*
X9984Y-451436D01*
X8152Y-449048D01*
X5764Y-447216D01*
X2984Y-446064D01*
X0Y-445671D01*
D02*
G37*
G36*
Y-471071D02*
X-2984Y-471464D01*
X-5764Y-472616D01*
X-8152Y-474448D01*
X-9984Y-476836D01*
X-11136Y-479616D01*
X-11529Y-482600D01*
X-11136Y-485584D01*
X-9984Y-488364D01*
X-8152Y-490752D01*
X-5764Y-492584D01*
X-2984Y-493736D01*
X0Y-494129D01*
X2984Y-493736D01*
X5764Y-492584D01*
X8152Y-490752D01*
X9984Y-488364D01*
X11136Y-485584D01*
X11529Y-482600D01*
X11136Y-479616D01*
X9984Y-476836D01*
X8152Y-474448D01*
X5764Y-472616D01*
X2984Y-471464D01*
X0Y-471071D01*
D02*
G37*
G36*
X-193410Y-473710D02*
X-213990D01*
Y-494290D01*
X-193410D01*
Y-473710D01*
D02*
G37*
G36*
X-229100Y-473621D02*
X-231786Y-473975D01*
X-234289Y-475012D01*
X-236439Y-476661D01*
X-238088Y-478811D01*
X-239125Y-481314D01*
X-239479Y-484000D01*
X-239125Y-486686D01*
X-238088Y-489189D01*
X-236439Y-491339D01*
X-234289Y-492988D01*
X-231786Y-494025D01*
X-229100Y-494379D01*
X-226414Y-494025D01*
X-223911Y-492988D01*
X-221761Y-491339D01*
X-220112Y-489189D01*
X-219075Y-486686D01*
X-218721Y-484000D01*
X-219075Y-481314D01*
X-220112Y-478811D01*
X-221761Y-476661D01*
X-223911Y-475012D01*
X-226414Y-473975D01*
X-229100Y-473621D01*
D02*
G37*
G36*
X-254500D02*
X-257186Y-473975D01*
X-259689Y-475012D01*
X-261839Y-476661D01*
X-263488Y-478811D01*
X-264525Y-481314D01*
X-264879Y-484000D01*
X-264525Y-486686D01*
X-263488Y-489189D01*
X-261839Y-491339D01*
X-259689Y-492988D01*
X-257186Y-494025D01*
X-254500Y-494379D01*
X-251814Y-494025D01*
X-249311Y-492988D01*
X-247161Y-491339D01*
X-245512Y-489189D01*
X-244475Y-486686D01*
X-244121Y-484000D01*
X-244475Y-481314D01*
X-245512Y-478811D01*
X-247161Y-476661D01*
X-249311Y-475012D01*
X-251814Y-473975D01*
X-254500Y-473621D01*
D02*
G37*
G36*
X-253230Y-499188D02*
Y-508130D01*
X-244288D01*
X-244475Y-506714D01*
X-245512Y-504211D01*
X-247161Y-502061D01*
X-249311Y-500412D01*
X-251814Y-499375D01*
X-253230Y-499188D01*
D02*
G37*
G36*
X-255770Y-499188D02*
X-257186Y-499375D01*
X-259689Y-500412D01*
X-261839Y-502061D01*
X-263488Y-504211D01*
X-264525Y-506714D01*
X-264712Y-508130D01*
X-255770D01*
Y-499188D01*
D02*
G37*
G36*
X-244288Y-510670D02*
X-253230D01*
Y-519612D01*
X-251814Y-519425D01*
X-249311Y-518388D01*
X-247161Y-516739D01*
X-245512Y-514589D01*
X-244475Y-512086D01*
X-244288Y-510670D01*
D02*
G37*
G36*
X-255770D02*
X-264712D01*
X-264525Y-512086D01*
X-263488Y-514589D01*
X-261839Y-516739D01*
X-259689Y-518388D01*
X-257186Y-519425D01*
X-255770Y-519612D01*
Y-510670D01*
D02*
G37*
G36*
X-203700Y-499021D02*
X-206386Y-499375D01*
X-208889Y-500412D01*
X-211039Y-502061D01*
X-212688Y-504211D01*
X-213725Y-506714D01*
X-214079Y-509400D01*
X-213725Y-512086D01*
X-212688Y-514589D01*
X-211039Y-516739D01*
X-208889Y-518388D01*
X-206386Y-519425D01*
X-203700Y-519779D01*
X-201014Y-519425D01*
X-198511Y-518388D01*
X-196361Y-516739D01*
X-194712Y-514589D01*
X-193675Y-512086D01*
X-193321Y-509400D01*
X-193675Y-506714D01*
X-194712Y-504211D01*
X-196361Y-502061D01*
X-198511Y-500412D01*
X-201014Y-499375D01*
X-203700Y-499021D01*
D02*
G37*
G36*
X-229100D02*
X-231786Y-499375D01*
X-234289Y-500412D01*
X-236439Y-502061D01*
X-238088Y-504211D01*
X-239125Y-506714D01*
X-239479Y-509400D01*
X-239125Y-512086D01*
X-238088Y-514589D01*
X-236439Y-516739D01*
X-234289Y-518388D01*
X-231786Y-519425D01*
X-229100Y-519779D01*
X-226414Y-519425D01*
X-223911Y-518388D01*
X-221761Y-516739D01*
X-220112Y-514589D01*
X-219075Y-512086D01*
X-218721Y-509400D01*
X-219075Y-506714D01*
X-220112Y-504211D01*
X-221761Y-502061D01*
X-223911Y-500412D01*
X-226414Y-499375D01*
X-229100Y-499021D01*
D02*
G37*
G36*
X-139500Y-478037D02*
X-164500D01*
X-182000Y-495537D01*
Y-520537D01*
X-164500Y-538037D01*
X-139500D01*
X-122000Y-520537D01*
Y-495537D01*
X-139500Y-478037D01*
D02*
G37*
G36*
X-418500D02*
X-443500D01*
X-461000Y-495537D01*
Y-520537D01*
X-443500Y-538037D01*
X-418500D01*
X-401000Y-520537D01*
Y-495537D01*
X-418500Y-478037D01*
D02*
G37*
G36*
X0Y-521871D02*
X-2984Y-522264D01*
X-5764Y-523416D01*
X-8152Y-525248D01*
X-9984Y-527636D01*
X-11136Y-530416D01*
X-11529Y-533400D01*
X-11136Y-536384D01*
X-9984Y-539164D01*
X-8152Y-541552D01*
X-5764Y-543384D01*
X-2984Y-544536D01*
X0Y-544929D01*
X2984Y-544536D01*
X5764Y-543384D01*
X8152Y-541552D01*
X9984Y-539164D01*
X11136Y-536384D01*
X11529Y-533400D01*
X11136Y-530416D01*
X9984Y-527636D01*
X8152Y-525248D01*
X5764Y-523416D01*
X2984Y-522264D01*
X0Y-521871D01*
D02*
G37*
G36*
X-864566Y-556882D02*
Y-566076D01*
X-855372D01*
X-855567Y-564594D01*
X-856629Y-562030D01*
X-858319Y-559829D01*
X-860521Y-558139D01*
X-863084Y-557077D01*
X-864566Y-556882D01*
D02*
G37*
G36*
X-867106Y-556882D02*
X-868587Y-557077D01*
X-871152Y-558139D01*
X-873353Y-559829D01*
X-875043Y-562030D01*
X-876105Y-564594D01*
X-876300Y-566076D01*
X-867106D01*
Y-556882D01*
D02*
G37*
G36*
X0Y-547271D02*
X-2984Y-547664D01*
X-5764Y-548816D01*
X-8152Y-550648D01*
X-9984Y-553036D01*
X-11136Y-555816D01*
X-11529Y-558800D01*
X-11136Y-561784D01*
X-9984Y-564564D01*
X-8152Y-566952D01*
X-5764Y-568784D01*
X-2984Y-569936D01*
X0Y-570329D01*
X2984Y-569936D01*
X5764Y-568784D01*
X8152Y-566952D01*
X9984Y-564564D01*
X11136Y-561784D01*
X11529Y-558800D01*
X11136Y-555816D01*
X9984Y-553036D01*
X8152Y-550648D01*
X5764Y-548816D01*
X2984Y-547664D01*
X0Y-547271D01*
D02*
G37*
G36*
X-867106Y-568616D02*
X-876300D01*
X-876105Y-570098D01*
X-875043Y-572662D01*
X-873353Y-574863D01*
X-871152Y-576553D01*
X-868587Y-577615D01*
X-867106Y-577810D01*
Y-568616D01*
D02*
G37*
G36*
X-855372D02*
X-864566D01*
Y-577810D01*
X-863084Y-577615D01*
X-860521Y-576553D01*
X-858319Y-574863D01*
X-856629Y-572662D01*
X-855567Y-570098D01*
X-855372Y-568616D01*
D02*
G37*
G36*
X-864566Y-582282D02*
Y-591476D01*
X-855372D01*
X-855567Y-589995D01*
X-856629Y-587430D01*
X-858319Y-585229D01*
X-860521Y-583539D01*
X-863084Y-582477D01*
X-864566Y-582282D01*
D02*
G37*
G36*
X-867106Y-582282D02*
X-868587Y-582477D01*
X-871152Y-583539D01*
X-873353Y-585229D01*
X-875043Y-587430D01*
X-876105Y-589995D01*
X-876300Y-591476D01*
X-867106D01*
Y-582282D01*
D02*
G37*
G36*
X0Y-572671D02*
X-2984Y-573064D01*
X-5764Y-574216D01*
X-8152Y-576048D01*
X-9984Y-578436D01*
X-11136Y-581216D01*
X-11529Y-584200D01*
X-11136Y-587184D01*
X-9984Y-589964D01*
X-8152Y-592352D01*
X-5764Y-594184D01*
X-2984Y-595336D01*
X0Y-595729D01*
X2984Y-595336D01*
X5764Y-594184D01*
X8152Y-592352D01*
X9984Y-589964D01*
X11136Y-587184D01*
X11529Y-584200D01*
X11136Y-581216D01*
X9984Y-578436D01*
X8152Y-576048D01*
X5764Y-574216D01*
X2984Y-573064D01*
X0Y-572671D01*
D02*
G37*
G36*
X-867106Y-594016D02*
X-876300D01*
X-876105Y-595498D01*
X-875043Y-598061D01*
X-873353Y-600263D01*
X-871152Y-601953D01*
X-868587Y-603015D01*
X-867106Y-603210D01*
Y-594016D01*
D02*
G37*
G36*
X-855372D02*
X-864566D01*
Y-603210D01*
X-863084Y-603015D01*
X-860521Y-601953D01*
X-858319Y-600263D01*
X-856629Y-598061D01*
X-855567Y-595498D01*
X-855372Y-594016D01*
D02*
G37*
G36*
X0Y-598071D02*
X-2984Y-598464D01*
X-5764Y-599616D01*
X-8152Y-601448D01*
X-9984Y-603836D01*
X-11136Y-606616D01*
X-11529Y-609600D01*
X-11136Y-612584D01*
X-9984Y-615364D01*
X-8152Y-617752D01*
X-5764Y-619584D01*
X-2984Y-620736D01*
X0Y-621129D01*
X2984Y-620736D01*
X5764Y-619584D01*
X8152Y-617752D01*
X9984Y-615364D01*
X11136Y-612584D01*
X11529Y-609600D01*
X11136Y-606616D01*
X9984Y-603836D01*
X8152Y-601448D01*
X5764Y-599616D01*
X2984Y-598464D01*
X0Y-598071D01*
D02*
G37*
G36*
X-864566Y-633082D02*
Y-642276D01*
X-855372D01*
X-855567Y-640795D01*
X-856629Y-638231D01*
X-858319Y-636029D01*
X-860521Y-634339D01*
X-863084Y-633277D01*
X-864566Y-633082D01*
D02*
G37*
G36*
X-867106Y-633082D02*
X-868587Y-633277D01*
X-871152Y-634339D01*
X-873353Y-636029D01*
X-875043Y-638231D01*
X-876105Y-640795D01*
X-876300Y-642276D01*
X-867106D01*
Y-633082D01*
D02*
G37*
G36*
X0Y-623471D02*
X-2984Y-623864D01*
X-5764Y-625016D01*
X-8152Y-626848D01*
X-9984Y-629236D01*
X-11136Y-632016D01*
X-11529Y-635000D01*
X-11136Y-637984D01*
X-9984Y-640764D01*
X-8152Y-643152D01*
X-5764Y-644984D01*
X-2984Y-646136D01*
X0Y-646529D01*
X2984Y-646136D01*
X5764Y-644984D01*
X8152Y-643152D01*
X9984Y-640764D01*
X11136Y-637984D01*
X11529Y-635000D01*
X11136Y-632016D01*
X9984Y-629236D01*
X8152Y-626848D01*
X5764Y-625016D01*
X2984Y-623864D01*
X0Y-623471D01*
D02*
G37*
G36*
X-867106Y-644816D02*
X-876300D01*
X-876105Y-646298D01*
X-875043Y-648861D01*
X-873353Y-651063D01*
X-871152Y-652753D01*
X-868587Y-653815D01*
X-867106Y-654010D01*
Y-644816D01*
D02*
G37*
G36*
X-855372D02*
X-864566D01*
Y-654010D01*
X-863084Y-653815D01*
X-860521Y-652753D01*
X-858319Y-651063D01*
X-856629Y-648861D01*
X-855567Y-646298D01*
X-855372Y-644816D01*
D02*
G37*
G36*
X0Y-648871D02*
X-2984Y-649264D01*
X-5764Y-650416D01*
X-8152Y-652248D01*
X-9984Y-654636D01*
X-11136Y-657416D01*
X-11529Y-660400D01*
X-11136Y-663384D01*
X-9984Y-666164D01*
X-8152Y-668552D01*
X-5764Y-670384D01*
X-2984Y-671536D01*
X0Y-671929D01*
X2984Y-671536D01*
X5764Y-670384D01*
X8152Y-668552D01*
X9984Y-666164D01*
X11136Y-663384D01*
X11529Y-660400D01*
X11136Y-657416D01*
X9984Y-654636D01*
X8152Y-652248D01*
X5764Y-650416D01*
X2984Y-649264D01*
X0Y-648871D01*
D02*
G37*
G36*
X-840436Y-658315D02*
X-843187Y-658677D01*
X-845751Y-659739D01*
X-847953Y-661429D01*
X-849643Y-663631D01*
X-850705Y-666195D01*
X-851067Y-668946D01*
X-850705Y-671697D01*
X-849643Y-674261D01*
X-847953Y-676463D01*
X-847816Y-676569D01*
X-848224Y-677771D01*
X-851517D01*
X-856160Y-673128D01*
X-855567Y-671697D01*
X-855205Y-668946D01*
X-855567Y-666195D01*
X-856629Y-663631D01*
X-858319Y-661429D01*
X-860521Y-659739D01*
X-863084Y-658677D01*
X-865836Y-658315D01*
X-868587Y-658677D01*
X-871152Y-659739D01*
X-873353Y-661429D01*
X-875043Y-663631D01*
X-876105Y-666195D01*
X-876467Y-668946D01*
X-876105Y-671697D01*
X-875043Y-674261D01*
X-873353Y-676463D01*
X-871152Y-678153D01*
X-868587Y-679215D01*
X-865836Y-679577D01*
X-863084Y-679215D01*
X-861654Y-678622D01*
X-855873Y-684403D01*
X-854613Y-685245D01*
X-853126Y-685541D01*
X-848250D01*
X-847842Y-686743D01*
X-847953Y-686829D01*
X-849643Y-689031D01*
X-850705Y-691594D01*
X-851067Y-694346D01*
X-850705Y-697097D01*
X-849643Y-699661D01*
X-847953Y-701863D01*
X-845751Y-703553D01*
X-843187Y-704615D01*
X-840436Y-704977D01*
X-837684Y-704615D01*
X-835121Y-703553D01*
X-832919Y-701863D01*
X-831229Y-699661D01*
X-830641Y-698241D01*
X-732215D01*
X-723265Y-707191D01*
X-722879Y-709130D01*
X-721710Y-710880D01*
X-719960Y-712049D01*
X-717896Y-712460D01*
X-715832Y-712049D01*
X-714082Y-710880D01*
X-712913Y-709130D01*
X-712502Y-707066D01*
X-712913Y-705002D01*
X-714082Y-703252D01*
X-715832Y-702083D01*
X-717771Y-701697D01*
X-727859Y-691609D01*
X-729119Y-690767D01*
X-730606Y-690471D01*
X-830632D01*
X-831229Y-689031D01*
X-832919Y-686829D01*
X-833030Y-686743D01*
X-832622Y-685541D01*
X-724087D01*
X-715137Y-694491D01*
X-714751Y-696430D01*
X-713582Y-698180D01*
X-711832Y-699349D01*
X-709768Y-699760D01*
X-707704Y-699349D01*
X-705954Y-698180D01*
X-704785Y-696430D01*
X-704374Y-694366D01*
X-704785Y-692302D01*
X-705954Y-690552D01*
X-707704Y-689383D01*
X-709643Y-688997D01*
X-719731Y-678909D01*
X-720991Y-678067D01*
X-722478Y-677771D01*
X-832648D01*
X-833056Y-676569D01*
X-832919Y-676463D01*
X-831229Y-674261D01*
X-830637Y-672831D01*
X-715969D01*
X-707009Y-681791D01*
X-706623Y-683730D01*
X-705454Y-685480D01*
X-703704Y-686649D01*
X-701640Y-687060D01*
X-699576Y-686649D01*
X-697826Y-685480D01*
X-696657Y-683730D01*
X-696246Y-681666D01*
X-696657Y-679602D01*
X-697826Y-677852D01*
X-699576Y-676683D01*
X-701515Y-676297D01*
X-711613Y-666199D01*
X-712873Y-665357D01*
X-714360Y-665061D01*
X-830637D01*
X-831229Y-663631D01*
X-832919Y-661429D01*
X-835121Y-659739D01*
X-837684Y-658677D01*
X-840436Y-658315D01*
D02*
G37*
G36*
X-864566Y-683882D02*
Y-693076D01*
X-855372D01*
X-855567Y-691594D01*
X-856629Y-689031D01*
X-858319Y-686829D01*
X-860521Y-685139D01*
X-863084Y-684077D01*
X-864566Y-683882D01*
D02*
G37*
G36*
X-867106Y-683882D02*
X-868587Y-684077D01*
X-871152Y-685139D01*
X-873353Y-686829D01*
X-875043Y-689031D01*
X-876105Y-691594D01*
X-876300Y-693076D01*
X-867106D01*
Y-683882D01*
D02*
G37*
G36*
X0Y-674271D02*
X-2984Y-674664D01*
X-5764Y-675816D01*
X-8152Y-677648D01*
X-9984Y-680036D01*
X-11136Y-682816D01*
X-11529Y-685800D01*
X-11136Y-688784D01*
X-9984Y-691564D01*
X-8152Y-693952D01*
X-5764Y-695784D01*
X-2984Y-696936D01*
X0Y-697329D01*
X2984Y-696936D01*
X5764Y-695784D01*
X8152Y-693952D01*
X9984Y-691564D01*
X11136Y-688784D01*
X11529Y-685800D01*
X11136Y-682816D01*
X9984Y-680036D01*
X8152Y-677648D01*
X5764Y-675816D01*
X2984Y-674664D01*
X0Y-674271D01*
D02*
G37*
G36*
X-482600D02*
X-485584Y-674664D01*
X-488364Y-675816D01*
X-490752Y-677648D01*
X-492584Y-680036D01*
X-493736Y-682816D01*
X-494129Y-685800D01*
X-493736Y-688784D01*
X-492584Y-691564D01*
X-490752Y-693952D01*
X-488364Y-695784D01*
X-485584Y-696936D01*
X-482600Y-697329D01*
X-479616Y-696936D01*
X-476836Y-695784D01*
X-474448Y-693952D01*
X-472616Y-691564D01*
X-471464Y-688784D01*
X-471071Y-685800D01*
X-471464Y-682816D01*
X-472616Y-680036D01*
X-474448Y-677648D01*
X-476836Y-675816D01*
X-479616Y-674664D01*
X-482600Y-674271D01*
D02*
G37*
G36*
X-867106Y-695616D02*
X-876300D01*
X-876105Y-697097D01*
X-875043Y-699661D01*
X-873353Y-701863D01*
X-871152Y-703553D01*
X-868587Y-704615D01*
X-867106Y-704810D01*
Y-695616D01*
D02*
G37*
G36*
X-855372D02*
X-864566D01*
Y-704810D01*
X-863084Y-704615D01*
X-860521Y-703553D01*
X-858319Y-701863D01*
X-856629Y-699661D01*
X-855567Y-697097D01*
X-855372Y-695616D01*
D02*
G37*
G36*
X-482600Y-699671D02*
X-485584Y-700064D01*
X-488364Y-701216D01*
X-490752Y-703048D01*
X-492584Y-705436D01*
X-493736Y-708216D01*
X-494129Y-711200D01*
X-493736Y-714184D01*
X-492584Y-716964D01*
X-490752Y-719352D01*
X-488364Y-721184D01*
X-485584Y-722336D01*
X-482600Y-722729D01*
X-479616Y-722336D01*
X-476836Y-721184D01*
X-474448Y-719352D01*
X-472616Y-716964D01*
X-471464Y-714184D01*
X-471071Y-711200D01*
X-471464Y-708216D01*
X-472616Y-705436D01*
X-474448Y-703048D01*
X-476836Y-701216D01*
X-479616Y-700064D01*
X-482600Y-699671D01*
D02*
G37*
G36*
X-840436Y-709115D02*
X-843187Y-709477D01*
X-845751Y-710539D01*
X-847953Y-712229D01*
X-849643Y-714430D01*
X-850705Y-716994D01*
X-851067Y-719746D01*
X-850705Y-722497D01*
X-849643Y-725061D01*
X-847953Y-727263D01*
X-847816Y-727369D01*
X-848224Y-728571D01*
X-851517D01*
X-856160Y-723928D01*
X-855567Y-722497D01*
X-855205Y-719746D01*
X-855567Y-716994D01*
X-856629Y-714430D01*
X-858319Y-712229D01*
X-860521Y-710539D01*
X-863084Y-709477D01*
X-865836Y-709115D01*
X-868587Y-709477D01*
X-871152Y-710539D01*
X-873353Y-712229D01*
X-875043Y-714430D01*
X-876105Y-716994D01*
X-876467Y-719746D01*
X-876105Y-722497D01*
X-875043Y-725061D01*
X-873353Y-727263D01*
X-871152Y-728953D01*
X-868587Y-730015D01*
X-865836Y-730377D01*
X-863084Y-730015D01*
X-861654Y-729422D01*
X-855873Y-735203D01*
X-854613Y-736045D01*
X-853126Y-736341D01*
X-848250D01*
X-847842Y-737543D01*
X-847953Y-737629D01*
X-849643Y-739830D01*
X-850705Y-742394D01*
X-851067Y-745146D01*
X-850705Y-747897D01*
X-849643Y-750462D01*
X-847953Y-752663D01*
X-845751Y-754353D01*
X-843187Y-755415D01*
X-840436Y-755777D01*
X-837684Y-755415D01*
X-835121Y-754353D01*
X-832919Y-752663D01*
X-831229Y-750462D01*
X-830637Y-749031D01*
X-756609D01*
X-747649Y-757991D01*
X-747263Y-759930D01*
X-746094Y-761680D01*
X-744344Y-762849D01*
X-742280Y-763260D01*
X-740216Y-762849D01*
X-738466Y-761680D01*
X-737297Y-759930D01*
X-736886Y-757866D01*
X-737297Y-755802D01*
X-738466Y-754052D01*
X-740216Y-752883D01*
X-742155Y-752497D01*
X-752253Y-742399D01*
X-753513Y-741557D01*
X-755000Y-741261D01*
X-830637D01*
X-831229Y-739830D01*
X-832919Y-737629D01*
X-833030Y-737543D01*
X-832622Y-736341D01*
X-748471D01*
X-739521Y-745291D01*
X-739135Y-747230D01*
X-737966Y-748980D01*
X-736216Y-750149D01*
X-734152Y-750560D01*
X-732088Y-750149D01*
X-730338Y-748980D01*
X-729169Y-747230D01*
X-728758Y-745166D01*
X-729169Y-743102D01*
X-730338Y-741352D01*
X-732088Y-740183D01*
X-734027Y-739797D01*
X-744115Y-729709D01*
X-745375Y-728867D01*
X-746862Y-728571D01*
X-832648D01*
X-833056Y-727369D01*
X-832919Y-727263D01*
X-831229Y-725061D01*
X-830637Y-723631D01*
X-740353D01*
X-731393Y-732591D01*
X-731007Y-734530D01*
X-729838Y-736280D01*
X-728088Y-737449D01*
X-726024Y-737860D01*
X-723960Y-737449D01*
X-722210Y-736280D01*
X-721041Y-734530D01*
X-720630Y-732466D01*
X-721041Y-730402D01*
X-722210Y-728652D01*
X-723960Y-727483D01*
X-725899Y-727097D01*
X-735967Y-717029D01*
X-735987Y-716999D01*
X-737247Y-716157D01*
X-738734Y-715861D01*
X-830637D01*
X-831229Y-714430D01*
X-832919Y-712229D01*
X-835121Y-710539D01*
X-837684Y-709477D01*
X-840436Y-709115D01*
D02*
G37*
G36*
X-864566Y-734682D02*
Y-743876D01*
X-855372D01*
X-855567Y-742394D01*
X-856629Y-739830D01*
X-858319Y-737629D01*
X-860521Y-735939D01*
X-863084Y-734877D01*
X-864566Y-734682D01*
D02*
G37*
G36*
X-867106Y-734682D02*
X-868587Y-734877D01*
X-871152Y-735939D01*
X-873353Y-737629D01*
X-875043Y-739830D01*
X-876105Y-742394D01*
X-876300Y-743876D01*
X-867106D01*
Y-734682D01*
D02*
G37*
G36*
X-482600Y-725071D02*
X-485584Y-725464D01*
X-488364Y-726616D01*
X-490752Y-728448D01*
X-492584Y-730836D01*
X-493736Y-733616D01*
X-494129Y-736600D01*
X-493736Y-739584D01*
X-492584Y-742364D01*
X-490752Y-744752D01*
X-488364Y-746584D01*
X-485584Y-747736D01*
X-482600Y-748129D01*
X-479616Y-747736D01*
X-476836Y-746584D01*
X-474448Y-744752D01*
X-472616Y-742364D01*
X-471464Y-739584D01*
X-471071Y-736600D01*
X-471464Y-733616D01*
X-472616Y-730836D01*
X-474448Y-728448D01*
X-476836Y-726616D01*
X-479616Y-725464D01*
X-482600Y-725071D01*
D02*
G37*
G36*
X-867106Y-746416D02*
X-876300D01*
X-876105Y-747897D01*
X-875043Y-750462D01*
X-873353Y-752663D01*
X-871152Y-754353D01*
X-868587Y-755415D01*
X-867106Y-755610D01*
Y-746416D01*
D02*
G37*
G36*
X-855372D02*
X-864566D01*
Y-755610D01*
X-863084Y-755415D01*
X-860521Y-754353D01*
X-858319Y-752663D01*
X-856629Y-750462D01*
X-855567Y-747897D01*
X-855372Y-746416D01*
D02*
G37*
G36*
X-482600Y-750471D02*
X-485584Y-750864D01*
X-488364Y-752016D01*
X-490752Y-753848D01*
X-492584Y-756236D01*
X-493736Y-759016D01*
X-494129Y-762000D01*
X-493736Y-764984D01*
X-492584Y-767764D01*
X-490752Y-770152D01*
X-488364Y-771984D01*
X-485584Y-773136D01*
X-482600Y-773529D01*
X-479616Y-773136D01*
X-476836Y-771984D01*
X-474448Y-770152D01*
X-472616Y-767764D01*
X-471464Y-764984D01*
X-471071Y-762000D01*
X-471464Y-759016D01*
X-472616Y-756236D01*
X-474448Y-753848D01*
X-476836Y-752016D01*
X-479616Y-750864D01*
X-482600Y-750471D01*
D02*
G37*
G36*
X-865836Y-759915D02*
X-868587Y-760277D01*
X-871152Y-761339D01*
X-873353Y-763029D01*
X-875043Y-765230D01*
X-876105Y-767794D01*
X-876467Y-770546D01*
X-876105Y-773298D01*
X-875043Y-775862D01*
X-873353Y-778063D01*
X-871152Y-779753D01*
X-868587Y-780815D01*
X-865836Y-781177D01*
X-863084Y-780815D01*
X-860521Y-779753D01*
X-858319Y-778063D01*
X-856629Y-775862D01*
X-855567Y-773298D01*
X-855205Y-770546D01*
X-855567Y-767794D01*
X-856629Y-765230D01*
X-858319Y-763029D01*
X-860521Y-761339D01*
X-863084Y-760277D01*
X-865836Y-759915D01*
D02*
G37*
G36*
X-430530Y-776039D02*
Y-786130D01*
X-420439D01*
X-420664Y-784416D01*
X-421816Y-781636D01*
X-423648Y-779248D01*
X-426036Y-777416D01*
X-428816Y-776264D01*
X-430530Y-776039D01*
D02*
G37*
G36*
X-433070Y-776039D02*
X-434784Y-776264D01*
X-437564Y-777416D01*
X-439952Y-779248D01*
X-441784Y-781636D01*
X-442936Y-784416D01*
X-443161Y-786130D01*
X-433070D01*
Y-776039D01*
D02*
G37*
G36*
X-840436Y-759915D02*
X-843187Y-760277D01*
X-845751Y-761339D01*
X-847953Y-763029D01*
X-849643Y-765230D01*
X-850705Y-767794D01*
X-851067Y-770546D01*
X-850705Y-773298D01*
X-849643Y-775862D01*
X-847953Y-778063D01*
X-845751Y-779753D01*
X-843187Y-780815D01*
X-840436Y-781177D01*
X-837684Y-780815D01*
X-835121Y-779753D01*
X-832919Y-778063D01*
X-831229Y-775862D01*
X-830637Y-774431D01*
X-764737D01*
X-755777Y-783391D01*
X-755391Y-785330D01*
X-754222Y-787080D01*
X-752472Y-788249D01*
X-750408Y-788660D01*
X-748344Y-788249D01*
X-746594Y-787080D01*
X-745425Y-785330D01*
X-745014Y-783266D01*
X-745425Y-781202D01*
X-746594Y-779452D01*
X-748344Y-778283D01*
X-750283Y-777897D01*
X-760381Y-767799D01*
X-761641Y-766957D01*
X-763128Y-766661D01*
X-830637D01*
X-831229Y-765230D01*
X-832919Y-763029D01*
X-835121Y-761339D01*
X-837684Y-760277D01*
X-840436Y-759915D01*
D02*
G37*
G36*
X-864566Y-785482D02*
Y-794676D01*
X-855372D01*
X-855567Y-793195D01*
X-856629Y-790630D01*
X-858319Y-788429D01*
X-860521Y-786739D01*
X-863084Y-785677D01*
X-864566Y-785482D01*
D02*
G37*
G36*
X-867106Y-785482D02*
X-868587Y-785677D01*
X-871152Y-786739D01*
X-873353Y-788429D01*
X-875043Y-790630D01*
X-876105Y-793195D01*
X-876300Y-794676D01*
X-867106D01*
Y-785482D01*
D02*
G37*
G36*
X-433070Y-788670D02*
X-443161D01*
X-442936Y-790384D01*
X-441784Y-793164D01*
X-439952Y-795552D01*
X-437564Y-797384D01*
X-434784Y-798536D01*
X-433070Y-798761D01*
Y-788670D01*
D02*
G37*
G36*
X-420439D02*
X-430530D01*
Y-798761D01*
X-428816Y-798536D01*
X-426036Y-797384D01*
X-423648Y-795552D01*
X-421816Y-793164D01*
X-420664Y-790384D01*
X-420439Y-788670D01*
D02*
G37*
G36*
X0Y-699671D02*
X-2984Y-700064D01*
X-5764Y-701216D01*
X-8152Y-703048D01*
X-9984Y-705436D01*
X-11136Y-708216D01*
X-11529Y-711200D01*
X-11136Y-714184D01*
X-9984Y-716964D01*
X-9038Y-718198D01*
X-9599Y-719337D01*
X-12500D01*
X-30000Y-736837D01*
Y-761837D01*
X-12500Y-779337D01*
X-9656D01*
X-9094Y-780476D01*
X-9984Y-781636D01*
X-11136Y-784416D01*
X-11529Y-787400D01*
X-11136Y-790384D01*
X-9984Y-793164D01*
X-8152Y-795552D01*
X-5764Y-797384D01*
X-2984Y-798536D01*
X0Y-798929D01*
X2984Y-798536D01*
X5764Y-797384D01*
X8152Y-795552D01*
X9984Y-793164D01*
X11136Y-790384D01*
X11529Y-787400D01*
X11136Y-784416D01*
X9984Y-781636D01*
X9094Y-780476D01*
X9656Y-779337D01*
X12500D01*
X30000Y-761837D01*
Y-736837D01*
X12500Y-719337D01*
X9599D01*
X9038Y-718198D01*
X9984Y-716964D01*
X11136Y-714184D01*
X11529Y-711200D01*
X11136Y-708216D01*
X9984Y-705436D01*
X8152Y-703048D01*
X5764Y-701216D01*
X2984Y-700064D01*
X0Y-699671D01*
D02*
G37*
G36*
X-25400Y-775871D02*
X-28384Y-776264D01*
X-31164Y-777416D01*
X-33552Y-779248D01*
X-35384Y-781636D01*
X-36536Y-784416D01*
X-36929Y-787400D01*
X-36536Y-790384D01*
X-35384Y-793164D01*
X-33552Y-795552D01*
X-31164Y-797384D01*
X-28384Y-798536D01*
X-25400Y-798929D01*
X-22416Y-798536D01*
X-19636Y-797384D01*
X-17248Y-795552D01*
X-15416Y-793164D01*
X-14264Y-790384D01*
X-13871Y-787400D01*
X-14264Y-784416D01*
X-15416Y-781636D01*
X-17248Y-779248D01*
X-19636Y-777416D01*
X-22416Y-776264D01*
X-25400Y-775871D01*
D02*
G37*
G36*
X-50800D02*
X-53784Y-776264D01*
X-56564Y-777416D01*
X-58952Y-779248D01*
X-60784Y-781636D01*
X-61936Y-784416D01*
X-62329Y-787400D01*
X-61936Y-790384D01*
X-60784Y-793164D01*
X-58952Y-795552D01*
X-56564Y-797384D01*
X-53784Y-798536D01*
X-50800Y-798929D01*
X-47816Y-798536D01*
X-45036Y-797384D01*
X-42648Y-795552D01*
X-40816Y-793164D01*
X-39664Y-790384D01*
X-39271Y-787400D01*
X-39664Y-784416D01*
X-40816Y-781636D01*
X-42648Y-779248D01*
X-45036Y-777416D01*
X-47816Y-776264D01*
X-50800Y-775871D01*
D02*
G37*
G36*
X-76200D02*
X-79184Y-776264D01*
X-81964Y-777416D01*
X-84352Y-779248D01*
X-86184Y-781636D01*
X-87336Y-784416D01*
X-87729Y-787400D01*
X-87336Y-790384D01*
X-86184Y-793164D01*
X-84352Y-795552D01*
X-81964Y-797384D01*
X-79184Y-798536D01*
X-76200Y-798929D01*
X-73216Y-798536D01*
X-70436Y-797384D01*
X-68048Y-795552D01*
X-66216Y-793164D01*
X-65064Y-790384D01*
X-64671Y-787400D01*
X-65064Y-784416D01*
X-66216Y-781636D01*
X-68048Y-779248D01*
X-70436Y-777416D01*
X-73216Y-776264D01*
X-76200Y-775871D01*
D02*
G37*
G36*
X-101600D02*
X-104584Y-776264D01*
X-107364Y-777416D01*
X-109752Y-779248D01*
X-111584Y-781636D01*
X-112736Y-784416D01*
X-113129Y-787400D01*
X-112736Y-790384D01*
X-111584Y-793164D01*
X-109752Y-795552D01*
X-107364Y-797384D01*
X-104584Y-798536D01*
X-101600Y-798929D01*
X-98616Y-798536D01*
X-95836Y-797384D01*
X-93448Y-795552D01*
X-91616Y-793164D01*
X-90464Y-790384D01*
X-90071Y-787400D01*
X-90464Y-784416D01*
X-91616Y-781636D01*
X-93448Y-779248D01*
X-95836Y-777416D01*
X-98616Y-776264D01*
X-101600Y-775871D01*
D02*
G37*
G36*
X-127000D02*
X-129984Y-776264D01*
X-132764Y-777416D01*
X-135152Y-779248D01*
X-136984Y-781636D01*
X-138136Y-784416D01*
X-138529Y-787400D01*
X-138136Y-790384D01*
X-136984Y-793164D01*
X-135152Y-795552D01*
X-132764Y-797384D01*
X-129984Y-798536D01*
X-127000Y-798929D01*
X-124016Y-798536D01*
X-121236Y-797384D01*
X-118848Y-795552D01*
X-117016Y-793164D01*
X-115864Y-790384D01*
X-115471Y-787400D01*
X-115864Y-784416D01*
X-117016Y-781636D01*
X-118848Y-779248D01*
X-121236Y-777416D01*
X-124016Y-776264D01*
X-127000Y-775871D01*
D02*
G37*
G36*
X-152400D02*
X-155384Y-776264D01*
X-158164Y-777416D01*
X-160552Y-779248D01*
X-162384Y-781636D01*
X-163536Y-784416D01*
X-163929Y-787400D01*
X-163536Y-790384D01*
X-162384Y-793164D01*
X-160552Y-795552D01*
X-158164Y-797384D01*
X-155384Y-798536D01*
X-152400Y-798929D01*
X-149416Y-798536D01*
X-146636Y-797384D01*
X-144248Y-795552D01*
X-142416Y-793164D01*
X-141264Y-790384D01*
X-140871Y-787400D01*
X-141264Y-784416D01*
X-142416Y-781636D01*
X-144248Y-779248D01*
X-146636Y-777416D01*
X-149416Y-776264D01*
X-152400Y-775871D01*
D02*
G37*
G36*
X-177800D02*
X-180784Y-776264D01*
X-183564Y-777416D01*
X-185952Y-779248D01*
X-187784Y-781636D01*
X-188936Y-784416D01*
X-189329Y-787400D01*
X-188936Y-790384D01*
X-187784Y-793164D01*
X-185952Y-795552D01*
X-183564Y-797384D01*
X-180784Y-798536D01*
X-177800Y-798929D01*
X-174816Y-798536D01*
X-172036Y-797384D01*
X-169648Y-795552D01*
X-167816Y-793164D01*
X-166664Y-790384D01*
X-166271Y-787400D01*
X-166664Y-784416D01*
X-167816Y-781636D01*
X-169648Y-779248D01*
X-172036Y-777416D01*
X-174816Y-776264D01*
X-177800Y-775871D01*
D02*
G37*
G36*
X-203200D02*
X-206184Y-776264D01*
X-208964Y-777416D01*
X-211352Y-779248D01*
X-213184Y-781636D01*
X-214336Y-784416D01*
X-214729Y-787400D01*
X-214336Y-790384D01*
X-213184Y-793164D01*
X-211352Y-795552D01*
X-208964Y-797384D01*
X-206184Y-798536D01*
X-203200Y-798929D01*
X-200216Y-798536D01*
X-197436Y-797384D01*
X-195048Y-795552D01*
X-193216Y-793164D01*
X-192064Y-790384D01*
X-191671Y-787400D01*
X-192064Y-784416D01*
X-193216Y-781636D01*
X-195048Y-779248D01*
X-197436Y-777416D01*
X-200216Y-776264D01*
X-203200Y-775871D01*
D02*
G37*
G36*
X-228600D02*
X-231584Y-776264D01*
X-234364Y-777416D01*
X-236752Y-779248D01*
X-238584Y-781636D01*
X-239736Y-784416D01*
X-240129Y-787400D01*
X-239736Y-790384D01*
X-238584Y-793164D01*
X-236752Y-795552D01*
X-234364Y-797384D01*
X-231584Y-798536D01*
X-228600Y-798929D01*
X-225616Y-798536D01*
X-222836Y-797384D01*
X-220448Y-795552D01*
X-218616Y-793164D01*
X-217464Y-790384D01*
X-217071Y-787400D01*
X-217464Y-784416D01*
X-218616Y-781636D01*
X-220448Y-779248D01*
X-222836Y-777416D01*
X-225616Y-776264D01*
X-228600Y-775871D01*
D02*
G37*
G36*
X-254000D02*
X-256984Y-776264D01*
X-259764Y-777416D01*
X-262152Y-779248D01*
X-263984Y-781636D01*
X-265136Y-784416D01*
X-265529Y-787400D01*
X-265136Y-790384D01*
X-263984Y-793164D01*
X-262152Y-795552D01*
X-259764Y-797384D01*
X-256984Y-798536D01*
X-254000Y-798929D01*
X-251016Y-798536D01*
X-248236Y-797384D01*
X-245848Y-795552D01*
X-244016Y-793164D01*
X-242864Y-790384D01*
X-242471Y-787400D01*
X-242864Y-784416D01*
X-244016Y-781636D01*
X-245848Y-779248D01*
X-248236Y-777416D01*
X-251016Y-776264D01*
X-254000Y-775871D01*
D02*
G37*
G36*
X-279400D02*
X-282384Y-776264D01*
X-285164Y-777416D01*
X-287552Y-779248D01*
X-289384Y-781636D01*
X-290536Y-784416D01*
X-290929Y-787400D01*
X-290536Y-790384D01*
X-289384Y-793164D01*
X-287552Y-795552D01*
X-285164Y-797384D01*
X-282384Y-798536D01*
X-279400Y-798929D01*
X-276416Y-798536D01*
X-273636Y-797384D01*
X-271248Y-795552D01*
X-269416Y-793164D01*
X-268264Y-790384D01*
X-267871Y-787400D01*
X-268264Y-784416D01*
X-269416Y-781636D01*
X-271248Y-779248D01*
X-273636Y-777416D01*
X-276416Y-776264D01*
X-279400Y-775871D01*
D02*
G37*
G36*
X-304800D02*
X-307784Y-776264D01*
X-310564Y-777416D01*
X-312952Y-779248D01*
X-314784Y-781636D01*
X-315936Y-784416D01*
X-316329Y-787400D01*
X-315936Y-790384D01*
X-314784Y-793164D01*
X-312952Y-795552D01*
X-310564Y-797384D01*
X-307784Y-798536D01*
X-304800Y-798929D01*
X-301816Y-798536D01*
X-299036Y-797384D01*
X-296648Y-795552D01*
X-294816Y-793164D01*
X-293664Y-790384D01*
X-293271Y-787400D01*
X-293664Y-784416D01*
X-294816Y-781636D01*
X-296648Y-779248D01*
X-299036Y-777416D01*
X-301816Y-776264D01*
X-304800Y-775871D01*
D02*
G37*
G36*
X-330200D02*
X-333184Y-776264D01*
X-335964Y-777416D01*
X-338352Y-779248D01*
X-340184Y-781636D01*
X-341336Y-784416D01*
X-341729Y-787400D01*
X-341336Y-790384D01*
X-340184Y-793164D01*
X-338352Y-795552D01*
X-335964Y-797384D01*
X-333184Y-798536D01*
X-330200Y-798929D01*
X-327216Y-798536D01*
X-324436Y-797384D01*
X-322048Y-795552D01*
X-320216Y-793164D01*
X-319064Y-790384D01*
X-318671Y-787400D01*
X-319064Y-784416D01*
X-320216Y-781636D01*
X-322048Y-779248D01*
X-324436Y-777416D01*
X-327216Y-776264D01*
X-330200Y-775871D01*
D02*
G37*
G36*
X-355600D02*
X-358584Y-776264D01*
X-361364Y-777416D01*
X-363752Y-779248D01*
X-365584Y-781636D01*
X-366736Y-784416D01*
X-367129Y-787400D01*
X-366736Y-790384D01*
X-365584Y-793164D01*
X-363752Y-795552D01*
X-361364Y-797384D01*
X-358584Y-798536D01*
X-355600Y-798929D01*
X-352616Y-798536D01*
X-349836Y-797384D01*
X-347448Y-795552D01*
X-345616Y-793164D01*
X-344464Y-790384D01*
X-344071Y-787400D01*
X-344464Y-784416D01*
X-345616Y-781636D01*
X-347448Y-779248D01*
X-349836Y-777416D01*
X-352616Y-776264D01*
X-355600Y-775871D01*
D02*
G37*
G36*
X-381000D02*
X-383984Y-776264D01*
X-386764Y-777416D01*
X-389152Y-779248D01*
X-390984Y-781636D01*
X-392136Y-784416D01*
X-392529Y-787400D01*
X-392136Y-790384D01*
X-390984Y-793164D01*
X-389152Y-795552D01*
X-386764Y-797384D01*
X-383984Y-798536D01*
X-381000Y-798929D01*
X-378016Y-798536D01*
X-375236Y-797384D01*
X-372848Y-795552D01*
X-371016Y-793164D01*
X-369864Y-790384D01*
X-369471Y-787400D01*
X-369864Y-784416D01*
X-371016Y-781636D01*
X-372848Y-779248D01*
X-375236Y-777416D01*
X-378016Y-776264D01*
X-381000Y-775871D01*
D02*
G37*
G36*
X-406400D02*
X-409384Y-776264D01*
X-412164Y-777416D01*
X-414552Y-779248D01*
X-416384Y-781636D01*
X-417536Y-784416D01*
X-417929Y-787400D01*
X-417536Y-790384D01*
X-416384Y-793164D01*
X-414552Y-795552D01*
X-412164Y-797384D01*
X-409384Y-798536D01*
X-406400Y-798929D01*
X-403416Y-798536D01*
X-400636Y-797384D01*
X-398248Y-795552D01*
X-396416Y-793164D01*
X-395264Y-790384D01*
X-394871Y-787400D01*
X-395264Y-784416D01*
X-396416Y-781636D01*
X-398248Y-779248D01*
X-400636Y-777416D01*
X-403416Y-776264D01*
X-406400Y-775871D01*
D02*
G37*
G36*
X-867106Y-797216D02*
X-876300D01*
X-876105Y-798698D01*
X-875043Y-801262D01*
X-873353Y-803463D01*
X-871152Y-805153D01*
X-868587Y-806215D01*
X-867106Y-806410D01*
Y-797216D01*
D02*
G37*
G36*
X-855372D02*
X-864566D01*
Y-806410D01*
X-863084Y-806215D01*
X-860521Y-805153D01*
X-858319Y-803463D01*
X-856629Y-801262D01*
X-855567Y-798698D01*
X-855372Y-797216D01*
D02*
G37*
G36*
X-430530Y-801439D02*
Y-811530D01*
X-420439D01*
X-420664Y-809816D01*
X-421816Y-807036D01*
X-423648Y-804648D01*
X-426036Y-802816D01*
X-428816Y-801664D01*
X-430530Y-801439D01*
D02*
G37*
G36*
X-433070Y-801439D02*
X-434784Y-801664D01*
X-437564Y-802816D01*
X-439952Y-804648D01*
X-441784Y-807036D01*
X-442936Y-809816D01*
X-443161Y-811530D01*
X-433070D01*
Y-801439D01*
D02*
G37*
G36*
X-840436Y-785315D02*
X-843187Y-785677D01*
X-845751Y-786739D01*
X-847953Y-788429D01*
X-849643Y-790630D01*
X-850705Y-793195D01*
X-851067Y-795946D01*
X-850705Y-798698D01*
X-849643Y-801262D01*
X-847953Y-803463D01*
X-845751Y-805153D01*
X-843187Y-806215D01*
X-840436Y-806577D01*
X-837684Y-806215D01*
X-835121Y-805153D01*
X-832919Y-803463D01*
X-831229Y-801262D01*
X-830637Y-799831D01*
X-772865D01*
X-761849Y-810846D01*
X-760589Y-811689D01*
X-759102Y-811984D01*
X-757491D01*
X-757314Y-812250D01*
X-755564Y-813419D01*
X-753500Y-813830D01*
X-751436Y-813419D01*
X-749686Y-812250D01*
X-748517Y-810500D01*
X-748106Y-808436D01*
X-748517Y-806372D01*
X-749686Y-804622D01*
X-751436Y-803453D01*
X-753500Y-803043D01*
X-755564Y-803453D01*
X-756704Y-804215D01*
X-757493D01*
X-768509Y-793199D01*
X-769769Y-792357D01*
X-771256Y-792061D01*
X-830637D01*
X-831229Y-790630D01*
X-832919Y-788429D01*
X-835121Y-786739D01*
X-837684Y-785677D01*
X-840436Y-785315D01*
D02*
G37*
G36*
X-433070Y-814070D02*
X-443161D01*
X-442936Y-815784D01*
X-441784Y-818564D01*
X-439952Y-820952D01*
X-437564Y-822784D01*
X-434784Y-823936D01*
X-433070Y-824161D01*
Y-814070D01*
D02*
G37*
G36*
X-420439D02*
X-430530D01*
Y-824161D01*
X-428816Y-823936D01*
X-426036Y-822784D01*
X-423648Y-820952D01*
X-421816Y-818564D01*
X-420664Y-815784D01*
X-420439Y-814070D01*
D02*
G37*
G36*
X0Y-801271D02*
X-2984Y-801664D01*
X-5764Y-802816D01*
X-8152Y-804648D01*
X-9984Y-807036D01*
X-11136Y-809816D01*
X-11529Y-812800D01*
X-11136Y-815784D01*
X-9984Y-818564D01*
X-8152Y-820952D01*
X-5764Y-822784D01*
X-2984Y-823936D01*
X0Y-824329D01*
X2984Y-823936D01*
X5764Y-822784D01*
X8152Y-820952D01*
X9984Y-818564D01*
X11136Y-815784D01*
X11529Y-812800D01*
X11136Y-809816D01*
X9984Y-807036D01*
X8152Y-804648D01*
X5764Y-802816D01*
X2984Y-801664D01*
X0Y-801271D01*
D02*
G37*
G36*
X-25400D02*
X-28384Y-801664D01*
X-31164Y-802816D01*
X-33552Y-804648D01*
X-35384Y-807036D01*
X-36536Y-809816D01*
X-36929Y-812800D01*
X-36536Y-815784D01*
X-35384Y-818564D01*
X-33552Y-820952D01*
X-31164Y-822784D01*
X-28384Y-823936D01*
X-25400Y-824329D01*
X-22416Y-823936D01*
X-19636Y-822784D01*
X-17248Y-820952D01*
X-15416Y-818564D01*
X-14264Y-815784D01*
X-13871Y-812800D01*
X-14264Y-809816D01*
X-15416Y-807036D01*
X-17248Y-804648D01*
X-19636Y-802816D01*
X-22416Y-801664D01*
X-25400Y-801271D01*
D02*
G37*
G36*
X-50800D02*
X-53784Y-801664D01*
X-56564Y-802816D01*
X-58952Y-804648D01*
X-60784Y-807036D01*
X-61936Y-809816D01*
X-62329Y-812800D01*
X-61936Y-815784D01*
X-60784Y-818564D01*
X-58952Y-820952D01*
X-56564Y-822784D01*
X-53784Y-823936D01*
X-50800Y-824329D01*
X-47816Y-823936D01*
X-45036Y-822784D01*
X-42648Y-820952D01*
X-40816Y-818564D01*
X-39664Y-815784D01*
X-39271Y-812800D01*
X-39664Y-809816D01*
X-40816Y-807036D01*
X-42648Y-804648D01*
X-45036Y-802816D01*
X-47816Y-801664D01*
X-50800Y-801271D01*
D02*
G37*
G36*
X-76200D02*
X-79184Y-801664D01*
X-81964Y-802816D01*
X-84352Y-804648D01*
X-86184Y-807036D01*
X-87336Y-809816D01*
X-87729Y-812800D01*
X-87336Y-815784D01*
X-86184Y-818564D01*
X-84352Y-820952D01*
X-81964Y-822784D01*
X-79184Y-823936D01*
X-76200Y-824329D01*
X-73216Y-823936D01*
X-70436Y-822784D01*
X-68048Y-820952D01*
X-66216Y-818564D01*
X-65064Y-815784D01*
X-64671Y-812800D01*
X-65064Y-809816D01*
X-66216Y-807036D01*
X-68048Y-804648D01*
X-70436Y-802816D01*
X-73216Y-801664D01*
X-76200Y-801271D01*
D02*
G37*
G36*
X-101600D02*
X-104584Y-801664D01*
X-107364Y-802816D01*
X-109752Y-804648D01*
X-111584Y-807036D01*
X-112736Y-809816D01*
X-113129Y-812800D01*
X-112736Y-815784D01*
X-111584Y-818564D01*
X-109752Y-820952D01*
X-107364Y-822784D01*
X-104584Y-823936D01*
X-101600Y-824329D01*
X-98616Y-823936D01*
X-95836Y-822784D01*
X-93448Y-820952D01*
X-91616Y-818564D01*
X-90464Y-815784D01*
X-90071Y-812800D01*
X-90464Y-809816D01*
X-91616Y-807036D01*
X-93448Y-804648D01*
X-95836Y-802816D01*
X-98616Y-801664D01*
X-101600Y-801271D01*
D02*
G37*
G36*
X-127000D02*
X-129984Y-801664D01*
X-132764Y-802816D01*
X-135152Y-804648D01*
X-136984Y-807036D01*
X-138136Y-809816D01*
X-138529Y-812800D01*
X-138136Y-815784D01*
X-136984Y-818564D01*
X-135152Y-820952D01*
X-132764Y-822784D01*
X-129984Y-823936D01*
X-127000Y-824329D01*
X-124016Y-823936D01*
X-121236Y-822784D01*
X-118848Y-820952D01*
X-117016Y-818564D01*
X-115864Y-815784D01*
X-115471Y-812800D01*
X-115864Y-809816D01*
X-117016Y-807036D01*
X-118848Y-804648D01*
X-121236Y-802816D01*
X-124016Y-801664D01*
X-127000Y-801271D01*
D02*
G37*
G36*
X-152400D02*
X-155384Y-801664D01*
X-158164Y-802816D01*
X-160552Y-804648D01*
X-162384Y-807036D01*
X-163536Y-809816D01*
X-163929Y-812800D01*
X-163536Y-815784D01*
X-162384Y-818564D01*
X-160552Y-820952D01*
X-158164Y-822784D01*
X-155384Y-823936D01*
X-152400Y-824329D01*
X-149416Y-823936D01*
X-146636Y-822784D01*
X-144248Y-820952D01*
X-142416Y-818564D01*
X-141264Y-815784D01*
X-140871Y-812800D01*
X-141264Y-809816D01*
X-142416Y-807036D01*
X-144248Y-804648D01*
X-146636Y-802816D01*
X-149416Y-801664D01*
X-152400Y-801271D01*
D02*
G37*
G36*
X-177800D02*
X-180784Y-801664D01*
X-183564Y-802816D01*
X-185952Y-804648D01*
X-187784Y-807036D01*
X-188936Y-809816D01*
X-189329Y-812800D01*
X-188936Y-815784D01*
X-187934Y-818202D01*
X-209381Y-839649D01*
X-220732D01*
X-222218Y-839945D01*
X-223479Y-840787D01*
X-294301Y-911609D01*
X-308550D01*
X-310194Y-910511D01*
X-312258Y-910100D01*
X-314322Y-910511D01*
X-316072Y-911680D01*
X-317241Y-913430D01*
X-317652Y-915494D01*
X-317241Y-917558D01*
X-316072Y-919308D01*
X-314322Y-920477D01*
X-312258Y-920888D01*
X-310194Y-920477D01*
X-308550Y-919379D01*
X-292692D01*
X-291205Y-919083D01*
X-289945Y-918241D01*
X-283924Y-912220D01*
X-282937Y-913029D01*
X-283205Y-913430D01*
X-283616Y-915494D01*
X-283205Y-917558D01*
X-282036Y-919308D01*
X-280286Y-920477D01*
X-278222Y-920888D01*
X-276158Y-920477D01*
X-274408Y-919308D01*
X-273239Y-917558D01*
X-273001Y-916361D01*
X-236953Y-880312D01*
X-235586Y-880742D01*
X-234609Y-882204D01*
Y-882389D01*
X-282157Y-929937D01*
X-284096Y-930323D01*
X-285846Y-931492D01*
X-287015Y-933242D01*
X-287426Y-935306D01*
X-287015Y-937370D01*
X-285846Y-939120D01*
X-284096Y-940289D01*
X-282032Y-940700D01*
X-279968Y-940289D01*
X-278218Y-939120D01*
X-277049Y-937370D01*
X-276663Y-935431D01*
X-227977Y-886745D01*
X-227135Y-885485D01*
X-226839Y-883998D01*
Y-882204D01*
X-225741Y-880560D01*
X-225330Y-878496D01*
X-225741Y-876432D01*
X-226910Y-874682D01*
X-228478Y-873634D01*
X-228908Y-872268D01*
X-227297Y-870657D01*
X-225358Y-870271D01*
X-223608Y-869102D01*
X-222439Y-867352D01*
X-222028Y-865288D01*
X-222439Y-863224D01*
X-223608Y-861474D01*
X-225358Y-860305D01*
X-227422Y-859894D01*
X-229486Y-860305D01*
X-231236Y-861474D01*
X-232405Y-863224D01*
X-232791Y-865163D01*
X-277810Y-910182D01*
X-278222Y-910100D01*
X-280286Y-910511D01*
X-280687Y-910779D01*
X-281496Y-909792D01*
X-219123Y-847419D01*
X-207772D01*
X-206285Y-847123D01*
X-205025Y-846281D01*
X-182125Y-823380D01*
X-180784Y-823936D01*
X-177800Y-824329D01*
X-174816Y-823936D01*
X-172036Y-822784D01*
X-169648Y-820952D01*
X-167816Y-818564D01*
X-166664Y-815784D01*
X-166271Y-812800D01*
X-166664Y-809816D01*
X-167816Y-807036D01*
X-169648Y-804648D01*
X-172036Y-802816D01*
X-174816Y-801664D01*
X-177800Y-801271D01*
D02*
G37*
G36*
X-203200D02*
X-206184Y-801664D01*
X-208964Y-802816D01*
X-211352Y-804648D01*
X-213184Y-807036D01*
X-214336Y-809816D01*
X-214729Y-812800D01*
X-214336Y-815784D01*
X-213557Y-817663D01*
X-293601Y-897707D01*
X-319980D01*
X-321624Y-896609D01*
X-323688Y-896198D01*
X-325752Y-896609D01*
X-327502Y-897778D01*
X-328671Y-899528D01*
X-329082Y-901592D01*
X-328671Y-903656D01*
X-327502Y-905406D01*
X-325752Y-906575D01*
X-323688Y-906985D01*
X-321624Y-906575D01*
X-319980Y-905477D01*
X-291992D01*
X-290505Y-905181D01*
X-289245Y-904339D01*
X-208064Y-823157D01*
X-206184Y-823936D01*
X-203200Y-824329D01*
X-200216Y-823936D01*
X-197436Y-822784D01*
X-195048Y-820952D01*
X-193216Y-818564D01*
X-192064Y-815784D01*
X-191671Y-812800D01*
X-192064Y-809816D01*
X-193216Y-807036D01*
X-195048Y-804648D01*
X-197436Y-802816D01*
X-200216Y-801664D01*
X-203200Y-801271D01*
D02*
G37*
G36*
X-254000D02*
X-256984Y-801664D01*
X-259764Y-802816D01*
X-262152Y-804648D01*
X-263984Y-807036D01*
X-265136Y-809816D01*
X-265529Y-812800D01*
X-265136Y-815784D01*
X-263984Y-818564D01*
X-262152Y-820952D01*
X-259764Y-822784D01*
X-256984Y-823936D01*
X-254000Y-824329D01*
X-251016Y-823936D01*
X-248236Y-822784D01*
X-245848Y-820952D01*
X-244016Y-818564D01*
X-242864Y-815784D01*
X-242471Y-812800D01*
X-242864Y-809816D01*
X-244016Y-807036D01*
X-245848Y-804648D01*
X-248236Y-802816D01*
X-251016Y-801664D01*
X-254000Y-801271D01*
D02*
G37*
G36*
X-279400D02*
X-282384Y-801664D01*
X-285164Y-802816D01*
X-287552Y-804648D01*
X-289384Y-807036D01*
X-290536Y-809816D01*
X-290929Y-812800D01*
X-290536Y-815784D01*
X-289384Y-818564D01*
X-287552Y-820952D01*
X-285164Y-822784D01*
X-282384Y-823936D01*
X-279400Y-824329D01*
X-276416Y-823936D01*
X-273636Y-822784D01*
X-271248Y-820952D01*
X-269416Y-818564D01*
X-268264Y-815784D01*
X-267871Y-812800D01*
X-268264Y-809816D01*
X-269416Y-807036D01*
X-271248Y-804648D01*
X-273636Y-802816D01*
X-276416Y-801664D01*
X-279400Y-801271D01*
D02*
G37*
G36*
X-840436Y-810715D02*
X-843187Y-811077D01*
X-845751Y-812139D01*
X-847953Y-813829D01*
X-849643Y-816031D01*
X-850705Y-818595D01*
X-851067Y-821346D01*
X-850705Y-824098D01*
X-849643Y-826662D01*
X-847953Y-828863D01*
X-845751Y-830553D01*
X-843187Y-831615D01*
X-840436Y-831977D01*
X-837684Y-831615D01*
X-835121Y-830553D01*
X-832919Y-828863D01*
X-831229Y-826662D01*
X-830167Y-824098D01*
X-829805Y-821346D01*
X-830167Y-818595D01*
X-831229Y-816031D01*
X-832919Y-813829D01*
X-835121Y-812139D01*
X-837684Y-811077D01*
X-840436Y-810715D01*
D02*
G37*
G36*
X-865836D02*
X-868587Y-811077D01*
X-871152Y-812139D01*
X-873353Y-813829D01*
X-875043Y-816031D01*
X-876105Y-818595D01*
X-876467Y-821346D01*
X-876105Y-824098D01*
X-875043Y-826662D01*
X-873353Y-828863D01*
X-871152Y-830553D01*
X-868587Y-831615D01*
X-865836Y-831977D01*
X-863084Y-831615D01*
X-860521Y-830553D01*
X-858319Y-828863D01*
X-856629Y-826662D01*
X-855567Y-824098D01*
X-855205Y-821346D01*
X-855567Y-818595D01*
X-856629Y-816031D01*
X-858319Y-813829D01*
X-860521Y-812139D01*
X-863084Y-811077D01*
X-865836Y-810715D01*
D02*
G37*
G36*
X-864566Y-836282D02*
Y-845476D01*
X-855372D01*
X-855567Y-843995D01*
X-856629Y-841431D01*
X-858319Y-839229D01*
X-860521Y-837539D01*
X-863084Y-836477D01*
X-864566Y-836282D01*
D02*
G37*
G36*
X-867106Y-836282D02*
X-868587Y-836477D01*
X-871152Y-837539D01*
X-873353Y-839229D01*
X-875043Y-841431D01*
X-876105Y-843995D01*
X-876300Y-845476D01*
X-867106D01*
Y-836282D01*
D02*
G37*
G36*
X-312258Y-853126D02*
X-314322Y-853537D01*
X-315966Y-854635D01*
X-335382D01*
X-337026Y-853537D01*
X-339090Y-853126D01*
X-341154Y-853537D01*
X-342904Y-854706D01*
X-344073Y-856456D01*
X-344484Y-858520D01*
X-344073Y-860584D01*
X-342904Y-862334D01*
X-341154Y-863503D01*
X-339090Y-863914D01*
X-337026Y-863503D01*
X-335382Y-862405D01*
X-315966D01*
X-314322Y-863503D01*
X-312258Y-863914D01*
X-310194Y-863503D01*
X-308444Y-862334D01*
X-307275Y-860584D01*
X-306864Y-858520D01*
X-307275Y-856456D01*
X-308444Y-854706D01*
X-310194Y-853537D01*
X-312258Y-853126D01*
D02*
G37*
G36*
X-867106Y-848016D02*
X-876300D01*
X-876105Y-849498D01*
X-875043Y-852061D01*
X-873353Y-854263D01*
X-871152Y-855953D01*
X-868587Y-857015D01*
X-867106Y-857210D01*
Y-848016D01*
D02*
G37*
G36*
X-855372D02*
X-864566D01*
Y-857210D01*
X-863084Y-857015D01*
X-860521Y-855953D01*
X-858319Y-854263D01*
X-856629Y-852061D01*
X-855567Y-849498D01*
X-855372Y-848016D01*
D02*
G37*
G36*
X-840436Y-836115D02*
X-843187Y-836477D01*
X-845751Y-837539D01*
X-847953Y-839229D01*
X-849643Y-841431D01*
X-850705Y-843995D01*
X-851067Y-846746D01*
X-850705Y-849498D01*
X-849643Y-852061D01*
X-847953Y-854263D01*
X-845751Y-855953D01*
X-843187Y-857015D01*
X-840436Y-857377D01*
X-837684Y-857015D01*
X-835121Y-855953D01*
X-832919Y-854263D01*
X-831229Y-852061D01*
X-830167Y-849498D01*
X-829805Y-846746D01*
X-830167Y-843995D01*
X-831229Y-841431D01*
X-832919Y-839229D01*
X-835121Y-837539D01*
X-837684Y-836477D01*
X-840436Y-836115D01*
D02*
G37*
G36*
X-864566Y-861682D02*
Y-870876D01*
X-855372D01*
X-855567Y-869395D01*
X-856629Y-866831D01*
X-858319Y-864629D01*
X-860521Y-862939D01*
X-863084Y-861877D01*
X-864566Y-861682D01*
D02*
G37*
G36*
X-867106Y-861682D02*
X-868587Y-861877D01*
X-871152Y-862939D01*
X-873353Y-864629D01*
X-875043Y-866831D01*
X-876105Y-869395D01*
X-876300Y-870876D01*
X-867106D01*
Y-861682D01*
D02*
G37*
G36*
Y-873416D02*
X-876300D01*
X-876105Y-874898D01*
X-875043Y-877461D01*
X-873353Y-879663D01*
X-871152Y-881353D01*
X-868587Y-882415D01*
X-867106Y-882610D01*
Y-873416D01*
D02*
G37*
G36*
X-855372D02*
X-864566D01*
Y-882610D01*
X-863084Y-882415D01*
X-860521Y-881353D01*
X-858319Y-879663D01*
X-856629Y-877461D01*
X-855567Y-874898D01*
X-855372Y-873416D01*
D02*
G37*
G36*
X-840436Y-861515D02*
X-843187Y-861877D01*
X-845751Y-862939D01*
X-847953Y-864629D01*
X-849643Y-866831D01*
X-850705Y-869395D01*
X-851067Y-872146D01*
X-850705Y-874898D01*
X-849643Y-877461D01*
X-847953Y-879663D01*
X-845751Y-881353D01*
X-843187Y-882415D01*
X-840436Y-882777D01*
X-837684Y-882415D01*
X-835121Y-881353D01*
X-832919Y-879663D01*
X-831229Y-877461D01*
X-830167Y-874898D01*
X-829805Y-872146D01*
X-830167Y-869395D01*
X-831229Y-866831D01*
X-832919Y-864629D01*
X-835121Y-862939D01*
X-837684Y-861877D01*
X-840436Y-861515D01*
D02*
G37*
G36*
Y-886915D02*
X-843187Y-887277D01*
X-845751Y-888339D01*
X-847953Y-890029D01*
X-849643Y-892231D01*
X-850705Y-894794D01*
X-851067Y-897546D01*
X-850705Y-900297D01*
X-849643Y-902861D01*
X-847953Y-905063D01*
X-845751Y-906753D01*
X-843187Y-907815D01*
X-840436Y-908177D01*
X-837684Y-907815D01*
X-835121Y-906753D01*
X-832919Y-905063D01*
X-831229Y-902861D01*
X-830167Y-900297D01*
X-829805Y-897546D01*
X-830167Y-894794D01*
X-831229Y-892231D01*
X-832919Y-890029D01*
X-835121Y-888339D01*
X-837684Y-887277D01*
X-840436Y-886915D01*
D02*
G37*
G36*
X-865836D02*
X-868587Y-887277D01*
X-871152Y-888339D01*
X-873353Y-890029D01*
X-875043Y-892231D01*
X-876105Y-894794D01*
X-876467Y-897546D01*
X-876105Y-900297D01*
X-875043Y-902861D01*
X-873353Y-905063D01*
X-871152Y-906753D01*
X-868587Y-907815D01*
X-865836Y-908177D01*
X-863084Y-907815D01*
X-860521Y-906753D01*
X-858319Y-905063D01*
X-856629Y-902861D01*
X-855567Y-900297D01*
X-855205Y-897546D01*
X-855567Y-894794D01*
X-856629Y-892231D01*
X-858319Y-890029D01*
X-860521Y-888339D01*
X-863084Y-887277D01*
X-865836Y-886915D01*
D02*
G37*
G36*
X-829896Y-912406D02*
X-850976D01*
Y-933486D01*
X-829896D01*
Y-912406D01*
D02*
G37*
G36*
X-865836Y-912315D02*
X-868587Y-912677D01*
X-871152Y-913739D01*
X-873353Y-915429D01*
X-875043Y-917630D01*
X-876105Y-920194D01*
X-876467Y-922946D01*
X-876105Y-925697D01*
X-875043Y-928261D01*
X-873353Y-930463D01*
X-871152Y-932153D01*
X-868587Y-933215D01*
X-865836Y-933577D01*
X-863084Y-933215D01*
X-860521Y-932153D01*
X-858319Y-930463D01*
X-856629Y-928261D01*
X-855567Y-925697D01*
X-855205Y-922946D01*
X-855567Y-920194D01*
X-856629Y-917630D01*
X-858319Y-915429D01*
X-860521Y-913739D01*
X-863084Y-912677D01*
X-865836Y-912315D01*
D02*
G37*
G36*
X-202276Y-869547D02*
X-204340Y-869957D01*
X-206090Y-871126D01*
X-207259Y-872876D01*
X-207645Y-874815D01*
X-265139Y-932309D01*
X-267078Y-932695D01*
X-268828Y-933864D01*
X-269997Y-935614D01*
X-270408Y-937678D01*
X-269997Y-939742D01*
X-268828Y-941492D01*
X-267078Y-942661D01*
X-265014Y-943072D01*
X-262950Y-942661D01*
X-261200Y-941492D01*
X-260031Y-939742D01*
X-259645Y-937803D01*
X-202151Y-880309D01*
X-200212Y-879923D01*
X-198462Y-878754D01*
X-197293Y-877004D01*
X-196882Y-874940D01*
X-197293Y-872876D01*
X-198462Y-871126D01*
X-200212Y-869957D01*
X-202276Y-869547D01*
D02*
G37*
G36*
X-126076D02*
X-128140Y-869957D01*
X-129890Y-871126D01*
X-131059Y-872876D01*
X-131445Y-874815D01*
X-226999Y-970369D01*
X-239869D01*
X-240254Y-969100D01*
X-239915Y-968873D01*
X-151351Y-880309D01*
X-149412Y-879923D01*
X-147662Y-878754D01*
X-146493Y-877004D01*
X-146082Y-874940D01*
X-146493Y-872876D01*
X-147662Y-871126D01*
X-149412Y-869957D01*
X-151476Y-869547D01*
X-153540Y-869957D01*
X-155290Y-871126D01*
X-156459Y-872876D01*
X-156845Y-874815D01*
X-244271Y-962242D01*
X-261290D01*
X-262777Y-962537D01*
X-264037Y-963379D01*
X-268949Y-968291D01*
X-270888Y-968677D01*
X-272638Y-969846D01*
X-273807Y-971596D01*
X-274218Y-973660D01*
X-273807Y-975724D01*
X-272638Y-977474D01*
X-270888Y-978643D01*
X-268824Y-979054D01*
X-266760Y-978643D01*
X-265010Y-977474D01*
X-263841Y-975724D01*
X-263455Y-973785D01*
X-259681Y-970011D01*
X-255906D01*
X-255227Y-971281D01*
X-255793Y-972126D01*
X-256203Y-974191D01*
X-255793Y-976255D01*
X-254623Y-978004D01*
X-252873Y-979174D01*
X-250809Y-979584D01*
X-248745Y-979174D01*
X-247197Y-978139D01*
X-225390D01*
X-223903Y-977843D01*
X-222643Y-977001D01*
X-125951Y-880309D01*
X-124012Y-879923D01*
X-122262Y-878754D01*
X-121093Y-877004D01*
X-120682Y-874940D01*
X-121093Y-872876D01*
X-122262Y-871126D01*
X-124012Y-869957D01*
X-126076Y-869547D01*
D02*
G37*
G36*
X-100676D02*
X-102740Y-869957D01*
X-104490Y-871126D01*
X-105659Y-872876D01*
X-106045Y-874815D01*
X-220914Y-989684D01*
X-221326Y-989602D01*
X-223390Y-990013D01*
X-225140Y-991182D01*
X-226309Y-992932D01*
X-226720Y-994996D01*
X-226309Y-997060D01*
X-225140Y-998810D01*
X-223390Y-999979D01*
X-221326Y-1000390D01*
X-219262Y-999979D01*
X-217512Y-998810D01*
X-216343Y-997060D01*
X-216105Y-995863D01*
X-100551Y-880309D01*
X-98612Y-879923D01*
X-96862Y-878754D01*
X-95693Y-877004D01*
X-95282Y-874940D01*
X-95693Y-872876D01*
X-96862Y-871126D01*
X-98612Y-869957D01*
X-100676Y-869547D01*
D02*
G37*
G36*
X-576870Y-985140D02*
X-581640D01*
Y-990910D01*
X-576870D01*
Y-985140D01*
D02*
G37*
G36*
X-640370D02*
X-645140D01*
Y-990910D01*
X-640370D01*
Y-985140D01*
D02*
G37*
G36*
X-767116D02*
X-771886D01*
Y-990910D01*
X-767116D01*
Y-985140D01*
D02*
G37*
G36*
X-584180D02*
X-588950D01*
Y-990910D01*
X-584180D01*
Y-985140D01*
D02*
G37*
G36*
X-647680D02*
X-652450D01*
Y-990910D01*
X-647680D01*
Y-985140D01*
D02*
G37*
G36*
X-774426D02*
X-779196D01*
Y-990910D01*
X-774426D01*
Y-985140D01*
D02*
G37*
G36*
X-576870Y-993450D02*
X-581640D01*
Y-999220D01*
X-576870D01*
Y-993450D01*
D02*
G37*
G36*
X-584180D02*
X-588950D01*
Y-999220D01*
X-584180D01*
Y-993450D01*
D02*
G37*
G36*
X-640370D02*
X-645140D01*
Y-999220D01*
X-640370D01*
Y-993450D01*
D02*
G37*
G36*
X-647680D02*
X-652450D01*
Y-999220D01*
X-647680D01*
Y-993450D01*
D02*
G37*
G36*
X-703616D02*
X-708386D01*
Y-999220D01*
X-703616D01*
Y-993450D01*
D02*
G37*
G36*
X-710926D02*
X-715696D01*
Y-999220D01*
X-710926D01*
Y-993450D01*
D02*
G37*
G36*
X-767116D02*
X-771886D01*
Y-999220D01*
X-767116D01*
Y-993450D01*
D02*
G37*
G36*
X-774426D02*
X-779196D01*
Y-999220D01*
X-774426D01*
Y-993450D01*
D02*
G37*
G36*
X-581498Y-1016314D02*
X-589768D01*
Y-1024584D01*
X-581498D01*
Y-1016314D01*
D02*
G37*
G36*
X-644998D02*
X-653268D01*
Y-1024584D01*
X-644998D01*
Y-1016314D01*
D02*
G37*
G36*
X-708498D02*
X-716768D01*
Y-1024584D01*
X-708498D01*
Y-1016314D01*
D02*
G37*
G36*
X-771998D02*
X-780268D01*
Y-1024584D01*
X-771998D01*
Y-1016314D01*
D02*
G37*
G36*
X-581498Y-1027124D02*
X-589768D01*
Y-1035394D01*
X-581498D01*
Y-1027124D01*
D02*
G37*
G36*
X-644998D02*
X-653268D01*
Y-1035394D01*
X-644998D01*
Y-1027124D01*
D02*
G37*
G36*
X-708498D02*
X-716768D01*
Y-1035394D01*
X-708498D01*
Y-1027124D01*
D02*
G37*
G36*
X-771998D02*
X-780268D01*
Y-1035394D01*
X-771998D01*
Y-1027124D01*
D02*
G37*
G36*
X-571338Y-973687D02*
X-573402Y-974097D01*
X-575152Y-975266D01*
X-576321Y-977016D01*
X-576732Y-979080D01*
X-576321Y-981144D01*
X-575152Y-982894D01*
X-573691Y-983870D01*
X-574002Y-985140D01*
X-574950D01*
Y-999220D01*
X-572795D01*
Y-1016314D01*
X-578958D01*
Y-1025854D01*
Y-1035394D01*
X-572795D01*
Y-1042932D01*
X-574065Y-1043559D01*
X-575417Y-1042521D01*
X-577738Y-1041560D01*
X-580228Y-1041232D01*
X-582718Y-1041560D01*
X-585039Y-1042521D01*
X-587032Y-1044050D01*
X-588561Y-1046043D01*
X-589522Y-1048364D01*
X-589850Y-1050854D01*
X-589522Y-1053345D01*
X-588561Y-1055665D01*
X-587032Y-1057658D01*
X-585039Y-1059187D01*
X-582718Y-1060149D01*
X-580228Y-1060476D01*
X-577738Y-1060149D01*
X-575417Y-1059187D01*
X-574065Y-1058150D01*
X-572795Y-1058776D01*
Y-1062927D01*
X-576811Y-1066943D01*
X-577738Y-1066560D01*
X-580228Y-1066232D01*
X-582718Y-1066560D01*
X-585039Y-1067521D01*
X-587032Y-1069050D01*
X-588561Y-1071043D01*
X-589522Y-1073364D01*
X-589850Y-1075854D01*
X-589522Y-1078345D01*
X-588561Y-1080665D01*
X-587032Y-1082658D01*
X-585039Y-1084187D01*
X-582718Y-1085149D01*
X-580228Y-1085476D01*
X-577738Y-1085149D01*
X-575417Y-1084187D01*
X-573424Y-1082658D01*
X-571895Y-1080665D01*
X-570934Y-1078345D01*
X-570606Y-1075854D01*
X-570934Y-1073364D01*
X-571317Y-1072437D01*
X-566163Y-1067283D01*
X-565321Y-1066023D01*
X-565025Y-1064536D01*
Y-999220D01*
X-562870D01*
Y-985140D01*
X-565025D01*
Y-982309D01*
X-565321Y-980823D01*
X-566068Y-979704D01*
X-565944Y-979080D01*
X-566355Y-977016D01*
X-567524Y-975266D01*
X-569274Y-974097D01*
X-571338Y-973687D01*
D02*
G37*
G36*
X-634330D02*
X-636394Y-974097D01*
X-638144Y-975266D01*
X-639313Y-977016D01*
X-639724Y-979080D01*
X-639313Y-981144D01*
X-638144Y-982894D01*
X-636683Y-983870D01*
X-636994Y-985140D01*
X-638450D01*
Y-999220D01*
X-636295D01*
Y-1016314D01*
X-642458D01*
Y-1025854D01*
Y-1035394D01*
X-636295D01*
Y-1042932D01*
X-637565Y-1043559D01*
X-638917Y-1042521D01*
X-641238Y-1041560D01*
X-643728Y-1041232D01*
X-646218Y-1041560D01*
X-648539Y-1042521D01*
X-650532Y-1044050D01*
X-652061Y-1046043D01*
X-653022Y-1048364D01*
X-653350Y-1050854D01*
X-653022Y-1053345D01*
X-652061Y-1055665D01*
X-650532Y-1057658D01*
X-648539Y-1059187D01*
X-646218Y-1060149D01*
X-643728Y-1060476D01*
X-641238Y-1060149D01*
X-638917Y-1059187D01*
X-637565Y-1058150D01*
X-636295Y-1058776D01*
Y-1062927D01*
X-640311Y-1066943D01*
X-641238Y-1066560D01*
X-643728Y-1066232D01*
X-646218Y-1066560D01*
X-648539Y-1067521D01*
X-650532Y-1069050D01*
X-652061Y-1071043D01*
X-653022Y-1073364D01*
X-653350Y-1075854D01*
X-653022Y-1078345D01*
X-652061Y-1080665D01*
X-650532Y-1082658D01*
X-648539Y-1084187D01*
X-646218Y-1085149D01*
X-643728Y-1085476D01*
X-641238Y-1085149D01*
X-638917Y-1084187D01*
X-636924Y-1082658D01*
X-635395Y-1080665D01*
X-634434Y-1078345D01*
X-634106Y-1075854D01*
X-634434Y-1073364D01*
X-634817Y-1072437D01*
X-629663Y-1067283D01*
X-628821Y-1066023D01*
X-628525Y-1064536D01*
Y-999220D01*
X-626370D01*
Y-985140D01*
X-628525D01*
Y-981801D01*
X-628821Y-980314D01*
X-629099Y-979898D01*
X-628936Y-979080D01*
X-629347Y-977016D01*
X-630516Y-975266D01*
X-632266Y-974097D01*
X-634330Y-973687D01*
D02*
G37*
G36*
X-721234Y-976482D02*
X-723298Y-976893D01*
X-725048Y-978062D01*
X-726217Y-979812D01*
X-726628Y-981876D01*
X-726217Y-983940D01*
X-725048Y-985690D01*
X-723298Y-986859D01*
X-721234Y-987270D01*
X-719170Y-986859D01*
X-717526Y-985761D01*
X-715696D01*
Y-990910D01*
X-709656D01*
X-703616D01*
Y-990766D01*
X-702404Y-990232D01*
X-701696Y-990800D01*
Y-999220D01*
X-699541D01*
Y-1016314D01*
X-705958D01*
Y-1025854D01*
Y-1035394D01*
X-699541D01*
Y-1043233D01*
X-700811Y-1043753D01*
X-702417Y-1042521D01*
X-704738Y-1041560D01*
X-707228Y-1041232D01*
X-709718Y-1041560D01*
X-712039Y-1042521D01*
X-714032Y-1044050D01*
X-715561Y-1046043D01*
X-716522Y-1048364D01*
X-716850Y-1050854D01*
X-716522Y-1053345D01*
X-715561Y-1055665D01*
X-714032Y-1057658D01*
X-712039Y-1059187D01*
X-709718Y-1060149D01*
X-707228Y-1060476D01*
X-704738Y-1060149D01*
X-702417Y-1059187D01*
X-700811Y-1057955D01*
X-699541Y-1058475D01*
Y-1062673D01*
X-703811Y-1066943D01*
X-704738Y-1066560D01*
X-707228Y-1066232D01*
X-709718Y-1066560D01*
X-712039Y-1067521D01*
X-714032Y-1069050D01*
X-715561Y-1071043D01*
X-716522Y-1073364D01*
X-716850Y-1075854D01*
X-716522Y-1078345D01*
X-715561Y-1080665D01*
X-714032Y-1082658D01*
X-712039Y-1084187D01*
X-709718Y-1085149D01*
X-707228Y-1085476D01*
X-704738Y-1085149D01*
X-702417Y-1084187D01*
X-700424Y-1082658D01*
X-698895Y-1080665D01*
X-697934Y-1078345D01*
X-697606Y-1075854D01*
X-697934Y-1073364D01*
X-698317Y-1072437D01*
X-692909Y-1067029D01*
X-692067Y-1065769D01*
X-691771Y-1064282D01*
Y-999220D01*
X-689616D01*
Y-985140D01*
X-696202D01*
X-702213Y-979129D01*
X-703474Y-978287D01*
X-704960Y-977991D01*
X-717526D01*
X-719170Y-976893D01*
X-721234Y-976482D01*
D02*
G37*
G36*
X-761330Y-973687D02*
X-763394Y-974097D01*
X-765144Y-975266D01*
X-766313Y-977016D01*
X-766724Y-979080D01*
X-766313Y-981144D01*
X-765144Y-982894D01*
X-763683Y-983870D01*
X-763994Y-985140D01*
X-765196D01*
Y-999220D01*
X-763041D01*
Y-1016314D01*
X-769458D01*
Y-1025854D01*
Y-1035394D01*
X-763041D01*
Y-1043233D01*
X-764311Y-1043753D01*
X-765917Y-1042521D01*
X-768238Y-1041560D01*
X-770728Y-1041232D01*
X-773218Y-1041560D01*
X-775539Y-1042521D01*
X-777532Y-1044050D01*
X-779061Y-1046043D01*
X-780022Y-1048364D01*
X-780350Y-1050854D01*
X-780022Y-1053345D01*
X-779061Y-1055665D01*
X-777532Y-1057658D01*
X-775539Y-1059187D01*
X-773218Y-1060149D01*
X-770728Y-1060476D01*
X-768238Y-1060149D01*
X-765917Y-1059187D01*
X-764311Y-1057955D01*
X-763041Y-1058475D01*
Y-1062673D01*
X-767311Y-1066943D01*
X-768238Y-1066560D01*
X-770728Y-1066232D01*
X-773218Y-1066560D01*
X-775539Y-1067521D01*
X-777532Y-1069050D01*
X-779061Y-1071043D01*
X-780022Y-1073364D01*
X-780350Y-1075854D01*
X-780022Y-1078345D01*
X-779061Y-1080665D01*
X-777532Y-1082658D01*
X-775539Y-1084187D01*
X-773218Y-1085149D01*
X-770728Y-1085476D01*
X-768238Y-1085149D01*
X-765917Y-1084187D01*
X-763924Y-1082658D01*
X-762395Y-1080665D01*
X-761434Y-1078345D01*
X-761106Y-1075854D01*
X-761434Y-1073364D01*
X-761817Y-1072437D01*
X-756409Y-1067029D01*
X-755567Y-1065769D01*
X-755271Y-1064282D01*
Y-999220D01*
X-753116D01*
Y-985140D01*
X-755271D01*
Y-982055D01*
X-755567Y-980568D01*
X-756080Y-979801D01*
X-755936Y-979080D01*
X-756347Y-977016D01*
X-757516Y-975266D01*
X-759266Y-974097D01*
X-761330Y-973687D01*
D02*
G37*
G36*
X50774Y-1042721D02*
X25774D01*
X8274Y-1060221D01*
Y-1085221D01*
X25774Y-1102721D01*
X50774D01*
X68274Y-1085221D01*
Y-1060221D01*
X50774Y-1042721D01*
D02*
G37*
G36*
X-829226D02*
X-854226D01*
X-871726Y-1060221D01*
Y-1085221D01*
X-854226Y-1102721D01*
X-829226D01*
X-811726Y-1085221D01*
Y-1060221D01*
X-829226Y-1042721D01*
D02*
G37*
%LPD*%
D11*
X-731328Y-389128D02*
X-717394Y-375194D01*
X-788416Y-389128D02*
X-731328D01*
X-800490Y-431546D02*
X-729296D01*
X-717394Y-419644D01*
X-733886Y-375944D02*
X-733136Y-375194D01*
X-733667Y-375725D02*
X-733636Y-375757D01*
X-733667Y-375725D02*
X-733667D01*
X-741474Y-367919D02*
X-733667Y-375725D01*
X-751224Y-456089D02*
X-741474D01*
X-733636Y-463927D01*
X-741474Y-411898D02*
X-733636Y-419736D01*
X-751224Y-411898D02*
X-741474D01*
X-751224Y-367919D02*
X-741474D01*
X-751224Y-322998D02*
X-741474D01*
X-733636Y-330836D01*
X-751224Y-277278D02*
X-741474D01*
X-733636Y-285116D01*
X-643728Y-1075854D02*
X-632410Y-1064536D01*
X-695656Y-992180D02*
Y-991180D01*
Y-1064282D02*
Y-992180D01*
X-707228Y-1075854D02*
X-695656Y-1064282D01*
X-759156Y-992180D02*
Y-982055D01*
Y-1064282D02*
Y-992180D01*
X-770728Y-1075854D02*
X-759156Y-1064282D01*
X-773156Y-1023426D02*
Y-992180D01*
Y-1023426D02*
X-770728Y-1025854D01*
X-709656Y-1023426D02*
Y-992180D01*
Y-1023426D02*
X-707228Y-1025854D01*
X-646410Y-1023172D02*
X-643728Y-1025854D01*
X-646410Y-1023172D02*
Y-992180D01*
X-582910Y-1023172D02*
X-580228Y-1025854D01*
X-582910Y-1023172D02*
Y-992180D01*
X-568910D02*
Y-982309D01*
Y-1064536D02*
Y-992180D01*
X-580228Y-1075854D02*
X-568910Y-1064536D01*
X-282032Y-935306D02*
X-230724Y-883998D01*
Y-878496D01*
X-414020Y-849122D02*
X-398018Y-833120D01*
X-587848Y-788067D02*
X-511553Y-864362D01*
X-373380Y-869442D02*
X-360680Y-856742D01*
X-513657Y-869442D02*
X-373380D01*
X-411480Y-854202D02*
X-397510Y-840232D01*
X-395414Y-864362D02*
X-387132Y-856080D01*
X-507345Y-854202D02*
X-411480D01*
X-527304Y-834243D02*
X-507345Y-854202D01*
X-402626Y-859282D02*
X-391196Y-847852D01*
X-509449Y-859282D02*
X-402626D01*
X-417322Y-844042D02*
X-400812Y-827532D01*
X-539080Y-829651D02*
X-509449Y-859282D01*
X-595722Y-787377D02*
X-513657Y-869442D01*
X-503136Y-844042D02*
X-417322D01*
X-522224Y-832139D02*
X-505241Y-849122D01*
X-517144Y-830034D02*
X-503136Y-844042D01*
X-511553Y-864362D02*
X-395414D01*
X-505241Y-849122D02*
X-414020D01*
X-527304Y-834243D02*
Y-761374D01*
X-522824Y-756894D01*
Y-756576D01*
X-522224Y-832139D02*
Y-772951D01*
X-516517Y-767244D01*
X-669128Y-652964D02*
X-580666Y-741426D01*
X-524256D02*
X-509957Y-755725D01*
X-580666Y-741426D02*
X-524256D01*
X-840436Y-668946D02*
X-714360D01*
X-701640Y-681666D01*
X-722478Y-681656D02*
X-709768Y-694366D01*
X-853126Y-681656D02*
X-722478D01*
X-840436Y-694356D02*
X-730606D01*
X-717896Y-707066D01*
X-738734Y-719756D02*
X-726024Y-732466D01*
X-840436Y-719746D02*
X-738734D01*
X-509957Y-775118D02*
Y-755725D01*
X-517144Y-782306D02*
X-509957Y-775118D01*
X-517144Y-830034D02*
Y-782306D01*
X-400812Y-827532D02*
X-319532D01*
X-304800Y-812800D01*
X-391196Y-847852D02*
X-274110D01*
X-266700Y-840442D01*
X-248920Y-833120D02*
X-228600Y-812800D01*
X-398018Y-833120D02*
X-248920D01*
X-307550Y-840232D02*
X-307340Y-840442D01*
X-397510Y-840232D02*
X-307550D01*
X-339090Y-858520D02*
X-312258D01*
X-539080Y-829651D02*
Y-756576D01*
X-587848Y-788067D02*
Y-751242D01*
X-595722Y-787377D02*
Y-762418D01*
X-177800Y-813562D02*
Y-812800D01*
X-207772Y-843534D02*
X-177800Y-813562D01*
X-220732Y-843534D02*
X-207772D01*
X-312258Y-915494D02*
X-292692D01*
X-220732Y-843534D01*
X-323688Y-901592D02*
X-291992D01*
X-203200Y-812800D01*
X-225390Y-974254D02*
X-126076Y-874940D01*
X-250746Y-974254D02*
X-225390D01*
X-242662Y-966126D02*
X-151476Y-874940D01*
X-261290Y-966126D02*
X-242662D01*
X-265014Y-937678D02*
X-202276Y-874940D01*
X-268824Y-973660D02*
X-261290Y-966126D01*
X-250809Y-974191D02*
X-250746Y-974254D01*
X-221326Y-994996D02*
X-220732D01*
X-571338Y-979881D02*
Y-979080D01*
Y-979881D02*
X-568910Y-982309D01*
X-632410Y-991926D02*
Y-981801D01*
X-634330Y-979881D02*
Y-979080D01*
Y-979881D02*
X-632410Y-981801D01*
X-704960Y-981876D02*
X-695656Y-991180D01*
X-721234Y-981876D02*
X-704960D01*
X-761330Y-979881D02*
Y-979080D01*
Y-979881D02*
X-759156Y-982055D01*
X-277628Y-915494D02*
X-227422Y-865288D01*
X-278222Y-915494D02*
X-277628D01*
X-632410Y-1064536D02*
Y-992180D01*
X-831163Y-492266D02*
Y-489351D01*
X-818284Y-476472D01*
Y-454171D01*
X-831729Y-492832D02*
X-831163Y-492266D01*
X-830358Y-479169D02*
Y-474040D01*
X-830924Y-479735D02*
X-830358Y-479169D01*
Y-474040D02*
X-825179Y-468861D01*
X-829527Y-499907D02*
X-812130Y-482510D01*
Y-456094D01*
X-829527Y-504311D02*
Y-499907D01*
X-812130Y-456094D02*
X-807050Y-451014D01*
X-812130Y-448017D02*
Y-369995D01*
X-818284Y-454171D02*
X-812130Y-448017D01*
X-825179Y-452023D02*
X-817210Y-444054D01*
Y-367891D01*
X-822290Y-441753D02*
Y-365070D01*
X-831434Y-450897D02*
X-822290Y-441753D01*
X-825179Y-468861D02*
Y-452023D01*
X-831434Y-465441D02*
Y-450897D01*
X-831739Y-465746D02*
X-831434Y-465441D01*
X-804510Y-329123D02*
Y-305031D01*
X-822290Y-365070D02*
X-814670Y-357450D01*
Y-339283D01*
X-821230Y-340988D02*
Y-340524D01*
X-828626Y-348384D02*
X-821230Y-340988D01*
X-814670Y-339283D02*
X-804510Y-329123D01*
X-818284Y-323496D02*
X-815007Y-326773D01*
X-814206D01*
X-840436Y-323496D02*
X-818284D01*
X-790786Y-285116D02*
X-790286D01*
X-794016Y-288346D02*
X-790786Y-285116D01*
X-794016Y-294537D02*
Y-288346D01*
X-804510Y-305031D02*
X-794016Y-294537D01*
X-787191Y-294896D02*
X-726674D01*
X-817210Y-367891D02*
X-809590Y-360271D01*
Y-341387D01*
X-799430Y-331227D01*
Y-307135D02*
X-787191Y-294896D01*
X-799430Y-331227D02*
Y-307135D01*
X-804510Y-343491D02*
X-794993Y-333974D01*
X-793516D02*
X-790286Y-330744D01*
X-794993Y-333974D02*
X-793516D01*
X-804510Y-362375D02*
Y-343491D01*
X-790286Y-330744D02*
X-789786D01*
X-828920Y-380509D02*
X-828626Y-380215D01*
Y-348384D01*
X-799430Y-345830D02*
X-794124Y-340524D01*
X-726674D01*
X-799430Y-364479D02*
Y-345830D01*
X-812130Y-369995D02*
X-804510Y-362375D01*
X-807050Y-372099D02*
X-799430Y-364479D01*
X-799924Y-410506D02*
Y-409661D01*
Y-410506D02*
X-790786Y-419644D01*
X-800490Y-409094D02*
X-799924Y-409661D01*
X-807050Y-451014D02*
Y-372099D01*
X-798796Y-375194D02*
X-790286D01*
X-789786D01*
X-717394D02*
X-716394D01*
X-853306Y-396464D02*
X-846591Y-403179D01*
X-790032Y-556424D02*
X-784698D01*
X-776062Y-547788D01*
Y-539180D01*
X-801970Y-513272D02*
X-776062Y-539180D01*
X-807050Y-518070D02*
X-783174Y-541946D01*
X-801970Y-482962D02*
X-794124Y-475116D01*
X-801970Y-513272D02*
Y-482962D01*
X-807050Y-480358D02*
X-790786Y-464094D01*
X-807050Y-518070D02*
Y-480358D01*
X-790786Y-464094D02*
X-790286D01*
X-727916Y-475116D02*
X-716894Y-464094D01*
X-794124Y-475116D02*
X-727916D01*
X-776316Y-521118D02*
X-773857Y-518659D01*
X-726455D01*
X-716675Y-508879D01*
X-775386Y-511157D02*
X-770178Y-505949D01*
X-775386Y-511322D02*
Y-511157D01*
X-770178Y-505949D02*
Y-500544D01*
X-753836Y-808100D02*
X-753500Y-808436D01*
X-759102Y-808100D02*
X-753836D01*
X-771256Y-795946D02*
X-759102Y-808100D01*
X-726674Y-294896D02*
X-716894Y-285116D01*
X-726674Y-340524D02*
X-716894Y-330744D01*
X-539080Y-603920D02*
X-482600Y-660400D01*
X-539080Y-603920D02*
Y-561504D01*
X-608040Y-492544D02*
X-539080Y-561504D01*
X-531460Y-586140D02*
X-482600Y-635000D01*
X-608166Y-481494D02*
X-531460Y-558200D01*
Y-586140D02*
Y-558200D01*
X-522824Y-569376D02*
Y-529246D01*
Y-569376D02*
X-482600Y-609600D01*
X-659024Y-448094D02*
X-603976D01*
X-522824Y-529246D01*
X-514950Y-549058D02*
X-482600Y-581408D01*
Y-584200D02*
Y-581408D01*
X-514950Y-549058D02*
Y-523658D01*
X-601924Y-436684D02*
X-514950Y-523658D01*
X-612356Y-403644D02*
X-482600Y-533400D01*
X-659024Y-403644D02*
X-612356D01*
X-599388Y-391212D02*
X-482600Y-508000D01*
X-606006Y-359194D02*
X-482600Y-482600D01*
X-720248Y-391212D02*
X-599388D01*
X-659024Y-359194D02*
X-606006D01*
X-659024Y-492544D02*
X-608040D01*
X-721630Y-481494D02*
X-608166D01*
X-726339Y-486203D02*
X-721630Y-481494D01*
X-594116Y-345684D02*
X-482600Y-457200D01*
X-719170Y-345684D02*
X-594116D01*
X-659024Y-314744D02*
X-599656D01*
X-482600Y-431800D01*
X-587316Y-301684D02*
X-482600Y-406400D01*
X-719620Y-301684D02*
X-587316D01*
X-651856Y-331916D02*
X-644236Y-324296D01*
X-658604Y-331916D02*
X-651856D01*
X-659024Y-269776D02*
X-593824D01*
X-482600Y-381000D01*
X-721630Y-258066D02*
X-580134D01*
X-482600Y-355600D01*
X-751224Y-500370D02*
X-740458D01*
X-733636Y-507192D01*
Y-285116D02*
X-733136D01*
X-726339Y-308403D02*
X-719620Y-301684D01*
X-726339Y-352853D02*
X-719170Y-345684D01*
X-726339Y-397303D02*
X-720248Y-391212D01*
X-726339Y-441753D02*
X-721270Y-436684D01*
X-601924D01*
X-853306Y-396464D02*
Y-260166D01*
X-840436Y-247296D01*
X-717394Y-419644D02*
X-716394D01*
X-787191Y-416549D02*
X-782286Y-411644D01*
X-790786Y-419644D02*
X-790286D01*
X-651856Y-465007D02*
X-644236Y-457387D01*
X-658604Y-465007D02*
X-651856D01*
X-734259Y-446971D02*
X-733136Y-448094D01*
X-733886Y-464844D02*
X-733136Y-464094D01*
X-732636Y-448094D02*
X-726339Y-441797D01*
X-751597Y-446971D02*
X-734259D01*
X-751974Y-446594D02*
X-751597Y-446971D01*
X-751974Y-465594D02*
X-751224Y-464844D01*
X-733886D01*
X-787191Y-460999D02*
X-782286Y-456094D01*
X-790286Y-464094D02*
X-789786D01*
X-787191Y-461499D02*
Y-460999D01*
X-782286Y-456094D02*
X-770178D01*
X-789786Y-464094D02*
X-787191Y-461499D01*
X-716894Y-464094D02*
X-716394D01*
X-677564Y-464844D02*
X-659774D01*
X-708894Y-456094D02*
X-696518D01*
X-713799Y-461499D02*
Y-460999D01*
X-678314Y-465594D02*
X-677564Y-464844D01*
X-713799Y-460999D02*
X-708894Y-456094D01*
X-716394Y-464094D02*
X-713799Y-461499D01*
X-659774Y-464844D02*
X-659024Y-464094D01*
X-677937Y-446971D02*
X-660147D01*
X-678314Y-446594D02*
X-677937Y-446971D01*
X-660147D02*
X-659024Y-448094D01*
X-726339Y-262775D02*
X-721630Y-258066D01*
X-660807Y-267993D02*
X-659024Y-269776D01*
X-713799Y-282021D02*
X-708894Y-277116D01*
X-678497Y-267616D02*
X-678120Y-267993D01*
X-708894Y-277116D02*
X-696701D01*
X-678120Y-267993D02*
X-660807D01*
X-751831Y-285866D02*
X-733886D01*
X-752581Y-267616D02*
X-752204Y-267993D01*
X-734259D01*
X-752581Y-286616D02*
X-751831Y-285866D01*
X-782286Y-277116D02*
X-770784D01*
X-716894Y-285116D02*
X-716394D01*
X-733886Y-285866D02*
X-733136Y-285116D01*
X-716394Y-285116D02*
X-713799Y-282521D01*
X-732636Y-269116D02*
X-726339Y-262819D01*
X-713799Y-282521D02*
Y-282021D01*
X-734259Y-267993D02*
X-733136Y-269116D01*
X-787191Y-282021D02*
X-782286Y-277116D01*
X-789786Y-285116D02*
X-787191Y-282521D01*
Y-282021D01*
X-790286Y-285116D02*
X-789786D01*
X-651856Y-286196D02*
X-644236Y-278576D01*
X-678077Y-286196D02*
X-659444D01*
X-678497Y-286616D02*
X-678077Y-286196D01*
X-659444D02*
X-659024Y-285776D01*
X-658604Y-286196D01*
X-651856D01*
X-644236Y-278576D02*
Y-278294D01*
X-787191Y-372599D02*
Y-372099D01*
X-789786Y-375194D02*
X-787191Y-372599D01*
Y-372099D02*
X-782286Y-367194D01*
X-658604Y-509198D02*
X-651856D01*
X-644236Y-501578D01*
X-658604Y-420816D02*
X-651856D01*
X-644236Y-413196D01*
X-658604Y-376837D02*
X-651856D01*
X-644236Y-369217D01*
X-636616Y-234616D02*
X-636406D01*
X-649336Y-221896D02*
X-636616Y-234616D01*
X-659024Y-508544D02*
X-658480Y-508000D01*
X-483110Y-635000D02*
X-482600D01*
X-485004Y-203200D02*
X-482600D01*
X-491708Y-196496D02*
X-485004Y-203200D01*
X-624434Y-196496D02*
X-491708D01*
X-732636Y-492544D02*
X-726339Y-486247D01*
X-485211Y-660400D02*
X-482600D01*
X-840436Y-298096D02*
X-840366Y-298026D01*
X-716394Y-375194D02*
X-713799Y-372599D01*
X-659774Y-420394D02*
X-659024Y-419644D01*
X-678497Y-313244D02*
X-678120Y-313621D01*
X-678314Y-402144D02*
X-677937Y-402521D01*
X-677747Y-331494D02*
X-659774D01*
X-678314Y-357694D02*
X-677937Y-358071D01*
X-660147D01*
X-659774Y-331494D02*
X-659024Y-330744D01*
X-660147Y-402521D02*
X-659024Y-403644D01*
X-660147Y-358071D02*
X-659024Y-359194D01*
X-660147Y-313621D02*
X-659024Y-314744D01*
X-677564Y-375944D02*
X-659774D01*
X-677937Y-402521D02*
X-660147D01*
X-659774Y-375944D02*
X-659024Y-375194D01*
X-678120Y-313621D02*
X-660147D01*
X-865836Y-516546D02*
X-852363Y-530019D01*
X-826109D01*
X-776062Y-580066D01*
X-840436Y-541946D02*
X-789616Y-592766D01*
X-852373Y-555410D02*
X-834157D01*
X-840436Y-592746D02*
X-820106Y-613076D01*
X-685769D01*
X-624942Y-158406D02*
X-612232Y-171116D01*
X-616814Y-145706D02*
X-604104Y-158416D01*
X-776062Y-580066D02*
X-681828D01*
X-733886Y-420394D02*
X-733136Y-419644D01*
X-726339Y-308447D02*
Y-308403D01*
X-752581Y-332244D02*
X-751831Y-331494D01*
X-732636Y-314744D02*
X-726339Y-308447D01*
X-734259Y-402521D02*
X-733136Y-403644D01*
X-647538Y-184568D02*
X-636362D01*
X-624434Y-196496D01*
X-840436Y-120306D02*
X-608686Y-120306D01*
X-840436Y-18706D02*
X-559918Y-18706D01*
X-853126Y-630856D02*
X-698094D01*
X-840436Y-643546D02*
X-706222D01*
X-853126Y-732456D02*
X-746862D01*
X-840436Y-745146D02*
X-755000D01*
X-840436Y-770546D02*
X-763128D01*
X-840436Y-795946D02*
X-771256D01*
X-681828Y-580066D02*
X-669128Y-592766D01*
X-789616D02*
X-678405D01*
X-671845Y-599326D01*
X-650884D01*
X-644744Y-605466D01*
X-660189Y-618166D02*
X-652872D01*
X-680509Y-597846D02*
X-660189Y-618166D01*
X-791720Y-597846D02*
X-680509D01*
X-834157Y-555410D02*
X-791720Y-597846D01*
X-799786Y-607996D02*
X-683664D01*
X-661000Y-630661D01*
Y-630866D02*
Y-630661D01*
X-840436Y-567346D02*
X-799786Y-607996D01*
X-669128Y-652964D02*
Y-629717D01*
X-685769Y-613076D02*
X-669128Y-629717D01*
X-220732Y-994996D02*
X-100676Y-874940D01*
X-840436Y6694D02*
X-551790Y6694D01*
X-865836Y-44096D02*
X-853126Y-56806D01*
X-840436D01*
X-746862Y-732456D02*
X-734152Y-745166D01*
X-755000Y-745146D02*
X-742280Y-757866D01*
X-752369Y-421144D02*
X-751619Y-420394D01*
X-865836Y-145696D02*
X-853306Y-158226D01*
X-865836Y-94896D02*
X-853276Y-107456D01*
X-865836Y32104D02*
X-853126Y19394D01*
X-865836Y57504D02*
X-853126Y44794D01*
Y-107606D02*
X-600558Y-107606D01*
X-853126Y-158406D02*
X-624942Y-158406D01*
X-853126Y19394D02*
X-543662Y19394D01*
X-707924Y-18706D02*
X-527406Y-18706D01*
X-840436Y-56806D02*
X-576174Y-56806D01*
X-840436Y-221896D02*
X-649336Y-221896D01*
X-840436Y-171096D02*
X-633080Y-171096D01*
X-840436Y-145696D02*
X-616814Y-145696D01*
X-840436Y-94896D02*
X-592440Y-94896D01*
X-840436Y-69496D02*
X-584302Y-69496D01*
X-840436Y32104D02*
X-535544D01*
X-840436Y-44106D02*
X-568046Y-44106D01*
X-853126Y44794D02*
X-559908Y44794D01*
X-840436Y-196506D02*
X-641198Y-196506D01*
X-752369Y-402144D02*
X-751992Y-402521D01*
X-734259D01*
X-568046Y-44106D02*
X-555336Y-56816D01*
X-535544Y32104D02*
X-522824Y19384D01*
X-543662Y19394D02*
X-530952Y6684D01*
X-551790Y6694D02*
X-539080Y-6016D01*
X-576174Y-56806D02*
X-563464Y-69516D01*
X-608686Y-120306D02*
X-595976Y-133016D01*
X-600558Y-107606D02*
X-587848Y-120316D01*
X-592440Y-94896D02*
X-579720Y-107616D01*
X-584302Y-69506D02*
X-571592Y-82216D01*
X-527406Y-18706D02*
X-514696Y-31416D01*
X-706222Y-643556D02*
X-693512Y-656266D01*
X-698094Y-630856D02*
X-685384Y-643566D01*
X-689966Y-618156D02*
X-677256Y-630866D01*
X-865836Y-541946D02*
X-852373Y-555410D01*
X-840426Y-618156D02*
X-689966D01*
X-840436Y-618146D02*
X-840426Y-618156D01*
X-865836Y-618146D02*
X-853126Y-630856D01*
X-865836Y-668946D02*
X-853126Y-681656D01*
X-865836Y-719746D02*
X-853126Y-732456D01*
X-763128Y-770546D02*
X-750408Y-783266D01*
X-641198Y-196506D02*
X-628488Y-209216D01*
X-633080Y-171096D02*
X-620360Y-183816D01*
X-752369Y-376694D02*
X-751619Y-375944D01*
X-752581Y-313244D02*
X-752204Y-313621D01*
X-734259D02*
X-733136Y-314744D01*
X-752204Y-313621D02*
X-734259D01*
X-733886Y-331494D02*
X-733136Y-330744D01*
X-751831Y-331494D02*
X-733886D01*
X-660147Y-491421D02*
X-659024Y-492544D01*
X-678314Y-376694D02*
X-677564Y-375944D01*
X-713799Y-505449D02*
X-708894Y-500544D01*
X-677937Y-491421D02*
X-660147D01*
X-659774Y-509294D02*
X-659024Y-508544D01*
X-751974Y-491044D02*
X-751597Y-491421D01*
X-708894Y-411644D02*
X-696518D01*
X-677564Y-509294D02*
X-659774D01*
X-678314Y-421144D02*
X-677564Y-420394D01*
X-708894Y-500544D02*
X-696518D01*
X-678314Y-510044D02*
X-677564Y-509294D01*
X-678497Y-332244D02*
X-677747Y-331494D01*
X-678314Y-491044D02*
X-677937Y-491421D01*
X-787191Y-327649D02*
X-782286Y-322744D01*
X-787191Y-328149D02*
Y-327649D01*
X-782286Y-411644D02*
X-770572D01*
X-782286Y-322744D02*
X-770784D01*
X-734259Y-358071D02*
X-733136Y-359194D01*
X-751992Y-358071D02*
X-734259D01*
X-752369Y-357694D02*
X-751992Y-358071D01*
X-751619Y-375944D02*
X-733886D01*
X-782286Y-367194D02*
X-770572D01*
X-782286Y-500544D02*
X-770178D01*
X-677564Y-420394D02*
X-659774D01*
X-733136Y-314744D02*
X-732636D01*
X-751619Y-420394D02*
X-733886D01*
X-787191Y-505449D02*
X-782286Y-500544D01*
X-732636Y-359194D02*
X-726339Y-352897D01*
X-732636Y-403644D02*
X-726339Y-397347D01*
X-789786Y-508544D02*
X-787191Y-505949D01*
X-790286Y-508544D02*
X-789786D01*
X-787191Y-505949D02*
Y-505449D01*
X-713799Y-328149D02*
Y-327649D01*
X-789786Y-330744D02*
X-787191Y-328149D01*
X-716394Y-330744D02*
X-713799Y-328149D01*
X-708894Y-322744D02*
X-696701D01*
X-713799Y-327649D02*
X-708894Y-322744D01*
Y-367194D02*
X-696518D01*
X-713799Y-372599D02*
Y-372099D01*
X-708894Y-367194D01*
X-713799Y-505949D02*
Y-505449D01*
Y-417049D02*
Y-416549D01*
X-716894Y-508544D02*
X-716394D01*
X-713799Y-416549D02*
X-708894Y-411644D01*
X-716894Y-330744D02*
X-716394D01*
X-787191Y-417049D02*
Y-416549D01*
X-716394Y-508544D02*
X-713799Y-505949D01*
X-751597Y-491421D02*
X-734259D01*
X-733886Y-509294D02*
X-733136Y-508544D01*
X-751974Y-510044D02*
X-751224Y-509294D01*
X-733886D01*
X-734259Y-491421D02*
X-733136Y-492544D01*
X-716394Y-419644D02*
X-713799Y-417049D01*
X-789126Y-418984D02*
X-787191Y-417049D01*
D13*
X-777916Y-490584D02*
X-775386Y-488054D01*
X-788934Y-313584D02*
X-778380D01*
X-775850Y-311054D01*
X-714934Y-356584D02*
X-704380D01*
X-714934Y-446584D02*
X-704380D01*
X-788934D02*
X-778380D01*
X-788934Y-401584D02*
X-778380D01*
X-775850Y-399054D01*
X-788934Y-357584D02*
X-778380D01*
X-775850Y-355054D01*
X-714934Y-312584D02*
X-704380D01*
X-714934Y-401584D02*
X-704380D01*
X-714934Y-267584D02*
X-704380D01*
X-788934D02*
X-778380D01*
X-788934Y-490584D02*
X-777916D01*
X-704380D02*
X-701850Y-488054D01*
X-701386D01*
X-716894Y-492544D02*
X-714934Y-490584D01*
X-704380D01*
D14*
X-759156Y-992180D02*
D03*
X-773156D02*
D03*
X-709656D02*
D03*
X-695656D02*
D03*
X-646410D02*
D03*
X-632410D02*
D03*
X-582910D02*
D03*
X-568910D02*
D03*
D15*
X-678314Y-510044D02*
D03*
Y-465594D02*
D03*
X-751974D02*
D03*
X-678497Y-286616D02*
D03*
X-752581D02*
D03*
X-678497Y-332244D02*
D03*
X-752581D02*
D03*
X-678314Y-421144D02*
D03*
X-752369D02*
D03*
X-678314Y-376694D02*
D03*
X-752369D02*
D03*
X-751974Y-510044D02*
D03*
D16*
X-678314Y-491044D02*
D03*
X-696518Y-500544D02*
D03*
Y-456094D02*
D03*
X-678314Y-446594D02*
D03*
X-770178Y-456094D02*
D03*
X-751974Y-446594D02*
D03*
X-696701Y-277116D02*
D03*
X-678497Y-267616D02*
D03*
X-770784Y-277116D02*
D03*
X-752581Y-267616D02*
D03*
X-696701Y-322744D02*
D03*
X-678497Y-313244D02*
D03*
X-770784Y-322744D02*
D03*
X-752581Y-313244D02*
D03*
X-696518Y-411644D02*
D03*
X-678314Y-402144D02*
D03*
X-770572Y-411644D02*
D03*
X-752369Y-402144D02*
D03*
X-696518Y-367194D02*
D03*
X-678314Y-357694D02*
D03*
X-770572Y-367194D02*
D03*
X-752369Y-357694D02*
D03*
X-770178Y-500544D02*
D03*
X-751974Y-491044D02*
D03*
D17*
X-659024Y-492544D02*
D03*
Y-508544D02*
D03*
Y-464094D02*
D03*
Y-448094D02*
D03*
X-733136Y-464094D02*
D03*
Y-448094D02*
D03*
X-790286Y-448094D02*
D03*
Y-464094D02*
D03*
X-716894Y-448094D02*
D03*
Y-464094D02*
D03*
X-790286Y-269116D02*
D03*
Y-285116D02*
D03*
X-716894Y-269116D02*
D03*
Y-285116D02*
D03*
X-659024Y-285776D02*
D03*
Y-269776D02*
D03*
X-733136Y-285116D02*
D03*
Y-269116D02*
D03*
X-716894Y-314744D02*
D03*
Y-330744D02*
D03*
X-790286Y-314744D02*
D03*
Y-330744D02*
D03*
X-659024Y-330744D02*
D03*
Y-314744D02*
D03*
X-733136Y-330744D02*
D03*
Y-314744D02*
D03*
X-716894Y-403644D02*
D03*
Y-419644D02*
D03*
X-790286Y-403644D02*
D03*
Y-419644D02*
D03*
X-716894Y-359194D02*
D03*
Y-375194D02*
D03*
X-790286Y-359194D02*
D03*
Y-375194D02*
D03*
X-659024Y-419644D02*
D03*
Y-403644D02*
D03*
X-733136Y-419644D02*
D03*
Y-403644D02*
D03*
X-659024Y-375194D02*
D03*
Y-359194D02*
D03*
X-733136Y-375194D02*
D03*
Y-359194D02*
D03*
X-716894Y-492544D02*
D03*
Y-508544D02*
D03*
X-790286Y-492544D02*
D03*
Y-508544D02*
D03*
X-733136Y-508544D02*
D03*
Y-492544D02*
D03*
D21*
X-770728Y-1025854D02*
D03*
X-707228D02*
D03*
X-643728D02*
D03*
X-580228D02*
D03*
D22*
X-770728Y-1050854D02*
D03*
Y-1075854D02*
D03*
X-707228D02*
D03*
Y-1050854D02*
D03*
X-643728Y-1075854D02*
D03*
Y-1050854D02*
D03*
X-580228Y-1075854D02*
D03*
Y-1050854D02*
D03*
D29*
X0Y-787400D02*
D03*
X-25400D02*
D03*
X-50800D02*
D03*
X-76200D02*
D03*
X-101600D02*
D03*
X-127000D02*
D03*
X-152400D02*
D03*
X-177800D02*
D03*
X-203200D02*
D03*
X0Y-812800D02*
D03*
X-228600Y-787400D02*
D03*
X-254000D02*
D03*
X-279400D02*
D03*
X-304800D02*
D03*
X-330200D02*
D03*
X-355600D02*
D03*
X-381000D02*
D03*
X-406400D02*
D03*
X-431800D02*
D03*
X-25400Y-812800D02*
D03*
X-50800D02*
D03*
X-76200D02*
D03*
X-101600D02*
D03*
X-127000D02*
D03*
X-152400D02*
D03*
X-177800D02*
D03*
X-203200D02*
D03*
X-228600D02*
D03*
X-254000D02*
D03*
X-279400D02*
D03*
X-304800D02*
D03*
X-330200D02*
D03*
X-355600D02*
D03*
X-381000D02*
D03*
X-406400D02*
D03*
X-431800D02*
D03*
X0Y-213360D02*
D03*
Y-187960D02*
D03*
Y-162560D02*
D03*
Y-137160D02*
D03*
Y-111760D02*
D03*
Y-86360D02*
D03*
Y-60960D02*
D03*
Y-35560D02*
D03*
Y-238760D02*
D03*
Y-264160D02*
D03*
Y-533400D02*
D03*
Y-558800D02*
D03*
Y-584200D02*
D03*
Y-609600D02*
D03*
Y-635000D02*
D03*
Y-660400D02*
D03*
Y-685800D02*
D03*
Y-711200D02*
D03*
Y-482600D02*
D03*
Y-457200D02*
D03*
Y-431800D02*
D03*
Y-406400D02*
D03*
Y-381000D02*
D03*
Y-355600D02*
D03*
Y-330200D02*
D03*
Y-304800D02*
D03*
X-482600D02*
D03*
Y-279400D02*
D03*
Y-254000D02*
D03*
Y-228600D02*
D03*
Y-203200D02*
D03*
Y-177800D02*
D03*
Y-152400D02*
D03*
Y-127000D02*
D03*
Y-533400D02*
D03*
Y-508000D02*
D03*
Y-482600D02*
D03*
Y-457200D02*
D03*
Y-431800D02*
D03*
Y-406400D02*
D03*
Y-381000D02*
D03*
Y-355600D02*
D03*
Y-762000D02*
D03*
Y-736600D02*
D03*
Y-711200D02*
D03*
Y-685800D02*
D03*
Y-660400D02*
D03*
Y-635000D02*
D03*
Y-609600D02*
D03*
Y-584200D02*
D03*
D30*
X-840436Y57504D02*
D03*
Y32104D02*
D03*
Y6704D02*
D03*
Y-18696D02*
D03*
Y-44096D02*
D03*
X-865836Y57504D02*
D03*
Y32104D02*
D03*
Y6704D02*
D03*
Y-18696D02*
D03*
Y-44096D02*
D03*
X-840436Y-94896D02*
D03*
Y-120296D02*
D03*
X-865836Y-94896D02*
D03*
Y-120296D02*
D03*
X-840436Y-196496D02*
D03*
X-865836D02*
D03*
Y-348896D02*
D03*
X-840436Y-323496D02*
D03*
X-865836D02*
D03*
Y-298096D02*
D03*
X-840436D02*
D03*
X-865836Y-272696D02*
D03*
X-840436D02*
D03*
X-865836Y-247296D02*
D03*
Y-221896D02*
D03*
X-840436Y-247296D02*
D03*
Y-221896D02*
D03*
X-865836Y-171096D02*
D03*
Y-145696D02*
D03*
X-840436Y-171096D02*
D03*
Y-145696D02*
D03*
X-865836Y-69496D02*
D03*
X-840436D02*
D03*
Y-516546D02*
D03*
Y-541946D02*
D03*
Y-567346D02*
D03*
Y-592746D02*
D03*
Y-618146D02*
D03*
X-865836Y-516546D02*
D03*
Y-541946D02*
D03*
Y-567346D02*
D03*
Y-592746D02*
D03*
Y-618146D02*
D03*
X-840436Y-668946D02*
D03*
Y-694346D02*
D03*
X-865836Y-668946D02*
D03*
Y-694346D02*
D03*
X-840436Y-770546D02*
D03*
X-865836D02*
D03*
Y-922946D02*
D03*
X-840436Y-897546D02*
D03*
X-865836D02*
D03*
Y-872146D02*
D03*
X-840436D02*
D03*
X-865836Y-846746D02*
D03*
X-840436D02*
D03*
X-865836Y-821346D02*
D03*
Y-795946D02*
D03*
X-840436Y-821346D02*
D03*
Y-795946D02*
D03*
X-865836Y-745146D02*
D03*
Y-719746D02*
D03*
X-840436Y-745146D02*
D03*
Y-719746D02*
D03*
X-865836Y-643546D02*
D03*
X-840436D02*
D03*
D31*
Y-348896D02*
D03*
Y-922946D02*
D03*
D32*
X-229100Y-484000D02*
D03*
X-254500D02*
D03*
X-203700Y-509400D02*
D03*
X-254500D02*
D03*
X-229100D02*
D03*
D33*
X-203700Y-484000D02*
D03*
D34*
X0Y0D02*
D03*
X-431000Y-508000D02*
D03*
X-152000D02*
D03*
X-781726Y77316D02*
D03*
X38274Y-1072684D02*
D03*
X-841726D02*
D03*
X-482600Y-812800D02*
D03*
X0Y-749300D02*
D03*
D35*
X-788416Y-389128D02*
D03*
X-800490Y-431546D02*
D03*
X-751224Y-277278D02*
D03*
Y-322998D02*
D03*
Y-367919D02*
D03*
Y-411898D02*
D03*
Y-456089D02*
D03*
X-775386Y-511068D02*
D03*
X-701640Y-681666D02*
D03*
X-709768Y-694366D02*
D03*
X-717896Y-707066D02*
D03*
X-516517Y-767244D02*
D03*
X-307340Y-840442D02*
D03*
X-266700D02*
D03*
X-312258Y-858520D02*
D03*
X-360680Y-856742D02*
D03*
X-387132Y-856080D02*
D03*
X-339090Y-858520D02*
D03*
X-126076Y-874940D02*
D03*
X-151476D02*
D03*
X-202276D02*
D03*
X-250809Y-974191D02*
D03*
X-571338Y-979080D02*
D03*
X-634330D02*
D03*
X-721234Y-981876D02*
D03*
X-761330Y-979080D02*
D03*
X-278222Y-915494D02*
D03*
X-323688Y-901592D02*
D03*
X-268824Y-973660D02*
D03*
X-282032Y-935306D02*
D03*
X-312258Y-915494D02*
D03*
X-221326Y-994996D02*
D03*
X-265014Y-937678D02*
D03*
X-830924Y-479735D02*
D03*
X-831729Y-492832D02*
D03*
X-829527Y-504311D02*
D03*
X-831739Y-465746D02*
D03*
X-821230Y-340524D02*
D03*
X-814206Y-326773D02*
D03*
X-828920Y-380509D02*
D03*
X-800490Y-409094D02*
D03*
X-799176Y-374560D02*
D03*
X-846591Y-403179D02*
D03*
X-790032Y-556424D02*
D03*
X-783174Y-541946D02*
D03*
X-776316Y-521118D02*
D03*
X-753500Y-808436D02*
D03*
X-751224Y-500370D02*
D03*
X-775386Y-311054D02*
D03*
X-701386Y-354054D02*
D03*
Y-444054D02*
D03*
X-775386D02*
D03*
Y-399054D02*
D03*
Y-355054D02*
D03*
X-701386Y-310054D02*
D03*
Y-399054D02*
D03*
Y-265054D02*
D03*
X-775386D02*
D03*
Y-488054D02*
D03*
X-701386D02*
D03*
X-644236Y-457105D02*
D03*
Y-278294D02*
D03*
Y-501296D02*
D03*
Y-412914D02*
D03*
Y-368935D02*
D03*
Y-324014D02*
D03*
X-636406Y-234616D02*
D03*
X-587848Y-751242D02*
D03*
X-230724Y-878496D02*
D03*
X-595722Y-762418D02*
D03*
X-647538Y-184568D02*
D03*
X-227422Y-865288D02*
D03*
X-100676Y-874940D02*
D03*
X-652872Y-618166D02*
D03*
X-669128Y-592766D02*
D03*
X-661000Y-630866D02*
D03*
X-644744Y-605466D02*
D03*
X-604104Y-158416D02*
D03*
X-612232Y-171116D02*
D03*
X-742280Y-757866D02*
D03*
X-734152Y-745166D02*
D03*
X-726024Y-732466D02*
D03*
X-522824Y-756576D02*
D03*
X-539080Y-756576D02*
D03*
X-555336Y-56816D02*
D03*
X-620360Y-183816D02*
D03*
X-628488Y-209216D02*
D03*
X-677256Y-630866D02*
D03*
X-685384Y-643566D02*
D03*
X-750408Y-783266D02*
D03*
X-693512Y-656266D02*
D03*
X-559908Y44784D02*
D03*
X-514696Y-31416D02*
D03*
X-571592Y-82216D02*
D03*
X-579720Y-107616D02*
D03*
X-587848Y-120316D02*
D03*
X-595976Y-133016D02*
D03*
X-563464Y-69516D02*
D03*
X-539080Y-6016D02*
D03*
X-530952Y6684D02*
D03*
X-522824Y19384D02*
D03*
M02*
