G04*
G04 #@! TF.GenerationSoftware,Altium Limited,Altium Designer,21.0.9 (235)*
G04*
G04 Layer_Color=16711935*
%FSLAX44Y44*%
%MOMM*%
G71*
G04*
G04 #@! TF.SameCoordinates,B04B5628-BEB7-489B-AFC1-9DCA5A1A145D*
G04*
G04*
G04 #@! TF.FilePolarity,Negative*
G04*
G01*
G75*
%ADD20C,1.9812*%
%ADD21R,1.4000X1.4000*%
%ADD22C,1.4000*%
%ADD23C,1.8032*%
%ADD24R,1.8032X1.8032*%
%ADD25C,1.7532*%
%ADD26R,1.7532X1.7532*%
%ADD27C,5.2032*%
%ADD28C,0.7532*%
D20*
X0Y-787400D02*
D03*
X-25400D02*
D03*
X-50800D02*
D03*
X-76200D02*
D03*
X-101600D02*
D03*
X-127000D02*
D03*
X-152400D02*
D03*
X-177800D02*
D03*
X-203200D02*
D03*
X0Y-812800D02*
D03*
X-228600Y-787400D02*
D03*
X-254000D02*
D03*
X-279400D02*
D03*
X-304800D02*
D03*
X-330200D02*
D03*
X-355600D02*
D03*
X-381000D02*
D03*
X-406400D02*
D03*
X-431800D02*
D03*
X-25400Y-812800D02*
D03*
X-50800D02*
D03*
X-76200D02*
D03*
X-101600D02*
D03*
X-127000D02*
D03*
X-152400D02*
D03*
X-177800D02*
D03*
X-203200D02*
D03*
X-228600D02*
D03*
X-254000D02*
D03*
X-279400D02*
D03*
X-304800D02*
D03*
X-330200D02*
D03*
X-355600D02*
D03*
X-381000D02*
D03*
X-406400D02*
D03*
X-431800D02*
D03*
X0Y-213360D02*
D03*
Y-187960D02*
D03*
Y-162560D02*
D03*
Y-137160D02*
D03*
Y-111760D02*
D03*
Y-86360D02*
D03*
Y-60960D02*
D03*
Y-35560D02*
D03*
Y-238760D02*
D03*
Y-264160D02*
D03*
Y-533400D02*
D03*
Y-558800D02*
D03*
Y-584200D02*
D03*
Y-609600D02*
D03*
Y-635000D02*
D03*
Y-660400D02*
D03*
Y-685800D02*
D03*
Y-711200D02*
D03*
Y-482600D02*
D03*
Y-457200D02*
D03*
Y-431800D02*
D03*
Y-406400D02*
D03*
Y-381000D02*
D03*
Y-355600D02*
D03*
Y-330200D02*
D03*
Y-304800D02*
D03*
X-482600D02*
D03*
Y-279400D02*
D03*
Y-254000D02*
D03*
Y-228600D02*
D03*
Y-203200D02*
D03*
Y-177800D02*
D03*
Y-152400D02*
D03*
Y-127000D02*
D03*
Y-533400D02*
D03*
Y-508000D02*
D03*
Y-482600D02*
D03*
Y-457200D02*
D03*
Y-431800D02*
D03*
Y-406400D02*
D03*
Y-381000D02*
D03*
Y-355600D02*
D03*
Y-762000D02*
D03*
Y-736600D02*
D03*
Y-711200D02*
D03*
Y-685800D02*
D03*
Y-660400D02*
D03*
Y-635000D02*
D03*
Y-609600D02*
D03*
Y-584200D02*
D03*
D21*
X-770728Y-1025854D02*
D03*
X-707228D02*
D03*
X-643728D02*
D03*
X-580228D02*
D03*
D22*
X-770728Y-1050854D02*
D03*
Y-1075854D02*
D03*
X-707228D02*
D03*
Y-1050854D02*
D03*
X-643728Y-1075854D02*
D03*
Y-1050854D02*
D03*
X-580228Y-1075854D02*
D03*
Y-1050854D02*
D03*
D23*
X-840436Y57504D02*
D03*
Y32104D02*
D03*
Y6704D02*
D03*
Y-18696D02*
D03*
Y-44096D02*
D03*
X-865836Y57504D02*
D03*
Y32104D02*
D03*
Y6704D02*
D03*
Y-18696D02*
D03*
Y-44096D02*
D03*
X-840436Y-94896D02*
D03*
Y-120296D02*
D03*
X-865836Y-94896D02*
D03*
Y-120296D02*
D03*
X-840436Y-196496D02*
D03*
X-865836D02*
D03*
Y-348896D02*
D03*
X-840436Y-323496D02*
D03*
X-865836D02*
D03*
Y-298096D02*
D03*
X-840436D02*
D03*
X-865836Y-272696D02*
D03*
X-840436D02*
D03*
X-865836Y-247296D02*
D03*
Y-221896D02*
D03*
X-840436Y-247296D02*
D03*
Y-221896D02*
D03*
X-865836Y-171096D02*
D03*
Y-145696D02*
D03*
X-840436Y-171096D02*
D03*
Y-145696D02*
D03*
X-865836Y-69496D02*
D03*
X-840436D02*
D03*
Y-516546D02*
D03*
Y-541946D02*
D03*
Y-567346D02*
D03*
Y-592746D02*
D03*
Y-618146D02*
D03*
X-865836Y-516546D02*
D03*
Y-541946D02*
D03*
Y-567346D02*
D03*
Y-592746D02*
D03*
Y-618146D02*
D03*
X-840436Y-668946D02*
D03*
Y-694346D02*
D03*
X-865836Y-668946D02*
D03*
Y-694346D02*
D03*
X-840436Y-770546D02*
D03*
X-865836D02*
D03*
Y-922946D02*
D03*
X-840436Y-897546D02*
D03*
X-865836D02*
D03*
Y-872146D02*
D03*
X-840436D02*
D03*
X-865836Y-846746D02*
D03*
X-840436D02*
D03*
X-865836Y-821346D02*
D03*
Y-795946D02*
D03*
X-840436Y-821346D02*
D03*
Y-795946D02*
D03*
X-865836Y-745146D02*
D03*
Y-719746D02*
D03*
X-840436Y-745146D02*
D03*
Y-719746D02*
D03*
X-865836Y-643546D02*
D03*
X-840436D02*
D03*
D24*
Y-348896D02*
D03*
Y-922946D02*
D03*
D25*
X-229100Y-484000D02*
D03*
X-254500D02*
D03*
X-203700Y-509400D02*
D03*
X-254500D02*
D03*
X-229100D02*
D03*
D26*
X-203700Y-484000D02*
D03*
D27*
X0Y0D02*
D03*
X-431000Y-508000D02*
D03*
X-152000D02*
D03*
X-781726Y77316D02*
D03*
X38274Y-1072684D02*
D03*
X-841726D02*
D03*
X-482600Y-812800D02*
D03*
X0Y-749300D02*
D03*
D28*
X-788416Y-389128D02*
D03*
X-800490Y-431546D02*
D03*
X-751224Y-277278D02*
D03*
Y-322998D02*
D03*
Y-367919D02*
D03*
Y-411898D02*
D03*
Y-456089D02*
D03*
X-775386Y-511068D02*
D03*
X-701640Y-681666D02*
D03*
X-709768Y-694366D02*
D03*
X-717896Y-707066D02*
D03*
X-516517Y-767244D02*
D03*
X-307340Y-840442D02*
D03*
X-266700D02*
D03*
X-312258Y-858520D02*
D03*
X-360680Y-856742D02*
D03*
X-387132Y-856080D02*
D03*
X-339090Y-858520D02*
D03*
X-126076Y-874940D02*
D03*
X-151476D02*
D03*
X-202276D02*
D03*
X-250809Y-974191D02*
D03*
X-571338Y-979080D02*
D03*
X-634330D02*
D03*
X-721234Y-981876D02*
D03*
X-761330Y-979080D02*
D03*
X-278222Y-915494D02*
D03*
X-323688Y-901592D02*
D03*
X-268824Y-973660D02*
D03*
X-282032Y-935306D02*
D03*
X-312258Y-915494D02*
D03*
X-221326Y-994996D02*
D03*
X-265014Y-937678D02*
D03*
X-830924Y-479735D02*
D03*
X-831729Y-492832D02*
D03*
X-829527Y-504311D02*
D03*
X-831739Y-465746D02*
D03*
X-821230Y-340524D02*
D03*
X-814206Y-326773D02*
D03*
X-828920Y-380509D02*
D03*
X-800490Y-409094D02*
D03*
X-799176Y-374560D02*
D03*
X-846591Y-403179D02*
D03*
X-790032Y-556424D02*
D03*
X-783174Y-541946D02*
D03*
X-776316Y-521118D02*
D03*
X-753500Y-808436D02*
D03*
X-751224Y-500370D02*
D03*
X-775386Y-311054D02*
D03*
X-701386Y-354054D02*
D03*
Y-444054D02*
D03*
X-775386D02*
D03*
Y-399054D02*
D03*
Y-355054D02*
D03*
X-701386Y-310054D02*
D03*
Y-399054D02*
D03*
Y-265054D02*
D03*
X-775386D02*
D03*
Y-488054D02*
D03*
X-701386D02*
D03*
X-644236Y-457105D02*
D03*
Y-278294D02*
D03*
Y-501296D02*
D03*
Y-412914D02*
D03*
Y-368935D02*
D03*
Y-324014D02*
D03*
X-636406Y-234616D02*
D03*
X-587848Y-751242D02*
D03*
X-230724Y-878496D02*
D03*
X-595722Y-762418D02*
D03*
X-647538Y-184568D02*
D03*
X-227422Y-865288D02*
D03*
X-100676Y-874940D02*
D03*
X-652872Y-618166D02*
D03*
X-669128Y-592766D02*
D03*
X-661000Y-630866D02*
D03*
X-644744Y-605466D02*
D03*
X-604104Y-158416D02*
D03*
X-612232Y-171116D02*
D03*
X-742280Y-757866D02*
D03*
X-734152Y-745166D02*
D03*
X-726024Y-732466D02*
D03*
X-522824Y-756576D02*
D03*
X-539080Y-756576D02*
D03*
X-555336Y-56816D02*
D03*
X-620360Y-183816D02*
D03*
X-628488Y-209216D02*
D03*
X-677256Y-630866D02*
D03*
X-685384Y-643566D02*
D03*
X-750408Y-783266D02*
D03*
X-693512Y-656266D02*
D03*
X-559908Y44784D02*
D03*
X-514696Y-31416D02*
D03*
X-571592Y-82216D02*
D03*
X-579720Y-107616D02*
D03*
X-587848Y-120316D02*
D03*
X-595976Y-133016D02*
D03*
X-563464Y-69516D02*
D03*
X-539080Y-6016D02*
D03*
X-530952Y6684D02*
D03*
X-522824Y19384D02*
D03*
M02*
