G04*
G04 #@! TF.GenerationSoftware,Altium Limited,Altium Designer,21.0.9 (235)*
G04*
G04 Layer_Color=32896*
%FSLAX44Y44*%
%MOMM*%
G71*
G04*
G04 #@! TF.SameCoordinates,B04B5628-BEB7-489B-AFC1-9DCA5A1A145D*
G04*
G04*
G04 #@! TF.FilePolarity,Positive*
G04*
G01*
G75*
%ADD12C,0.2000*%
G36*
X-696527Y-504158D02*
X-696523Y-504154D01*
X-696514Y-504144D01*
X-696500Y-504130D01*
X-696477Y-504112D01*
X-696449Y-504089D01*
X-696412Y-504057D01*
X-696370Y-504024D01*
X-696329Y-503987D01*
X-696273Y-503950D01*
X-696218Y-503904D01*
X-696158Y-503862D01*
X-696093Y-503811D01*
X-696019Y-503765D01*
X-695945Y-503714D01*
X-695779Y-503613D01*
X-695774Y-503608D01*
X-695760Y-503599D01*
X-695732Y-503585D01*
X-695700Y-503571D01*
X-695663Y-503548D01*
X-695617Y-503520D01*
X-695561Y-503493D01*
X-695506Y-503460D01*
X-695377Y-503395D01*
X-695238Y-503331D01*
X-695095Y-503266D01*
X-694956Y-503210D01*
Y-503969D01*
X-694965Y-503973D01*
X-694984Y-503983D01*
X-695021Y-504001D01*
X-695067Y-504024D01*
X-695122Y-504052D01*
X-695191Y-504089D01*
X-695266Y-504130D01*
X-695344Y-504177D01*
X-695432Y-504232D01*
X-695524Y-504288D01*
X-695719Y-504417D01*
X-695917Y-504560D01*
X-696107Y-504717D01*
X-696112Y-504722D01*
X-696130Y-504736D01*
X-696153Y-504759D01*
X-696186Y-504791D01*
X-696227Y-504833D01*
X-696273Y-504879D01*
X-696324Y-504935D01*
X-696380Y-504990D01*
X-696435Y-505055D01*
X-696495Y-505124D01*
X-696611Y-505268D01*
X-696717Y-505420D01*
X-696763Y-505499D01*
X-696805Y-505577D01*
X-697313D01*
Y-499156D01*
X-696527D01*
Y-504158D01*
D02*
G37*
G36*
X-699227Y-499161D02*
Y-499170D01*
Y-499184D01*
Y-499202D01*
Y-499230D01*
X-699232Y-499258D01*
X-699237Y-499332D01*
X-699246Y-499411D01*
X-699260Y-499503D01*
X-699283Y-499600D01*
X-699315Y-499697D01*
Y-499702D01*
X-699324Y-499716D01*
X-699334Y-499739D01*
X-699347Y-499771D01*
X-699361Y-499813D01*
X-699384Y-499859D01*
X-699412Y-499910D01*
X-699440Y-499965D01*
X-699472Y-500030D01*
X-699514Y-500095D01*
X-699602Y-500238D01*
X-699708Y-500391D01*
X-699833Y-500548D01*
X-699837Y-500552D01*
X-699851Y-500566D01*
X-699870Y-500589D01*
X-699898Y-500622D01*
X-699934Y-500663D01*
X-699981Y-500710D01*
X-700032Y-500765D01*
X-700096Y-500825D01*
X-700166Y-500895D01*
X-700240Y-500968D01*
X-700323Y-501047D01*
X-700415Y-501135D01*
X-700517Y-501223D01*
X-700623Y-501315D01*
X-700739Y-501412D01*
X-700859Y-501514D01*
X-700864Y-501519D01*
X-700873Y-501523D01*
X-700887Y-501537D01*
X-700905Y-501551D01*
X-700928Y-501574D01*
X-700956Y-501597D01*
X-701025Y-501657D01*
X-701113Y-501727D01*
X-701206Y-501814D01*
X-701312Y-501907D01*
X-701423Y-502009D01*
X-701543Y-502115D01*
X-701659Y-502226D01*
X-701779Y-502337D01*
X-701890Y-502452D01*
X-702001Y-502563D01*
X-702098Y-502670D01*
X-702190Y-502776D01*
X-702264Y-502873D01*
X-702269Y-502878D01*
X-702278Y-502896D01*
X-702297Y-502924D01*
X-702325Y-502956D01*
X-702352Y-503003D01*
X-702380Y-503053D01*
X-702417Y-503113D01*
X-702449Y-503178D01*
X-702482Y-503247D01*
X-702519Y-503321D01*
X-702579Y-503483D01*
X-702602Y-503567D01*
X-702620Y-503650D01*
X-702630Y-503733D01*
X-702634Y-503816D01*
Y-503821D01*
Y-503839D01*
Y-503862D01*
X-702630Y-503895D01*
X-702625Y-503936D01*
X-702616Y-503983D01*
X-702607Y-504033D01*
X-702593Y-504089D01*
X-702574Y-504149D01*
X-702551Y-504214D01*
X-702523Y-504278D01*
X-702491Y-504343D01*
X-702454Y-504412D01*
X-702408Y-504477D01*
X-702357Y-504542D01*
X-702297Y-504602D01*
X-702292Y-504607D01*
X-702283Y-504616D01*
X-702264Y-504630D01*
X-702237Y-504653D01*
X-702204Y-504676D01*
X-702163Y-504704D01*
X-702116Y-504736D01*
X-702066Y-504764D01*
X-702006Y-504796D01*
X-701941Y-504824D01*
X-701867Y-504852D01*
X-701793Y-504875D01*
X-701710Y-504898D01*
X-701622Y-504912D01*
X-701529Y-504921D01*
X-701432Y-504926D01*
X-701377D01*
X-701340Y-504921D01*
X-701289Y-504916D01*
X-701234Y-504907D01*
X-701173Y-504898D01*
X-701104Y-504884D01*
X-701035Y-504865D01*
X-700961Y-504842D01*
X-700887Y-504815D01*
X-700808Y-504782D01*
X-700734Y-504741D01*
X-700660Y-504694D01*
X-700586Y-504644D01*
X-700522Y-504584D01*
X-700517Y-504579D01*
X-700508Y-504570D01*
X-700489Y-504547D01*
X-700471Y-504523D01*
X-700443Y-504486D01*
X-700415Y-504445D01*
X-700383Y-504394D01*
X-700355Y-504338D01*
X-700323Y-504278D01*
X-700291Y-504204D01*
X-700263Y-504130D01*
X-700235Y-504047D01*
X-700217Y-503955D01*
X-700198Y-503858D01*
X-700189Y-503756D01*
X-700184Y-503645D01*
X-699375Y-503728D01*
Y-503733D01*
Y-503737D01*
X-699380Y-503751D01*
Y-503770D01*
X-699384Y-503816D01*
X-699398Y-503876D01*
X-699412Y-503950D01*
X-699431Y-504038D01*
X-699454Y-504135D01*
X-699482Y-504237D01*
X-699519Y-504348D01*
X-699560Y-504459D01*
X-699611Y-504574D01*
X-699671Y-504690D01*
X-699736Y-504801D01*
X-699814Y-504907D01*
X-699898Y-505009D01*
X-699995Y-505101D01*
X-699999Y-505106D01*
X-700018Y-505120D01*
X-700050Y-505148D01*
X-700092Y-505175D01*
X-700147Y-505212D01*
X-700212Y-505254D01*
X-700291Y-505295D01*
X-700378Y-505342D01*
X-700480Y-505383D01*
X-700586Y-505425D01*
X-700706Y-505466D01*
X-700836Y-505503D01*
X-700975Y-505536D01*
X-701123Y-505559D01*
X-701280Y-505573D01*
X-701446Y-505577D01*
X-701488D01*
X-701534Y-505573D01*
X-701599Y-505568D01*
X-701677Y-505564D01*
X-701765Y-505550D01*
X-701867Y-505536D01*
X-701973Y-505513D01*
X-702089Y-505485D01*
X-702204Y-505453D01*
X-702329Y-505411D01*
X-702449Y-505360D01*
X-702570Y-505300D01*
X-702685Y-505235D01*
X-702796Y-505157D01*
X-702902Y-505064D01*
X-702907Y-505060D01*
X-702925Y-505041D01*
X-702953Y-505013D01*
X-702986Y-504972D01*
X-703027Y-504926D01*
X-703073Y-504865D01*
X-703124Y-504796D01*
X-703175Y-504717D01*
X-703221Y-504630D01*
X-703272Y-504533D01*
X-703318Y-504426D01*
X-703360Y-504315D01*
X-703392Y-504195D01*
X-703420Y-504070D01*
X-703439Y-503936D01*
X-703443Y-503798D01*
Y-503793D01*
Y-503779D01*
Y-503761D01*
Y-503733D01*
X-703439Y-503696D01*
X-703434Y-503659D01*
X-703429Y-503613D01*
X-703425Y-503562D01*
X-703406Y-503446D01*
X-703379Y-503317D01*
X-703337Y-503183D01*
X-703286Y-503044D01*
Y-503040D01*
X-703277Y-503026D01*
X-703268Y-503007D01*
X-703254Y-502979D01*
X-703240Y-502947D01*
X-703217Y-502905D01*
X-703194Y-502859D01*
X-703161Y-502808D01*
X-703129Y-502753D01*
X-703092Y-502693D01*
X-702999Y-502559D01*
X-702949Y-502489D01*
X-702893Y-502415D01*
X-702828Y-502341D01*
X-702764Y-502263D01*
X-702759Y-502258D01*
X-702745Y-502244D01*
X-702727Y-502221D01*
X-702694Y-502189D01*
X-702653Y-502147D01*
X-702602Y-502096D01*
X-702546Y-502036D01*
X-702477Y-501967D01*
X-702399Y-501893D01*
X-702306Y-501810D01*
X-702209Y-501717D01*
X-702098Y-501616D01*
X-701978Y-501509D01*
X-701848Y-501394D01*
X-701705Y-501269D01*
X-701553Y-501139D01*
X-701543Y-501135D01*
X-701520Y-501112D01*
X-701488Y-501084D01*
X-701442Y-501042D01*
X-701382Y-500996D01*
X-701321Y-500941D01*
X-701252Y-500881D01*
X-701178Y-500816D01*
X-701021Y-500682D01*
X-700947Y-500612D01*
X-700873Y-500548D01*
X-700804Y-500483D01*
X-700743Y-500428D01*
X-700688Y-500377D01*
X-700647Y-500331D01*
X-700637Y-500321D01*
X-700614Y-500294D01*
X-700577Y-500252D01*
X-700531Y-500201D01*
X-700480Y-500136D01*
X-700425Y-500067D01*
X-700369Y-499988D01*
X-700318Y-499910D01*
X-703453D01*
Y-499156D01*
X-699227D01*
Y-499161D01*
D02*
G37*
G36*
X-693398Y-498666D02*
X-693375Y-498675D01*
X-693338Y-498689D01*
X-693287Y-498708D01*
X-693227Y-498736D01*
X-693153Y-498768D01*
X-693070Y-498810D01*
X-692977Y-498851D01*
X-692876Y-498907D01*
X-692769Y-498962D01*
X-692654Y-499027D01*
X-692538Y-499096D01*
X-692413Y-499175D01*
X-692288Y-499258D01*
X-692164Y-499346D01*
X-692034Y-499443D01*
X-692025Y-499438D01*
X-692002Y-499424D01*
X-691965Y-499406D01*
X-691909Y-499383D01*
X-691845Y-499351D01*
X-691761Y-499318D01*
X-691674Y-499281D01*
X-691572Y-499249D01*
X-691461Y-499212D01*
X-691336Y-499175D01*
X-691207Y-499142D01*
X-691073Y-499110D01*
X-690925Y-499087D01*
X-690777Y-499068D01*
X-690624Y-499055D01*
X-690462Y-499050D01*
X-690425D01*
X-690379Y-499055D01*
X-690314D01*
X-690240Y-499064D01*
X-690148Y-499073D01*
X-690051Y-499087D01*
X-689940Y-499101D01*
X-689820Y-499124D01*
X-689695Y-499152D01*
X-689566Y-499184D01*
X-689432Y-499226D01*
X-689293Y-499272D01*
X-689159Y-499327D01*
X-689020Y-499392D01*
X-688886Y-499466D01*
X-688877Y-499471D01*
X-688854Y-499484D01*
X-688817Y-499512D01*
X-688771Y-499545D01*
X-688710Y-499586D01*
X-688641Y-499637D01*
X-688567Y-499702D01*
X-688484Y-499771D01*
X-688396Y-499850D01*
X-688308Y-499938D01*
X-688220Y-500035D01*
X-688128Y-500141D01*
X-688040Y-500257D01*
X-687952Y-500377D01*
X-687869Y-500506D01*
X-687795Y-500645D01*
X-687790Y-500654D01*
X-687781Y-500677D01*
X-687758Y-500723D01*
X-687735Y-500779D01*
X-687707Y-500848D01*
X-687675Y-500936D01*
X-687643Y-501033D01*
X-687606Y-501144D01*
X-687569Y-501264D01*
X-687536Y-501394D01*
X-687504Y-501537D01*
X-687476Y-501685D01*
X-687453Y-501842D01*
X-687434Y-502009D01*
X-687421Y-502180D01*
X-687416Y-502355D01*
Y-502360D01*
Y-502365D01*
Y-502378D01*
Y-502397D01*
Y-502420D01*
X-687421Y-502448D01*
Y-502517D01*
X-687430Y-502596D01*
X-687434Y-502693D01*
X-687448Y-502804D01*
X-687462Y-502924D01*
X-687485Y-503053D01*
X-687508Y-503192D01*
X-687541Y-503331D01*
X-687578Y-503479D01*
X-687624Y-503627D01*
X-687675Y-503779D01*
X-687730Y-503927D01*
X-687800Y-504075D01*
X-687804Y-504084D01*
X-687818Y-504107D01*
X-687841Y-504149D01*
X-687869Y-504204D01*
X-687911Y-504269D01*
X-687957Y-504343D01*
X-688017Y-504426D01*
X-688082Y-504514D01*
X-688156Y-504607D01*
X-688234Y-504704D01*
X-688322Y-504805D01*
X-688424Y-504902D01*
X-688525Y-505000D01*
X-688641Y-505092D01*
X-688761Y-505180D01*
X-688891Y-505258D01*
X-688900Y-505263D01*
X-688923Y-505277D01*
X-688960Y-505295D01*
X-689016Y-505323D01*
X-689085Y-505351D01*
X-689163Y-505388D01*
X-689251Y-505425D01*
X-689358Y-505462D01*
X-689469Y-505499D01*
X-689589Y-505536D01*
X-689723Y-505573D01*
X-689862Y-505601D01*
X-690005Y-505628D01*
X-690157Y-505647D01*
X-690314Y-505661D01*
X-690476Y-505665D01*
X-690518D01*
X-690564Y-505661D01*
X-690624D01*
X-690703Y-505651D01*
X-690795Y-505642D01*
X-690897Y-505628D01*
X-691008Y-505614D01*
X-691128Y-505591D01*
X-691257Y-505564D01*
X-691392Y-505527D01*
X-691526Y-505490D01*
X-691664Y-505439D01*
X-691803Y-505383D01*
X-691942Y-505318D01*
X-692076Y-505244D01*
X-692085Y-505240D01*
X-692108Y-505226D01*
X-692145Y-505203D01*
X-692191Y-505166D01*
X-692251Y-505124D01*
X-692321Y-505074D01*
X-692395Y-505009D01*
X-692478Y-504939D01*
X-692566Y-504861D01*
X-692654Y-504773D01*
X-692746Y-504676D01*
X-692834Y-504570D01*
X-692922Y-504454D01*
X-693010Y-504334D01*
X-693088Y-504204D01*
X-693162Y-504066D01*
X-693167Y-504057D01*
X-693181Y-504033D01*
X-693199Y-503992D01*
X-693222Y-503932D01*
X-693250Y-503862D01*
X-693282Y-503774D01*
X-693315Y-503677D01*
X-693352Y-503567D01*
X-693384Y-503446D01*
X-693416Y-503317D01*
X-693449Y-503173D01*
X-693476Y-503026D01*
X-693504Y-502868D01*
X-693523Y-502707D01*
X-693532Y-502536D01*
X-693537Y-502360D01*
Y-502351D01*
Y-502323D01*
Y-502281D01*
X-693532Y-502226D01*
X-693527Y-502156D01*
X-693523Y-502078D01*
X-693518Y-501986D01*
X-693509Y-501884D01*
X-693495Y-501777D01*
X-693476Y-501666D01*
X-693458Y-501546D01*
X-693435Y-501426D01*
X-693407Y-501301D01*
X-693375Y-501181D01*
X-693338Y-501056D01*
X-693296Y-500936D01*
X-693292Y-500927D01*
X-693287Y-500908D01*
X-693273Y-500876D01*
X-693250Y-500830D01*
X-693227Y-500774D01*
X-693195Y-500714D01*
X-693158Y-500640D01*
X-693116Y-500566D01*
X-693065Y-500483D01*
X-693014Y-500395D01*
X-692954Y-500303D01*
X-692889Y-500210D01*
X-692820Y-500118D01*
X-692741Y-500025D01*
X-692658Y-499933D01*
X-692570Y-499845D01*
X-692575Y-499841D01*
X-692598Y-499827D01*
X-692626Y-499808D01*
X-692672Y-499780D01*
X-692723Y-499743D01*
X-692783Y-499706D01*
X-692852Y-499665D01*
X-692926Y-499619D01*
X-693010Y-499572D01*
X-693093Y-499521D01*
X-693278Y-499420D01*
X-693467Y-499327D01*
X-693564Y-499286D01*
X-693657Y-499249D01*
X-693407Y-498662D01*
X-693398Y-498666D01*
D02*
G37*
G36*
X-696527Y-459708D02*
X-696523Y-459704D01*
X-696514Y-459694D01*
X-696500Y-459680D01*
X-696477Y-459662D01*
X-696449Y-459639D01*
X-696412Y-459607D01*
X-696370Y-459574D01*
X-696329Y-459537D01*
X-696273Y-459500D01*
X-696218Y-459454D01*
X-696158Y-459412D01*
X-696093Y-459361D01*
X-696019Y-459315D01*
X-695945Y-459264D01*
X-695779Y-459163D01*
X-695774Y-459158D01*
X-695760Y-459149D01*
X-695732Y-459135D01*
X-695700Y-459121D01*
X-695663Y-459098D01*
X-695617Y-459070D01*
X-695561Y-459043D01*
X-695506Y-459010D01*
X-695377Y-458945D01*
X-695238Y-458881D01*
X-695095Y-458816D01*
X-694956Y-458760D01*
Y-459519D01*
X-694965Y-459523D01*
X-694984Y-459533D01*
X-695021Y-459551D01*
X-695067Y-459574D01*
X-695122Y-459602D01*
X-695191Y-459639D01*
X-695266Y-459680D01*
X-695344Y-459727D01*
X-695432Y-459782D01*
X-695524Y-459838D01*
X-695719Y-459967D01*
X-695917Y-460110D01*
X-696107Y-460267D01*
X-696112Y-460272D01*
X-696130Y-460286D01*
X-696153Y-460309D01*
X-696186Y-460341D01*
X-696227Y-460383D01*
X-696273Y-460429D01*
X-696324Y-460485D01*
X-696380Y-460540D01*
X-696435Y-460605D01*
X-696495Y-460674D01*
X-696611Y-460818D01*
X-696717Y-460970D01*
X-696763Y-461049D01*
X-696805Y-461127D01*
X-697313D01*
Y-454706D01*
X-696527D01*
Y-459708D01*
D02*
G37*
G36*
X-701321Y-454605D02*
X-701257Y-454609D01*
X-701178Y-454618D01*
X-701086Y-454637D01*
X-700988Y-454655D01*
X-700878Y-454683D01*
X-700762Y-454715D01*
X-700647Y-454762D01*
X-700526Y-454813D01*
X-700401Y-454877D01*
X-700281Y-454951D01*
X-700166Y-455039D01*
X-700055Y-455141D01*
X-699953Y-455256D01*
Y-455261D01*
X-699948Y-455266D01*
X-699939Y-455280D01*
X-699925Y-455293D01*
X-699911Y-455317D01*
X-699893Y-455344D01*
X-699874Y-455372D01*
X-699856Y-455409D01*
X-699833Y-455451D01*
X-699805Y-455497D01*
X-699782Y-455548D01*
X-699754Y-455603D01*
X-699726Y-455668D01*
X-699699Y-455733D01*
X-699666Y-455807D01*
X-699639Y-455881D01*
X-699611Y-455964D01*
X-699579Y-456051D01*
X-699551Y-456144D01*
X-699523Y-456246D01*
X-699495Y-456347D01*
X-699472Y-456458D01*
X-699445Y-456569D01*
X-699421Y-456694D01*
X-699403Y-456819D01*
X-699384Y-456948D01*
X-699366Y-457087D01*
X-699352Y-457230D01*
X-699338Y-457378D01*
X-699334Y-457531D01*
X-699324Y-457693D01*
Y-457859D01*
Y-457864D01*
Y-457873D01*
Y-457887D01*
Y-457910D01*
Y-457938D01*
Y-457970D01*
X-699329Y-458007D01*
Y-458049D01*
X-699334Y-458141D01*
X-699338Y-458252D01*
X-699343Y-458377D01*
X-699352Y-458511D01*
X-699366Y-458654D01*
X-699380Y-458802D01*
X-699421Y-459107D01*
X-699449Y-459260D01*
X-699482Y-459408D01*
X-699514Y-459551D01*
X-699556Y-459685D01*
X-699560Y-459694D01*
X-699565Y-459717D01*
X-699579Y-459750D01*
X-699597Y-459801D01*
X-699625Y-459856D01*
X-699653Y-459925D01*
X-699689Y-459999D01*
X-699731Y-460078D01*
X-699773Y-460161D01*
X-699828Y-460249D01*
X-699884Y-460341D01*
X-699944Y-460429D01*
X-700013Y-460517D01*
X-700087Y-460600D01*
X-700166Y-460679D01*
X-700249Y-460753D01*
X-700254Y-460757D01*
X-700272Y-460771D01*
X-700295Y-460790D01*
X-700332Y-460813D01*
X-700378Y-460841D01*
X-700434Y-460873D01*
X-700494Y-460905D01*
X-700568Y-460942D01*
X-700647Y-460975D01*
X-700734Y-461007D01*
X-700831Y-461040D01*
X-700933Y-461067D01*
X-701044Y-461095D01*
X-701160Y-461114D01*
X-701280Y-461123D01*
X-701409Y-461127D01*
X-701460D01*
X-701497Y-461123D01*
X-701539D01*
X-701594Y-461118D01*
X-701650Y-461109D01*
X-701714Y-461100D01*
X-701853Y-461077D01*
X-702006Y-461040D01*
X-702163Y-460989D01*
X-702237Y-460956D01*
X-702311Y-460919D01*
X-702315D01*
X-702329Y-460910D01*
X-702348Y-460896D01*
X-702375Y-460882D01*
X-702408Y-460859D01*
X-702445Y-460831D01*
X-702491Y-460804D01*
X-702537Y-460767D01*
X-702639Y-460684D01*
X-702745Y-460577D01*
X-702851Y-460457D01*
X-702949Y-460318D01*
X-702953Y-460314D01*
X-702958Y-460300D01*
X-702972Y-460277D01*
X-702990Y-460249D01*
X-703013Y-460212D01*
X-703036Y-460166D01*
X-703064Y-460115D01*
X-703092Y-460055D01*
X-703124Y-459990D01*
X-703157Y-459916D01*
X-703189Y-459838D01*
X-703226Y-459754D01*
X-703258Y-459667D01*
X-703286Y-459574D01*
X-703318Y-459472D01*
X-703346Y-459371D01*
Y-459366D01*
X-703351Y-459343D01*
X-703360Y-459315D01*
X-703369Y-459269D01*
X-703379Y-459213D01*
X-703392Y-459144D01*
X-703406Y-459066D01*
X-703420Y-458973D01*
X-703434Y-458871D01*
X-703448Y-458756D01*
X-703462Y-458631D01*
X-703471Y-458497D01*
X-703480Y-458354D01*
X-703490Y-458196D01*
X-703494Y-458035D01*
Y-457859D01*
Y-457854D01*
Y-457845D01*
Y-457831D01*
Y-457808D01*
Y-457785D01*
Y-457753D01*
X-703490Y-457716D01*
Y-457674D01*
X-703485Y-457577D01*
X-703480Y-457466D01*
X-703476Y-457346D01*
X-703466Y-457212D01*
X-703453Y-457069D01*
X-703439Y-456921D01*
X-703397Y-456620D01*
X-703369Y-456468D01*
X-703337Y-456320D01*
X-703300Y-456176D01*
X-703258Y-456042D01*
X-703254Y-456033D01*
X-703249Y-456010D01*
X-703235Y-455978D01*
X-703217Y-455927D01*
X-703189Y-455871D01*
X-703161Y-455802D01*
X-703124Y-455728D01*
X-703087Y-455649D01*
X-703041Y-455566D01*
X-702986Y-455478D01*
X-702930Y-455391D01*
X-702870Y-455298D01*
X-702801Y-455210D01*
X-702727Y-455127D01*
X-702648Y-455048D01*
X-702565Y-454974D01*
X-702560Y-454970D01*
X-702542Y-454961D01*
X-702519Y-454942D01*
X-702482Y-454914D01*
X-702436Y-454887D01*
X-702385Y-454854D01*
X-702320Y-454822D01*
X-702251Y-454790D01*
X-702167Y-454753D01*
X-702079Y-454720D01*
X-701987Y-454688D01*
X-701885Y-454660D01*
X-701774Y-454637D01*
X-701659Y-454618D01*
X-701539Y-454605D01*
X-701409Y-454600D01*
X-701368D01*
X-701321Y-454605D01*
D02*
G37*
G36*
X-693398Y-454216D02*
X-693375Y-454226D01*
X-693338Y-454239D01*
X-693287Y-454258D01*
X-693227Y-454286D01*
X-693153Y-454318D01*
X-693070Y-454360D01*
X-692977Y-454401D01*
X-692876Y-454457D01*
X-692769Y-454512D01*
X-692654Y-454577D01*
X-692538Y-454646D01*
X-692413Y-454725D01*
X-692288Y-454808D01*
X-692164Y-454896D01*
X-692034Y-454993D01*
X-692025Y-454988D01*
X-692002Y-454974D01*
X-691965Y-454956D01*
X-691909Y-454933D01*
X-691845Y-454901D01*
X-691761Y-454868D01*
X-691674Y-454831D01*
X-691572Y-454799D01*
X-691461Y-454762D01*
X-691336Y-454725D01*
X-691207Y-454692D01*
X-691073Y-454660D01*
X-690925Y-454637D01*
X-690777Y-454618D01*
X-690624Y-454605D01*
X-690462Y-454600D01*
X-690425D01*
X-690379Y-454605D01*
X-690314D01*
X-690240Y-454614D01*
X-690148Y-454623D01*
X-690051Y-454637D01*
X-689940Y-454651D01*
X-689820Y-454674D01*
X-689695Y-454702D01*
X-689566Y-454734D01*
X-689432Y-454776D01*
X-689293Y-454822D01*
X-689159Y-454877D01*
X-689020Y-454942D01*
X-688886Y-455016D01*
X-688877Y-455021D01*
X-688854Y-455034D01*
X-688817Y-455062D01*
X-688771Y-455095D01*
X-688710Y-455136D01*
X-688641Y-455187D01*
X-688567Y-455252D01*
X-688484Y-455321D01*
X-688396Y-455400D01*
X-688308Y-455488D01*
X-688220Y-455585D01*
X-688128Y-455691D01*
X-688040Y-455807D01*
X-687952Y-455927D01*
X-687869Y-456056D01*
X-687795Y-456195D01*
X-687790Y-456204D01*
X-687781Y-456227D01*
X-687758Y-456273D01*
X-687735Y-456329D01*
X-687707Y-456398D01*
X-687675Y-456486D01*
X-687643Y-456583D01*
X-687606Y-456694D01*
X-687569Y-456814D01*
X-687536Y-456944D01*
X-687504Y-457087D01*
X-687476Y-457235D01*
X-687453Y-457392D01*
X-687434Y-457559D01*
X-687421Y-457730D01*
X-687416Y-457905D01*
Y-457910D01*
Y-457915D01*
Y-457928D01*
Y-457947D01*
Y-457970D01*
X-687421Y-457998D01*
Y-458067D01*
X-687430Y-458146D01*
X-687434Y-458243D01*
X-687448Y-458354D01*
X-687462Y-458474D01*
X-687485Y-458603D01*
X-687508Y-458742D01*
X-687541Y-458881D01*
X-687578Y-459029D01*
X-687624Y-459177D01*
X-687675Y-459329D01*
X-687730Y-459477D01*
X-687800Y-459625D01*
X-687804Y-459634D01*
X-687818Y-459657D01*
X-687841Y-459699D01*
X-687869Y-459754D01*
X-687911Y-459819D01*
X-687957Y-459893D01*
X-688017Y-459976D01*
X-688082Y-460064D01*
X-688156Y-460157D01*
X-688234Y-460254D01*
X-688322Y-460355D01*
X-688424Y-460452D01*
X-688525Y-460550D01*
X-688641Y-460642D01*
X-688761Y-460730D01*
X-688891Y-460808D01*
X-688900Y-460813D01*
X-688923Y-460827D01*
X-688960Y-460845D01*
X-689016Y-460873D01*
X-689085Y-460901D01*
X-689163Y-460938D01*
X-689251Y-460975D01*
X-689358Y-461012D01*
X-689469Y-461049D01*
X-689589Y-461086D01*
X-689723Y-461123D01*
X-689862Y-461151D01*
X-690005Y-461178D01*
X-690157Y-461197D01*
X-690314Y-461211D01*
X-690476Y-461215D01*
X-690518D01*
X-690564Y-461211D01*
X-690624D01*
X-690703Y-461201D01*
X-690795Y-461192D01*
X-690897Y-461178D01*
X-691008Y-461164D01*
X-691128Y-461141D01*
X-691257Y-461114D01*
X-691392Y-461077D01*
X-691526Y-461040D01*
X-691664Y-460989D01*
X-691803Y-460933D01*
X-691942Y-460868D01*
X-692076Y-460794D01*
X-692085Y-460790D01*
X-692108Y-460776D01*
X-692145Y-460753D01*
X-692191Y-460716D01*
X-692251Y-460674D01*
X-692321Y-460624D01*
X-692395Y-460559D01*
X-692478Y-460489D01*
X-692566Y-460411D01*
X-692654Y-460323D01*
X-692746Y-460226D01*
X-692834Y-460120D01*
X-692922Y-460004D01*
X-693010Y-459884D01*
X-693088Y-459754D01*
X-693162Y-459616D01*
X-693167Y-459607D01*
X-693181Y-459583D01*
X-693199Y-459542D01*
X-693222Y-459482D01*
X-693250Y-459412D01*
X-693282Y-459324D01*
X-693315Y-459227D01*
X-693352Y-459117D01*
X-693384Y-458996D01*
X-693416Y-458867D01*
X-693449Y-458723D01*
X-693476Y-458576D01*
X-693504Y-458418D01*
X-693523Y-458257D01*
X-693532Y-458086D01*
X-693537Y-457910D01*
Y-457901D01*
Y-457873D01*
Y-457831D01*
X-693532Y-457776D01*
X-693527Y-457706D01*
X-693523Y-457628D01*
X-693518Y-457536D01*
X-693509Y-457434D01*
X-693495Y-457327D01*
X-693476Y-457216D01*
X-693458Y-457096D01*
X-693435Y-456976D01*
X-693407Y-456851D01*
X-693375Y-456731D01*
X-693338Y-456606D01*
X-693296Y-456486D01*
X-693292Y-456477D01*
X-693287Y-456458D01*
X-693273Y-456426D01*
X-693250Y-456380D01*
X-693227Y-456324D01*
X-693195Y-456264D01*
X-693158Y-456190D01*
X-693116Y-456116D01*
X-693065Y-456033D01*
X-693014Y-455945D01*
X-692954Y-455853D01*
X-692889Y-455760D01*
X-692820Y-455668D01*
X-692741Y-455575D01*
X-692658Y-455483D01*
X-692570Y-455395D01*
X-692575Y-455391D01*
X-692598Y-455377D01*
X-692626Y-455358D01*
X-692672Y-455330D01*
X-692723Y-455293D01*
X-692783Y-455256D01*
X-692852Y-455215D01*
X-692926Y-455169D01*
X-693010Y-455122D01*
X-693093Y-455071D01*
X-693278Y-454970D01*
X-693467Y-454877D01*
X-693564Y-454836D01*
X-693657Y-454799D01*
X-693407Y-454212D01*
X-693398Y-454216D01*
D02*
G37*
G36*
X-769855Y-454605D02*
X-769804D01*
X-769739Y-454614D01*
X-769665Y-454623D01*
X-769582Y-454637D01*
X-769494Y-454651D01*
X-769397Y-454674D01*
X-769295Y-454702D01*
X-769194Y-454734D01*
X-769092Y-454776D01*
X-768990Y-454822D01*
X-768888Y-454877D01*
X-768792Y-454942D01*
X-768699Y-455016D01*
X-768694Y-455021D01*
X-768680Y-455034D01*
X-768653Y-455058D01*
X-768625Y-455095D01*
X-768588Y-455136D01*
X-768542Y-455187D01*
X-768496Y-455247D01*
X-768449Y-455321D01*
X-768399Y-455400D01*
X-768352Y-455488D01*
X-768301Y-455580D01*
X-768260Y-455686D01*
X-768218Y-455802D01*
X-768181Y-455922D01*
X-768154Y-456051D01*
X-768130Y-456190D01*
X-768884Y-456260D01*
Y-456255D01*
X-768888Y-456236D01*
X-768893Y-456209D01*
X-768902Y-456172D01*
X-768912Y-456130D01*
X-768925Y-456079D01*
X-768944Y-456019D01*
X-768962Y-455964D01*
X-769013Y-455834D01*
X-769078Y-455705D01*
X-769157Y-455585D01*
X-769198Y-455529D01*
X-769249Y-455483D01*
X-769254Y-455478D01*
X-769263Y-455474D01*
X-769277Y-455460D01*
X-769300Y-455446D01*
X-769323Y-455428D01*
X-769355Y-455409D01*
X-769397Y-455386D01*
X-769439Y-455367D01*
X-769485Y-455344D01*
X-769540Y-455321D01*
X-769656Y-455284D01*
X-769790Y-455256D01*
X-769864Y-455252D01*
X-769942Y-455247D01*
X-769979D01*
X-770003Y-455252D01*
X-770035D01*
X-770072Y-455256D01*
X-770160Y-455266D01*
X-770257Y-455289D01*
X-770368Y-455317D01*
X-770474Y-455354D01*
X-770581Y-455409D01*
X-770585D01*
X-770594Y-455418D01*
X-770608Y-455428D01*
X-770627Y-455441D01*
X-770678Y-455478D01*
X-770738Y-455529D01*
X-770807Y-455589D01*
X-770881Y-455668D01*
X-770955Y-455756D01*
X-771024Y-455853D01*
Y-455857D01*
X-771033Y-455867D01*
X-771043Y-455881D01*
X-771052Y-455904D01*
X-771070Y-455931D01*
X-771084Y-455964D01*
X-771107Y-456005D01*
X-771126Y-456051D01*
X-771149Y-456102D01*
X-771172Y-456158D01*
X-771195Y-456218D01*
X-771223Y-456283D01*
X-771246Y-456357D01*
X-771269Y-456431D01*
X-771292Y-456514D01*
X-771316Y-456597D01*
Y-456602D01*
X-771320Y-456620D01*
X-771325Y-456643D01*
X-771334Y-456680D01*
X-771343Y-456722D01*
X-771352Y-456773D01*
X-771366Y-456828D01*
X-771376Y-456893D01*
X-771385Y-456962D01*
X-771399Y-457041D01*
X-771417Y-457203D01*
X-771431Y-457378D01*
X-771436Y-457559D01*
Y-457563D01*
Y-457568D01*
Y-457582D01*
Y-457596D01*
Y-457619D01*
Y-457646D01*
Y-457679D01*
Y-457716D01*
X-771431Y-457711D01*
X-771426Y-457697D01*
X-771413Y-457679D01*
X-771394Y-457651D01*
X-771366Y-457619D01*
X-771339Y-457582D01*
X-771306Y-457540D01*
X-771265Y-457499D01*
X-771223Y-457448D01*
X-771172Y-457401D01*
X-771121Y-457351D01*
X-771061Y-457300D01*
X-770936Y-457198D01*
X-770788Y-457105D01*
X-770784Y-457101D01*
X-770770Y-457096D01*
X-770747Y-457082D01*
X-770719Y-457069D01*
X-770678Y-457050D01*
X-770636Y-457032D01*
X-770585Y-457013D01*
X-770525Y-456990D01*
X-770460Y-456967D01*
X-770396Y-456948D01*
X-770243Y-456911D01*
X-770081Y-456884D01*
X-769993Y-456879D01*
X-769905Y-456874D01*
X-769869D01*
X-769827Y-456879D01*
X-769771Y-456884D01*
X-769707Y-456893D01*
X-769624Y-456907D01*
X-769536Y-456921D01*
X-769439Y-456948D01*
X-769337Y-456976D01*
X-769226Y-457013D01*
X-769115Y-457059D01*
X-769004Y-457115D01*
X-768888Y-457184D01*
X-768778Y-457258D01*
X-768667Y-457346D01*
X-768560Y-457448D01*
X-768556Y-457452D01*
X-768537Y-457475D01*
X-768510Y-457508D01*
X-768477Y-457554D01*
X-768436Y-457609D01*
X-768389Y-457679D01*
X-768338Y-457762D01*
X-768288Y-457854D01*
X-768237Y-457956D01*
X-768186Y-458072D01*
X-768140Y-458196D01*
X-768098Y-458331D01*
X-768066Y-458474D01*
X-768038Y-458631D01*
X-768019Y-458793D01*
X-768015Y-458964D01*
Y-458969D01*
Y-458973D01*
Y-458987D01*
Y-459006D01*
X-768019Y-459029D01*
Y-459056D01*
X-768024Y-459126D01*
X-768033Y-459209D01*
X-768047Y-459306D01*
X-768061Y-459412D01*
X-768089Y-459528D01*
X-768117Y-459648D01*
X-768154Y-459777D01*
X-768200Y-459907D01*
X-768255Y-460036D01*
X-768325Y-460166D01*
X-768399Y-460295D01*
X-768486Y-460415D01*
X-768588Y-460531D01*
X-768593Y-460536D01*
X-768616Y-460559D01*
X-768648Y-460587D01*
X-768690Y-460624D01*
X-768745Y-460670D01*
X-768815Y-460721D01*
X-768893Y-460776D01*
X-768981Y-460831D01*
X-769083Y-460887D01*
X-769189Y-460938D01*
X-769309Y-460989D01*
X-769439Y-461035D01*
X-769573Y-461072D01*
X-769716Y-461100D01*
X-769869Y-461123D01*
X-770026Y-461127D01*
X-770086D01*
X-770132Y-461123D01*
X-770188Y-461118D01*
X-770252Y-461109D01*
X-770322Y-461100D01*
X-770400Y-461086D01*
X-770488Y-461067D01*
X-770576Y-461044D01*
X-770673Y-461016D01*
X-770770Y-460984D01*
X-770867Y-460947D01*
X-770969Y-460901D01*
X-771066Y-460850D01*
X-771163Y-460790D01*
X-771168Y-460785D01*
X-771186Y-460776D01*
X-771214Y-460753D01*
X-771246Y-460730D01*
X-771292Y-460693D01*
X-771343Y-460651D01*
X-771394Y-460600D01*
X-771454Y-460545D01*
X-771519Y-460480D01*
X-771584Y-460406D01*
X-771648Y-460328D01*
X-771713Y-460240D01*
X-771778Y-460147D01*
X-771838Y-460050D01*
X-771898Y-459944D01*
X-771949Y-459828D01*
X-771953Y-459819D01*
X-771963Y-459801D01*
X-771972Y-459764D01*
X-771990Y-459713D01*
X-772013Y-459648D01*
X-772037Y-459570D01*
X-772060Y-459477D01*
X-772087Y-459371D01*
X-772111Y-459250D01*
X-772134Y-459117D01*
X-772157Y-458973D01*
X-772180Y-458811D01*
X-772198Y-458636D01*
X-772208Y-458451D01*
X-772217Y-458247D01*
X-772222Y-458035D01*
Y-458030D01*
Y-458021D01*
Y-458002D01*
Y-457979D01*
Y-457952D01*
Y-457919D01*
X-772217Y-457878D01*
Y-457831D01*
Y-457780D01*
X-772212Y-457730D01*
X-772208Y-457609D01*
X-772198Y-457475D01*
X-772189Y-457332D01*
X-772175Y-457179D01*
X-772157Y-457022D01*
X-772134Y-456856D01*
X-772111Y-456694D01*
X-772078Y-456532D01*
X-772041Y-456375D01*
X-772000Y-456227D01*
X-771953Y-456084D01*
X-771949Y-456075D01*
X-771940Y-456051D01*
X-771926Y-456015D01*
X-771903Y-455964D01*
X-771875Y-455904D01*
X-771842Y-455834D01*
X-771801Y-455756D01*
X-771755Y-455672D01*
X-771699Y-455585D01*
X-771644Y-455497D01*
X-771574Y-455404D01*
X-771505Y-455312D01*
X-771426Y-455224D01*
X-771343Y-455136D01*
X-771255Y-455053D01*
X-771158Y-454979D01*
X-771154Y-454974D01*
X-771135Y-454965D01*
X-771107Y-454942D01*
X-771066Y-454919D01*
X-771015Y-454891D01*
X-770955Y-454859D01*
X-770886Y-454827D01*
X-770807Y-454790D01*
X-770724Y-454753D01*
X-770627Y-454720D01*
X-770530Y-454688D01*
X-770419Y-454660D01*
X-770303Y-454637D01*
X-770183Y-454618D01*
X-770058Y-454605D01*
X-769929Y-454600D01*
X-769896D01*
X-769855Y-454605D01*
D02*
G37*
G36*
X-767058Y-454216D02*
X-767035Y-454226D01*
X-766998Y-454239D01*
X-766947Y-454258D01*
X-766887Y-454286D01*
X-766813Y-454318D01*
X-766730Y-454360D01*
X-766637Y-454401D01*
X-766535Y-454457D01*
X-766429Y-454512D01*
X-766314Y-454577D01*
X-766198Y-454646D01*
X-766073Y-454725D01*
X-765948Y-454808D01*
X-765824Y-454896D01*
X-765694Y-454993D01*
X-765685Y-454988D01*
X-765662Y-454974D01*
X-765625Y-454956D01*
X-765569Y-454933D01*
X-765505Y-454901D01*
X-765421Y-454868D01*
X-765334Y-454831D01*
X-765232Y-454799D01*
X-765121Y-454762D01*
X-764996Y-454725D01*
X-764867Y-454692D01*
X-764733Y-454660D01*
X-764585Y-454637D01*
X-764437Y-454618D01*
X-764284Y-454605D01*
X-764122Y-454600D01*
X-764085D01*
X-764039Y-454605D01*
X-763975D01*
X-763901Y-454614D01*
X-763808Y-454623D01*
X-763711Y-454637D01*
X-763600Y-454651D01*
X-763480Y-454674D01*
X-763355Y-454702D01*
X-763226Y-454734D01*
X-763092Y-454776D01*
X-762953Y-454822D01*
X-762819Y-454877D01*
X-762680Y-454942D01*
X-762546Y-455016D01*
X-762537Y-455021D01*
X-762514Y-455034D01*
X-762477Y-455062D01*
X-762430Y-455095D01*
X-762370Y-455136D01*
X-762301Y-455187D01*
X-762227Y-455252D01*
X-762144Y-455321D01*
X-762056Y-455400D01*
X-761968Y-455488D01*
X-761880Y-455585D01*
X-761788Y-455691D01*
X-761700Y-455807D01*
X-761612Y-455927D01*
X-761529Y-456056D01*
X-761455Y-456195D01*
X-761450Y-456204D01*
X-761441Y-456227D01*
X-761418Y-456273D01*
X-761395Y-456329D01*
X-761367Y-456398D01*
X-761335Y-456486D01*
X-761302Y-456583D01*
X-761265Y-456694D01*
X-761229Y-456814D01*
X-761196Y-456944D01*
X-761164Y-457087D01*
X-761136Y-457235D01*
X-761113Y-457392D01*
X-761095Y-457559D01*
X-761081Y-457730D01*
X-761076Y-457905D01*
Y-457910D01*
Y-457915D01*
Y-457928D01*
Y-457947D01*
Y-457970D01*
X-761081Y-457998D01*
Y-458067D01*
X-761090Y-458146D01*
X-761095Y-458243D01*
X-761108Y-458354D01*
X-761122Y-458474D01*
X-761145Y-458603D01*
X-761169Y-458742D01*
X-761201Y-458881D01*
X-761238Y-459029D01*
X-761284Y-459177D01*
X-761335Y-459329D01*
X-761390Y-459477D01*
X-761460Y-459625D01*
X-761464Y-459634D01*
X-761478Y-459657D01*
X-761501Y-459699D01*
X-761529Y-459754D01*
X-761571Y-459819D01*
X-761617Y-459893D01*
X-761677Y-459976D01*
X-761742Y-460064D01*
X-761816Y-460157D01*
X-761894Y-460254D01*
X-761982Y-460355D01*
X-762084Y-460452D01*
X-762186Y-460550D01*
X-762301Y-460642D01*
X-762421Y-460730D01*
X-762551Y-460808D01*
X-762560Y-460813D01*
X-762583Y-460827D01*
X-762620Y-460845D01*
X-762675Y-460873D01*
X-762745Y-460901D01*
X-762823Y-460938D01*
X-762911Y-460975D01*
X-763018Y-461012D01*
X-763129Y-461049D01*
X-763249Y-461086D01*
X-763383Y-461123D01*
X-763521Y-461151D01*
X-763665Y-461178D01*
X-763817Y-461197D01*
X-763975Y-461211D01*
X-764136Y-461215D01*
X-764178D01*
X-764224Y-461211D01*
X-764284D01*
X-764363Y-461201D01*
X-764455Y-461192D01*
X-764557Y-461178D01*
X-764668Y-461164D01*
X-764788Y-461141D01*
X-764918Y-461114D01*
X-765052Y-461077D01*
X-765186Y-461040D01*
X-765324Y-460989D01*
X-765463Y-460933D01*
X-765602Y-460868D01*
X-765736Y-460794D01*
X-765745Y-460790D01*
X-765768Y-460776D01*
X-765805Y-460753D01*
X-765851Y-460716D01*
X-765911Y-460674D01*
X-765981Y-460624D01*
X-766055Y-460559D01*
X-766138Y-460489D01*
X-766226Y-460411D01*
X-766314Y-460323D01*
X-766406Y-460226D01*
X-766494Y-460120D01*
X-766582Y-460004D01*
X-766670Y-459884D01*
X-766748Y-459754D01*
X-766822Y-459616D01*
X-766827Y-459607D01*
X-766841Y-459583D01*
X-766859Y-459542D01*
X-766882Y-459482D01*
X-766910Y-459412D01*
X-766942Y-459324D01*
X-766975Y-459227D01*
X-767012Y-459117D01*
X-767044Y-458996D01*
X-767076Y-458867D01*
X-767109Y-458723D01*
X-767137Y-458576D01*
X-767164Y-458418D01*
X-767183Y-458257D01*
X-767192Y-458086D01*
X-767197Y-457910D01*
Y-457901D01*
Y-457873D01*
Y-457831D01*
X-767192Y-457776D01*
X-767187Y-457706D01*
X-767183Y-457628D01*
X-767178Y-457536D01*
X-767169Y-457434D01*
X-767155Y-457327D01*
X-767137Y-457216D01*
X-767118Y-457096D01*
X-767095Y-456976D01*
X-767067Y-456851D01*
X-767035Y-456731D01*
X-766998Y-456606D01*
X-766956Y-456486D01*
X-766952Y-456477D01*
X-766947Y-456458D01*
X-766933Y-456426D01*
X-766910Y-456380D01*
X-766887Y-456324D01*
X-766854Y-456264D01*
X-766817Y-456190D01*
X-766776Y-456116D01*
X-766725Y-456033D01*
X-766674Y-455945D01*
X-766614Y-455853D01*
X-766549Y-455760D01*
X-766480Y-455668D01*
X-766402Y-455575D01*
X-766318Y-455483D01*
X-766230Y-455395D01*
X-766235Y-455391D01*
X-766258Y-455377D01*
X-766286Y-455358D01*
X-766332Y-455330D01*
X-766383Y-455293D01*
X-766443Y-455256D01*
X-766512Y-455215D01*
X-766586Y-455169D01*
X-766670Y-455122D01*
X-766753Y-455071D01*
X-766938Y-454970D01*
X-767127Y-454877D01*
X-767224Y-454836D01*
X-767317Y-454799D01*
X-767067Y-454212D01*
X-767058Y-454216D01*
D02*
G37*
G36*
X-694440Y-275733D02*
Y-275742D01*
Y-275756D01*
Y-275774D01*
Y-275802D01*
X-694445Y-275830D01*
X-694450Y-275904D01*
X-694459Y-275982D01*
X-694473Y-276075D01*
X-694496Y-276172D01*
X-694528Y-276269D01*
Y-276274D01*
X-694538Y-276288D01*
X-694547Y-276311D01*
X-694561Y-276343D01*
X-694575Y-276385D01*
X-694598Y-276431D01*
X-694625Y-276482D01*
X-694653Y-276537D01*
X-694685Y-276602D01*
X-694727Y-276667D01*
X-694815Y-276810D01*
X-694921Y-276963D01*
X-695046Y-277120D01*
X-695051Y-277124D01*
X-695064Y-277138D01*
X-695083Y-277161D01*
X-695111Y-277194D01*
X-695148Y-277235D01*
X-695194Y-277281D01*
X-695245Y-277337D01*
X-695310Y-277397D01*
X-695379Y-277466D01*
X-695453Y-277540D01*
X-695536Y-277619D01*
X-695629Y-277707D01*
X-695730Y-277795D01*
X-695836Y-277887D01*
X-695952Y-277984D01*
X-696072Y-278086D01*
X-696077Y-278090D01*
X-696086Y-278095D01*
X-696100Y-278109D01*
X-696118Y-278123D01*
X-696142Y-278146D01*
X-696169Y-278169D01*
X-696239Y-278229D01*
X-696327Y-278298D01*
X-696419Y-278386D01*
X-696525Y-278479D01*
X-696636Y-278580D01*
X-696756Y-278687D01*
X-696872Y-278798D01*
X-696992Y-278909D01*
X-697103Y-279024D01*
X-697214Y-279135D01*
X-697311Y-279242D01*
X-697404Y-279348D01*
X-697478Y-279445D01*
X-697482Y-279450D01*
X-697492Y-279468D01*
X-697510Y-279496D01*
X-697538Y-279528D01*
X-697565Y-279574D01*
X-697593Y-279625D01*
X-697630Y-279685D01*
X-697663Y-279750D01*
X-697695Y-279819D01*
X-697732Y-279893D01*
X-697792Y-280055D01*
X-697815Y-280138D01*
X-697834Y-280222D01*
X-697843Y-280305D01*
X-697847Y-280388D01*
Y-280393D01*
Y-280411D01*
Y-280434D01*
X-697843Y-280467D01*
X-697838Y-280508D01*
X-697829Y-280554D01*
X-697820Y-280605D01*
X-697806Y-280661D01*
X-697787Y-280721D01*
X-697764Y-280786D01*
X-697737Y-280850D01*
X-697704Y-280915D01*
X-697667Y-280984D01*
X-697621Y-281049D01*
X-697570Y-281114D01*
X-697510Y-281174D01*
X-697505Y-281178D01*
X-697496Y-281188D01*
X-697478Y-281202D01*
X-697450Y-281225D01*
X-697418Y-281248D01*
X-697376Y-281276D01*
X-697330Y-281308D01*
X-697279Y-281336D01*
X-697219Y-281368D01*
X-697154Y-281396D01*
X-697080Y-281423D01*
X-697006Y-281447D01*
X-696923Y-281470D01*
X-696835Y-281484D01*
X-696743Y-281493D01*
X-696646Y-281497D01*
X-696590D01*
X-696553Y-281493D01*
X-696502Y-281488D01*
X-696447Y-281479D01*
X-696387Y-281470D01*
X-696317Y-281456D01*
X-696248Y-281437D01*
X-696174Y-281414D01*
X-696100Y-281387D01*
X-696021Y-281354D01*
X-695947Y-281313D01*
X-695873Y-281266D01*
X-695799Y-281215D01*
X-695735Y-281155D01*
X-695730Y-281151D01*
X-695721Y-281141D01*
X-695702Y-281118D01*
X-695684Y-281095D01*
X-695656Y-281058D01*
X-695629Y-281017D01*
X-695596Y-280966D01*
X-695568Y-280910D01*
X-695536Y-280850D01*
X-695504Y-280776D01*
X-695476Y-280702D01*
X-695448Y-280619D01*
X-695430Y-280527D01*
X-695411Y-280430D01*
X-695402Y-280328D01*
X-695397Y-280217D01*
X-694588Y-280300D01*
Y-280305D01*
Y-280309D01*
X-694593Y-280323D01*
Y-280342D01*
X-694598Y-280388D01*
X-694612Y-280448D01*
X-694625Y-280522D01*
X-694644Y-280610D01*
X-694667Y-280707D01*
X-694695Y-280809D01*
X-694732Y-280920D01*
X-694773Y-281031D01*
X-694824Y-281146D01*
X-694884Y-281262D01*
X-694949Y-281373D01*
X-695027Y-281479D01*
X-695111Y-281581D01*
X-695208Y-281673D01*
X-695212Y-281678D01*
X-695231Y-281692D01*
X-695263Y-281719D01*
X-695305Y-281747D01*
X-695360Y-281784D01*
X-695425Y-281826D01*
X-695504Y-281867D01*
X-695592Y-281914D01*
X-695693Y-281955D01*
X-695799Y-281997D01*
X-695920Y-282038D01*
X-696049Y-282075D01*
X-696188Y-282108D01*
X-696336Y-282131D01*
X-696493Y-282145D01*
X-696659Y-282149D01*
X-696701D01*
X-696747Y-282145D01*
X-696812Y-282140D01*
X-696890Y-282135D01*
X-696978Y-282122D01*
X-697080Y-282108D01*
X-697186Y-282085D01*
X-697302Y-282057D01*
X-697418Y-282024D01*
X-697542Y-281983D01*
X-697663Y-281932D01*
X-697783Y-281872D01*
X-697898Y-281807D01*
X-698009Y-281729D01*
X-698115Y-281636D01*
X-698120Y-281632D01*
X-698139Y-281613D01*
X-698166Y-281585D01*
X-698199Y-281544D01*
X-698240Y-281497D01*
X-698287Y-281437D01*
X-698337Y-281368D01*
X-698388Y-281289D01*
X-698435Y-281202D01*
X-698485Y-281105D01*
X-698532Y-280998D01*
X-698573Y-280887D01*
X-698606Y-280767D01*
X-698633Y-280642D01*
X-698652Y-280508D01*
X-698656Y-280369D01*
Y-280365D01*
Y-280351D01*
Y-280333D01*
Y-280305D01*
X-698652Y-280268D01*
X-698647Y-280231D01*
X-698643Y-280185D01*
X-698638Y-280134D01*
X-698619Y-280018D01*
X-698592Y-279889D01*
X-698550Y-279755D01*
X-698499Y-279616D01*
Y-279611D01*
X-698490Y-279597D01*
X-698481Y-279579D01*
X-698467Y-279551D01*
X-698453Y-279519D01*
X-698430Y-279477D01*
X-698407Y-279431D01*
X-698374Y-279380D01*
X-698342Y-279325D01*
X-698305Y-279265D01*
X-698213Y-279131D01*
X-698162Y-279061D01*
X-698106Y-278987D01*
X-698042Y-278913D01*
X-697977Y-278835D01*
X-697972Y-278830D01*
X-697958Y-278816D01*
X-697940Y-278793D01*
X-697907Y-278761D01*
X-697866Y-278719D01*
X-697815Y-278668D01*
X-697760Y-278608D01*
X-697690Y-278539D01*
X-697612Y-278465D01*
X-697519Y-278382D01*
X-697422Y-278289D01*
X-697311Y-278188D01*
X-697191Y-278081D01*
X-697061Y-277966D01*
X-696918Y-277841D01*
X-696766Y-277711D01*
X-696756Y-277707D01*
X-696733Y-277684D01*
X-696701Y-277656D01*
X-696655Y-277614D01*
X-696595Y-277568D01*
X-696535Y-277513D01*
X-696465Y-277453D01*
X-696391Y-277388D01*
X-696234Y-277254D01*
X-696160Y-277184D01*
X-696086Y-277120D01*
X-696017Y-277055D01*
X-695957Y-276999D01*
X-695901Y-276949D01*
X-695860Y-276902D01*
X-695850Y-276893D01*
X-695827Y-276865D01*
X-695790Y-276824D01*
X-695744Y-276773D01*
X-695693Y-276708D01*
X-695638Y-276639D01*
X-695582Y-276560D01*
X-695531Y-276482D01*
X-698666D01*
Y-275728D01*
X-694440D01*
Y-275733D01*
D02*
G37*
G36*
X-693581Y-275238D02*
X-693558Y-275247D01*
X-693521Y-275261D01*
X-693470Y-275280D01*
X-693410Y-275308D01*
X-693336Y-275340D01*
X-693252Y-275382D01*
X-693160Y-275423D01*
X-693058Y-275479D01*
X-692952Y-275534D01*
X-692836Y-275599D01*
X-692721Y-275668D01*
X-692596Y-275747D01*
X-692471Y-275830D01*
X-692346Y-275918D01*
X-692217Y-276015D01*
X-692208Y-276010D01*
X-692185Y-275996D01*
X-692148Y-275978D01*
X-692092Y-275955D01*
X-692027Y-275922D01*
X-691944Y-275890D01*
X-691856Y-275853D01*
X-691755Y-275821D01*
X-691644Y-275784D01*
X-691519Y-275747D01*
X-691389Y-275714D01*
X-691255Y-275682D01*
X-691107Y-275659D01*
X-690959Y-275640D01*
X-690807Y-275627D01*
X-690645Y-275622D01*
X-690608D01*
X-690562Y-275627D01*
X-690497D01*
X-690423Y-275636D01*
X-690331Y-275645D01*
X-690234Y-275659D01*
X-690123Y-275673D01*
X-690003Y-275696D01*
X-689878Y-275724D01*
X-689748Y-275756D01*
X-689614Y-275798D01*
X-689475Y-275844D01*
X-689342Y-275899D01*
X-689203Y-275964D01*
X-689069Y-276038D01*
X-689060Y-276043D01*
X-689036Y-276056D01*
X-688999Y-276084D01*
X-688953Y-276117D01*
X-688893Y-276158D01*
X-688824Y-276209D01*
X-688750Y-276274D01*
X-688667Y-276343D01*
X-688579Y-276422D01*
X-688491Y-276509D01*
X-688403Y-276607D01*
X-688311Y-276713D01*
X-688223Y-276828D01*
X-688135Y-276949D01*
X-688052Y-277078D01*
X-687978Y-277217D01*
X-687973Y-277226D01*
X-687964Y-277249D01*
X-687941Y-277295D01*
X-687918Y-277351D01*
X-687890Y-277420D01*
X-687858Y-277508D01*
X-687825Y-277605D01*
X-687788Y-277716D01*
X-687751Y-277836D01*
X-687719Y-277966D01*
X-687686Y-278109D01*
X-687659Y-278257D01*
X-687636Y-278414D01*
X-687617Y-278580D01*
X-687603Y-278752D01*
X-687599Y-278927D01*
Y-278932D01*
Y-278936D01*
Y-278950D01*
Y-278969D01*
Y-278992D01*
X-687603Y-279020D01*
Y-279089D01*
X-687613Y-279168D01*
X-687617Y-279265D01*
X-687631Y-279376D01*
X-687645Y-279496D01*
X-687668Y-279625D01*
X-687691Y-279764D01*
X-687723Y-279903D01*
X-687760Y-280051D01*
X-687807Y-280198D01*
X-687858Y-280351D01*
X-687913Y-280499D01*
X-687982Y-280647D01*
X-687987Y-280656D01*
X-688001Y-280679D01*
X-688024Y-280721D01*
X-688052Y-280776D01*
X-688093Y-280841D01*
X-688139Y-280915D01*
X-688200Y-280998D01*
X-688264Y-281086D01*
X-688338Y-281178D01*
X-688417Y-281276D01*
X-688505Y-281377D01*
X-688606Y-281474D01*
X-688708Y-281571D01*
X-688824Y-281664D01*
X-688944Y-281752D01*
X-689073Y-281830D01*
X-689083Y-281835D01*
X-689106Y-281849D01*
X-689143Y-281867D01*
X-689198Y-281895D01*
X-689268Y-281923D01*
X-689346Y-281960D01*
X-689434Y-281997D01*
X-689540Y-282034D01*
X-689651Y-282071D01*
X-689771Y-282108D01*
X-689905Y-282145D01*
X-690044Y-282172D01*
X-690187Y-282200D01*
X-690340Y-282219D01*
X-690497Y-282232D01*
X-690659Y-282237D01*
X-690701D01*
X-690747Y-282232D01*
X-690807D01*
X-690885Y-282223D01*
X-690978Y-282214D01*
X-691080Y-282200D01*
X-691191Y-282186D01*
X-691311Y-282163D01*
X-691440Y-282135D01*
X-691574Y-282098D01*
X-691708Y-282061D01*
X-691847Y-282011D01*
X-691986Y-281955D01*
X-692124Y-281890D01*
X-692259Y-281816D01*
X-692268Y-281812D01*
X-692291Y-281798D01*
X-692328Y-281775D01*
X-692374Y-281738D01*
X-692434Y-281696D01*
X-692504Y-281645D01*
X-692577Y-281581D01*
X-692661Y-281511D01*
X-692748Y-281433D01*
X-692836Y-281345D01*
X-692929Y-281248D01*
X-693017Y-281141D01*
X-693104Y-281026D01*
X-693192Y-280906D01*
X-693271Y-280776D01*
X-693345Y-280638D01*
X-693349Y-280628D01*
X-693363Y-280605D01*
X-693382Y-280564D01*
X-693405Y-280504D01*
X-693433Y-280434D01*
X-693465Y-280346D01*
X-693497Y-280249D01*
X-693534Y-280138D01*
X-693567Y-280018D01*
X-693599Y-279889D01*
X-693631Y-279745D01*
X-693659Y-279597D01*
X-693687Y-279440D01*
X-693705Y-279279D01*
X-693715Y-279107D01*
X-693719Y-278932D01*
Y-278923D01*
Y-278895D01*
Y-278853D01*
X-693715Y-278798D01*
X-693710Y-278728D01*
X-693705Y-278650D01*
X-693701Y-278557D01*
X-693691Y-278456D01*
X-693678Y-278349D01*
X-693659Y-278238D01*
X-693641Y-278118D01*
X-693618Y-277998D01*
X-693590Y-277873D01*
X-693558Y-277753D01*
X-693521Y-277628D01*
X-693479Y-277508D01*
X-693474Y-277499D01*
X-693470Y-277480D01*
X-693456Y-277448D01*
X-693433Y-277402D01*
X-693410Y-277346D01*
X-693377Y-277286D01*
X-693340Y-277212D01*
X-693299Y-277138D01*
X-693248Y-277055D01*
X-693197Y-276967D01*
X-693137Y-276875D01*
X-693072Y-276782D01*
X-693003Y-276690D01*
X-692924Y-276597D01*
X-692841Y-276505D01*
X-692753Y-276417D01*
X-692758Y-276412D01*
X-692781Y-276399D01*
X-692809Y-276380D01*
X-692855Y-276352D01*
X-692906Y-276315D01*
X-692966Y-276278D01*
X-693035Y-276237D01*
X-693109Y-276190D01*
X-693192Y-276144D01*
X-693276Y-276093D01*
X-693460Y-275992D01*
X-693650Y-275899D01*
X-693747Y-275858D01*
X-693839Y-275821D01*
X-693590Y-275234D01*
X-693581Y-275238D01*
D02*
G37*
G36*
X-770794Y-280730D02*
X-770789Y-280725D01*
X-770780Y-280716D01*
X-770766Y-280702D01*
X-770743Y-280684D01*
X-770715Y-280661D01*
X-770678Y-280628D01*
X-770637Y-280596D01*
X-770595Y-280559D01*
X-770540Y-280522D01*
X-770484Y-280476D01*
X-770424Y-280434D01*
X-770359Y-280383D01*
X-770285Y-280337D01*
X-770211Y-280286D01*
X-770045Y-280185D01*
X-770041Y-280180D01*
X-770027Y-280171D01*
X-769999Y-280157D01*
X-769967Y-280143D01*
X-769930Y-280120D01*
X-769883Y-280092D01*
X-769828Y-280064D01*
X-769772Y-280032D01*
X-769643Y-279967D01*
X-769504Y-279903D01*
X-769361Y-279838D01*
X-769222Y-279782D01*
Y-280541D01*
X-769231Y-280545D01*
X-769250Y-280554D01*
X-769287Y-280573D01*
X-769333Y-280596D01*
X-769389Y-280624D01*
X-769458Y-280661D01*
X-769532Y-280702D01*
X-769611Y-280749D01*
X-769698Y-280804D01*
X-769791Y-280860D01*
X-769985Y-280989D01*
X-770184Y-281132D01*
X-770373Y-281289D01*
X-770378Y-281294D01*
X-770396Y-281308D01*
X-770420Y-281331D01*
X-770452Y-281363D01*
X-770493Y-281405D01*
X-770540Y-281451D01*
X-770591Y-281507D01*
X-770646Y-281562D01*
X-770702Y-281627D01*
X-770762Y-281696D01*
X-770877Y-281840D01*
X-770984Y-281992D01*
X-771030Y-282071D01*
X-771071Y-282149D01*
X-771580D01*
Y-275728D01*
X-770794D01*
Y-280730D01*
D02*
G37*
G36*
X-767664Y-275238D02*
X-767641Y-275247D01*
X-767604Y-275261D01*
X-767553Y-275280D01*
X-767493Y-275308D01*
X-767419Y-275340D01*
X-767336Y-275382D01*
X-767244Y-275423D01*
X-767142Y-275479D01*
X-767036Y-275534D01*
X-766920Y-275599D01*
X-766805Y-275668D01*
X-766680Y-275747D01*
X-766555Y-275830D01*
X-766430Y-275918D01*
X-766301Y-276015D01*
X-766291Y-276010D01*
X-766268Y-275996D01*
X-766231Y-275978D01*
X-766176Y-275955D01*
X-766111Y-275922D01*
X-766028Y-275890D01*
X-765940Y-275853D01*
X-765838Y-275821D01*
X-765727Y-275784D01*
X-765603Y-275747D01*
X-765473Y-275714D01*
X-765339Y-275682D01*
X-765191Y-275659D01*
X-765043Y-275640D01*
X-764891Y-275627D01*
X-764729Y-275622D01*
X-764692D01*
X-764646Y-275627D01*
X-764581D01*
X-764507Y-275636D01*
X-764415Y-275645D01*
X-764317Y-275659D01*
X-764206Y-275673D01*
X-764086Y-275696D01*
X-763961Y-275724D01*
X-763832Y-275756D01*
X-763698Y-275798D01*
X-763559Y-275844D01*
X-763425Y-275899D01*
X-763287Y-275964D01*
X-763152Y-276038D01*
X-763143Y-276043D01*
X-763120Y-276056D01*
X-763083Y-276084D01*
X-763037Y-276117D01*
X-762977Y-276158D01*
X-762907Y-276209D01*
X-762834Y-276274D01*
X-762750Y-276343D01*
X-762663Y-276422D01*
X-762575Y-276509D01*
X-762487Y-276607D01*
X-762394Y-276713D01*
X-762307Y-276828D01*
X-762219Y-276949D01*
X-762135Y-277078D01*
X-762061Y-277217D01*
X-762057Y-277226D01*
X-762048Y-277249D01*
X-762025Y-277295D01*
X-762001Y-277351D01*
X-761974Y-277420D01*
X-761941Y-277508D01*
X-761909Y-277605D01*
X-761872Y-277716D01*
X-761835Y-277836D01*
X-761803Y-277966D01*
X-761770Y-278109D01*
X-761743Y-278257D01*
X-761720Y-278414D01*
X-761701Y-278580D01*
X-761687Y-278752D01*
X-761683Y-278927D01*
Y-278932D01*
Y-278936D01*
Y-278950D01*
Y-278969D01*
Y-278992D01*
X-761687Y-279020D01*
Y-279089D01*
X-761696Y-279168D01*
X-761701Y-279265D01*
X-761715Y-279376D01*
X-761729Y-279496D01*
X-761752Y-279625D01*
X-761775Y-279764D01*
X-761807Y-279903D01*
X-761844Y-280051D01*
X-761890Y-280198D01*
X-761941Y-280351D01*
X-761997Y-280499D01*
X-762066Y-280647D01*
X-762071Y-280656D01*
X-762085Y-280679D01*
X-762108Y-280721D01*
X-762135Y-280776D01*
X-762177Y-280841D01*
X-762223Y-280915D01*
X-762283Y-280998D01*
X-762348Y-281086D01*
X-762422Y-281178D01*
X-762501Y-281276D01*
X-762589Y-281377D01*
X-762690Y-281474D01*
X-762792Y-281571D01*
X-762907Y-281664D01*
X-763028Y-281752D01*
X-763157Y-281830D01*
X-763166Y-281835D01*
X-763189Y-281849D01*
X-763226Y-281867D01*
X-763282Y-281895D01*
X-763351Y-281923D01*
X-763430Y-281960D01*
X-763518Y-281997D01*
X-763624Y-282034D01*
X-763735Y-282071D01*
X-763855Y-282108D01*
X-763989Y-282145D01*
X-764128Y-282172D01*
X-764271Y-282200D01*
X-764424Y-282219D01*
X-764581Y-282232D01*
X-764743Y-282237D01*
X-764784D01*
X-764831Y-282232D01*
X-764891D01*
X-764969Y-282223D01*
X-765062Y-282214D01*
X-765163Y-282200D01*
X-765274Y-282186D01*
X-765395Y-282163D01*
X-765524Y-282135D01*
X-765658Y-282098D01*
X-765792Y-282061D01*
X-765931Y-282011D01*
X-766069Y-281955D01*
X-766208Y-281890D01*
X-766342Y-281816D01*
X-766351Y-281812D01*
X-766375Y-281798D01*
X-766412Y-281775D01*
X-766458Y-281738D01*
X-766518Y-281696D01*
X-766587Y-281645D01*
X-766661Y-281581D01*
X-766744Y-281511D01*
X-766832Y-281433D01*
X-766920Y-281345D01*
X-767013Y-281248D01*
X-767100Y-281141D01*
X-767188Y-281026D01*
X-767276Y-280906D01*
X-767355Y-280776D01*
X-767429Y-280638D01*
X-767433Y-280628D01*
X-767447Y-280605D01*
X-767466Y-280564D01*
X-767489Y-280504D01*
X-767516Y-280434D01*
X-767549Y-280346D01*
X-767581Y-280249D01*
X-767618Y-280138D01*
X-767651Y-280018D01*
X-767683Y-279889D01*
X-767715Y-279745D01*
X-767743Y-279597D01*
X-767771Y-279440D01*
X-767789Y-279279D01*
X-767798Y-279107D01*
X-767803Y-278932D01*
Y-278923D01*
Y-278895D01*
Y-278853D01*
X-767798Y-278798D01*
X-767794Y-278728D01*
X-767789Y-278650D01*
X-767785Y-278557D01*
X-767775Y-278456D01*
X-767762Y-278349D01*
X-767743Y-278238D01*
X-767725Y-278118D01*
X-767701Y-277998D01*
X-767674Y-277873D01*
X-767641Y-277753D01*
X-767604Y-277628D01*
X-767563Y-277508D01*
X-767558Y-277499D01*
X-767553Y-277480D01*
X-767540Y-277448D01*
X-767516Y-277402D01*
X-767493Y-277346D01*
X-767461Y-277286D01*
X-767424Y-277212D01*
X-767382Y-277138D01*
X-767331Y-277055D01*
X-767281Y-276967D01*
X-767221Y-276875D01*
X-767156Y-276782D01*
X-767086Y-276690D01*
X-767008Y-276597D01*
X-766925Y-276505D01*
X-766837Y-276417D01*
X-766842Y-276412D01*
X-766865Y-276399D01*
X-766892Y-276380D01*
X-766939Y-276352D01*
X-766989Y-276315D01*
X-767049Y-276278D01*
X-767119Y-276237D01*
X-767193Y-276190D01*
X-767276Y-276144D01*
X-767359Y-276093D01*
X-767544Y-275992D01*
X-767734Y-275899D01*
X-767831Y-275858D01*
X-767923Y-275821D01*
X-767674Y-275234D01*
X-767664Y-275238D01*
D02*
G37*
G36*
X-697057Y-322887D02*
X-694283D01*
Y-323608D01*
X-697200Y-327754D01*
X-697843D01*
Y-323608D01*
X-698707D01*
Y-322887D01*
X-697843D01*
Y-321356D01*
X-697057D01*
Y-322887D01*
D02*
G37*
G36*
X-693581Y-320866D02*
X-693558Y-320876D01*
X-693521Y-320889D01*
X-693470Y-320908D01*
X-693410Y-320936D01*
X-693336Y-320968D01*
X-693252Y-321010D01*
X-693160Y-321051D01*
X-693058Y-321107D01*
X-692952Y-321162D01*
X-692836Y-321227D01*
X-692721Y-321296D01*
X-692596Y-321375D01*
X-692471Y-321458D01*
X-692346Y-321546D01*
X-692217Y-321643D01*
X-692208Y-321638D01*
X-692185Y-321624D01*
X-692148Y-321606D01*
X-692092Y-321583D01*
X-692027Y-321550D01*
X-691944Y-321518D01*
X-691856Y-321481D01*
X-691755Y-321449D01*
X-691644Y-321412D01*
X-691519Y-321375D01*
X-691389Y-321342D01*
X-691255Y-321310D01*
X-691107Y-321287D01*
X-690959Y-321269D01*
X-690807Y-321255D01*
X-690645Y-321250D01*
X-690608D01*
X-690562Y-321255D01*
X-690497D01*
X-690423Y-321264D01*
X-690331Y-321273D01*
X-690234Y-321287D01*
X-690123Y-321301D01*
X-690003Y-321324D01*
X-689878Y-321352D01*
X-689748Y-321384D01*
X-689614Y-321426D01*
X-689475Y-321472D01*
X-689342Y-321527D01*
X-689203Y-321592D01*
X-689069Y-321666D01*
X-689060Y-321671D01*
X-689036Y-321684D01*
X-688999Y-321712D01*
X-688953Y-321745D01*
X-688893Y-321786D01*
X-688824Y-321837D01*
X-688750Y-321902D01*
X-688667Y-321971D01*
X-688579Y-322050D01*
X-688491Y-322138D01*
X-688403Y-322235D01*
X-688311Y-322341D01*
X-688223Y-322457D01*
X-688135Y-322577D01*
X-688052Y-322706D01*
X-687978Y-322845D01*
X-687973Y-322854D01*
X-687964Y-322877D01*
X-687941Y-322923D01*
X-687918Y-322979D01*
X-687890Y-323048D01*
X-687858Y-323136D01*
X-687825Y-323233D01*
X-687788Y-323344D01*
X-687751Y-323464D01*
X-687719Y-323594D01*
X-687686Y-323737D01*
X-687659Y-323885D01*
X-687636Y-324042D01*
X-687617Y-324209D01*
X-687603Y-324380D01*
X-687599Y-324555D01*
Y-324560D01*
Y-324565D01*
Y-324578D01*
Y-324597D01*
Y-324620D01*
X-687603Y-324648D01*
Y-324717D01*
X-687613Y-324796D01*
X-687617Y-324893D01*
X-687631Y-325004D01*
X-687645Y-325124D01*
X-687668Y-325253D01*
X-687691Y-325392D01*
X-687723Y-325531D01*
X-687760Y-325679D01*
X-687807Y-325827D01*
X-687858Y-325979D01*
X-687913Y-326127D01*
X-687982Y-326275D01*
X-687987Y-326284D01*
X-688001Y-326307D01*
X-688024Y-326349D01*
X-688052Y-326404D01*
X-688093Y-326469D01*
X-688139Y-326543D01*
X-688200Y-326626D01*
X-688264Y-326714D01*
X-688338Y-326807D01*
X-688417Y-326904D01*
X-688505Y-327005D01*
X-688606Y-327102D01*
X-688708Y-327200D01*
X-688824Y-327292D01*
X-688944Y-327380D01*
X-689073Y-327458D01*
X-689083Y-327463D01*
X-689106Y-327477D01*
X-689143Y-327495D01*
X-689198Y-327523D01*
X-689268Y-327551D01*
X-689346Y-327588D01*
X-689434Y-327625D01*
X-689540Y-327662D01*
X-689651Y-327699D01*
X-689771Y-327736D01*
X-689905Y-327773D01*
X-690044Y-327800D01*
X-690187Y-327828D01*
X-690340Y-327847D01*
X-690497Y-327861D01*
X-690659Y-327865D01*
X-690701D01*
X-690747Y-327861D01*
X-690807D01*
X-690885Y-327851D01*
X-690978Y-327842D01*
X-691080Y-327828D01*
X-691191Y-327814D01*
X-691311Y-327791D01*
X-691440Y-327763D01*
X-691574Y-327727D01*
X-691708Y-327690D01*
X-691847Y-327639D01*
X-691986Y-327583D01*
X-692124Y-327519D01*
X-692259Y-327444D01*
X-692268Y-327440D01*
X-692291Y-327426D01*
X-692328Y-327403D01*
X-692374Y-327366D01*
X-692434Y-327324D01*
X-692504Y-327273D01*
X-692577Y-327209D01*
X-692661Y-327139D01*
X-692748Y-327061D01*
X-692836Y-326973D01*
X-692929Y-326876D01*
X-693017Y-326770D01*
X-693104Y-326654D01*
X-693192Y-326534D01*
X-693271Y-326404D01*
X-693345Y-326266D01*
X-693349Y-326256D01*
X-693363Y-326233D01*
X-693382Y-326192D01*
X-693405Y-326132D01*
X-693433Y-326062D01*
X-693465Y-325975D01*
X-693497Y-325877D01*
X-693534Y-325766D01*
X-693567Y-325646D01*
X-693599Y-325517D01*
X-693631Y-325373D01*
X-693659Y-325226D01*
X-693687Y-325068D01*
X-693705Y-324907D01*
X-693715Y-324736D01*
X-693719Y-324560D01*
Y-324551D01*
Y-324523D01*
Y-324481D01*
X-693715Y-324426D01*
X-693710Y-324356D01*
X-693705Y-324278D01*
X-693701Y-324185D01*
X-693691Y-324084D01*
X-693678Y-323977D01*
X-693659Y-323867D01*
X-693641Y-323746D01*
X-693618Y-323626D01*
X-693590Y-323501D01*
X-693558Y-323381D01*
X-693521Y-323256D01*
X-693479Y-323136D01*
X-693474Y-323127D01*
X-693470Y-323108D01*
X-693456Y-323076D01*
X-693433Y-323030D01*
X-693410Y-322974D01*
X-693377Y-322914D01*
X-693340Y-322840D01*
X-693299Y-322766D01*
X-693248Y-322683D01*
X-693197Y-322595D01*
X-693137Y-322503D01*
X-693072Y-322410D01*
X-693003Y-322318D01*
X-692924Y-322225D01*
X-692841Y-322133D01*
X-692753Y-322045D01*
X-692758Y-322040D01*
X-692781Y-322027D01*
X-692809Y-322008D01*
X-692855Y-321980D01*
X-692906Y-321943D01*
X-692966Y-321906D01*
X-693035Y-321865D01*
X-693109Y-321819D01*
X-693192Y-321772D01*
X-693276Y-321721D01*
X-693460Y-321620D01*
X-693650Y-321527D01*
X-693747Y-321486D01*
X-693839Y-321449D01*
X-693590Y-320862D01*
X-693581Y-320866D01*
D02*
G37*
G36*
X-770572Y-321245D02*
X-770517Y-321250D01*
X-770443Y-321255D01*
X-770359Y-321269D01*
X-770267Y-321282D01*
X-770165Y-321306D01*
X-770059Y-321329D01*
X-769943Y-321361D01*
X-769828Y-321403D01*
X-769708Y-321453D01*
X-769592Y-321509D01*
X-769476Y-321574D01*
X-769361Y-321652D01*
X-769255Y-321740D01*
X-769250Y-321745D01*
X-769231Y-321763D01*
X-769204Y-321791D01*
X-769167Y-321833D01*
X-769125Y-321883D01*
X-769074Y-321943D01*
X-769024Y-322013D01*
X-768968Y-322091D01*
X-768913Y-322179D01*
X-768857Y-322281D01*
X-768806Y-322387D01*
X-768755Y-322503D01*
X-768714Y-322628D01*
X-768672Y-322757D01*
X-768644Y-322896D01*
X-768626Y-323044D01*
X-769412Y-323150D01*
Y-323141D01*
X-769416Y-323122D01*
X-769426Y-323085D01*
X-769439Y-323039D01*
X-769453Y-322984D01*
X-769472Y-322923D01*
X-769495Y-322854D01*
X-769518Y-322780D01*
X-769583Y-322618D01*
X-769661Y-322461D01*
X-769708Y-322383D01*
X-769759Y-322309D01*
X-769809Y-322244D01*
X-769870Y-322184D01*
X-769874Y-322179D01*
X-769883Y-322170D01*
X-769902Y-322156D01*
X-769930Y-322138D01*
X-769957Y-322114D01*
X-769999Y-322091D01*
X-770041Y-322064D01*
X-770091Y-322040D01*
X-770147Y-322013D01*
X-770207Y-321985D01*
X-770272Y-321962D01*
X-770341Y-321939D01*
X-770415Y-321920D01*
X-770493Y-321906D01*
X-770572Y-321897D01*
X-770660Y-321893D01*
X-770683D01*
X-770715Y-321897D01*
X-770752D01*
X-770803Y-321906D01*
X-770859Y-321911D01*
X-770919Y-321925D01*
X-770988Y-321939D01*
X-771058Y-321962D01*
X-771136Y-321985D01*
X-771215Y-322017D01*
X-771293Y-322054D01*
X-771372Y-322101D01*
X-771451Y-322151D01*
X-771524Y-322207D01*
X-771598Y-322276D01*
X-771603Y-322281D01*
X-771617Y-322295D01*
X-771635Y-322313D01*
X-771658Y-322346D01*
X-771686Y-322383D01*
X-771719Y-322429D01*
X-771756Y-322480D01*
X-771793Y-322540D01*
X-771825Y-322604D01*
X-771862Y-322678D01*
X-771894Y-322752D01*
X-771922Y-322840D01*
X-771945Y-322928D01*
X-771964Y-323021D01*
X-771977Y-323122D01*
X-771982Y-323224D01*
Y-323228D01*
Y-323247D01*
Y-323275D01*
X-771977Y-323316D01*
X-771973Y-323358D01*
X-771964Y-323414D01*
X-771954Y-323474D01*
X-771936Y-323538D01*
X-771917Y-323608D01*
X-771894Y-323682D01*
X-771867Y-323755D01*
X-771834Y-323829D01*
X-771793Y-323904D01*
X-771742Y-323977D01*
X-771691Y-324047D01*
X-771626Y-324116D01*
X-771621Y-324121D01*
X-771612Y-324130D01*
X-771589Y-324148D01*
X-771561Y-324172D01*
X-771529Y-324199D01*
X-771487Y-324227D01*
X-771437Y-324259D01*
X-771381Y-324292D01*
X-771321Y-324324D01*
X-771252Y-324356D01*
X-771178Y-324384D01*
X-771099Y-324412D01*
X-771016Y-324435D01*
X-770923Y-324454D01*
X-770831Y-324463D01*
X-770729Y-324467D01*
X-770688D01*
X-770641Y-324463D01*
X-770577Y-324458D01*
X-770493Y-324449D01*
X-770401Y-324431D01*
X-770295Y-324412D01*
X-770175Y-324384D01*
X-770262Y-325073D01*
X-770276D01*
X-770290Y-325068D01*
X-770309D01*
X-770350Y-325064D01*
X-770438D01*
X-770470Y-325068D01*
X-770517Y-325073D01*
X-770567Y-325078D01*
X-770623Y-325087D01*
X-770688Y-325096D01*
X-770757Y-325110D01*
X-770826Y-325129D01*
X-770979Y-325175D01*
X-771058Y-325202D01*
X-771136Y-325239D01*
X-771215Y-325276D01*
X-771289Y-325323D01*
X-771293Y-325327D01*
X-771307Y-325336D01*
X-771326Y-325350D01*
X-771353Y-325373D01*
X-771381Y-325401D01*
X-771418Y-325434D01*
X-771451Y-325475D01*
X-771492Y-325521D01*
X-771529Y-325577D01*
X-771566Y-325637D01*
X-771598Y-325702D01*
X-771626Y-325776D01*
X-771654Y-325854D01*
X-771672Y-325942D01*
X-771686Y-326035D01*
X-771691Y-326132D01*
Y-326136D01*
Y-326150D01*
Y-326173D01*
X-771686Y-326206D01*
X-771682Y-326238D01*
X-771677Y-326284D01*
X-771668Y-326330D01*
X-771654Y-326381D01*
X-771617Y-326492D01*
X-771594Y-326552D01*
X-771566Y-326612D01*
X-771534Y-326673D01*
X-771492Y-326733D01*
X-771446Y-326788D01*
X-771395Y-326844D01*
X-771390Y-326848D01*
X-771381Y-326857D01*
X-771367Y-326871D01*
X-771344Y-326890D01*
X-771312Y-326908D01*
X-771279Y-326936D01*
X-771238Y-326959D01*
X-771192Y-326987D01*
X-771141Y-327015D01*
X-771085Y-327038D01*
X-771021Y-327066D01*
X-770956Y-327084D01*
X-770882Y-327102D01*
X-770808Y-327116D01*
X-770725Y-327126D01*
X-770641Y-327130D01*
X-770595D01*
X-770567Y-327126D01*
X-770526Y-327121D01*
X-770480Y-327116D01*
X-770429Y-327107D01*
X-770373Y-327093D01*
X-770253Y-327061D01*
X-770193Y-327038D01*
X-770128Y-327005D01*
X-770064Y-326973D01*
X-769999Y-326936D01*
X-769939Y-326890D01*
X-769879Y-326839D01*
X-769874Y-326834D01*
X-769865Y-326825D01*
X-769851Y-326807D01*
X-769828Y-326783D01*
X-769805Y-326756D01*
X-769777Y-326719D01*
X-769749Y-326673D01*
X-769717Y-326626D01*
X-769685Y-326566D01*
X-769652Y-326502D01*
X-769615Y-326432D01*
X-769587Y-326354D01*
X-769555Y-326270D01*
X-769532Y-326183D01*
X-769509Y-326085D01*
X-769490Y-325979D01*
X-768705Y-326118D01*
Y-326122D01*
Y-326127D01*
X-768714Y-326155D01*
X-768723Y-326192D01*
X-768737Y-326247D01*
X-768755Y-326317D01*
X-768779Y-326390D01*
X-768806Y-326474D01*
X-768839Y-326566D01*
X-768880Y-326663D01*
X-768926Y-326765D01*
X-768982Y-326867D01*
X-769042Y-326968D01*
X-769107Y-327070D01*
X-769181Y-327167D01*
X-769264Y-327260D01*
X-769356Y-327343D01*
X-769361Y-327347D01*
X-769379Y-327361D01*
X-769407Y-327384D01*
X-769449Y-327412D01*
X-769500Y-327444D01*
X-769560Y-327481D01*
X-769629Y-327519D01*
X-769708Y-327560D01*
X-769796Y-327602D01*
X-769893Y-327639D01*
X-769994Y-327676D01*
X-770105Y-327708D01*
X-770225Y-327736D01*
X-770355Y-327759D01*
X-770489Y-327773D01*
X-770628Y-327777D01*
X-770678D01*
X-770715Y-327773D01*
X-770762D01*
X-770817Y-327763D01*
X-770877Y-327759D01*
X-770942Y-327750D01*
X-771016Y-327736D01*
X-771090Y-327722D01*
X-771252Y-327680D01*
X-771339Y-327657D01*
X-771423Y-327625D01*
X-771506Y-327593D01*
X-771589Y-327551D01*
X-771594Y-327546D01*
X-771608Y-327542D01*
X-771631Y-327528D01*
X-771663Y-327509D01*
X-771700Y-327486D01*
X-771742Y-327458D01*
X-771788Y-327426D01*
X-771839Y-327389D01*
X-771950Y-327301D01*
X-772061Y-327195D01*
X-772167Y-327075D01*
X-772218Y-327005D01*
X-772264Y-326936D01*
X-772269Y-326931D01*
X-772273Y-326917D01*
X-772287Y-326899D01*
X-772301Y-326867D01*
X-772319Y-326834D01*
X-772338Y-326788D01*
X-772361Y-326742D01*
X-772384Y-326686D01*
X-772403Y-326626D01*
X-772426Y-326566D01*
X-772463Y-326427D01*
X-772491Y-326275D01*
X-772495Y-326196D01*
X-772500Y-326113D01*
Y-326109D01*
Y-326095D01*
Y-326072D01*
X-772495Y-326044D01*
Y-326007D01*
X-772486Y-325965D01*
X-772481Y-325914D01*
X-772472Y-325863D01*
X-772444Y-325743D01*
X-772403Y-325619D01*
X-772380Y-325554D01*
X-772347Y-325485D01*
X-772315Y-325420D01*
X-772273Y-325355D01*
X-772269Y-325350D01*
X-772264Y-325341D01*
X-772250Y-325323D01*
X-772232Y-325300D01*
X-772209Y-325272D01*
X-772181Y-325239D01*
X-772149Y-325202D01*
X-772107Y-325161D01*
X-772065Y-325119D01*
X-772014Y-325078D01*
X-771964Y-325031D01*
X-771904Y-324985D01*
X-771839Y-324944D01*
X-771769Y-324897D01*
X-771695Y-324856D01*
X-771617Y-324819D01*
X-771621D01*
X-771640Y-324814D01*
X-771672Y-324805D01*
X-771709Y-324791D01*
X-771760Y-324777D01*
X-771816Y-324754D01*
X-771876Y-324731D01*
X-771941Y-324699D01*
X-772010Y-324666D01*
X-772084Y-324625D01*
X-772158Y-324583D01*
X-772232Y-324532D01*
X-772301Y-324477D01*
X-772370Y-324417D01*
X-772440Y-324347D01*
X-772500Y-324273D01*
X-772504Y-324269D01*
X-772514Y-324255D01*
X-772528Y-324232D01*
X-772551Y-324199D01*
X-772574Y-324158D01*
X-772601Y-324112D01*
X-772629Y-324056D01*
X-772657Y-323991D01*
X-772685Y-323917D01*
X-772717Y-323839D01*
X-772740Y-323755D01*
X-772763Y-323663D01*
X-772786Y-323566D01*
X-772800Y-323464D01*
X-772810Y-323358D01*
X-772814Y-323242D01*
Y-323233D01*
Y-323205D01*
X-772810Y-323159D01*
X-772805Y-323104D01*
X-772796Y-323030D01*
X-772782Y-322947D01*
X-772763Y-322854D01*
X-772736Y-322752D01*
X-772703Y-322641D01*
X-772666Y-322531D01*
X-772615Y-322410D01*
X-772555Y-322290D01*
X-772486Y-322170D01*
X-772403Y-322050D01*
X-772306Y-321934D01*
X-772199Y-321823D01*
X-772190Y-321819D01*
X-772172Y-321800D01*
X-772139Y-321768D01*
X-772088Y-321731D01*
X-772028Y-321689D01*
X-771959Y-321638D01*
X-771871Y-321587D01*
X-771779Y-321532D01*
X-771672Y-321477D01*
X-771552Y-321426D01*
X-771427Y-321375D01*
X-771289Y-321333D01*
X-771145Y-321296D01*
X-770988Y-321264D01*
X-770826Y-321245D01*
X-770655Y-321241D01*
X-770618D01*
X-770572Y-321245D01*
D02*
G37*
G36*
X-767664Y-320866D02*
X-767641Y-320876D01*
X-767604Y-320889D01*
X-767553Y-320908D01*
X-767493Y-320936D01*
X-767419Y-320968D01*
X-767336Y-321010D01*
X-767244Y-321051D01*
X-767142Y-321107D01*
X-767036Y-321162D01*
X-766920Y-321227D01*
X-766805Y-321296D01*
X-766680Y-321375D01*
X-766555Y-321458D01*
X-766430Y-321546D01*
X-766301Y-321643D01*
X-766291Y-321638D01*
X-766268Y-321624D01*
X-766231Y-321606D01*
X-766176Y-321583D01*
X-766111Y-321550D01*
X-766028Y-321518D01*
X-765940Y-321481D01*
X-765838Y-321449D01*
X-765727Y-321412D01*
X-765603Y-321375D01*
X-765473Y-321342D01*
X-765339Y-321310D01*
X-765191Y-321287D01*
X-765043Y-321269D01*
X-764891Y-321255D01*
X-764729Y-321250D01*
X-764692D01*
X-764646Y-321255D01*
X-764581D01*
X-764507Y-321264D01*
X-764415Y-321273D01*
X-764317Y-321287D01*
X-764206Y-321301D01*
X-764086Y-321324D01*
X-763961Y-321352D01*
X-763832Y-321384D01*
X-763698Y-321426D01*
X-763559Y-321472D01*
X-763425Y-321527D01*
X-763287Y-321592D01*
X-763152Y-321666D01*
X-763143Y-321671D01*
X-763120Y-321684D01*
X-763083Y-321712D01*
X-763037Y-321745D01*
X-762977Y-321786D01*
X-762907Y-321837D01*
X-762834Y-321902D01*
X-762750Y-321971D01*
X-762663Y-322050D01*
X-762575Y-322138D01*
X-762487Y-322235D01*
X-762394Y-322341D01*
X-762307Y-322457D01*
X-762219Y-322577D01*
X-762135Y-322706D01*
X-762061Y-322845D01*
X-762057Y-322854D01*
X-762048Y-322877D01*
X-762025Y-322923D01*
X-762001Y-322979D01*
X-761974Y-323048D01*
X-761941Y-323136D01*
X-761909Y-323233D01*
X-761872Y-323344D01*
X-761835Y-323464D01*
X-761803Y-323594D01*
X-761770Y-323737D01*
X-761743Y-323885D01*
X-761720Y-324042D01*
X-761701Y-324209D01*
X-761687Y-324380D01*
X-761683Y-324555D01*
Y-324560D01*
Y-324565D01*
Y-324578D01*
Y-324597D01*
Y-324620D01*
X-761687Y-324648D01*
Y-324717D01*
X-761696Y-324796D01*
X-761701Y-324893D01*
X-761715Y-325004D01*
X-761729Y-325124D01*
X-761752Y-325253D01*
X-761775Y-325392D01*
X-761807Y-325531D01*
X-761844Y-325679D01*
X-761890Y-325827D01*
X-761941Y-325979D01*
X-761997Y-326127D01*
X-762066Y-326275D01*
X-762071Y-326284D01*
X-762085Y-326307D01*
X-762108Y-326349D01*
X-762135Y-326404D01*
X-762177Y-326469D01*
X-762223Y-326543D01*
X-762283Y-326626D01*
X-762348Y-326714D01*
X-762422Y-326807D01*
X-762501Y-326904D01*
X-762589Y-327005D01*
X-762690Y-327102D01*
X-762792Y-327200D01*
X-762907Y-327292D01*
X-763028Y-327380D01*
X-763157Y-327458D01*
X-763166Y-327463D01*
X-763189Y-327477D01*
X-763226Y-327495D01*
X-763282Y-327523D01*
X-763351Y-327551D01*
X-763430Y-327588D01*
X-763518Y-327625D01*
X-763624Y-327662D01*
X-763735Y-327699D01*
X-763855Y-327736D01*
X-763989Y-327773D01*
X-764128Y-327800D01*
X-764271Y-327828D01*
X-764424Y-327847D01*
X-764581Y-327861D01*
X-764743Y-327865D01*
X-764784D01*
X-764831Y-327861D01*
X-764891D01*
X-764969Y-327851D01*
X-765062Y-327842D01*
X-765163Y-327828D01*
X-765274Y-327814D01*
X-765395Y-327791D01*
X-765524Y-327763D01*
X-765658Y-327727D01*
X-765792Y-327690D01*
X-765931Y-327639D01*
X-766069Y-327583D01*
X-766208Y-327519D01*
X-766342Y-327444D01*
X-766351Y-327440D01*
X-766375Y-327426D01*
X-766412Y-327403D01*
X-766458Y-327366D01*
X-766518Y-327324D01*
X-766587Y-327273D01*
X-766661Y-327209D01*
X-766744Y-327139D01*
X-766832Y-327061D01*
X-766920Y-326973D01*
X-767013Y-326876D01*
X-767100Y-326770D01*
X-767188Y-326654D01*
X-767276Y-326534D01*
X-767355Y-326404D01*
X-767429Y-326266D01*
X-767433Y-326256D01*
X-767447Y-326233D01*
X-767466Y-326192D01*
X-767489Y-326132D01*
X-767516Y-326062D01*
X-767549Y-325975D01*
X-767581Y-325877D01*
X-767618Y-325766D01*
X-767651Y-325646D01*
X-767683Y-325517D01*
X-767715Y-325373D01*
X-767743Y-325226D01*
X-767771Y-325068D01*
X-767789Y-324907D01*
X-767798Y-324736D01*
X-767803Y-324560D01*
Y-324551D01*
Y-324523D01*
Y-324481D01*
X-767798Y-324426D01*
X-767794Y-324356D01*
X-767789Y-324278D01*
X-767785Y-324185D01*
X-767775Y-324084D01*
X-767762Y-323977D01*
X-767743Y-323867D01*
X-767725Y-323746D01*
X-767701Y-323626D01*
X-767674Y-323501D01*
X-767641Y-323381D01*
X-767604Y-323256D01*
X-767563Y-323136D01*
X-767558Y-323127D01*
X-767553Y-323108D01*
X-767540Y-323076D01*
X-767516Y-323030D01*
X-767493Y-322974D01*
X-767461Y-322914D01*
X-767424Y-322840D01*
X-767382Y-322766D01*
X-767331Y-322683D01*
X-767281Y-322595D01*
X-767221Y-322503D01*
X-767156Y-322410D01*
X-767086Y-322318D01*
X-767008Y-322225D01*
X-766925Y-322133D01*
X-766837Y-322045D01*
X-766842Y-322040D01*
X-766865Y-322027D01*
X-766892Y-322008D01*
X-766939Y-321980D01*
X-766989Y-321943D01*
X-767049Y-321906D01*
X-767119Y-321865D01*
X-767193Y-321819D01*
X-767276Y-321772D01*
X-767359Y-321721D01*
X-767544Y-321620D01*
X-767734Y-321527D01*
X-767831Y-321486D01*
X-767923Y-321449D01*
X-767674Y-320862D01*
X-767664Y-320866D01*
D02*
G37*
G36*
X-696361Y-410155D02*
X-696296Y-410159D01*
X-696218Y-410168D01*
X-696125Y-410178D01*
X-696019Y-410196D01*
X-695908Y-410219D01*
X-695788Y-410252D01*
X-695663Y-410289D01*
X-695538Y-410330D01*
X-695409Y-410386D01*
X-695279Y-410451D01*
X-695155Y-410524D01*
X-695039Y-410612D01*
X-694923Y-410709D01*
X-694919Y-410714D01*
X-694900Y-410737D01*
X-694868Y-410765D01*
X-694836Y-410811D01*
X-694789Y-410867D01*
X-694738Y-410931D01*
X-694688Y-411005D01*
X-694637Y-411093D01*
X-694581Y-411190D01*
X-694530Y-411296D01*
X-694480Y-411412D01*
X-694438Y-411532D01*
X-694401Y-411666D01*
X-694369Y-411805D01*
X-694350Y-411953D01*
X-694346Y-412105D01*
Y-412115D01*
Y-412133D01*
Y-412165D01*
X-694350Y-412212D01*
X-694355Y-412263D01*
X-694364Y-412327D01*
X-694373Y-412397D01*
X-694387Y-412471D01*
X-694401Y-412549D01*
X-694424Y-412637D01*
X-694447Y-412720D01*
X-694480Y-412808D01*
X-694517Y-412896D01*
X-694558Y-412984D01*
X-694604Y-413067D01*
X-694660Y-413150D01*
X-694665Y-413155D01*
X-694674Y-413169D01*
X-694692Y-413192D01*
X-694720Y-413219D01*
X-694752Y-413252D01*
X-694794Y-413293D01*
X-694840Y-413335D01*
X-694891Y-413381D01*
X-694956Y-413428D01*
X-695021Y-413474D01*
X-695095Y-413525D01*
X-695178Y-413571D01*
X-695266Y-413613D01*
X-695358Y-413654D01*
X-695460Y-413691D01*
X-695566Y-413723D01*
X-695561D01*
X-695543Y-413733D01*
X-695520Y-413742D01*
X-695487Y-413756D01*
X-695446Y-413774D01*
X-695400Y-413797D01*
X-695349Y-413825D01*
X-695293Y-413853D01*
X-695173Y-413927D01*
X-695053Y-414015D01*
X-694937Y-414116D01*
X-694886Y-414172D01*
X-694840Y-414232D01*
X-694836Y-414236D01*
X-694831Y-414246D01*
X-694817Y-414264D01*
X-694803Y-414292D01*
X-694785Y-414324D01*
X-694766Y-414361D01*
X-694743Y-414408D01*
X-694725Y-414458D01*
X-694702Y-414514D01*
X-694678Y-414574D01*
X-694660Y-414639D01*
X-694641Y-414708D01*
X-694614Y-414861D01*
X-694609Y-414944D01*
X-694604Y-415027D01*
Y-415036D01*
Y-415059D01*
X-694609Y-415096D01*
X-694614Y-415143D01*
X-694618Y-415203D01*
X-694632Y-415272D01*
X-694646Y-415351D01*
X-694669Y-415434D01*
X-694692Y-415526D01*
X-694725Y-415619D01*
X-694766Y-415716D01*
X-694817Y-415817D01*
X-694873Y-415915D01*
X-694937Y-416016D01*
X-695016Y-416109D01*
X-695104Y-416201D01*
X-695108Y-416206D01*
X-695127Y-416220D01*
X-695155Y-416247D01*
X-695196Y-416275D01*
X-695247Y-416312D01*
X-695307Y-416354D01*
X-695377Y-416395D01*
X-695460Y-416442D01*
X-695547Y-416483D01*
X-695649Y-416525D01*
X-695760Y-416566D01*
X-695880Y-416603D01*
X-696005Y-416636D01*
X-696144Y-416659D01*
X-696287Y-416673D01*
X-696440Y-416677D01*
X-696477D01*
X-696518Y-416673D01*
X-696578Y-416668D01*
X-696648Y-416664D01*
X-696731Y-416650D01*
X-696823Y-416636D01*
X-696920Y-416617D01*
X-697027Y-416590D01*
X-697138Y-416557D01*
X-697249Y-416520D01*
X-697360Y-416469D01*
X-697471Y-416414D01*
X-697581Y-416349D01*
X-697688Y-416275D01*
X-697785Y-416187D01*
X-697790Y-416183D01*
X-697808Y-416164D01*
X-697831Y-416137D01*
X-697863Y-416100D01*
X-697905Y-416053D01*
X-697947Y-415998D01*
X-697993Y-415933D01*
X-698044Y-415859D01*
X-698090Y-415776D01*
X-698136Y-415684D01*
X-698178Y-415586D01*
X-698220Y-415485D01*
X-698252Y-415374D01*
X-698275Y-415254D01*
X-698293Y-415133D01*
X-698298Y-415004D01*
Y-414999D01*
Y-414985D01*
Y-414962D01*
X-698293Y-414930D01*
X-698289Y-414893D01*
X-698284Y-414847D01*
X-698280Y-414796D01*
X-698270Y-414740D01*
X-698243Y-414620D01*
X-698201Y-414491D01*
X-698173Y-414426D01*
X-698141Y-414361D01*
X-698104Y-414297D01*
X-698062Y-414232D01*
X-698058Y-414227D01*
X-698053Y-414218D01*
X-698039Y-414200D01*
X-698016Y-414176D01*
X-697993Y-414149D01*
X-697961Y-414121D01*
X-697928Y-414084D01*
X-697887Y-414047D01*
X-697836Y-414005D01*
X-697785Y-413964D01*
X-697725Y-413922D01*
X-697665Y-413881D01*
X-697591Y-413839D01*
X-697517Y-413797D01*
X-697438Y-413760D01*
X-697350Y-413723D01*
X-697355D01*
X-697378Y-413714D01*
X-697406Y-413705D01*
X-697448Y-413686D01*
X-697498Y-413668D01*
X-697554Y-413640D01*
X-697618Y-413613D01*
X-697683Y-413576D01*
X-697757Y-413534D01*
X-697831Y-413488D01*
X-697905Y-413437D01*
X-697979Y-413381D01*
X-698053Y-413321D01*
X-698122Y-413252D01*
X-698192Y-413182D01*
X-698252Y-413104D01*
X-698257Y-413099D01*
X-698266Y-413086D01*
X-698280Y-413062D01*
X-698303Y-413030D01*
X-698326Y-412988D01*
X-698349Y-412938D01*
X-698377Y-412882D01*
X-698409Y-412817D01*
X-698437Y-412743D01*
X-698465Y-412669D01*
X-698488Y-412582D01*
X-698515Y-412494D01*
X-698534Y-412397D01*
X-698548Y-412300D01*
X-698557Y-412193D01*
X-698562Y-412082D01*
Y-412073D01*
Y-412045D01*
X-698557Y-412004D01*
X-698552Y-411944D01*
X-698543Y-411874D01*
X-698529Y-411796D01*
X-698511Y-411703D01*
X-698488Y-411601D01*
X-698460Y-411495D01*
X-698418Y-411384D01*
X-698372Y-411273D01*
X-698317Y-411158D01*
X-698247Y-411038D01*
X-698173Y-410927D01*
X-698081Y-410811D01*
X-697979Y-410705D01*
X-697974Y-410700D01*
X-697951Y-410682D01*
X-697919Y-410654D01*
X-697873Y-410617D01*
X-697817Y-410575D01*
X-697743Y-410529D01*
X-697665Y-410478D01*
X-697572Y-410427D01*
X-697466Y-410377D01*
X-697350Y-410326D01*
X-697226Y-410279D01*
X-697092Y-410238D01*
X-696944Y-410201D01*
X-696791Y-410173D01*
X-696625Y-410155D01*
X-696454Y-410150D01*
X-696412D01*
X-696361Y-410155D01*
D02*
G37*
G36*
X-693398Y-409766D02*
X-693375Y-409776D01*
X-693338Y-409789D01*
X-693287Y-409808D01*
X-693227Y-409836D01*
X-693153Y-409868D01*
X-693070Y-409910D01*
X-692977Y-409951D01*
X-692876Y-410007D01*
X-692769Y-410062D01*
X-692654Y-410127D01*
X-692538Y-410196D01*
X-692413Y-410275D01*
X-692288Y-410358D01*
X-692164Y-410446D01*
X-692034Y-410543D01*
X-692025Y-410538D01*
X-692002Y-410524D01*
X-691965Y-410506D01*
X-691909Y-410483D01*
X-691845Y-410451D01*
X-691761Y-410418D01*
X-691674Y-410381D01*
X-691572Y-410349D01*
X-691461Y-410312D01*
X-691336Y-410275D01*
X-691207Y-410242D01*
X-691073Y-410210D01*
X-690925Y-410187D01*
X-690777Y-410168D01*
X-690624Y-410155D01*
X-690462Y-410150D01*
X-690425D01*
X-690379Y-410155D01*
X-690314D01*
X-690240Y-410164D01*
X-690148Y-410173D01*
X-690051Y-410187D01*
X-689940Y-410201D01*
X-689820Y-410224D01*
X-689695Y-410252D01*
X-689566Y-410284D01*
X-689432Y-410326D01*
X-689293Y-410372D01*
X-689159Y-410427D01*
X-689020Y-410492D01*
X-688886Y-410566D01*
X-688877Y-410571D01*
X-688854Y-410584D01*
X-688817Y-410612D01*
X-688771Y-410645D01*
X-688710Y-410686D01*
X-688641Y-410737D01*
X-688567Y-410802D01*
X-688484Y-410871D01*
X-688396Y-410950D01*
X-688308Y-411038D01*
X-688220Y-411135D01*
X-688128Y-411241D01*
X-688040Y-411357D01*
X-687952Y-411477D01*
X-687869Y-411606D01*
X-687795Y-411745D01*
X-687790Y-411754D01*
X-687781Y-411777D01*
X-687758Y-411823D01*
X-687735Y-411879D01*
X-687707Y-411948D01*
X-687675Y-412036D01*
X-687643Y-412133D01*
X-687606Y-412244D01*
X-687569Y-412364D01*
X-687536Y-412494D01*
X-687504Y-412637D01*
X-687476Y-412785D01*
X-687453Y-412942D01*
X-687434Y-413109D01*
X-687421Y-413280D01*
X-687416Y-413455D01*
Y-413460D01*
Y-413465D01*
Y-413478D01*
Y-413497D01*
Y-413520D01*
X-687421Y-413548D01*
Y-413617D01*
X-687430Y-413696D01*
X-687434Y-413793D01*
X-687448Y-413904D01*
X-687462Y-414024D01*
X-687485Y-414153D01*
X-687508Y-414292D01*
X-687541Y-414431D01*
X-687578Y-414579D01*
X-687624Y-414727D01*
X-687675Y-414879D01*
X-687730Y-415027D01*
X-687800Y-415175D01*
X-687804Y-415184D01*
X-687818Y-415207D01*
X-687841Y-415249D01*
X-687869Y-415304D01*
X-687911Y-415369D01*
X-687957Y-415443D01*
X-688017Y-415526D01*
X-688082Y-415614D01*
X-688156Y-415707D01*
X-688234Y-415804D01*
X-688322Y-415905D01*
X-688424Y-416002D01*
X-688525Y-416100D01*
X-688641Y-416192D01*
X-688761Y-416280D01*
X-688891Y-416358D01*
X-688900Y-416363D01*
X-688923Y-416377D01*
X-688960Y-416395D01*
X-689016Y-416423D01*
X-689085Y-416451D01*
X-689163Y-416488D01*
X-689251Y-416525D01*
X-689358Y-416562D01*
X-689469Y-416599D01*
X-689589Y-416636D01*
X-689723Y-416673D01*
X-689862Y-416701D01*
X-690005Y-416728D01*
X-690157Y-416747D01*
X-690314Y-416761D01*
X-690476Y-416765D01*
X-690518D01*
X-690564Y-416761D01*
X-690624D01*
X-690703Y-416751D01*
X-690795Y-416742D01*
X-690897Y-416728D01*
X-691008Y-416714D01*
X-691128Y-416691D01*
X-691257Y-416664D01*
X-691392Y-416627D01*
X-691526Y-416590D01*
X-691664Y-416539D01*
X-691803Y-416483D01*
X-691942Y-416418D01*
X-692076Y-416344D01*
X-692085Y-416340D01*
X-692108Y-416326D01*
X-692145Y-416303D01*
X-692191Y-416266D01*
X-692251Y-416224D01*
X-692321Y-416174D01*
X-692395Y-416109D01*
X-692478Y-416039D01*
X-692566Y-415961D01*
X-692654Y-415873D01*
X-692746Y-415776D01*
X-692834Y-415670D01*
X-692922Y-415554D01*
X-693010Y-415434D01*
X-693088Y-415304D01*
X-693162Y-415166D01*
X-693167Y-415157D01*
X-693181Y-415133D01*
X-693199Y-415092D01*
X-693222Y-415032D01*
X-693250Y-414962D01*
X-693282Y-414874D01*
X-693315Y-414777D01*
X-693352Y-414666D01*
X-693384Y-414546D01*
X-693416Y-414417D01*
X-693449Y-414273D01*
X-693476Y-414126D01*
X-693504Y-413968D01*
X-693523Y-413807D01*
X-693532Y-413636D01*
X-693537Y-413460D01*
Y-413451D01*
Y-413423D01*
Y-413381D01*
X-693532Y-413326D01*
X-693527Y-413256D01*
X-693523Y-413178D01*
X-693518Y-413086D01*
X-693509Y-412984D01*
X-693495Y-412877D01*
X-693476Y-412766D01*
X-693458Y-412646D01*
X-693435Y-412526D01*
X-693407Y-412401D01*
X-693375Y-412281D01*
X-693338Y-412156D01*
X-693296Y-412036D01*
X-693292Y-412027D01*
X-693287Y-412008D01*
X-693273Y-411976D01*
X-693250Y-411930D01*
X-693227Y-411874D01*
X-693195Y-411814D01*
X-693158Y-411740D01*
X-693116Y-411666D01*
X-693065Y-411583D01*
X-693014Y-411495D01*
X-692954Y-411403D01*
X-692889Y-411310D01*
X-692820Y-411218D01*
X-692741Y-411125D01*
X-692658Y-411033D01*
X-692570Y-410945D01*
X-692575Y-410941D01*
X-692598Y-410927D01*
X-692626Y-410908D01*
X-692672Y-410880D01*
X-692723Y-410843D01*
X-692783Y-410806D01*
X-692852Y-410765D01*
X-692926Y-410719D01*
X-693010Y-410672D01*
X-693093Y-410621D01*
X-693278Y-410520D01*
X-693467Y-410427D01*
X-693564Y-410386D01*
X-693657Y-410349D01*
X-693407Y-409762D01*
X-693398Y-409766D01*
D02*
G37*
G36*
X-769357Y-410266D02*
Y-410289D01*
X-769362Y-410335D01*
Y-410390D01*
X-769366Y-410464D01*
X-769376Y-410552D01*
X-769385Y-410654D01*
X-769399Y-410765D01*
X-769413Y-410894D01*
X-769431Y-411033D01*
X-769454Y-411181D01*
X-769482Y-411343D01*
X-769519Y-411514D01*
X-769556Y-411694D01*
X-769597Y-411884D01*
X-769648Y-412078D01*
Y-412082D01*
X-769653Y-412092D01*
X-769658Y-412105D01*
X-769662Y-412124D01*
X-769671Y-412152D01*
X-769681Y-412184D01*
X-769690Y-412221D01*
X-769704Y-412263D01*
X-769732Y-412355D01*
X-769769Y-412471D01*
X-769810Y-412595D01*
X-769856Y-412739D01*
X-769912Y-412891D01*
X-769972Y-413053D01*
X-770041Y-413224D01*
X-770111Y-413400D01*
X-770189Y-413580D01*
X-770277Y-413765D01*
X-770365Y-413955D01*
X-770462Y-414140D01*
Y-414144D01*
X-770467Y-414149D01*
X-770476Y-414163D01*
X-770485Y-414186D01*
X-770499Y-414209D01*
X-770517Y-414236D01*
X-770554Y-414306D01*
X-770605Y-414389D01*
X-770661Y-414491D01*
X-770730Y-414602D01*
X-770804Y-414722D01*
X-770883Y-414851D01*
X-770970Y-414985D01*
X-771068Y-415124D01*
X-771165Y-415267D01*
X-771373Y-415549D01*
X-771484Y-415688D01*
X-771594Y-415817D01*
X-768460D01*
Y-416571D01*
X-772602D01*
Y-415961D01*
X-772598Y-415952D01*
X-772574Y-415933D01*
X-772542Y-415891D01*
X-772496Y-415841D01*
X-772440Y-415776D01*
X-772376Y-415697D01*
X-772302Y-415605D01*
X-772223Y-415499D01*
X-772135Y-415383D01*
X-772038Y-415254D01*
X-771937Y-415110D01*
X-771835Y-414958D01*
X-771724Y-414791D01*
X-771618Y-414616D01*
X-771502Y-414431D01*
X-771391Y-414232D01*
Y-414227D01*
X-771386Y-414218D01*
X-771377Y-414204D01*
X-771363Y-414186D01*
X-771349Y-414158D01*
X-771336Y-414126D01*
X-771312Y-414089D01*
X-771294Y-414047D01*
X-771266Y-414001D01*
X-771243Y-413945D01*
X-771183Y-413830D01*
X-771118Y-413700D01*
X-771049Y-413552D01*
X-770975Y-413391D01*
X-770901Y-413215D01*
X-770823Y-413035D01*
X-770749Y-412840D01*
X-770670Y-412642D01*
X-770601Y-412438D01*
X-770531Y-412226D01*
X-770467Y-412013D01*
X-770462Y-412004D01*
X-770457Y-411976D01*
X-770443Y-411934D01*
X-770430Y-411874D01*
X-770411Y-411796D01*
X-770388Y-411708D01*
X-770365Y-411606D01*
X-770342Y-411491D01*
X-770314Y-411366D01*
X-770291Y-411232D01*
X-770263Y-411084D01*
X-770240Y-410931D01*
X-770217Y-410774D01*
X-770198Y-410608D01*
X-770180Y-410432D01*
X-770166Y-410256D01*
X-769357D01*
Y-410266D01*
D02*
G37*
G36*
X-767452Y-409766D02*
X-767429Y-409776D01*
X-767392Y-409789D01*
X-767342Y-409808D01*
X-767281Y-409836D01*
X-767207Y-409868D01*
X-767124Y-409910D01*
X-767032Y-409951D01*
X-766930Y-410007D01*
X-766824Y-410062D01*
X-766708Y-410127D01*
X-766593Y-410196D01*
X-766468Y-410275D01*
X-766343Y-410358D01*
X-766218Y-410446D01*
X-766089Y-410543D01*
X-766079Y-410538D01*
X-766056Y-410524D01*
X-766019Y-410506D01*
X-765964Y-410483D01*
X-765899Y-410451D01*
X-765816Y-410418D01*
X-765728Y-410381D01*
X-765627Y-410349D01*
X-765516Y-410312D01*
X-765391Y-410275D01*
X-765261Y-410242D01*
X-765127Y-410210D01*
X-764979Y-410187D01*
X-764831Y-410168D01*
X-764679Y-410155D01*
X-764517Y-410150D01*
X-764480D01*
X-764434Y-410155D01*
X-764369D01*
X-764295Y-410164D01*
X-764203Y-410173D01*
X-764106Y-410187D01*
X-763995Y-410201D01*
X-763874Y-410224D01*
X-763750Y-410252D01*
X-763620Y-410284D01*
X-763486Y-410326D01*
X-763347Y-410372D01*
X-763213Y-410427D01*
X-763075Y-410492D01*
X-762941Y-410566D01*
X-762931Y-410571D01*
X-762908Y-410584D01*
X-762871Y-410612D01*
X-762825Y-410645D01*
X-762765Y-410686D01*
X-762696Y-410737D01*
X-762622Y-410802D01*
X-762538Y-410871D01*
X-762451Y-410950D01*
X-762363Y-411038D01*
X-762275Y-411135D01*
X-762182Y-411241D01*
X-762095Y-411357D01*
X-762007Y-411477D01*
X-761924Y-411606D01*
X-761850Y-411745D01*
X-761845Y-411754D01*
X-761836Y-411777D01*
X-761813Y-411823D01*
X-761789Y-411879D01*
X-761762Y-411948D01*
X-761729Y-412036D01*
X-761697Y-412133D01*
X-761660Y-412244D01*
X-761623Y-412364D01*
X-761591Y-412494D01*
X-761558Y-412637D01*
X-761531Y-412785D01*
X-761507Y-412942D01*
X-761489Y-413109D01*
X-761475Y-413280D01*
X-761471Y-413455D01*
Y-413460D01*
Y-413465D01*
Y-413478D01*
Y-413497D01*
Y-413520D01*
X-761475Y-413548D01*
Y-413617D01*
X-761484Y-413696D01*
X-761489Y-413793D01*
X-761503Y-413904D01*
X-761517Y-414024D01*
X-761540Y-414153D01*
X-761563Y-414292D01*
X-761595Y-414431D01*
X-761632Y-414579D01*
X-761679Y-414727D01*
X-761729Y-414879D01*
X-761785Y-415027D01*
X-761854Y-415175D01*
X-761859Y-415184D01*
X-761873Y-415207D01*
X-761896Y-415249D01*
X-761924Y-415304D01*
X-761965Y-415369D01*
X-762011Y-415443D01*
X-762072Y-415526D01*
X-762136Y-415614D01*
X-762210Y-415707D01*
X-762289Y-415804D01*
X-762377Y-415905D01*
X-762478Y-416002D01*
X-762580Y-416100D01*
X-762696Y-416192D01*
X-762816Y-416280D01*
X-762945Y-416358D01*
X-762954Y-416363D01*
X-762978Y-416377D01*
X-763015Y-416395D01*
X-763070Y-416423D01*
X-763139Y-416451D01*
X-763218Y-416488D01*
X-763306Y-416525D01*
X-763412Y-416562D01*
X-763523Y-416599D01*
X-763643Y-416636D01*
X-763777Y-416673D01*
X-763916Y-416701D01*
X-764059Y-416728D01*
X-764212Y-416747D01*
X-764369Y-416761D01*
X-764531Y-416765D01*
X-764573D01*
X-764619Y-416761D01*
X-764679D01*
X-764757Y-416751D01*
X-764850Y-416742D01*
X-764951Y-416728D01*
X-765062Y-416714D01*
X-765183Y-416691D01*
X-765312Y-416664D01*
X-765446Y-416627D01*
X-765580Y-416590D01*
X-765719Y-416539D01*
X-765858Y-416483D01*
X-765996Y-416418D01*
X-766130Y-416344D01*
X-766140Y-416340D01*
X-766163Y-416326D01*
X-766200Y-416303D01*
X-766246Y-416266D01*
X-766306Y-416224D01*
X-766375Y-416174D01*
X-766449Y-416109D01*
X-766533Y-416039D01*
X-766620Y-415961D01*
X-766708Y-415873D01*
X-766801Y-415776D01*
X-766889Y-415670D01*
X-766976Y-415554D01*
X-767064Y-415434D01*
X-767143Y-415304D01*
X-767217Y-415166D01*
X-767221Y-415157D01*
X-767235Y-415133D01*
X-767254Y-415092D01*
X-767277Y-415032D01*
X-767305Y-414962D01*
X-767337Y-414874D01*
X-767369Y-414777D01*
X-767406Y-414666D01*
X-767439Y-414546D01*
X-767471Y-414417D01*
X-767503Y-414273D01*
X-767531Y-414126D01*
X-767559Y-413968D01*
X-767577Y-413807D01*
X-767587Y-413636D01*
X-767591Y-413460D01*
Y-413451D01*
Y-413423D01*
Y-413381D01*
X-767587Y-413326D01*
X-767582Y-413256D01*
X-767577Y-413178D01*
X-767573Y-413086D01*
X-767563Y-412984D01*
X-767550Y-412877D01*
X-767531Y-412766D01*
X-767513Y-412646D01*
X-767489Y-412526D01*
X-767462Y-412401D01*
X-767429Y-412281D01*
X-767392Y-412156D01*
X-767351Y-412036D01*
X-767346Y-412027D01*
X-767342Y-412008D01*
X-767328Y-411976D01*
X-767305Y-411930D01*
X-767281Y-411874D01*
X-767249Y-411814D01*
X-767212Y-411740D01*
X-767170Y-411666D01*
X-767120Y-411583D01*
X-767069Y-411495D01*
X-767009Y-411403D01*
X-766944Y-411310D01*
X-766875Y-411218D01*
X-766796Y-411125D01*
X-766713Y-411033D01*
X-766625Y-410945D01*
X-766630Y-410941D01*
X-766653Y-410927D01*
X-766681Y-410908D01*
X-766727Y-410880D01*
X-766777Y-410843D01*
X-766838Y-410806D01*
X-766907Y-410765D01*
X-766981Y-410719D01*
X-767064Y-410672D01*
X-767147Y-410621D01*
X-767332Y-410520D01*
X-767522Y-410427D01*
X-767619Y-410386D01*
X-767711Y-410349D01*
X-767462Y-409762D01*
X-767452Y-409766D01*
D02*
G37*
G36*
X-696477Y-365705D02*
X-696449D01*
X-696380Y-365709D01*
X-696296Y-365723D01*
X-696199Y-365737D01*
X-696093Y-365760D01*
X-695973Y-365792D01*
X-695848Y-365829D01*
X-695719Y-365876D01*
X-695589Y-365936D01*
X-695455Y-366005D01*
X-695321Y-366088D01*
X-695187Y-366185D01*
X-695062Y-366296D01*
X-694942Y-366421D01*
X-694937Y-366430D01*
X-694914Y-366454D01*
X-694886Y-366500D01*
X-694845Y-366560D01*
X-694799Y-366638D01*
X-694771Y-366685D01*
X-694748Y-366735D01*
X-694720Y-366791D01*
X-694692Y-366851D01*
X-694660Y-366920D01*
X-694632Y-366990D01*
X-694604Y-367064D01*
X-694577Y-367142D01*
X-694544Y-367230D01*
X-694517Y-367318D01*
X-694493Y-367415D01*
X-694466Y-367512D01*
X-694443Y-367618D01*
X-694419Y-367729D01*
X-694396Y-367845D01*
X-694378Y-367965D01*
X-694364Y-368090D01*
X-694350Y-368219D01*
X-694336Y-368358D01*
X-694332Y-368497D01*
X-694323Y-368645D01*
Y-368797D01*
Y-368802D01*
Y-368820D01*
Y-368843D01*
Y-368881D01*
X-694327Y-368922D01*
Y-368973D01*
X-694332Y-369033D01*
Y-369102D01*
X-694336Y-369172D01*
X-694346Y-369255D01*
X-694350Y-369338D01*
X-694359Y-369431D01*
X-694378Y-369620D01*
X-694410Y-369828D01*
X-694443Y-370045D01*
X-694489Y-370272D01*
X-694544Y-370494D01*
X-694609Y-370716D01*
X-694688Y-370933D01*
X-694780Y-371136D01*
X-694831Y-371233D01*
X-694886Y-371321D01*
X-694947Y-371409D01*
X-695007Y-371492D01*
X-695016Y-371502D01*
X-695034Y-371525D01*
X-695067Y-371562D01*
X-695118Y-371608D01*
X-695178Y-371663D01*
X-695247Y-371724D01*
X-695335Y-371793D01*
X-695432Y-371862D01*
X-695543Y-371927D01*
X-695663Y-371996D01*
X-695792Y-372056D01*
X-695936Y-372112D01*
X-696093Y-372158D01*
X-696255Y-372195D01*
X-696431Y-372218D01*
X-696615Y-372227D01*
X-696648D01*
X-696689Y-372223D01*
X-696740D01*
X-696805Y-372214D01*
X-696879Y-372204D01*
X-696962Y-372190D01*
X-697055Y-372177D01*
X-697147Y-372153D01*
X-697249Y-372126D01*
X-697350Y-372089D01*
X-697452Y-372047D01*
X-697558Y-372001D01*
X-697660Y-371941D01*
X-697757Y-371876D01*
X-697850Y-371802D01*
X-697854Y-371797D01*
X-697873Y-371784D01*
X-697896Y-371756D01*
X-697928Y-371724D01*
X-697965Y-371682D01*
X-698007Y-371626D01*
X-698053Y-371566D01*
X-698104Y-371497D01*
X-698155Y-371418D01*
X-698206Y-371331D01*
X-698257Y-371233D01*
X-698298Y-371127D01*
X-698344Y-371016D01*
X-698381Y-370896D01*
X-698409Y-370767D01*
X-698432Y-370633D01*
X-697651Y-370572D01*
Y-370577D01*
X-697646Y-370591D01*
X-697642Y-370619D01*
X-697632Y-370646D01*
X-697618Y-370688D01*
X-697609Y-370730D01*
X-697572Y-370831D01*
X-697531Y-370938D01*
X-697480Y-371049D01*
X-697420Y-371155D01*
X-697387Y-371201D01*
X-697350Y-371243D01*
X-697346Y-371247D01*
X-697337Y-371257D01*
X-697318Y-371275D01*
X-697295Y-371294D01*
X-697263Y-371321D01*
X-697226Y-371349D01*
X-697184Y-371381D01*
X-697133Y-371414D01*
X-697078Y-371441D01*
X-697018Y-371474D01*
X-696957Y-371502D01*
X-696888Y-371529D01*
X-696814Y-371548D01*
X-696736Y-371566D01*
X-696652Y-371576D01*
X-696569Y-371580D01*
X-696532D01*
X-696504Y-371576D01*
X-696472D01*
X-696435Y-371571D01*
X-696394Y-371562D01*
X-696343Y-371552D01*
X-696241Y-371529D01*
X-696130Y-371492D01*
X-696019Y-371437D01*
X-695964Y-371404D01*
X-695908Y-371367D01*
X-695903Y-371363D01*
X-695894Y-371354D01*
X-695871Y-371340D01*
X-695848Y-371317D01*
X-695816Y-371289D01*
X-695779Y-371257D01*
X-695742Y-371215D01*
X-695695Y-371169D01*
X-695649Y-371118D01*
X-695603Y-371058D01*
X-695552Y-370993D01*
X-695506Y-370924D01*
X-695455Y-370845D01*
X-695409Y-370762D01*
X-695363Y-370674D01*
X-695321Y-370582D01*
Y-370577D01*
X-695312Y-370559D01*
X-695303Y-370526D01*
X-695289Y-370485D01*
X-695270Y-370434D01*
X-695252Y-370369D01*
X-695233Y-370290D01*
X-695215Y-370203D01*
X-695196Y-370106D01*
X-695173Y-369995D01*
X-695155Y-369870D01*
X-695141Y-369740D01*
X-695127Y-369597D01*
X-695113Y-369444D01*
X-695108Y-369278D01*
X-695104Y-369102D01*
X-695108Y-369107D01*
X-695118Y-369121D01*
X-695132Y-369144D01*
X-695155Y-369172D01*
X-695182Y-369209D01*
X-695215Y-369250D01*
X-695252Y-369296D01*
X-695298Y-369347D01*
X-695344Y-369398D01*
X-695395Y-369449D01*
X-695515Y-369555D01*
X-695645Y-369657D01*
X-695719Y-369703D01*
X-695792Y-369745D01*
X-695797Y-369750D01*
X-695811Y-369754D01*
X-695834Y-369763D01*
X-695862Y-369777D01*
X-695903Y-369796D01*
X-695945Y-369814D01*
X-695996Y-369833D01*
X-696056Y-369851D01*
X-696116Y-369870D01*
X-696186Y-369888D01*
X-696329Y-369925D01*
X-696491Y-369948D01*
X-696574Y-369958D01*
X-696694D01*
X-696736Y-369953D01*
X-696786Y-369948D01*
X-696856Y-369939D01*
X-696934Y-369925D01*
X-697022Y-369907D01*
X-697119Y-369884D01*
X-697221Y-369856D01*
X-697327Y-369814D01*
X-697438Y-369768D01*
X-697554Y-369713D01*
X-697665Y-369643D01*
X-697776Y-369569D01*
X-697887Y-369477D01*
X-697993Y-369375D01*
X-697998Y-369370D01*
X-698016Y-369347D01*
X-698044Y-369315D01*
X-698081Y-369269D01*
X-698122Y-369213D01*
X-698169Y-369144D01*
X-698220Y-369065D01*
X-698270Y-368973D01*
X-698321Y-368871D01*
X-698372Y-368756D01*
X-698418Y-368635D01*
X-698460Y-368501D01*
X-698497Y-368358D01*
X-698525Y-368210D01*
X-698543Y-368048D01*
X-698548Y-367882D01*
Y-367877D01*
Y-367854D01*
Y-367822D01*
X-698543Y-367780D01*
X-698539Y-367725D01*
X-698534Y-367665D01*
X-698525Y-367595D01*
X-698515Y-367517D01*
X-698502Y-367434D01*
X-698483Y-367346D01*
X-698465Y-367253D01*
X-698437Y-367156D01*
X-698404Y-367059D01*
X-698372Y-366962D01*
X-698330Y-366860D01*
X-698284Y-366763D01*
X-698280Y-366759D01*
X-698270Y-366740D01*
X-698257Y-366712D01*
X-698238Y-366680D01*
X-698210Y-366634D01*
X-698178Y-366583D01*
X-698141Y-366532D01*
X-698099Y-366472D01*
X-698048Y-366407D01*
X-697998Y-366343D01*
X-697937Y-366278D01*
X-697873Y-366213D01*
X-697808Y-366148D01*
X-697734Y-366084D01*
X-697655Y-366028D01*
X-697572Y-365973D01*
X-697568Y-365968D01*
X-697554Y-365959D01*
X-697526Y-365950D01*
X-697494Y-365931D01*
X-697448Y-365908D01*
X-697397Y-365885D01*
X-697341Y-365862D01*
X-697272Y-365839D01*
X-697203Y-365811D01*
X-697124Y-365788D01*
X-697036Y-365765D01*
X-696948Y-365742D01*
X-696851Y-365723D01*
X-696754Y-365714D01*
X-696648Y-365705D01*
X-696541Y-365700D01*
X-696500D01*
X-696477Y-365705D01*
D02*
G37*
G36*
X-693398Y-365316D02*
X-693375Y-365326D01*
X-693338Y-365339D01*
X-693287Y-365358D01*
X-693227Y-365386D01*
X-693153Y-365418D01*
X-693070Y-365460D01*
X-692977Y-365501D01*
X-692876Y-365557D01*
X-692769Y-365612D01*
X-692654Y-365677D01*
X-692538Y-365746D01*
X-692413Y-365825D01*
X-692288Y-365908D01*
X-692164Y-365996D01*
X-692034Y-366093D01*
X-692025Y-366088D01*
X-692002Y-366074D01*
X-691965Y-366056D01*
X-691909Y-366033D01*
X-691845Y-366001D01*
X-691761Y-365968D01*
X-691674Y-365931D01*
X-691572Y-365899D01*
X-691461Y-365862D01*
X-691336Y-365825D01*
X-691207Y-365792D01*
X-691073Y-365760D01*
X-690925Y-365737D01*
X-690777Y-365718D01*
X-690624Y-365705D01*
X-690462Y-365700D01*
X-690425D01*
X-690379Y-365705D01*
X-690314D01*
X-690240Y-365714D01*
X-690148Y-365723D01*
X-690051Y-365737D01*
X-689940Y-365751D01*
X-689820Y-365774D01*
X-689695Y-365802D01*
X-689566Y-365834D01*
X-689432Y-365876D01*
X-689293Y-365922D01*
X-689159Y-365977D01*
X-689020Y-366042D01*
X-688886Y-366116D01*
X-688877Y-366121D01*
X-688854Y-366134D01*
X-688817Y-366162D01*
X-688771Y-366195D01*
X-688710Y-366236D01*
X-688641Y-366287D01*
X-688567Y-366352D01*
X-688484Y-366421D01*
X-688396Y-366500D01*
X-688308Y-366588D01*
X-688220Y-366685D01*
X-688128Y-366791D01*
X-688040Y-366907D01*
X-687952Y-367027D01*
X-687869Y-367156D01*
X-687795Y-367295D01*
X-687790Y-367304D01*
X-687781Y-367327D01*
X-687758Y-367373D01*
X-687735Y-367429D01*
X-687707Y-367498D01*
X-687675Y-367586D01*
X-687643Y-367683D01*
X-687606Y-367794D01*
X-687569Y-367914D01*
X-687536Y-368044D01*
X-687504Y-368187D01*
X-687476Y-368335D01*
X-687453Y-368492D01*
X-687434Y-368659D01*
X-687421Y-368830D01*
X-687416Y-369005D01*
Y-369010D01*
Y-369015D01*
Y-369028D01*
Y-369047D01*
Y-369070D01*
X-687421Y-369098D01*
Y-369167D01*
X-687430Y-369246D01*
X-687434Y-369343D01*
X-687448Y-369454D01*
X-687462Y-369574D01*
X-687485Y-369703D01*
X-687508Y-369842D01*
X-687541Y-369981D01*
X-687578Y-370129D01*
X-687624Y-370277D01*
X-687675Y-370429D01*
X-687730Y-370577D01*
X-687800Y-370725D01*
X-687804Y-370734D01*
X-687818Y-370757D01*
X-687841Y-370799D01*
X-687869Y-370854D01*
X-687911Y-370919D01*
X-687957Y-370993D01*
X-688017Y-371076D01*
X-688082Y-371164D01*
X-688156Y-371257D01*
X-688234Y-371354D01*
X-688322Y-371455D01*
X-688424Y-371552D01*
X-688525Y-371650D01*
X-688641Y-371742D01*
X-688761Y-371830D01*
X-688891Y-371908D01*
X-688900Y-371913D01*
X-688923Y-371927D01*
X-688960Y-371945D01*
X-689016Y-371973D01*
X-689085Y-372001D01*
X-689163Y-372038D01*
X-689251Y-372075D01*
X-689358Y-372112D01*
X-689469Y-372149D01*
X-689589Y-372186D01*
X-689723Y-372223D01*
X-689862Y-372251D01*
X-690005Y-372278D01*
X-690157Y-372297D01*
X-690314Y-372311D01*
X-690476Y-372315D01*
X-690518D01*
X-690564Y-372311D01*
X-690624D01*
X-690703Y-372301D01*
X-690795Y-372292D01*
X-690897Y-372278D01*
X-691008Y-372264D01*
X-691128Y-372241D01*
X-691257Y-372214D01*
X-691392Y-372177D01*
X-691526Y-372140D01*
X-691664Y-372089D01*
X-691803Y-372033D01*
X-691942Y-371968D01*
X-692076Y-371894D01*
X-692085Y-371890D01*
X-692108Y-371876D01*
X-692145Y-371853D01*
X-692191Y-371816D01*
X-692251Y-371774D01*
X-692321Y-371724D01*
X-692395Y-371659D01*
X-692478Y-371589D01*
X-692566Y-371511D01*
X-692654Y-371423D01*
X-692746Y-371326D01*
X-692834Y-371220D01*
X-692922Y-371104D01*
X-693010Y-370984D01*
X-693088Y-370854D01*
X-693162Y-370716D01*
X-693167Y-370706D01*
X-693181Y-370683D01*
X-693199Y-370642D01*
X-693222Y-370582D01*
X-693250Y-370512D01*
X-693282Y-370424D01*
X-693315Y-370327D01*
X-693352Y-370216D01*
X-693384Y-370096D01*
X-693416Y-369967D01*
X-693449Y-369823D01*
X-693476Y-369676D01*
X-693504Y-369518D01*
X-693523Y-369357D01*
X-693532Y-369186D01*
X-693537Y-369010D01*
Y-369001D01*
Y-368973D01*
Y-368931D01*
X-693532Y-368876D01*
X-693527Y-368806D01*
X-693523Y-368728D01*
X-693518Y-368635D01*
X-693509Y-368534D01*
X-693495Y-368427D01*
X-693476Y-368316D01*
X-693458Y-368196D01*
X-693435Y-368076D01*
X-693407Y-367951D01*
X-693375Y-367831D01*
X-693338Y-367706D01*
X-693296Y-367586D01*
X-693292Y-367577D01*
X-693287Y-367558D01*
X-693273Y-367526D01*
X-693250Y-367480D01*
X-693227Y-367424D01*
X-693195Y-367364D01*
X-693158Y-367290D01*
X-693116Y-367216D01*
X-693065Y-367133D01*
X-693014Y-367045D01*
X-692954Y-366953D01*
X-692889Y-366860D01*
X-692820Y-366768D01*
X-692741Y-366675D01*
X-692658Y-366583D01*
X-692570Y-366495D01*
X-692575Y-366491D01*
X-692598Y-366477D01*
X-692626Y-366458D01*
X-692672Y-366430D01*
X-692723Y-366393D01*
X-692783Y-366356D01*
X-692852Y-366315D01*
X-692926Y-366269D01*
X-693010Y-366222D01*
X-693093Y-366171D01*
X-693278Y-366070D01*
X-693467Y-365977D01*
X-693564Y-365936D01*
X-693657Y-365899D01*
X-693407Y-365312D01*
X-693398Y-365316D01*
D02*
G37*
G36*
X-770379Y-365705D02*
X-770319Y-365709D01*
X-770245Y-365714D01*
X-770157Y-365728D01*
X-770060Y-365742D01*
X-769958Y-365760D01*
X-769847Y-365788D01*
X-769732Y-365820D01*
X-769611Y-365857D01*
X-769491Y-365903D01*
X-769376Y-365959D01*
X-769255Y-366024D01*
X-769144Y-366102D01*
X-769038Y-366185D01*
X-769034Y-366190D01*
X-769015Y-366208D01*
X-768987Y-366236D01*
X-768950Y-366273D01*
X-768909Y-366324D01*
X-768858Y-366384D01*
X-768807Y-366454D01*
X-768752Y-366532D01*
X-768696Y-366620D01*
X-768645Y-366717D01*
X-768590Y-366823D01*
X-768539Y-366939D01*
X-768497Y-367064D01*
X-768460Y-367198D01*
X-768428Y-367337D01*
X-768409Y-367484D01*
X-769232Y-367554D01*
Y-367549D01*
X-769237Y-367526D01*
X-769241Y-367498D01*
X-769251Y-367457D01*
X-769265Y-367406D01*
X-769278Y-367346D01*
X-769297Y-367281D01*
X-769320Y-367212D01*
X-769376Y-367068D01*
X-769408Y-366990D01*
X-769445Y-366916D01*
X-769491Y-366842D01*
X-769537Y-366772D01*
X-769593Y-366708D01*
X-769653Y-366648D01*
X-769658Y-366643D01*
X-769667Y-366634D01*
X-769685Y-366620D01*
X-769713Y-366601D01*
X-769745Y-366578D01*
X-769787Y-366551D01*
X-769829Y-366527D01*
X-769879Y-366500D01*
X-769935Y-366467D01*
X-770000Y-366444D01*
X-770064Y-366417D01*
X-770138Y-366393D01*
X-770212Y-366375D01*
X-770291Y-366361D01*
X-770374Y-366352D01*
X-770462Y-366347D01*
X-770490D01*
X-770517Y-366352D01*
X-770559D01*
X-770605Y-366361D01*
X-770665Y-366370D01*
X-770730Y-366384D01*
X-770799Y-366403D01*
X-770873Y-366421D01*
X-770952Y-366449D01*
X-771031Y-366486D01*
X-771114Y-366527D01*
X-771192Y-366574D01*
X-771275Y-366634D01*
X-771354Y-366698D01*
X-771428Y-366772D01*
X-771433Y-366777D01*
X-771447Y-366791D01*
X-771465Y-366819D01*
X-771488Y-366851D01*
X-771520Y-366893D01*
X-771553Y-366944D01*
X-771590Y-367004D01*
X-771627Y-367073D01*
X-771659Y-367151D01*
X-771696Y-367235D01*
X-771729Y-367327D01*
X-771761Y-367429D01*
X-771784Y-367540D01*
X-771803Y-367655D01*
X-771816Y-367776D01*
X-771821Y-367905D01*
Y-367914D01*
Y-367933D01*
X-771816Y-367970D01*
Y-368016D01*
X-771812Y-368072D01*
X-771803Y-368141D01*
X-771789Y-368210D01*
X-771775Y-368293D01*
X-771752Y-368377D01*
X-771729Y-368460D01*
X-771696Y-368548D01*
X-771659Y-368640D01*
X-771618Y-368728D01*
X-771567Y-368811D01*
X-771507Y-368894D01*
X-771442Y-368968D01*
X-771437Y-368973D01*
X-771423Y-368987D01*
X-771405Y-369005D01*
X-771373Y-369028D01*
X-771336Y-369061D01*
X-771289Y-369093D01*
X-771238Y-369126D01*
X-771178Y-369162D01*
X-771109Y-369199D01*
X-771035Y-369232D01*
X-770956Y-369269D01*
X-770869Y-369296D01*
X-770772Y-369320D01*
X-770670Y-369338D01*
X-770564Y-369352D01*
X-770453Y-369357D01*
X-770416D01*
X-770388Y-369352D01*
X-770356D01*
X-770314Y-369347D01*
X-770272Y-369343D01*
X-770221Y-369333D01*
X-770115Y-369315D01*
X-770000Y-369283D01*
X-769879Y-369241D01*
X-769764Y-369181D01*
X-769759D01*
X-769750Y-369172D01*
X-769736Y-369162D01*
X-769713Y-369149D01*
X-769658Y-369112D01*
X-769588Y-369061D01*
X-769514Y-368996D01*
X-769436Y-368922D01*
X-769357Y-368834D01*
X-769288Y-368737D01*
X-768548Y-368834D01*
X-769167Y-372121D01*
X-772353D01*
Y-371372D01*
X-769792D01*
X-769449Y-369648D01*
X-769454Y-369652D01*
X-769477Y-369666D01*
X-769505Y-369685D01*
X-769551Y-369713D01*
X-769602Y-369740D01*
X-769662Y-369777D01*
X-769736Y-369810D01*
X-769815Y-369851D01*
X-769902Y-369888D01*
X-769995Y-369925D01*
X-770097Y-369958D01*
X-770198Y-369985D01*
X-770309Y-370013D01*
X-770420Y-370032D01*
X-770540Y-370045D01*
X-770656Y-370050D01*
X-770693D01*
X-770739Y-370045D01*
X-770795Y-370041D01*
X-770869Y-370032D01*
X-770952Y-370018D01*
X-771049Y-369999D01*
X-771151Y-369976D01*
X-771257Y-369948D01*
X-771373Y-369907D01*
X-771488Y-369860D01*
X-771608Y-369805D01*
X-771729Y-369736D01*
X-771849Y-369662D01*
X-771964Y-369569D01*
X-772075Y-369468D01*
X-772080Y-369463D01*
X-772098Y-369440D01*
X-772131Y-369408D01*
X-772168Y-369361D01*
X-772209Y-369306D01*
X-772260Y-369236D01*
X-772311Y-369153D01*
X-772366Y-369061D01*
X-772417Y-368959D01*
X-772468Y-368848D01*
X-772519Y-368723D01*
X-772565Y-368594D01*
X-772598Y-368451D01*
X-772630Y-368298D01*
X-772648Y-368141D01*
X-772653Y-367974D01*
Y-367970D01*
Y-367965D01*
Y-367951D01*
Y-367937D01*
X-772648Y-367891D01*
X-772644Y-367831D01*
X-772639Y-367752D01*
X-772625Y-367665D01*
X-772611Y-367568D01*
X-772588Y-367461D01*
X-772561Y-367346D01*
X-772528Y-367225D01*
X-772487Y-367101D01*
X-772440Y-366976D01*
X-772380Y-366846D01*
X-772311Y-366722D01*
X-772232Y-366597D01*
X-772145Y-366477D01*
X-772135Y-366467D01*
X-772117Y-366444D01*
X-772080Y-366407D01*
X-772034Y-366356D01*
X-771969Y-366296D01*
X-771895Y-366232D01*
X-771807Y-366162D01*
X-771705Y-366088D01*
X-771590Y-366014D01*
X-771465Y-365945D01*
X-771326Y-365880D01*
X-771174Y-365820D01*
X-771012Y-365774D01*
X-770841Y-365732D01*
X-770656Y-365709D01*
X-770462Y-365700D01*
X-770425D01*
X-770379Y-365705D01*
D02*
G37*
G36*
X-767452Y-365316D02*
X-767429Y-365326D01*
X-767392Y-365339D01*
X-767342Y-365358D01*
X-767281Y-365386D01*
X-767207Y-365418D01*
X-767124Y-365460D01*
X-767032Y-365501D01*
X-766930Y-365557D01*
X-766824Y-365612D01*
X-766708Y-365677D01*
X-766593Y-365746D01*
X-766468Y-365825D01*
X-766343Y-365908D01*
X-766218Y-365996D01*
X-766089Y-366093D01*
X-766079Y-366088D01*
X-766056Y-366074D01*
X-766019Y-366056D01*
X-765964Y-366033D01*
X-765899Y-366001D01*
X-765816Y-365968D01*
X-765728Y-365931D01*
X-765627Y-365899D01*
X-765516Y-365862D01*
X-765391Y-365825D01*
X-765261Y-365792D01*
X-765127Y-365760D01*
X-764979Y-365737D01*
X-764831Y-365718D01*
X-764679Y-365705D01*
X-764517Y-365700D01*
X-764480D01*
X-764434Y-365705D01*
X-764369D01*
X-764295Y-365714D01*
X-764203Y-365723D01*
X-764106Y-365737D01*
X-763995Y-365751D01*
X-763874Y-365774D01*
X-763750Y-365802D01*
X-763620Y-365834D01*
X-763486Y-365876D01*
X-763347Y-365922D01*
X-763213Y-365977D01*
X-763075Y-366042D01*
X-762941Y-366116D01*
X-762931Y-366121D01*
X-762908Y-366134D01*
X-762871Y-366162D01*
X-762825Y-366195D01*
X-762765Y-366236D01*
X-762696Y-366287D01*
X-762622Y-366352D01*
X-762538Y-366421D01*
X-762451Y-366500D01*
X-762363Y-366588D01*
X-762275Y-366685D01*
X-762182Y-366791D01*
X-762095Y-366907D01*
X-762007Y-367027D01*
X-761924Y-367156D01*
X-761850Y-367295D01*
X-761845Y-367304D01*
X-761836Y-367327D01*
X-761813Y-367373D01*
X-761789Y-367429D01*
X-761762Y-367498D01*
X-761729Y-367586D01*
X-761697Y-367683D01*
X-761660Y-367794D01*
X-761623Y-367914D01*
X-761591Y-368044D01*
X-761558Y-368187D01*
X-761531Y-368335D01*
X-761507Y-368492D01*
X-761489Y-368659D01*
X-761475Y-368830D01*
X-761471Y-369005D01*
Y-369010D01*
Y-369015D01*
Y-369028D01*
Y-369047D01*
Y-369070D01*
X-761475Y-369098D01*
Y-369167D01*
X-761484Y-369246D01*
X-761489Y-369343D01*
X-761503Y-369454D01*
X-761517Y-369574D01*
X-761540Y-369703D01*
X-761563Y-369842D01*
X-761595Y-369981D01*
X-761632Y-370129D01*
X-761679Y-370277D01*
X-761729Y-370429D01*
X-761785Y-370577D01*
X-761854Y-370725D01*
X-761859Y-370734D01*
X-761873Y-370757D01*
X-761896Y-370799D01*
X-761924Y-370854D01*
X-761965Y-370919D01*
X-762011Y-370993D01*
X-762072Y-371076D01*
X-762136Y-371164D01*
X-762210Y-371257D01*
X-762289Y-371354D01*
X-762377Y-371455D01*
X-762478Y-371552D01*
X-762580Y-371650D01*
X-762696Y-371742D01*
X-762816Y-371830D01*
X-762945Y-371908D01*
X-762954Y-371913D01*
X-762978Y-371927D01*
X-763015Y-371945D01*
X-763070Y-371973D01*
X-763139Y-372001D01*
X-763218Y-372038D01*
X-763306Y-372075D01*
X-763412Y-372112D01*
X-763523Y-372149D01*
X-763643Y-372186D01*
X-763777Y-372223D01*
X-763916Y-372251D01*
X-764059Y-372278D01*
X-764212Y-372297D01*
X-764369Y-372311D01*
X-764531Y-372315D01*
X-764573D01*
X-764619Y-372311D01*
X-764679D01*
X-764757Y-372301D01*
X-764850Y-372292D01*
X-764951Y-372278D01*
X-765062Y-372264D01*
X-765183Y-372241D01*
X-765312Y-372214D01*
X-765446Y-372177D01*
X-765580Y-372140D01*
X-765719Y-372089D01*
X-765858Y-372033D01*
X-765996Y-371968D01*
X-766130Y-371894D01*
X-766140Y-371890D01*
X-766163Y-371876D01*
X-766200Y-371853D01*
X-766246Y-371816D01*
X-766306Y-371774D01*
X-766375Y-371724D01*
X-766449Y-371659D01*
X-766533Y-371589D01*
X-766620Y-371511D01*
X-766708Y-371423D01*
X-766801Y-371326D01*
X-766889Y-371220D01*
X-766976Y-371104D01*
X-767064Y-370984D01*
X-767143Y-370854D01*
X-767217Y-370716D01*
X-767221Y-370706D01*
X-767235Y-370683D01*
X-767254Y-370642D01*
X-767277Y-370582D01*
X-767305Y-370512D01*
X-767337Y-370424D01*
X-767369Y-370327D01*
X-767406Y-370216D01*
X-767439Y-370096D01*
X-767471Y-369967D01*
X-767503Y-369823D01*
X-767531Y-369676D01*
X-767559Y-369518D01*
X-767577Y-369357D01*
X-767587Y-369186D01*
X-767591Y-369010D01*
Y-369001D01*
Y-368973D01*
Y-368931D01*
X-767587Y-368876D01*
X-767582Y-368806D01*
X-767577Y-368728D01*
X-767573Y-368635D01*
X-767563Y-368534D01*
X-767550Y-368427D01*
X-767531Y-368316D01*
X-767513Y-368196D01*
X-767489Y-368076D01*
X-767462Y-367951D01*
X-767429Y-367831D01*
X-767392Y-367706D01*
X-767351Y-367586D01*
X-767346Y-367577D01*
X-767342Y-367558D01*
X-767328Y-367526D01*
X-767305Y-367480D01*
X-767281Y-367424D01*
X-767249Y-367364D01*
X-767212Y-367290D01*
X-767170Y-367216D01*
X-767120Y-367133D01*
X-767069Y-367045D01*
X-767009Y-366953D01*
X-766944Y-366860D01*
X-766875Y-366768D01*
X-766796Y-366675D01*
X-766713Y-366583D01*
X-766625Y-366495D01*
X-766630Y-366491D01*
X-766653Y-366477D01*
X-766681Y-366458D01*
X-766727Y-366430D01*
X-766777Y-366393D01*
X-766838Y-366356D01*
X-766907Y-366315D01*
X-766981Y-366269D01*
X-767064Y-366222D01*
X-767147Y-366171D01*
X-767332Y-366070D01*
X-767522Y-365977D01*
X-767619Y-365936D01*
X-767711Y-365899D01*
X-767462Y-365312D01*
X-767452Y-365316D01*
D02*
G37*
G36*
X-770188Y-504158D02*
X-770183Y-504154D01*
X-770174Y-504144D01*
X-770160Y-504130D01*
X-770137Y-504112D01*
X-770109Y-504089D01*
X-770072Y-504057D01*
X-770030Y-504024D01*
X-769989Y-503987D01*
X-769933Y-503950D01*
X-769878Y-503904D01*
X-769818Y-503862D01*
X-769753Y-503811D01*
X-769679Y-503765D01*
X-769605Y-503714D01*
X-769439Y-503613D01*
X-769434Y-503608D01*
X-769420Y-503599D01*
X-769392Y-503585D01*
X-769360Y-503571D01*
X-769323Y-503548D01*
X-769277Y-503520D01*
X-769221Y-503493D01*
X-769166Y-503460D01*
X-769036Y-503395D01*
X-768898Y-503331D01*
X-768755Y-503266D01*
X-768616Y-503210D01*
Y-503969D01*
X-768625Y-503973D01*
X-768643Y-503983D01*
X-768680Y-504001D01*
X-768727Y-504024D01*
X-768782Y-504052D01*
X-768851Y-504089D01*
X-768925Y-504130D01*
X-769004Y-504177D01*
X-769092Y-504232D01*
X-769184Y-504288D01*
X-769379Y-504417D01*
X-769577Y-504560D01*
X-769767Y-504717D01*
X-769771Y-504722D01*
X-769790Y-504736D01*
X-769813Y-504759D01*
X-769846Y-504791D01*
X-769887Y-504833D01*
X-769933Y-504879D01*
X-769984Y-504935D01*
X-770040Y-504990D01*
X-770095Y-505055D01*
X-770155Y-505124D01*
X-770271Y-505268D01*
X-770377Y-505420D01*
X-770423Y-505499D01*
X-770465Y-505577D01*
X-770973D01*
Y-499156D01*
X-770188D01*
Y-504158D01*
D02*
G37*
G36*
X-775157D02*
X-775152Y-504154D01*
X-775143Y-504144D01*
X-775129Y-504130D01*
X-775106Y-504112D01*
X-775079Y-504089D01*
X-775042Y-504057D01*
X-775000Y-504024D01*
X-774958Y-503987D01*
X-774903Y-503950D01*
X-774847Y-503904D01*
X-774787Y-503862D01*
X-774723Y-503811D01*
X-774649Y-503765D01*
X-774575Y-503714D01*
X-774408Y-503613D01*
X-774404Y-503608D01*
X-774390Y-503599D01*
X-774362Y-503585D01*
X-774330Y-503571D01*
X-774293Y-503548D01*
X-774246Y-503520D01*
X-774191Y-503493D01*
X-774135Y-503460D01*
X-774006Y-503395D01*
X-773867Y-503331D01*
X-773724Y-503266D01*
X-773585Y-503210D01*
Y-503969D01*
X-773595Y-503973D01*
X-773613Y-503983D01*
X-773650Y-504001D01*
X-773696Y-504024D01*
X-773752Y-504052D01*
X-773821Y-504089D01*
X-773895Y-504130D01*
X-773974Y-504177D01*
X-774061Y-504232D01*
X-774154Y-504288D01*
X-774348Y-504417D01*
X-774547Y-504560D01*
X-774736Y-504717D01*
X-774741Y-504722D01*
X-774760Y-504736D01*
X-774783Y-504759D01*
X-774815Y-504791D01*
X-774857Y-504833D01*
X-774903Y-504879D01*
X-774954Y-504935D01*
X-775009Y-504990D01*
X-775065Y-505055D01*
X-775125Y-505124D01*
X-775240Y-505268D01*
X-775347Y-505420D01*
X-775393Y-505499D01*
X-775434Y-505577D01*
X-775943D01*
Y-499156D01*
X-775157D01*
Y-504158D01*
D02*
G37*
G36*
X-767058Y-498666D02*
X-767035Y-498675D01*
X-766998Y-498689D01*
X-766947Y-498708D01*
X-766887Y-498736D01*
X-766813Y-498768D01*
X-766730Y-498810D01*
X-766637Y-498851D01*
X-766535Y-498907D01*
X-766429Y-498962D01*
X-766314Y-499027D01*
X-766198Y-499096D01*
X-766073Y-499175D01*
X-765948Y-499258D01*
X-765824Y-499346D01*
X-765694Y-499443D01*
X-765685Y-499438D01*
X-765662Y-499424D01*
X-765625Y-499406D01*
X-765569Y-499383D01*
X-765505Y-499351D01*
X-765421Y-499318D01*
X-765334Y-499281D01*
X-765232Y-499249D01*
X-765121Y-499212D01*
X-764996Y-499175D01*
X-764867Y-499142D01*
X-764733Y-499110D01*
X-764585Y-499087D01*
X-764437Y-499068D01*
X-764284Y-499055D01*
X-764122Y-499050D01*
X-764085D01*
X-764039Y-499055D01*
X-763975D01*
X-763901Y-499064D01*
X-763808Y-499073D01*
X-763711Y-499087D01*
X-763600Y-499101D01*
X-763480Y-499124D01*
X-763355Y-499152D01*
X-763226Y-499184D01*
X-763092Y-499226D01*
X-762953Y-499272D01*
X-762819Y-499327D01*
X-762680Y-499392D01*
X-762546Y-499466D01*
X-762537Y-499471D01*
X-762514Y-499484D01*
X-762477Y-499512D01*
X-762430Y-499545D01*
X-762370Y-499586D01*
X-762301Y-499637D01*
X-762227Y-499702D01*
X-762144Y-499771D01*
X-762056Y-499850D01*
X-761968Y-499938D01*
X-761880Y-500035D01*
X-761788Y-500141D01*
X-761700Y-500257D01*
X-761612Y-500377D01*
X-761529Y-500506D01*
X-761455Y-500645D01*
X-761450Y-500654D01*
X-761441Y-500677D01*
X-761418Y-500723D01*
X-761395Y-500779D01*
X-761367Y-500848D01*
X-761335Y-500936D01*
X-761302Y-501033D01*
X-761265Y-501144D01*
X-761229Y-501264D01*
X-761196Y-501394D01*
X-761164Y-501537D01*
X-761136Y-501685D01*
X-761113Y-501842D01*
X-761095Y-502009D01*
X-761081Y-502180D01*
X-761076Y-502355D01*
Y-502360D01*
Y-502365D01*
Y-502378D01*
Y-502397D01*
Y-502420D01*
X-761081Y-502448D01*
Y-502517D01*
X-761090Y-502596D01*
X-761095Y-502693D01*
X-761108Y-502804D01*
X-761122Y-502924D01*
X-761145Y-503053D01*
X-761169Y-503192D01*
X-761201Y-503331D01*
X-761238Y-503479D01*
X-761284Y-503627D01*
X-761335Y-503779D01*
X-761390Y-503927D01*
X-761460Y-504075D01*
X-761464Y-504084D01*
X-761478Y-504107D01*
X-761501Y-504149D01*
X-761529Y-504204D01*
X-761571Y-504269D01*
X-761617Y-504343D01*
X-761677Y-504426D01*
X-761742Y-504514D01*
X-761816Y-504607D01*
X-761894Y-504704D01*
X-761982Y-504805D01*
X-762084Y-504902D01*
X-762186Y-505000D01*
X-762301Y-505092D01*
X-762421Y-505180D01*
X-762551Y-505258D01*
X-762560Y-505263D01*
X-762583Y-505277D01*
X-762620Y-505295D01*
X-762675Y-505323D01*
X-762745Y-505351D01*
X-762823Y-505388D01*
X-762911Y-505425D01*
X-763018Y-505462D01*
X-763129Y-505499D01*
X-763249Y-505536D01*
X-763383Y-505573D01*
X-763521Y-505601D01*
X-763665Y-505628D01*
X-763817Y-505647D01*
X-763975Y-505661D01*
X-764136Y-505665D01*
X-764178D01*
X-764224Y-505661D01*
X-764284D01*
X-764363Y-505651D01*
X-764455Y-505642D01*
X-764557Y-505628D01*
X-764668Y-505614D01*
X-764788Y-505591D01*
X-764918Y-505564D01*
X-765052Y-505527D01*
X-765186Y-505490D01*
X-765324Y-505439D01*
X-765463Y-505383D01*
X-765602Y-505318D01*
X-765736Y-505244D01*
X-765745Y-505240D01*
X-765768Y-505226D01*
X-765805Y-505203D01*
X-765851Y-505166D01*
X-765911Y-505124D01*
X-765981Y-505074D01*
X-766055Y-505009D01*
X-766138Y-504939D01*
X-766226Y-504861D01*
X-766314Y-504773D01*
X-766406Y-504676D01*
X-766494Y-504570D01*
X-766582Y-504454D01*
X-766670Y-504334D01*
X-766748Y-504204D01*
X-766822Y-504066D01*
X-766827Y-504057D01*
X-766841Y-504033D01*
X-766859Y-503992D01*
X-766882Y-503932D01*
X-766910Y-503862D01*
X-766942Y-503774D01*
X-766975Y-503677D01*
X-767012Y-503567D01*
X-767044Y-503446D01*
X-767076Y-503317D01*
X-767109Y-503173D01*
X-767137Y-503026D01*
X-767164Y-502868D01*
X-767183Y-502707D01*
X-767192Y-502536D01*
X-767197Y-502360D01*
Y-502351D01*
Y-502323D01*
Y-502281D01*
X-767192Y-502226D01*
X-767187Y-502156D01*
X-767183Y-502078D01*
X-767178Y-501986D01*
X-767169Y-501884D01*
X-767155Y-501777D01*
X-767137Y-501666D01*
X-767118Y-501546D01*
X-767095Y-501426D01*
X-767067Y-501301D01*
X-767035Y-501181D01*
X-766998Y-501056D01*
X-766956Y-500936D01*
X-766952Y-500927D01*
X-766947Y-500908D01*
X-766933Y-500876D01*
X-766910Y-500830D01*
X-766887Y-500774D01*
X-766854Y-500714D01*
X-766817Y-500640D01*
X-766776Y-500566D01*
X-766725Y-500483D01*
X-766674Y-500395D01*
X-766614Y-500303D01*
X-766549Y-500210D01*
X-766480Y-500118D01*
X-766402Y-500025D01*
X-766318Y-499933D01*
X-766230Y-499845D01*
X-766235Y-499841D01*
X-766258Y-499827D01*
X-766286Y-499808D01*
X-766332Y-499780D01*
X-766383Y-499743D01*
X-766443Y-499706D01*
X-766512Y-499665D01*
X-766586Y-499619D01*
X-766670Y-499572D01*
X-766753Y-499521D01*
X-766938Y-499420D01*
X-767127Y-499327D01*
X-767224Y-499286D01*
X-767317Y-499249D01*
X-767067Y-498662D01*
X-767058Y-498666D01*
D02*
G37*
%LPC*%
G36*
X-690481Y-499776D02*
X-690527D01*
X-690559Y-499780D01*
X-690601D01*
X-690647Y-499785D01*
X-690703Y-499790D01*
X-690758Y-499799D01*
X-690823Y-499804D01*
X-690892Y-499817D01*
X-691036Y-499845D01*
X-691184Y-499887D01*
X-691336Y-499942D01*
X-691331Y-499947D01*
X-691318Y-499951D01*
X-691299Y-499965D01*
X-691267Y-499984D01*
X-691230Y-500007D01*
X-691188Y-500030D01*
X-691137Y-500058D01*
X-691087Y-500085D01*
X-691026Y-500113D01*
X-690957Y-500146D01*
X-690818Y-500206D01*
X-690661Y-500261D01*
X-690499Y-500307D01*
X-690707Y-500927D01*
X-690717D01*
X-690740Y-500918D01*
X-690777Y-500904D01*
X-690828Y-500890D01*
X-690892Y-500867D01*
X-690962Y-500839D01*
X-691045Y-500807D01*
X-691133Y-500774D01*
X-691225Y-500733D01*
X-691322Y-500686D01*
X-691424Y-500636D01*
X-691526Y-500580D01*
X-691627Y-500520D01*
X-691724Y-500455D01*
X-691822Y-500386D01*
X-691914Y-500312D01*
X-691923Y-500321D01*
X-691946Y-500344D01*
X-691983Y-500386D01*
X-692030Y-500441D01*
X-692090Y-500511D01*
X-692150Y-500599D01*
X-692219Y-500705D01*
X-692288Y-500821D01*
X-692358Y-500959D01*
X-692427Y-501112D01*
X-692487Y-501278D01*
X-692547Y-501463D01*
X-692594Y-501662D01*
X-692630Y-501875D01*
X-692654Y-502106D01*
X-692663Y-502355D01*
Y-502365D01*
Y-502388D01*
Y-502429D01*
X-692658Y-502485D01*
X-692654Y-502554D01*
X-692649Y-502633D01*
X-692640Y-502720D01*
X-692630Y-502818D01*
X-692617Y-502919D01*
X-692598Y-503026D01*
X-692575Y-503141D01*
X-692552Y-503257D01*
X-692520Y-503372D01*
X-692483Y-503488D01*
X-692441Y-503599D01*
X-692395Y-503710D01*
X-692390Y-503714D01*
X-692381Y-503737D01*
X-692367Y-503765D01*
X-692344Y-503807D01*
X-692316Y-503853D01*
X-692284Y-503913D01*
X-692247Y-503973D01*
X-692201Y-504043D01*
X-692150Y-504112D01*
X-692090Y-504186D01*
X-692030Y-504260D01*
X-691960Y-504334D01*
X-691882Y-504408D01*
X-691803Y-504482D01*
X-691715Y-504547D01*
X-691623Y-504611D01*
X-691618Y-504616D01*
X-691600Y-504625D01*
X-691572Y-504639D01*
X-691535Y-504662D01*
X-691484Y-504685D01*
X-691429Y-504713D01*
X-691364Y-504745D01*
X-691290Y-504773D01*
X-691207Y-504805D01*
X-691119Y-504833D01*
X-691026Y-504861D01*
X-690925Y-504884D01*
X-690823Y-504907D01*
X-690712Y-504921D01*
X-690596Y-504930D01*
X-690481Y-504935D01*
X-690439D01*
X-690388Y-504930D01*
X-690324Y-504926D01*
X-690245Y-504916D01*
X-690148Y-504902D01*
X-690046Y-504879D01*
X-689931Y-504856D01*
X-689811Y-504819D01*
X-689686Y-504778D01*
X-689552Y-504727D01*
X-689422Y-504662D01*
X-689288Y-504588D01*
X-689159Y-504500D01*
X-689034Y-504403D01*
X-688914Y-504288D01*
X-688909Y-504278D01*
X-688886Y-504255D01*
X-688858Y-504218D01*
X-688817Y-504167D01*
X-688771Y-504098D01*
X-688715Y-504015D01*
X-688660Y-503918D01*
X-688604Y-503802D01*
X-688544Y-503673D01*
X-688488Y-503530D01*
X-688433Y-503372D01*
X-688387Y-503201D01*
X-688345Y-503012D01*
X-688317Y-502808D01*
X-688299Y-502591D01*
X-688290Y-502355D01*
Y-502351D01*
Y-502341D01*
Y-502323D01*
Y-502300D01*
X-688294Y-502272D01*
Y-502235D01*
Y-502193D01*
X-688299Y-502152D01*
X-688304Y-502101D01*
X-688308Y-502046D01*
X-688322Y-501925D01*
X-688341Y-501791D01*
X-688368Y-501648D01*
X-688401Y-501495D01*
X-688442Y-501338D01*
X-688488Y-501181D01*
X-688549Y-501019D01*
X-688618Y-500867D01*
X-688701Y-500714D01*
X-688798Y-500571D01*
X-688904Y-500441D01*
X-688914Y-500432D01*
X-688932Y-500414D01*
X-688969Y-500381D01*
X-689016Y-500340D01*
X-689076Y-500289D01*
X-689149Y-500229D01*
X-689237Y-500169D01*
X-689334Y-500109D01*
X-689441Y-500048D01*
X-689561Y-499988D01*
X-689690Y-499928D01*
X-689829Y-499882D01*
X-689982Y-499836D01*
X-690139Y-499804D01*
X-690305Y-499785D01*
X-690481Y-499776D01*
D02*
G37*
G36*
X-701409Y-455247D02*
X-701432D01*
X-701460Y-455252D01*
X-701497Y-455256D01*
X-701543Y-455261D01*
X-701599Y-455275D01*
X-701659Y-455289D01*
X-701724Y-455312D01*
X-701793Y-455340D01*
X-701867Y-455372D01*
X-701941Y-455414D01*
X-702019Y-455464D01*
X-702093Y-455524D01*
X-702172Y-455594D01*
X-702246Y-455672D01*
X-702315Y-455765D01*
X-702320Y-455770D01*
X-702329Y-455793D01*
X-702348Y-455825D01*
X-702375Y-455871D01*
X-702403Y-455936D01*
X-702431Y-456015D01*
X-702468Y-456107D01*
X-702500Y-456223D01*
X-702519Y-456287D01*
X-702533Y-456357D01*
X-702551Y-456426D01*
X-702570Y-456505D01*
X-702583Y-456588D01*
X-702597Y-456676D01*
X-702616Y-456768D01*
X-702630Y-456870D01*
X-702639Y-456972D01*
X-702653Y-457082D01*
X-702662Y-457198D01*
X-702671Y-457318D01*
X-702676Y-457443D01*
X-702681Y-457577D01*
X-702685Y-457716D01*
Y-457859D01*
Y-457864D01*
Y-457878D01*
Y-457901D01*
Y-457928D01*
Y-457965D01*
Y-458007D01*
X-702681Y-458058D01*
Y-458113D01*
X-702676Y-458173D01*
Y-458243D01*
X-702667Y-458386D01*
X-702653Y-458543D01*
X-702639Y-458714D01*
X-702620Y-458885D01*
X-702597Y-459061D01*
X-702565Y-459237D01*
X-702528Y-459408D01*
X-702486Y-459570D01*
X-702436Y-459713D01*
X-702408Y-459782D01*
X-702380Y-459842D01*
X-702348Y-459902D01*
X-702315Y-459953D01*
X-702311Y-459958D01*
X-702297Y-459976D01*
X-702278Y-459999D01*
X-702251Y-460036D01*
X-702214Y-460073D01*
X-702172Y-460120D01*
X-702121Y-460166D01*
X-702066Y-460217D01*
X-702001Y-460263D01*
X-701932Y-460309D01*
X-701858Y-460355D01*
X-701774Y-460392D01*
X-701687Y-460429D01*
X-701599Y-460452D01*
X-701502Y-460471D01*
X-701400Y-460476D01*
X-701377D01*
X-701349Y-460471D01*
X-701312Y-460466D01*
X-701266Y-460462D01*
X-701210Y-460452D01*
X-701155Y-460439D01*
X-701090Y-460420D01*
X-701021Y-460392D01*
X-700952Y-460365D01*
X-700878Y-460328D01*
X-700808Y-460281D01*
X-700734Y-460231D01*
X-700665Y-460171D01*
X-700600Y-460097D01*
X-700536Y-460018D01*
X-700531Y-460013D01*
X-700517Y-459990D01*
X-700499Y-459953D01*
X-700471Y-459902D01*
X-700443Y-459833D01*
X-700411Y-459750D01*
X-700374Y-459648D01*
X-700337Y-459528D01*
X-700314Y-459463D01*
X-700295Y-459389D01*
X-700277Y-459315D01*
X-700263Y-459232D01*
X-700244Y-459149D01*
X-700226Y-459056D01*
X-700212Y-458959D01*
X-700198Y-458858D01*
X-700184Y-458751D01*
X-700170Y-458640D01*
X-700161Y-458525D01*
X-700152Y-458405D01*
X-700143Y-458275D01*
X-700138Y-458141D01*
X-700133Y-458002D01*
Y-457859D01*
Y-457854D01*
Y-457841D01*
Y-457822D01*
Y-457790D01*
Y-457753D01*
X-700138Y-457711D01*
Y-457660D01*
Y-457605D01*
X-700143Y-457545D01*
Y-457480D01*
X-700152Y-457332D01*
X-700166Y-457175D01*
X-700180Y-457009D01*
X-700198Y-456833D01*
X-700221Y-456657D01*
X-700254Y-456482D01*
X-700286Y-456310D01*
X-700328Y-456149D01*
X-700378Y-456005D01*
X-700406Y-455936D01*
X-700434Y-455876D01*
X-700466Y-455816D01*
X-700499Y-455765D01*
X-700503Y-455760D01*
X-700517Y-455742D01*
X-700536Y-455719D01*
X-700563Y-455686D01*
X-700600Y-455645D01*
X-700647Y-455603D01*
X-700693Y-455552D01*
X-700753Y-455506D01*
X-700813Y-455460D01*
X-700882Y-455409D01*
X-700956Y-455367D01*
X-701039Y-455330D01*
X-701123Y-455293D01*
X-701215Y-455270D01*
X-701312Y-455252D01*
X-701409Y-455247D01*
D02*
G37*
G36*
X-690481Y-455326D02*
X-690527D01*
X-690559Y-455330D01*
X-690601D01*
X-690647Y-455335D01*
X-690703Y-455340D01*
X-690758Y-455349D01*
X-690823Y-455354D01*
X-690892Y-455367D01*
X-691036Y-455395D01*
X-691184Y-455437D01*
X-691336Y-455492D01*
X-691331Y-455497D01*
X-691318Y-455501D01*
X-691299Y-455515D01*
X-691267Y-455534D01*
X-691230Y-455557D01*
X-691188Y-455580D01*
X-691137Y-455608D01*
X-691087Y-455635D01*
X-691026Y-455663D01*
X-690957Y-455696D01*
X-690818Y-455756D01*
X-690661Y-455811D01*
X-690499Y-455857D01*
X-690707Y-456477D01*
X-690717D01*
X-690740Y-456468D01*
X-690777Y-456454D01*
X-690828Y-456440D01*
X-690892Y-456417D01*
X-690962Y-456389D01*
X-691045Y-456357D01*
X-691133Y-456324D01*
X-691225Y-456283D01*
X-691322Y-456236D01*
X-691424Y-456186D01*
X-691526Y-456130D01*
X-691627Y-456070D01*
X-691724Y-456005D01*
X-691822Y-455936D01*
X-691914Y-455862D01*
X-691923Y-455871D01*
X-691946Y-455894D01*
X-691983Y-455936D01*
X-692030Y-455991D01*
X-692090Y-456061D01*
X-692150Y-456149D01*
X-692219Y-456255D01*
X-692288Y-456371D01*
X-692358Y-456509D01*
X-692427Y-456662D01*
X-692487Y-456828D01*
X-692547Y-457013D01*
X-692594Y-457212D01*
X-692630Y-457425D01*
X-692654Y-457656D01*
X-692663Y-457905D01*
Y-457915D01*
Y-457938D01*
Y-457979D01*
X-692658Y-458035D01*
X-692654Y-458104D01*
X-692649Y-458183D01*
X-692640Y-458270D01*
X-692630Y-458368D01*
X-692617Y-458469D01*
X-692598Y-458576D01*
X-692575Y-458691D01*
X-692552Y-458807D01*
X-692520Y-458922D01*
X-692483Y-459038D01*
X-692441Y-459149D01*
X-692395Y-459260D01*
X-692390Y-459264D01*
X-692381Y-459287D01*
X-692367Y-459315D01*
X-692344Y-459357D01*
X-692316Y-459403D01*
X-692284Y-459463D01*
X-692247Y-459523D01*
X-692201Y-459593D01*
X-692150Y-459662D01*
X-692090Y-459736D01*
X-692030Y-459810D01*
X-691960Y-459884D01*
X-691882Y-459958D01*
X-691803Y-460032D01*
X-691715Y-460097D01*
X-691623Y-460161D01*
X-691618Y-460166D01*
X-691600Y-460175D01*
X-691572Y-460189D01*
X-691535Y-460212D01*
X-691484Y-460235D01*
X-691429Y-460263D01*
X-691364Y-460295D01*
X-691290Y-460323D01*
X-691207Y-460355D01*
X-691119Y-460383D01*
X-691026Y-460411D01*
X-690925Y-460434D01*
X-690823Y-460457D01*
X-690712Y-460471D01*
X-690596Y-460480D01*
X-690481Y-460485D01*
X-690439D01*
X-690388Y-460480D01*
X-690324Y-460476D01*
X-690245Y-460466D01*
X-690148Y-460452D01*
X-690046Y-460429D01*
X-689931Y-460406D01*
X-689811Y-460369D01*
X-689686Y-460328D01*
X-689552Y-460277D01*
X-689422Y-460212D01*
X-689288Y-460138D01*
X-689159Y-460050D01*
X-689034Y-459953D01*
X-688914Y-459838D01*
X-688909Y-459828D01*
X-688886Y-459805D01*
X-688858Y-459768D01*
X-688817Y-459717D01*
X-688771Y-459648D01*
X-688715Y-459565D01*
X-688660Y-459468D01*
X-688604Y-459352D01*
X-688544Y-459223D01*
X-688488Y-459080D01*
X-688433Y-458922D01*
X-688387Y-458751D01*
X-688345Y-458562D01*
X-688317Y-458358D01*
X-688299Y-458141D01*
X-688290Y-457905D01*
Y-457901D01*
Y-457891D01*
Y-457873D01*
Y-457850D01*
X-688294Y-457822D01*
Y-457785D01*
Y-457743D01*
X-688299Y-457702D01*
X-688304Y-457651D01*
X-688308Y-457596D01*
X-688322Y-457475D01*
X-688341Y-457341D01*
X-688368Y-457198D01*
X-688401Y-457045D01*
X-688442Y-456888D01*
X-688488Y-456731D01*
X-688549Y-456569D01*
X-688618Y-456417D01*
X-688701Y-456264D01*
X-688798Y-456121D01*
X-688904Y-455991D01*
X-688914Y-455982D01*
X-688932Y-455964D01*
X-688969Y-455931D01*
X-689016Y-455890D01*
X-689076Y-455839D01*
X-689149Y-455779D01*
X-689237Y-455719D01*
X-689334Y-455659D01*
X-689441Y-455598D01*
X-689561Y-455538D01*
X-689690Y-455478D01*
X-689829Y-455432D01*
X-689982Y-455386D01*
X-690139Y-455354D01*
X-690305Y-455335D01*
X-690481Y-455326D01*
D02*
G37*
G36*
X-770100Y-457568D02*
X-770123D01*
X-770151Y-457572D01*
X-770192D01*
X-770238Y-457582D01*
X-770289Y-457586D01*
X-770349Y-457600D01*
X-770419Y-457614D01*
X-770488Y-457637D01*
X-770557Y-457660D01*
X-770631Y-457693D01*
X-770710Y-457730D01*
X-770784Y-457771D01*
X-770858Y-457822D01*
X-770927Y-457882D01*
X-770996Y-457947D01*
X-771001Y-457952D01*
X-771010Y-457965D01*
X-771029Y-457989D01*
X-771052Y-458016D01*
X-771080Y-458058D01*
X-771107Y-458104D01*
X-771140Y-458159D01*
X-771172Y-458224D01*
X-771205Y-458294D01*
X-771237Y-458372D01*
X-771265Y-458460D01*
X-771292Y-458557D01*
X-771316Y-458659D01*
X-771334Y-458765D01*
X-771343Y-458881D01*
X-771348Y-459006D01*
Y-459015D01*
Y-459033D01*
Y-459070D01*
X-771343Y-459117D01*
X-771339Y-459177D01*
X-771329Y-459241D01*
X-771316Y-459315D01*
X-771302Y-459394D01*
X-771283Y-459477D01*
X-771260Y-459565D01*
X-771232Y-459653D01*
X-771195Y-459745D01*
X-771154Y-459833D01*
X-771107Y-459916D01*
X-771052Y-459999D01*
X-770987Y-460078D01*
X-770983Y-460083D01*
X-770969Y-460097D01*
X-770950Y-460115D01*
X-770923Y-460138D01*
X-770890Y-460171D01*
X-770849Y-460203D01*
X-770798Y-460240D01*
X-770742Y-460277D01*
X-770682Y-460314D01*
X-770618Y-460351D01*
X-770548Y-460383D01*
X-770470Y-460415D01*
X-770391Y-460439D01*
X-770303Y-460457D01*
X-770215Y-460471D01*
X-770123Y-460476D01*
X-770100D01*
X-770072Y-460471D01*
X-770035D01*
X-769989Y-460462D01*
X-769938Y-460452D01*
X-769878Y-460439D01*
X-769813Y-460420D01*
X-769739Y-460397D01*
X-769670Y-460369D01*
X-769591Y-460337D01*
X-769513Y-460295D01*
X-769434Y-460244D01*
X-769360Y-460189D01*
X-769281Y-460120D01*
X-769208Y-460046D01*
X-769203Y-460041D01*
X-769189Y-460027D01*
X-769171Y-460004D01*
X-769147Y-459967D01*
X-769120Y-459925D01*
X-769087Y-459875D01*
X-769050Y-459814D01*
X-769018Y-459750D01*
X-768981Y-459671D01*
X-768944Y-459588D01*
X-768912Y-459500D01*
X-768884Y-459398D01*
X-768861Y-459297D01*
X-768842Y-459186D01*
X-768828Y-459066D01*
X-768824Y-458941D01*
Y-458936D01*
Y-458913D01*
X-768828Y-458881D01*
Y-458839D01*
X-768833Y-458788D01*
X-768842Y-458728D01*
X-768856Y-458659D01*
X-768870Y-458590D01*
X-768888Y-458511D01*
X-768912Y-458432D01*
X-768944Y-458349D01*
X-768976Y-458266D01*
X-769018Y-458183D01*
X-769069Y-458099D01*
X-769124Y-458021D01*
X-769189Y-457947D01*
X-769194Y-457942D01*
X-769208Y-457933D01*
X-769226Y-457910D01*
X-769254Y-457887D01*
X-769291Y-457859D01*
X-769332Y-457827D01*
X-769383Y-457794D01*
X-769439Y-457757D01*
X-769503Y-457720D01*
X-769573Y-457688D01*
X-769647Y-457656D01*
X-769725Y-457628D01*
X-769813Y-457605D01*
X-769905Y-457586D01*
X-769998Y-457572D01*
X-770100Y-457568D01*
D02*
G37*
G36*
X-764141Y-455326D02*
X-764187D01*
X-764220Y-455330D01*
X-764261D01*
X-764307Y-455335D01*
X-764363Y-455340D01*
X-764418Y-455349D01*
X-764483Y-455354D01*
X-764552Y-455367D01*
X-764696Y-455395D01*
X-764844Y-455437D01*
X-764996Y-455492D01*
X-764992Y-455497D01*
X-764978Y-455501D01*
X-764959Y-455515D01*
X-764927Y-455534D01*
X-764890Y-455557D01*
X-764848Y-455580D01*
X-764797Y-455608D01*
X-764746Y-455635D01*
X-764686Y-455663D01*
X-764617Y-455696D01*
X-764478Y-455756D01*
X-764321Y-455811D01*
X-764159Y-455857D01*
X-764367Y-456477D01*
X-764377D01*
X-764400Y-456468D01*
X-764437Y-456454D01*
X-764488Y-456440D01*
X-764552Y-456417D01*
X-764622Y-456389D01*
X-764705Y-456357D01*
X-764793Y-456324D01*
X-764885Y-456283D01*
X-764982Y-456236D01*
X-765084Y-456186D01*
X-765186Y-456130D01*
X-765287Y-456070D01*
X-765384Y-456005D01*
X-765481Y-455936D01*
X-765574Y-455862D01*
X-765583Y-455871D01*
X-765606Y-455894D01*
X-765643Y-455936D01*
X-765690Y-455991D01*
X-765750Y-456061D01*
X-765810Y-456149D01*
X-765879Y-456255D01*
X-765948Y-456371D01*
X-766018Y-456509D01*
X-766087Y-456662D01*
X-766147Y-456828D01*
X-766207Y-457013D01*
X-766254Y-457212D01*
X-766291Y-457425D01*
X-766314Y-457656D01*
X-766323Y-457905D01*
Y-457915D01*
Y-457938D01*
Y-457979D01*
X-766318Y-458035D01*
X-766314Y-458104D01*
X-766309Y-458183D01*
X-766300Y-458270D01*
X-766291Y-458368D01*
X-766277Y-458469D01*
X-766258Y-458576D01*
X-766235Y-458691D01*
X-766212Y-458807D01*
X-766180Y-458922D01*
X-766143Y-459038D01*
X-766101Y-459149D01*
X-766055Y-459260D01*
X-766050Y-459264D01*
X-766041Y-459287D01*
X-766027Y-459315D01*
X-766004Y-459357D01*
X-765976Y-459403D01*
X-765944Y-459463D01*
X-765907Y-459523D01*
X-765861Y-459593D01*
X-765810Y-459662D01*
X-765750Y-459736D01*
X-765690Y-459810D01*
X-765620Y-459884D01*
X-765542Y-459958D01*
X-765463Y-460032D01*
X-765375Y-460097D01*
X-765283Y-460161D01*
X-765278Y-460166D01*
X-765260Y-460175D01*
X-765232Y-460189D01*
X-765195Y-460212D01*
X-765144Y-460235D01*
X-765089Y-460263D01*
X-765024Y-460295D01*
X-764950Y-460323D01*
X-764867Y-460355D01*
X-764779Y-460383D01*
X-764686Y-460411D01*
X-764585Y-460434D01*
X-764483Y-460457D01*
X-764372Y-460471D01*
X-764257Y-460480D01*
X-764141Y-460485D01*
X-764099D01*
X-764048Y-460480D01*
X-763984Y-460476D01*
X-763905Y-460466D01*
X-763808Y-460452D01*
X-763706Y-460429D01*
X-763591Y-460406D01*
X-763471Y-460369D01*
X-763346Y-460328D01*
X-763212Y-460277D01*
X-763082Y-460212D01*
X-762948Y-460138D01*
X-762819Y-460050D01*
X-762694Y-459953D01*
X-762574Y-459838D01*
X-762569Y-459828D01*
X-762546Y-459805D01*
X-762518Y-459768D01*
X-762477Y-459717D01*
X-762430Y-459648D01*
X-762375Y-459565D01*
X-762319Y-459468D01*
X-762264Y-459352D01*
X-762204Y-459223D01*
X-762149Y-459080D01*
X-762093Y-458922D01*
X-762047Y-458751D01*
X-762005Y-458562D01*
X-761977Y-458358D01*
X-761959Y-458141D01*
X-761950Y-457905D01*
Y-457901D01*
Y-457891D01*
Y-457873D01*
Y-457850D01*
X-761954Y-457822D01*
Y-457785D01*
Y-457743D01*
X-761959Y-457702D01*
X-761964Y-457651D01*
X-761968Y-457596D01*
X-761982Y-457475D01*
X-762001Y-457341D01*
X-762028Y-457198D01*
X-762061Y-457045D01*
X-762102Y-456888D01*
X-762149Y-456731D01*
X-762209Y-456569D01*
X-762278Y-456417D01*
X-762361Y-456264D01*
X-762458Y-456121D01*
X-762564Y-455991D01*
X-762574Y-455982D01*
X-762592Y-455964D01*
X-762629Y-455931D01*
X-762675Y-455890D01*
X-762736Y-455839D01*
X-762810Y-455779D01*
X-762897Y-455719D01*
X-762995Y-455659D01*
X-763101Y-455598D01*
X-763221Y-455538D01*
X-763350Y-455478D01*
X-763489Y-455432D01*
X-763642Y-455386D01*
X-763799Y-455354D01*
X-763965Y-455335D01*
X-764141Y-455326D01*
D02*
G37*
G36*
X-690664Y-276348D02*
X-690710D01*
X-690742Y-276352D01*
X-690784D01*
X-690830Y-276357D01*
X-690885Y-276362D01*
X-690941Y-276371D01*
X-691006Y-276375D01*
X-691075Y-276389D01*
X-691218Y-276417D01*
X-691366Y-276459D01*
X-691519Y-276514D01*
X-691514Y-276519D01*
X-691500Y-276523D01*
X-691482Y-276537D01*
X-691450Y-276556D01*
X-691413Y-276579D01*
X-691371Y-276602D01*
X-691320Y-276630D01*
X-691269Y-276657D01*
X-691209Y-276685D01*
X-691140Y-276717D01*
X-691001Y-276778D01*
X-690844Y-276833D01*
X-690682Y-276879D01*
X-690890Y-277499D01*
X-690899D01*
X-690922Y-277489D01*
X-690959Y-277476D01*
X-691010Y-277462D01*
X-691075Y-277439D01*
X-691144Y-277411D01*
X-691228Y-277379D01*
X-691315Y-277346D01*
X-691408Y-277305D01*
X-691505Y-277258D01*
X-691607Y-277208D01*
X-691708Y-277152D01*
X-691810Y-277092D01*
X-691907Y-277027D01*
X-692004Y-276958D01*
X-692097Y-276884D01*
X-692106Y-276893D01*
X-692129Y-276916D01*
X-692166Y-276958D01*
X-692212Y-277013D01*
X-692272Y-277083D01*
X-692332Y-277171D01*
X-692402Y-277277D01*
X-692471Y-277392D01*
X-692540Y-277531D01*
X-692610Y-277684D01*
X-692670Y-277850D01*
X-692730Y-278035D01*
X-692776Y-278234D01*
X-692813Y-278446D01*
X-692836Y-278678D01*
X-692846Y-278927D01*
Y-278936D01*
Y-278960D01*
Y-279001D01*
X-692841Y-279057D01*
X-692836Y-279126D01*
X-692832Y-279205D01*
X-692822Y-279292D01*
X-692813Y-279389D01*
X-692799Y-279491D01*
X-692781Y-279597D01*
X-692758Y-279713D01*
X-692735Y-279829D01*
X-692702Y-279944D01*
X-692665Y-280060D01*
X-692624Y-280171D01*
X-692577Y-280282D01*
X-692573Y-280286D01*
X-692564Y-280309D01*
X-692550Y-280337D01*
X-692527Y-280379D01*
X-692499Y-280425D01*
X-692467Y-280485D01*
X-692430Y-280545D01*
X-692383Y-280614D01*
X-692332Y-280684D01*
X-692272Y-280758D01*
X-692212Y-280832D01*
X-692143Y-280906D01*
X-692064Y-280980D01*
X-691986Y-281054D01*
X-691898Y-281118D01*
X-691805Y-281183D01*
X-691801Y-281188D01*
X-691782Y-281197D01*
X-691755Y-281211D01*
X-691718Y-281234D01*
X-691667Y-281257D01*
X-691611Y-281285D01*
X-691546Y-281317D01*
X-691473Y-281345D01*
X-691389Y-281377D01*
X-691301Y-281405D01*
X-691209Y-281433D01*
X-691107Y-281456D01*
X-691006Y-281479D01*
X-690895Y-281493D01*
X-690779Y-281502D01*
X-690664Y-281507D01*
X-690622D01*
X-690571Y-281502D01*
X-690506Y-281497D01*
X-690428Y-281488D01*
X-690331Y-281474D01*
X-690229Y-281451D01*
X-690114Y-281428D01*
X-689993Y-281391D01*
X-689868Y-281350D01*
X-689734Y-281299D01*
X-689605Y-281234D01*
X-689471Y-281160D01*
X-689342Y-281072D01*
X-689217Y-280975D01*
X-689097Y-280860D01*
X-689092Y-280850D01*
X-689069Y-280827D01*
X-689041Y-280790D01*
X-688999Y-280739D01*
X-688953Y-280670D01*
X-688898Y-280587D01*
X-688842Y-280490D01*
X-688787Y-280374D01*
X-688727Y-280245D01*
X-688671Y-280101D01*
X-688616Y-279944D01*
X-688569Y-279773D01*
X-688528Y-279584D01*
X-688500Y-279380D01*
X-688482Y-279163D01*
X-688472Y-278927D01*
Y-278923D01*
Y-278913D01*
Y-278895D01*
Y-278872D01*
X-688477Y-278844D01*
Y-278807D01*
Y-278765D01*
X-688482Y-278724D01*
X-688486Y-278673D01*
X-688491Y-278617D01*
X-688505Y-278497D01*
X-688523Y-278363D01*
X-688551Y-278220D01*
X-688583Y-278067D01*
X-688625Y-277910D01*
X-688671Y-277753D01*
X-688731Y-277591D01*
X-688801Y-277439D01*
X-688884Y-277286D01*
X-688981Y-277143D01*
X-689087Y-277013D01*
X-689097Y-277004D01*
X-689115Y-276986D01*
X-689152Y-276953D01*
X-689198Y-276912D01*
X-689258Y-276861D01*
X-689332Y-276801D01*
X-689420Y-276741D01*
X-689517Y-276681D01*
X-689623Y-276620D01*
X-689744Y-276560D01*
X-689873Y-276500D01*
X-690012Y-276454D01*
X-690164Y-276408D01*
X-690322Y-276375D01*
X-690488Y-276357D01*
X-690664Y-276348D01*
D02*
G37*
G36*
X-764747D02*
X-764794D01*
X-764826Y-276352D01*
X-764868D01*
X-764914Y-276357D01*
X-764969Y-276362D01*
X-765025Y-276371D01*
X-765089Y-276375D01*
X-765159Y-276389D01*
X-765302Y-276417D01*
X-765450Y-276459D01*
X-765603Y-276514D01*
X-765598Y-276519D01*
X-765584Y-276523D01*
X-765566Y-276537D01*
X-765533Y-276556D01*
X-765496Y-276579D01*
X-765455Y-276602D01*
X-765404Y-276630D01*
X-765353Y-276657D01*
X-765293Y-276685D01*
X-765223Y-276717D01*
X-765085Y-276778D01*
X-764928Y-276833D01*
X-764766Y-276879D01*
X-764974Y-277499D01*
X-764983D01*
X-765006Y-277489D01*
X-765043Y-277476D01*
X-765094Y-277462D01*
X-765159Y-277439D01*
X-765228Y-277411D01*
X-765311Y-277379D01*
X-765399Y-277346D01*
X-765492Y-277305D01*
X-765589Y-277258D01*
X-765690Y-277208D01*
X-765792Y-277152D01*
X-765894Y-277092D01*
X-765991Y-277027D01*
X-766088Y-276958D01*
X-766180Y-276884D01*
X-766190Y-276893D01*
X-766213Y-276916D01*
X-766250Y-276958D01*
X-766296Y-277013D01*
X-766356Y-277083D01*
X-766416Y-277171D01*
X-766486Y-277277D01*
X-766555Y-277392D01*
X-766624Y-277531D01*
X-766694Y-277684D01*
X-766754Y-277850D01*
X-766814Y-278035D01*
X-766860Y-278234D01*
X-766897Y-278446D01*
X-766920Y-278678D01*
X-766929Y-278927D01*
Y-278936D01*
Y-278960D01*
Y-279001D01*
X-766925Y-279057D01*
X-766920Y-279126D01*
X-766916Y-279205D01*
X-766906Y-279292D01*
X-766897Y-279389D01*
X-766883Y-279491D01*
X-766865Y-279597D01*
X-766842Y-279713D01*
X-766818Y-279829D01*
X-766786Y-279944D01*
X-766749Y-280060D01*
X-766708Y-280171D01*
X-766661Y-280282D01*
X-766657Y-280286D01*
X-766647Y-280309D01*
X-766634Y-280337D01*
X-766610Y-280379D01*
X-766583Y-280425D01*
X-766550Y-280485D01*
X-766513Y-280545D01*
X-766467Y-280614D01*
X-766416Y-280684D01*
X-766356Y-280758D01*
X-766296Y-280832D01*
X-766227Y-280906D01*
X-766148Y-280980D01*
X-766069Y-281054D01*
X-765982Y-281118D01*
X-765889Y-281183D01*
X-765885Y-281188D01*
X-765866Y-281197D01*
X-765838Y-281211D01*
X-765801Y-281234D01*
X-765751Y-281257D01*
X-765695Y-281285D01*
X-765630Y-281317D01*
X-765556Y-281345D01*
X-765473Y-281377D01*
X-765385Y-281405D01*
X-765293Y-281433D01*
X-765191Y-281456D01*
X-765089Y-281479D01*
X-764978Y-281493D01*
X-764863Y-281502D01*
X-764747Y-281507D01*
X-764706D01*
X-764655Y-281502D01*
X-764590Y-281497D01*
X-764512Y-281488D01*
X-764415Y-281474D01*
X-764313Y-281451D01*
X-764197Y-281428D01*
X-764077Y-281391D01*
X-763952Y-281350D01*
X-763818Y-281299D01*
X-763689Y-281234D01*
X-763555Y-281160D01*
X-763425Y-281072D01*
X-763300Y-280975D01*
X-763180Y-280860D01*
X-763176Y-280850D01*
X-763152Y-280827D01*
X-763125Y-280790D01*
X-763083Y-280739D01*
X-763037Y-280670D01*
X-762981Y-280587D01*
X-762926Y-280490D01*
X-762870Y-280374D01*
X-762810Y-280245D01*
X-762755Y-280101D01*
X-762700Y-279944D01*
X-762653Y-279773D01*
X-762612Y-279584D01*
X-762584Y-279380D01*
X-762565Y-279163D01*
X-762556Y-278927D01*
Y-278923D01*
Y-278913D01*
Y-278895D01*
Y-278872D01*
X-762561Y-278844D01*
Y-278807D01*
Y-278765D01*
X-762565Y-278724D01*
X-762570Y-278673D01*
X-762575Y-278617D01*
X-762589Y-278497D01*
X-762607Y-278363D01*
X-762635Y-278220D01*
X-762667Y-278067D01*
X-762709Y-277910D01*
X-762755Y-277753D01*
X-762815Y-277591D01*
X-762884Y-277439D01*
X-762968Y-277286D01*
X-763065Y-277143D01*
X-763171Y-277013D01*
X-763180Y-277004D01*
X-763199Y-276986D01*
X-763236Y-276953D01*
X-763282Y-276912D01*
X-763342Y-276861D01*
X-763416Y-276801D01*
X-763504Y-276741D01*
X-763601Y-276681D01*
X-763707Y-276620D01*
X-763828Y-276560D01*
X-763957Y-276500D01*
X-764096Y-276454D01*
X-764248Y-276408D01*
X-764405Y-276375D01*
X-764572Y-276357D01*
X-764747Y-276348D01*
D02*
G37*
G36*
X-695051Y-323608D02*
X-697057D01*
Y-326492D01*
X-695051Y-323608D01*
D02*
G37*
G36*
X-690664Y-321976D02*
X-690710D01*
X-690742Y-321980D01*
X-690784D01*
X-690830Y-321985D01*
X-690885Y-321990D01*
X-690941Y-321999D01*
X-691006Y-322004D01*
X-691075Y-322017D01*
X-691218Y-322045D01*
X-691366Y-322087D01*
X-691519Y-322142D01*
X-691514Y-322147D01*
X-691500Y-322151D01*
X-691482Y-322165D01*
X-691450Y-322184D01*
X-691413Y-322207D01*
X-691371Y-322230D01*
X-691320Y-322258D01*
X-691269Y-322285D01*
X-691209Y-322313D01*
X-691140Y-322346D01*
X-691001Y-322406D01*
X-690844Y-322461D01*
X-690682Y-322507D01*
X-690890Y-323127D01*
X-690899D01*
X-690922Y-323118D01*
X-690959Y-323104D01*
X-691010Y-323090D01*
X-691075Y-323067D01*
X-691144Y-323039D01*
X-691228Y-323007D01*
X-691315Y-322974D01*
X-691408Y-322933D01*
X-691505Y-322887D01*
X-691607Y-322836D01*
X-691708Y-322780D01*
X-691810Y-322720D01*
X-691907Y-322655D01*
X-692004Y-322586D01*
X-692097Y-322512D01*
X-692106Y-322521D01*
X-692129Y-322544D01*
X-692166Y-322586D01*
X-692212Y-322641D01*
X-692272Y-322711D01*
X-692332Y-322799D01*
X-692402Y-322905D01*
X-692471Y-323021D01*
X-692540Y-323159D01*
X-692610Y-323312D01*
X-692670Y-323478D01*
X-692730Y-323663D01*
X-692776Y-323862D01*
X-692813Y-324075D01*
X-692836Y-324306D01*
X-692846Y-324555D01*
Y-324565D01*
Y-324588D01*
Y-324629D01*
X-692841Y-324685D01*
X-692836Y-324754D01*
X-692832Y-324833D01*
X-692822Y-324921D01*
X-692813Y-325018D01*
X-692799Y-325119D01*
X-692781Y-325226D01*
X-692758Y-325341D01*
X-692735Y-325457D01*
X-692702Y-325572D01*
X-692665Y-325688D01*
X-692624Y-325799D01*
X-692577Y-325910D01*
X-692573Y-325914D01*
X-692564Y-325938D01*
X-692550Y-325965D01*
X-692527Y-326007D01*
X-692499Y-326053D01*
X-692467Y-326113D01*
X-692430Y-326173D01*
X-692383Y-326243D01*
X-692332Y-326312D01*
X-692272Y-326386D01*
X-692212Y-326460D01*
X-692143Y-326534D01*
X-692064Y-326608D01*
X-691986Y-326682D01*
X-691898Y-326746D01*
X-691805Y-326811D01*
X-691801Y-326816D01*
X-691782Y-326825D01*
X-691755Y-326839D01*
X-691718Y-326862D01*
X-691667Y-326885D01*
X-691611Y-326913D01*
X-691546Y-326945D01*
X-691473Y-326973D01*
X-691389Y-327005D01*
X-691301Y-327033D01*
X-691209Y-327061D01*
X-691107Y-327084D01*
X-691006Y-327107D01*
X-690895Y-327121D01*
X-690779Y-327130D01*
X-690664Y-327135D01*
X-690622D01*
X-690571Y-327130D01*
X-690506Y-327126D01*
X-690428Y-327116D01*
X-690331Y-327102D01*
X-690229Y-327079D01*
X-690114Y-327056D01*
X-689993Y-327019D01*
X-689868Y-326978D01*
X-689734Y-326927D01*
X-689605Y-326862D01*
X-689471Y-326788D01*
X-689342Y-326700D01*
X-689217Y-326603D01*
X-689097Y-326488D01*
X-689092Y-326478D01*
X-689069Y-326455D01*
X-689041Y-326418D01*
X-688999Y-326367D01*
X-688953Y-326298D01*
X-688898Y-326215D01*
X-688842Y-326118D01*
X-688787Y-326002D01*
X-688727Y-325873D01*
X-688671Y-325729D01*
X-688616Y-325572D01*
X-688569Y-325401D01*
X-688528Y-325212D01*
X-688500Y-325008D01*
X-688482Y-324791D01*
X-688472Y-324555D01*
Y-324551D01*
Y-324541D01*
Y-324523D01*
Y-324500D01*
X-688477Y-324472D01*
Y-324435D01*
Y-324394D01*
X-688482Y-324352D01*
X-688486Y-324301D01*
X-688491Y-324246D01*
X-688505Y-324125D01*
X-688523Y-323991D01*
X-688551Y-323848D01*
X-688583Y-323695D01*
X-688625Y-323538D01*
X-688671Y-323381D01*
X-688731Y-323219D01*
X-688801Y-323067D01*
X-688884Y-322914D01*
X-688981Y-322771D01*
X-689087Y-322641D01*
X-689097Y-322632D01*
X-689115Y-322614D01*
X-689152Y-322581D01*
X-689198Y-322540D01*
X-689258Y-322489D01*
X-689332Y-322429D01*
X-689420Y-322369D01*
X-689517Y-322309D01*
X-689623Y-322248D01*
X-689744Y-322188D01*
X-689873Y-322128D01*
X-690012Y-322082D01*
X-690164Y-322036D01*
X-690322Y-322004D01*
X-690488Y-321985D01*
X-690664Y-321976D01*
D02*
G37*
G36*
X-764747D02*
X-764794D01*
X-764826Y-321980D01*
X-764868D01*
X-764914Y-321985D01*
X-764969Y-321990D01*
X-765025Y-321999D01*
X-765089Y-322004D01*
X-765159Y-322017D01*
X-765302Y-322045D01*
X-765450Y-322087D01*
X-765603Y-322142D01*
X-765598Y-322147D01*
X-765584Y-322151D01*
X-765566Y-322165D01*
X-765533Y-322184D01*
X-765496Y-322207D01*
X-765455Y-322230D01*
X-765404Y-322258D01*
X-765353Y-322285D01*
X-765293Y-322313D01*
X-765223Y-322346D01*
X-765085Y-322406D01*
X-764928Y-322461D01*
X-764766Y-322507D01*
X-764974Y-323127D01*
X-764983D01*
X-765006Y-323118D01*
X-765043Y-323104D01*
X-765094Y-323090D01*
X-765159Y-323067D01*
X-765228Y-323039D01*
X-765311Y-323007D01*
X-765399Y-322974D01*
X-765492Y-322933D01*
X-765589Y-322887D01*
X-765690Y-322836D01*
X-765792Y-322780D01*
X-765894Y-322720D01*
X-765991Y-322655D01*
X-766088Y-322586D01*
X-766180Y-322512D01*
X-766190Y-322521D01*
X-766213Y-322544D01*
X-766250Y-322586D01*
X-766296Y-322641D01*
X-766356Y-322711D01*
X-766416Y-322799D01*
X-766486Y-322905D01*
X-766555Y-323021D01*
X-766624Y-323159D01*
X-766694Y-323312D01*
X-766754Y-323478D01*
X-766814Y-323663D01*
X-766860Y-323862D01*
X-766897Y-324075D01*
X-766920Y-324306D01*
X-766929Y-324555D01*
Y-324565D01*
Y-324588D01*
Y-324629D01*
X-766925Y-324685D01*
X-766920Y-324754D01*
X-766916Y-324833D01*
X-766906Y-324921D01*
X-766897Y-325018D01*
X-766883Y-325119D01*
X-766865Y-325226D01*
X-766842Y-325341D01*
X-766818Y-325457D01*
X-766786Y-325572D01*
X-766749Y-325688D01*
X-766708Y-325799D01*
X-766661Y-325910D01*
X-766657Y-325914D01*
X-766647Y-325938D01*
X-766634Y-325965D01*
X-766610Y-326007D01*
X-766583Y-326053D01*
X-766550Y-326113D01*
X-766513Y-326173D01*
X-766467Y-326243D01*
X-766416Y-326312D01*
X-766356Y-326386D01*
X-766296Y-326460D01*
X-766227Y-326534D01*
X-766148Y-326608D01*
X-766069Y-326682D01*
X-765982Y-326746D01*
X-765889Y-326811D01*
X-765885Y-326816D01*
X-765866Y-326825D01*
X-765838Y-326839D01*
X-765801Y-326862D01*
X-765751Y-326885D01*
X-765695Y-326913D01*
X-765630Y-326945D01*
X-765556Y-326973D01*
X-765473Y-327005D01*
X-765385Y-327033D01*
X-765293Y-327061D01*
X-765191Y-327084D01*
X-765089Y-327107D01*
X-764978Y-327121D01*
X-764863Y-327130D01*
X-764747Y-327135D01*
X-764706D01*
X-764655Y-327130D01*
X-764590Y-327126D01*
X-764512Y-327116D01*
X-764415Y-327102D01*
X-764313Y-327079D01*
X-764197Y-327056D01*
X-764077Y-327019D01*
X-763952Y-326978D01*
X-763818Y-326927D01*
X-763689Y-326862D01*
X-763555Y-326788D01*
X-763425Y-326700D01*
X-763300Y-326603D01*
X-763180Y-326488D01*
X-763176Y-326478D01*
X-763152Y-326455D01*
X-763125Y-326418D01*
X-763083Y-326367D01*
X-763037Y-326298D01*
X-762981Y-326215D01*
X-762926Y-326118D01*
X-762870Y-326002D01*
X-762810Y-325873D01*
X-762755Y-325729D01*
X-762700Y-325572D01*
X-762653Y-325401D01*
X-762612Y-325212D01*
X-762584Y-325008D01*
X-762565Y-324791D01*
X-762556Y-324555D01*
Y-324551D01*
Y-324541D01*
Y-324523D01*
Y-324500D01*
X-762561Y-324472D01*
Y-324435D01*
Y-324394D01*
X-762565Y-324352D01*
X-762570Y-324301D01*
X-762575Y-324246D01*
X-762589Y-324125D01*
X-762607Y-323991D01*
X-762635Y-323848D01*
X-762667Y-323695D01*
X-762709Y-323538D01*
X-762755Y-323381D01*
X-762815Y-323219D01*
X-762884Y-323067D01*
X-762968Y-322914D01*
X-763065Y-322771D01*
X-763171Y-322641D01*
X-763180Y-322632D01*
X-763199Y-322614D01*
X-763236Y-322581D01*
X-763282Y-322540D01*
X-763342Y-322489D01*
X-763416Y-322429D01*
X-763504Y-322369D01*
X-763601Y-322309D01*
X-763707Y-322248D01*
X-763828Y-322188D01*
X-763957Y-322128D01*
X-764096Y-322082D01*
X-764248Y-322036D01*
X-764405Y-322004D01*
X-764572Y-321985D01*
X-764747Y-321976D01*
D02*
G37*
G36*
X-696458Y-410797D02*
X-696481D01*
X-696514Y-410802D01*
X-696551D01*
X-696601Y-410806D01*
X-696657Y-410816D01*
X-696717Y-410830D01*
X-696786Y-410843D01*
X-696856Y-410862D01*
X-696934Y-410885D01*
X-697008Y-410913D01*
X-697087Y-410950D01*
X-697166Y-410991D01*
X-697244Y-411038D01*
X-697318Y-411093D01*
X-697387Y-411158D01*
X-697392Y-411162D01*
X-697401Y-411176D01*
X-697420Y-411195D01*
X-697443Y-411222D01*
X-697471Y-411259D01*
X-697503Y-411301D01*
X-697535Y-411352D01*
X-697572Y-411407D01*
X-697605Y-411472D01*
X-697637Y-411541D01*
X-697669Y-411615D01*
X-697697Y-411699D01*
X-697720Y-411786D01*
X-697739Y-411879D01*
X-697748Y-411976D01*
X-697753Y-412078D01*
Y-412082D01*
Y-412101D01*
X-697748Y-412133D01*
Y-412170D01*
X-697743Y-412221D01*
X-697734Y-412276D01*
X-697720Y-412337D01*
X-697706Y-412406D01*
X-697683Y-412480D01*
X-697660Y-412554D01*
X-697628Y-412632D01*
X-697591Y-412711D01*
X-697549Y-412790D01*
X-697498Y-412864D01*
X-697438Y-412942D01*
X-697374Y-413012D01*
X-697369Y-413016D01*
X-697355Y-413030D01*
X-697337Y-413049D01*
X-697304Y-413072D01*
X-697267Y-413099D01*
X-697226Y-413132D01*
X-697175Y-413164D01*
X-697115Y-413201D01*
X-697050Y-413233D01*
X-696981Y-413266D01*
X-696902Y-413298D01*
X-696819Y-413326D01*
X-696731Y-413354D01*
X-696634Y-413372D01*
X-696537Y-413381D01*
X-696431Y-413386D01*
X-696375D01*
X-696338Y-413381D01*
X-696292Y-413377D01*
X-696236Y-413367D01*
X-696176Y-413354D01*
X-696107Y-413340D01*
X-696038Y-413321D01*
X-695964Y-413298D01*
X-695890Y-413266D01*
X-695811Y-413229D01*
X-695732Y-413187D01*
X-695658Y-413136D01*
X-695584Y-413081D01*
X-695515Y-413016D01*
X-695510Y-413012D01*
X-695501Y-412998D01*
X-695483Y-412979D01*
X-695460Y-412951D01*
X-695432Y-412914D01*
X-695400Y-412873D01*
X-695367Y-412822D01*
X-695335Y-412766D01*
X-695303Y-412702D01*
X-695270Y-412632D01*
X-695238Y-412559D01*
X-695210Y-412475D01*
X-695187Y-412387D01*
X-695168Y-412300D01*
X-695159Y-412202D01*
X-695155Y-412101D01*
Y-412096D01*
Y-412087D01*
Y-412068D01*
X-695159Y-412045D01*
Y-412013D01*
X-695164Y-411981D01*
X-695168Y-411939D01*
X-695173Y-411897D01*
X-695191Y-411796D01*
X-695219Y-411689D01*
X-695261Y-411574D01*
X-695312Y-411454D01*
Y-411449D01*
X-695321Y-411440D01*
X-695330Y-411426D01*
X-695340Y-411403D01*
X-695358Y-411375D01*
X-695377Y-411347D01*
X-695432Y-411273D01*
X-695497Y-411199D01*
X-695575Y-411116D01*
X-695672Y-411038D01*
X-695783Y-410968D01*
X-695788D01*
X-695797Y-410959D01*
X-695816Y-410954D01*
X-695839Y-410941D01*
X-695866Y-410927D01*
X-695903Y-410913D01*
X-695940Y-410899D01*
X-695987Y-410885D01*
X-696088Y-410853D01*
X-696199Y-410825D01*
X-696324Y-410806D01*
X-696458Y-410797D01*
D02*
G37*
G36*
Y-414029D02*
X-696500D01*
X-696532Y-414033D01*
X-696574Y-414038D01*
X-696615Y-414042D01*
X-696666Y-414052D01*
X-696722Y-414066D01*
X-696837Y-414098D01*
X-696897Y-414121D01*
X-696962Y-414149D01*
X-697022Y-414181D01*
X-697082Y-414218D01*
X-697142Y-414260D01*
X-697198Y-414310D01*
X-697203Y-414315D01*
X-697212Y-414324D01*
X-697226Y-414338D01*
X-697244Y-414361D01*
X-697267Y-414389D01*
X-697290Y-414421D01*
X-697318Y-414463D01*
X-697346Y-414505D01*
X-697369Y-414556D01*
X-697397Y-414606D01*
X-697443Y-414727D01*
X-697461Y-414791D01*
X-697475Y-414861D01*
X-697485Y-414935D01*
X-697489Y-415009D01*
Y-415013D01*
Y-415027D01*
Y-415050D01*
X-697485Y-415083D01*
X-697480Y-415120D01*
X-697475Y-415161D01*
X-697466Y-415207D01*
X-697452Y-415263D01*
X-697415Y-415374D01*
X-697392Y-415434D01*
X-697364Y-415499D01*
X-697327Y-415559D01*
X-697286Y-415619D01*
X-697239Y-415679D01*
X-697189Y-415734D01*
X-697184Y-415739D01*
X-697175Y-415748D01*
X-697156Y-415762D01*
X-697138Y-415781D01*
X-697105Y-415804D01*
X-697073Y-415827D01*
X-697031Y-415854D01*
X-696985Y-415882D01*
X-696934Y-415910D01*
X-696879Y-415938D01*
X-696819Y-415961D01*
X-696754Y-415984D01*
X-696680Y-416002D01*
X-696606Y-416016D01*
X-696532Y-416026D01*
X-696449Y-416030D01*
X-696407D01*
X-696375Y-416026D01*
X-696338Y-416021D01*
X-696292Y-416016D01*
X-696241Y-416007D01*
X-696190Y-415993D01*
X-696070Y-415961D01*
X-696010Y-415938D01*
X-695945Y-415905D01*
X-695885Y-415873D01*
X-695820Y-415836D01*
X-695760Y-415790D01*
X-695705Y-415739D01*
X-695700Y-415734D01*
X-695691Y-415725D01*
X-695677Y-415711D01*
X-695658Y-415688D01*
X-695635Y-415660D01*
X-695612Y-415628D01*
X-695584Y-415591D01*
X-695561Y-415545D01*
X-695534Y-415499D01*
X-695506Y-415448D01*
X-695460Y-415327D01*
X-695441Y-415267D01*
X-695427Y-415198D01*
X-695418Y-415129D01*
X-695413Y-415055D01*
Y-415050D01*
Y-415036D01*
Y-415013D01*
X-695418Y-414981D01*
X-695423Y-414939D01*
X-695427Y-414898D01*
X-695437Y-414847D01*
X-695450Y-414791D01*
X-695483Y-414676D01*
X-695506Y-414616D01*
X-695534Y-414551D01*
X-695566Y-414491D01*
X-695608Y-414431D01*
X-695649Y-414371D01*
X-695700Y-414315D01*
X-695705Y-414310D01*
X-695714Y-414301D01*
X-695732Y-414287D01*
X-695751Y-414269D01*
X-695783Y-414250D01*
X-695816Y-414223D01*
X-695857Y-414200D01*
X-695903Y-414172D01*
X-695954Y-414144D01*
X-696014Y-414121D01*
X-696075Y-414093D01*
X-696144Y-414075D01*
X-696213Y-414056D01*
X-696292Y-414042D01*
X-696375Y-414033D01*
X-696458Y-414029D01*
D02*
G37*
G36*
X-690481Y-410876D02*
X-690527D01*
X-690559Y-410880D01*
X-690601D01*
X-690647Y-410885D01*
X-690703Y-410890D01*
X-690758Y-410899D01*
X-690823Y-410904D01*
X-690892Y-410917D01*
X-691036Y-410945D01*
X-691184Y-410987D01*
X-691336Y-411042D01*
X-691331Y-411047D01*
X-691318Y-411051D01*
X-691299Y-411065D01*
X-691267Y-411084D01*
X-691230Y-411107D01*
X-691188Y-411130D01*
X-691137Y-411158D01*
X-691087Y-411185D01*
X-691026Y-411213D01*
X-690957Y-411246D01*
X-690818Y-411306D01*
X-690661Y-411361D01*
X-690499Y-411407D01*
X-690707Y-412027D01*
X-690717D01*
X-690740Y-412018D01*
X-690777Y-412004D01*
X-690828Y-411990D01*
X-690892Y-411967D01*
X-690962Y-411939D01*
X-691045Y-411907D01*
X-691133Y-411874D01*
X-691225Y-411833D01*
X-691322Y-411786D01*
X-691424Y-411736D01*
X-691526Y-411680D01*
X-691627Y-411620D01*
X-691724Y-411555D01*
X-691822Y-411486D01*
X-691914Y-411412D01*
X-691923Y-411421D01*
X-691946Y-411444D01*
X-691983Y-411486D01*
X-692030Y-411541D01*
X-692090Y-411611D01*
X-692150Y-411699D01*
X-692219Y-411805D01*
X-692288Y-411921D01*
X-692358Y-412059D01*
X-692427Y-412212D01*
X-692487Y-412378D01*
X-692547Y-412563D01*
X-692594Y-412762D01*
X-692630Y-412975D01*
X-692654Y-413206D01*
X-692663Y-413455D01*
Y-413465D01*
Y-413488D01*
Y-413529D01*
X-692658Y-413585D01*
X-692654Y-413654D01*
X-692649Y-413733D01*
X-692640Y-413820D01*
X-692630Y-413918D01*
X-692617Y-414019D01*
X-692598Y-414126D01*
X-692575Y-414241D01*
X-692552Y-414357D01*
X-692520Y-414472D01*
X-692483Y-414588D01*
X-692441Y-414699D01*
X-692395Y-414810D01*
X-692390Y-414814D01*
X-692381Y-414837D01*
X-692367Y-414865D01*
X-692344Y-414907D01*
X-692316Y-414953D01*
X-692284Y-415013D01*
X-692247Y-415073D01*
X-692201Y-415143D01*
X-692150Y-415212D01*
X-692090Y-415286D01*
X-692030Y-415360D01*
X-691960Y-415434D01*
X-691882Y-415508D01*
X-691803Y-415582D01*
X-691715Y-415647D01*
X-691623Y-415711D01*
X-691618Y-415716D01*
X-691600Y-415725D01*
X-691572Y-415739D01*
X-691535Y-415762D01*
X-691484Y-415785D01*
X-691429Y-415813D01*
X-691364Y-415845D01*
X-691290Y-415873D01*
X-691207Y-415905D01*
X-691119Y-415933D01*
X-691026Y-415961D01*
X-690925Y-415984D01*
X-690823Y-416007D01*
X-690712Y-416021D01*
X-690596Y-416030D01*
X-690481Y-416035D01*
X-690439D01*
X-690388Y-416030D01*
X-690324Y-416026D01*
X-690245Y-416016D01*
X-690148Y-416002D01*
X-690046Y-415979D01*
X-689931Y-415956D01*
X-689811Y-415919D01*
X-689686Y-415878D01*
X-689552Y-415827D01*
X-689422Y-415762D01*
X-689288Y-415688D01*
X-689159Y-415600D01*
X-689034Y-415503D01*
X-688914Y-415388D01*
X-688909Y-415378D01*
X-688886Y-415355D01*
X-688858Y-415318D01*
X-688817Y-415267D01*
X-688771Y-415198D01*
X-688715Y-415115D01*
X-688660Y-415018D01*
X-688604Y-414902D01*
X-688544Y-414773D01*
X-688488Y-414630D01*
X-688433Y-414472D01*
X-688387Y-414301D01*
X-688345Y-414112D01*
X-688317Y-413908D01*
X-688299Y-413691D01*
X-688290Y-413455D01*
Y-413451D01*
Y-413441D01*
Y-413423D01*
Y-413400D01*
X-688294Y-413372D01*
Y-413335D01*
Y-413293D01*
X-688299Y-413252D01*
X-688304Y-413201D01*
X-688308Y-413146D01*
X-688322Y-413025D01*
X-688341Y-412891D01*
X-688368Y-412748D01*
X-688401Y-412595D01*
X-688442Y-412438D01*
X-688488Y-412281D01*
X-688549Y-412119D01*
X-688618Y-411967D01*
X-688701Y-411814D01*
X-688798Y-411671D01*
X-688904Y-411541D01*
X-688914Y-411532D01*
X-688932Y-411514D01*
X-688969Y-411481D01*
X-689016Y-411440D01*
X-689076Y-411389D01*
X-689149Y-411329D01*
X-689237Y-411269D01*
X-689334Y-411209D01*
X-689441Y-411148D01*
X-689561Y-411088D01*
X-689690Y-411028D01*
X-689829Y-410982D01*
X-689982Y-410936D01*
X-690139Y-410904D01*
X-690305Y-410885D01*
X-690481Y-410876D01*
D02*
G37*
G36*
X-764536D02*
X-764582D01*
X-764614Y-410880D01*
X-764656D01*
X-764702Y-410885D01*
X-764757Y-410890D01*
X-764813Y-410899D01*
X-764878Y-410904D01*
X-764947Y-410917D01*
X-765090Y-410945D01*
X-765238Y-410987D01*
X-765391Y-411042D01*
X-765386Y-411047D01*
X-765372Y-411051D01*
X-765354Y-411065D01*
X-765321Y-411084D01*
X-765284Y-411107D01*
X-765243Y-411130D01*
X-765192Y-411158D01*
X-765141Y-411185D01*
X-765081Y-411213D01*
X-765012Y-411246D01*
X-764873Y-411306D01*
X-764716Y-411361D01*
X-764554Y-411407D01*
X-764762Y-412027D01*
X-764771D01*
X-764794Y-412018D01*
X-764831Y-412004D01*
X-764882Y-411990D01*
X-764947Y-411967D01*
X-765016Y-411939D01*
X-765099Y-411907D01*
X-765187Y-411874D01*
X-765280Y-411833D01*
X-765377Y-411786D01*
X-765479Y-411736D01*
X-765580Y-411680D01*
X-765682Y-411620D01*
X-765779Y-411555D01*
X-765876Y-411486D01*
X-765968Y-411412D01*
X-765978Y-411421D01*
X-766001Y-411444D01*
X-766038Y-411486D01*
X-766084Y-411541D01*
X-766144Y-411611D01*
X-766204Y-411699D01*
X-766274Y-411805D01*
X-766343Y-411921D01*
X-766412Y-412059D01*
X-766482Y-412212D01*
X-766542Y-412378D01*
X-766602Y-412563D01*
X-766648Y-412762D01*
X-766685Y-412975D01*
X-766708Y-413206D01*
X-766717Y-413455D01*
Y-413465D01*
Y-413488D01*
Y-413529D01*
X-766713Y-413585D01*
X-766708Y-413654D01*
X-766704Y-413733D01*
X-766694Y-413820D01*
X-766685Y-413918D01*
X-766671Y-414019D01*
X-766653Y-414126D01*
X-766630Y-414241D01*
X-766607Y-414357D01*
X-766574Y-414472D01*
X-766537Y-414588D01*
X-766496Y-414699D01*
X-766449Y-414810D01*
X-766445Y-414814D01*
X-766435Y-414837D01*
X-766422Y-414865D01*
X-766398Y-414907D01*
X-766371Y-414953D01*
X-766338Y-415013D01*
X-766301Y-415073D01*
X-766255Y-415143D01*
X-766204Y-415212D01*
X-766144Y-415286D01*
X-766084Y-415360D01*
X-766015Y-415434D01*
X-765936Y-415508D01*
X-765858Y-415582D01*
X-765770Y-415647D01*
X-765677Y-415711D01*
X-765673Y-415716D01*
X-765654Y-415725D01*
X-765627Y-415739D01*
X-765590Y-415762D01*
X-765539Y-415785D01*
X-765483Y-415813D01*
X-765418Y-415845D01*
X-765344Y-415873D01*
X-765261Y-415905D01*
X-765173Y-415933D01*
X-765081Y-415961D01*
X-764979Y-415984D01*
X-764878Y-416007D01*
X-764767Y-416021D01*
X-764651Y-416030D01*
X-764536Y-416035D01*
X-764494D01*
X-764443Y-416030D01*
X-764378Y-416026D01*
X-764300Y-416016D01*
X-764203Y-416002D01*
X-764101Y-415979D01*
X-763985Y-415956D01*
X-763865Y-415919D01*
X-763740Y-415878D01*
X-763606Y-415827D01*
X-763477Y-415762D01*
X-763343Y-415688D01*
X-763213Y-415600D01*
X-763089Y-415503D01*
X-762968Y-415388D01*
X-762964Y-415378D01*
X-762941Y-415355D01*
X-762913Y-415318D01*
X-762871Y-415267D01*
X-762825Y-415198D01*
X-762770Y-415115D01*
X-762714Y-415018D01*
X-762659Y-414902D01*
X-762598Y-414773D01*
X-762543Y-414630D01*
X-762488Y-414472D01*
X-762441Y-414301D01*
X-762400Y-414112D01*
X-762372Y-413908D01*
X-762354Y-413691D01*
X-762344Y-413455D01*
Y-413451D01*
Y-413441D01*
Y-413423D01*
Y-413400D01*
X-762349Y-413372D01*
Y-413335D01*
Y-413293D01*
X-762354Y-413252D01*
X-762358Y-413201D01*
X-762363Y-413146D01*
X-762377Y-413025D01*
X-762395Y-412891D01*
X-762423Y-412748D01*
X-762455Y-412595D01*
X-762497Y-412438D01*
X-762543Y-412281D01*
X-762603Y-412119D01*
X-762673Y-411967D01*
X-762756Y-411814D01*
X-762853Y-411671D01*
X-762959Y-411541D01*
X-762968Y-411532D01*
X-762987Y-411514D01*
X-763024Y-411481D01*
X-763070Y-411440D01*
X-763130Y-411389D01*
X-763204Y-411329D01*
X-763292Y-411269D01*
X-763389Y-411209D01*
X-763495Y-411148D01*
X-763615Y-411088D01*
X-763745Y-411028D01*
X-763884Y-410982D01*
X-764036Y-410936D01*
X-764193Y-410904D01*
X-764360Y-410885D01*
X-764536Y-410876D01*
D02*
G37*
G36*
X-696523Y-366347D02*
X-696546D01*
X-696574Y-366352D01*
X-696606D01*
X-696648Y-366361D01*
X-696699Y-366370D01*
X-696754Y-366380D01*
X-696819Y-366398D01*
X-696883Y-366417D01*
X-696953Y-366444D01*
X-697022Y-366477D01*
X-697096Y-366514D01*
X-697166Y-366560D01*
X-697239Y-366615D01*
X-697309Y-366675D01*
X-697378Y-366745D01*
X-697383Y-366749D01*
X-697392Y-366763D01*
X-697411Y-366786D01*
X-697434Y-366819D01*
X-697461Y-366860D01*
X-697494Y-366907D01*
X-697526Y-366967D01*
X-697558Y-367031D01*
X-697591Y-367105D01*
X-697623Y-367188D01*
X-697655Y-367276D01*
X-697683Y-367373D01*
X-697706Y-367480D01*
X-697725Y-367591D01*
X-697734Y-367711D01*
X-697739Y-367836D01*
Y-367845D01*
Y-367864D01*
Y-367900D01*
X-697734Y-367947D01*
X-697729Y-368002D01*
X-697720Y-368067D01*
X-697711Y-368136D01*
X-697692Y-368215D01*
X-697674Y-368298D01*
X-697651Y-368381D01*
X-697623Y-368469D01*
X-697591Y-368557D01*
X-697549Y-368640D01*
X-697498Y-368723D01*
X-697448Y-368806D01*
X-697383Y-368881D01*
X-697378Y-368885D01*
X-697369Y-368899D01*
X-697346Y-368917D01*
X-697318Y-368941D01*
X-697286Y-368968D01*
X-697244Y-369001D01*
X-697193Y-369038D01*
X-697142Y-369075D01*
X-697078Y-369107D01*
X-697013Y-369144D01*
X-696939Y-369176D01*
X-696860Y-369204D01*
X-696777Y-369227D01*
X-696689Y-369246D01*
X-696592Y-369259D01*
X-696495Y-369264D01*
X-696472D01*
X-696444Y-369259D01*
X-696407D01*
X-696361Y-369250D01*
X-696306Y-369246D01*
X-696250Y-369232D01*
X-696186Y-369218D01*
X-696116Y-369195D01*
X-696042Y-369172D01*
X-695968Y-369139D01*
X-695890Y-369102D01*
X-695816Y-369061D01*
X-695737Y-369005D01*
X-695663Y-368950D01*
X-695594Y-368881D01*
X-695589Y-368876D01*
X-695580Y-368862D01*
X-695561Y-368839D01*
X-695538Y-368811D01*
X-695506Y-368774D01*
X-695478Y-368728D01*
X-695441Y-368672D01*
X-695409Y-368612D01*
X-695377Y-368543D01*
X-695340Y-368469D01*
X-695312Y-368386D01*
X-695284Y-368298D01*
X-695256Y-368201D01*
X-695238Y-368099D01*
X-695229Y-367993D01*
X-695224Y-367882D01*
Y-367877D01*
Y-367864D01*
Y-367840D01*
X-695229Y-367813D01*
Y-367776D01*
X-695233Y-367734D01*
X-695238Y-367683D01*
X-695247Y-367632D01*
X-695266Y-367512D01*
X-695298Y-367383D01*
X-695340Y-367244D01*
X-695395Y-367101D01*
Y-367096D01*
X-695404Y-367087D01*
X-695413Y-367064D01*
X-695427Y-367041D01*
X-695446Y-367008D01*
X-695464Y-366976D01*
X-695520Y-366893D01*
X-695584Y-366800D01*
X-695668Y-366708D01*
X-695765Y-366615D01*
X-695871Y-366537D01*
X-695876D01*
X-695885Y-366527D01*
X-695903Y-366518D01*
X-695927Y-366509D01*
X-695954Y-366495D01*
X-695987Y-366477D01*
X-696024Y-366458D01*
X-696070Y-366444D01*
X-696167Y-366407D01*
X-696278Y-366375D01*
X-696398Y-366356D01*
X-696523Y-366347D01*
D02*
G37*
G36*
X-690481Y-366426D02*
X-690527D01*
X-690559Y-366430D01*
X-690601D01*
X-690647Y-366435D01*
X-690703Y-366440D01*
X-690758Y-366449D01*
X-690823Y-366454D01*
X-690892Y-366467D01*
X-691036Y-366495D01*
X-691184Y-366537D01*
X-691336Y-366592D01*
X-691331Y-366597D01*
X-691318Y-366601D01*
X-691299Y-366615D01*
X-691267Y-366634D01*
X-691230Y-366657D01*
X-691188Y-366680D01*
X-691137Y-366708D01*
X-691087Y-366735D01*
X-691026Y-366763D01*
X-690957Y-366796D01*
X-690818Y-366856D01*
X-690661Y-366911D01*
X-690499Y-366957D01*
X-690707Y-367577D01*
X-690717D01*
X-690740Y-367568D01*
X-690777Y-367554D01*
X-690828Y-367540D01*
X-690892Y-367517D01*
X-690962Y-367489D01*
X-691045Y-367457D01*
X-691133Y-367424D01*
X-691225Y-367383D01*
X-691322Y-367337D01*
X-691424Y-367286D01*
X-691526Y-367230D01*
X-691627Y-367170D01*
X-691724Y-367105D01*
X-691822Y-367036D01*
X-691914Y-366962D01*
X-691923Y-366971D01*
X-691946Y-366994D01*
X-691983Y-367036D01*
X-692030Y-367091D01*
X-692090Y-367161D01*
X-692150Y-367249D01*
X-692219Y-367355D01*
X-692288Y-367471D01*
X-692358Y-367609D01*
X-692427Y-367762D01*
X-692487Y-367928D01*
X-692547Y-368113D01*
X-692594Y-368312D01*
X-692630Y-368525D01*
X-692654Y-368756D01*
X-692663Y-369005D01*
Y-369015D01*
Y-369038D01*
Y-369079D01*
X-692658Y-369135D01*
X-692654Y-369204D01*
X-692649Y-369283D01*
X-692640Y-369370D01*
X-692630Y-369468D01*
X-692617Y-369569D01*
X-692598Y-369676D01*
X-692575Y-369791D01*
X-692552Y-369907D01*
X-692520Y-370022D01*
X-692483Y-370138D01*
X-692441Y-370249D01*
X-692395Y-370360D01*
X-692390Y-370364D01*
X-692381Y-370387D01*
X-692367Y-370415D01*
X-692344Y-370457D01*
X-692316Y-370503D01*
X-692284Y-370563D01*
X-692247Y-370623D01*
X-692201Y-370693D01*
X-692150Y-370762D01*
X-692090Y-370836D01*
X-692030Y-370910D01*
X-691960Y-370984D01*
X-691882Y-371058D01*
X-691803Y-371132D01*
X-691715Y-371197D01*
X-691623Y-371261D01*
X-691618Y-371266D01*
X-691600Y-371275D01*
X-691572Y-371289D01*
X-691535Y-371312D01*
X-691484Y-371335D01*
X-691429Y-371363D01*
X-691364Y-371395D01*
X-691290Y-371423D01*
X-691207Y-371455D01*
X-691119Y-371483D01*
X-691026Y-371511D01*
X-690925Y-371534D01*
X-690823Y-371557D01*
X-690712Y-371571D01*
X-690596Y-371580D01*
X-690481Y-371585D01*
X-690439D01*
X-690388Y-371580D01*
X-690324Y-371576D01*
X-690245Y-371566D01*
X-690148Y-371552D01*
X-690046Y-371529D01*
X-689931Y-371506D01*
X-689811Y-371469D01*
X-689686Y-371428D01*
X-689552Y-371377D01*
X-689422Y-371312D01*
X-689288Y-371238D01*
X-689159Y-371150D01*
X-689034Y-371053D01*
X-688914Y-370938D01*
X-688909Y-370928D01*
X-688886Y-370905D01*
X-688858Y-370868D01*
X-688817Y-370817D01*
X-688771Y-370748D01*
X-688715Y-370665D01*
X-688660Y-370568D01*
X-688604Y-370452D01*
X-688544Y-370323D01*
X-688488Y-370179D01*
X-688433Y-370022D01*
X-688387Y-369851D01*
X-688345Y-369662D01*
X-688317Y-369458D01*
X-688299Y-369241D01*
X-688290Y-369005D01*
Y-369001D01*
Y-368991D01*
Y-368973D01*
Y-368950D01*
X-688294Y-368922D01*
Y-368885D01*
Y-368843D01*
X-688299Y-368802D01*
X-688304Y-368751D01*
X-688308Y-368696D01*
X-688322Y-368575D01*
X-688341Y-368441D01*
X-688368Y-368298D01*
X-688401Y-368145D01*
X-688442Y-367988D01*
X-688488Y-367831D01*
X-688549Y-367669D01*
X-688618Y-367517D01*
X-688701Y-367364D01*
X-688798Y-367221D01*
X-688904Y-367091D01*
X-688914Y-367082D01*
X-688932Y-367064D01*
X-688969Y-367031D01*
X-689016Y-366990D01*
X-689076Y-366939D01*
X-689149Y-366879D01*
X-689237Y-366819D01*
X-689334Y-366759D01*
X-689441Y-366698D01*
X-689561Y-366638D01*
X-689690Y-366578D01*
X-689829Y-366532D01*
X-689982Y-366486D01*
X-690139Y-366454D01*
X-690305Y-366435D01*
X-690481Y-366426D01*
D02*
G37*
G36*
X-764536D02*
X-764582D01*
X-764614Y-366430D01*
X-764656D01*
X-764702Y-366435D01*
X-764757Y-366440D01*
X-764813Y-366449D01*
X-764878Y-366454D01*
X-764947Y-366467D01*
X-765090Y-366495D01*
X-765238Y-366537D01*
X-765391Y-366592D01*
X-765386Y-366597D01*
X-765372Y-366601D01*
X-765354Y-366615D01*
X-765321Y-366634D01*
X-765284Y-366657D01*
X-765243Y-366680D01*
X-765192Y-366708D01*
X-765141Y-366735D01*
X-765081Y-366763D01*
X-765012Y-366796D01*
X-764873Y-366856D01*
X-764716Y-366911D01*
X-764554Y-366957D01*
X-764762Y-367577D01*
X-764771D01*
X-764794Y-367568D01*
X-764831Y-367554D01*
X-764882Y-367540D01*
X-764947Y-367517D01*
X-765016Y-367489D01*
X-765099Y-367457D01*
X-765187Y-367424D01*
X-765280Y-367383D01*
X-765377Y-367337D01*
X-765479Y-367286D01*
X-765580Y-367230D01*
X-765682Y-367170D01*
X-765779Y-367105D01*
X-765876Y-367036D01*
X-765968Y-366962D01*
X-765978Y-366971D01*
X-766001Y-366994D01*
X-766038Y-367036D01*
X-766084Y-367091D01*
X-766144Y-367161D01*
X-766204Y-367249D01*
X-766274Y-367355D01*
X-766343Y-367471D01*
X-766412Y-367609D01*
X-766482Y-367762D01*
X-766542Y-367928D01*
X-766602Y-368113D01*
X-766648Y-368312D01*
X-766685Y-368525D01*
X-766708Y-368756D01*
X-766717Y-369005D01*
Y-369015D01*
Y-369038D01*
Y-369079D01*
X-766713Y-369135D01*
X-766708Y-369204D01*
X-766704Y-369283D01*
X-766694Y-369370D01*
X-766685Y-369468D01*
X-766671Y-369569D01*
X-766653Y-369676D01*
X-766630Y-369791D01*
X-766607Y-369907D01*
X-766574Y-370022D01*
X-766537Y-370138D01*
X-766496Y-370249D01*
X-766449Y-370360D01*
X-766445Y-370364D01*
X-766435Y-370387D01*
X-766422Y-370415D01*
X-766398Y-370457D01*
X-766371Y-370503D01*
X-766338Y-370563D01*
X-766301Y-370623D01*
X-766255Y-370693D01*
X-766204Y-370762D01*
X-766144Y-370836D01*
X-766084Y-370910D01*
X-766015Y-370984D01*
X-765936Y-371058D01*
X-765858Y-371132D01*
X-765770Y-371197D01*
X-765677Y-371261D01*
X-765673Y-371266D01*
X-765654Y-371275D01*
X-765627Y-371289D01*
X-765590Y-371312D01*
X-765539Y-371335D01*
X-765483Y-371363D01*
X-765418Y-371395D01*
X-765344Y-371423D01*
X-765261Y-371455D01*
X-765173Y-371483D01*
X-765081Y-371511D01*
X-764979Y-371534D01*
X-764878Y-371557D01*
X-764767Y-371571D01*
X-764651Y-371580D01*
X-764536Y-371585D01*
X-764494D01*
X-764443Y-371580D01*
X-764378Y-371576D01*
X-764300Y-371566D01*
X-764203Y-371552D01*
X-764101Y-371529D01*
X-763985Y-371506D01*
X-763865Y-371469D01*
X-763740Y-371428D01*
X-763606Y-371377D01*
X-763477Y-371312D01*
X-763343Y-371238D01*
X-763213Y-371150D01*
X-763089Y-371053D01*
X-762968Y-370938D01*
X-762964Y-370928D01*
X-762941Y-370905D01*
X-762913Y-370868D01*
X-762871Y-370817D01*
X-762825Y-370748D01*
X-762770Y-370665D01*
X-762714Y-370568D01*
X-762659Y-370452D01*
X-762598Y-370323D01*
X-762543Y-370179D01*
X-762488Y-370022D01*
X-762441Y-369851D01*
X-762400Y-369662D01*
X-762372Y-369458D01*
X-762354Y-369241D01*
X-762344Y-369005D01*
Y-369001D01*
Y-368991D01*
Y-368973D01*
Y-368950D01*
X-762349Y-368922D01*
Y-368885D01*
Y-368843D01*
X-762354Y-368802D01*
X-762358Y-368751D01*
X-762363Y-368696D01*
X-762377Y-368575D01*
X-762395Y-368441D01*
X-762423Y-368298D01*
X-762455Y-368145D01*
X-762497Y-367988D01*
X-762543Y-367831D01*
X-762603Y-367669D01*
X-762673Y-367517D01*
X-762756Y-367364D01*
X-762853Y-367221D01*
X-762959Y-367091D01*
X-762968Y-367082D01*
X-762987Y-367064D01*
X-763024Y-367031D01*
X-763070Y-366990D01*
X-763130Y-366939D01*
X-763204Y-366879D01*
X-763292Y-366819D01*
X-763389Y-366759D01*
X-763495Y-366698D01*
X-763615Y-366638D01*
X-763745Y-366578D01*
X-763884Y-366532D01*
X-764036Y-366486D01*
X-764193Y-366454D01*
X-764360Y-366435D01*
X-764536Y-366426D01*
D02*
G37*
G36*
X-764141Y-499776D02*
X-764187D01*
X-764220Y-499780D01*
X-764261D01*
X-764307Y-499785D01*
X-764363Y-499790D01*
X-764418Y-499799D01*
X-764483Y-499804D01*
X-764552Y-499817D01*
X-764696Y-499845D01*
X-764844Y-499887D01*
X-764996Y-499942D01*
X-764992Y-499947D01*
X-764978Y-499951D01*
X-764959Y-499965D01*
X-764927Y-499984D01*
X-764890Y-500007D01*
X-764848Y-500030D01*
X-764797Y-500058D01*
X-764746Y-500085D01*
X-764686Y-500113D01*
X-764617Y-500146D01*
X-764478Y-500206D01*
X-764321Y-500261D01*
X-764159Y-500307D01*
X-764367Y-500927D01*
X-764377D01*
X-764400Y-500918D01*
X-764437Y-500904D01*
X-764488Y-500890D01*
X-764552Y-500867D01*
X-764622Y-500839D01*
X-764705Y-500807D01*
X-764793Y-500774D01*
X-764885Y-500733D01*
X-764982Y-500686D01*
X-765084Y-500636D01*
X-765186Y-500580D01*
X-765287Y-500520D01*
X-765384Y-500455D01*
X-765481Y-500386D01*
X-765574Y-500312D01*
X-765583Y-500321D01*
X-765606Y-500344D01*
X-765643Y-500386D01*
X-765690Y-500441D01*
X-765750Y-500511D01*
X-765810Y-500599D01*
X-765879Y-500705D01*
X-765948Y-500821D01*
X-766018Y-500959D01*
X-766087Y-501112D01*
X-766147Y-501278D01*
X-766207Y-501463D01*
X-766254Y-501662D01*
X-766291Y-501875D01*
X-766314Y-502106D01*
X-766323Y-502355D01*
Y-502365D01*
Y-502388D01*
Y-502429D01*
X-766318Y-502485D01*
X-766314Y-502554D01*
X-766309Y-502633D01*
X-766300Y-502720D01*
X-766291Y-502818D01*
X-766277Y-502919D01*
X-766258Y-503026D01*
X-766235Y-503141D01*
X-766212Y-503257D01*
X-766180Y-503372D01*
X-766143Y-503488D01*
X-766101Y-503599D01*
X-766055Y-503710D01*
X-766050Y-503714D01*
X-766041Y-503737D01*
X-766027Y-503765D01*
X-766004Y-503807D01*
X-765976Y-503853D01*
X-765944Y-503913D01*
X-765907Y-503973D01*
X-765861Y-504043D01*
X-765810Y-504112D01*
X-765750Y-504186D01*
X-765690Y-504260D01*
X-765620Y-504334D01*
X-765542Y-504408D01*
X-765463Y-504482D01*
X-765375Y-504547D01*
X-765283Y-504611D01*
X-765278Y-504616D01*
X-765260Y-504625D01*
X-765232Y-504639D01*
X-765195Y-504662D01*
X-765144Y-504685D01*
X-765089Y-504713D01*
X-765024Y-504745D01*
X-764950Y-504773D01*
X-764867Y-504805D01*
X-764779Y-504833D01*
X-764686Y-504861D01*
X-764585Y-504884D01*
X-764483Y-504907D01*
X-764372Y-504921D01*
X-764257Y-504930D01*
X-764141Y-504935D01*
X-764099D01*
X-764048Y-504930D01*
X-763984Y-504926D01*
X-763905Y-504916D01*
X-763808Y-504902D01*
X-763706Y-504879D01*
X-763591Y-504856D01*
X-763471Y-504819D01*
X-763346Y-504778D01*
X-763212Y-504727D01*
X-763082Y-504662D01*
X-762948Y-504588D01*
X-762819Y-504500D01*
X-762694Y-504403D01*
X-762574Y-504288D01*
X-762569Y-504278D01*
X-762546Y-504255D01*
X-762518Y-504218D01*
X-762477Y-504167D01*
X-762430Y-504098D01*
X-762375Y-504015D01*
X-762319Y-503918D01*
X-762264Y-503802D01*
X-762204Y-503673D01*
X-762149Y-503530D01*
X-762093Y-503372D01*
X-762047Y-503201D01*
X-762005Y-503012D01*
X-761977Y-502808D01*
X-761959Y-502591D01*
X-761950Y-502355D01*
Y-502351D01*
Y-502341D01*
Y-502323D01*
Y-502300D01*
X-761954Y-502272D01*
Y-502235D01*
Y-502193D01*
X-761959Y-502152D01*
X-761964Y-502101D01*
X-761968Y-502046D01*
X-761982Y-501925D01*
X-762001Y-501791D01*
X-762028Y-501648D01*
X-762061Y-501495D01*
X-762102Y-501338D01*
X-762149Y-501181D01*
X-762209Y-501019D01*
X-762278Y-500867D01*
X-762361Y-500714D01*
X-762458Y-500571D01*
X-762564Y-500441D01*
X-762574Y-500432D01*
X-762592Y-500414D01*
X-762629Y-500381D01*
X-762675Y-500340D01*
X-762736Y-500289D01*
X-762810Y-500229D01*
X-762897Y-500169D01*
X-762995Y-500109D01*
X-763101Y-500048D01*
X-763221Y-499988D01*
X-763350Y-499928D01*
X-763489Y-499882D01*
X-763642Y-499836D01*
X-763799Y-499804D01*
X-763965Y-499785D01*
X-764141Y-499776D01*
D02*
G37*
%LPD*%
D12*
X-706639Y-517544D02*
X-668193D01*
X-706639D02*
Y-483544D01*
X-668193D01*
Y-517544D02*
Y-483544D01*
Y-473094D02*
Y-439094D01*
X-706639D02*
X-668193D01*
X-706639Y-473094D02*
Y-439094D01*
Y-473094D02*
X-668193D01*
X-741853D02*
Y-439094D01*
X-780299D02*
X-741853D01*
X-780299Y-473094D02*
Y-439094D01*
Y-473094D02*
X-741853D01*
X-668376Y-294116D02*
Y-260116D01*
X-706822D02*
X-668376D01*
X-706822Y-294116D02*
Y-260116D01*
Y-294116D02*
X-668376D01*
X-742459D02*
Y-260116D01*
X-780906D02*
X-742459D01*
X-780906Y-294116D02*
Y-260116D01*
Y-294116D02*
X-742459D01*
X-668376Y-339744D02*
Y-305744D01*
X-706822D02*
X-668376D01*
X-706822Y-339744D02*
Y-305744D01*
Y-339744D02*
X-668376D01*
X-742459D02*
Y-305744D01*
X-780906D02*
X-742459D01*
X-780906Y-339744D02*
Y-305744D01*
Y-339744D02*
X-742459D01*
X-668193Y-428644D02*
Y-394644D01*
X-706639D02*
X-668193D01*
X-706639Y-428644D02*
Y-394644D01*
Y-428644D02*
X-668193D01*
X-742247D02*
Y-394644D01*
X-780694D02*
X-742247D01*
X-780694Y-428644D02*
Y-394644D01*
Y-428644D02*
X-742247D01*
X-668193Y-384194D02*
Y-350194D01*
X-706639D02*
X-668193D01*
X-706639Y-384194D02*
Y-350194D01*
Y-384194D02*
X-668193D01*
X-742247D02*
Y-350194D01*
X-780694D02*
X-742247D01*
X-780694Y-384194D02*
Y-350194D01*
Y-384194D02*
X-742247D01*
X-741853Y-517544D02*
Y-483544D01*
X-780299D02*
X-741853D01*
X-780299Y-517544D02*
Y-483544D01*
Y-517544D02*
X-741853D01*
M02*
