G04*
G04 #@! TF.GenerationSoftware,Altium Limited,Altium Designer,21.0.9 (235)*
G04*
G04 Layer_Color=16711935*
%FSLAX44Y44*%
%MOMM*%
G71*
G04*
G04 #@! TF.SameCoordinates,B04B5628-BEB7-489B-AFC1-9DCA5A1A145D*
G04*
G04*
G04 #@! TF.FilePolarity,Positive*
G04*
G01*
G75*
%ADD12C,0.2000*%
G36*
X-774060Y-1051635D02*
X-774069D01*
X-774092D01*
X-774129Y-1051640D01*
X-774180Y-1051645D01*
X-774240Y-1051649D01*
X-774305Y-1051658D01*
X-774379Y-1051668D01*
X-774462Y-1051682D01*
X-774628Y-1051714D01*
X-774795Y-1051760D01*
X-774868Y-1051793D01*
X-774942Y-1051825D01*
X-775007Y-1051867D01*
X-775063Y-1051908D01*
X-775067Y-1051913D01*
X-775072Y-1051917D01*
X-775086Y-1051936D01*
X-775104Y-1051954D01*
X-775123Y-1051977D01*
X-775146Y-1052010D01*
X-775174Y-1052042D01*
X-775197Y-1052084D01*
X-775220Y-1052130D01*
X-775248Y-1052181D01*
X-775271Y-1052236D01*
X-775289Y-1052296D01*
X-775308Y-1052366D01*
X-775317Y-1052435D01*
X-775326Y-1052509D01*
X-775331Y-1052588D01*
Y-1052620D01*
X-775326Y-1052643D01*
Y-1052671D01*
X-775322Y-1052703D01*
X-775312Y-1052777D01*
X-775294Y-1052860D01*
X-775271Y-1052953D01*
X-775234Y-1053050D01*
X-775188Y-1053138D01*
Y-1053142D01*
X-775178Y-1053147D01*
X-775160Y-1053175D01*
X-775127Y-1053216D01*
X-775081Y-1053263D01*
X-775026Y-1053318D01*
X-774956Y-1053369D01*
X-774878Y-1053420D01*
X-774790Y-1053457D01*
X-774785D01*
X-774776Y-1053461D01*
X-774762Y-1053466D01*
X-774744Y-1053471D01*
X-774716Y-1053475D01*
X-774684Y-1053484D01*
X-774642Y-1053494D01*
X-774596Y-1053503D01*
X-774545Y-1053508D01*
X-774485Y-1053517D01*
X-774420Y-1053526D01*
X-774346Y-1053531D01*
X-774268Y-1053535D01*
X-774184Y-1053540D01*
X-774092Y-1053545D01*
X-773990D01*
X-769580D01*
Y-1054391D01*
X-773939D01*
X-773949D01*
X-773976D01*
X-774018D01*
X-774073Y-1054386D01*
X-774138D01*
X-774217Y-1054381D01*
X-774305Y-1054372D01*
X-774397Y-1054367D01*
X-774494Y-1054354D01*
X-774596Y-1054344D01*
X-774804Y-1054307D01*
X-774905Y-1054284D01*
X-775003Y-1054257D01*
X-775095Y-1054229D01*
X-775183Y-1054192D01*
X-775188D01*
X-775201Y-1054183D01*
X-775225Y-1054173D01*
X-775257Y-1054155D01*
X-775294Y-1054136D01*
X-775335Y-1054109D01*
X-775382Y-1054076D01*
X-775433Y-1054044D01*
X-775483Y-1054002D01*
X-775539Y-1053956D01*
X-775594Y-1053905D01*
X-775650Y-1053850D01*
X-775705Y-1053790D01*
X-775756Y-1053725D01*
X-775807Y-1053655D01*
X-775853Y-1053577D01*
X-775858Y-1053572D01*
X-775862Y-1053558D01*
X-775876Y-1053535D01*
X-775890Y-1053503D01*
X-775909Y-1053461D01*
X-775927Y-1053415D01*
X-775946Y-1053360D01*
X-775969Y-1053295D01*
X-775992Y-1053226D01*
X-776010Y-1053152D01*
X-776029Y-1053068D01*
X-776047Y-1052985D01*
X-776061Y-1052893D01*
X-776075Y-1052796D01*
X-776080Y-1052699D01*
X-776084Y-1052592D01*
Y-1052555D01*
X-776080Y-1052514D01*
X-776075Y-1052454D01*
X-776070Y-1052384D01*
X-776057Y-1052301D01*
X-776043Y-1052209D01*
X-776024Y-1052112D01*
X-775996Y-1052010D01*
X-775969Y-1051904D01*
X-775927Y-1051797D01*
X-775881Y-1051691D01*
X-775825Y-1051584D01*
X-775761Y-1051483D01*
X-775687Y-1051386D01*
X-775604Y-1051298D01*
X-775599Y-1051293D01*
X-775580Y-1051279D01*
X-775553Y-1051256D01*
X-775511Y-1051229D01*
X-775460Y-1051196D01*
X-775400Y-1051159D01*
X-775326Y-1051118D01*
X-775243Y-1051081D01*
X-775146Y-1051039D01*
X-775040Y-1050997D01*
X-774919Y-1050965D01*
X-774790Y-1050933D01*
X-774651Y-1050905D01*
X-774499Y-1050887D01*
X-774337Y-1050873D01*
X-774166D01*
X-774060Y-1051635D01*
D02*
G37*
G36*
X-771161Y-1056064D02*
X-771152Y-1056083D01*
X-771133Y-1056120D01*
X-771110Y-1056166D01*
X-771083Y-1056221D01*
X-771046Y-1056291D01*
X-771004Y-1056365D01*
X-770958Y-1056443D01*
X-770902Y-1056531D01*
X-770847Y-1056623D01*
X-770717Y-1056817D01*
X-770574Y-1057016D01*
X-770417Y-1057206D01*
X-770412Y-1057210D01*
X-770398Y-1057229D01*
X-770375Y-1057252D01*
X-770343Y-1057284D01*
X-770301Y-1057326D01*
X-770255Y-1057372D01*
X-770200Y-1057423D01*
X-770144Y-1057479D01*
X-770079Y-1057534D01*
X-770010Y-1057594D01*
X-769867Y-1057710D01*
X-769714Y-1057816D01*
X-769635Y-1057862D01*
X-769557Y-1057904D01*
Y-1058412D01*
X-775978D01*
Y-1057626D01*
X-770976D01*
X-770981Y-1057622D01*
X-770990Y-1057613D01*
X-771004Y-1057599D01*
X-771022Y-1057576D01*
X-771046Y-1057548D01*
X-771078Y-1057511D01*
X-771110Y-1057469D01*
X-771147Y-1057428D01*
X-771184Y-1057372D01*
X-771230Y-1057317D01*
X-771272Y-1057257D01*
X-771323Y-1057192D01*
X-771369Y-1057118D01*
X-771420Y-1057044D01*
X-771522Y-1056878D01*
X-771526Y-1056873D01*
X-771535Y-1056859D01*
X-771549Y-1056831D01*
X-771563Y-1056799D01*
X-771586Y-1056762D01*
X-771614Y-1056716D01*
X-771642Y-1056660D01*
X-771674Y-1056605D01*
X-771739Y-1056475D01*
X-771804Y-1056337D01*
X-771868Y-1056193D01*
X-771924Y-1056055D01*
X-771166D01*
X-771161Y-1056064D01*
D02*
G37*
G36*
X-772677Y-1060428D02*
X-772636D01*
X-772543Y-1060433D01*
X-772432Y-1060437D01*
X-772308Y-1060442D01*
X-772173Y-1060451D01*
X-772030Y-1060465D01*
X-771882Y-1060479D01*
X-771577Y-1060520D01*
X-771424Y-1060548D01*
X-771277Y-1060581D01*
X-771133Y-1060613D01*
X-770999Y-1060654D01*
X-770990Y-1060659D01*
X-770967Y-1060664D01*
X-770935Y-1060678D01*
X-770884Y-1060696D01*
X-770828Y-1060724D01*
X-770759Y-1060751D01*
X-770685Y-1060788D01*
X-770606Y-1060830D01*
X-770523Y-1060872D01*
X-770435Y-1060927D01*
X-770343Y-1060983D01*
X-770255Y-1061043D01*
X-770167Y-1061112D01*
X-770084Y-1061186D01*
X-770005Y-1061265D01*
X-769931Y-1061348D01*
X-769927Y-1061352D01*
X-769913Y-1061371D01*
X-769894Y-1061394D01*
X-769871Y-1061431D01*
X-769844Y-1061477D01*
X-769811Y-1061533D01*
X-769779Y-1061593D01*
X-769742Y-1061667D01*
X-769709Y-1061745D01*
X-769677Y-1061833D01*
X-769645Y-1061930D01*
X-769617Y-1062032D01*
X-769589Y-1062143D01*
X-769571Y-1062259D01*
X-769562Y-1062379D01*
X-769557Y-1062508D01*
Y-1062559D01*
X-769562Y-1062596D01*
Y-1062638D01*
X-769566Y-1062693D01*
X-769575Y-1062749D01*
X-769585Y-1062813D01*
X-769608Y-1062952D01*
X-769645Y-1063104D01*
X-769696Y-1063262D01*
X-769728Y-1063336D01*
X-769765Y-1063410D01*
Y-1063414D01*
X-769774Y-1063428D01*
X-769788Y-1063447D01*
X-769802Y-1063474D01*
X-769825Y-1063507D01*
X-769853Y-1063544D01*
X-769881Y-1063590D01*
X-769918Y-1063636D01*
X-770001Y-1063738D01*
X-770107Y-1063844D01*
X-770227Y-1063951D01*
X-770366Y-1064048D01*
X-770370Y-1064052D01*
X-770384Y-1064057D01*
X-770407Y-1064071D01*
X-770435Y-1064089D01*
X-770472Y-1064112D01*
X-770518Y-1064135D01*
X-770569Y-1064163D01*
X-770629Y-1064191D01*
X-770694Y-1064223D01*
X-770768Y-1064256D01*
X-770847Y-1064288D01*
X-770930Y-1064325D01*
X-771018Y-1064357D01*
X-771110Y-1064385D01*
X-771212Y-1064417D01*
X-771314Y-1064445D01*
X-771318D01*
X-771341Y-1064450D01*
X-771369Y-1064459D01*
X-771415Y-1064468D01*
X-771471Y-1064477D01*
X-771540Y-1064491D01*
X-771619Y-1064505D01*
X-771711Y-1064519D01*
X-771813Y-1064533D01*
X-771928Y-1064547D01*
X-772053Y-1064561D01*
X-772187Y-1064570D01*
X-772331Y-1064579D01*
X-772488Y-1064588D01*
X-772650Y-1064593D01*
X-772825D01*
X-772830D01*
X-772839D01*
X-772853D01*
X-772876D01*
X-772899D01*
X-772932D01*
X-772969Y-1064588D01*
X-773010D01*
X-773107Y-1064584D01*
X-773218Y-1064579D01*
X-773338Y-1064575D01*
X-773472Y-1064565D01*
X-773616Y-1064551D01*
X-773764Y-1064538D01*
X-774064Y-1064496D01*
X-774217Y-1064468D01*
X-774365Y-1064436D01*
X-774508Y-1064399D01*
X-774642Y-1064357D01*
X-774651Y-1064353D01*
X-774674Y-1064348D01*
X-774707Y-1064334D01*
X-774758Y-1064316D01*
X-774813Y-1064288D01*
X-774882Y-1064260D01*
X-774956Y-1064223D01*
X-775035Y-1064186D01*
X-775118Y-1064140D01*
X-775206Y-1064085D01*
X-775294Y-1064029D01*
X-775386Y-1063969D01*
X-775474Y-1063900D01*
X-775557Y-1063826D01*
X-775636Y-1063747D01*
X-775710Y-1063664D01*
X-775714Y-1063659D01*
X-775724Y-1063641D01*
X-775742Y-1063618D01*
X-775770Y-1063581D01*
X-775798Y-1063534D01*
X-775830Y-1063484D01*
X-775862Y-1063419D01*
X-775895Y-1063350D01*
X-775932Y-1063266D01*
X-775964Y-1063178D01*
X-775996Y-1063086D01*
X-776024Y-1062984D01*
X-776047Y-1062873D01*
X-776066Y-1062758D01*
X-776080Y-1062638D01*
X-776084Y-1062508D01*
Y-1062467D01*
X-776080Y-1062420D01*
X-776075Y-1062356D01*
X-776066Y-1062277D01*
X-776047Y-1062185D01*
X-776029Y-1062087D01*
X-776001Y-1061977D01*
X-775969Y-1061861D01*
X-775922Y-1061745D01*
X-775872Y-1061625D01*
X-775807Y-1061500D01*
X-775733Y-1061380D01*
X-775645Y-1061265D01*
X-775544Y-1061154D01*
X-775428Y-1061052D01*
X-775423D01*
X-775419Y-1061047D01*
X-775405Y-1061038D01*
X-775391Y-1061024D01*
X-775368Y-1061010D01*
X-775340Y-1060992D01*
X-775312Y-1060973D01*
X-775275Y-1060955D01*
X-775234Y-1060932D01*
X-775188Y-1060904D01*
X-775137Y-1060881D01*
X-775081Y-1060853D01*
X-775016Y-1060826D01*
X-774952Y-1060798D01*
X-774878Y-1060765D01*
X-774804Y-1060738D01*
X-774721Y-1060710D01*
X-774633Y-1060678D01*
X-774540Y-1060650D01*
X-774439Y-1060622D01*
X-774337Y-1060594D01*
X-774226Y-1060571D01*
X-774115Y-1060544D01*
X-773990Y-1060520D01*
X-773865Y-1060502D01*
X-773736Y-1060483D01*
X-773597Y-1060465D01*
X-773454Y-1060451D01*
X-773306Y-1060437D01*
X-773154Y-1060433D01*
X-772992Y-1060423D01*
X-772825D01*
X-772821D01*
X-772811D01*
X-772797D01*
X-772774D01*
X-772747D01*
X-772714D01*
X-772677Y-1060428D01*
D02*
G37*
G36*
X-710559Y-1051635D02*
X-710569D01*
X-710592D01*
X-710629Y-1051640D01*
X-710680Y-1051645D01*
X-710740Y-1051649D01*
X-710805Y-1051658D01*
X-710879Y-1051668D01*
X-710962Y-1051682D01*
X-711128Y-1051714D01*
X-711295Y-1051760D01*
X-711368Y-1051793D01*
X-711442Y-1051825D01*
X-711507Y-1051867D01*
X-711563Y-1051908D01*
X-711567Y-1051913D01*
X-711572Y-1051917D01*
X-711586Y-1051936D01*
X-711604Y-1051954D01*
X-711623Y-1051977D01*
X-711646Y-1052010D01*
X-711674Y-1052042D01*
X-711697Y-1052084D01*
X-711720Y-1052130D01*
X-711748Y-1052181D01*
X-711771Y-1052236D01*
X-711789Y-1052296D01*
X-711808Y-1052366D01*
X-711817Y-1052435D01*
X-711826Y-1052509D01*
X-711831Y-1052588D01*
Y-1052620D01*
X-711826Y-1052643D01*
Y-1052671D01*
X-711822Y-1052703D01*
X-711812Y-1052777D01*
X-711794Y-1052860D01*
X-711771Y-1052953D01*
X-711734Y-1053050D01*
X-711687Y-1053138D01*
Y-1053142D01*
X-711678Y-1053147D01*
X-711660Y-1053175D01*
X-711627Y-1053216D01*
X-711581Y-1053263D01*
X-711526Y-1053318D01*
X-711456Y-1053369D01*
X-711378Y-1053420D01*
X-711290Y-1053457D01*
X-711285D01*
X-711276Y-1053461D01*
X-711262Y-1053466D01*
X-711244Y-1053471D01*
X-711216Y-1053475D01*
X-711184Y-1053484D01*
X-711142Y-1053494D01*
X-711096Y-1053503D01*
X-711045Y-1053508D01*
X-710985Y-1053517D01*
X-710920Y-1053526D01*
X-710846Y-1053531D01*
X-710768Y-1053535D01*
X-710684Y-1053540D01*
X-710592Y-1053545D01*
X-710490D01*
X-706080D01*
Y-1054391D01*
X-710439D01*
X-710449D01*
X-710476D01*
X-710518D01*
X-710573Y-1054386D01*
X-710638D01*
X-710717Y-1054381D01*
X-710805Y-1054372D01*
X-710897Y-1054367D01*
X-710994Y-1054354D01*
X-711096Y-1054344D01*
X-711304Y-1054307D01*
X-711405Y-1054284D01*
X-711503Y-1054257D01*
X-711595Y-1054229D01*
X-711683Y-1054192D01*
X-711687D01*
X-711701Y-1054183D01*
X-711724Y-1054173D01*
X-711757Y-1054155D01*
X-711794Y-1054136D01*
X-711835Y-1054109D01*
X-711882Y-1054076D01*
X-711933Y-1054044D01*
X-711983Y-1054002D01*
X-712039Y-1053956D01*
X-712094Y-1053905D01*
X-712150Y-1053850D01*
X-712205Y-1053790D01*
X-712256Y-1053725D01*
X-712307Y-1053655D01*
X-712353Y-1053577D01*
X-712358Y-1053572D01*
X-712362Y-1053558D01*
X-712376Y-1053535D01*
X-712390Y-1053503D01*
X-712409Y-1053461D01*
X-712427Y-1053415D01*
X-712446Y-1053360D01*
X-712469Y-1053295D01*
X-712492Y-1053226D01*
X-712510Y-1053152D01*
X-712529Y-1053068D01*
X-712547Y-1052985D01*
X-712561Y-1052893D01*
X-712575Y-1052796D01*
X-712580Y-1052699D01*
X-712584Y-1052592D01*
Y-1052555D01*
X-712580Y-1052514D01*
X-712575Y-1052454D01*
X-712570Y-1052384D01*
X-712557Y-1052301D01*
X-712543Y-1052209D01*
X-712524Y-1052112D01*
X-712496Y-1052010D01*
X-712469Y-1051904D01*
X-712427Y-1051797D01*
X-712381Y-1051691D01*
X-712325Y-1051584D01*
X-712261Y-1051483D01*
X-712187Y-1051386D01*
X-712104Y-1051298D01*
X-712099Y-1051293D01*
X-712080Y-1051279D01*
X-712053Y-1051256D01*
X-712011Y-1051229D01*
X-711960Y-1051196D01*
X-711900Y-1051159D01*
X-711826Y-1051118D01*
X-711743Y-1051081D01*
X-711646Y-1051039D01*
X-711540Y-1050997D01*
X-711419Y-1050965D01*
X-711290Y-1050933D01*
X-711151Y-1050905D01*
X-710999Y-1050887D01*
X-710837Y-1050873D01*
X-710666D01*
X-710559Y-1051635D01*
D02*
G37*
G36*
X-707661Y-1056064D02*
X-707652Y-1056083D01*
X-707633Y-1056120D01*
X-707610Y-1056166D01*
X-707582Y-1056221D01*
X-707545Y-1056291D01*
X-707504Y-1056365D01*
X-707458Y-1056443D01*
X-707402Y-1056531D01*
X-707347Y-1056623D01*
X-707217Y-1056817D01*
X-707074Y-1057016D01*
X-706917Y-1057206D01*
X-706912Y-1057210D01*
X-706898Y-1057229D01*
X-706875Y-1057252D01*
X-706843Y-1057284D01*
X-706801Y-1057326D01*
X-706755Y-1057372D01*
X-706700Y-1057423D01*
X-706644Y-1057479D01*
X-706579Y-1057534D01*
X-706510Y-1057594D01*
X-706367Y-1057710D01*
X-706214Y-1057816D01*
X-706135Y-1057862D01*
X-706057Y-1057904D01*
Y-1058412D01*
X-712478D01*
Y-1057626D01*
X-707476D01*
X-707481Y-1057622D01*
X-707490Y-1057613D01*
X-707504Y-1057599D01*
X-707522Y-1057576D01*
X-707545Y-1057548D01*
X-707578Y-1057511D01*
X-707610Y-1057469D01*
X-707647Y-1057428D01*
X-707684Y-1057372D01*
X-707730Y-1057317D01*
X-707772Y-1057257D01*
X-707823Y-1057192D01*
X-707869Y-1057118D01*
X-707920Y-1057044D01*
X-708022Y-1056878D01*
X-708026Y-1056873D01*
X-708036Y-1056859D01*
X-708049Y-1056831D01*
X-708063Y-1056799D01*
X-708086Y-1056762D01*
X-708114Y-1056716D01*
X-708142Y-1056660D01*
X-708174Y-1056605D01*
X-708239Y-1056475D01*
X-708304Y-1056337D01*
X-708368Y-1056193D01*
X-708424Y-1056055D01*
X-707666D01*
X-707661Y-1056064D01*
D02*
G37*
G36*
X-709177Y-1060428D02*
X-709136D01*
X-709043Y-1060433D01*
X-708932Y-1060437D01*
X-708808Y-1060442D01*
X-708673Y-1060451D01*
X-708530Y-1060465D01*
X-708382Y-1060479D01*
X-708077Y-1060520D01*
X-707924Y-1060548D01*
X-707777Y-1060581D01*
X-707633Y-1060613D01*
X-707499Y-1060654D01*
X-707490Y-1060659D01*
X-707467Y-1060664D01*
X-707434Y-1060678D01*
X-707384Y-1060696D01*
X-707328Y-1060724D01*
X-707259Y-1060751D01*
X-707185Y-1060788D01*
X-707106Y-1060830D01*
X-707023Y-1060872D01*
X-706935Y-1060927D01*
X-706843Y-1060983D01*
X-706755Y-1061043D01*
X-706667Y-1061112D01*
X-706584Y-1061186D01*
X-706505Y-1061265D01*
X-706431Y-1061348D01*
X-706427Y-1061352D01*
X-706413Y-1061371D01*
X-706394Y-1061394D01*
X-706371Y-1061431D01*
X-706344Y-1061477D01*
X-706311Y-1061533D01*
X-706279Y-1061593D01*
X-706242Y-1061667D01*
X-706209Y-1061745D01*
X-706177Y-1061833D01*
X-706145Y-1061930D01*
X-706117Y-1062032D01*
X-706089Y-1062143D01*
X-706071Y-1062259D01*
X-706062Y-1062379D01*
X-706057Y-1062508D01*
Y-1062559D01*
X-706062Y-1062596D01*
Y-1062638D01*
X-706066Y-1062693D01*
X-706075Y-1062749D01*
X-706085Y-1062813D01*
X-706108Y-1062952D01*
X-706145Y-1063104D01*
X-706196Y-1063262D01*
X-706228Y-1063336D01*
X-706265Y-1063410D01*
Y-1063414D01*
X-706274Y-1063428D01*
X-706288Y-1063447D01*
X-706302Y-1063474D01*
X-706325Y-1063507D01*
X-706353Y-1063544D01*
X-706380Y-1063590D01*
X-706417Y-1063636D01*
X-706501Y-1063738D01*
X-706607Y-1063844D01*
X-706727Y-1063951D01*
X-706866Y-1064048D01*
X-706870Y-1064052D01*
X-706884Y-1064057D01*
X-706908Y-1064071D01*
X-706935Y-1064089D01*
X-706972Y-1064112D01*
X-707019Y-1064135D01*
X-707069Y-1064163D01*
X-707129Y-1064191D01*
X-707194Y-1064223D01*
X-707268Y-1064256D01*
X-707347Y-1064288D01*
X-707430Y-1064325D01*
X-707518Y-1064357D01*
X-707610Y-1064385D01*
X-707712Y-1064417D01*
X-707814Y-1064445D01*
X-707818D01*
X-707841Y-1064450D01*
X-707869Y-1064459D01*
X-707915Y-1064468D01*
X-707971Y-1064477D01*
X-708040Y-1064491D01*
X-708119Y-1064505D01*
X-708211Y-1064519D01*
X-708313Y-1064533D01*
X-708428Y-1064547D01*
X-708553Y-1064561D01*
X-708687Y-1064570D01*
X-708831Y-1064579D01*
X-708988Y-1064588D01*
X-709150Y-1064593D01*
X-709325D01*
X-709330D01*
X-709339D01*
X-709353D01*
X-709376D01*
X-709399D01*
X-709432D01*
X-709469Y-1064588D01*
X-709510D01*
X-709607Y-1064584D01*
X-709718Y-1064579D01*
X-709838Y-1064575D01*
X-709972Y-1064565D01*
X-710116Y-1064551D01*
X-710264Y-1064538D01*
X-710564Y-1064496D01*
X-710717Y-1064468D01*
X-710865Y-1064436D01*
X-711008Y-1064399D01*
X-711142Y-1064357D01*
X-711151Y-1064353D01*
X-711174Y-1064348D01*
X-711207Y-1064334D01*
X-711258Y-1064316D01*
X-711313Y-1064288D01*
X-711382Y-1064260D01*
X-711456Y-1064223D01*
X-711535Y-1064186D01*
X-711618Y-1064140D01*
X-711706Y-1064085D01*
X-711794Y-1064029D01*
X-711886Y-1063969D01*
X-711974Y-1063900D01*
X-712057Y-1063826D01*
X-712136Y-1063747D01*
X-712210Y-1063664D01*
X-712215Y-1063659D01*
X-712224Y-1063641D01*
X-712242Y-1063618D01*
X-712270Y-1063581D01*
X-712298Y-1063534D01*
X-712330Y-1063484D01*
X-712362Y-1063419D01*
X-712395Y-1063350D01*
X-712432Y-1063266D01*
X-712464Y-1063178D01*
X-712496Y-1063086D01*
X-712524Y-1062984D01*
X-712547Y-1062873D01*
X-712566Y-1062758D01*
X-712580Y-1062638D01*
X-712584Y-1062508D01*
Y-1062467D01*
X-712580Y-1062420D01*
X-712575Y-1062356D01*
X-712566Y-1062277D01*
X-712547Y-1062185D01*
X-712529Y-1062087D01*
X-712501Y-1061977D01*
X-712469Y-1061861D01*
X-712422Y-1061745D01*
X-712372Y-1061625D01*
X-712307Y-1061500D01*
X-712233Y-1061380D01*
X-712145Y-1061265D01*
X-712044Y-1061154D01*
X-711928Y-1061052D01*
X-711923D01*
X-711919Y-1061047D01*
X-711905Y-1061038D01*
X-711891Y-1061024D01*
X-711868Y-1061010D01*
X-711840Y-1060992D01*
X-711812Y-1060973D01*
X-711775Y-1060955D01*
X-711734Y-1060932D01*
X-711687Y-1060904D01*
X-711637Y-1060881D01*
X-711581Y-1060853D01*
X-711516Y-1060826D01*
X-711452Y-1060798D01*
X-711378Y-1060765D01*
X-711304Y-1060738D01*
X-711221Y-1060710D01*
X-711133Y-1060678D01*
X-711040Y-1060650D01*
X-710939Y-1060622D01*
X-710837Y-1060594D01*
X-710726Y-1060571D01*
X-710615Y-1060544D01*
X-710490Y-1060520D01*
X-710365Y-1060502D01*
X-710236Y-1060483D01*
X-710097Y-1060465D01*
X-709954Y-1060451D01*
X-709806Y-1060437D01*
X-709653Y-1060433D01*
X-709492Y-1060423D01*
X-709325D01*
X-709321D01*
X-709311D01*
X-709297D01*
X-709274D01*
X-709247D01*
X-709214D01*
X-709177Y-1060428D01*
D02*
G37*
G36*
X-647059Y-1051635D02*
X-647069D01*
X-647092D01*
X-647129Y-1051640D01*
X-647180Y-1051645D01*
X-647240Y-1051649D01*
X-647305Y-1051658D01*
X-647378Y-1051668D01*
X-647462Y-1051682D01*
X-647628Y-1051714D01*
X-647795Y-1051760D01*
X-647868Y-1051793D01*
X-647943Y-1051825D01*
X-648007Y-1051867D01*
X-648063Y-1051908D01*
X-648067Y-1051913D01*
X-648072Y-1051917D01*
X-648086Y-1051936D01*
X-648104Y-1051954D01*
X-648123Y-1051977D01*
X-648146Y-1052010D01*
X-648174Y-1052042D01*
X-648197Y-1052084D01*
X-648220Y-1052130D01*
X-648248Y-1052181D01*
X-648271Y-1052236D01*
X-648289Y-1052296D01*
X-648308Y-1052366D01*
X-648317Y-1052435D01*
X-648326Y-1052509D01*
X-648331Y-1052588D01*
Y-1052620D01*
X-648326Y-1052643D01*
Y-1052671D01*
X-648322Y-1052703D01*
X-648312Y-1052777D01*
X-648294Y-1052860D01*
X-648271Y-1052953D01*
X-648234Y-1053050D01*
X-648187Y-1053138D01*
Y-1053142D01*
X-648178Y-1053147D01*
X-648160Y-1053175D01*
X-648127Y-1053216D01*
X-648081Y-1053263D01*
X-648026Y-1053318D01*
X-647956Y-1053369D01*
X-647878Y-1053420D01*
X-647790Y-1053457D01*
X-647785D01*
X-647776Y-1053461D01*
X-647762Y-1053466D01*
X-647744Y-1053471D01*
X-647716Y-1053475D01*
X-647684Y-1053484D01*
X-647642Y-1053494D01*
X-647596Y-1053503D01*
X-647545Y-1053508D01*
X-647485Y-1053517D01*
X-647420Y-1053526D01*
X-647346Y-1053531D01*
X-647268Y-1053535D01*
X-647184Y-1053540D01*
X-647092Y-1053545D01*
X-646990D01*
X-642580D01*
Y-1054391D01*
X-646939D01*
X-646949D01*
X-646976D01*
X-647018D01*
X-647073Y-1054386D01*
X-647138D01*
X-647217Y-1054381D01*
X-647305Y-1054372D01*
X-647397Y-1054367D01*
X-647494Y-1054354D01*
X-647596Y-1054344D01*
X-647804Y-1054307D01*
X-647906Y-1054284D01*
X-648003Y-1054257D01*
X-648095Y-1054229D01*
X-648183Y-1054192D01*
X-648187D01*
X-648201Y-1054183D01*
X-648224Y-1054173D01*
X-648257Y-1054155D01*
X-648294Y-1054136D01*
X-648335Y-1054109D01*
X-648382Y-1054076D01*
X-648432Y-1054044D01*
X-648483Y-1054002D01*
X-648539Y-1053956D01*
X-648594Y-1053905D01*
X-648650Y-1053850D01*
X-648705Y-1053790D01*
X-648756Y-1053725D01*
X-648807Y-1053655D01*
X-648853Y-1053577D01*
X-648858Y-1053572D01*
X-648862Y-1053558D01*
X-648876Y-1053535D01*
X-648890Y-1053503D01*
X-648909Y-1053461D01*
X-648927Y-1053415D01*
X-648946Y-1053360D01*
X-648969Y-1053295D01*
X-648992Y-1053226D01*
X-649010Y-1053152D01*
X-649029Y-1053068D01*
X-649047Y-1052985D01*
X-649061Y-1052893D01*
X-649075Y-1052796D01*
X-649080Y-1052699D01*
X-649084Y-1052592D01*
Y-1052555D01*
X-649080Y-1052514D01*
X-649075Y-1052454D01*
X-649071Y-1052384D01*
X-649057Y-1052301D01*
X-649043Y-1052209D01*
X-649024Y-1052112D01*
X-648997Y-1052010D01*
X-648969Y-1051904D01*
X-648927Y-1051797D01*
X-648881Y-1051691D01*
X-648825Y-1051584D01*
X-648761Y-1051483D01*
X-648687Y-1051386D01*
X-648604Y-1051298D01*
X-648599Y-1051293D01*
X-648580Y-1051279D01*
X-648553Y-1051256D01*
X-648511Y-1051229D01*
X-648460Y-1051196D01*
X-648400Y-1051159D01*
X-648326Y-1051118D01*
X-648243Y-1051081D01*
X-648146Y-1051039D01*
X-648040Y-1050997D01*
X-647919Y-1050965D01*
X-647790Y-1050933D01*
X-647651Y-1050905D01*
X-647499Y-1050887D01*
X-647337Y-1050873D01*
X-647166D01*
X-647059Y-1051635D01*
D02*
G37*
G36*
X-644161Y-1056064D02*
X-644152Y-1056083D01*
X-644133Y-1056120D01*
X-644110Y-1056166D01*
X-644082Y-1056221D01*
X-644045Y-1056291D01*
X-644004Y-1056365D01*
X-643958Y-1056443D01*
X-643902Y-1056531D01*
X-643847Y-1056623D01*
X-643717Y-1056817D01*
X-643574Y-1057016D01*
X-643417Y-1057206D01*
X-643412Y-1057210D01*
X-643398Y-1057229D01*
X-643375Y-1057252D01*
X-643343Y-1057284D01*
X-643301Y-1057326D01*
X-643255Y-1057372D01*
X-643199Y-1057423D01*
X-643144Y-1057479D01*
X-643079Y-1057534D01*
X-643010Y-1057594D01*
X-642867Y-1057710D01*
X-642714Y-1057816D01*
X-642635Y-1057862D01*
X-642557Y-1057904D01*
Y-1058412D01*
X-648978D01*
Y-1057626D01*
X-643976D01*
X-643981Y-1057622D01*
X-643990Y-1057613D01*
X-644004Y-1057599D01*
X-644022Y-1057576D01*
X-644045Y-1057548D01*
X-644078Y-1057511D01*
X-644110Y-1057469D01*
X-644147Y-1057428D01*
X-644184Y-1057372D01*
X-644230Y-1057317D01*
X-644272Y-1057257D01*
X-644323Y-1057192D01*
X-644369Y-1057118D01*
X-644420Y-1057044D01*
X-644522Y-1056878D01*
X-644526Y-1056873D01*
X-644536Y-1056859D01*
X-644549Y-1056831D01*
X-644563Y-1056799D01*
X-644586Y-1056762D01*
X-644614Y-1056716D01*
X-644642Y-1056660D01*
X-644674Y-1056605D01*
X-644739Y-1056475D01*
X-644804Y-1056337D01*
X-644868Y-1056193D01*
X-644924Y-1056055D01*
X-644166D01*
X-644161Y-1056064D01*
D02*
G37*
G36*
X-645677Y-1060428D02*
X-645636D01*
X-645543Y-1060433D01*
X-645432Y-1060437D01*
X-645307Y-1060442D01*
X-645173Y-1060451D01*
X-645030Y-1060465D01*
X-644882Y-1060479D01*
X-644577Y-1060520D01*
X-644425Y-1060548D01*
X-644277Y-1060581D01*
X-644133Y-1060613D01*
X-643999Y-1060654D01*
X-643990Y-1060659D01*
X-643967Y-1060664D01*
X-643934Y-1060678D01*
X-643884Y-1060696D01*
X-643828Y-1060724D01*
X-643759Y-1060751D01*
X-643685Y-1060788D01*
X-643606Y-1060830D01*
X-643523Y-1060872D01*
X-643435Y-1060927D01*
X-643343Y-1060983D01*
X-643255Y-1061043D01*
X-643167Y-1061112D01*
X-643084Y-1061186D01*
X-643005Y-1061265D01*
X-642931Y-1061348D01*
X-642927Y-1061352D01*
X-642913Y-1061371D01*
X-642894Y-1061394D01*
X-642871Y-1061431D01*
X-642843Y-1061477D01*
X-642811Y-1061533D01*
X-642779Y-1061593D01*
X-642742Y-1061667D01*
X-642710Y-1061745D01*
X-642677Y-1061833D01*
X-642645Y-1061930D01*
X-642617Y-1062032D01*
X-642589Y-1062143D01*
X-642571Y-1062259D01*
X-642562Y-1062379D01*
X-642557Y-1062508D01*
Y-1062559D01*
X-642562Y-1062596D01*
Y-1062638D01*
X-642566Y-1062693D01*
X-642575Y-1062749D01*
X-642585Y-1062813D01*
X-642608Y-1062952D01*
X-642645Y-1063104D01*
X-642696Y-1063262D01*
X-642728Y-1063336D01*
X-642765Y-1063410D01*
Y-1063414D01*
X-642774Y-1063428D01*
X-642788Y-1063447D01*
X-642802Y-1063474D01*
X-642825Y-1063507D01*
X-642853Y-1063544D01*
X-642880Y-1063590D01*
X-642917Y-1063636D01*
X-643001Y-1063738D01*
X-643107Y-1063844D01*
X-643227Y-1063951D01*
X-643366Y-1064048D01*
X-643371Y-1064052D01*
X-643384Y-1064057D01*
X-643408Y-1064071D01*
X-643435Y-1064089D01*
X-643472Y-1064112D01*
X-643519Y-1064135D01*
X-643569Y-1064163D01*
X-643629Y-1064191D01*
X-643694Y-1064223D01*
X-643768Y-1064256D01*
X-643847Y-1064288D01*
X-643930Y-1064325D01*
X-644018Y-1064357D01*
X-644110Y-1064385D01*
X-644212Y-1064417D01*
X-644314Y-1064445D01*
X-644318D01*
X-644341Y-1064450D01*
X-644369Y-1064459D01*
X-644415Y-1064468D01*
X-644471Y-1064477D01*
X-644540Y-1064491D01*
X-644619Y-1064505D01*
X-644711Y-1064519D01*
X-644813Y-1064533D01*
X-644928Y-1064547D01*
X-645053Y-1064561D01*
X-645187Y-1064570D01*
X-645331Y-1064579D01*
X-645488Y-1064588D01*
X-645650Y-1064593D01*
X-645825D01*
X-645830D01*
X-645839D01*
X-645853D01*
X-645876D01*
X-645899D01*
X-645932D01*
X-645969Y-1064588D01*
X-646010D01*
X-646107Y-1064584D01*
X-646218Y-1064579D01*
X-646338Y-1064575D01*
X-646472Y-1064565D01*
X-646616Y-1064551D01*
X-646764Y-1064538D01*
X-647064Y-1064496D01*
X-647217Y-1064468D01*
X-647365Y-1064436D01*
X-647508Y-1064399D01*
X-647642Y-1064357D01*
X-647651Y-1064353D01*
X-647674Y-1064348D01*
X-647707Y-1064334D01*
X-647758Y-1064316D01*
X-647813Y-1064288D01*
X-647882Y-1064260D01*
X-647956Y-1064223D01*
X-648035Y-1064186D01*
X-648118Y-1064140D01*
X-648206Y-1064085D01*
X-648294Y-1064029D01*
X-648386Y-1063969D01*
X-648474Y-1063900D01*
X-648557Y-1063826D01*
X-648636Y-1063747D01*
X-648710Y-1063664D01*
X-648715Y-1063659D01*
X-648724Y-1063641D01*
X-648742Y-1063618D01*
X-648770Y-1063581D01*
X-648798Y-1063534D01*
X-648830Y-1063484D01*
X-648862Y-1063419D01*
X-648895Y-1063350D01*
X-648932Y-1063266D01*
X-648964Y-1063178D01*
X-648997Y-1063086D01*
X-649024Y-1062984D01*
X-649047Y-1062873D01*
X-649066Y-1062758D01*
X-649080Y-1062638D01*
X-649084Y-1062508D01*
Y-1062467D01*
X-649080Y-1062420D01*
X-649075Y-1062356D01*
X-649066Y-1062277D01*
X-649047Y-1062185D01*
X-649029Y-1062087D01*
X-649001Y-1061977D01*
X-648969Y-1061861D01*
X-648923Y-1061745D01*
X-648872Y-1061625D01*
X-648807Y-1061500D01*
X-648733Y-1061380D01*
X-648645Y-1061265D01*
X-648543Y-1061154D01*
X-648428Y-1061052D01*
X-648423D01*
X-648419Y-1061047D01*
X-648405Y-1061038D01*
X-648391Y-1061024D01*
X-648368Y-1061010D01*
X-648340Y-1060992D01*
X-648312Y-1060973D01*
X-648275Y-1060955D01*
X-648234Y-1060932D01*
X-648187Y-1060904D01*
X-648137Y-1060881D01*
X-648081Y-1060853D01*
X-648017Y-1060826D01*
X-647952Y-1060798D01*
X-647878Y-1060765D01*
X-647804Y-1060738D01*
X-647721Y-1060710D01*
X-647633Y-1060678D01*
X-647540Y-1060650D01*
X-647439Y-1060622D01*
X-647337Y-1060594D01*
X-647226Y-1060571D01*
X-647115Y-1060544D01*
X-646990Y-1060520D01*
X-646865Y-1060502D01*
X-646736Y-1060483D01*
X-646597Y-1060465D01*
X-646454Y-1060451D01*
X-646306Y-1060437D01*
X-646153Y-1060433D01*
X-645992Y-1060423D01*
X-645825D01*
X-645821D01*
X-645811D01*
X-645798D01*
X-645774D01*
X-645747D01*
X-645714D01*
X-645677Y-1060428D01*
D02*
G37*
G36*
X-583559Y-1051635D02*
X-583569D01*
X-583592D01*
X-583629Y-1051640D01*
X-583680Y-1051645D01*
X-583740Y-1051649D01*
X-583805Y-1051658D01*
X-583879Y-1051668D01*
X-583962Y-1051682D01*
X-584128Y-1051714D01*
X-584295Y-1051760D01*
X-584369Y-1051793D01*
X-584442Y-1051825D01*
X-584507Y-1051867D01*
X-584563Y-1051908D01*
X-584567Y-1051913D01*
X-584572Y-1051917D01*
X-584586Y-1051936D01*
X-584604Y-1051954D01*
X-584623Y-1051977D01*
X-584646Y-1052010D01*
X-584674Y-1052042D01*
X-584697Y-1052084D01*
X-584720Y-1052130D01*
X-584748Y-1052181D01*
X-584771Y-1052236D01*
X-584789Y-1052296D01*
X-584808Y-1052366D01*
X-584817Y-1052435D01*
X-584826Y-1052509D01*
X-584831Y-1052588D01*
Y-1052620D01*
X-584826Y-1052643D01*
Y-1052671D01*
X-584822Y-1052703D01*
X-584812Y-1052777D01*
X-584794Y-1052860D01*
X-584771Y-1052953D01*
X-584734Y-1053050D01*
X-584688Y-1053138D01*
Y-1053142D01*
X-584678Y-1053147D01*
X-584660Y-1053175D01*
X-584627Y-1053216D01*
X-584581Y-1053263D01*
X-584526Y-1053318D01*
X-584456Y-1053369D01*
X-584378Y-1053420D01*
X-584290Y-1053457D01*
X-584285D01*
X-584276Y-1053461D01*
X-584262Y-1053466D01*
X-584244Y-1053471D01*
X-584216Y-1053475D01*
X-584184Y-1053484D01*
X-584142Y-1053494D01*
X-584096Y-1053503D01*
X-584045Y-1053508D01*
X-583985Y-1053517D01*
X-583920Y-1053526D01*
X-583846Y-1053531D01*
X-583768Y-1053535D01*
X-583684Y-1053540D01*
X-583592Y-1053545D01*
X-583490D01*
X-579080D01*
Y-1054391D01*
X-583439D01*
X-583449D01*
X-583476D01*
X-583518D01*
X-583573Y-1054386D01*
X-583638D01*
X-583717Y-1054381D01*
X-583805Y-1054372D01*
X-583897Y-1054367D01*
X-583994Y-1054354D01*
X-584096Y-1054344D01*
X-584304Y-1054307D01*
X-584406Y-1054284D01*
X-584503Y-1054257D01*
X-584595Y-1054229D01*
X-584683Y-1054192D01*
X-584688D01*
X-584701Y-1054183D01*
X-584725Y-1054173D01*
X-584757Y-1054155D01*
X-584794Y-1054136D01*
X-584835Y-1054109D01*
X-584882Y-1054076D01*
X-584933Y-1054044D01*
X-584983Y-1054002D01*
X-585039Y-1053956D01*
X-585094Y-1053905D01*
X-585150Y-1053850D01*
X-585205Y-1053790D01*
X-585256Y-1053725D01*
X-585307Y-1053655D01*
X-585353Y-1053577D01*
X-585358Y-1053572D01*
X-585362Y-1053558D01*
X-585376Y-1053535D01*
X-585390Y-1053503D01*
X-585409Y-1053461D01*
X-585427Y-1053415D01*
X-585446Y-1053360D01*
X-585469Y-1053295D01*
X-585492Y-1053226D01*
X-585510Y-1053152D01*
X-585529Y-1053068D01*
X-585547Y-1052985D01*
X-585561Y-1052893D01*
X-585575Y-1052796D01*
X-585580Y-1052699D01*
X-585584Y-1052592D01*
Y-1052555D01*
X-585580Y-1052514D01*
X-585575Y-1052454D01*
X-585570Y-1052384D01*
X-585557Y-1052301D01*
X-585543Y-1052209D01*
X-585524Y-1052112D01*
X-585496Y-1052010D01*
X-585469Y-1051904D01*
X-585427Y-1051797D01*
X-585381Y-1051691D01*
X-585325Y-1051584D01*
X-585261Y-1051483D01*
X-585187Y-1051386D01*
X-585104Y-1051298D01*
X-585099Y-1051293D01*
X-585080Y-1051279D01*
X-585053Y-1051256D01*
X-585011Y-1051229D01*
X-584960Y-1051196D01*
X-584900Y-1051159D01*
X-584826Y-1051118D01*
X-584743Y-1051081D01*
X-584646Y-1051039D01*
X-584540Y-1050997D01*
X-584419Y-1050965D01*
X-584290Y-1050933D01*
X-584151Y-1050905D01*
X-583999Y-1050887D01*
X-583837Y-1050873D01*
X-583666D01*
X-583559Y-1051635D01*
D02*
G37*
G36*
X-580661Y-1056064D02*
X-580652Y-1056083D01*
X-580633Y-1056120D01*
X-580610Y-1056166D01*
X-580583Y-1056221D01*
X-580546Y-1056291D01*
X-580504Y-1056365D01*
X-580458Y-1056443D01*
X-580402Y-1056531D01*
X-580347Y-1056623D01*
X-580217Y-1056817D01*
X-580074Y-1057016D01*
X-579917Y-1057206D01*
X-579912Y-1057210D01*
X-579898Y-1057229D01*
X-579875Y-1057252D01*
X-579843Y-1057284D01*
X-579801Y-1057326D01*
X-579755Y-1057372D01*
X-579700Y-1057423D01*
X-579644Y-1057479D01*
X-579579Y-1057534D01*
X-579510Y-1057594D01*
X-579367Y-1057710D01*
X-579214Y-1057816D01*
X-579136Y-1057862D01*
X-579057Y-1057904D01*
Y-1058412D01*
X-585478D01*
Y-1057626D01*
X-580476D01*
X-580481Y-1057622D01*
X-580490Y-1057613D01*
X-580504Y-1057599D01*
X-580522Y-1057576D01*
X-580546Y-1057548D01*
X-580578Y-1057511D01*
X-580610Y-1057469D01*
X-580647Y-1057428D01*
X-580684Y-1057372D01*
X-580730Y-1057317D01*
X-580772Y-1057257D01*
X-580823Y-1057192D01*
X-580869Y-1057118D01*
X-580920Y-1057044D01*
X-581022Y-1056878D01*
X-581026Y-1056873D01*
X-581035Y-1056859D01*
X-581049Y-1056831D01*
X-581063Y-1056799D01*
X-581086Y-1056762D01*
X-581114Y-1056716D01*
X-581142Y-1056660D01*
X-581174Y-1056605D01*
X-581239Y-1056475D01*
X-581304Y-1056337D01*
X-581368Y-1056193D01*
X-581424Y-1056055D01*
X-580666D01*
X-580661Y-1056064D01*
D02*
G37*
G36*
X-582177Y-1060428D02*
X-582136D01*
X-582043Y-1060433D01*
X-581932Y-1060437D01*
X-581808Y-1060442D01*
X-581673Y-1060451D01*
X-581530Y-1060465D01*
X-581382Y-1060479D01*
X-581077Y-1060520D01*
X-580924Y-1060548D01*
X-580777Y-1060581D01*
X-580633Y-1060613D01*
X-580499Y-1060654D01*
X-580490Y-1060659D01*
X-580467Y-1060664D01*
X-580434Y-1060678D01*
X-580384Y-1060696D01*
X-580328Y-1060724D01*
X-580259Y-1060751D01*
X-580185Y-1060788D01*
X-580106Y-1060830D01*
X-580023Y-1060872D01*
X-579935Y-1060927D01*
X-579843Y-1060983D01*
X-579755Y-1061043D01*
X-579667Y-1061112D01*
X-579584Y-1061186D01*
X-579505Y-1061265D01*
X-579431Y-1061348D01*
X-579427Y-1061352D01*
X-579413Y-1061371D01*
X-579394Y-1061394D01*
X-579371Y-1061431D01*
X-579343Y-1061477D01*
X-579311Y-1061533D01*
X-579279Y-1061593D01*
X-579242Y-1061667D01*
X-579210Y-1061745D01*
X-579177Y-1061833D01*
X-579145Y-1061930D01*
X-579117Y-1062032D01*
X-579089Y-1062143D01*
X-579071Y-1062259D01*
X-579062Y-1062379D01*
X-579057Y-1062508D01*
Y-1062559D01*
X-579062Y-1062596D01*
Y-1062638D01*
X-579066Y-1062693D01*
X-579075Y-1062749D01*
X-579085Y-1062813D01*
X-579108Y-1062952D01*
X-579145Y-1063104D01*
X-579196Y-1063262D01*
X-579228Y-1063336D01*
X-579265Y-1063410D01*
Y-1063414D01*
X-579274Y-1063428D01*
X-579288Y-1063447D01*
X-579302Y-1063474D01*
X-579325Y-1063507D01*
X-579353Y-1063544D01*
X-579380Y-1063590D01*
X-579417Y-1063636D01*
X-579501Y-1063738D01*
X-579607Y-1063844D01*
X-579727Y-1063951D01*
X-579866Y-1064048D01*
X-579870Y-1064052D01*
X-579884Y-1064057D01*
X-579907Y-1064071D01*
X-579935Y-1064089D01*
X-579972Y-1064112D01*
X-580019Y-1064135D01*
X-580069Y-1064163D01*
X-580129Y-1064191D01*
X-580194Y-1064223D01*
X-580268Y-1064256D01*
X-580347Y-1064288D01*
X-580430Y-1064325D01*
X-580518Y-1064357D01*
X-580610Y-1064385D01*
X-580712Y-1064417D01*
X-580814Y-1064445D01*
X-580818D01*
X-580841Y-1064450D01*
X-580869Y-1064459D01*
X-580915Y-1064468D01*
X-580971Y-1064477D01*
X-581040Y-1064491D01*
X-581119Y-1064505D01*
X-581211Y-1064519D01*
X-581313Y-1064533D01*
X-581428Y-1064547D01*
X-581553Y-1064561D01*
X-581687Y-1064570D01*
X-581831Y-1064579D01*
X-581988Y-1064588D01*
X-582150Y-1064593D01*
X-582325D01*
X-582330D01*
X-582339D01*
X-582353D01*
X-582376D01*
X-582399D01*
X-582432D01*
X-582469Y-1064588D01*
X-582510D01*
X-582607Y-1064584D01*
X-582718Y-1064579D01*
X-582838Y-1064575D01*
X-582972Y-1064565D01*
X-583116Y-1064551D01*
X-583264Y-1064538D01*
X-583564Y-1064496D01*
X-583717Y-1064468D01*
X-583865Y-1064436D01*
X-584008Y-1064399D01*
X-584142Y-1064357D01*
X-584151Y-1064353D01*
X-584174Y-1064348D01*
X-584207Y-1064334D01*
X-584258Y-1064316D01*
X-584313Y-1064288D01*
X-584382Y-1064260D01*
X-584456Y-1064223D01*
X-584535Y-1064186D01*
X-584618Y-1064140D01*
X-584706Y-1064085D01*
X-584794Y-1064029D01*
X-584886Y-1063969D01*
X-584974Y-1063900D01*
X-585057Y-1063826D01*
X-585136Y-1063747D01*
X-585210Y-1063664D01*
X-585215Y-1063659D01*
X-585224Y-1063641D01*
X-585242Y-1063618D01*
X-585270Y-1063581D01*
X-585298Y-1063534D01*
X-585330Y-1063484D01*
X-585362Y-1063419D01*
X-585395Y-1063350D01*
X-585432Y-1063266D01*
X-585464Y-1063178D01*
X-585496Y-1063086D01*
X-585524Y-1062984D01*
X-585547Y-1062873D01*
X-585566Y-1062758D01*
X-585580Y-1062638D01*
X-585584Y-1062508D01*
Y-1062467D01*
X-585580Y-1062420D01*
X-585575Y-1062356D01*
X-585566Y-1062277D01*
X-585547Y-1062185D01*
X-585529Y-1062087D01*
X-585501Y-1061977D01*
X-585469Y-1061861D01*
X-585423Y-1061745D01*
X-585372Y-1061625D01*
X-585307Y-1061500D01*
X-585233Y-1061380D01*
X-585145Y-1061265D01*
X-585043Y-1061154D01*
X-584928Y-1061052D01*
X-584923D01*
X-584919Y-1061047D01*
X-584905Y-1061038D01*
X-584891Y-1061024D01*
X-584868Y-1061010D01*
X-584840Y-1060992D01*
X-584812Y-1060973D01*
X-584775Y-1060955D01*
X-584734Y-1060932D01*
X-584688Y-1060904D01*
X-584637Y-1060881D01*
X-584581Y-1060853D01*
X-584516Y-1060826D01*
X-584452Y-1060798D01*
X-584378Y-1060765D01*
X-584304Y-1060738D01*
X-584221Y-1060710D01*
X-584133Y-1060678D01*
X-584040Y-1060650D01*
X-583939Y-1060622D01*
X-583837Y-1060594D01*
X-583726Y-1060571D01*
X-583615Y-1060544D01*
X-583490Y-1060520D01*
X-583365Y-1060502D01*
X-583236Y-1060483D01*
X-583097Y-1060465D01*
X-582954Y-1060451D01*
X-582806Y-1060437D01*
X-582654Y-1060433D01*
X-582492Y-1060423D01*
X-582325D01*
X-582321D01*
X-582311D01*
X-582298D01*
X-582274D01*
X-582247D01*
X-582214D01*
X-582177Y-1060428D01*
D02*
G37*
%LPC*%
G36*
X-772682Y-1061232D02*
X-772825D01*
X-772830D01*
X-772844D01*
X-772862D01*
X-772895D01*
X-772932D01*
X-772973Y-1061237D01*
X-773024D01*
X-773080D01*
X-773140Y-1061242D01*
X-773204D01*
X-773352Y-1061251D01*
X-773509Y-1061265D01*
X-773676Y-1061279D01*
X-773851Y-1061297D01*
X-774027Y-1061320D01*
X-774203Y-1061352D01*
X-774374Y-1061385D01*
X-774536Y-1061426D01*
X-774679Y-1061477D01*
X-774748Y-1061505D01*
X-774808Y-1061533D01*
X-774868Y-1061565D01*
X-774919Y-1061598D01*
X-774924Y-1061602D01*
X-774942Y-1061616D01*
X-774966Y-1061635D01*
X-774998Y-1061662D01*
X-775040Y-1061699D01*
X-775081Y-1061745D01*
X-775132Y-1061792D01*
X-775178Y-1061852D01*
X-775225Y-1061912D01*
X-775275Y-1061981D01*
X-775317Y-1062055D01*
X-775354Y-1062138D01*
X-775391Y-1062222D01*
X-775414Y-1062314D01*
X-775433Y-1062411D01*
X-775437Y-1062508D01*
Y-1062531D01*
X-775433Y-1062559D01*
X-775428Y-1062596D01*
X-775423Y-1062642D01*
X-775409Y-1062698D01*
X-775396Y-1062758D01*
X-775372Y-1062822D01*
X-775345Y-1062892D01*
X-775312Y-1062966D01*
X-775271Y-1063040D01*
X-775220Y-1063118D01*
X-775160Y-1063192D01*
X-775090Y-1063271D01*
X-775012Y-1063345D01*
X-774919Y-1063414D01*
X-774915Y-1063419D01*
X-774892Y-1063428D01*
X-774859Y-1063447D01*
X-774813Y-1063474D01*
X-774748Y-1063502D01*
X-774670Y-1063530D01*
X-774577Y-1063567D01*
X-774462Y-1063599D01*
X-774397Y-1063618D01*
X-774328Y-1063632D01*
X-774258Y-1063650D01*
X-774180Y-1063669D01*
X-774097Y-1063682D01*
X-774009Y-1063696D01*
X-773916Y-1063715D01*
X-773814Y-1063729D01*
X-773713Y-1063738D01*
X-773602Y-1063752D01*
X-773486Y-1063761D01*
X-773366Y-1063770D01*
X-773241Y-1063775D01*
X-773107Y-1063780D01*
X-772969Y-1063784D01*
X-772825D01*
X-772821D01*
X-772807D01*
X-772784D01*
X-772756D01*
X-772719D01*
X-772677D01*
X-772626Y-1063780D01*
X-772571D01*
X-772511Y-1063775D01*
X-772442D01*
X-772298Y-1063766D01*
X-772141Y-1063752D01*
X-771970Y-1063738D01*
X-771799Y-1063719D01*
X-771623Y-1063696D01*
X-771448Y-1063664D01*
X-771277Y-1063627D01*
X-771115Y-1063585D01*
X-770972Y-1063534D01*
X-770902Y-1063507D01*
X-770842Y-1063479D01*
X-770782Y-1063447D01*
X-770731Y-1063414D01*
X-770726Y-1063410D01*
X-770708Y-1063396D01*
X-770685Y-1063377D01*
X-770648Y-1063350D01*
X-770611Y-1063313D01*
X-770565Y-1063271D01*
X-770518Y-1063220D01*
X-770468Y-1063165D01*
X-770421Y-1063100D01*
X-770375Y-1063031D01*
X-770329Y-1062957D01*
X-770292Y-1062873D01*
X-770255Y-1062786D01*
X-770232Y-1062698D01*
X-770213Y-1062601D01*
X-770209Y-1062499D01*
Y-1062476D01*
X-770213Y-1062448D01*
X-770218Y-1062411D01*
X-770223Y-1062365D01*
X-770232Y-1062309D01*
X-770246Y-1062254D01*
X-770264Y-1062189D01*
X-770292Y-1062120D01*
X-770320Y-1062050D01*
X-770357Y-1061977D01*
X-770403Y-1061907D01*
X-770454Y-1061833D01*
X-770514Y-1061764D01*
X-770588Y-1061699D01*
X-770666Y-1061635D01*
X-770671Y-1061630D01*
X-770694Y-1061616D01*
X-770731Y-1061598D01*
X-770782Y-1061570D01*
X-770851Y-1061542D01*
X-770935Y-1061510D01*
X-771036Y-1061473D01*
X-771156Y-1061436D01*
X-771221Y-1061413D01*
X-771295Y-1061394D01*
X-771369Y-1061376D01*
X-771452Y-1061362D01*
X-771535Y-1061343D01*
X-771628Y-1061325D01*
X-771725Y-1061311D01*
X-771827Y-1061297D01*
X-771933Y-1061283D01*
X-772044Y-1061269D01*
X-772160Y-1061260D01*
X-772280Y-1061251D01*
X-772409Y-1061242D01*
X-772543Y-1061237D01*
X-772682Y-1061232D01*
D02*
G37*
G36*
X-709182D02*
X-709325D01*
X-709330D01*
X-709344D01*
X-709362D01*
X-709395D01*
X-709432D01*
X-709473Y-1061237D01*
X-709524D01*
X-709579D01*
X-709640Y-1061242D01*
X-709704D01*
X-709852Y-1061251D01*
X-710009Y-1061265D01*
X-710176Y-1061279D01*
X-710351Y-1061297D01*
X-710527Y-1061320D01*
X-710703Y-1061352D01*
X-710874Y-1061385D01*
X-711036Y-1061426D01*
X-711179Y-1061477D01*
X-711248Y-1061505D01*
X-711308Y-1061533D01*
X-711368Y-1061565D01*
X-711419Y-1061598D01*
X-711424Y-1061602D01*
X-711442Y-1061616D01*
X-711466Y-1061635D01*
X-711498Y-1061662D01*
X-711540Y-1061699D01*
X-711581Y-1061745D01*
X-711632Y-1061792D01*
X-711678Y-1061852D01*
X-711724Y-1061912D01*
X-711775Y-1061981D01*
X-711817Y-1062055D01*
X-711854Y-1062138D01*
X-711891Y-1062222D01*
X-711914Y-1062314D01*
X-711933Y-1062411D01*
X-711937Y-1062508D01*
Y-1062531D01*
X-711933Y-1062559D01*
X-711928Y-1062596D01*
X-711923Y-1062642D01*
X-711909Y-1062698D01*
X-711896Y-1062758D01*
X-711872Y-1062822D01*
X-711845Y-1062892D01*
X-711812Y-1062966D01*
X-711771Y-1063040D01*
X-711720Y-1063118D01*
X-711660Y-1063192D01*
X-711590Y-1063271D01*
X-711512Y-1063345D01*
X-711419Y-1063414D01*
X-711415Y-1063419D01*
X-711392Y-1063428D01*
X-711359Y-1063447D01*
X-711313Y-1063474D01*
X-711248Y-1063502D01*
X-711170Y-1063530D01*
X-711077Y-1063567D01*
X-710962Y-1063599D01*
X-710897Y-1063618D01*
X-710828Y-1063632D01*
X-710758Y-1063650D01*
X-710680Y-1063669D01*
X-710596Y-1063682D01*
X-710509Y-1063696D01*
X-710416Y-1063715D01*
X-710314Y-1063729D01*
X-710213Y-1063738D01*
X-710102Y-1063752D01*
X-709986Y-1063761D01*
X-709866Y-1063770D01*
X-709741Y-1063775D01*
X-709607Y-1063780D01*
X-709469Y-1063784D01*
X-709325D01*
X-709321D01*
X-709307D01*
X-709284D01*
X-709256D01*
X-709219D01*
X-709177D01*
X-709127Y-1063780D01*
X-709071D01*
X-709011Y-1063775D01*
X-708942D01*
X-708798Y-1063766D01*
X-708641Y-1063752D01*
X-708470Y-1063738D01*
X-708299Y-1063719D01*
X-708123Y-1063696D01*
X-707948Y-1063664D01*
X-707777Y-1063627D01*
X-707615Y-1063585D01*
X-707471Y-1063534D01*
X-707402Y-1063507D01*
X-707342Y-1063479D01*
X-707282Y-1063447D01*
X-707231Y-1063414D01*
X-707226Y-1063410D01*
X-707208Y-1063396D01*
X-707185Y-1063377D01*
X-707148Y-1063350D01*
X-707111Y-1063313D01*
X-707065Y-1063271D01*
X-707019Y-1063220D01*
X-706968Y-1063165D01*
X-706921Y-1063100D01*
X-706875Y-1063031D01*
X-706829Y-1062957D01*
X-706792Y-1062873D01*
X-706755Y-1062786D01*
X-706732Y-1062698D01*
X-706713Y-1062601D01*
X-706709Y-1062499D01*
Y-1062476D01*
X-706713Y-1062448D01*
X-706718Y-1062411D01*
X-706723Y-1062365D01*
X-706732Y-1062309D01*
X-706746Y-1062254D01*
X-706764Y-1062189D01*
X-706792Y-1062120D01*
X-706820Y-1062050D01*
X-706857Y-1061977D01*
X-706903Y-1061907D01*
X-706954Y-1061833D01*
X-707014Y-1061764D01*
X-707088Y-1061699D01*
X-707166Y-1061635D01*
X-707171Y-1061630D01*
X-707194Y-1061616D01*
X-707231Y-1061598D01*
X-707282Y-1061570D01*
X-707351Y-1061542D01*
X-707434Y-1061510D01*
X-707536Y-1061473D01*
X-707656Y-1061436D01*
X-707721Y-1061413D01*
X-707795Y-1061394D01*
X-707869Y-1061376D01*
X-707952Y-1061362D01*
X-708036Y-1061343D01*
X-708128Y-1061325D01*
X-708225Y-1061311D01*
X-708327Y-1061297D01*
X-708433Y-1061283D01*
X-708544Y-1061269D01*
X-708660Y-1061260D01*
X-708780Y-1061251D01*
X-708909Y-1061242D01*
X-709043Y-1061237D01*
X-709182Y-1061232D01*
D02*
G37*
G36*
X-645682D02*
X-645825D01*
X-645830D01*
X-645844D01*
X-645862D01*
X-645895D01*
X-645932D01*
X-645973Y-1061237D01*
X-646024D01*
X-646079D01*
X-646140Y-1061242D01*
X-646204D01*
X-646352Y-1061251D01*
X-646509Y-1061265D01*
X-646676Y-1061279D01*
X-646852Y-1061297D01*
X-647027Y-1061320D01*
X-647203Y-1061352D01*
X-647374Y-1061385D01*
X-647536Y-1061426D01*
X-647679Y-1061477D01*
X-647748Y-1061505D01*
X-647808Y-1061533D01*
X-647868Y-1061565D01*
X-647919Y-1061598D01*
X-647924Y-1061602D01*
X-647943Y-1061616D01*
X-647966Y-1061635D01*
X-647998Y-1061662D01*
X-648040Y-1061699D01*
X-648081Y-1061745D01*
X-648132Y-1061792D01*
X-648178Y-1061852D01*
X-648224Y-1061912D01*
X-648275Y-1061981D01*
X-648317Y-1062055D01*
X-648354Y-1062138D01*
X-648391Y-1062222D01*
X-648414Y-1062314D01*
X-648432Y-1062411D01*
X-648437Y-1062508D01*
Y-1062531D01*
X-648432Y-1062559D01*
X-648428Y-1062596D01*
X-648423Y-1062642D01*
X-648409Y-1062698D01*
X-648395Y-1062758D01*
X-648372Y-1062822D01*
X-648345Y-1062892D01*
X-648312Y-1062966D01*
X-648271Y-1063040D01*
X-648220Y-1063118D01*
X-648160Y-1063192D01*
X-648090Y-1063271D01*
X-648012Y-1063345D01*
X-647919Y-1063414D01*
X-647915Y-1063419D01*
X-647892Y-1063428D01*
X-647859Y-1063447D01*
X-647813Y-1063474D01*
X-647748Y-1063502D01*
X-647670Y-1063530D01*
X-647577Y-1063567D01*
X-647462Y-1063599D01*
X-647397Y-1063618D01*
X-647328Y-1063632D01*
X-647258Y-1063650D01*
X-647180Y-1063669D01*
X-647096Y-1063682D01*
X-647009Y-1063696D01*
X-646916Y-1063715D01*
X-646814Y-1063729D01*
X-646713Y-1063738D01*
X-646602Y-1063752D01*
X-646486Y-1063761D01*
X-646366Y-1063770D01*
X-646241Y-1063775D01*
X-646107Y-1063780D01*
X-645969Y-1063784D01*
X-645825D01*
X-645821D01*
X-645807D01*
X-645784D01*
X-645756D01*
X-645719D01*
X-645677D01*
X-645627Y-1063780D01*
X-645571D01*
X-645511Y-1063775D01*
X-645442D01*
X-645298Y-1063766D01*
X-645141Y-1063752D01*
X-644970Y-1063738D01*
X-644799Y-1063719D01*
X-644623Y-1063696D01*
X-644448Y-1063664D01*
X-644277Y-1063627D01*
X-644115Y-1063585D01*
X-643971Y-1063534D01*
X-643902Y-1063507D01*
X-643842Y-1063479D01*
X-643782Y-1063447D01*
X-643731Y-1063414D01*
X-643727Y-1063410D01*
X-643708Y-1063396D01*
X-643685Y-1063377D01*
X-643648Y-1063350D01*
X-643611Y-1063313D01*
X-643565Y-1063271D01*
X-643519Y-1063220D01*
X-643468Y-1063165D01*
X-643421Y-1063100D01*
X-643375Y-1063031D01*
X-643329Y-1062957D01*
X-643292Y-1062873D01*
X-643255Y-1062786D01*
X-643232Y-1062698D01*
X-643213Y-1062601D01*
X-643209Y-1062499D01*
Y-1062476D01*
X-643213Y-1062448D01*
X-643218Y-1062411D01*
X-643223Y-1062365D01*
X-643232Y-1062309D01*
X-643246Y-1062254D01*
X-643264Y-1062189D01*
X-643292Y-1062120D01*
X-643320Y-1062050D01*
X-643357Y-1061977D01*
X-643403Y-1061907D01*
X-643454Y-1061833D01*
X-643514Y-1061764D01*
X-643588Y-1061699D01*
X-643666Y-1061635D01*
X-643671Y-1061630D01*
X-643694Y-1061616D01*
X-643731Y-1061598D01*
X-643782Y-1061570D01*
X-643851Y-1061542D01*
X-643934Y-1061510D01*
X-644036Y-1061473D01*
X-644156Y-1061436D01*
X-644221Y-1061413D01*
X-644295Y-1061394D01*
X-644369Y-1061376D01*
X-644452Y-1061362D01*
X-644536Y-1061343D01*
X-644628Y-1061325D01*
X-644725Y-1061311D01*
X-644827Y-1061297D01*
X-644933Y-1061283D01*
X-645044Y-1061269D01*
X-645160Y-1061260D01*
X-645280Y-1061251D01*
X-645409Y-1061242D01*
X-645543Y-1061237D01*
X-645682Y-1061232D01*
D02*
G37*
G36*
X-582182D02*
X-582325D01*
X-582330D01*
X-582344D01*
X-582362D01*
X-582395D01*
X-582432D01*
X-582473Y-1061237D01*
X-582524D01*
X-582579D01*
X-582640Y-1061242D01*
X-582704D01*
X-582852Y-1061251D01*
X-583009Y-1061265D01*
X-583176Y-1061279D01*
X-583352Y-1061297D01*
X-583527Y-1061320D01*
X-583703Y-1061352D01*
X-583874Y-1061385D01*
X-584036Y-1061426D01*
X-584179Y-1061477D01*
X-584248Y-1061505D01*
X-584308Y-1061533D01*
X-584369Y-1061565D01*
X-584419Y-1061598D01*
X-584424Y-1061602D01*
X-584442Y-1061616D01*
X-584466Y-1061635D01*
X-584498Y-1061662D01*
X-584540Y-1061699D01*
X-584581Y-1061745D01*
X-584632Y-1061792D01*
X-584678Y-1061852D01*
X-584725Y-1061912D01*
X-584775Y-1061981D01*
X-584817Y-1062055D01*
X-584854Y-1062138D01*
X-584891Y-1062222D01*
X-584914Y-1062314D01*
X-584933Y-1062411D01*
X-584937Y-1062508D01*
Y-1062531D01*
X-584933Y-1062559D01*
X-584928Y-1062596D01*
X-584923Y-1062642D01*
X-584909Y-1062698D01*
X-584896Y-1062758D01*
X-584872Y-1062822D01*
X-584845Y-1062892D01*
X-584812Y-1062966D01*
X-584771Y-1063040D01*
X-584720Y-1063118D01*
X-584660Y-1063192D01*
X-584590Y-1063271D01*
X-584512Y-1063345D01*
X-584419Y-1063414D01*
X-584415Y-1063419D01*
X-584392Y-1063428D01*
X-584359Y-1063447D01*
X-584313Y-1063474D01*
X-584248Y-1063502D01*
X-584170Y-1063530D01*
X-584077Y-1063567D01*
X-583962Y-1063599D01*
X-583897Y-1063618D01*
X-583828Y-1063632D01*
X-583758Y-1063650D01*
X-583680Y-1063669D01*
X-583596Y-1063682D01*
X-583509Y-1063696D01*
X-583416Y-1063715D01*
X-583315Y-1063729D01*
X-583213Y-1063738D01*
X-583102Y-1063752D01*
X-582986Y-1063761D01*
X-582866Y-1063770D01*
X-582741Y-1063775D01*
X-582607Y-1063780D01*
X-582469Y-1063784D01*
X-582325D01*
X-582321D01*
X-582307D01*
X-582284D01*
X-582256D01*
X-582219D01*
X-582177D01*
X-582127Y-1063780D01*
X-582071D01*
X-582011Y-1063775D01*
X-581942D01*
X-581798Y-1063766D01*
X-581641Y-1063752D01*
X-581470Y-1063738D01*
X-581299Y-1063719D01*
X-581123Y-1063696D01*
X-580948Y-1063664D01*
X-580777Y-1063627D01*
X-580615Y-1063585D01*
X-580471Y-1063534D01*
X-580402Y-1063507D01*
X-580342Y-1063479D01*
X-580282Y-1063447D01*
X-580231Y-1063414D01*
X-580227Y-1063410D01*
X-580208Y-1063396D01*
X-580185Y-1063377D01*
X-580148Y-1063350D01*
X-580111Y-1063313D01*
X-580065Y-1063271D01*
X-580019Y-1063220D01*
X-579968Y-1063165D01*
X-579921Y-1063100D01*
X-579875Y-1063031D01*
X-579829Y-1062957D01*
X-579792Y-1062873D01*
X-579755Y-1062786D01*
X-579732Y-1062698D01*
X-579713Y-1062601D01*
X-579709Y-1062499D01*
Y-1062476D01*
X-579713Y-1062448D01*
X-579718Y-1062411D01*
X-579723Y-1062365D01*
X-579732Y-1062309D01*
X-579746Y-1062254D01*
X-579764Y-1062189D01*
X-579792Y-1062120D01*
X-579820Y-1062050D01*
X-579857Y-1061977D01*
X-579903Y-1061907D01*
X-579954Y-1061833D01*
X-580014Y-1061764D01*
X-580088Y-1061699D01*
X-580166Y-1061635D01*
X-580171Y-1061630D01*
X-580194Y-1061616D01*
X-580231Y-1061598D01*
X-580282Y-1061570D01*
X-580351Y-1061542D01*
X-580434Y-1061510D01*
X-580536Y-1061473D01*
X-580656Y-1061436D01*
X-580721Y-1061413D01*
X-580795Y-1061394D01*
X-580869Y-1061376D01*
X-580952Y-1061362D01*
X-581035Y-1061343D01*
X-581128Y-1061325D01*
X-581225Y-1061311D01*
X-581327Y-1061297D01*
X-581433Y-1061283D01*
X-581544Y-1061269D01*
X-581660Y-1061260D01*
X-581780Y-1061251D01*
X-581909Y-1061242D01*
X-582043Y-1061237D01*
X-582182Y-1061232D01*
D02*
G37*
%LPD*%
D12*
X-746228Y-1101354D02*
Y-1000354D01*
X-805728Y-1101354D02*
X-746228D01*
X-805728D02*
Y-1000354D01*
X-746228D01*
X-742228D02*
X-682728D01*
X-742228Y-1101354D02*
Y-1000354D01*
Y-1101354D02*
X-682728D01*
Y-1000354D01*
X-678728D02*
X-619228D01*
X-678728Y-1101354D02*
Y-1000354D01*
Y-1101354D02*
X-619228D01*
Y-1000354D01*
X-615228D02*
X-555728D01*
X-615228Y-1101354D02*
Y-1000354D01*
Y-1101354D02*
X-555728D01*
Y-1000354D01*
M02*
