G04*
G04 #@! TF.GenerationSoftware,Altium Limited,Altium Designer,21.0.9 (235)*
G04*
G04 Layer_Color=32768*
%FSLAX44Y44*%
%MOMM*%
G71*
G04*
G04 #@! TF.SameCoordinates,B04B5628-BEB7-489B-AFC1-9DCA5A1A145D*
G04*
G04*
G04 #@! TF.FilePolarity,Positive*
G04*
G01*
G75*
%ADD12C,0.2000*%
D12*
X-706639Y-517544D02*
X-668193D01*
X-706639D02*
Y-483544D01*
X-668193D01*
Y-517544D02*
Y-483544D01*
Y-473094D02*
Y-439094D01*
X-706639D02*
X-668193D01*
X-706639Y-473094D02*
Y-439094D01*
Y-473094D02*
X-668193D01*
X-741853D02*
Y-439094D01*
X-780299D02*
X-741853D01*
X-780299Y-473094D02*
Y-439094D01*
Y-473094D02*
X-741853D01*
X-668376Y-294116D02*
Y-260116D01*
X-706822D02*
X-668376D01*
X-706822Y-294116D02*
Y-260116D01*
Y-294116D02*
X-668376D01*
X-742459D02*
Y-260116D01*
X-780906D02*
X-742459D01*
X-780906Y-294116D02*
Y-260116D01*
Y-294116D02*
X-742459D01*
X-668376Y-339744D02*
Y-305744D01*
X-706822D02*
X-668376D01*
X-706822Y-339744D02*
Y-305744D01*
Y-339744D02*
X-668376D01*
X-742459D02*
Y-305744D01*
X-780906D02*
X-742459D01*
X-780906Y-339744D02*
Y-305744D01*
Y-339744D02*
X-742459D01*
X-668193Y-428644D02*
Y-394644D01*
X-706639D02*
X-668193D01*
X-706639Y-428644D02*
Y-394644D01*
Y-428644D02*
X-668193D01*
X-742247D02*
Y-394644D01*
X-780694D02*
X-742247D01*
X-780694Y-428644D02*
Y-394644D01*
Y-428644D02*
X-742247D01*
X-668193Y-384194D02*
Y-350194D01*
X-706639D02*
X-668193D01*
X-706639Y-384194D02*
Y-350194D01*
Y-384194D02*
X-668193D01*
X-742247D02*
Y-350194D01*
X-780694D02*
X-742247D01*
X-780694Y-384194D02*
Y-350194D01*
Y-384194D02*
X-742247D01*
X-741853Y-517544D02*
Y-483544D01*
X-780299D02*
X-741853D01*
X-780299Y-517544D02*
Y-483544D01*
Y-517544D02*
X-741853D01*
M02*
