G04*
G04 #@! TF.GenerationSoftware,Altium Limited,Altium Designer,21.0.9 (235)*
G04*
G04 Layer_Color=255*
%FSLAX44Y44*%
%MOMM*%
G71*
G04*
G04 #@! TF.SameCoordinates,B04B5628-BEB7-489B-AFC1-9DCA5A1A145D*
G04*
G04*
G04 #@! TF.FilePolarity,Positive*
G04*
G01*
G75*
%ADD14R,0.7000X0.9000*%
%ADD15R,1.5242X0.5780*%
G04:AMPARAMS|DCode=16|XSize=1.5242mm|YSize=0.578mm|CornerRadius=0.289mm|HoleSize=0mm|Usage=FLASHONLY|Rotation=180.000|XOffset=0mm|YOffset=0mm|HoleType=Round|Shape=RoundedRectangle|*
%AMROUNDEDRECTD16*
21,1,1.5242,0.0000,0,0,180.0*
21,1,0.9463,0.5780,0,0,180.0*
1,1,0.5780,-0.4731,0.0000*
1,1,0.5780,0.4731,0.0000*
1,1,0.5780,0.4731,0.0000*
1,1,0.5780,-0.4731,0.0000*
%
%ADD16ROUNDEDRECTD16*%
%ADD17R,1.0000X0.9000*%
%ADD21R,1.4000X1.4000*%
%ADD22C,1.4000*%
%ADD29C,1.7780*%
%ADD30C,1.6000*%
%ADD31R,1.6000X1.6000*%
%ADD32C,1.5500*%
%ADD33R,1.5500X1.5500*%
%ADD34C,5.0000*%
D14*
X-759156Y-992180D02*
D03*
X-773156D02*
D03*
X-709656D02*
D03*
X-695656D02*
D03*
X-646410D02*
D03*
X-632410D02*
D03*
X-582910D02*
D03*
X-568910D02*
D03*
D15*
X-678314Y-510044D02*
D03*
Y-465594D02*
D03*
X-751974D02*
D03*
X-678497Y-286616D02*
D03*
X-752581D02*
D03*
X-678497Y-332244D02*
D03*
X-752581D02*
D03*
X-678314Y-421144D02*
D03*
X-752369D02*
D03*
X-678314Y-376694D02*
D03*
X-752369D02*
D03*
X-751974Y-510044D02*
D03*
D16*
X-678314Y-491044D02*
D03*
X-696518Y-500544D02*
D03*
Y-456094D02*
D03*
X-678314Y-446594D02*
D03*
X-770178Y-456094D02*
D03*
X-751974Y-446594D02*
D03*
X-696701Y-277116D02*
D03*
X-678497Y-267616D02*
D03*
X-770784Y-277116D02*
D03*
X-752581Y-267616D02*
D03*
X-696701Y-322744D02*
D03*
X-678497Y-313244D02*
D03*
X-770784Y-322744D02*
D03*
X-752581Y-313244D02*
D03*
X-696518Y-411644D02*
D03*
X-678314Y-402144D02*
D03*
X-770572Y-411644D02*
D03*
X-752369Y-402144D02*
D03*
X-696518Y-367194D02*
D03*
X-678314Y-357694D02*
D03*
X-770572Y-367194D02*
D03*
X-752369Y-357694D02*
D03*
X-770178Y-500544D02*
D03*
X-751974Y-491044D02*
D03*
D17*
X-659024Y-492544D02*
D03*
Y-508544D02*
D03*
Y-464094D02*
D03*
Y-448094D02*
D03*
X-733136Y-464094D02*
D03*
Y-448094D02*
D03*
X-790286Y-448094D02*
D03*
Y-464094D02*
D03*
X-716894Y-448094D02*
D03*
Y-464094D02*
D03*
X-790286Y-269116D02*
D03*
Y-285116D02*
D03*
X-716894Y-269116D02*
D03*
Y-285116D02*
D03*
X-659024Y-285776D02*
D03*
Y-269776D02*
D03*
X-733136Y-285116D02*
D03*
Y-269116D02*
D03*
X-716894Y-314744D02*
D03*
Y-330744D02*
D03*
X-790286Y-314744D02*
D03*
Y-330744D02*
D03*
X-659024Y-330744D02*
D03*
Y-314744D02*
D03*
X-733136Y-330744D02*
D03*
Y-314744D02*
D03*
X-716894Y-403644D02*
D03*
Y-419644D02*
D03*
X-790286Y-403644D02*
D03*
Y-419644D02*
D03*
X-716894Y-359194D02*
D03*
Y-375194D02*
D03*
X-790286Y-359194D02*
D03*
Y-375194D02*
D03*
X-659024Y-419644D02*
D03*
Y-403644D02*
D03*
X-733136Y-419644D02*
D03*
Y-403644D02*
D03*
X-659024Y-375194D02*
D03*
Y-359194D02*
D03*
X-733136Y-375194D02*
D03*
Y-359194D02*
D03*
X-716894Y-492544D02*
D03*
Y-508544D02*
D03*
X-790286Y-492544D02*
D03*
Y-508544D02*
D03*
X-733136Y-508544D02*
D03*
Y-492544D02*
D03*
D21*
X-770728Y-1025854D02*
D03*
X-707228D02*
D03*
X-643728D02*
D03*
X-580228D02*
D03*
D22*
X-770728Y-1050854D02*
D03*
Y-1075854D02*
D03*
X-707228D02*
D03*
Y-1050854D02*
D03*
X-643728Y-1075854D02*
D03*
Y-1050854D02*
D03*
X-580228Y-1075854D02*
D03*
Y-1050854D02*
D03*
D29*
X0Y-787400D02*
D03*
X-25400D02*
D03*
X-50800D02*
D03*
X-76200D02*
D03*
X-101600D02*
D03*
X-127000D02*
D03*
X-152400D02*
D03*
X-177800D02*
D03*
X-203200D02*
D03*
X0Y-812800D02*
D03*
X-228600Y-787400D02*
D03*
X-254000D02*
D03*
X-279400D02*
D03*
X-304800D02*
D03*
X-330200D02*
D03*
X-355600D02*
D03*
X-381000D02*
D03*
X-406400D02*
D03*
X-431800D02*
D03*
X-25400Y-812800D02*
D03*
X-50800D02*
D03*
X-76200D02*
D03*
X-101600D02*
D03*
X-127000D02*
D03*
X-152400D02*
D03*
X-177800D02*
D03*
X-203200D02*
D03*
X-228600D02*
D03*
X-254000D02*
D03*
X-279400D02*
D03*
X-304800D02*
D03*
X-330200D02*
D03*
X-355600D02*
D03*
X-381000D02*
D03*
X-406400D02*
D03*
X-431800D02*
D03*
X0Y-213360D02*
D03*
Y-187960D02*
D03*
Y-162560D02*
D03*
Y-137160D02*
D03*
Y-111760D02*
D03*
Y-86360D02*
D03*
Y-60960D02*
D03*
Y-35560D02*
D03*
Y-238760D02*
D03*
Y-264160D02*
D03*
Y-533400D02*
D03*
Y-558800D02*
D03*
Y-584200D02*
D03*
Y-609600D02*
D03*
Y-635000D02*
D03*
Y-660400D02*
D03*
Y-685800D02*
D03*
Y-711200D02*
D03*
Y-482600D02*
D03*
Y-457200D02*
D03*
Y-431800D02*
D03*
Y-406400D02*
D03*
Y-381000D02*
D03*
Y-355600D02*
D03*
Y-330200D02*
D03*
Y-304800D02*
D03*
X-482600D02*
D03*
Y-279400D02*
D03*
Y-254000D02*
D03*
Y-228600D02*
D03*
Y-203200D02*
D03*
Y-177800D02*
D03*
Y-152400D02*
D03*
Y-127000D02*
D03*
Y-533400D02*
D03*
Y-508000D02*
D03*
Y-482600D02*
D03*
Y-457200D02*
D03*
Y-431800D02*
D03*
Y-406400D02*
D03*
Y-381000D02*
D03*
Y-355600D02*
D03*
Y-762000D02*
D03*
Y-736600D02*
D03*
Y-711200D02*
D03*
Y-685800D02*
D03*
Y-660400D02*
D03*
Y-635000D02*
D03*
Y-609600D02*
D03*
Y-584200D02*
D03*
D30*
X-840436Y57504D02*
D03*
Y32104D02*
D03*
Y6704D02*
D03*
Y-18696D02*
D03*
Y-44096D02*
D03*
X-865836Y57504D02*
D03*
Y32104D02*
D03*
Y6704D02*
D03*
Y-18696D02*
D03*
Y-44096D02*
D03*
X-840436Y-94896D02*
D03*
Y-120296D02*
D03*
X-865836Y-94896D02*
D03*
Y-120296D02*
D03*
X-840436Y-196496D02*
D03*
X-865836D02*
D03*
Y-348896D02*
D03*
X-840436Y-323496D02*
D03*
X-865836D02*
D03*
Y-298096D02*
D03*
X-840436D02*
D03*
X-865836Y-272696D02*
D03*
X-840436D02*
D03*
X-865836Y-247296D02*
D03*
Y-221896D02*
D03*
X-840436Y-247296D02*
D03*
Y-221896D02*
D03*
X-865836Y-171096D02*
D03*
Y-145696D02*
D03*
X-840436Y-171096D02*
D03*
Y-145696D02*
D03*
X-865836Y-69496D02*
D03*
X-840436D02*
D03*
Y-516546D02*
D03*
Y-541946D02*
D03*
Y-567346D02*
D03*
Y-592746D02*
D03*
Y-618146D02*
D03*
X-865836Y-516546D02*
D03*
Y-541946D02*
D03*
Y-567346D02*
D03*
Y-592746D02*
D03*
Y-618146D02*
D03*
X-840436Y-668946D02*
D03*
Y-694346D02*
D03*
X-865836Y-668946D02*
D03*
Y-694346D02*
D03*
X-840436Y-770546D02*
D03*
X-865836D02*
D03*
Y-922946D02*
D03*
X-840436Y-897546D02*
D03*
X-865836D02*
D03*
Y-872146D02*
D03*
X-840436D02*
D03*
X-865836Y-846746D02*
D03*
X-840436D02*
D03*
X-865836Y-821346D02*
D03*
Y-795946D02*
D03*
X-840436Y-821346D02*
D03*
Y-795946D02*
D03*
X-865836Y-745146D02*
D03*
Y-719746D02*
D03*
X-840436Y-745146D02*
D03*
Y-719746D02*
D03*
X-865836Y-643546D02*
D03*
X-840436D02*
D03*
D31*
Y-348896D02*
D03*
Y-922946D02*
D03*
D32*
X-229100Y-484000D02*
D03*
X-254500D02*
D03*
X-203700Y-509400D02*
D03*
X-254500D02*
D03*
X-229100D02*
D03*
D33*
X-203700Y-484000D02*
D03*
D34*
X0Y0D02*
D03*
X-431000Y-508000D02*
D03*
X-152000D02*
D03*
X-781726Y77316D02*
D03*
X38274Y-1072684D02*
D03*
X-841726D02*
D03*
X-482600Y-812800D02*
D03*
X0Y-749300D02*
D03*
M02*
