G04*
G04 #@! TF.GenerationSoftware,Altium Limited,Altium Designer,21.0.9 (235)*
G04*
G04 Layer_Color=65535*
%FSLAX44Y44*%
%MOMM*%
G71*
G04*
G04 #@! TF.SameCoordinates,B04B5628-BEB7-489B-AFC1-9DCA5A1A145D*
G04*
G04*
G04 #@! TF.FilePolarity,Positive*
G04*
G01*
G75*
%ADD10C,0.2500*%
%ADD11C,0.2540*%
%ADD12C,0.2000*%
%ADD13C,0.5080*%
D10*
X-769628Y-996004D02*
G03*
X-769628Y-996004I-1250J0D01*
G01*
X-706128D02*
G03*
X-706128Y-996004I-1250J0D01*
G01*
X-642628D02*
G03*
X-642628Y-996004I-1250J0D01*
G01*
X-579128D02*
G03*
X-579128Y-996004I-1250J0D01*
G01*
D11*
X-751726Y77316D02*
G03*
X-751726Y77316I-30000J0D01*
G01*
X-811726Y-1072684D02*
G03*
X-811726Y-1072684I-30000J0D01*
G01*
X68274D02*
G03*
X68274Y-1072684I-30000J0D01*
G01*
X30000Y-749300D02*
G03*
X30000Y-749300I-30000J0D01*
G01*
Y0D02*
G03*
X30000Y0I-30000J0D01*
G01*
X-122000Y-508000D02*
G03*
X-122000Y-508000I-30000J0D01*
G01*
X-401000D02*
G03*
X-401000Y-508000I-30000J0D01*
G01*
X-452600Y-812800D02*
G03*
X-452600Y-812800I-30000J0D01*
G01*
X-507991Y-828294D02*
G03*
X-498348Y-838188I9898J0D01*
G01*
X-507991Y-498294D02*
G03*
X-498348Y-508188I9898J0D01*
G01*
X12700Y-825500D02*
Y-774700D01*
X-444500D02*
X12700D01*
X-444500Y-825500D02*
Y-774700D01*
Y-825500D02*
X12700D01*
Y-276860D02*
Y-22860D01*
X-12700Y-276860D02*
X12700D01*
X-12700D02*
Y-22860D01*
X12700D01*
X-12700Y-520700D02*
X12700D01*
X-12700Y-723900D02*
Y-520700D01*
Y-723900D02*
X12700D01*
Y-520700D01*
X-498348Y-838188D02*
X-482612D01*
X10160Y-838200D02*
X25400Y-822960D01*
X-104140Y-838200D02*
X10160D01*
X-129540Y-863600D02*
X-104140Y-838200D01*
X-457200Y-863600D02*
X-129540D01*
X-482600Y-838200D02*
X-457200Y-863600D01*
X-469900Y-546100D02*
Y-342900D01*
X-495300Y-546100D02*
X-469900D01*
X-495300D02*
Y-342900D01*
X-469900D01*
Y-317500D02*
Y-114300D01*
X-495300Y-317500D02*
X-469900D01*
X-495300D02*
Y-114300D01*
X-469900D01*
X12700Y-495300D02*
Y-292100D01*
X-12700Y-495300D02*
X12700D01*
X-12700D02*
Y-292100D01*
X12700D01*
X-482600Y-508200D02*
X-457200Y-533600D01*
X-129540D01*
X-104140Y-508200D01*
X10160D01*
X25400Y-492960D01*
X25400Y16854D02*
X25400Y-822960D01*
X-498348Y-508188D02*
X-482612D01*
X-508000Y-10578D02*
X-508000Y-814996D01*
X-469900Y-774700D02*
Y-571500D01*
X-495300Y-774700D02*
X-469900D01*
X-495300D02*
Y-571500D01*
X-469900D01*
X-508003Y-828294D02*
Y-814237D01*
X-458049Y-782323D02*
X-461434D01*
X-459742D01*
Y-790787D01*
X-461434Y-792480D01*
X-463127D01*
X-464820Y-790787D01*
X-454663D02*
X-452971Y-792480D01*
X-449585D01*
X-447892Y-790787D01*
Y-784016D01*
X-449585Y-782323D01*
X-452971D01*
X-454663Y-784016D01*
Y-785709D01*
X-452971Y-787402D01*
X-447892D01*
X-4595Y-3904D02*
X-7981D01*
X-6288D01*
Y-12368D01*
X-7981Y-14060D01*
X-9674D01*
X-11366Y-12368D01*
X5561Y-14060D02*
X-1210D01*
X5561Y-7289D01*
Y-5597D01*
X3869Y-3904D01*
X483D01*
X-1210Y-5597D01*
X-2719Y-498007D02*
X-6104D01*
X-4412D01*
Y-506471D01*
X-6104Y-508164D01*
X-7797D01*
X-9490Y-506471D01*
X667Y-499700D02*
X2359Y-498007D01*
X5745D01*
X7438Y-499700D01*
Y-501393D01*
X5745Y-503086D01*
X7438Y-504779D01*
Y-506471D01*
X5745Y-508164D01*
X2359D01*
X667Y-506471D01*
Y-504779D01*
X2359Y-503086D01*
X667Y-501393D01*
Y-499700D01*
X2359Y-503086D02*
X5745D01*
X-859207Y-404789D02*
X-862592D01*
X-860900D01*
Y-413253D01*
X-862592Y-414946D01*
X-864285D01*
X-865978Y-413253D01*
X-849050Y-404789D02*
X-852436Y-406482D01*
X-855821Y-409868D01*
Y-413253D01*
X-854128Y-414946D01*
X-850743D01*
X-849050Y-413253D01*
Y-411561D01*
X-850743Y-409868D01*
X-855821D01*
X-862022Y88204D02*
X-860329Y86511D01*
Y83126D01*
X-862022Y81433D01*
X-863715D01*
X-865408Y83126D01*
Y84818D01*
Y83126D01*
X-867100Y81433D01*
X-868793D01*
X-870486Y83126D01*
Y86511D01*
X-868793Y88204D01*
X-870486Y72969D02*
X-860329D01*
X-865408Y78047D01*
Y71276D01*
X-836622Y88204D02*
X-834929Y86511D01*
Y83126D01*
X-836622Y81433D01*
X-838315D01*
X-840008Y83126D01*
Y84818D01*
Y83126D01*
X-841700Y81433D01*
X-843393D01*
X-845086Y83126D01*
Y86511D01*
X-843393Y88204D01*
X-836622Y78047D02*
X-834929Y76354D01*
Y72969D01*
X-836622Y71276D01*
X-838315D01*
X-840008Y72969D01*
Y74662D01*
Y72969D01*
X-841700Y71276D01*
X-843393D01*
X-845086Y72969D01*
Y76354D01*
X-843393Y78047D01*
X-845086Y-363496D02*
Y-366882D01*
Y-365189D01*
X-834929D01*
X-836622Y-363496D01*
X-870486Y-369267D02*
Y-362496D01*
X-863715Y-369267D01*
X-862022D01*
X-860329Y-367574D01*
Y-364189D01*
X-862022Y-362496D01*
X-741518Y-980350D02*
Y-973579D01*
X-738132Y-970193D01*
X-734747Y-973579D01*
Y-980350D01*
Y-975272D01*
X-741518D01*
X-731361Y-970193D02*
X-727976D01*
X-729669D01*
Y-980350D01*
X-731361D01*
X-727976D01*
X-722897Y-970193D02*
X-716126D01*
Y-971886D01*
X-722897Y-978657D01*
Y-980350D01*
X-805018D02*
Y-973579D01*
X-801632Y-970193D01*
X-798247Y-973579D01*
Y-980350D01*
Y-975272D01*
X-805018D01*
X-794861Y-970193D02*
X-791476D01*
X-793168D01*
Y-980350D01*
X-794861D01*
X-791476D01*
X-786397Y-971886D02*
X-784705Y-970193D01*
X-781319D01*
X-779626Y-971886D01*
Y-973579D01*
X-781319Y-975272D01*
X-779626Y-976964D01*
Y-978657D01*
X-781319Y-980350D01*
X-784705D01*
X-786397Y-978657D01*
Y-976964D01*
X-784705Y-975272D01*
X-786397Y-973579D01*
Y-971886D01*
X-784705Y-975272D02*
X-781319D01*
X-678018Y-980350D02*
Y-973579D01*
X-674632Y-970193D01*
X-671247Y-973579D01*
Y-980350D01*
Y-975272D01*
X-678018D01*
X-667861Y-970193D02*
X-664476D01*
X-666169D01*
Y-980350D01*
X-667861D01*
X-664476D01*
X-652626Y-970193D02*
X-656012Y-971886D01*
X-659397Y-975272D01*
Y-978657D01*
X-657705Y-980350D01*
X-654319D01*
X-652626Y-978657D01*
Y-976964D01*
X-654319Y-975272D01*
X-659397D01*
X-614518Y-980350D02*
Y-973579D01*
X-611132Y-970193D01*
X-607747Y-973579D01*
Y-980350D01*
Y-975272D01*
X-614518D01*
X-604361Y-970193D02*
X-600976D01*
X-602668D01*
Y-980350D01*
X-604361D01*
X-600976D01*
X-589126Y-970193D02*
X-595897D01*
Y-975272D01*
X-592512Y-973579D01*
X-590819D01*
X-589126Y-975272D01*
Y-978657D01*
X-590819Y-980350D01*
X-594205D01*
X-595897Y-978657D01*
X-862022Y-485846D02*
X-860329Y-487539D01*
Y-490924D01*
X-862022Y-492617D01*
X-863715D01*
X-865408Y-490924D01*
Y-489232D01*
Y-490924D01*
X-867100Y-492617D01*
X-868793D01*
X-870486Y-490924D01*
Y-487539D01*
X-868793Y-485846D01*
X-870486Y-501081D02*
X-860329D01*
X-865408Y-496003D01*
Y-502774D01*
X-836622Y-485846D02*
X-834929Y-487539D01*
Y-490924D01*
X-836622Y-492617D01*
X-838315D01*
X-840008Y-490924D01*
Y-489232D01*
Y-490924D01*
X-841700Y-492617D01*
X-843393D01*
X-845086Y-490924D01*
Y-487539D01*
X-843393Y-485846D01*
X-836622Y-496003D02*
X-834929Y-497696D01*
Y-501081D01*
X-836622Y-502774D01*
X-838315D01*
X-840008Y-501081D01*
Y-499388D01*
Y-501081D01*
X-841700Y-502774D01*
X-843393D01*
X-845086Y-501081D01*
Y-497696D01*
X-843393Y-496003D01*
X-845086Y-937546D02*
Y-940932D01*
Y-939239D01*
X-834929D01*
X-836622Y-937546D01*
X-870486Y-943317D02*
Y-936546D01*
X-863715Y-943317D01*
X-862022D01*
X-860329Y-941624D01*
Y-938239D01*
X-862022Y-936546D01*
X-556098Y-999146D02*
Y-988989D01*
X-551020D01*
X-549327Y-990682D01*
Y-994068D01*
X-551020Y-995760D01*
X-556098D01*
X-552712D02*
X-549327Y-999146D01*
X-539170D02*
X-545941D01*
X-539170Y-992375D01*
Y-990682D01*
X-540863Y-988989D01*
X-544249D01*
X-545941Y-990682D01*
X-529013Y-988989D02*
X-535785D01*
Y-994068D01*
X-532399Y-992375D01*
X-530706D01*
X-529013Y-994068D01*
Y-997453D01*
X-530706Y-999146D01*
X-534092D01*
X-535785Y-997453D01*
X-857429Y-448985D02*
X-860814D01*
X-859122D01*
Y-457449D01*
X-860814Y-459142D01*
X-862507D01*
X-864200Y-457449D01*
X-854043Y-459142D02*
X-850658D01*
X-852350D01*
Y-448985D01*
X-854043Y-450678D01*
X-485319Y-777915D02*
X-488704D01*
X-487012D01*
Y-786379D01*
X-488704Y-788072D01*
X-490397D01*
X-492090Y-786379D01*
X-481933Y-777915D02*
X-475162D01*
Y-779608D01*
X-481933Y-786379D01*
Y-788072D01*
X-2211Y-279313D02*
X-5596D01*
X-3904D01*
Y-287777D01*
X-5596Y-289470D01*
X-7289D01*
X-8982Y-287777D01*
X7946Y-279313D02*
X1175D01*
Y-284392D01*
X4560Y-282699D01*
X6253D01*
X7946Y-284392D01*
Y-287777D01*
X6253Y-289470D01*
X2867D01*
X1175Y-287777D01*
X-485319Y-548807D02*
X-488704D01*
X-487012D01*
Y-557271D01*
X-488704Y-558964D01*
X-490397D01*
X-492090Y-557271D01*
X-476855Y-558964D02*
Y-548807D01*
X-481933Y-553886D01*
X-475162D01*
X-484049Y-320715D02*
X-487434D01*
X-485742D01*
Y-329179D01*
X-487434Y-330872D01*
X-489127D01*
X-490820Y-329179D01*
X-480663Y-322408D02*
X-478970Y-320715D01*
X-475585D01*
X-473892Y-322408D01*
Y-324101D01*
X-475585Y-325794D01*
X-477278D01*
X-475585D01*
X-473892Y-327486D01*
Y-329179D01*
X-475585Y-330872D01*
X-478970D01*
X-480663Y-329179D01*
D12*
X-747228Y-1100354D02*
Y-1001354D01*
X-804728Y-1100354D02*
X-747228D01*
X-804728D02*
Y-1001354D01*
X-747228D01*
X-766656Y-988680D02*
X-765656D01*
X-766656Y-995680D02*
X-765656D01*
X-973486Y-400646D02*
Y109254D01*
Y-400646D02*
X-883486D01*
X-973486Y109254D02*
X-883486D01*
Y-400646D02*
Y109254D01*
X-693916Y-515044D02*
X-689685D01*
X-693916Y-493904D02*
Y-486044D01*
Y-515044D02*
Y-507184D01*
Y-486044D02*
X-689685D01*
X-680916Y-503404D02*
Y-497684D01*
X-663024Y-501044D02*
Y-500044D01*
X-655024Y-501044D02*
Y-500044D01*
Y-456594D02*
Y-455594D01*
X-663024Y-456594D02*
Y-455594D01*
X-680916Y-458954D02*
Y-453234D01*
X-693916Y-441594D02*
X-689685D01*
X-693916Y-470594D02*
Y-462734D01*
Y-449454D02*
Y-441594D01*
Y-470594D02*
X-689685D01*
X-729136Y-456594D02*
Y-455594D01*
X-737136Y-456594D02*
Y-455594D01*
X-794286Y-456594D02*
Y-455594D01*
X-786286Y-456594D02*
Y-455594D01*
X-754576Y-458954D02*
Y-453234D01*
X-767576Y-441594D02*
X-763345D01*
X-767576Y-470594D02*
Y-462734D01*
Y-449454D02*
Y-441594D01*
Y-470594D02*
X-763345D01*
X-720894Y-456594D02*
Y-455594D01*
X-712894Y-456594D02*
Y-455594D01*
X-794286Y-277616D02*
Y-276616D01*
X-786286Y-277616D02*
Y-276616D01*
X-720894Y-277616D02*
Y-276616D01*
X-712894Y-277616D02*
Y-276616D01*
X-655024Y-278276D02*
Y-277276D01*
X-663024Y-278276D02*
Y-277276D01*
X-729136Y-277616D02*
Y-276616D01*
X-737136Y-277616D02*
Y-276616D01*
X-681099Y-279976D02*
Y-274256D01*
X-694099Y-262616D02*
X-689868D01*
X-694099Y-291616D02*
Y-283756D01*
Y-270476D02*
Y-262616D01*
Y-291616D02*
X-689868D01*
X-755182Y-279976D02*
Y-274256D01*
X-768182Y-262616D02*
X-763952D01*
X-768182Y-291616D02*
Y-283756D01*
Y-270476D02*
Y-262616D01*
Y-291616D02*
X-763952D01*
X-720894Y-323244D02*
Y-322244D01*
X-712894Y-323244D02*
Y-322244D01*
X-794286Y-323244D02*
Y-322244D01*
X-786286Y-323244D02*
Y-322244D01*
X-681099Y-325604D02*
Y-319884D01*
X-694099Y-308244D02*
X-689868D01*
X-694099Y-337244D02*
Y-329384D01*
Y-316104D02*
Y-308244D01*
Y-337244D02*
X-689868D01*
X-755182Y-325604D02*
Y-319884D01*
X-768182Y-308244D02*
X-763952D01*
X-768182Y-337244D02*
Y-329384D01*
Y-316104D02*
Y-308244D01*
Y-337244D02*
X-763952D01*
X-655024Y-323244D02*
Y-322244D01*
X-663024Y-323244D02*
Y-322244D01*
X-729136Y-323244D02*
Y-322244D01*
X-737136Y-323244D02*
Y-322244D01*
X-720894Y-412144D02*
Y-411144D01*
X-712894Y-412144D02*
Y-411144D01*
X-794286Y-412144D02*
Y-411144D01*
X-786286Y-412144D02*
Y-411144D01*
X-720894Y-367694D02*
Y-366694D01*
X-712894Y-367694D02*
Y-366694D01*
X-794286Y-367694D02*
Y-366694D01*
X-786286Y-367694D02*
Y-366694D01*
X-680916Y-414504D02*
Y-408784D01*
X-693916Y-397144D02*
X-689685D01*
X-693916Y-426144D02*
Y-418284D01*
Y-405004D02*
Y-397144D01*
Y-426144D02*
X-689685D01*
X-754970Y-414504D02*
Y-408784D01*
X-767971Y-397144D02*
X-763740D01*
X-767971Y-426144D02*
Y-418284D01*
Y-405004D02*
Y-397144D01*
Y-426144D02*
X-763740D01*
X-680916Y-370054D02*
Y-364334D01*
X-693916Y-352694D02*
X-689685D01*
X-693916Y-381694D02*
Y-373834D01*
Y-360554D02*
Y-352694D01*
Y-381694D02*
X-689685D01*
X-754970Y-370054D02*
Y-364334D01*
X-767971Y-352694D02*
X-763740D01*
X-767971Y-381694D02*
Y-373834D01*
Y-360554D02*
Y-352694D01*
Y-381694D02*
X-763740D01*
X-655024Y-412144D02*
Y-411144D01*
X-663024Y-412144D02*
Y-411144D01*
X-729136Y-412144D02*
Y-411144D01*
X-737136Y-412144D02*
Y-411144D01*
X-655024Y-367694D02*
Y-366694D01*
X-663024Y-367694D02*
Y-366694D01*
X-729136Y-367694D02*
Y-366694D01*
X-737136Y-367694D02*
Y-366694D01*
X-720894Y-501044D02*
Y-500044D01*
X-712894Y-501044D02*
Y-500044D01*
X-794286Y-501044D02*
Y-500044D01*
X-786286Y-501044D02*
Y-500044D01*
X-754576Y-503404D02*
Y-497684D01*
X-767576Y-486044D02*
X-763345D01*
X-767576Y-515044D02*
Y-507184D01*
Y-493904D02*
Y-486044D01*
Y-515044D02*
X-763345D01*
X-729136Y-501044D02*
Y-500044D01*
X-737136Y-501044D02*
Y-500044D01*
X-703156Y-995680D02*
X-702156D01*
X-703156Y-988680D02*
X-702156D01*
X-639910Y-995680D02*
X-638910D01*
X-639910Y-988680D02*
X-638910D01*
X-576410Y-995680D02*
X-575410D01*
X-576410Y-988680D02*
X-575410D01*
X-741228Y-1001354D02*
X-683728D01*
X-741228Y-1100354D02*
Y-1001354D01*
Y-1100354D02*
X-683728D01*
Y-1001354D01*
X-677728D02*
X-620228D01*
X-677728Y-1100354D02*
Y-1001354D01*
Y-1100354D02*
X-620228D01*
Y-1001354D01*
X-614228D02*
X-556728D01*
X-614228Y-1100354D02*
Y-1001354D01*
Y-1100354D02*
X-556728D01*
Y-1001354D01*
X-973486Y-974696D02*
Y-464796D01*
Y-974696D02*
X-883486D01*
X-973486Y-464796D02*
X-883486D01*
Y-974696D02*
Y-464796D01*
D13*
X-518252Y-1045977D02*
Y-1025664D01*
X-508095D01*
X-504710Y-1029049D01*
Y-1035820D01*
X-508095Y-1039206D01*
X-518252D01*
X-497939Y-1045977D02*
Y-1032435D01*
X-487782D01*
X-484396Y-1035820D01*
Y-1045977D01*
X-467468D02*
X-474240D01*
X-477625Y-1042591D01*
Y-1035820D01*
X-474240Y-1032435D01*
X-467468D01*
X-464083Y-1035820D01*
Y-1039206D01*
X-477625D01*
X-457312Y-1032435D02*
Y-1042591D01*
X-453926Y-1045977D01*
X-443769D01*
Y-1032435D01*
X-423456Y-1029049D02*
X-426842Y-1025664D01*
X-433613D01*
X-436998Y-1029049D01*
Y-1032435D01*
X-433613Y-1035820D01*
X-426842D01*
X-423456Y-1039206D01*
Y-1042591D01*
X-426842Y-1045977D01*
X-433613D01*
X-436998Y-1042591D01*
X-413299Y-1045977D02*
X-406528D01*
X-403143Y-1042591D01*
Y-1035820D01*
X-406528Y-1032435D01*
X-413299D01*
X-416685Y-1035820D01*
Y-1042591D01*
X-413299Y-1045977D01*
X-396371D02*
Y-1025664D01*
X-386215D01*
X-382829Y-1029049D01*
Y-1035820D01*
X-386215Y-1039206D01*
X-396371D01*
X-389600D02*
X-382829Y-1045977D01*
X-376058Y-1025664D02*
Y-1045977D01*
X-365901D01*
X-362516Y-1042591D01*
Y-1029049D01*
X-365901Y-1025664D01*
X-376058D01*
X-518252Y-1082545D02*
Y-1069003D01*
X-511481Y-1062232D01*
X-504710Y-1069003D01*
Y-1082545D01*
Y-1072388D01*
X-518252D01*
X-497939Y-1069003D02*
Y-1082545D01*
Y-1075774D01*
X-494553Y-1072388D01*
X-491167Y-1069003D01*
X-487782D01*
X-464083Y-1062232D02*
Y-1082545D01*
X-474240D01*
X-477625Y-1079159D01*
Y-1072388D01*
X-474240Y-1069003D01*
X-464083D01*
X-457312D02*
Y-1079159D01*
X-453926Y-1082545D01*
X-443769D01*
Y-1069003D01*
X-436998Y-1082545D02*
X-430227D01*
X-433613D01*
Y-1069003D01*
X-436998D01*
X-420070Y-1082545D02*
Y-1069003D01*
X-409914D01*
X-406528Y-1072388D01*
Y-1082545D01*
X-396371D02*
X-389600D01*
X-386215Y-1079159D01*
Y-1072388D01*
X-389600Y-1069003D01*
X-396371D01*
X-399757Y-1072388D01*
Y-1079159D01*
X-396371Y-1082545D01*
X-359130Y-1062232D02*
Y-1082545D01*
X-348974D01*
X-345588Y-1079159D01*
Y-1065617D01*
X-348974Y-1062232D01*
X-359130D01*
X-338817Y-1069003D02*
Y-1079159D01*
X-335431Y-1082545D01*
X-325275D01*
Y-1069003D01*
X-308347Y-1082545D02*
X-315118D01*
X-318503Y-1079159D01*
Y-1072388D01*
X-315118Y-1069003D01*
X-308347D01*
X-304961Y-1072388D01*
Y-1075774D01*
X-318503D01*
X-277876Y-1082545D02*
Y-1069003D01*
X-271105Y-1062232D01*
X-264334Y-1069003D01*
Y-1082545D01*
Y-1072388D01*
X-277876D01*
X-244021Y-1062232D02*
Y-1082545D01*
X-254177D01*
X-257563Y-1079159D01*
Y-1072388D01*
X-254177Y-1069003D01*
X-244021D01*
X-233864D02*
X-227093D01*
X-223707Y-1072388D01*
Y-1082545D01*
X-233864D01*
X-237250Y-1079159D01*
X-233864Y-1075774D01*
X-223707D01*
X-216936Y-1089316D02*
Y-1069003D01*
X-206779D01*
X-203394Y-1072388D01*
Y-1079159D01*
X-206779Y-1082545D01*
X-216936D01*
X-193237Y-1065617D02*
Y-1069003D01*
X-196623D01*
X-189852D01*
X-193237D01*
Y-1079159D01*
X-189852Y-1082545D01*
X-169538D02*
X-176309D01*
X-179695Y-1079159D01*
Y-1072388D01*
X-176309Y-1069003D01*
X-169538D01*
X-166153Y-1072388D01*
Y-1075774D01*
X-179695D01*
X-159382Y-1069003D02*
Y-1082545D01*
Y-1075774D01*
X-155996Y-1072388D01*
X-152610Y-1069003D01*
X-149225D01*
M02*
